<svg id="Layer_1" data-name="Layer 1" xmlns="http://www.w3.org/2000/svg" viewBox="0 0 500 500"><defs><style>.cls-1{fill:#00818d;}.cls-1,.cls-2,.cls-3,.cls-4,.cls-5,.cls-7{fill-rule:evenodd;}.cls-2{fill:#9ab42f;}.cls-3{fill:#c0ce46;}.cls-4{fill:#009bff;}.cls-5{fill:#52bbff;}.cls-6{fill:#ffe317;}.cls-7{fill:#ffe0d1;}.cls-8{fill:#455a64;}</style></defs><title>Flowers Delivery</title><path class="cls-1" d="M341.64,11.8a50.78,50.78,0,0,0-11.92,11.34,52.85,52.85,0,0,0-6.23-15.49c-57.83,64.84,37.53,99.43,34.74,12.6a53.12,53.12,0,0,0-14.72,7.89A50.58,50.58,0,0,0,341.64,11.8Z"/><path class="cls-1" d="M159.81,11.8a50.78,50.78,0,0,1,11.92,11.34A53.13,53.13,0,0,1,178,7.65c57.83,64.84-37.53,99.43-34.73,12.6a53.21,53.21,0,0,1,14.71,7.89A50.55,50.55,0,0,1,159.81,11.8Z"/><path class="cls-2" d="M315.06,59.11c45.35,41.41,42.15,86.36,0,128.37C273.42,144.7,268,100.88,315.06,59.11Z"/><path class="cls-3" d="M315.06,59.11c23.37,21,34.3,43.66,32.63,67.83-1.44,20.71-13.7,41.77-32.63,60.54C314.92,182.15,315.08,61,315.06,59.11Z"/><path class="cls-2" d="M185.23,59.11c45.35,41.41,42.15,86.36,0,128.37C143.59,144.7,138.15,100.88,185.23,59.11Z"/><path class="cls-3" d="M185.23,59.11c23.37,21,34.31,43.66,32.63,67.83-1.44,20.71-13.7,41.77-32.63,60.54C185.09,182.15,185.25,61,185.23,59.11Z"/><path class="cls-4" d="M88.66,52.27c9.26,4.44,18.54,11.52,27.21,20.09,1.45-12.26,4.3-23.75,8.75-33.19C259.13,156.69,73.44,251.59,57,73.75c10.25,1.92,21.23,6.34,32,12.34C87.14,74,86.84,62.38,88.66,52.27Z"/><path class="cls-4" d="M411.79,52.27c-9.26,4.44-18.54,11.52-27.21,20.09-1.45-12.26-4.3-23.75-8.75-33.19C241.32,156.69,427,251.59,443.46,73.75c-10.25,1.92-21.23,6.34-32,12.34C413.31,74,413.61,62.38,411.79,52.27Z"/><path class="cls-4" d="M250.22,25.92c7,9.13,12.58,20.88,16.85,33.81,7.68-11.46,16.35-21.43,25.56-28.55,74,185.2-158.84,185.19-84.82,0C217,38.3,225.7,48.27,233.38,59.73,237.65,46.79,243.28,35.05,250.22,25.92Z"/><path class="cls-2" d="M439.74,119.78c-31.34-4.87-48.4,11-51.68,41.52C418.75,164.22,438.15,152.24,439.74,119.78Z"/><path class="cls-3" d="M439.74,119.78c-16-2.62-28.67.31-37.86,8.8-7.87,7.28-12.39,19-13.81,32.72C390.26,159.63,439,120.38,439.74,119.78Z"/><polygon class="cls-5" points="97.48 161.75 404.77 161.75 298.81 413.9 350.46 492 151.79 492 203.44 413.9 97.48 161.75"/><polygon class="cls-4" points="97.48 161.75 251.13 161.75 251.13 492 151.79 492 203.44 413.9 97.48 161.75"/><rect class="cls-6" x="201.6" y="409.59" width="99.05" height="12.88" rx="3.95"/><path class="cls-2" d="M63.42,119.77c31.34-4.85,48.4,11,51.67,41.53C84.41,164.22,65,152.24,63.42,119.77Z"/><path class="cls-3" d="M63.42,119.77c16-2.61,28.67.32,37.86,8.81,7.87,7.28,12.38,19,13.81,32.72C112.91,159.63,64.19,120.37,63.42,119.77Z"/><path class="cls-7" d="M341.36,371a20,20,0,0,0,0-39.9H339V328.2h2.32a19.95,19.95,0,0,0,0-39.89H314.89a19.4,19.4,0,0,0-4.4.51,31.1,31.1,0,0,0-6.92-.78H238.4l42.81-46A24.43,24.43,0,0,0,280,207.64h0a24.44,24.44,0,0,0-34.42,1.23l-72.32,77.69a24.09,24.09,0,0,0-4.82,7.72,38.33,38.33,0,0,0-10.79,12H97.15c-15.28,0-27.78,14.08-27.78,31.28v69.35c0,17.2,12.5,31.27,27.78,31.27h60.47c6.33,11,17.32,18.25,29.74,18.25H303.57a31.74,31.74,0,0,0,6.35-.65,19.86,19.86,0,0,0,5,.65h26.47a19.95,19.95,0,0,0,0-39.89H339V413.7h2.32a20,20,0,0,0,0-39.9H339V371Z"/><rect class="cls-8" x="69.37" y="299.81" width="48.5" height="144.86" rx="18.29"/></svg>