<svg id="Layer_1" data-name="Layer 1" xmlns="http://www.w3.org/2000/svg" viewBox="0 0 500 500"><defs><style>.cls-1{fill:#ffe0d1;}.cls-2{fill:#f4c5b3;}.cls-3{fill:#6c6c6c;}.cls-15,.cls-4{fill:#f4f4f4;}.cls-5{fill:#e8e8e8;}.cls-6{fill:#c9c9c9;}.cls-7{fill:#a57c5b;}.cls-8{fill:#b78b6e;}.cls-9{fill:#ffcf03;}.cls-10{fill:#009bff;}.cls-11{fill:#ffd7e2;}.cls-12{fill:#e8bb00;}.cls-13{fill:#ffe706;}.cls-14{fill:#4d4d4d;}.cls-15{font-size:11.38px;font-family:Montserrat-Medium, Montserrat;font-weight:500;letter-spacing:0.2em;}.cls-16{fill:#e0e0e0;}.cls-17{fill:#ffe4c7;}</style></defs><title>Food Delivery</title><path class="cls-1" d="M83.31,177.74c-.5-.16-3.58-2.89-7.7-3.28,4.66,6.92,2.09,17.28-3.41,24.49a42.73,42.73,0,0,0,11.11,8.64C93.18,206,83.31,177.74,83.31,177.74Z"/><path class="cls-1" d="M88.48,144.55c-.69-.23-6.2-5.28-12.63-2.53a5.36,5.36,0,0,0-.53.28c3.93,6.06,1.93,12.8-1.4,18.69,2.57,4.52,7.14,9.24,14.56,13.41C98.35,172.79,88.48,144.55,88.48,144.55Z"/><path class="cls-1" d="M406.27,494.36l-85-113.76s-25.48-39.45-18.64-68.35c2.38-10.06,2-21.06.18-31.67l-81.5-75.91c-7,3.61-80.24,49.13-83.82,48.23s-33.56-1.39-43.35,8.39S89,286,103.49,279.94s49.77-4.77,60.58,3.26c5.92,4.39,14.92,6.06,28,34s28,41.95,43.81,48.47c15.07,6.21,70.27,117.79,76.64,128.67Z"/><path class="cls-2" d="M83.31,177.74c-.69-.23-6.2-5.28-12.63-2.52s-9.41,20,12.63,32.37C93.18,206,83.31,177.74,83.31,177.74Z"/><path class="cls-2" d="M88.48,144.55c-.69-.23-6.2-5.28-12.63-2.53s-9.41,20,12.63,32.38C98.35,172.79,88.48,144.55,88.48,144.55Z"/><path class="cls-2" d="M139.09,268.56c0-3.64,1.29-6.3,5.62-7.21,20.8-3.11,46.3,3.57,70.89,9.94,11.84,2.74,23.68-2.73,27.33-14.57,4.55-15.48-14.58-20-21.86-27.32a147.55,147.55,0,0,1-14-16.11c-23.45,14.11-66.75,40.47-69.48,39.78-3.73-.93-33.54-1.39-43.32,8.39a19.48,19.48,0,0,0-1.67,1.89C107.4,258.07,125.66,257.34,139.09,268.56Z"/><path class="cls-1" d="M284,234.13c-9.94-12.73-9.7-31.59-11.33-36.94s-3-53.8-5-59.15-12.2-28.18-14.3-31-18.16-35.4-27-27-.47,31.44,3.26,34.93c-.24,7,10,25.85,11.87,31.44-.93,8.38-7.45,40.05-7.45,44.25s-10.71,14-12.11,14a2.31,2.31,0,0,0-.53.23l81.44,75.86C299.31,260.89,290.47,242.43,284,234.13Z"/><rect class="cls-3" x="79.4" y="5.64" width="143.48" height="251.7" rx="10.49"/><rect class="cls-4" x="87.75" y="23.68" width="126.79" height="213.87"/><path class="cls-5" d="M148.36,67.36c-10.8-5.07-45.94,0-45.94,0s.65,7.3,7.13,18.26h0c.93,4.37,7.66,7.77,15.83,7.77,8.5,0,15.43-3.67,15.91-8.3h0A44.44,44.44,0,0,0,148.36,67.36Z"/><ellipse class="cls-6" cx="125.39" cy="66.55" rx="23.02" ry="12.69"/><path class="cls-7" d="M125.39,52.16c-12.11,0-21.92,9.74-21.92,16.42a7,7,0,0,0,.54,2.67c3.39,4.68,11.68,8,21.38,8s18-3.31,21.38-8a7,7,0,0,0,.55-2.67C147.32,61.9,137.5,52.16,125.39,52.16Z"/><path class="cls-8" d="M122.05,68.94c1.16,1.79,2.43,2.48,5.07,3.38,7,1.41,17-.72,19.15-7.85-2.82-6-11.1-12.31-20.88-12.31-.6,0-1.19,0-1.78.08C120,56.77,119.12,63.81,122.05,68.94Z"/><circle class="cls-9" cx="121.91" cy="74.34" r="1.62"/><circle class="cls-9" cx="131.41" cy="67.57" r="1.87"/><circle class="cls-9" cx="115.3" cy="64.13" r="1.69"/><circle class="cls-9" cx="119.2" cy="58.18" r="1.06"/><circle class="cls-9" cx="130.89" cy="57.94" r="2.4"/><circle class="cls-9" cx="142.72" cy="66.65" r="2.52"/><circle class="cls-9" cx="108.97" cy="67.83" r="2"/><circle class="cls-9" cx="139.52" cy="57.14" r="1.03"/><circle class="cls-9" cx="112.55" cy="56.59" r="1.58"/><path class="cls-5" d="M150.27,143.63c-10.8-5.06-45.94,0-45.94,0s.65,7.31,7.13,18.27h0c.93,4.37,7.66,7.76,15.83,7.76,8.51,0,15.43-3.67,15.91-8.29h0A44.36,44.36,0,0,0,150.27,143.63Z"/><path class="cls-3" d="M127.3,113c-3.45-.57-21.92,25.17-21.92,31.84a7.09,7.09,0,0,0,.54,2.68c3.39,4.68,11.69,8,21.38,8s18-3.31,21.38-8a6.91,6.91,0,0,0,.55-2.68C149.23,138.18,131.45,113.7,127.3,113Z"/><path class="cls-10" d="M123.69,115.49c-4.4,4.4-11.24,13.86-15.19,21.17C116.42,131.74,123.07,124.38,123.69,115.49Z"/><path class="cls-10" d="M126.79,113.09a3.63,3.63,0,0,0-1,.55c1.8,13.71-8.84,23.68-20.38,30.74,0,.17,0,.33,0,.47a7.09,7.09,0,0,0,.54,2.68,15.06,15.06,0,0,0,4.48,3.9c7.2-5.46,11.88-13.59,16-21.2C129,125.17,131.48,117.77,126.79,113.09Z"/><path class="cls-10" d="M137.16,123.05c-3.68-4.83-7.25-8.77-9.2-9.78,13.16,12.93,2.12,28.65-8.83,41.42a40.1,40.1,0,0,0,8.17.83,41.53,41.53,0,0,0,4.8-.29,35.05,35.05,0,0,0,6.17-14.07A27.55,27.55,0,0,0,137.16,123.05Z"/><path class="cls-10" d="M146.09,136.62a26.76,26.76,0,0,1-2.33,15.07,15.22,15.22,0,0,0,4.92-4.16,6.91,6.91,0,0,0,.55-2.68C149.23,143.09,148,140.09,146.09,136.62Z"/><polygon class="cls-11" points="158.36 121.59 167.72 116.13 198.17 117.48 188.62 126.77 158.36 121.59"/><polygon class="cls-9" points="167.88 123.74 166.18 108.28 169.49 108.88 171.48 107.74 171.48 124.1 169.77 125.17 167.88 123.74"/><polygon class="cls-12" points="169.49 108.88 171.48 107.74 171.48 124.1 169.77 125.17 169.49 108.88"/><polygon class="cls-13" points="166.18 108.28 168.31 107.1 171.48 107.74 169.49 108.88 166.18 108.28"/><polygon class="cls-9" points="163.48 128.72 165.44 113.28 168.51 114.64 170.72 114 166.89 129.9 164.98 130.54 163.48 128.72"/><polygon class="cls-12" points="168.51 114.64 170.72 114 166.89 129.9 164.98 130.54 168.51 114.64"/><polygon class="cls-13" points="165.44 113.28 167.79 112.64 170.72 114 168.51 114.64 165.44 113.28"/><polygon class="cls-9" points="165.99 127.14 157.73 113.95 160.97 113.06 162.27 111.17 169.38 125.89 168.3 127.6 165.99 127.14"/><polygon class="cls-12" points="160.97 113.06 162.27 111.17 169.38 125.89 168.3 127.6 160.97 113.06"/><polygon class="cls-13" points="157.73 113.95 159.14 111.97 162.27 111.17 160.97 113.06 157.73 113.95"/><polygon class="cls-9" points="172.72 124.56 171.92 109.03 175.18 109.82 177.24 108.8 176.29 125.13 174.52 126.09 172.72 124.56"/><polygon class="cls-12" points="175.18 109.82 177.24 108.8 176.29 125.13 174.52 126.09 175.18 109.82"/><polygon class="cls-13" points="171.92 109.03 174.12 107.98 177.24 108.8 175.18 109.82 171.92 109.03"/><polygon class="cls-9" points="171.29 130.54 170.48 115 173.75 115.79 175.8 114.77 174.85 131.1 173.09 132.07 171.29 130.54"/><polygon class="cls-12" points="173.75 115.79 175.8 114.77 174.85 131.1 173.09 132.07 173.75 115.79"/><polygon class="cls-13" points="170.48 115 172.68 113.95 175.8 114.77 173.75 115.79 170.48 115"/><polygon class="cls-9" points="186.42 126.42 185.62 110.88 188.88 111.68 190.94 110.66 189.99 126.99 188.22 127.95 186.42 126.42"/><polygon class="cls-12" points="188.88 111.68 190.94 110.66 189.99 126.99 188.22 127.95 188.88 111.68"/><polygon class="cls-13" points="185.62 110.88 187.81 109.84 190.94 110.66 188.88 111.68 185.62 110.88"/><polygon class="cls-9" points="177.74 125.09 183.33 110.57 185.99 112.63 188.28 112.53 180.76 127.06 178.76 127.22 177.74 125.09"/><polygon class="cls-12" points="185.99 112.63 188.28 112.53 180.76 127.06 178.76 127.22 185.99 112.63"/><polygon class="cls-13" points="183.33 110.57 185.76 110.51 188.28 112.53 185.99 112.63 183.33 110.57"/><polygon class="cls-9" points="183.72 129.96 180.22 114.8 183.57 115.02 185.42 113.65 187.33 129.9 185.76 131.16 183.72 129.96"/><polygon class="cls-12" points="183.57 115.02 185.42 113.65 187.33 129.9 185.76 131.16 183.57 115.02"/><polygon class="cls-13" points="180.22 114.8 182.2 113.39 185.42 113.65 183.57 115.02 180.22 114.8"/><polygon class="cls-9" points="178.22 126.03 174.71 110.87 178.06 111.08 179.91 109.72 181.82 125.96 180.25 127.22 178.22 126.03"/><polygon class="cls-12" points="178.06 111.08 179.91 109.72 181.82 125.96 180.25 127.22 178.06 111.08"/><polygon class="cls-13" points="174.71 110.87 176.69 109.45 179.91 109.72 178.06 111.08 174.71 110.87"/><polygon class="cls-9" points="186.04 123.99 193.53 110.35 195.89 112.75 198.17 112.96 188.77 126.35 186.76 126.24 186.04 123.99"/><polygon class="cls-12" points="195.89 112.75 198.17 112.96 188.77 126.35 186.76 126.24 195.89 112.75"/><polygon class="cls-13" points="193.53 110.35 195.95 110.62 198.17 112.96 195.89 112.75 193.53 110.35"/><polygon class="cls-3" points="198.17 117.48 190.08 165.51 184.83 170.1 189.85 123.82 198.17 117.48"/><polygon class="cls-14" points="158.36 121.59 165.66 167.87 184.83 170.1 189.85 123.82 158.36 121.59"/><path class="cls-5" d="M200.68,74.83c-10.8-5.07-45.94,0-45.94,0s.65,7.3,7.13,18.26h0c.92,4.37,7.65,7.77,15.83,7.77,8.5,0,15.43-3.67,15.9-8.3h0A44.61,44.61,0,0,0,200.68,74.83Z"/><path class="cls-7" d="M177.71,56.48c-3.45-.57-21.93,12.89-21.93,19.57a6.86,6.86,0,0,0,.55,2.67c3.39,4.68,11.68,8,21.38,8s18-3.31,21.38-8a7,7,0,0,0,.54-2.67C199.63,69.37,181.86,57.18,177.71,56.48Z"/><path class="cls-3" d="M177.71,56.48c-3.45-.57-21.93,12.89-21.93,19.57a6.86,6.86,0,0,0,.55,2.67c3.39,4.68,11.68,8,21.38,8s18-3.31,21.38-8a7,7,0,0,0,.54-2.67C199.63,69.37,181.86,57.18,177.71,56.48Z"/><path class="cls-10" d="M189.54,65.28a4.16,4.16,0,0,0,.32-1.54c-4.86-3.84-10.13-6.92-12.15-7.26s-8.5,3.72-14,8.51c0,.09.05.19.09.29,2,2.81,7,4.8,12.85,4.8S187.5,68.09,189.54,65.28Z"/><path class="cls-10" d="M194.72,68a5,5,0,0,1,.54,2.06,5.9,5.9,0,0,1-.47,2.26c-2.87,4-9.89,6.76-18.1,6.76s-15.23-2.8-18.1-6.76a6.5,6.5,0,0,1-.41-1.54c-1.47,1.93-2.4,3.76-2.4,5.26a6.86,6.86,0,0,0,.55,2.67c3.39,4.68,11.68,8,21.38,8s18-3.31,21.38-8a7,7,0,0,0,.54-2.67C199.63,73.78,197.59,70.88,194.72,68Z"/><circle class="cls-10" cx="176.69" cy="55.1" r="7.27"/><rect class="cls-10" x="109.37" y="187.5" width="85.62" height="15.79" rx="3.63"/><text class="cls-15" transform="translate(124.92 199.34)">ORDER</text><polygon class="cls-16" points="213.72 23.68 213.72 236.74 87.75 236.74 87.75 237.55 214.53 237.55 214.53 23.68 213.72 23.68"/><path class="cls-1" d="M434.12,494.36c-38.33-52.7-128.63-177.43-129.61-184.29-1.24-8.7-2.48-47.84-24.54-67.73-14.61-14-32.63-60.28-38.84-63.69s-16.78-4-26.1,1.24-29.83,4.66-33.25,4.66-6.21,14.6,3.11,21.13,22.32,9.17,31.33,7c8.7,9.33,8.44,25.63-.26,40.86s-10.56,36.66-4,55.3,34.39,46.75,66.79,41.11c6.54-1.13,70,98.14,99.18,144.42Z"/><path class="cls-17" d="M187.6,184.78s-6,3.18-6,7.31c6.2,4.48,16.19.69,18.08,0s3.74-6.79,7.38-9.16C198.8,183.14,187.6,184.78,187.6,184.78Z"/></svg>