<svg id="Layer_1" data-name="Layer 1" xmlns="http://www.w3.org/2000/svg" viewBox="0 0 500 500"><defs><style>.cls-1{fill:#0081c9;}.cls-2{fill:#009bff;}.cls-3{fill:#707070;}</style></defs><title>Gift Delivery</title><rect class="cls-1" x="349.27" y="189.84" width="93.38" height="268.98"/><rect class="cls-2" x="102.56" y="189.84" width="246.71" height="268.98"/><rect class="cls-1" x="216.5" y="207.48" width="18.83" height="246.71" transform="translate(556.75 104.91) rotate(90)"/><rect class="cls-2" x="386.55" y="284.14" width="18.83" height="93.38" transform="translate(726.79 -65.13) rotate(90)"/><path class="cls-2" d="M298.36,186.29a141,141,0,0,0-26.85,8.49l1.15-2.06s55.74-36.22,93.62-24.58l-7.81,7.3L362,187.7s-27.54-9-63.63-1.41"/><rect class="cls-1" x="95.08" y="189.84" width="258.14" height="37"/><rect class="cls-2" x="353.23" y="189.84" width="97.3" height="37"/><path class="cls-2" d="M248.9,186.74s-50.56-16-84.68-5.43c-39.32,12.21-37,60.73-37,60.73l9.25-3.8L149,244.1s2.11-51.39,34.17-58.58C210.85,179.3,248.9,186.74,248.9,186.74Z"/><rect class="cls-1" x="204.14" y="189.84" width="18.83" height="268.95"/><rect class="cls-1" x="178.74" y="341.05" width="47.49" height="136.79"/><rect class="cls-2" x="53.28" y="341.05" width="125.47" height="136.79"/><rect class="cls-1" x="111.22" y="350.02" width="9.57" height="125.47" transform="translate(528.76 296.74) rotate(90)"/><rect class="cls-2" x="197.7" y="389.01" width="9.57" height="47.49" transform="translate(615.24 210.26) rotate(90)"/><path class="cls-2" d="M144.8,338.94s38.47-17.45,65.28-10.82l-5.35,3.58,2.69,6.33A131.76,131.76,0,0,0,144,340Z"/><path class="cls-2" d="M138.21,338.27s-5-.6-12.45-1.63C106,333.92,68.9,328.23,62.25,323c-10.45-8.28,14.32-43.44,25-48.32S138.21,338.27,138.21,338.27Z"/><path class="cls-2" d="M216.64,294.49c1.78,8.71-79.16,46.34-79.16,46.34s1.47-4,3.87-10.22h0c8.75-22.77,29.84-75.62,36.76-74.89a8.94,8.94,0,0,1,2.42.72C191.17,261.12,215,286.47,216.64,294.49Z"/><path class="cls-3" d="M179.85,264.18c-4.94,8.59-38,65.54-38.5,66.42,8.75-22.77,29.84-75.62,36.76-74.89a4.39,4.39,0,0,1,2.42.72C181.8,257.35,182.58,259.44,179.85,264.18Z"/><path class="cls-3" d="M125.77,336.64h0C106,333.92,68.9,328.23,62.25,323c-3-8.46,4.79-9.15,10.46-9.75S125.77,336.64,125.77,336.64Z"/><path class="cls-3" d="M123.12,341s4.53-10.32,13.46-10.89c9.33-.6,14.63,10.89,14.63,10.89Z"/><rect class="cls-1" x="49.47" y="341.05" width="129.53" height="18.81"/><rect class="cls-2" x="179" y="341.05" width="47" height="18.81"/><path class="cls-2" d="M127.7,339.47s-25.71-8.14-43.06-2.76c-20,6.21-18.82,30.89-18.82,30.89l4.7-1.94,6.35,3S78,342.51,94.25,338.85C108.35,335.69,127.7,339.47,127.7,339.47Z"/><rect class="cls-1" x="104.93" y="341.05" width="9.57" height="136.54"/><path class="cls-2" d="M269.54,184.52s-9.83-1.19-24.49-3.21C206.14,176,133.26,164.76,120.17,154.4c-20.55-16.28,28.16-85.41,49.24-95S269.54,184.52,269.54,184.52Z"/><path class="cls-2" d="M423.75,98.43c3.51,17.12-155.65,91.11-155.65,91.11s2.89-7.82,7.6-20.09l0,0C292.92,124.65,334.38,20.74,348,22.17a17,17,0,0,1,4.76,1.42C373.68,32.8,420.51,82.65,423.75,98.43Z"/><path class="cls-3" d="M351.42,38.82c-9.72,16.88-74.69,128.87-75.7,130.61C292.92,124.65,334.38,20.74,348,22.17a8.72,8.72,0,0,1,4.76,1.42C355.24,25.4,356.78,29.49,351.42,38.82Z"/><path class="cls-3" d="M245.08,181.31h0C206.14,176,133.26,164.76,120.17,154.4c-5.9-16.64,9.42-18,20.58-19.17S245.08,181.31,245.08,181.31Z"/><path class="cls-3" d="M239.86,189.81s8.92-20.29,26.48-21.42c18.34-1.17,28.76,21.42,28.76,21.42Z"/></svg>