<?xml version="1.0" encoding="utf-8"?>
<!-- Generator: Adobe Illustrator 23.0.3, SVG Export Plug-In . SVG Version: 6.00 Build 0)  -->
<svg version="1.1" id="Layer_1" xmlns="http://www.w3.org/2000/svg" xmlns:xlink="http://www.w3.org/1999/xlink" x="0px" y="0px"
	 viewBox="0 0 500 500" enable-background="new 0 0 500 500" xml:space="preserve">
<g>
	<g>
		<path fill="#A9A8C6" d="M462.4,381.36L200.19,230.98c-6.15-3.55-14.28-5.59-22.3-5.59c-6.75,0-12.99,1.45-17.57,4.1L39.73,299.11
			H23v17.41c0,5.71,3.92,11.26,10.77,15.21l266.04,152.57c6.15,3.55,14.28,5.59,22.3,5.59c6.75,0,12.99-1.46,17.57-4.1l129.13-74.55
			c5.28-3.05,8.19-7.48,8.19-12.48v-17.41H462.4z"/>
		<path fill="#83838C" d="M322.11,472.49c-8.02,0-16.15-2.04-22.3-5.59L33.77,314.33c-6.85-3.96-10.77-9.5-10.77-15.21
			c0-5,2.91-9.43,8.19-12.48l129.13-74.55c4.58-2.65,10.82-4.1,17.57-4.1c8.02,0,16.15,2.04,22.3,5.59l266.04,152.57
			c6.85,3.95,10.77,9.5,10.77,15.21c0,5-2.91,9.43-8.19,12.48l-129.13,74.55C335.1,471.03,328.86,472.49,322.11,472.49z"/>
		<path fill="#6C6C6C" d="M337.66,464.89l129.13-74.55c9.15-5.28,7.99-14.59-2.57-20.69L198.17,217.07
			c-10.56-6.1-26.69-6.77-35.84-1.49L33.21,290.13c-9.15,5.28-7.99,14.59,2.57,20.69L301.83,463.4
			C312.39,469.5,328.52,470.17,337.66,464.89z"/>
		<polygon fill="#6C6C6C" points="461.86,371.01 305.6,461.22 40.07,308.59 196.33,218.38 		"/>
		<path fill="#FFFFFF" d="M105.04,256.06c-2.96,0-5.36,1.44-5.36,3.22c0,1.78,2.4,3.22,5.36,3.22s5.36-1.44,5.36-3.22
			C110.4,257.5,108,256.06,105.04,256.06z"/>
		<path fill="#FFFFFF" d="M120.52,247.67c-2.13,0-3.86,1.04-3.86,2.32c0,1.28,1.73,2.32,3.86,2.32c2.13,0,3.86-1.04,3.86-2.32
			C124.38,248.71,122.65,247.67,120.52,247.67z"/>
		<path fill="#FFFFFF" d="M386.13,432.33c-2.01,0-3.98-0.5-5.54-1.4c-1.94-1.12-3.06-2.78-3.06-4.56c0-1.6,0.91-3.04,2.5-3.96
			l23.67-13.8c1.23-0.71,2.79-1.08,4.53-1.08c2.01,0,3.98,0.5,5.55,1.4c1.94,1.12,3.06,2.78,3.06,4.55c0,1.6-0.91,3.05-2.5,3.96
			l-23.67,13.8C389.44,431.96,387.87,432.33,386.13,432.33z"/>
	</g>
	<g>
		<g>
			<path fill="#009BFF" d="M397.94,362.82c0-9.55-5.81-20.65-12.97-24.79c-1.81-1.05-3.96-1.58-5.67-1.58
				c-1.34,0-4.76,0.13-8.31,2.33c-4.08,2.52-4.63,8.26-4.63,8.26l14.58,29.94c0,0,4.69,2.3,9.52-0.34c3-1.64,4.81-4.36,5.64-5.86
				c0.36-0.66,0.91-1.99,1.07-2.49C397.66,366.74,397.94,364.91,397.94,362.82z"/>
			<path fill="#008BD8" d="M365.91,351.23c0,9.55,5.81,20.65,12.97,24.79c7.17,4.14,12.97-0.25,12.97-9.81
				c0-9.55-5.81-20.65-12.97-24.79C371.72,337.29,365.91,341.68,365.91,351.23z"/>
			<path fill="#FFFFFF" d="M370.87,355.01c0,5.23,3.18,11.31,7.11,13.58c3.93,2.27,7.11-0.14,7.11-5.37
				c0-5.23-3.18-11.31-7.11-13.58C374.06,347.37,370.87,349.77,370.87,355.01z"/>
			<path fill="#008BD8" d="M372.13,357.36c0,3.11,1.89,6.73,4.23,8.08c2.33,1.35,4.23-0.08,4.23-3.2c0-3.11-1.89-6.73-4.23-8.08
				C374.02,352.82,372.13,354.25,372.13,357.36z"/>
			<path fill="#C4B3B1" d="M372.95,359.8c-1.16-4.06-1.84-10.95-1.67-16.9c0.17-5.95,2.22-9.16,10.12-7.86
				c6.36,1.05,14.01,8.1,16.66,16.77c1.16,3.78,1.49,4.66-4.1,6.9C389.44,360.53,375.13,367.44,372.95,359.8z"/>
		</g>
		<g>
			
				<rect x="250.24" y="363.82" transform="matrix(0.8637 -0.504 0.504 0.8637 -142.7228 203.064)" fill="#FFFFFF" width="107.72" height="3.21"/>
		</g>
		<g>
			
				<rect x="218.43" y="344.26" transform="matrix(0.8637 -0.504 0.504 0.8637 -137.2053 184.3865)" fill="#FFFFFF" width="107.73" height="3.21"/>
		</g>
		<g>
			
				<rect x="183.25" y="326.9" transform="matrix(0.8636 -0.5041 0.5041 0.8636 -133.2716 164.3346)" fill="#FFFFFF" width="107.73" height="3.21"/>
		</g>
		<g>
			
				<rect x="151.45" y="307.34" transform="matrix(0.8636 -0.5042 0.5042 0.8636 -127.7607 145.6623)" fill="#FFFFFF" width="107.73" height="3.21"/>
		</g>
		<path fill="#FFFFFF" d="M374.33,347.2L200.08,246.6l-1.31-0.82l-0.87,1.28c-0.53,0.77-1.1,1.52-1.71,2.23l-0.86,1.7l175.93,101.54
			c6.35,3.67,9.99,8.33,9.99,12.78c0,3.46-2.34,6.72-6.6,9.18l-50.81,29.33c-11.24,6.48-31.07,5.61-44.2-1.96l-151.92-87.72
			c-1.21,1.62-2.41,3.24-3.64,4.85l152.48,88.2c7.78,4.49,18.09,7.06,28.29,7.06c8.53,0,16.37-1.81,22.07-5.11l50.81-29.33
			c6.24-3.6,9.68-8.76,9.68-14.51C387.41,358.6,382.64,352,374.33,347.2z"/>
		<g>
			<path fill="#C4B3B1" d="M404.91,292.67l-88.12,50.87c-9.97,5.76-27.55,5.03-39.06-1.62l-166.69-96.24
				c-11.51-6.65-12.77-16.8-2.8-22.55l88.11-50.87c9.97-5.76,27.55-5.03,39.06,1.62l166.69,96.24
				C413.62,276.77,414.88,286.92,404.91,292.67z"/>
			<g>
				<path fill="#E5D5D1" d="M299.83,349.02c-7.98,0-16.37-1.93-22.9-5.7l-166.69-96.24c-6.57-3.79-10.33-8.95-10.33-14.15
					c0-4.4,2.67-8.37,7.53-11.18l88.12-50.87c10.44-6.03,28.68-5.3,40.66,1.62l166.69,96.24c6.57,3.79,10.33,8.95,10.33,14.15
					c0,4.4-2.67,8.37-7.53,11.17l-88.12,50.88C312.85,347.68,306.49,349.02,299.83,349.02z M213.32,169.95
					c-6.07,0-11.85,1.22-16.16,3.71l-88.12,50.87c-3.82,2.21-5.92,5.19-5.92,8.4c0,4.03,3.18,8.17,8.73,11.37l166.69,96.24
					c11.1,6.41,27.9,7.13,37.46,1.62l88.12-50.87c3.82-2.21,5.92-5.19,5.92-8.4c0-4.03-3.18-8.17-8.73-11.38l-166.69-96.24
					C228.52,171.75,220.7,169.95,213.32,169.95z"/>
			</g>
			<path fill="#D8C4C3" d="M209.37,22.8c-6.72-10.15-18.51-8.13-26.42-3.57l-18.79,10.62c0.71,1.24,1.41,2.5,2.09,3.76l18.85-10.66
				c6.48-3.75,16.19-4.68,21.31,3.11l141.14,199.61l3.74-2.17L209.37,22.8z"/>
			<g>
				<path fill="#FFFFFF" d="M119.76,133.07l-7.92-4.57c-5.55-3.2-8.73-7.35-8.73-11.37c0-3.21,2.1-6.19,5.92-8.4l10.72-6.19v-3.71
					l-12.32,7.12c-4.85,2.8-7.53,6.77-7.53,11.18c0,5.2,3.77,10.36,10.33,14.16l9.52,5.5V133.07z"/>
				<path fill="#E5D5D1" d="M402.91,152.94L236.22,56.7c-11.98-6.92-30.23-7.65-40.66-1.62l-72.47,41.84v3.7l74.08-42.77
					c4.31-2.49,10.09-3.71,16.16-3.71c7.39,0,15.2,1.81,21.3,5.33l166.69,96.24c5.55,3.2,8.73,7.35,8.73,11.37
					c0,3.21-2.1,6.19-5.92,8.4l-81.91,47.29v3.71l83.51-48.22c4.86-2.8,7.53-6.77,7.53-11.18
					C413.24,161.88,409.47,156.73,402.91,152.94z"/>
			</g>
			<g>
				<path fill="#FFFFFF" d="M119.76,163.98l-7.92-4.57c-5.55-3.2-8.73-7.35-8.73-11.37c0-3.21,2.1-6.19,5.92-8.4l10.72-6.19v-3.71
					l-12.32,7.12c-4.85,2.8-7.53,6.77-7.53,11.18c0,5.2,3.77,10.36,10.33,14.15l9.52,5.5V163.98z"/>
				<path fill="#E5D5D1" d="M402.91,183.84L236.22,87.6c-11.99-6.92-30.23-7.64-40.66-1.62l-72.47,41.84v3.71l74.08-42.77
					c4.31-2.49,10.09-3.71,16.16-3.71c7.39,0,15.2,1.81,21.3,5.33l166.69,96.24c5.55,3.2,8.73,7.35,8.73,11.38
					c0,3.21-2.1,6.19-5.92,8.4l-81.91,47.29v3.7l83.51-48.21c4.86-2.8,7.53-6.77,7.53-11.18
					C413.24,192.79,409.47,187.63,402.91,183.84z"/>
			</g>
			<g>
				<path fill="#FFFFFF" d="M119.76,194.88l-7.92-4.57c-5.55-3.2-8.73-7.35-8.73-11.37c0-3.21,2.1-6.19,5.92-8.4l10.72-6.19v-3.7
					l-12.32,7.11c-4.85,2.8-7.53,6.77-7.53,11.18c0,5.2,3.77,10.36,10.33,14.15l9.52,5.5V194.88z"/>
				<path fill="#E5D5D1" d="M402.91,214.75l-166.69-96.24c-11.98-6.92-30.23-7.65-40.66-1.62l-72.47,41.84v3.7l74.08-42.77
					c4.31-2.49,10.09-3.71,16.16-3.71c7.39,0,15.2,1.81,21.3,5.32l166.69,96.24c5.55,3.2,8.73,7.35,8.73,11.37
					c0,3.21-2.1,6.19-5.92,8.4l-81.91,47.29v3.7l83.51-48.22c4.86-2.8,7.53-6.77,7.53-11.18
					C413.24,223.7,409.47,218.54,402.91,214.75z"/>
			</g>
			<g>
				<path fill="#E5D5D1" d="M402.91,245.65l-166.69-96.24c-11.98-6.92-30.23-7.65-40.66-1.62l-72.47,41.84v3.71l74.08-42.77
					c4.31-2.49,10.09-3.71,16.16-3.71c7.39,0,15.2,1.81,21.3,5.32l166.69,96.24c5.55,3.2,8.73,7.35,8.73,11.37
					c0,3.21-2.1,6.19-5.92,8.4l-81.91,47.29v3.7l83.51-48.21c4.86-2.8,7.53-6.77,7.53-11.18
					C413.24,254.6,409.47,249.44,402.91,245.65z"/>
			</g>
			<g>
				<g>
					<rect x="191.3" y="57.46" fill="#E5D5D1" width="3.21" height="115.8"/>
				</g>
				<g>
					<rect x="166.21" y="72.95" fill="#E5D5D1" width="3.21" height="113.82"/>
				</g>
				<g>
					<rect x="140.74" y="87.01" fill="#E5D5D1" width="3.21" height="115.79"/>
				</g>
				<g>
					<rect x="115.27" y="101.08" fill="#E5D5D1" width="3.21" height="115.8"/>
				</g>
			</g>
			<g>
				<g>
					<rect x="244.71" y="65" fill="#E5D5D1" width="3.21" height="115.8"/>
				</g>
				<g>
					<rect x="218" y="52.77" fill="#E5D5D1" width="3.21" height="115.8"/>
				</g>
				<g>
					<rect x="270.18" y="81.04" fill="#E5D5D1" width="3.21" height="113.84"/>
				</g>
				<g>
					<rect x="295.65" y="93.35" fill="#E5D5D1" width="3.21" height="115.79"/>
				</g>
				<g>
					<rect x="321.12" y="109.39" fill="#E5D5D1" width="3.21" height="115.79"/>
				</g>
				<g>
					<rect x="346.21" y="122.9" fill="#E5D5D1" width="3.21" height="115.8"/>
				</g>
				<g>
					<rect x="371.67" y="138.94" fill="#E5D5D1" width="3.21" height="115.8"/>
				</g>
				<g>
					<rect x="397.15" y="153.01" fill="#E5D5D1" width="3.21" height="115.8"/>
				</g>
			</g>
			<g>
				<g>
					<path fill="#D7C3BE" d="M185.16,91.35v114.56c0,9.26,13.34,16.76,29.79,16.76c16.45,0,29.79-7.51,29.79-16.76V91.35H185.16z"/>
					<g>
						<path fill="#442E2C" d="M214.94,118.51c-16.45,0-29.79-7.51-29.79-16.77v87.4c0,9.26,13.34,16.76,29.79,16.76
							c16.45,0,29.79-7.51,29.79-16.76v-87.4C244.73,111,231.39,118.51,214.94,118.51z"/>
					</g>
					<path fill="#EEDED9" d="M241.87,82.37c-4.39-9.66-12.55-21.62-12.55-21.62l-28.63,0.16c0,0-12.7,17.88-15.23,27.55
						c-0.07,0.29-0.02,0.51-0.04,0.77c-0.16,0.7-0.26,1.4-0.26,2.12c0,9.26,13.34,16.76,29.79,16.76c16.45,0,29.79-7.51,29.79-16.76
						C244.73,89.92,242.64,84.08,241.87,82.37z"/>
					<path fill="#FFF6F3" d="M229.84,62.81c0,4.63-6.67,8.38-14.89,8.38c-8.23,0-14.89-3.75-14.89-8.38c0-4.63,6.67-8.38,14.89-8.38
						C223.17,54.43,229.84,58.18,229.84,62.81z"/>
					<path fill="#D7C3BE" d="M224.43,60.75c0,2.95-4.25,5.34-9.49,5.34c-5.24,0-9.49-2.39-9.49-5.34c0-2.95,4.25-5.34,9.49-5.34
						C220.18,55.41,224.43,57.8,224.43,60.75z"/>
					<g>
						<path fill="#442E2C" d="M228.05,43.66h-26.22v11.02c0,1.41,0.74,2.71,1.95,3.83v-6.42c0-0.46,0.38-0.84,0.84-0.84
							c0.46,0,0.84,0.38,0.84,0.84v7.67c0.95,0.56,2.07,1.02,3.29,1.4v-7.06c0-0.46,0.38-0.84,0.84-0.84s0.84,0.37,0.84,0.84v7.49
							c1.22,0.25,2.53,0.4,3.89,0.44v-7.41c0-0.46,0.38-0.83,0.84-0.83s0.84,0.38,0.84,0.83V62c1.36-0.06,2.68-0.21,3.89-0.49v-7.42
							c0-0.46,0.37-0.84,0.84-0.84c0.46,0,0.84,0.37,0.84,0.84v6.94c1.07-0.35,2.04-0.77,2.89-1.27v-7.67
							c0-0.46,0.38-0.84,0.83-0.84c0.46,0,0.84,0.38,0.84,0.84v6.42c1.21-1.12,1.95-2.42,1.95-3.83V43.66z"/>
						<path fill="#472D32" d="M204.62,51.25c-0.46,0-0.84,0.38-0.84,0.84v6.42c0.48,0.45,1.03,0.87,1.67,1.24v-7.67
							C205.46,51.63,205.08,51.25,204.62,51.25z"/>
						<path fill="#472D32" d="M225.27,51.25c-0.46,0-0.83,0.38-0.83,0.84v7.67c0.64-0.38,1.19-0.8,1.67-1.24v-6.42
							C226.1,51.63,225.73,51.25,225.27,51.25z"/>
						<path fill="#472D32" d="M209.58,53.25c-0.46,0-0.84,0.37-0.84,0.84v7.06c0.54,0.16,1.09,0.31,1.67,0.44v-7.49
							C210.42,53.63,210.04,53.25,209.58,53.25z"/>
						<path fill="#472D32" d="M215.14,53.78c-0.46,0-0.84,0.38-0.84,0.83v7.41c0.22,0.01,0.42,0.04,0.64,0.04
							c0.35,0,0.69-0.04,1.03-0.06v-7.39C215.98,54.16,215.6,53.78,215.14,53.78z"/>
						<path fill="#472D32" d="M220.71,53.25c-0.46,0-0.84,0.37-0.84,0.84v7.42c0.59-0.13,1.13-0.31,1.67-0.49v-6.94
							C221.54,53.63,221.16,53.25,220.71,53.25z"/>
					</g>
					<path fill="#604047" d="M228.05,43.66c0,4.07-5.87,7.38-13.11,7.38c-7.24,0-13.11-3.3-13.11-7.38c0-4.07,5.87-7.38,13.11-7.38
						C222.18,36.29,228.05,39.59,228.05,43.66z"/>
					<path fill="#FFFFFF" d="M223.87,198.7c-4.83-3.47-6.47-9.22-6.5-15.07c-0.02-2.6,0.63-5.09,0-7.66
						c-0.86-3.5-3.64-6.59-7.44-4.7c-1.86,0.92-3.07,2.37-3.8,4.08c0.36-4.79,2.28-10.04,1.21-14.51c-1.44-6.02-7.3-5.54-11.1-1.51
						c-10.63,11.29-2.28,31.88,10.98,37.15C213.93,199.14,220.5,200.18,223.87,198.7z"/>
					<g>
						<g>
							<path fill="#FFFFFF" d="M197.14,128.94c0.43,1.39,0.87,2.74,1.32,4.07c0.45,1.32,0.9,2.66,1.37,4
								c0.32-0.4,0.6-0.83,0.85-1.31c0.25-0.48,0.5-0.97,0.74-1.46c0.24-0.5,0.48-1,0.72-1.51c0.24-0.5,0.56-1.33,0.78-1.44
								c0.4-0.2,1.93,0.15,3,0.2c1.07,0.06,2.1,0.15,3.08,0.29c0.07,2.87,0.07,5.87,0,8.99c-0.07,3.12,0.41,8.79-0.1,9.31
								c-0.09,0.09-0.93-0.01-1.46-0.05c-0.53-0.03-1.08-0.08-1.64-0.15c-0.56-0.07-1.13-0.17-1.69-0.29
								c-0.57-0.12-1.11-0.27-1.64-0.44c-0.02-0.61-0.01-1.19,0.01-1.75c0.03-0.55,0.05-1.11,0.08-1.65
								c0.03-0.55,0.05-1.1,0.08-1.67c0.02-0.56,0.03-1.15,0.01-1.76c-0.32,0.19-0.6,0.43-0.85,0.71c-0.24,0.28-0.48,0.58-0.71,0.88
								c-0.23,0.3-0.47,0.58-0.72,0.85c-0.25,0.27-0.55,0.47-0.9,0.6c-0.25-0.41-0.47-0.84-0.66-1.29
								c-0.19-0.45-0.38-0.91-0.57-1.37c-0.19-0.46-0.38-0.92-0.57-1.37c-0.19-0.45-0.4-0.89-0.63-1.32
								c-0.05,0.53-0.07,1.12-0.05,1.74c0.02,0.63,0.03,1.27,0.05,1.92c0.02,0.65,0.02,1.29,0.02,1.93c0,0.64-0.03,1.23-0.1,1.78
								c-0.99-0.25-1.98-0.54-2.98-0.9c-1-0.35-2.02-0.8-3.07-1.35c0-1.46,0.01-2.97,0.02-4.52c0.02-1.55,0.04-3.1,0.08-4.65
								c0.04-1.55,0.08-3.08,0.12-4.61c0.04-1.52,0.08-2.99,0.11-4.4c0.87,0.25,1.82,0.59,2.85,1
								C195.14,128.36,196.15,128.69,197.14,128.94z"/>
							<path fill="#FFFFFF" d="M216.08,136.79c-0.3,0.37-0.82,0.62-1.38,0.73c-0.56,0.11-1.12,0.11-1.68,0
								c-0.56-0.1-1.07-0.3-1.54-0.59c-0.46-0.29-0.78-0.63-0.95-1.01c-0.17-0.38-0.27-0.76-0.3-1.13c-0.03-0.37,0-0.72,0.08-1.05
								c0.08-0.33,0.2-0.63,0.37-0.89c0.17-0.26,0.37-0.46,0.59-0.6c0.47-0.29,0.96-0.45,1.48-0.5c0.52-0.05,1.03,0,1.51,0.15
								c0.48,0.15,0.92,0.37,1.32,0.68c0.4,0.31,0.7,0.68,0.89,1.11c0.2,0.44,0.27,0.92,0.23,1.45
								C216.67,135.68,216.47,136.31,216.08,136.79z M216.55,138.79c0.09,1.94,0.09,3.94,0.02,5.98c-0.07,2.05-0.17,4.02-0.31,5.92
								c-0.45,0-0.9,0-1.36,0.03c-0.46,0.03-0.92,0.04-1.38,0.05c-0.47,0-0.93-0.01-1.38-0.03c-0.46-0.02-0.9-0.09-1.33-0.19
								c-0.09-1.95-0.13-3.92-0.14-5.91c-0.01-1.99-0.06-3.96-0.14-5.91c0.96,0.04,1.97,0.05,3.03,0.02
								C214.62,138.73,215.62,138.74,216.55,138.79z"/>
							<path fill="#FFFFFF" d="M224.54,130.88c-0.02,0.04,0.01,0.06,0.08,0.09c0.02,3.23-0.01,6.4-0.06,9.5
								c-0.06,3.1-0.13,6.27-0.19,9.51c-0.46,0.13-0.92,0.23-1.39,0.3c-0.47,0.07-0.95,0.12-1.44,0.16
								c-0.49,0.04-0.98,0.07-1.48,0.1c-0.5,0.03-0.99,0.08-1.49,0.15c-0.02-1.47-0.04-2.99-0.08-4.55
								c-0.04-1.56-0.06-3.13-0.08-4.72c-0.02-1.59-0.03-3.19-0.03-4.79c0-1.6,0.03-3.18,0.1-4.72c0.45-0.1,0.92-0.18,1.43-0.25
								c0.51-0.07,1.02-0.14,1.56-0.21c0.53-0.07,1.06-0.15,1.58-0.23C223.56,131.12,224.06,131.01,224.54,130.88z"/>
							<path fill="#FFFFFF" d="M231.92,129.22c0.1,1.21,0.13,2.51,0.09,3.9c-0.04,1.39-0.05,2.74-0.01,4.05
								c0.28-0.21,0.52-0.5,0.72-0.86c0.2-0.36,0.37-0.75,0.52-1.17c0.15-0.42,0.28-0.85,0.39-1.3c0.12-0.44,0.24-0.87,0.37-1.27
								c1.85-0.37,3.5-0.57,4.96-0.55c-0.24,1.39-0.62,2.68-1.16,3.87c-0.54,1.19-1.2,2.3-1.99,3.31c0.39,0.29,0.75,0.62,1.08,0.99
								c0.33,0.37,0.62,0.79,0.87,1.26c0.25,0.47,0.44,1.02,0.58,1.64c0.14,0.62,0.23,1.33,0.26,2.14
								c-0.67,0.47-1.38,0.91-2.13,1.31c-0.75,0.4-1.52,0.77-2.3,1.12c-0.08-0.42-0.17-0.83-0.27-1.22
								c-0.1-0.39-0.22-0.74-0.38-1.06c-0.16-0.31-0.36-0.57-0.6-0.77c-0.25-0.2-0.55-0.31-0.92-0.34
								c-0.07,0.31-0.11,0.63-0.12,0.96c-0.02,0.33-0.03,0.67-0.04,1.01c-0.01,0.34-0.02,0.68-0.05,1.01
								c-0.02,0.33-0.07,0.65-0.14,0.94c-0.45,0.13-0.89,0.26-1.34,0.41c-0.44,0.14-0.88,0.29-1.32,0.43
								c-0.44,0.14-0.87,0.26-1.3,0.37c-0.43,0.1-0.86,0.17-1.28,0.19c-0.09-3.1-0.15-6.2-0.19-9.3c-0.04-3.1-0.1-6.2-0.17-9.31
								c0.05-0.14,0.15-0.28,0.28-0.33c0.8-0.33,1.92-0.46,2.81-0.64C230.04,129.8,230.96,129.55,231.92,129.22z"/>
						</g>
					</g>
					<path fill="#FFFFFF" d="M233.64,160.99c-2.36-3.85-7.71-6.94-11.93-3.65c-3.61,2.82-1.76,7.41,1.34,9.79
						c2.85,2.19,6.17,3.17,8.81,5.78c2.29,2.27,4.63,7.01,6.3,9.55C238.96,174.56,236.23,165.21,233.64,160.99z"/>
				</g>
				<g>
					<path fill="#D7C3BE" d="M129.89,122.37v114.56c0,9.26,13.34,16.77,29.79,16.77c16.45,0,29.79-7.51,29.79-16.77V122.37H129.89z"
						/>
					<g>
						<path fill="#442E2C" d="M159.68,149.53c-16.45,0-29.79-7.51-29.79-16.77v87.4c0,9.26,13.33,16.77,29.79,16.77
							c16.45,0,29.79-7.51,29.79-16.77v-87.4C189.46,142.02,176.13,149.53,159.68,149.53z"/>
					</g>
					<path fill="#EEDED9" d="M186.6,113.39c-4.39-9.66-12.55-21.62-12.55-21.62l-28.63,0.16c0,0-12.7,17.88-15.23,27.55
						c-0.07,0.29-0.03,0.51-0.04,0.77c-0.16,0.7-0.26,1.4-0.26,2.12c0,9.26,13.34,16.77,29.79,16.77c16.45,0,29.79-7.51,29.79-16.77
						C189.46,120.94,187.38,115.1,186.6,113.39z"/>
					<path fill="#FFF6F3" d="M174.57,93.83c0,4.63-6.67,8.38-14.89,8.38c-8.23,0-14.89-3.75-14.89-8.38s6.67-8.38,14.89-8.38
						C167.9,85.45,174.57,89.2,174.57,93.83z"/>
					<path fill="#D7C3BE" d="M169.16,91.77c0,2.95-4.25,5.34-9.49,5.34c-5.24,0-9.49-2.39-9.49-5.34c0-2.95,4.25-5.34,9.49-5.34
						C164.92,86.43,169.16,88.82,169.16,91.77z"/>
					<g>
						<path fill="#442E2C" d="M172.79,74.68h-26.22V85.7c0,1.41,0.74,2.71,1.95,3.83V83.1c0-0.46,0.38-0.84,0.83-0.84
							c0.46,0,0.84,0.38,0.84,0.84v7.67c0.95,0.56,2.07,1.02,3.29,1.4v-7.06c0-0.46,0.38-0.83,0.84-0.83s0.84,0.38,0.84,0.83v7.49
							c1.22,0.26,2.53,0.41,3.89,0.44v-7.41c0-0.46,0.38-0.84,0.83-0.84c0.46,0,0.84,0.38,0.84,0.84v7.39
							c1.36-0.06,2.68-0.21,3.89-0.49v-7.42c0-0.46,0.38-0.83,0.84-0.83c0.46,0,0.84,0.38,0.84,0.83v6.94
							c1.07-0.35,2.04-0.77,2.89-1.27V83.1c0-0.46,0.38-0.84,0.84-0.84c0.46,0,0.84,0.38,0.84,0.84v6.42
							c1.21-1.12,1.95-2.42,1.95-3.83V74.68z"/>
						<path fill="#472D32" d="M149.35,82.27c-0.46,0-0.83,0.38-0.83,0.84v6.42c0.48,0.45,1.03,0.86,1.67,1.24V83.1
							C150.19,82.64,149.81,82.27,149.35,82.27z"/>
						<path fill="#472D32" d="M170,82.27c-0.46,0-0.84,0.38-0.84,0.84v7.67c0.64-0.38,1.19-0.8,1.67-1.24V83.1
							C170.84,82.64,170.46,82.27,170,82.27z"/>
						<path fill="#472D32" d="M154.31,84.27c-0.46,0-0.84,0.38-0.84,0.83v7.06c0.54,0.17,1.09,0.31,1.67,0.44v-7.49
							C155.15,84.65,154.77,84.27,154.31,84.27z"/>
						<path fill="#472D32" d="M159.88,84.8c-0.46,0-0.83,0.38-0.83,0.84v7.41c0.21,0.01,0.42,0.04,0.64,0.04
							c0.35,0,0.69-0.04,1.03-0.06v-7.39C160.71,85.18,160.34,84.8,159.88,84.8z"/>
						<path fill="#472D32" d="M165.44,84.27c-0.46,0-0.84,0.38-0.84,0.83v7.42c0.59-0.13,1.13-0.31,1.67-0.49v-6.94
							C166.27,84.65,165.9,84.27,165.44,84.27z"/>
					</g>
					<path fill="#604047" d="M172.79,74.68c0,4.07-5.87,7.38-13.11,7.38c-7.24,0-13.11-3.3-13.11-7.38c0-4.07,5.87-7.38,13.11-7.38
						C166.92,67.3,172.79,70.61,172.79,74.68z"/>
					<path fill="#FFFFFF" d="M168.6,229.71c-4.83-3.47-6.47-9.22-6.5-15.07c-0.02-2.6,0.63-5.09,0-7.66
						c-0.86-3.5-3.64-6.59-7.44-4.71c-1.86,0.92-3.07,2.37-3.8,4.08c0.36-4.79,2.28-10.04,1.21-14.51c-1.44-6.02-7.3-5.54-11.1-1.51
						c-10.63,11.29-2.28,31.88,10.98,37.15C158.67,230.16,165.23,231.2,168.6,229.71z"/>
					<g>
						<g>
							<path fill="#FFFFFF" d="M141.88,159.96c0.43,1.39,0.87,2.74,1.32,4.07c0.45,1.32,0.9,2.66,1.37,4
								c0.32-0.39,0.6-0.83,0.85-1.31c0.25-0.48,0.5-0.97,0.74-1.46c0.24-0.5,0.48-1,0.72-1.51c0.24-0.5,0.56-1.33,0.79-1.44
								c0.4-0.2,1.93,0.15,3,0.2c1.07,0.05,2.1,0.15,3.08,0.29c0.07,2.87,0.07,5.87,0,8.99c-0.07,3.12,0.41,8.79-0.1,9.31
								c-0.09,0.09-0.93-0.01-1.46-0.05c-0.53-0.03-1.08-0.08-1.64-0.15c-0.56-0.07-1.13-0.17-1.69-0.29
								c-0.57-0.12-1.11-0.27-1.64-0.44c-0.02-0.61-0.01-1.19,0.01-1.75c0.02-0.56,0.05-1.11,0.08-1.65
								c0.03-0.55,0.05-1.1,0.08-1.67c0.03-0.56,0.03-1.15,0.01-1.76c-0.32,0.19-0.6,0.43-0.85,0.72c-0.24,0.28-0.48,0.58-0.71,0.88
								c-0.23,0.3-0.47,0.58-0.72,0.85c-0.25,0.27-0.55,0.47-0.9,0.6c-0.25-0.41-0.47-0.84-0.66-1.29
								c-0.19-0.45-0.38-0.91-0.57-1.38c-0.19-0.46-0.38-0.92-0.57-1.37c-0.19-0.45-0.4-0.89-0.63-1.32
								c-0.05,0.54-0.07,1.12-0.05,1.74c0.02,0.63,0.03,1.26,0.05,1.91c0.02,0.65,0.02,1.29,0.02,1.93c0,0.64-0.03,1.23-0.1,1.78
								c-0.99-0.24-1.98-0.54-2.98-0.9c-1-0.36-2.02-0.8-3.07-1.35c0-1.46,0.01-2.97,0.02-4.52c0.02-1.55,0.04-3.1,0.08-4.65
								c0.04-1.55,0.08-3.08,0.12-4.61c0.04-1.52,0.08-2.99,0.11-4.4c0.87,0.25,1.82,0.59,2.85,1
								C139.88,159.37,140.89,159.7,141.88,159.96z"/>
							<path fill="#FFFFFF" d="M160.81,167.81c-0.3,0.37-0.82,0.62-1.38,0.73c-0.56,0.11-1.12,0.11-1.68,0
								c-0.56-0.1-1.07-0.3-1.54-0.59c-0.46-0.29-0.78-0.63-0.95-1.01c-0.17-0.38-0.27-0.76-0.3-1.13c-0.02-0.37,0-0.72,0.08-1.05
								c0.08-0.33,0.2-0.62,0.37-0.89c0.17-0.26,0.37-0.46,0.59-0.6c0.47-0.29,0.96-0.45,1.48-0.5c0.52-0.05,1.03,0,1.51,0.15
								c0.48,0.15,0.92,0.37,1.32,0.68c0.4,0.31,0.69,0.68,0.89,1.11c0.2,0.44,0.27,0.92,0.23,1.45
								C161.4,166.7,161.2,167.33,160.81,167.81z M161.28,169.81c0.09,1.94,0.09,3.94,0.03,5.98c-0.07,2.05-0.17,4.02-0.31,5.92
								c-0.45-0.01-0.9,0-1.36,0.03c-0.46,0.03-0.92,0.04-1.38,0.05c-0.47,0-0.93-0.01-1.38-0.03c-0.46-0.02-0.9-0.08-1.33-0.18
								c-0.09-1.95-0.13-3.92-0.14-5.91c-0.01-1.99-0.06-3.96-0.14-5.91c0.96,0.04,1.97,0.05,3.03,0.02
								C159.35,169.75,160.35,169.76,161.28,169.81z"/>
							<path fill="#FFFFFF" d="M169.27,161.89c-0.02,0.04,0.01,0.06,0.08,0.09c0.02,3.23-0.01,6.4-0.06,9.5
								c-0.06,3.11-0.13,6.27-0.19,9.51c-0.46,0.13-0.92,0.23-1.39,0.3c-0.47,0.07-0.95,0.12-1.44,0.16
								c-0.49,0.04-0.98,0.07-1.48,0.1c-0.5,0.03-1,0.08-1.49,0.15c-0.02-1.48-0.04-2.99-0.08-4.55c-0.04-1.56-0.06-3.13-0.08-4.72
								c-0.02-1.59-0.02-3.19-0.02-4.79c0-1.6,0.03-3.18,0.1-4.72c0.45-0.1,0.92-0.18,1.43-0.25c0.5-0.07,1.02-0.14,1.55-0.22
								c0.53-0.07,1.06-0.15,1.58-0.23C168.3,162.14,168.79,162.03,169.27,161.89z"/>
							<path fill="#FFFFFF" d="M176.66,160.24c0.1,1.21,0.13,2.51,0.09,3.89c-0.04,1.39-0.05,2.74-0.01,4.05
								c0.28-0.21,0.52-0.5,0.72-0.86c0.2-0.36,0.37-0.75,0.52-1.17c0.15-0.42,0.28-0.85,0.39-1.3c0.12-0.44,0.24-0.87,0.37-1.27
								c1.85-0.37,3.5-0.57,4.96-0.55c-0.24,1.39-0.62,2.69-1.16,3.87c-0.54,1.19-1.2,2.3-1.99,3.31c0.39,0.29,0.75,0.62,1.08,0.99
								c0.33,0.37,0.62,0.79,0.87,1.26c0.25,0.47,0.44,1.02,0.59,1.64c0.14,0.62,0.23,1.33,0.26,2.14
								c-0.67,0.47-1.38,0.91-2.13,1.31c-0.75,0.4-1.52,0.77-2.3,1.11c-0.08-0.42-0.17-0.83-0.27-1.22
								c-0.1-0.39-0.22-0.74-0.38-1.06c-0.16-0.31-0.36-0.57-0.6-0.77c-0.25-0.2-0.55-0.31-0.92-0.34
								c-0.07,0.31-0.11,0.63-0.12,0.96c-0.02,0.33-0.03,0.67-0.04,1c-0.01,0.34-0.02,0.67-0.05,1.01
								c-0.02,0.33-0.07,0.65-0.14,0.94c-0.45,0.13-0.89,0.26-1.33,0.41c-0.44,0.15-0.88,0.29-1.32,0.43
								c-0.44,0.14-0.87,0.26-1.3,0.37c-0.43,0.1-0.86,0.17-1.28,0.19c-0.09-3.1-0.15-6.2-0.19-9.3c-0.04-3.1-0.1-6.2-0.16-9.31
								c0.05-0.14,0.15-0.29,0.28-0.34c0.8-0.33,1.92-0.46,2.81-0.64C174.77,160.82,175.7,160.57,176.66,160.24z"/>
						</g>
					</g>
					<path fill="#FFFFFF" d="M178.38,192.01c-2.36-3.85-7.71-6.94-11.93-3.65c-3.61,2.82-1.76,7.41,1.34,9.79
						c2.85,2.19,6.17,3.17,8.81,5.78c2.29,2.27,4.63,7.01,6.3,9.55C183.69,205.58,180.96,196.23,178.38,192.01z"/>
				</g>
				<g>
					<polygon fill="#FCBD0D" points="357.1,294.17 262.34,239.46 262.34,85.36 357.1,140.07 					"/>
					<polygon fill="#FF9A08" points="357.1,140.07 379.74,126.15 379.74,280.25 357.1,294.17 					"/>
					<polygon fill="#442E2C" points="377.24,131.64 360.2,142.12 360.2,171.89 377.24,161.41 					"/>
					<polygon fill="#442E2C" points="377.24,223.8 360.2,234.27 360.2,288.08 377.24,277.6 					"/>
					<polygon fill="#442E2C" points="377.24,189.98 360.2,200.46 360.2,204.45 377.24,193.97 					"/>
					<polygon fill="#442E2C" points="377.24,197.9 360.2,208.38 360.2,212.37 377.24,201.89 					"/>
					<polygon fill="#442E2C" points="377.24,206.42 360.2,216.9 360.2,220.89 377.24,210.41 					"/>
					<polygon fill="#FFCF48" points="284.98,71.44 262.34,85.36 357.1,140.07 379.74,126.15 					"/>
					<g>
						<path fill="#FFFFFF" d="M340.33,198.11c-2.22-4.98-5.5-9.33-9.84-11.16c-0.1-0.22-0.3-0.41-0.61-0.5
							c-6.3-1.73-14.21,0.39-18.46,5.58c-3.83,4.69-2.94,13.24-0.3,18.34c0.69,1.33,2.5,3.12,4.27,3.91
							c-3.47,6.17-6.33,12.72-8.71,19.35c-2.57,7.16-7.16,16.79-4.19,24.3c4.51-2.33,9.73-3.39,13.28-4.54
							c-0.82,2.1-2.22,10.93-0.52,12.62c3.68-3.51,9.19-5.75,10.79-6.28c1.72,4.94,7.36,11.23,11.77,14.48
							C337.6,260.98,350.72,221.42,340.33,198.11z"/>
						<path fill="#009BFF" d="M317.48,214.26c-0.47-3.78-3.05-10.92-7.61-10.71c-0.23,0.01-0.51,0.12-0.6,0.35
							c-0.47,1.09-7.49,6.82-10.11,9.02c-2.01,1.69-4.11,4.03-4.58,6.71c-0.54,3.1,3.15,6.48,5.91,5.72
							c-1.92,2.76-2.89,5.73,0.95,8.31c4.05,2.72,8.82,0.05,11.46-3.32C316.06,226.32,318.11,219.34,317.48,214.26z"/>
						<path fill="#009BFF" d="M317.44,190.5l-17.29-6.73l5.66,9.75l-10.73,1.95l14.44,10.56
							C309.52,206.03,318.93,204.58,317.44,190.5z"/>
						<path fill="#009BFF" d="M346.66,197.98c-0.43-1.4-1.55-3.11-2.93-3.65c1.08-2.45,0.71-5.27-1.05-7.48
							c-1.26-1.59-3.66-2.82-5.48-2.19c0.07-1.21-0.28-2.5-0.84-3.47c-1.14-1.98-3.31-2.7-5.5-2.37c-2.33,0.35-5.03,1.68-6.39,3.66
							c-0.86,1.24-1.49,3.35-0.51,4.56c9.19,3.56,17.91,11.05,18.33,20.2C346.13,206.03,347.5,200.73,346.66,197.98z"/>
					</g>
					<g>
						<path fill="#442E2C" d="M282.91,106.29c-0.02,0.41-0.08,0.82-0.2,1.23c-0.12,0.41-0.27,0.77-0.46,1.08
							c-0.19,0.31-0.4,0.53-0.64,0.66c-0.25,0.13-0.51,0.12-0.79-0.05c-0.16-0.09-0.22-0.26-0.2-0.52c0.02-0.26,0.09-0.54,0.19-0.84
							c0.1-0.31,0.21-0.62,0.33-0.95c0.12-0.33,0.19-0.61,0.22-0.84c0.06-0.48,0.02-0.97-0.12-1.44c-0.14-0.48-0.34-0.9-0.6-1.28
							c-0.25-0.38-0.55-0.71-0.89-0.98c-0.34-0.28-0.67-0.47-0.99-0.57c-0.41-0.13-0.8-0.04-1.2,0.26
							c-0.39,0.31-0.76,0.78-1.11,1.42c-0.35,0.64-0.68,1.41-0.97,2.31c-0.3,0.9-0.56,1.88-0.79,2.94
							c-0.22,1.06-0.41,2.16-0.56,3.31c-0.15,1.15-0.24,2.29-0.28,3.41c-0.04,1.12-0.02,2.21,0.05,3.26c0.07,1.05,0.21,2,0.41,2.84
							c0.16,0.53,0.43,0.94,0.81,1.23c0.38,0.29,0.83,0.48,1.34,0.55c0.51,0.07,1.06,0.06,1.65-0.05c0.59-0.11,1.19-0.28,1.79-0.53
							c0.6-0.25,1.18-0.56,1.73-0.93c0.55-0.38,1.04-0.79,1.47-1.25c0.42-0.45,0.76-0.94,1.02-1.44c0.26-0.51,0.39-1.02,0.39-1.54
							c0.03-0.08,0.12-0.02,0.25,0.19c0.13,0.21,0.22,0.41,0.24,0.59c0.13,0.91,0.08,1.77-0.15,2.58c-0.23,0.82-0.57,1.56-1.04,2.22
							c-0.47,0.67-1.03,1.24-1.68,1.73c-0.65,0.49-1.32,0.87-2.03,1.12c-0.7,0.26-1.4,0.39-2.08,0.39c-0.69,0-1.3-0.16-1.85-0.47
							c-0.78-0.45-1.49-0.96-2.15-1.52c-0.65-0.56-1.21-1.25-1.67-2.08c-0.47-0.82-0.84-1.81-1.1-2.95c-0.27-1.14-0.4-2.51-0.4-4.12
							c0-1.19,0.08-2.5,0.23-3.94c0.16-1.44,0.39-2.87,0.69-4.28c0.3-1.42,0.68-2.76,1.12-4.04c0.44-1.27,0.95-2.34,1.53-3.21
							c0.57-0.86,1.23-1.46,1.94-1.78c0.72-0.32,1.49-0.25,2.32,0.23c0.55,0.32,1.08,0.7,1.58,1.16c0.51,0.46,0.96,1.02,1.35,1.67
							c0.39,0.65,0.7,1.4,0.94,2.26C282.8,104.21,282.91,105.19,282.91,106.29z"/>
						<path fill="#442E2C" d="M295.42,123.91c-0.36,0.6-0.79,1.02-1.29,1.24c-0.5,0.22-1.02,0.36-1.57,0.42
							c-0.08,0.08-0.18,0.28-0.3,0.6c-0.12,0.32-0.28,0.7-0.46,1.11c-0.18,0.42-0.39,0.84-0.63,1.27c-0.25,0.43-0.52,0.8-0.85,1.09
							c-0.32,0.3-0.69,0.48-1.1,0.55c-0.41,0.07-0.87-0.03-1.37-0.32c-0.33-0.19-0.65-0.47-0.97-0.84c-0.32-0.37-0.6-0.81-0.84-1.31
							c-0.24-0.5-0.44-1.05-0.59-1.65c-0.15-0.6-0.22-1.22-0.22-1.86c0-0.17,0.02-0.5,0.06-1c0.04-0.5,0.11-1,0.22-1.51
							c0.11-0.51,0.26-0.94,0.46-1.28c0.2-0.34,0.45-0.46,0.76-0.34c0.13,0.05,0.21,0.08,0.25,0.08c0.04,0,0.05-0.03,0.05-0.08
							c0-0.06-0.04-0.15-0.08-0.28c-0.05-0.13-0.09-0.3-0.14-0.52c-0.08-0.34-0.18-0.78-0.31-1.32c-0.13-0.54-0.2-1.23-0.2-2.07
							c0-0.23,0.07-0.57,0.22-1.03c0.14-0.46,0.36-0.88,0.64-1.27c0.28-0.39,0.63-0.68,1.04-0.87c0.41-0.19,0.89-0.13,1.42,0.18
							c0.58,0.33,1.09,0.81,1.55,1.42c0.45,0.62,0.83,1.29,1.13,2.03c0.3,0.74,0.53,1.51,0.69,2.3c0.16,0.8,0.23,1.54,0.21,2.22
							c-0.02,0.7-0.06,1.3-0.14,1.79c-0.08,0.5-0.13,0.84-0.16,1.03c-0.03,0.15,0,0.26,0.09,0.33c0.14,0.06,0.31,0.08,0.5,0.04
							c0.2-0.03,0.4-0.09,0.6-0.17c0.2-0.08,0.39-0.17,0.55-0.28c0.17-0.1,0.29-0.19,0.36-0.27c0.05-0.1,0.13-0.08,0.25,0.05
							C295.36,123.53,295.42,123.7,295.42,123.91z M291.06,125.33c-0.52-0.32-0.98-0.7-1.4-1.15c-0.42-0.45-0.72-0.73-0.89-0.83
							c-0.17-0.06-0.33,0.09-0.48,0.44c-0.15,0.35-0.27,0.78-0.36,1.29c-0.09,0.51-0.14,1.03-0.13,1.58c0,0.55,0.08,0.97,0.22,1.29
							c0.17,0.45,0.41,0.72,0.72,0.79c0.22-0.02,0.46-0.13,0.71-0.34c0.26-0.2,0.5-0.47,0.74-0.79c0.23-0.32,0.43-0.68,0.6-1.07
							C290.96,126.14,291.05,125.74,291.06,125.33z M291.39,123.89c0.11,0.06,0.21-0.01,0.3-0.21c0.09-0.21,0.17-0.5,0.25-0.89
							c0.07-0.39,0.12-0.83,0.16-1.33c0.04-0.5,0.06-1,0.06-1.5c0-0.48-0.06-0.98-0.2-1.5c-0.13-0.52-0.31-1.02-0.54-1.48
							c-0.23-0.46-0.49-0.88-0.79-1.25c-0.3-0.37-0.6-0.64-0.91-0.82c-0.28-0.16-0.52-0.19-0.73-0.09c-0.2,0.1-0.37,0.27-0.51,0.51
							c-0.14,0.24-0.24,0.53-0.31,0.87c-0.06,0.34-0.09,0.68-0.09,1.01c0,1.44,0.3,2.77,0.9,3.99
							C289.59,122.42,290.39,123.32,291.39,123.89z"/>
						<path fill="#442E2C" d="M297.88,117.18c0.05,0.13,0.03,0.41-0.06,0.84c-0.09,0.43-0.2,0.9-0.34,1.41
							c-0.14,0.51-0.29,1.01-0.45,1.48c-0.17,0.48-0.31,0.83-0.43,1.05c-0.04,0.04-0.04,0.07-0.01,0.09
							c0.02,0.01,0.04,0.04,0.04,0.08c0.17,0.37,0.37,0.7,0.6,1c0.23,0.3,0.44,0.6,0.65,0.91c0.21,0.31,0.41,0.64,0.59,0.99
							c0.18,0.35,0.31,0.77,0.41,1.24c0.09,0.47,0.09,1.03,0,1.69c-0.09,0.65-0.22,1.35-0.39,2.1c-0.16,0.75-0.34,1.5-0.54,2.25
							c-0.2,0.75-0.35,1.44-0.48,2.08c-0.13,0.64-0.19,1.18-0.19,1.63c0,0.45,0.11,0.73,0.33,0.86c0.16,0.09,0.37-0.02,0.63-0.32
							c0.27-0.3,0.55-0.73,0.87-1.28c0.31-0.55,0.64-1.18,0.97-1.89c0.34-0.71,0.64-1.43,0.92-2.17c0.28-0.73,0.53-1.43,0.74-2.1
							c0.21-0.67,0.35-1.23,0.43-1.69c0-0.06,0.05-0.08,0.14-0.06c0.09,0.02,0.19,0.08,0.29,0.17c0.1,0.09,0.19,0.21,0.26,0.35
							c0.07,0.15,0.08,0.3,0.04,0.46c-0.09,0.41-0.25,0.97-0.47,1.7c-0.22,0.73-0.48,1.51-0.77,2.35c-0.3,0.84-0.62,1.68-0.97,2.53
							c-0.35,0.85-0.7,1.6-1.06,2.24c-0.36,0.65-0.72,1.14-1.08,1.47c-0.36,0.33-0.69,0.41-0.99,0.24
							c-0.22-0.13-0.46-0.31-0.74-0.57c-0.27-0.25-0.53-0.54-0.76-0.88c-0.23-0.33-0.43-0.71-0.6-1.14
							c-0.17-0.43-0.25-0.89-0.25-1.39c0-0.73,0.08-1.49,0.24-2.28c0.16-0.79,0.33-1.54,0.52-2.24c0.2-0.7,0.39-1.31,0.58-1.84
							c0.19-0.53,0.3-0.9,0.35-1.13c0.08-0.24,0.1-0.5,0.07-0.77c-0.03-0.27-0.17-0.55-0.42-0.84c-0.06-0.1-0.26-0.37-0.6-0.81
							c-0.34-0.44-0.69-0.97-1.07-1.57c-0.37-0.6-0.72-1.22-1.02-1.85c-0.31-0.63-0.46-1.19-0.46-1.67
							c0.01-0.35,0.11-0.84,0.29-1.47c0.18-0.64,0.42-1.25,0.71-1.85c0.3-0.6,0.63-1.1,1.02-1.5c0.38-0.4,0.78-0.54,1.18-0.41
							c0.16,0.09,0.31,0.23,0.46,0.44c0.15,0.2,0.28,0.42,0.4,0.65c0.12,0.23,0.21,0.48,0.28,0.73
							C297.82,116.73,297.86,116.96,297.88,117.18z M295.42,120.07c0,0.04,0.02,0.12,0.08,0.25c0.05,0.13,0.12,0.24,0.19,0.34
							c0.07,0.1,0.14,0.18,0.22,0.22c0.08,0.04,0.15,0.01,0.21-0.1c0.09-0.17,0.16-0.35,0.19-0.53c0.03-0.18,0.07-0.4,0.12-0.67
							c0.11-0.67,0.1-1.1-0.04-1.32c-0.13-0.21-0.26-0.19-0.39,0.07c-0.11,0.23-0.21,0.46-0.29,0.69
							C295.63,119.27,295.53,119.61,295.42,120.07z"/>
						<path fill="#442E2C" d="M313.13,133.66c0.11-0.21,0.21-0.3,0.29-0.27c0.09,0.03,0.15,0.12,0.18,0.26
							c0.04,0.15,0.05,0.33,0.04,0.53c-0.01,0.21-0.06,0.39-0.14,0.53c-0.11,0.12-0.27,0.41-0.47,0.85
							c-0.2,0.45-0.44,0.95-0.71,1.52c-0.27,0.57-0.57,1.16-0.89,1.77c-0.32,0.61-0.64,1.15-0.96,1.63
							c-0.32,0.48-0.63,0.85-0.94,1.1c-0.31,0.25-0.58,0.31-0.81,0.17c-0.25-0.14-0.51-0.39-0.77-0.74
							c-0.27-0.35-0.5-0.73-0.71-1.13c-0.21-0.4-0.39-0.8-0.53-1.21c-0.14-0.4-0.21-0.73-0.21-0.98c-0.05-0.63-0.03-1.29,0.06-1.98
							c0.09-0.69,0.21-1.37,0.36-2.04c0.16-0.67,0.34-1.32,0.54-1.95c0.2-0.63,0.39-1.21,0.57-1.73c0.18-0.52,0.33-0.98,0.45-1.38
							c0.12-0.4,0.18-0.7,0.18-0.91c0-0.13-0.04-0.24-0.12-0.35c-0.08-0.11-0.14-0.17-0.19-0.2c-0.16-0.09-0.39,0.04-0.71,0.4
							c-0.32,0.36-0.67,0.84-1.07,1.46c-0.39,0.62-0.78,1.33-1.18,2.14c-0.4,0.81-0.75,1.63-1.04,2.46
							c-0.3,0.83-0.52,1.62-0.65,2.37c-0.14,0.75-0.15,1.38-0.02,1.89c-0.05,0.14-0.2,0.14-0.45-0.01
							c-0.25-0.15-0.52-0.38-0.81-0.72c-0.29-0.33-0.55-0.74-0.79-1.2c-0.24-0.47-0.35-0.95-0.35-1.45c0-0.48,0.02-1.07,0.06-1.76
							c0.04-0.7,0.09-1.44,0.16-2.22c0.07-0.78,0.15-1.57,0.24-2.38c0.09-0.8,0.17-1.55,0.27-2.23c0.09-0.68,0.19-1.28,0.28-1.77
							c0.1-0.5,0.19-0.83,0.28-1.01c0.14,0.08,0.32,0.23,0.55,0.44c0.23,0.21,0.45,0.45,0.68,0.72c0.23,0.27,0.42,0.53,0.57,0.8
							c0.16,0.27,0.23,0.5,0.23,0.71c0,0.29-0.05,0.68-0.15,1.16c-0.1,0.48-0.22,1-0.35,1.55c-0.13,0.55-0.25,1.09-0.35,1.62
							c-0.1,0.53-0.15,1-0.15,1.4c0,0.15,0.03,0.3,0.09,0.46c0.03,0.08,0.06,0.14,0.09,0.18c0.06-0.32,0.21-0.75,0.44-1.29
							c0.24-0.54,0.52-1.11,0.85-1.71c0.33-0.6,0.69-1.21,1.08-1.81c0.39-0.61,0.77-1.14,1.15-1.6c0.37-0.46,0.73-0.81,1.05-1.05
							c0.33-0.24,0.59-0.3,0.8-0.18c0.17,0.1,0.37,0.27,0.59,0.52c0.22,0.25,0.42,0.54,0.61,0.87c0.19,0.33,0.35,0.67,0.48,1.03
							c0.13,0.36,0.2,0.69,0.2,1.01c-0.02,0.91-0.15,1.84-0.41,2.79c-0.26,0.95-0.53,1.92-0.82,2.9c-0.29,0.98-0.54,1.96-0.75,2.95
							c-0.21,0.99-0.28,1.96-0.2,2.9c0.02,0.05,0.06,0.12,0.12,0.19c0.06,0.08,0.11,0.1,0.14,0.08c0.41-0.2,0.79-0.56,1.15-1.07
							c0.36-0.51,0.7-1.08,1.03-1.7c0.33-0.62,0.64-1.24,0.95-1.84C312.53,134.55,312.83,134.05,313.13,133.66z"/>
					</g>
					<g>
						<path fill="#009BFF" d="M302.68,152.69c0,0.06,0.02,0.13,0.02,0.16c0,0.21-0.16,0.15-0.52-0.06c-0.43-0.25-3.66-2.2-4.45-2.66
							c-0.66-0.38-2.78-1.42-3.68-1.94c-0.18-0.1-0.31-0.21-0.38-0.25c-0.14-0.11-0.32-0.21-0.52-0.33
							c-0.56-0.33-1.33-0.71-1.72-0.93c-0.49-0.28-0.38-0.43-0.38-1c0-0.48,0.14-4.63,0.14-5.32c0-0.6-0.11-2.72-0.11-3.71
							c0-0.21,0-0.36,0.02-0.44c0.05-0.37,0.16-2.65,0.23-4.12l-1.27-0.76c-0.79-0.49-1.31-0.79-1.54-0.95
							c-0.2-0.15-0.36-0.24-0.47-0.3l-2.4-1.38c-0.34-0.2-0.68-0.36-0.95-0.49l-0.48-0.21c-0.02,0.17-0.02,0.35-0.02,0.53v1
							c0,0.33-0.02,0.59-0.04,0.82l-0.05,0.37l0.5,0.29c0.29,0.17,0.63,0.33,0.9,0.49l1.62,0.94c0.91,0.52,1.58,0.79,2.1,1.09
							c0.41,0.24,0.45,0.44,0.45,0.62c0,0.3-0.02,0.47-0.11,0.81c-0.02,0.32-0.13,0.25-0.31,0.15c-0.21-0.12-0.56-0.36-0.91-0.55
							c-0.31-0.18-1.67-1.02-2.1-1.27l-1.2-0.69c-0.27-0.16-0.57-0.33-0.88-0.48v2.92c0,1.54-0.05,3.05-0.07,3.49
							c-0.02,0.38-0.04,0.94-0.04,1.51c0,0.79,0.02,1.52,0.02,1.79c0,0.48-0.23,0.32-0.52,0.15l-1.56-0.9
							c-0.36-0.24-0.27-0.58-0.29-1.23c-0.02-0.26-0.05-0.81-0.05-1.44c0-0.84,0.02-1.86,0.02-2.52c0-1.18,0.09-4.38,0.09-5.05
							c0-0.63-0.09-1.41-0.09-2.71c0-1.24,0.07-1.77,0.07-2.61v-2.72c0-0.57,0.09-1.55,0.09-2.12c0-0.03,0-0.09,0-0.12
							c0-0.45,0.14-0.4,0.32-0.3c0.18,0.1,0.52,0.36,0.77,0.5c0.81,0.47,2.19,1.14,2.8,1.5l2.46,1.45c0.32,0.18,0.95,0.55,1.92,1.14
							l1.33,0.8c0.11,0.03,0.27,0.16,0.38,0.22l0.11,0.06c0.07,0.04,0.12,0.07,0.16,0.09l0.59,0.37c0.09,0.05,0.16,0.09,0.21,0.12
							c0.09,0.05,0.13,0.11,0.13,0.32c0-0.09-0.16,5.16-0.16,6l-0.02,4.3c0,0.48,0.05,1.93,0.05,2.83c0,0.36,0,0.63-0.02,0.77
							c-0.02,0.26,0,0.42,0,0.54c0,0.09,0,0.12,0.02,0.17l0.54,0.37c0.34,0.23,0.77,0.5,1.2,0.72c0.81,0.47,3.34,1.87,4.18,2.35
							c0.86,0.5,3.09,1.91,3.44,2.1c0.2,0.15,0.25,0.24,0.25,0.33c0,0.09-0.05,0.18-0.05,0.3V149
							C302.46,149.66,302.68,152.36,302.68,152.69z"/>
						<path fill="#009BFF" d="M308.03,134.46c0.09-0.25,0.2-0.25,0.32-0.03c0.16,0.24,0.2,0.6,0.29,1.01
							c0.07,0.46,0.88,3.22,1.2,4.31c0.34,1.13,0.66,2.4,0.97,3.79c0.29,1.35,1.44,5.12,1.92,6.84c0.47,1.66,1.63,5.25,1.94,6.25
							c0.29,0.95,0.74,2.66,1.06,3.33c0.07,0.22,0.11,0.37,0.11,0.46c0,0.21-0.2,0.12-0.4,0.01l-1.63-0.94
							c-0.18-0.1-0.29-0.71-0.45-1.26c-0.18-0.56-0.77-3.07-0.88-3.61c-0.12-0.52-0.41-1.47-0.57-2.05
							c-0.11-0.58-0.23-0.73-0.41-0.84c-0.16-0.09-0.52-0.24-0.9-0.43c-0.36-0.12-1.79-1-2.42-1.27c-0.2-0.09-0.48-0.24-0.72-0.39
							c-0.54-0.31-1.08-0.66-1.2-0.72c-0.2-0.12-0.23,0.2-0.29,0.49c-0.04,0.28-0.41,1.96-0.47,2.5l-0.25,1.15l-0.18,0.77
							c-0.09,0.4-0.13,0.5-0.29,0.4l-1.33-0.77c-0.09-0.05-0.11-0.09-0.11-0.18c0-0.09,0.05-0.22,0.09-0.37
							c0.09-0.22,0.13-0.25,0.32-0.96c0.18-0.71,0.81-3.15,0.99-4.31c0.18-1.25,0.59-2.62,0.84-3.41c0.18-0.89,0.3-1.31,0.59-2.55
							c0.29-1.25,0.61-2.51,0.86-3.46l0.56-2.09C307.76,135.3,307.94,134.74,308.03,134.46z M310.34,146.73
							c0-0.06-0.02-0.13-0.07-0.28c-0.16-0.45-0.86-3.03-1.08-4.03c-0.29-1.1-0.48-1.99-0.54-2.18c-0.16-0.54-0.18-0.74-0.29-0.8
							c-0.09-0.05-0.16,0.48-0.27,0.99c-0.11,0.42-0.47,1.81-0.59,2.31c-0.11,0.57-0.39,1.32-0.5,1.7
							c-0.05,0.18-0.07,0.32-0.07,0.44c0,0.12,0.04,0.21,0.2,0.3c0.27,0.16,2.3,1.27,2.69,1.4
							C310.13,146.71,310.34,146.89,310.34,146.73z"/>
						<path fill="#009BFF" d="M320.87,163.1c0,0.51-0.25,0.28-0.43,0.18c-0.2-0.12-0.86-0.59-1.2-0.78
							c-0.32-0.18-1.51-0.78-1.74-0.91c-0.25-0.14-0.23-0.34-0.23-0.82l-0.02-7.4c0-0.6,0-1.69,0-2.83c0-1.72,0-3.59-0.04-4.28
							c-0.02-0.37-0.02-0.77-0.02-1.16c0-0.81,0.02-1.59,0.02-1.98l0.02-2.37c0-0.21,0.09-0.22,0.22-0.14
							c0.16,0.09,0.36,0.3,0.5,0.38l2.58,1.52c0.34,0.2,0.36,0.42,0.36,0.63c0,0.21,0.02,0.62,0.02,1.49c0,0.84-0.25,3.05-0.25,4.02
							v1.99c0,0.39,0,0.81,0.02,1.28c0.2-0.19,0.38-0.38,0.54-0.59l0.84-0.96c0.43-0.48,2.21-2.76,2.44-3.09
							c0.23-0.32,1.15-1.14,1.29-1.58c0.11-0.42,0.45-0.13,0.65-0.05c0.2,0.12,0.61,0.29,0.95,0.46c0.05,0.03,0.07,0.04,0.09,0.05
							c0.27,0.16,0.41,0.32,0.41,0.45c0,0.15-0.11,0.21-0.23,0.29c-0.11,0.09-1.76,1.82-2.19,2.29c-0.36,0.51-2.3,2.92-2.62,3.22
							c-0.29,0.31-1.15,1.72-1.15,1.87c0,0.21,0.25,0.57,0.59,1.24c0.29,0.65,1.47,2.96,1.71,3.43c0.25,0.48,1.58,3.33,2.37,4.75
							c0.77,1.38,1.9,3.69,2.08,4.03c0.02,0.04,0.05,0.12,0.05,0.15c0,0.18-0.25,0.13-0.45-0.05c-0.25-0.14-1.45-0.75-1.87-0.99
							c-0.45-0.23-0.7-0.53-0.88-0.84c-0.16-0.3-0.5-0.89-0.84-1.6c-0.34-0.68-0.95-1.88-1.56-3.04c-0.29-0.56-0.84-1.45-1.29-2.28
							l-0.86-1.46v2.54C320.76,160.77,320.87,162.56,320.87,163.1z"/>
						<path fill="#009BFF" d="M331.73,160.32c0,0.69,0.09,1.05,0.09,1.74l0.02,3.6c0,0.51-0.02,1.04-0.02,1.49
							c-0.02,0.26-0.02,0.5-0.02,0.74c0.29,0.2,0.59,0.37,0.86,0.53c0.47,0.3,1.04,0.63,1.47,0.88c0.84,0.48,1.58,0.97,2.4,1.44
							c0.81,0.47,1.58,0.82,2.19,1.17c0.61,0.35,1.2,0.75,1.45,0.9c0.25,0.14,0.25,0.29,0.25,0.63c0,0.27-0.05,0.58-0.05,0.91
							c0,0.27-0.13,0.29-0.47,0.09c-0.11-0.06-0.25-0.14-0.41-0.27c-0.41-0.29-1.42-0.91-2.46-1.51c-0.56-0.33-1.13-0.65-1.62-0.91
							c-0.38-0.19-0.81-0.44-1.27-0.7c-1.2-0.69-2.48-1.49-2.96-1.77c-0.45-0.26-0.52-0.48-0.52-0.75c0-0.15,0.02-0.29,0.02-0.47
							c0.02-0.11,0.02-0.2,0.02-0.26c0-0.21-0.04-0.42-0.04-1.74c0-1.84-0.12-4.26-0.12-6.28c0-2.02,0.18-4.9,0.18-6.14
							c0-1.21,0-3.5-0.07-4.65c-0.07-1.16,1.08,0.02,1.78,0.43c0.7,0.41,2.58,1.31,3.8,2.01c1.17,0.68,3.45,2.08,3.93,2.36
							c0.47,0.27,0.38,0.7,0.38,1.04c0,0.09,0,0.18,0,0.33c0,0.3,0,0.69-0.09,0.64c-0.25-0.15-0.29-0.26-0.72-0.51l-3.62-2.09
							l-2.8-1.65c-0.34-0.2-0.73-0.36-1.02-0.5l-0.52-0.24l-0.05,0.79c-0.02,0.44-0.02,0.95-0.02,1.4c0,0.85,0.09,1.68,0.09,2.38
							v1.21c0,0.24,0,0.48,0.02,0.77c0.21,0.15,0.41,0.26,0.61,0.38l0.91,0.52c0.38,0.22,0.86,0.37,1.56,0.78
							c0.72,0.42,1.49,0.98,1.76,1.14c0.27,0.16,0.64,0.28,1.18,0.59c0.41,0.23,1.11,0.73,1.56,0.99c0.13,0.08,0.25,0.14,0.34,0.17
							c0.05,0.03,0.09,0.02,0.14,0.05c0.25,0.14,0.29,0.44,0.27,0.55c-0.02,0.14-0.02,0.83-0.04,1.06c-0.02,0.26,0,0.33-0.34,0.14
							c-0.32-0.18-2.26-1.64-3.12-2.13c-0.83-0.48-1.92-1.11-2.82-1.54c-0.45-0.17-0.95-0.49-1.33-0.71
							c-0.23-0.13-0.43-0.25-0.63-0.39l-0.07,0.44C331.75,159.64,331.73,159.99,331.73,160.32z"/>
						<path fill="#009BFF" d="M347.48,159.31c-2.19-1.26-3.16-0.29-3.16,1.52c0,1.84,1.29,3.7,2.42,5.17
							c1.15,1.39,4.84,4.48,4.84,9.61c0,5.19-3.66,3.8-5.63,2.66c-1.94-1.12-3.5-3.86-3.68-4.21c-0.18-0.32-0.18-0.5-0.11-0.61
							c0.07-0.11,0.31-0.72,0.49-0.62c0.02,0.01,0.05,0.03,0.05,0.03c0.14,0.08,0.11,0.1,0.45,0.74c0.36,0.69,1.76,2.4,2.57,2.87
							c0.81,0.47,3.37,1.82,3.37-1.62c0-1.72-1.78-3.65-3.52-6.01c-1.72-2.29-3.37-4.87-3.37-8.19c0-3.98,2.96-4.38,5.22-3.08
							c2.22,1.28,3.68,4.03,3.91,4.37c0.16,0.24,0.23,0.4,0.23,0.55c0,0.09-0.02,0.14-0.09,0.19c-0.11,0.09-0.4,0.67-0.59,0.57
							c-0.09-0.05-0.18-0.17-0.29-0.32l-0.16-0.27C350.17,162.28,348.75,160.04,347.48,159.31z"/>
					</g>
					<path fill="#FF9A08" d="M305.96,166.02c-3.59-2.53-7.26-1.3-9.33-0.14c-2.29,1.28-4.61,3.02-4.97,5.81
						c-0.25,2,0.64,3.88,2.5,4.74c3.85,1.79,10.84-0.81,12.56-4.67C307.53,169.95,307.63,167.2,305.96,166.02z"/>
					<path fill="#FF9A08" d="M286.64,204.04c-3.59-2.53-7.26-1.29-9.33-0.14c-2.29,1.28-4.61,3.02-4.97,5.81
						c-0.25,2,0.64,3.88,2.5,4.74c3.85,1.79,10.84-0.81,12.56-4.67C288.21,207.97,288.31,205.22,286.64,204.04z"/>
					<path fill="#FF9A08" d="M281.76,179.19c-0.43-3.95-4.83-7.87-7.62-2.66c-2.02,3.78-1.82,7.61-1.61,9.44
						c0.49,4.11,6.17,9.74,10.39,6.63C287.02,189.58,282.21,183.41,281.76,179.19z"/>
					<path fill="#FF9A08" d="M291.38,235.1c-0.31-2.88-3.52-5.73-5.55-1.94c-1.47,2.75-1.33,5.55-1.17,6.88
						c0.36,2.99,4.5,7.1,7.57,4.83C295.21,242.68,291.71,238.18,291.38,235.1z"/>
					<path fill="#FF9A08" d="M285.28,196.76c0.31-2.88,3.52-5.73,5.55-1.93c1.47,2.75,1.33,5.55,1.17,6.88
						c-0.36,2.99-4.5,7.1-7.57,4.83C281.45,204.33,284.95,199.83,285.28,196.76z"/>
					<path fill="#FF9A08" d="M287.26,221.61c-4.75-4.39-13.73,1.24-15.2,3.18c-4.05,5.38,1.79,8.34,6.77,7.21
						c2.96-0.67,6.3-2.08,8.1-4.63C288.11,225.7,288.96,223.18,287.26,221.61z"/>
					<path fill="#FF9A08" d="M279.74,159.35c-1.98,6.16,6.9,11.94,9.28,12.45c6.58,1.42,6.82-5.14,3.69-9.17
						c-1.86-2.41-4.53-4.84-7.61-5.4C283.1,156.86,280.45,157.14,279.74,159.35z"/>
					<path fill="#442E2C" d="M350.64,182.92c-12.43-8.37-26.73-14.77-40.23-21.23c-12.67-6.07-26.01-13.06-39.61-16.76
						c-0.09-0.02-0.15,0.11-0.07,0.16c12.71,7.17,26.84,12.27,39.98,18.65c13.24,6.43,25.92,14.18,39.25,20.32
						C350.75,184.43,351.36,183.41,350.64,182.92z"/>
					<path fill="#442E2C" d="M354.86,153.23c-4.39-3.95-10.37-6.11-15.78-8.36c-6.95-2.89-13.94-5.42-21.29-7.12
						c-0.18-0.04-0.24,0.2-0.07,0.27c6.92,2.73,13.93,5.32,20.66,8.51c5.28,2.5,10.33,5.99,15.95,7.61
						C354.84,154.29,355.27,153.6,354.86,153.23z"/>
					<path fill="#FF9A08" d="M351.7,259.21c-0.13-0.41-0.64-0.36-0.79,0c-0.7,1.79-0.83,3.83-1.41,5.68
						c-0.59,1.88-1.74,3.56-2.21,5.46c-0.21,0.84,0.84,1.5,1.47,0.86C351.23,268.73,352.76,262.56,351.7,259.21z"/>
					<path fill="#FF9A08" d="M349.02,278.25c-0.67-1.14-2.23-1.58-3.14-2.56c-1.2-1.29-1.93-2.91-2.53-4.54
						c-0.39-1.06-2.05-0.65-1.72,0.48c0.59,2.02,1.21,4.09,2.57,5.74c1.01,1.21,2.9,2.84,4.54,1.94
						C349.1,279.11,349.22,278.6,349.02,278.25z"/>
				</g>
				<g>
					<g>
						<g>
							<path fill="#C6AAA5" d="M206.72,241.18l-2.59,24.19c0,3.98-6.06,7.2-13.54,7.2c-7.48,0-13.54-3.23-13.54-7.2l-2.59-25.21
								L206.72,241.18z"/>
							<path fill="#C6AAA5" d="M259.18,271.27l-2.59,24.19c0,3.98-6.06,7.2-13.54,7.2c-7.48,0-13.54-3.23-13.54-7.2l-2.59-25.21
								L259.18,271.27z"/>
							<path fill="#C6AAA5" d="M232.95,256.22l-2.59,24.19c0,3.98-6.06,7.2-13.54,7.2c-7.48,0-13.54-3.23-13.54-7.2l-2.59-25.21
								L232.95,256.22z"/>
							<path fill="#C6AAA5" d="M285.42,286.7l-2.59,24.19c0,3.98-6.06,7.2-13.54,7.2c-7.48,0-13.54-3.23-13.54-7.2l-2.59-25.21
								L285.42,286.7z"/>
							<path fill="#C6AAA5" d="M341.47,284.92l-2.59,24.19c0,3.98-6.06,7.2-13.54,7.2c-7.48,0-13.54-3.22-13.54-7.2l-2.59-25.21
								L341.47,284.92z"/>
							<path fill="#C6AAA5" d="M312.5,301.89l-2.59,24.19c0,3.98-6.06,7.2-13.54,7.2c-7.48,0-13.54-3.23-13.54-7.2l-2.59-25.21
								L312.5,301.89z"/>
						</g>
						<path fill="#D7C3BE" d="M169.3,250.15c-0.01-0.11,0-0.25,0-0.36v-4.13c0,0,0.57-0.02,1.3-0.04c1.11-1.76,2.93-3.44,5.44-4.89
							l29.26-16.98c8.16-4.71,20.61-5.22,27.67-1.15l108.44,62.61c1.24,0.72,2.22,1.53,2.97,2.41h1.79v5.23l-0.05,0.02
							c-0.32,2.93-2.58,5.94-6.7,8.32l-29.26,16.98c-8.15,4.71-20.61,5.23-27.67,1.15l-108.44-62.61
							C171,254.95,169.44,252.62,169.3,250.15z"/>
						<path fill="#EEDED9" d="M174.04,252.69l108.44,62.61c7.06,4.08,19.51,3.56,27.67-1.15l29.26-16.98
							c8.15-4.71,9.05-11.9,1.99-15.97l-108.44-62.61c-7.06-4.08-19.51-3.56-27.67,1.15l-29.26,16.98
							C167.87,241.42,166.98,248.61,174.04,252.69z"/>
						<g>
							<g>
								<path fill="#CEB5B3" d="M219.55,220.46c8.91,0,16.13,3.84,16.13,8.58c0,4.74-7.22,8.58-16.13,8.58
									c-8.91,0-16.13-3.84-16.13-8.58C203.42,224.3,210.64,220.46,219.55,220.46z"/>
								<path fill="#CEB5B3" d="M190.58,237.08c8.91,0,16.13,3.84,16.13,8.58c0,4.74-7.22,8.58-16.13,8.58
									c-8.91,0-16.13-3.84-16.13-8.58C174.46,240.93,181.68,237.08,190.58,237.08z"/>
							</g>
							<g>
								<path fill="#CEB5B3" d="M245.79,235.31c8.91,0,16.13,3.84,16.13,8.58c0,4.74-7.22,8.58-16.13,8.58
									c-8.91,0-16.13-3.84-16.13-8.58C229.66,239.15,236.88,235.31,245.79,235.31z"/>
								<path fill="#CEB5B3" d="M216.82,251.94c8.91,0,16.13,3.84,16.13,8.58c0,4.74-7.22,8.58-16.13,8.58
									c-8.91,0-16.13-3.84-16.13-8.58C200.69,255.78,207.91,251.94,216.82,251.94z"/>
							</g>
							<g>
								<path fill="#CEB5B3" d="M272.02,249.45c8.91,0,16.13,3.84,16.13,8.58c0,4.74-7.22,8.58-16.13,8.58
									c-8.91,0-16.13-3.84-16.13-8.58C255.89,253.29,263.11,249.45,272.02,249.45z"/>
								<path fill="#CEB5B3" d="M243.06,266.08c8.91,0,16.13,3.84,16.13,8.58c0,4.74-7.22,8.58-16.13,8.58
									c-8.91,0-16.13-3.84-16.13-8.58C226.93,269.92,234.15,266.08,243.06,266.08z"/>
							</g>
							<g>
								<path fill="#CEB5B3" d="M298.26,264.31c8.91,0,16.13,3.84,16.13,8.58c0,4.74-7.22,8.58-16.13,8.58
									c-8.91,0-16.13-3.84-16.13-8.58C282.13,268.15,289.35,264.31,298.26,264.31z"/>
								<path fill="#CEB5B3" d="M269.29,280.94c8.91,0,16.13,3.84,16.13,8.58c0,4.74-7.22,8.58-16.13,8.58
									c-8.91,0-16.13-3.84-16.13-8.58C253.16,284.78,260.38,280.94,269.29,280.94z"/>
							</g>
							<g>
								<path fill="#CEB5B3" d="M325.34,279.05c8.91,0,16.13,3.84,16.13,8.58c0,4.74-7.22,8.58-16.13,8.58
									c-8.91,0-16.13-3.84-16.13-8.58C309.21,282.89,316.43,279.05,325.34,279.05z"/>
								<path fill="#DBC2C1" d="M296.37,295.68c8.91,0,16.13,3.84,16.13,8.58c0,4.74-7.22,8.58-16.13,8.58
									c-8.91,0-16.13-3.84-16.13-8.58C280.24,299.52,287.46,295.68,296.37,295.68z"/>
							</g>
						</g>
						<g>
							<g>
								<path fill="#FFCEBB" d="M188.22,247.32c-5.99-2.88-8.69-10.92-6.32-18.07c2.46-2.26,5.45-3.6,8.68-3.6
									c6.82,0,12.59,5.92,14.5,14.06c-0.09,1.31-0.33,2.57-0.82,3.72C202.1,248.43,195.23,250.69,188.22,247.32z"/>
								<path fill="#EDB7A6" d="M190.58,254.17c-7.56,0-12.88-2.45-14.98-5.4c-0.13-1.04-0.19-2.1-0.19-3.18
									c0-6.77,2.57-12.74,6.49-16.35c-2.37,7.15,0.33,15.2,6.32,18.07c7.01,3.37,13.88,1.12,16.04-3.89
									c0.5-1.15,0.74-2.41,0.82-3.72c0.44,1.86,0.67,3.83,0.67,5.88c0,1.08-0.07,2.14-0.19,3.18
									C203.42,251.59,198.14,254.17,190.58,254.17z"/>
								<path fill="#FFFFFF" d="M192.15,228.96c0.77-1.18,3.52-1.12,5.3,0.74c2.38,2.48,2.7,7.77-2.62,5.25
									C192.8,233.98,190.79,231.05,192.15,228.96z"/>
							</g>
							<g>
								<path fill="#FFCEBB" d="M217.19,230.69c-5.99-2.88-8.69-10.92-6.32-18.07c2.46-2.26,5.45-3.6,8.68-3.6
									c6.82,0,12.59,5.92,14.5,14.06c-0.09,1.31-0.33,2.57-0.82,3.72C231.07,231.81,224.2,234.06,217.19,230.69z"/>
								<path fill="#EDB7A6" d="M219.55,237.54c-7.56,0-12.88-2.45-14.98-5.4c-0.13-1.04-0.19-2.1-0.19-3.18
									c0-6.77,2.57-12.74,6.49-16.35c-2.37,7.15,0.33,15.2,6.32,18.07c7.01,3.37,13.88,1.12,16.04-3.89
									c0.5-1.15,0.74-2.41,0.82-3.72c0.44,1.86,0.67,3.84,0.67,5.88c0,1.08-0.07,2.14-0.19,3.18
									C232.39,234.96,227.11,237.54,219.55,237.54z"/>
								<path fill="#FFFFFF" d="M221.11,212.33c0.77-1.18,3.52-1.12,5.29,0.74c2.38,2.48,2.7,7.77-2.62,5.25
									C221.76,217.35,219.75,214.42,221.11,212.33z"/>
							</g>
						</g>
						<g>
							<g>
								<path fill="#FFCEBB" d="M214.5,262.24c-5.99-2.88-8.69-10.92-6.32-18.07c2.46-2.26,5.45-3.6,8.68-3.6
									c6.82,0,12.59,5.92,14.5,14.06c-0.08,1.31-0.33,2.56-0.82,3.72C228.38,263.36,221.51,265.61,214.5,262.24z"/>
								<path fill="#EDB7A6" d="M216.86,269.1c-7.56,0-12.88-2.45-14.98-5.4c-0.13-1.04-0.19-2.1-0.19-3.18
									c0-6.77,2.57-12.74,6.49-16.35c-2.37,7.15,0.33,15.2,6.32,18.07c7.01,3.37,13.88,1.12,16.04-3.89
									c0.49-1.15,0.74-2.41,0.82-3.72c0.44,1.86,0.67,3.84,0.67,5.88c0,1.08-0.07,2.14-0.19,3.18
									C229.7,266.52,224.42,269.1,216.86,269.1z"/>
								<path fill="#FFFFFF" d="M218.42,243.89c0.77-1.18,3.52-1.12,5.3,0.74c2.38,2.48,2.7,7.77-2.62,5.25
									C219.07,248.91,217.06,245.98,218.42,243.89z"/>
							</g>
							<g>
								<path fill="#FFCEBB" d="M243.47,245.62c-5.99-2.88-8.69-10.92-6.32-18.07c2.46-2.26,5.45-3.6,8.68-3.6
									c6.82,0,12.59,5.92,14.5,14.06c-0.09,1.31-0.33,2.56-0.82,3.71C257.35,246.73,250.48,248.98,243.47,245.62z"/>
								<path fill="#EDB7A6" d="M245.83,252.47c-7.56,0-12.88-2.45-14.98-5.4c-0.13-1.04-0.19-2.1-0.19-3.18
									c0-6.77,2.57-12.74,6.5-16.35c-2.37,7.15,0.33,15.2,6.32,18.07c7.01,3.37,13.88,1.12,16.04-3.89
									c0.5-1.15,0.74-2.41,0.82-3.71c0.44,1.86,0.67,3.83,0.67,5.88c0,1.08-0.07,2.14-0.19,3.18
									C258.67,249.89,253.38,252.47,245.83,252.47z"/>
								<path fill="#FFFFFF" d="M247.39,227.26c0.77-1.18,3.52-1.12,5.3,0.74c2.38,2.48,2.7,7.77-2.62,5.25
									C248.04,232.28,246.03,229.35,247.39,227.26z"/>
							</g>
						</g>
						<g>
							<g>
								<path fill="#FFCEBB" d="M240.6,276.37c-5.99-2.88-8.69-10.92-6.32-18.07c2.46-2.26,5.45-3.6,8.68-3.6
									c6.82,0,12.59,5.92,14.5,14.06c-0.09,1.31-0.33,2.56-0.82,3.72C254.48,277.49,247.61,279.74,240.6,276.37z"/>
								<path fill="#EDB7A6" d="M242.96,283.23c-7.56,0-12.88-2.45-14.98-5.4c-0.13-1.04-0.19-2.1-0.19-3.18
									c0-6.77,2.57-12.74,6.49-16.35c-2.37,7.15,0.33,15.2,6.32,18.07c7.01,3.37,13.88,1.12,16.04-3.89
									c0.5-1.15,0.74-2.41,0.82-3.72c0.44,1.86,0.67,3.84,0.67,5.88c0,1.08-0.06,2.14-0.19,3.18
									C255.8,280.65,250.52,283.23,242.96,283.23z"/>
								<path fill="#FFFFFF" d="M244.52,258.02c0.77-1.18,3.52-1.12,5.29,0.74c2.38,2.48,2.7,7.77-2.61,5.25
									C245.17,263.04,243.16,260.11,244.52,258.02z"/>
							</g>
							<g>
								<path fill="#FFCEBB" d="M269.57,259.74c-5.99-2.88-8.69-10.92-6.32-18.07c2.46-2.26,5.45-3.6,8.68-3.6
									c6.82,0,12.59,5.92,14.5,14.06c-0.08,1.31-0.33,2.57-0.82,3.72C283.44,260.86,276.58,263.11,269.57,259.74z"/>
								<path fill="#EDB7A6" d="M271.93,266.6c-7.56,0-12.88-2.45-14.98-5.4c-0.13-1.04-0.19-2.1-0.19-3.18
									c0-6.77,2.57-12.74,6.49-16.35c-2.37,7.15,0.33,15.19,6.32,18.07c7.01,3.37,13.88,1.12,16.04-3.89
									c0.5-1.15,0.74-2.41,0.82-3.72c0.44,1.86,0.67,3.84,0.67,5.88c0,1.08-0.07,2.14-0.19,3.18
									C284.76,264.02,279.48,266.6,271.93,266.6z"/>
								<path fill="#FFFFFF" d="M273.49,241.39c0.77-1.18,3.52-1.12,5.3,0.74c2.38,2.48,2.7,7.77-2.62,5.25
									C274.14,246.41,272.13,243.48,273.49,241.39z"/>
							</g>
						</g>
						<g>
							<g>
								<path fill="#FFCEBB" d="M267.03,291.35c-5.99-2.88-8.69-10.92-6.32-18.07c2.46-2.26,5.45-3.6,8.68-3.6
									c6.82,0,12.59,5.92,14.5,14.06c-0.09,1.31-0.33,2.56-0.82,3.71C280.91,292.47,274.04,294.72,267.03,291.35z"/>
								<path fill="#EDB7A6" d="M269.39,298.21c-7.56,0-12.88-2.45-14.98-5.4c-0.13-1.04-0.19-2.1-0.19-3.18
									c0-6.77,2.57-12.74,6.5-16.35c-2.37,7.15,0.33,15.2,6.32,18.07c7.01,3.37,13.88,1.12,16.04-3.89
									c0.5-1.15,0.74-2.41,0.82-3.71c0.44,1.86,0.67,3.83,0.67,5.88c0,1.08-0.07,2.14-0.19,3.18
									C282.23,295.62,276.95,298.21,269.39,298.21z"/>
								<path fill="#FFFFFF" d="M270.95,272.99c0.77-1.18,3.52-1.12,5.3,0.74c2.38,2.48,2.7,7.77-2.62,5.25
									C271.6,278.02,269.59,275.09,270.95,272.99z"/>
							</g>
							<g>
								<path fill="#FFCEBB" d="M296,274.72c-5.99-2.88-8.69-10.92-6.32-18.07c2.46-2.26,5.45-3.6,8.68-3.6
									c6.82,0,12.59,5.92,14.5,14.06c-0.08,1.31-0.33,2.56-0.82,3.71C309.88,275.84,303.01,278.09,296,274.72z"/>
								<path fill="#EDB7A6" d="M298.36,281.58c-7.56,0-12.88-2.45-14.98-5.4c-0.13-1.04-0.19-2.1-0.19-3.18
									c0-6.77,2.57-12.74,6.49-16.35c-2.37,7.15,0.33,15.2,6.32,18.07c7.01,3.37,13.88,1.12,16.04-3.89
									c0.5-1.15,0.74-2.4,0.82-3.71c0.44,1.86,0.67,3.83,0.67,5.88c0,1.08-0.07,2.14-0.19,3.18
									C311.19,279,305.91,281.58,298.36,281.58z"/>
								<path fill="#FFFFFF" d="M299.92,256.37c0.77-1.18,3.52-1.11,5.29,0.74c2.38,2.48,2.7,7.77-2.62,5.25
									C300.57,261.39,298.56,258.46,299.92,256.37z"/>
							</g>
						</g>
						<g>
							<g>
								<path fill="#FFCEBB" d="M294.01,305.98c-5.99-2.88-8.69-10.92-6.32-18.07c2.46-2.26,5.45-3.6,8.68-3.6
									c6.82,0,12.59,5.92,14.5,14.06c-0.09,1.31-0.33,2.57-0.82,3.71C307.89,307.1,301.02,309.35,294.01,305.98z"/>
								<path fill="#EDB7A6" d="M296.37,312.84c-7.56,0-12.88-2.45-14.98-5.4c-0.13-1.04-0.19-2.1-0.19-3.18
									c0-6.77,2.57-12.74,6.5-16.35c-2.37,7.15,0.33,15.2,6.32,18.07c7.01,3.37,13.88,1.12,16.04-3.89
									c0.5-1.15,0.74-2.41,0.82-3.71c0.44,1.86,0.67,3.83,0.67,5.88c0,1.08-0.06,2.14-0.19,3.18
									C309.21,310.26,303.93,312.84,296.37,312.84z"/>
								<path fill="#FFFFFF" d="M297.93,287.63c0.77-1.18,3.52-1.11,5.3,0.74c2.38,2.48,2.7,7.77-2.62,5.25
									C298.58,292.65,296.57,289.72,297.93,287.63z"/>
							</g>
							<g>
								<path fill="#FFCEBB" d="M322.98,289.35c-5.99-2.88-8.69-10.92-6.32-18.07c2.46-2.26,5.45-3.6,8.68-3.6
									c6.82,0,12.59,5.92,14.5,14.06c-0.08,1.31-0.33,2.56-0.82,3.72C336.86,290.47,329.99,292.72,322.98,289.35z"/>
								<path fill="#EDB7A6" d="M325.34,296.21c-7.56,0-12.88-2.45-14.98-5.4c-0.13-1.04-0.19-2.1-0.19-3.18
									c0-6.77,2.57-12.74,6.49-16.35c-2.37,7.15,0.33,15.2,6.32,18.07c7.01,3.37,13.88,1.12,16.04-3.89
									c0.5-1.15,0.74-2.41,0.82-3.72c0.44,1.86,0.67,3.83,0.67,5.88c0,1.08-0.07,2.14-0.19,3.18
									C338.17,293.63,332.89,296.21,325.34,296.21z"/>
								<path fill="#FFFFFF" d="M326.9,271c0.77-1.18,3.52-1.12,5.29,0.74c2.38,2.48,2.7,7.77-2.62,5.25
									C327.55,276.02,325.54,273.09,326.9,271z"/>
							</g>
						</g>
						<g>
							<path fill="#D8A293" d="M209,243.57c0.07-0.03,0.1,0.07,0.05,0.11c-5.36,4.05-6.26,9.88-7.29,16.05
								c-0.01,0.09-0.14,0.06-0.14-0.02C201.28,254.21,203.94,245.66,209,243.57z"/>
							<path fill="#D8A293" d="M182.83,228.41c0.07-0.03,0.1,0.07,0.05,0.11c-5.36,4.05-6.26,9.88-7.29,16.04
								c-0.01,0.09-0.14,0.06-0.14-0.02C175.1,239.05,177.76,230.51,182.83,228.41z"/>
						</g>
						<g>
							<path fill="#D8A293" d="M237.97,226.89c0.07-0.03,0.1,0.07,0.05,0.11c-5.36,4.05-6.26,9.88-7.29,16.04
								c-0.01,0.09-0.14,0.06-0.14-0.02C230.25,237.53,232.91,228.98,237.97,226.89z"/>
							<path fill="#D8A293" d="M211.79,211.73c0.07-0.03,0.1,0.07,0.05,0.11c-5.36,4.05-6.26,9.88-7.29,16.04
								c-0.01,0.09-0.14,0.06-0.14-0.02C204.07,222.37,206.73,213.82,211.79,211.73z"/>
						</g>
						<g>
							<path fill="#D8A293" d="M261.38,272.86c0.07-0.03,0.1,0.07,0.05,0.11c-5.36,4.05-6.26,9.88-7.29,16.04
								c-0.01,0.09-0.14,0.06-0.14-0.02C253.66,283.5,256.31,274.95,261.38,272.86z"/>
							<path fill="#D8A293" d="M288.61,287.33c0.07-0.03,0.1,0.07,0.05,0.11c-5.36,4.05-6.26,9.88-7.29,16.04
								c-0.01,0.09-0.14,0.06-0.14-0.02C280.89,297.98,283.55,289.43,288.61,287.33z"/>
							<path fill="#D8A293" d="M235.2,257.7c0.07-0.03,0.1,0.07,0.05,0.11c-5.36,4.05-6.26,9.88-7.29,16.04
								c-0.02,0.09-0.14,0.06-0.14-0.02C227.48,268.34,230.14,259.79,235.2,257.7z"/>
						</g>
						<g>
							<path fill="#D8A293" d="M290.34,256.18c0.07-0.03,0.1,0.07,0.05,0.11c-5.37,4.05-6.26,9.88-7.29,16.04
								c-0.01,0.09-0.14,0.06-0.14-0.02C282.62,266.82,285.28,258.27,290.34,256.18z"/>
							<path fill="#D8A293" d="M317.58,270.63c0.07-0.03,0.1,0.07,0.05,0.11c-5.37,4.05-6.26,9.88-7.29,16.05
								c-0.02,0.09-0.14,0.06-0.14-0.02C309.86,281.27,312.52,272.72,317.58,270.63z"/>
							<path fill="#D8A293" d="M264.17,241.02c0.07-0.03,0.1,0.07,0.05,0.11c-5.37,4.05-6.26,9.88-7.29,16.04
								c-0.01,0.09-0.14,0.06-0.14-0.02C256.45,251.66,259.1,243.11,264.17,241.02z"/>
						</g>
					</g>
					<path fill="#C6AAA5" d="M278.69,306.1c-0.44-1-0.54-2.03-0.81-3.07c-0.18-0.72-1.33-0.75-1.49,0c-0.46,2.1,0.39,5.76,2.61,6.56
						c0.61,0.22,1.03-0.42,0.94-0.94C279.79,307.68,279.09,306.99,278.69,306.1z"/>
					<path fill="#C6AAA5" d="M274.28,299.42c-1.23,0.27-2.23,1.11-3.44,1.48c-1.05,0.33-2.15,0.33-3.13,0.85
						c-0.28,0.15-0.22,0.5,0,0.66c1.97,1.44,6.3,0.19,7.4-1.9C275.43,299.92,274.92,299.28,274.28,299.42z"/>
					<path fill="#C6AAA5" d="M222.52,272.17c-0.76,0.3-1.37,0.8-2.11,1.14c-0.77,0.36-1.6,0.59-2.37,0.94
						c-0.2,0.09-0.15,0.36,0,0.47c1.68,1.1,4.45,0.41,5.36-1.4C223.68,272.77,223.21,271.9,222.52,272.17z"/>
					<path fill="#C6AAA5" d="M227.8,238.03c-1.6,0.38-2.13,2.18-2.23,3.65c-0.03,0.37,0.22,0.76,0.54,0.93
						c0.09,0.05,0.17,0.1,0.26,0.14c0.18,0.1,0.42,0.11,0.6,0c0.71-0.44,0.69-0.83,0.88-1.62c0.21-0.88,0.68-1.6,0.75-2.51
						C228.63,238.22,228.17,237.95,227.8,238.03z"/>
					<path fill="#C6AAA5" d="M197.57,256.58c-0.92-0.61-1.5-0.14-2.44,0.28c-1.52,0.67-3.01,1.05-4.66,1.25
						c-0.24,0.03-0.33,0.37-0.06,0.45c2.16,0.61,4.49,0.62,6.6-0.18c0.49-0.19,0.76-0.53,0.8-1.05c0.01-0.09,0.02-0.19,0.02-0.28
						C197.85,256.85,197.72,256.68,197.57,256.58z"/>
					<path fill="#C6AAA5" d="M280.75,267.11c-0.67-0.23-1-0.09-1.64,0.22c-0.9,0.43-1.8,0.72-2.74,1.07
						c-0.36,0.13-0.48,0.54-0.22,0.83c1.33,1.47,4.92,0.48,4.98-1.61C281.15,267.37,280.97,267.18,280.75,267.11z"/>
					<path fill="#C6AAA5" d="M253.43,253.18c-0.94,0.31-1.76,0.54-2.75,0.66c-0.3,0.04-0.54,0.41-0.27,0.65
						c1.05,0.98,2.73,0.89,3.67-0.2C254.48,253.83,254.11,252.96,253.43,253.18z"/>
					<path fill="#C6AAA5" d="M324.07,298.55c-0.97-0.16-1.82,0.19-2.79,0.26c-1.09,0.07-2.15-0.22-3.24-0.2
						c-0.22,0.01-0.41,0.27-0.27,0.47c1.27,1.86,5.42,2.3,6.54,0.05C324.42,298.93,324.35,298.6,324.07,298.55z"/>
					<path fill="#C6AAA5" d="M316.09,300.46c-0.29-0.18-0.72,0.12-0.6,0.46c0.31,0.89,0.59,1.89,0.63,2.84
						c0.03,0.75-0.1,1.23,0.29,1.9c0.15,0.26,0.53,0.38,0.8,0.21C319.22,304.57,317.7,301.43,316.09,300.46z"/>
					<path fill="#EDB7A6" d="M214.45,221.31c-0.2-1.05,0.09-2,0.25-3.02c0.05-0.31-0.24-0.58-0.54-0.42
						c-2.05,1.11-2.38,5.77,0.17,6.44c0.42,0.11,0.87-0.21,0.86-0.66C215.16,222.76,214.61,222.18,214.45,221.31z"/>
					<path fill="#EDB7A6" d="M196.68,243.8c-1.13,0.18-2.08,0.78-3.19,0.98c-1.12,0.2-2.2-0.03-3.32,0.05
						c-0.19,0.01-0.35,0.22-0.23,0.41c1.54,2.37,6.48,1.92,7.36-0.82C197.42,244.01,197.03,243.74,196.68,243.8z"/>
					<path fill="#EDB7A6" d="M212.61,251.13c-0.05-0.4-0.52-0.69-0.85-0.35c-1.49,1.57-0.92,4.32,0.94,5.28
						c0.35,0.18,0.77-0.12,0.67-0.51C212.97,254.04,212.8,252.66,212.61,251.13z"/>
					<path fill="#EDB7A6" d="M247.44,238.77c-1.1,0.11-2.16,0.47-3.28,0.38c-0.97-0.07-1.87-0.42-2.84-0.49
						c-0.15-0.01-0.23,0.14-0.21,0.27c0.6,2.95,5.41,3.07,6.93,0.89C248.33,239.4,247.95,238.72,247.44,238.77z"/>
					<path fill="#EDB7A6" d="M269.22,252.04c0.2-0.79-0.94-1.32-1.35-0.57c-1.01,1.85-1.12,4.82,1,5.96c0.55,0.3,1.2-0.19,1.04-0.8
						C269.51,254.99,268.78,253.81,269.22,252.04z"/>
					<path fill="#EDB7A6" d="M251.44,272.21c-2.19,0.86-4.38,0.99-6.7,1.12c-0.4,0.02-0.7,0.55-0.35,0.85
						c2.4,2.06,5.87,1.14,7.63-1.22C252.28,272.61,251.85,272.05,251.44,272.21z"/>
					<path fill="#EDB7A6" d="M266.55,285.29c-0.28-0.97-0.17-1.88,0.06-2.84c0.15-0.62-0.7-1.26-1.16-0.68
						c-1.22,1.55-1.6,5.68,1.11,5.93c0.27,0.02,0.47-0.24,0.48-0.48C267.1,286.48,266.74,285.96,266.55,285.29z"/>
					<path fill="#EDB7A6" d="M306.18,271.32c-1.3,0.31-2.52,0.85-3.87,0.93c-1.22,0.07-2.36-0.23-3.55-0.35
						c-0.13-0.01-0.24,0.17-0.16,0.28c1.8,2.5,6.45,2.27,8.11-0.17C306.95,271.65,306.55,271.23,306.18,271.32z"/>
					<path fill="#EDB7A6" d="M328.07,287.77c-0.68-1.15-1.29-2.04-1.58-3.37c-0.04-0.2-0.29-0.23-0.43-0.11
						c-1.55,1.31-0.85,4.16,1.14,4.61C327.84,289.05,328.42,288.37,328.07,287.77z"/>
					<path fill="#EDB7A6" d="M302.2,301.42c-0.97,0.09-1.85,0.44-2.84,0.28c-0.95-0.16-1.84-0.66-2.66-1.14
						c-0.26-0.15-0.58,0.1-0.5,0.38c0.68,2.52,4.68,3.78,6.55,1.78C303.16,302.28,302.9,301.35,302.2,301.42z"/>
				</g>
				<g>
					<g>
						<polygon fill="#6CA5FF" points="305.26,195.54 228.18,240.04 165,203.57 242.08,159.06 						"/>
						<polygon fill="#488BED" points="305.26,195.54 305.26,215.12 228.18,259.62 228.18,240.04 						"/>
						<polygon fill="#2C7DDD" points="165,203.57 165,223.14 228.18,259.62 228.18,240.04 						"/>
						<polygon fill="#442E2C" points="199.07,226.72 199.07,230.32 225.76,245.64 225.76,242.04 						"/>
						<polygon fill="#442E2C" points="199.07,233.76 199.07,237.37 225.76,252.68 225.76,249.08 						"/>
						<polygon fill="#442E2C" points="195.14,224.44 168.04,208.8 168.04,220.94 195.14,236.59 						"/>
						<polygon fill="#442E2C" points="286.3,210.28 255.72,227.69 255.72,239.83 286.3,222.43 						"/>
						<polygon fill="#442E2C" points="289.03,208.71 289.03,220.85 301.69,213.54 301.69,201.4 						"/>
					</g>
					<g>
						<path fill="#FFFFFF" d="M253.23,190.88c-1.51-0.14-3.27-0.15-4.93,0.13c-2.09-0.65-4.89-1.06-7.18-1
							c-7.4,0.22-15.35,6.77-20.1,12.76c-1.61-0.87-2.88-1.7-4.73-1.84c-1.04-2.89-4.27-5.24-7.48-5.06
							c1.88,1.55,2.81,3.66,3.71,5.53c-4.78,1.25-9.64,6.48-8.94,10.12c-4.04,0.17-7.67,0.08-9.62-2.57
							c-1.13,4.44,4.67,6.93,9.1,7.08c0.5,0.02,1.05-0.02,1.62-0.09c0.05,0.08,8.78,8.88,13.66,8.69c2.76-0.1,3.62-0.53,5.75-3.59
							c1.06-1.51,0.9-2.31,1.08-3c2.04,0.52,4.18,0.64,6.27,0.38c0.71,0.47,1.43,0.92,2.14,1.39c2.11,1.39,4.28,3.18,6.58,4.25
							c2.15,1,8.54-2.57,6.32-5.44c-1.11-1.44-2.55-3.19-4.33-4.63c0.67-0.43,2.12-1.44,2.77-1.89c1.26,1.1,1.83,2.18,3.18,3.18
							c2.18,1.62,3.49,2.95,5.75,0.68c2.06-2.06,0.73-3.58-0.76-5.31c-0.77-0.89-2.39-2.76-2.36-2.78c1.28-0.88,3.11-2.56,3.5-2.28
							c1.51,1.1,2.82,2.71,4.24,3.79c3.1,2.35,5.98-0.45,5.3-2.07c-0.87-2.06-2.91-4.82-4.13-6.49c-2.03-2.78-4.48-5.69-7.47-7.57
							c-0.4-0.36-0.8-0.69-1.22-0.97c1.68,0.04,6.17-0.37,10.16,3.25c-0.45,2.88,3.3,3.92,4.92,4.85
							C266.49,195.69,258.17,191.32,253.23,190.88z"/>
						<path fill="#442E2C" d="M225.91,197.55c3.44,6.13,18.47,8.57,20.18,0.53c0.53-2.49-0.79-6.14-2.98-8.08
							C242.28,189.27,232.42,190.32,225.91,197.55z"/>
						<path fill="#442E2C" d="M217.69,205.89c-2.12-0.95-4.86-0.98-6.22,1.15c-1.89,2.95,1.19,6.51,3.79,7.65
							c2.59,1.14,6.33,0.85,6.73-2.56C222.29,209.5,220.27,206.61,217.69,205.89z"/>
						<path fill="#442E2C" d="M230.15,209.34c-1.47,3.07,3.19,4.46,5.4,4.13c2.78-0.42,7.88-3.21,7.78-6.56
							C243.26,204.55,231.72,206.07,230.15,209.34z"/>
					</g>
					<g>
						<path fill="#442E2C" d="M222.03,186.79c0.32-0.18,0.74-0.35,1.24-0.51c0.52-0.15,1.08-0.25,1.69-0.3
							c0.6-0.05,1.23-0.02,1.85,0.07c0.64,0.1,1.23,0.31,1.79,0.64c0.36,0.23,0.69,0.53,0.97,0.92c0.29,0.39,0.5,0.82,0.66,1.3
							c0.15,0.48,0.25,0.98,0.28,1.49c0.04,0.52,0.01,1.02-0.1,1.51c-0.12,0.48-0.29,0.93-0.55,1.32c-0.25,0.4-0.58,0.72-1,0.96
							c-0.17,0.1-0.4,0.19-0.65,0.27c-0.27,0.08-0.54,0.15-0.84,0.19c-0.29,0.05-0.58,0.09-0.84,0.11c-0.27,0.03-0.49,0.03-0.66,0
							c-0.27-0.03-0.48-0.07-0.62-0.15c-0.14-0.07-0.24-0.15-0.32-0.23c-0.07-0.09-0.13-0.18-0.2-0.27
							c-0.06-0.09-0.15-0.17-0.29-0.25c0.33-0.01,0.66-0.05,1.01-0.09c0.35-0.05,0.65-0.13,0.9-0.25c0.28-0.13,0.54-0.37,0.77-0.7
							c0.22-0.34,0.41-0.72,0.55-1.17c0.15-0.43,0.24-0.89,0.26-1.36c0.04-0.47-0.02-0.92-0.15-1.34c-0.13-0.42-0.35-0.78-0.66-1.09
							c-0.3-0.3-0.72-0.49-1.24-0.57c-0.51-0.07-0.99-0.05-1.43,0.07c-0.44,0.12-0.78,0.29-1.05,0.51c-0.1,0.1-0.2,0.25-0.29,0.46
							c-0.1,0.22-0.18,0.44-0.25,0.68c-0.07,0.23-0.11,0.46-0.11,0.68c-0.01,0.22,0.01,0.38,0.07,0.49c0.05,0.09,0.25,0.23,0.6,0.45
							c0.35,0.21,0.74,0.44,1.15,0.68c0.42,0.25,0.81,0.49,1.16,0.71c0.36,0.23,0.58,0.41,0.63,0.53c0.07,0.11,0.03,0.19-0.08,0.25
							c-0.1,0.06-0.26,0.1-0.46,0.13c-0.19,0.03-0.4,0.05-0.63,0.07c-0.22,0.01-0.45,0.02-0.63,0.03c-0.7-0.37-1.44-0.8-2.26-1.29
							c-0.81-0.49-1.64-1-2.5-1.53c-0.85-0.54-1.71-1.08-2.58-1.64c-0.87-0.56-1.72-1.1-2.56-1.62c-0.84-0.53-1.64-1.02-2.41-1.49
							c-0.78-0.47-1.48-0.87-2.12-1.22c0.16-0.26,0.4-0.44,0.69-0.53c0.28-0.09,0.6-0.13,0.94-0.1c0.34,0.03,0.69,0.11,1.04,0.25
							c0.36,0.14,0.69,0.32,1,0.53c0.55,0.4,1.04,0.77,1.48,1.09c0.43,0.33,0.87,0.65,1.3,0.97c0.44,0.31,0.9,0.66,1.38,1
							c0.49,0.35,1.06,0.75,1.72,1.21c0.19,0.13,0.33,0.17,0.44,0.14c0.1-0.04,0.13-0.09,0.08-0.14c-0.31-0.23-0.69-0.55-1.13-0.97
							c-0.44-0.42-0.87-0.88-1.32-1.38c-0.45-0.51-0.86-1.04-1.25-1.59c-0.39-0.55-0.71-1.07-0.94-1.55
							c-0.23-0.49-0.34-0.93-0.35-1.32c-0.02-0.39,0.14-0.68,0.46-0.86c0.09-0.05,0.28-0.13,0.56-0.24c0.27-0.1,0.6-0.18,0.98-0.24
							c0.38-0.05,0.79-0.06,1.24-0.01c0.46,0.05,0.89,0.19,1.31,0.43c0.44,0.25,0.81,0.56,1.09,0.9c0.27,0.34,0.5,0.7,0.66,1.08
							c0.16,0.38,0.28,0.76,0.34,1.16c0.07,0.39,0.11,0.76,0.13,1.11c0.03,0.35,0.03,0.66,0.02,0.94
							C222,186.41,222.01,186.63,222.03,186.79z M219.9,187.17c0.05,0.05,0.09,0.07,0.13,0.07c0.05,0.01,0.08-0.01,0.1-0.05
							c-0.1-0.45-0.19-0.9-0.28-1.35c-0.09-0.46-0.19-0.91-0.31-1.36c-0.12-0.46-0.27-0.91-0.46-1.36c-0.18-0.45-0.43-0.9-0.74-1.36
							c-0.05-0.06-0.15-0.12-0.33-0.19c-0.17-0.06-0.29-0.07-0.35-0.02c-0.22,0.17-0.35,0.41-0.36,0.72
							c-0.02,0.29,0.03,0.63,0.15,0.99c0.13,0.37,0.3,0.75,0.53,1.15c0.22,0.4,0.46,0.78,0.7,1.14c0.25,0.36,0.48,0.68,0.7,0.97
							C219.6,186.81,219.78,187.02,219.9,187.17z"/>
						<path fill="#442E2C" d="M235.19,179.93c1.21,1.38,2.05,2.46,2.55,3.24c0.5,0.78,0.53,1.29,0.11,1.54
							c-0.31,0.19-0.66,0.27-1.07,0.25c-0.41-0.02-0.83-0.11-1.29-0.26c-0.45-0.15-0.93-0.35-1.42-0.61
							c-0.49-0.25-0.98-0.53-1.48-0.82c-0.08-0.06-0.16-0.09-0.24-0.07c-0.08,0.01-0.08,0.07,0,0.15c0.12,0.12,0.28,0.3,0.48,0.52
							c0.19,0.22,0.39,0.46,0.61,0.71c0.22,0.25,0.43,0.51,0.63,0.78c0.2,0.27,0.37,0.52,0.51,0.76c0.14,0.23,0.24,0.43,0.29,0.6
							c0.05,0.16,0.04,0.27-0.05,0.32c-0.13,0.07-0.28,0.15-0.48,0.22c-0.19,0.08-0.4,0.14-0.62,0.18
							c-0.21,0.05-0.45,0.07-0.68,0.06c-0.25,0-0.48-0.05-0.7-0.12c-0.74-0.27-1.45-0.62-2.16-1.04c-0.7-0.42-1.35-0.87-1.92-1.33
							c-0.57-0.47-1.06-0.93-1.46-1.39c-0.39-0.46-0.65-0.84-0.77-1.17c0.04-0.02,0.13-0.05,0.26-0.09
							c0.13-0.04,0.27-0.08,0.42-0.11c0.15-0.03,0.29-0.05,0.42-0.05c0.14-0.01,0.23,0.01,0.3,0.04c0.11,0.15,0.33,0.38,0.64,0.67
							c0.3,0.29,0.66,0.6,1.08,0.93c0.41,0.33,0.85,0.67,1.32,1c0.46,0.34,0.9,0.63,1.34,0.88c0.43,0.25,0.82,0.44,1.17,0.56
							c0.33,0.12,0.59,0.13,0.75,0.04c0.07-0.04,0-0.22-0.22-0.53c-0.22-0.31-0.51-0.68-0.9-1.12c-0.37-0.44-0.79-0.91-1.23-1.4
							c-0.44-0.49-0.84-0.94-1.22-1.36c-0.37-0.42-0.68-0.75-0.9-1c-0.22-0.26-0.3-0.37-0.22-0.35c0.02-0.03,0.1-0.09,0.23-0.17
							c0.14-0.07,0.31-0.13,0.48-0.19c0.18-0.05,0.35-0.09,0.54-0.11c0.18-0.01,0.32,0.01,0.43,0.07c0.01,0.01,0.15,0.11,0.43,0.32
							c0.27,0.2,0.61,0.45,1.02,0.76c0.41,0.31,0.86,0.63,1.36,0.97c0.49,0.34,0.97,0.64,1.42,0.91c0.46,0.27,0.87,0.48,1.22,0.63
							c0.37,0.15,0.63,0.18,0.78,0.09c0.07-0.04,0.08-0.15,0.02-0.31c-0.06-0.17-0.16-0.37-0.3-0.62c-0.13-0.23-0.29-0.49-0.49-0.77
							c-0.19-0.29-0.4-0.56-0.59-0.83c-0.2-0.27-0.39-0.51-0.58-0.74c-0.19-0.22-0.33-0.39-0.45-0.51c0.06-0.03,0.17-0.08,0.35-0.13
							C235.06,179.88,235.16,179.88,235.19,179.93z"/>
						<path fill="#442E2C" d="M236.98,171.96c0.12,0.01,0.29,0.04,0.51,0.11c0.23,0.07,0.39,0.15,0.51,0.24
							c-0.1,0.05-0.24,0.15-0.45,0.28c-0.2,0.13-0.43,0.28-0.65,0.45c-0.23,0.17-0.46,0.34-0.71,0.52
							c-0.24,0.17-0.42,0.35-0.57,0.49c-0.02,0.04-0.01,0.07,0.03,0.1c0.03,0.03,0.07,0.05,0.09,0.08c0.26,0.23,0.59,0.5,0.96,0.82
							c0.38,0.32,0.8,0.66,1.27,1.02c0.48,0.36,0.98,0.74,1.5,1.12c0.53,0.39,1.08,0.76,1.66,1.11c0.57,0.35,1.13,0.68,1.71,1
							c0.56,0.31,1.12,0.56,1.67,0.77c0.07,0.02,0.15,0.01,0.2-0.02c0.05-0.04,0.04-0.09-0.02-0.15c-0.13-0.13-0.3-0.33-0.51-0.58
							c-0.19-0.24-0.44-0.53-0.7-0.86c-0.27-0.33-0.55-0.68-0.85-1.06c-0.29-0.37-0.6-0.76-0.9-1.16c-0.15-0.19-0.22-0.33-0.23-0.43
							c0.01-0.09,0.04-0.15,0.11-0.16c0.08-0.01,0.17,0.01,0.31,0.07c0.12,0.05,0.23,0.12,0.32,0.21c0.52,0.56,1.03,1.1,1.53,1.62
							c0.5,0.52,0.95,1,1.35,1.43c0.4,0.43,0.73,0.8,0.99,1.1c0.25,0.3,0.4,0.52,0.42,0.62c0.04,0.11,0.04,0.22,0.04,0.33
							c0,0.12-0.03,0.23-0.08,0.33c-0.05,0.1-0.13,0.18-0.22,0.25c-0.09,0.07-0.2,0.11-0.32,0.11c-1.29,0-2.82-0.49-4.59-1.46
							c-0.14-0.07-0.25-0.09-0.31-0.06c-0.06,0.03-0.05,0.09,0.05,0.19c0.38,0.39,0.75,0.76,1.09,1.1c0.34,0.34,0.64,0.66,0.91,0.94
							c0.26,0.27,0.47,0.51,0.64,0.7c0.16,0.19,0.26,0.33,0.3,0.41c0.05,0.11,0.08,0.23,0.09,0.36c0.01,0.13-0.01,0.25-0.05,0.35
							c-0.04,0.11-0.11,0.2-0.19,0.26c-0.09,0.07-0.21,0.09-0.36,0.08c-0.7-0.07-1.55-0.31-2.54-0.71c-1-0.39-2.06-0.9-3.2-1.51
							c-1.14-0.62-2.29-1.3-3.49-2.07c-1.19-0.76-2.32-1.55-3.38-2.36c-0.03-0.02-0.09-0.03-0.18-0.05
							c-0.08-0.01-0.12-0.01-0.15,0.01c-0.38,0.29-0.69,0.55-0.96,0.76c-0.27,0.21-0.42,0.34-0.46,0.38
							c-0.12,0.07-0.23,0.09-0.34,0.05c-0.1-0.05-0.19-0.11-0.26-0.21c-0.07-0.09-0.11-0.2-0.13-0.32c-0.02-0.13,0-0.22,0.05-0.28
							c0.03-0.04,0.16-0.15,0.41-0.34c0.24-0.18,0.55-0.41,0.9-0.69c0.02-0.01,0.02-0.04,0.02-0.09c-0.01-0.05-0.02-0.09-0.05-0.1
							c-0.86-0.7-1.63-1.38-2.31-2.04c-0.68-0.66-1.22-1.27-1.62-1.82c0.08-0.05,0.19-0.09,0.36-0.13c0.17-0.04,0.35-0.07,0.55-0.09
							c0.2-0.03,0.41-0.04,0.62-0.03c0.22,0,0.4,0.02,0.56,0.06c0.32,0.31,0.77,0.72,1.32,1.22c0.56,0.49,1.22,1.05,1.98,1.66
							c0.02,0.03,0.08,0.05,0.17,0.05c0.09,0.01,0.13,0,0.15-0.02c0.21-0.17,0.41-0.33,0.62-0.48c0.2-0.15,0.37-0.28,0.52-0.41
							c0.15-0.12,0.27-0.22,0.38-0.29c0.09-0.08,0.15-0.13,0.17-0.15c0.01-0.02-0.02-0.07-0.06-0.15c-0.04-0.07-0.07-0.12-0.09-0.15
							c0.02,0.03-0.03-0.01-0.16-0.12c-0.14-0.11-0.3-0.25-0.5-0.44c-0.2-0.19-0.41-0.39-0.65-0.63c-0.24-0.23-0.45-0.45-0.66-0.66
							c-0.19-0.21-0.36-0.39-0.47-0.55c-0.13-0.16-0.17-0.26-0.15-0.3c0.07-0.05,0.2-0.09,0.35-0.13c0.16-0.04,0.34-0.07,0.53-0.1
							c0.19-0.03,0.39-0.05,0.59-0.05c0.19-0.01,0.36,0,0.51,0.03c0.07,0,0.21,0.09,0.44,0.29c0.2,0.2,0.44,0.43,0.68,0.67
							c0.26,0.25,0.5,0.47,0.72,0.68c0.24,0.21,0.41,0.31,0.52,0.31c0.07-0.01,0.19-0.09,0.38-0.23c0.17-0.15,0.37-0.3,0.58-0.47
							c0.21-0.16,0.42-0.31,0.65-0.44C236.66,172.02,236.84,171.96,236.98,171.96z M241.99,182.61c-0.15-0.13-0.33-0.33-0.57-0.62
							c-0.24-0.28-0.51-0.6-0.81-0.97c-0.31-0.36-0.63-0.75-0.97-1.16c-0.34-0.41-0.68-0.82-1.02-1.22
							c-0.02-0.02-0.07-0.07-0.17-0.14c-0.09-0.07-0.16-0.13-0.19-0.16c-0.61-0.41-1.25-0.86-1.92-1.34c-0.67-0.47-1.36-1-2.08-1.55
							c-0.07-0.06-0.15-0.11-0.23-0.13c-0.1-0.03-0.19-0.01-0.27,0.07c-0.04,0.03-0.2,0.17-0.49,0.4c-0.27,0.23-0.61,0.5-0.97,0.81
							c-0.02,0.01-0.02,0.04-0.02,0.09c0.02,0.05,0.02,0.08,0.04,0.1c0.67,0.54,1.38,1.08,2.15,1.63c0.77,0.55,1.56,1.09,2.37,1.62
							c0.8,0.52,1.62,1.02,2.47,1.5c0.84,0.47,1.68,0.9,2.5,1.26c0.08,0.04,0.15,0.04,0.21,0
							C242.08,182.73,242.07,182.68,241.99,182.61z"/>
						<path fill="#442E2C" d="M248.16,172.67c0.1,0.2,0.21,0.45,0.36,0.74c0.14,0.29,0.28,0.61,0.42,0.95
							c0.14,0.34,0.27,0.68,0.37,1.04c0.1,0.35,0.15,0.69,0.17,1.02c0.01,0.33-0.04,0.63-0.16,0.9c-0.12,0.27-0.33,0.49-0.62,0.67
							c-0.29,0.16-0.64,0.29-1.07,0.38c-0.43,0.09-0.89,0.15-1.36,0.15c-0.48,0-0.95-0.05-1.43-0.15c-0.48-0.1-0.9-0.26-1.26-0.47
							c-0.38-0.22-0.75-0.47-1.12-0.75c-0.37-0.28-0.7-0.58-1-0.88c-0.29-0.31-0.56-0.62-0.76-0.94c-0.21-0.32-0.34-0.64-0.4-0.95
							c-0.04-0.31,0-0.6,0.13-0.88c0.13-0.27,0.38-0.52,0.76-0.74c0.04-0.03,0.16-0.06,0.35-0.11c0.18-0.04,0.41-0.07,0.68-0.09
							c0.27-0.01,0.58,0,0.91,0.04c0.33,0.04,0.67,0.13,1.02,0.27c0.35,0.17,0.57,0.38,0.65,0.65c0.09,0.27,0.09,0.54-0.01,0.82
							c-0.08,0.27-0.22,0.53-0.41,0.78c-0.18,0.24-0.37,0.42-0.57,0.53c-0.09,0.05-0.06,0.15,0.09,0.31
							c0.15,0.16,0.36,0.33,0.62,0.5c0.25,0.18,0.51,0.34,0.77,0.5c0.25,0.16,0.44,0.26,0.55,0.32c0.25,0.15,0.57,0.24,0.93,0.27
							c0.37,0.03,0.73-0.06,1.08-0.26c0.22-0.13,0.37-0.32,0.44-0.57c0.07-0.25,0.09-0.53,0.07-0.84c-0.02-0.31-0.08-0.62-0.16-0.94
							c-0.1-0.32-0.19-0.62-0.28-0.88c-0.1-0.27-0.18-0.5-0.28-0.68c-0.09-0.19-0.12-0.29-0.13-0.32c0.03-0.03,0.06-0.07,0.1-0.13
							c0.03-0.06,0.06-0.12,0.09-0.18c0.03-0.07,0.08-0.11,0.14-0.15c0.07-0.04,0.14-0.05,0.25-0.04L248.16,172.67z M243.79,173.45
							c-0.19-0.15-0.41-0.24-0.67-0.27c-0.25-0.04-0.48,0.01-0.66,0.15c-0.23,0.27-0.3,0.56-0.22,0.86c0.08,0.3,0.25,0.57,0.49,0.81
							c0.08,0.07,0.15,0.1,0.22,0.11c0.08,0.01,0.15,0,0.22-0.02c0.07-0.02,0.14-0.05,0.2-0.09c0.06-0.04,0.1-0.07,0.14-0.09
							c0.26-0.24,0.41-0.5,0.44-0.79C243.99,173.82,243.94,173.6,243.79,173.45z"/>
						<path fill="#442E2C" d="M244.8,169.12c0.09,0.02,0.25,0.12,0.48,0.32c0.21,0.19,0.45,0.42,0.71,0.68
							c0.25,0.25,0.5,0.51,0.71,0.77c0.23,0.26,0.38,0.46,0.48,0.61c0.01,0.03,0.03,0.05,0.05,0.03c0.02-0.01,0.03-0.01,0.06,0.01
							c0.28,0.03,0.54,0.03,0.79-0.01c0.24-0.03,0.5-0.06,0.76-0.07c0.25-0.02,0.51-0.03,0.77-0.01c0.26,0.01,0.56,0.07,0.86,0.18
							c0.31,0.1,0.64,0.29,0.99,0.57c0.35,0.28,0.71,0.59,1.11,0.94c0.38,0.35,0.76,0.71,1.13,1.08c0.37,0.37,0.73,0.7,1.06,0.99
							c0.32,0.28,0.62,0.51,0.88,0.66c0.26,0.15,0.47,0.19,0.62,0.1c0.1-0.06,0.12-0.22,0.03-0.48c-0.09-0.26-0.24-0.57-0.46-0.94
							c-0.21-0.37-0.47-0.77-0.78-1.21c-0.31-0.43-0.62-0.86-0.96-1.28c-0.33-0.41-0.66-0.79-0.99-1.14
							c-0.32-0.35-0.6-0.62-0.84-0.82c-0.03-0.02-0.03-0.05,0.01-0.1c0.05-0.05,0.12-0.09,0.2-0.11c0.09-0.03,0.19-0.04,0.29-0.03
							c0.11,0.01,0.2,0.05,0.28,0.13c0.2,0.19,0.48,0.48,0.84,0.85c0.35,0.37,0.73,0.79,1.12,1.24c0.39,0.46,0.78,0.94,1.15,1.43
							c0.38,0.5,0.7,0.96,0.95,1.38c0.26,0.43,0.42,0.8,0.5,1.13c0.08,0.32,0.02,0.54-0.18,0.66c-0.15,0.08-0.35,0.16-0.59,0.23
							c-0.24,0.08-0.49,0.13-0.77,0.15c-0.28,0.02-0.57,0.01-0.87-0.04c-0.3-0.05-0.6-0.15-0.9-0.33c-0.43-0.24-0.84-0.55-1.26-0.91
							c-0.42-0.36-0.79-0.72-1.13-1.07c-0.34-0.35-0.64-0.67-0.89-0.96c-0.24-0.29-0.42-0.48-0.54-0.59
							c-0.12-0.13-0.26-0.23-0.43-0.3c-0.16-0.07-0.38-0.08-0.63-0.03c-0.08,0-0.31,0.03-0.68,0.07c-0.37,0.05-0.8,0.08-1.27,0.09
							c-0.48,0.01-0.96,0.01-1.44-0.03c-0.48-0.04-0.86-0.14-1.13-0.3c-0.2-0.13-0.46-0.35-0.76-0.67c-0.31-0.32-0.6-0.67-0.85-1.05
							c-0.25-0.37-0.42-0.74-0.54-1.1c-0.1-0.36-0.05-0.64,0.17-0.83c0.11-0.06,0.24-0.1,0.41-0.12c0.17-0.02,0.34-0.03,0.52-0.01
							c0.18,0.01,0.35,0.03,0.52,0.08C244.51,169,244.67,169.05,244.8,169.12z M245.66,171.54c0.03,0.01,0.09,0.03,0.18,0.03
							c0.09,0.01,0.17,0.01,0.26,0.01c0.09-0.01,0.15-0.02,0.21-0.05c0.05-0.03,0.06-0.08,0.01-0.15c-0.07-0.11-0.15-0.21-0.25-0.29
							c-0.1-0.08-0.21-0.17-0.35-0.29c-0.35-0.29-0.62-0.43-0.79-0.42c-0.17,0.01-0.19,0.09-0.08,0.25
							c0.09,0.14,0.19,0.28,0.31,0.41C245.26,171.15,245.43,171.32,245.66,171.54z"/>
					</g>
				</g>
				<g>
					<g>
						<path fill="#009BFF" d="M300.03,225.85c-0.54-0.37-1.07-0.73-1.64-1.07c-8.38-4.94-21.93-6.38-31.24-2.03
							c-12.05,5.63-19.9,19.86-15.09,36.42c0.21,0.73,0.41,1.46,0.67,2.2c4.73,13.34,17.35,20.03,29.2,19.77
							c13.22-0.3,23.92-7.59,28.08-20.96C314.25,246.53,310.91,233.3,300.03,225.85z"/>
						<path fill="#009BFF" d="M281.93,281.13c13.22-0.3,23.92-7.59,28.08-20.96c4.24-13.63,0.9-26.87-9.98-34.32
							c4.85,11.23,2.81,24.52-8.66,32.13c-11.39,7.56-27.63,8.26-39.31,1.19c0.21,0.73,0.41,1.46,0.68,2.2
							C257.46,274.7,270.08,281.4,281.93,281.13z"/>
					</g>
					<path fill="#70BC2E" d="M275.58,210.43c0,0-0.48,6.59,2.03,11.12c2.51,4.53,10.43,3.19,10.43,3.19s0.18-4.53-2.52-8.44
						C282.81,212.38,275.58,210.43,275.58,210.43z"/>
					<path fill="#009BFF" d="M287.4,227.05c-3.96-0.73-8.78-2.59-11.12,0.17c-3.29,3.89,2.78,7.2,5.82,8.21
						c3.82,1.27,11.97,1.91,13.64-2.73C297.1,228.92,290.64,227.65,287.4,227.05z"/>
					<path fill="#2C1D1B" d="M292.59,213.42c-1.04-0.36-2.18,0.08-2.71,1.03c-1.6,2.87-4.79,8.88-5.92,12.96
						c-0.38,1.37-0.66,2.53-0.88,3.52c0.71,0.67,1.47,1.06,2.74,0.96c0.34-0.03,0.68-0.09,1.02-0.17c0.53-3,1.57-6.49,2.9-8.82
						c1.34-2.37,2.87-5.56,3.74-7.41C293.86,214.67,293.44,213.72,292.59,213.42z"/>
					<path fill="#7DD13D" d="M287.44,224.68c1.18,4.21,7.84,4.16,11.45,2.76c3.8-1.47,6.34-6.22,7.55-10.07
						C298.89,216.22,290.38,219.63,287.44,224.68z"/>
					<path fill="#009BFF" d="M270.19,229.58c-5.05-3.61-11.39,1.09-13.75,5.55c-2.38,4.51-3.61,12.61,2.76,14.51
						c5.62,1.68,12.51-4.44,13.51-9.73C273.25,237.03,274.05,232.35,270.19,229.58z"/>
					<path fill="#FFFFFF" d="M266.07,230.79c-2.95-2.11-6.65,0.64-8.03,3.24c-1.39,2.63-2.11,7.36,1.61,8.47
						c3.28,0.98,7.31-2.59,7.89-5.68C267.86,235.14,268.33,232.4,266.07,230.79z"/>
				</g>
			</g>
			<g>
				<path fill="#E5D5D1" d="M390.23,183.5l-74.24,42.86c-9.55,5.52-26.35,4.79-37.46-1.62L111.85,128.5
					c-5.55-3.2-8.73-7.35-8.73-11.37c0-3.21,2.1-6.19,5.92-8.4l75.43-43.55v-3.71l-77.04,44.48c-4.85,2.8-7.53,6.77-7.53,11.18
					c0,5.2,3.77,10.36,10.33,14.16l166.69,96.24c6.53,3.77,14.93,5.7,22.9,5.7c6.65,0,13.01-1.34,17.76-4.08l72.63-41.94V183.5z"/>
			</g>
			<g>
				<path fill="#E5D5D1" d="M402.91,183.84l-9.36-5.4v3.7l7.75,4.48c5.55,3.2,8.73,7.35,8.73,11.38c0,3.21-2.1,6.19-5.92,8.4
					l-10.56,6.1v3.7l12.16-7.02c4.86-2.8,7.53-6.77,7.53-11.18C413.24,192.79,409.47,187.63,402.91,183.84z"/>
				<path fill="#E5D5D1" d="M390.23,214.4l-74.24,42.86c-9.55,5.52-26.36,4.79-37.46-1.62l-166.69-96.24
					c-5.55-3.2-8.73-7.35-8.73-11.37c0-3.21,2.1-6.19,5.92-8.4l75.43-43.55v-3.71l-77.04,44.48c-4.85,2.8-7.53,6.77-7.53,11.18
					c0,5.2,3.77,10.36,10.33,14.15l166.69,96.24c6.53,3.77,14.93,5.71,22.9,5.71c6.65,0,13.01-1.34,17.76-4.09l72.63-41.93V214.4z"
					/>
			</g>
			<g>
				<path fill="#E5D5D1" d="M315.99,288.17c-9.55,5.51-26.35,4.79-37.46-1.62l-166.69-96.24c-5.55-3.2-8.73-7.35-8.73-11.37
					c0-3.21,2.1-6.19,5.92-8.4l19.91-11.49v-3.7l-21.51,12.42c-4.85,2.8-7.53,6.77-7.53,11.18c0,5.2,3.77,10.36,10.33,14.15
					l166.69,96.24c6.54,3.78,14.93,5.71,22.9,5.71c6.65,0,13.01-1.34,17.76-4.08l72.63-41.94v-3.7L315.99,288.17z"/>
				<path fill="#E5D5D1" d="M402.91,214.75l-9.36-5.4v3.71l7.75,4.48c5.55,3.2,8.73,7.35,8.73,11.37c0,3.21-2.1,6.19-5.92,8.4
					l-10.56,6.1v3.7l12.16-7.02c4.86-2.8,7.53-6.77,7.53-11.18C413.24,223.7,409.47,218.54,402.91,214.75z"/>
			</g>
			<g>
				<path fill="#E5D5D1" d="M402.91,245.65l-9.36-5.4v3.71l7.75,4.48c5.55,3.2,8.73,7.35,8.73,11.37c0,3.21-2.1,6.19-5.92,8.4
					l-10.56,6.1v3.7l12.16-7.02c4.86-2.8,7.53-6.77,7.53-11.18C413.24,254.6,409.47,249.44,402.91,245.65z"/>
				<path fill="#E5D5D1" d="M315.99,319.08c-9.55,5.52-26.35,4.79-37.46-1.62l-166.69-96.24c-5.55-3.2-8.73-7.35-8.73-11.37
					c0-3.21,2.1-6.19,5.92-8.4l19.91-11.49v-3.7l-21.51,12.42c-4.85,2.8-7.53,6.77-7.53,11.18c0,5.2,3.77,10.36,10.33,14.15
					l166.69,96.24c6.54,3.77,14.93,5.71,22.9,5.71c6.65,0,13.01-1.35,17.76-4.09l82.76-47.41v-4.43L315.99,319.08z"/>
			</g>
			<g>
				<g>
					<rect x="396.95" y="180.97" fill="#E5D5D1" width="3.21" height="115.79"/>
				</g>
				<g>
					<rect x="371.87" y="194.48" fill="#E5D5D1" width="3.21" height="115.8"/>
				</g>
				<g>
					<rect x="346.4" y="210.52" fill="#E5D5D1" width="3.21" height="115.8"/>
				</g>
				<g>
					<rect x="320.93" y="224.59" fill="#E5D5D1" width="3.21" height="115.79"/>
				</g>
			</g>
			<g>
				<g>
					<rect x="115.27" y="133.26" fill="#E5D5D1" width="3.21" height="115.8"/>
				</g>
				<g>
					<polygon fill="#E5D5D1" points="143.95,265.1 140.74,264.13 140.74,149.3 143.95,149.3 					"/>
				</g>
				<g>
					<rect x="166.21" y="161.61" fill="#E5D5D1" width="3.21" height="115.79"/>
				</g>
				<g>
					<rect x="191.68" y="177.65" fill="#E5D5D1" width="3.21" height="115.79"/>
				</g>
				<g>
					<rect x="216.77" y="191.16" fill="#E5D5D1" width="3.21" height="115.79"/>
				</g>
				<g>
					<rect x="242.24" y="207.2" fill="#E5D5D1" width="3.21" height="115.79"/>
				</g>
				<g>
					<rect x="267.7" y="221.27" fill="#E5D5D1" width="3.21" height="115.79"/>
				</g>
			</g>
			<g>
				<rect x="293.17" y="231.63" fill="#E5D5D1" width="3.21" height="115.79"/>
			</g>
			<polygon fill="#009BFF" points="320.39,223.92 320.39,316.18 400.35,270.02 400.35,177.76 			"/>
			<path fill="#D8C4C3" d="M275.74,342.63L96.13,88.67c-2.92-4.43-4.47-6.26-4.47-8.84c0-2.54,2.09-4.28,3.84-5.29l33.6-18.99
				c-0.62-1.3-1.25-2.59-1.88-3.88L93.35,70.8c-3.86,2.23-5.99,5.43-5.99,9.02c0,4.05,2.16,7.15,5.8,12.09l175.53,246.64
				C269.94,339.28,273.69,341.71,275.74,342.63z"/>
			<g>
				<path fill="#009BFF" d="M187.67,10.34c0.84-0.4,1.91-0.32,3.06,0.35c2.73,1.58,4.95,5.81,4.95,9.46c0,2.03-0.7,3.41-1.78,4
					l-46.14,26.99l-46.8,27.08l-6.07-13.89C94.82,64.37,187.67,10.34,187.67,10.34z"/>
				<path fill="#009BFF" d="M102.73,74.21c0,3.64-2.22,5.32-4.95,3.74c-2.73-1.58-4.95-5.81-4.95-9.46c0-3.64,2.22-5.32,4.95-3.74
					C100.52,66.33,102.73,70.57,102.73,74.21z"/>
			</g>
			<path fill="#D8C4C3" d="M96.12,69.28c0.25-0.15,0.57-0.16,0.92,0.05c0.78,0.45,1.41,1.66,1.41,2.7c0,0.54-0.17,0.91-0.44,1.1
				l-3.72,2.18l-1.75-3.96L96.12,69.28z"/>
		</g>
		<g>
			
				<rect x="99.44" y="272.73" transform="matrix(0.5645 -0.8254 0.8254 0.5645 -157.4639 250.2089)" fill="#FFFFFF" width="117.91" height="3.21"/>
		</g>
		<g>
			<path fill="#009BFF" d="M140.62,337.78c0-9.55-5.81-20.65-12.97-24.79c-1.81-1.05-3.96-1.58-5.67-1.58
				c-1.34,0-4.76,0.13-8.31,2.33c-4.08,2.52-4.63,8.26-4.63,8.26l14.58,29.94c0,0,4.69,2.3,9.52-0.34c3-1.64,4.81-4.36,5.64-5.86
				c0.36-0.66,0.91-1.99,1.07-2.49C140.34,341.7,140.62,339.87,140.62,337.78z"/>
			<path fill="#008BD8" d="M108.6,326.19c0,9.55,5.81,20.65,12.97,24.79c7.17,4.14,12.97-0.25,12.97-9.81
				c0-9.55-5.81-20.65-12.97-24.79C114.41,312.25,108.6,316.64,108.6,326.19z"/>
			<path fill="#FFFFFF" d="M113.56,329.96c0,5.23,3.18,11.31,7.11,13.58c3.93,2.27,7.11-0.14,7.11-5.37
				c0-5.23-3.18-11.31-7.11-13.58C116.74,322.33,113.56,324.73,113.56,329.96z"/>
			<path fill="#008BD8" d="M114.81,332.32c0,3.11,1.89,6.73,4.23,8.08c2.33,1.35,4.23-0.08,4.23-3.2c0-3.11-1.89-6.73-4.23-8.08
				C116.7,327.78,114.81,329.21,114.81,332.32z"/>
			<path fill="#C4B3B1" d="M115.63,334.76c-1.16-4.06-1.84-10.95-1.67-16.9c0.17-5.95,2.22-9.16,10.12-7.86
				c6.36,1.05,14.01,8.1,16.66,16.77c1.16,3.78,1.49,4.66-4.1,6.9C132.13,335.49,117.81,342.4,115.63,334.76z"/>
		</g>
		<g>
			<path fill="#009BFF" d="M291.34,424.78c0-9.55-5.81-20.65-12.97-24.79c-1.81-1.05-3.96-1.58-5.67-1.58
				c-1.34,0-4.76,0.13-8.31,2.33c-4.08,2.52-4.63,8.26-4.63,8.26l14.58,29.94c0,0,4.69,2.3,9.52-0.34c3-1.64,4.81-4.36,5.64-5.86
				c0.36-0.66,0.91-1.99,1.07-2.49C291.06,428.7,291.34,426.86,291.34,424.78z"/>
			<path fill="#008BD8" d="M259.32,413.19c0,9.55,5.81,20.65,12.97,24.79c7.16,4.14,12.97-0.25,12.97-9.81
				c0-9.55-5.81-20.65-12.97-24.79C265.13,399.25,259.32,403.64,259.32,413.19z"/>
			<path fill="#FFFFFF" d="M264.28,416.96c0,5.23,3.18,11.31,7.11,13.58c3.93,2.27,7.11-0.14,7.11-5.37
				c0-5.23-3.18-11.31-7.11-13.58C267.46,409.32,264.28,411.73,264.28,416.96z"/>
			<path fill="#008BD8" d="M265.53,419.32c0,3.11,1.89,6.73,4.23,8.08c2.33,1.35,4.23-0.08,4.23-3.2c0-3.11-1.89-6.73-4.23-8.08
				C267.42,414.78,265.53,416.21,265.53,419.32z"/>
			<path fill="#C4B3B1" d="M266.35,421.76c-1.16-4.06-1.84-10.95-1.67-16.9c0.17-5.95,2.22-9.16,10.12-7.86
				c6.36,1.05,14.01,8.1,16.66,16.77c1.16,3.78,1.49,4.66-4.1,6.9C282.85,422.49,268.53,429.4,266.35,421.76z"/>
		</g>
	</g>
	<g>
		<path fill="#2C1D1B" d="M328.19,372.62c-1.11-2.86-1.23-13.01-4.04-16.39c-2.81-3.38-4.9,0.19-4.44,2.77
			c0.46,2.58,3.11,16.79,3.11,16.79L328.19,372.62z"/>
		<path fill="#FFCF48" d="M339.31,380.18c-4.22-3.87-7.36-9.86-12.23-10.41c-0.02,0-0.04,0-0.06,0c-6.95-0.74-12.5,7.18-15.68,12.24
			c-8.39,13.38-12.95,36.98,2.48,47.39c12.43,8.39,33.61,1.32,40.44-11.52c0.15-0.28,0.39-0.52,0.53-0.81
			C361.18,403.53,350,389.97,339.31,380.18z"/>
		<path fill="#FCBD0D" d="M318.48,408.31c6.99,12.29,20.58,16.09,35.78,9.57c0.15-0.28,0.39-0.52,0.53-0.81
			c6.4-13.54-4.79-27.1-15.47-36.89c-4.22-3.87-7.35-9.86-12.23-10.41c-0.02,0-0.04,0-0.06,0
			C319.07,379.53,311.84,396.65,318.48,408.31z"/>
		<path fill="#FCBD0D" d="M311.34,382.01c-8.39,13.38-12.95,36.98,2.48,47.39c12.43,8.39,33.61,1.32,40.44-11.52
			c-15.2,6.51-28.79,2.71-35.78-9.57c-6.64-11.66,0.59-28.78,8.54-38.54C320.07,369.03,314.52,376.94,311.34,382.01z"/>
		<path fill="#FFDD92" d="M349.19,396.97c-2.49-6.82-14-10.8-19.64-6.41c-9.68,7.53,2.79,20.7,11.84,20.56
			C346.26,411.04,352.24,405.31,349.19,396.97z"/>
		<path fill="#FFFFFF" d="M345.11,394.42c-0.73-2.01-4.12-3.18-5.78-1.89c-2.85,2.22,0.82,6.09,3.48,6.05
			C344.25,398.56,346.01,396.88,345.11,394.42z"/>
	</g>
</g>
</svg>
