<?xml version="1.0" encoding="utf-8"?>
<!-- Generator: Adobe Illustrator 23.0.3, SVG Export Plug-In . SVG Version: 6.00 Build 0)  -->
<svg version="1.1" id="Layer_1" xmlns="http://www.w3.org/2000/svg" xmlns:xlink="http://www.w3.org/1999/xlink" x="0px" y="0px"
	 viewBox="0 0 500 500" enable-background="new 0 0 500 500" xml:space="preserve">
<g>
	<g>
		<path fill="#009BFF" d="M305.41,136.44c-0.06-6.61-0.25-13.15-0.13-19.81c0.06-2.78,0.19-5.6-0.13-8.3
			c-1.17-8.25-5.98-15.66-11.19-19.76c-2.15-1.69-4.59-3.02-7.06-4.34c-3.9-2.2-7.67-4.47-11.45-6.66
			c-13-7.61-25.94-14.68-43.16-24.79c-31.45-18.72-29.19-16.19-37.37-21.46c-5.65-3.66-13.21-9.57-18.75-5.54
			c-3.93,2.81-3.58,8.73-3.46,13.09c0.07,2.02-0.74,247.42-0.57,250.85c0.42,4.2,1.22,7.35,3.16,11.19
			c1.55,3.12,4.34,7.02,6.98,9.31c2.95,2.57,6.54,4.34,10.01,6.23c12.13,6.58-17.81-9.86,84.38,48.82
			c0.58,0.33,15.59,8.98,16.15,9.19c6.93,2.93,11.95-1.38,11.95-9.06c0-0.14,0.41-196.51,0.44-199.07
			C305.29,156.38,305.54,146.38,305.41,136.44z M225.51,55.15c0-0.5,0.08-0.92,0.5-1.14c0.18-0.18,0.52-0.14,0.76-0.06
			c0.11,0,0.3,0.06,0.43,0.19c3.72,2.23,23.63,13.49,24.11,13.97c0.4,0.4,0.69,0.57,1.01,1.51c0.35,0.53,0.24,1.58,0.24,3.02
			c0,0.13,0,0.32-0.06,0.44c-0.06,0.19-0.06,0.32-0.18,0.38c-0.06,0.13-0.13,0.19-0.25,0.25c-0.83,0.42,0.61,0.97-24.86-13.72
			c-0.19-0.13-0.32-0.25-0.43-0.38c-0.32-0.2-0.67-0.66-0.76-0.95C225.37,57.7,225.51,57.09,225.51,55.15z"/>
		<path fill="#344E5D" d="M227.52,54.33c25.26,14.57,24.21,13.55,24.79,15.29c0.13,0.19,0.19,0.38,0.19,0.57
			c0.09,0.27,0.06,0.47,0.06,2.08c-25.74-14.89-23.41-13.47-23.97-14.03c-0.59-0.59-1.07-1.52-1.07-2.45V54.33z"/>
		<path fill="#596572" d="M226.76,53.95c0.13,0,0.31,0.06,0.44,0.19l0.31,0.19c0,1.76-0.03,1.72,0.13,2.33
			c0.33,1,0.99,1.75,1.64,2.14l23.28,13.46c0,0.38,0.02,0.66-0.06,0.82c-0.06,0.19-0.06,0.31-0.19,0.38
			c-0.06,0.13-0.13,0.19-0.25,0.25c-0.32,0.16-0.2,0.13-0.75,0.13c-0.13-0.06-0.31-0.13-0.44-0.19
			c-24.17-13.95-24.48-13.85-24.85-14.97c-0.66-1-0.5-1.75-0.5-3.52c0-0.31,0.02-0.54,0.19-0.88
			C226.04,53.92,226.29,53.79,226.76,53.95z"/>
		<path fill="#6C6C6C" d="M186.69,22.56c-4.76-2.79-9.01-2.84-12.08-1.26c18.61-10.5,18.26-10.9,20.76-11.2
			c3.71-0.42,6.11,0.56,9.19,2.2l104.69,60.46c8.76,4.92,17.18,18.14,17.18,29.82c-0.61,272.01-0.47,255.06-0.76,257.65
			c-0.45,2.97-2.23,6.43-4.84,7.93c-22.48,12.81-17.29,10.18-16.23,9.12c2.45-2.39,3.4-6.61,3.46-10l0.5-254.44
			c0-10.68-7.24-24.01-17.18-29.82L186.69,22.56z"/>
		<path fill="#8C8C8C" d="M291.38,83.02l-104.7-60.46c-7.45-4.37-12.02-1.2-12.14-1.2c-3.63,1.61-5.1,6.98-5.1,11.14
			c-0.63,308.02-0.5,245.91-0.5,254.44c0,10.58,6.99,23.75,17.11,29.82l104.76,60.46c8.87,5.2,17.02,1.69,17.24-9.94l0.5-254.44
			C308.56,102.22,301.37,88.87,291.38,83.02z M305.22,166.32c-0.18,12.93,0.1-28.24-0.44,199.07c0,7.79-5.09,11.95-11.95,9.06
			c-1.34-0.55-84.2-48.4-85.44-49.14c-5.03-3.02-9.88-6.04-15.1-8.87c-3.46-1.89-7.05-3.65-10-6.23c-2.63-2.29-5.42-6.19-6.98-9.31
			c-1.93-3.85-2.74-7-3.15-11.2c-0.15-3.16,0.03-1.81,0.06-13l0,0c0-148.45,0.49-198.84,0.44-209.66
			c-0.26-23.17,0.27-21.86,0.06-28.19c-0.1-3.53-0.36-7.38,1.32-10.57c1.19-2.11,2.8-3.22,4.4-3.59c4.96-1.65,12.11,3.78,16.48,6.61
			c4.59,2.96,9.56,5.47,14.41,8.12c11.49,6.21,19.37,11.53,45.93,26.55c28.09,16.02,24.65,14.3,31.65,18.25
			c4.89,2.63,8.12,4.5,11.7,9.06c2.36,3.1,3.75,5.73,4.91,8.62c2.1,5.78,1.9,8.78,1.76,14.72c-0.13,6.67,0.06,13.21,0.13,19.82
			C305.54,146.38,305.29,156.38,305.22,166.32z"/>
	</g>
	<g>
		<path fill="#A5AFB4" d="M384.08,176.16c-4.1,2.36-8.21,4.74-12.31,7.1c2.07-1.29,3.34-3.93,3.34-7.64c0-6.91,0-13.83,0-20.74
			c0-7.62-5.35-16.89-11.95-20.7c-10.14-5.86-20.29-11.71-30.43-17.57c-3.24-1.86-6.17-2.08-8.32-0.91
			c4.11-2.38,8.22-4.75,12.34-7.13c2.16-1.25,5.15-1.07,8.45,0.84c10.14,5.86,20.28,11.71,30.43,17.57
			c6.6,3.81,11.95,13.08,11.95,20.7c0,6.91,0,13.82,0,20.74C387.59,172.23,386.25,174.91,384.08,176.16z"/>
		<path fill="#009BFF" d="M375.02,156.59c-0.02,5.61-0.03,11.14-0.05,16.76c1.16,9.36-4.68,13.29-11.81,9.17
			c-8.64-4.98-17.28-9.97-25.91-14.96c-2.89-1.67-6.32-2.09-9.53-1.18l-6.94,1.98c0-5.41,0-39.39,0-44.85
			c0-7.6,5.34-10.72,11.95-6.9c10.14,5.86,20.29,11.71,30.43,17.57C370.26,138.28,375.92,148.7,375.02,156.59z"/>
		<g>
			<path fill="#FAFFFF" d="M339.1,134.94c-0.89-0.51-1.61-0.21-1.61,0.68v14.48c0,0.89,0.72,2.03,1.61,2.54l17.7,10.22
				c0.89,0.51,1.61,0.21,1.61-0.68v-12.87c0-0.89-0.72-2.02-1.61-2.54l-11.91-6.88l-0.5-1.12c-0.29-0.65-0.81-1.25-1.38-1.58
				L339.1,134.94z M347.95,144.88c2.66,1.54,4.83,4.95,4.83,7.62c0,2.66-2.16,3.58-4.83,2.04c-2.66-1.54-4.83-4.95-4.83-7.62
				C343.12,144.25,345.28,143.34,347.95,144.88L347.95,144.88z M347.95,146.49c-0.44-0.26-0.8-0.1-0.8,0.34v1.61l-1.61-0.93
				c-0.44-0.26-0.8-0.1-0.8,0.34c0,0.44,0.36,1.01,0.8,1.27l1.61,0.93v1.61c0,0.44,0.36,1.01,0.8,1.27c0.44,0.26,0.8,0.1,0.8-0.34
				v-1.61l1.61,0.93c0.44,0.26,0.8,0.1,0.8-0.34c0-0.44-0.36-1.01-0.8-1.27l-1.61-0.93v-1.61
				C348.75,147.31,348.39,146.74,347.95,146.49L347.95,146.49z"/>
		</g>
	</g>
	<g>
		<g>
			<path opacity="0.69" fill="#FBFBFB" d="M207.64,222.11l-18.62-10.75c-2.28-1.32-4.13-4.24-4.13-6.52l0,0
				c0-2.28,1.85-3.06,4.13-1.75l18.62,10.75c2.28,1.32,4.13,4.24,4.13,6.52l0,0C211.78,222.65,209.93,223.43,207.64,222.11z"/>
			<path opacity="0.69" fill="#FBFBFB" d="M207.64,233.72l-18.62-10.75c-2.28-1.32-4.13-4.24-4.13-6.52l0,0
				c0-2.28,1.85-3.06,4.13-1.75l18.62,10.75c2.28,1.32,4.13,4.24,4.13,6.52l0,0C211.78,234.26,209.93,235.04,207.64,233.72z"/>
		</g>
		<path opacity="0.69" fill="#FBFBFB" d="M283.55,247.16l-90.38-52.18c-4.7-2.71-8.51-8.72-8.51-13.42l0,0c0-4.7,3.81-6.31,8.51-3.6
			l90.38,52.18c4.7,2.71,8.51,8.72,8.51,13.42l0,0C292.06,248.26,288.25,249.87,283.55,247.16z"/>
	</g>
	<g>
		<g>
			<path opacity="0.69" fill="#FBFBFB" d="M207.64,279.86l-18.62-10.75c-2.28-1.32-4.13-4.24-4.13-6.52l0,0
				c0-2.28,1.85-3.06,4.13-1.75l18.62,10.75c2.28,1.32,4.13,4.24,4.13,6.52l0,0C211.78,280.39,209.93,281.17,207.64,279.86z"/>
			<path opacity="0.69" fill="#FBFBFB" d="M207.64,291.47l-18.62-10.75c-2.28-1.32-4.13-4.24-4.13-6.52l0,0
				c0-2.28,1.85-3.06,4.13-1.75l18.62,10.75c2.28,1.32,4.13,4.24,4.13,6.52l0,0C211.78,292,209.93,292.78,207.64,291.47z"/>
		</g>
		<path opacity="0.69" fill="#FBFBFB" d="M283.55,304.9l-90.38-52.18c-4.7-2.71-8.51-8.72-8.51-13.42l0,0c0-4.7,3.81-6.31,8.51-3.6
			l90.38,52.18c4.7,2.71,8.51,8.72,8.51,13.42l0,0C292.06,306.01,288.25,307.62,283.55,304.9z"/>
	</g>
	<g>
		<g>
			<path fill="#AF8EFF" d="M277.84,436.79c-13.87-2.15-13.46-1.97-13.86-2.3c-0.27-0.23-0.37-0.57-0.46-0.9
				c-0.46-1.72-0.49-2.37-0.49-4.32c0-6.91,1.99-14.93,3.41-17.67c0.23-0.44,0.49-0.86,0.81-1.28c0.27-0.36,0.54-0.64,0.99-0.58
				v-0.01c15.75,2.43,13.57,2.09,13.78,2.13c6.2,0.96,10.71,6.29,10.71,12.49C292.72,432.52,285.11,438.25,277.84,436.79z"/>
			<path fill="#923EFF" d="M254.74,407.63c4.5,0.7,8.99,1.39,13.48,2.09v0.01c-0.45-0.06-0.72,0.23-0.99,0.58
				c-0.32,0.42-0.58,0.84-0.81,1.28c-1.41,2.74-3.41,10.76-3.41,17.67c0,1.95,0.03,2.6,0.49,4.32c0.09,0.33,0.19,0.68,0.46,0.9
				c0.11,0.09,0.25,0.17,0.39,0.2c0,0.05-13.74-2.1-13.78-2.11c-6.25-0.96-10.71-6.34-10.71-12.49
				C239.87,412.15,247.08,406.25,254.74,407.63z"/>
			<path fill="#B4A8C3" d="M290.67,417.55c2.02,2.17,2.5,6.21,1.84,9.59c0.38,0.15,0.77,0.34,1.19,0.45
				c7.33,1.85,11.47,6.82,5.18,11.04c-2.09,1.41-4.48,2.07-6.93,2.51c-3.61,0.64-7.2,0.41-10.8-0.19
				c-7.87-1.32-20.82-3.08-28.9-4.68c-2.39-0.47-4.58-1.54-6.3-3.37c-0.27-0.29-0.63-0.58-0.74-0.94c-0.44-1.52-1.38-2.71-2.41-3.97
				c0.47,0.07,0.94,0.17,1.42,0.19c0.8,0.03,1.67,0.2,2.41-0.03c2.26-0.72,4.45-0.1,6.64,0.22c21.2,3.12,22.84,3.92,24.48,3.32
				c4.67-1.71,8.48-4.57,11.32-8.67C290.14,421.46,290.79,419.76,290.67,417.55z"/>
		</g>
		<g>
			<path fill="#FFBA00" d="M308.2,422.77v0.01c0.15-0.04,0.32-0.03,0.47,0.03c0.28,0.1,0.48,0.34,0.65,0.58
				c0.31,0.42,0.58,0.84,0.8,1.29c1.4,2.72,3.39,10.75,3.39,17.62c0,1.94-0.03,2.6-0.49,4.31c-0.09,0.33-0.18,0.67-0.45,0.9
				c-0.15,0.14-0.35,0.24-0.54,0.24v0.02c-4.48,0.69-8.95,1.39-13.43,2.08c-4.9,0.98-10.76-1.48-13.43-6.74
				c-3.96-7.8,1.04-16.97,9.35-18.21C294.6,424.87,294.36,424.93,308.2,422.77z"/>
			<path fill="#FFA300" d="M325.8,445.64c-4.58,0.71-9.17,1.42-13.76,2.13v-0.02c0.19,0,0.39-0.1,0.54-0.24
				c0.27-0.23,0.36-0.57,0.45-0.9c0.46-1.7,0.49-2.36,0.49-4.31c0-6.88-1.98-14.9-3.39-17.62c-0.23-0.45-0.49-0.87-0.8-1.29
				c-0.18-0.24-0.37-0.48-0.65-0.58c-0.15-0.06-0.32-0.07-0.47-0.03v-0.01c20.31-3.12,11.7-1.87,13.89-2.15
				c5.32-0.82,10.7,1.83,13.21,6.78C339.25,435.2,334.26,444.47,325.8,445.64z"/>
			<path fill="#B4A8C3" d="M334.88,426.77c1.7,3.01,2.14,6.08,1.41,9.45c2.72,0.81,5.26,1.43,7.46,3.35
				c2.54,2.21,2.57,5.02-0.02,7.17c-2.41,2-5.29,2.89-8.32,3.36c-33.24,5.21-28.02,4.63-36.12,4.35c-0.67-0.02-8.2-0.95-9.97-5
				c-0.52-1.41-1.25-2.64-2.67-3.62c0.42-0.16,0.57-0.28,0.68-0.25c2.95,0.7,5.65-0.16,8.3-1.32c0.52-0.23,1.07-0.44,1.52-0.78
				c1.8-1.37,3.92-1.71,6.08-2.03c9.85-1.46,21.02-3.32,22.16-3.4c1.32-0.09,2.38-0.64,3.37-1.49
				C333.77,432.26,333.74,430.37,334.88,426.77z"/>
		</g>
		<g>
			<path fill="#F14290" d="M255.05,465.36c-14.3-8.25-8.98-5.21-10.22-5.9c-2.01-1.25-2.63-3.98-2.46-6.54
				c0.59-8.88,9.63-18.32,15.14-15.35c0.06,0.03,0.11,0.06,0.16,0.09c3.25,1.88,6.5,3.75,9.75,5.63c3.95,2.13,6.6,6.37,6.6,11.11
				C274.02,464.1,263.5,470.23,255.05,465.36z"/>
			<path fill="#FF74B8" d="M234.87,453.71c-3.78-2.19-6.32-6.3-6.32-10.95c0-9.74,10.69-16.02,19.34-10.73
				c3.2,1.84,6.41,3.7,9.61,5.55c-1.16-0.63-2.53-0.67-3.9-0.3c-5.24,1.38-10.78,8.8-11.24,15.65c-0.17,2.55,0.45,5.29,2.46,6.54
				C241.51,457.54,238.2,455.62,234.87,453.71z"/>
			<path fill="#B4A8C3" d="M232.17,450.98c0.39,0.17,0.8,0.3,1.16,0.51c5.9,3.39,11.84,6.7,17.65,10.23
				c2.16,1.31,4.26,1.49,6.53,0.86c5.21-1.43,9.38-4.4,12.59-8.71c1.18-1.58,1.84-3.4,2.06-5.62c0.33,0.41,0.58,0.61,0.7,0.87
				c2.48,5.65-0.05,6.86,2,7.98c5.14,2.8,10.85,5.82,7.13,10.26c-1.22,1.45-2.82,2.36-4.55,2.97c-6.16,2.14-12.33,2.17-18.42-0.27
				c-1.26-0.51-2.44-1.24-3.63-1.92c-19.87-11.43-17.89-10.28-20.3-12.1c-1.39-1.05-1.22-3.64-3.38-4.6
				C231.87,451.28,232.02,451.13,232.17,450.98z"/>
		</g>
		<g>
			<path fill="#AF8EFF" d="M281.39,456.8c3.22-3.47,8.72-2.47,12.76,0.2c4.12,2.73,7.33,7.56,7.33,12.19c0,2.23-0.77,4.04-2.01,5.28
				l0.01,0.01c-2.38,2.38-4.76,4.76-7.14,7.14l-0.01-0.01c-3.35,3.36-8.4,4.62-13.03,3.03c-8.95-3.05-11.41-14.42-4.81-20.95
				C276.79,461.39,279.08,459.09,281.39,456.8L281.39,456.8z"/>
			<path fill="#923EFF" d="M288.63,449.55c3.71-3.71,8.8-4.59,13.12-3.12c8.89,3.04,11.43,14.34,4.86,20.91
				c-2.37,2.37-4.75,4.75-7.12,7.13l-0.01-0.01c1.23-1.24,2.01-3.05,2.01-5.28c0-4.63-3.2-9.46-7.33-12.19
				c-4.03-2.66-9.54-3.67-12.76-0.2l-0.01-0.01C283.8,454.38,286.21,451.96,288.63,449.55z"/>
			<path fill="#B4A8C3" d="M273.53,480.63c4.96,1.12,8.83-0.59,12.49-2.97c2.66-1.73,4.91-3.89,6.6-6.62
				c0.3-0.48,0.69-0.91,1.09-1.31c4.12-4.13,8.21-8.29,12.39-12.36c1.36-1.32,2.1-2.8,2.09-4.68c0-0.2,0.06-0.4,0.15-0.99
				c2.11,3.18,2.29,6.31,1.68,9.67c0.41,0.14,0.76,0.29,1.13,0.39c2.44,0.67,4.81,1.45,6.66,3.31c2.03,2.04,2.12,4.4,0.05,6.44
				c-4.84,4.78-9.63,9.62-14.45,14.42c-1.41,1.41-3.14,2.27-5.02,2.83c-6.06,1.79-12.05,1.77-17.9-0.79
				c-1.22-0.54-2.26-1.51-3.37-2.3c-0.18-0.13-0.36-0.31-0.45-0.51c-0.39-0.82-0.65-1.72-1.14-2.46
				C275.08,482.01,274.39,481.49,273.53,480.63z"/>
		</g>
	</g>
	<path opacity="0.69" fill="#FBFBFB" d="M278.8,214.97l-51.71-29.85c-5.67-3.27-10.27-10.52-10.27-16.19V99.86
		c0-5.67,4.6-7.61,10.27-4.34l51.71,29.85c5.67,3.27,10.27,10.52,10.27,16.19v69.06C289.06,216.3,284.47,218.24,278.8,214.97z"/>
	<path opacity="0.69" fill="#FBFBFB" d="M201.11,141.96l-6.3-3.64c-5.39-3.11-9.75-10-9.75-15.38v-12.5c0-5.39,4.37-7.23,9.75-4.12
		l6.3,3.64c5.39,3.11,9.75,10,9.75,15.38v12.5C210.86,143.23,206.49,145.07,201.11,141.96z"/>
	<g>
		<g>
			<g>
				<g>
					<polygon fill="#0093E5" points="227.15,286.57 232.34,390.7 209.18,396.3 209.18,289.16 					"/>
					<path fill="#50C1FF" d="M227.15,286.57l-17.97,2.59l-4.5,10.37l-29.71-17.16c0.13-0.64,0.26-1.29,0.38-1.93
						c0.27,0.15,27.71,16,27.9,16.11c1.25-2.88,2.5-5.77,3.75-8.65c1.42-0.21,7.67-1.11,14.99-2.17c-3.43-1.98-6.86-3.96-10.29-5.94
						l1.08-1.53C216.76,280.57,213.68,278.79,227.15,286.57z"/>
					<path fill="#0093E5" d="M211.71,279.8c3.43,1.98,6.86,3.96,10.29,5.94c-7.32,1.06-13.56,1.96-14.99,2.17l-0.68-0.47
						L211.71,279.8z"/>
					<path fill="#6C6C6C" d="M187.88,200.38c9.7,5.66,19.59,17.8,22.25,27.49c11.01,40.26,10.2,37.13,10.2,37.31
						c1.35,4.86-1.17,10.96-4.64,14.77l-2.91-1.68l2.61-3.71c1.05-1.5,0.55-3.95-0.28-5.71l0.01,0c0.07-0.69,0.07-1.49-0.11-2.16
						c0-0.25-10.2-37.13-10.2-37.31c-2.15-7.93-10.9-19.05-19.68-24.2c-1.86-1.1-1.99-1.17-5.5-3.21c-1.91-1.11-4.79-2.48-6.99-2.41
						c-1.2,0.04-1.62,0.46-1.86,1.11c-0.48,1.29-0.14,3.26,0.21,4.58c0.94,3.52,1.88,7.04,2.83,10.56
						c-1.63-1.68-3.44-3.12-5.41-4.23h0c-0.44-0.25-0.86-0.49-1.3-0.74c-0.01,0-0.01-0.01-0.02-0.01c-0.13-0.08-0.27-0.16-0.4-0.24
						c-0.35-1.28-0.69-2.56-1.03-3.85c0-0.22-2.32-7.11,1.85-10.85c3.96-3.55,10.26-1.4,14.86,1.29c4.85,2.83,3.83,2.23,5.49,3.21
						C187.86,200.37,187.87,200.37,187.88,200.38C187.87,200.38,187.88,200.38,187.88,200.38z"/>
					<polygon fill="#50C1FF" points="209.18,289.16 209.18,396.3 199.49,409.67 204.69,299.54 					"/>
					<path fill="#0093E5" d="M207.01,287.91c-1.25,2.88-2.5,5.77-3.75,8.65c-0.79-0.46-1.58-0.92-2.38-1.37l5.45-7.75L207.01,287.91
						z"/>
					<path fill="#E8E6FF" d="M201.01,273.4c0.19,3.84-1.94,6.31-5.52,5.09c-4.05-1.38-7.99-7.08-8.24-12.09
						c-0.19-3.84,1.94-6.31,5.52-5.09C196.83,262.69,200.76,268.4,201.01,273.4z"/>
					<path fill="#BCA4EA" d="M189.77,258.78c0.69-0.4,1.37-0.79,2.06-1.19c5.65-3.21,15.09,7.65,14.2,16.13
						c-0.19,1.79-0.92,3.57-2.51,4.41l0,0c-0.64,0.37-1.28,0.74-1.91,1.1c1.45-0.91,2.1-2.54,2.29-4.26
						C204.78,266.5,195.46,255.76,189.77,258.78z"/>
					<path fill="#50C1FF" d="M187.11,279.88c2.49,3.1,3.57,6.73,3.43,9.34c-4.59-2.65-9.18-5.3-13.76-7.95
						C176.46,274.79,182.35,273.98,187.11,279.88z"/>
					<path fill="#BCA4EA" d="M195.79,279.41c-8.24-3.38-12.47-17.41-6.02-20.64c5.67-3.01,15.01,7.72,14.12,16.19
						C203.39,279.68,199.51,280.94,195.79,279.41z M187.25,266.4c0.25,5.01,4.19,10.71,8.24,12.09c3.58,1.22,5.72-1.25,5.52-5.09
						c-0.25-5-4.18-10.71-8.24-12.09C189.19,260.09,187.06,262.56,187.25,266.4z"/>
					<path fill="#BCA4EA" d="M182.81,242.15c2.06,3.1,3.6,7.34,3,10.93c-0.57,3.43-3.01,4.83-5.9,4.5h0
						c0.09-0.43,0.17-0.86,0.26-1.3c1.06-0.28,1.83-1.01,2.3-2c1.03-2.16,0.48-5.19-0.42-7.44h0
						C182.41,245.04,182.65,243.95,182.81,242.15z"/>
					<path fill="#BCA4EA" d="M185.49,255.73L185.49,255.73c-0.63,0.37-1.26,0.73-1.9,1.1c1.03-0.63,1.9-1.83,2.22-3.76
						c0.6-3.59-0.94-7.83-3-10.93c0,0,0,0,0,0c0.12-1.25,0.16-2.51,0.12-3.78c3.07,3.23,5.56,8.5,5.08,12.97
						C187.83,253.14,187.08,254.9,185.49,255.73z"/>
					<path fill="#FFFFFF" d="M184.91,342.12c-0.25,5.28-0.5,10.56-0.75,15.83c-6.07-3.51-12.15-7.01-18.22-10.52
						c-0.34,7.21-0.68,14.42-1.02,21.63c-4.45-2.57-8.89-5.14-13.34-7.7c0.34-7.21,0.68-14.42,1.02-21.63
						c-6.08-3.51-12.15-7.01-18.22-10.52c0.25-5.28,0.5-10.56,0.75-15.83c6.07,3.51,12.15,7.01,18.22,10.52
						c0.34-7.21,0.68-14.42,1.02-21.63c4.44,2.57,8.89,5.14,13.34,7.7c-0.34,7.21-0.68,14.42-1.02,21.63
						C172.76,335.11,178.83,338.62,184.91,342.12z"/>
					<path fill="#FFFFFF" d="M176.76,292.54c0.66-0.34,1.32-0.68,1.98-1.01c0.62-0.32,1.4-0.33,2.09-0.17
						c3.48,0.83,6.79,6.9,5.35,10.42c-0.27,0.67-0.73,1.29-1.36,1.61c-0.66,0.34-1.32,0.68-1.98,1.02l-0.01-0.01
						c3.38-1.75,1.34-9.14-2.8-11.52C178.81,292.16,177.65,292.08,176.76,292.54L176.76,292.54z"/>
					<path fill="#FF519F" d="M182.94,299.97c0.02,0.56-0.06,1.09-0.3,1.59h0c-0.42-0.07-0.91-0.26-1.43-0.65
						C181.78,300.6,182.36,300.28,182.94,299.97z"/>
					<path fill="#E8E6FF" d="M182.05,246.84c0.9,2.26,1.45,5.28,0.42,7.44c-0.47,0.99-1.24,1.72-2.3,2
						C180.79,253.13,181.42,249.99,182.05,246.84L182.05,246.84z"/>
					<path fill="#FFFFFF" d="M182.63,301.56c-0.52,1.07-1.8,1.52-3.37,0.4c0.65-0.35,1.29-0.7,1.94-1.04
						C181.73,301.29,182.22,301.49,182.63,301.56z"/>
					<path fill="#FFFFFF" d="M178.38,294.35c-1.3,0.15-1.79,1.43-1.72,2.72c-0.46,0.25-0.93,0.5-1.39,0.75
						c0-0.2-0.26-0.88-0.19-2.15c0.18-3.06,2.42-4.26,4.96-2.8c3.94,2.26,5.69,8.54,3.57,10.92c-1.57,1.77-4.07,0.69-5.76-1.08
						c0.47-0.25,0.94-0.5,1.4-0.76c1.55,1.11,2.84,0.68,3.37-0.4h0C183.94,298.85,180.95,294.04,178.38,294.35z"/>
					<path fill="#BCA4EA" d="M181.33,272.49c0.67-0.44,1.82-0.62,2.76-0.54c5.43,0.48,11.68,8.93,11.52,15.79
						c-0.03,1.34-0.3,2.72-1.02,3.82c-0.44-0.26-0.89-0.51-1.33-0.77c1.53-6.85-5.26-17.05-11.3-17.61
						c-0.94-0.08-1.94,0.06-2.75,0.52C179.92,273.31,180.63,272.9,181.33,272.49z"/>
					<path fill="#BCA4EA" d="M181.25,228.57c-1.23-3.87-2.37-5.3-1.44-4.1c37.08,46.13,34.5,42.7,35.29,44.39
						c0.82,1.74,1.34,4.2,0.28,5.71c-4.4,6.26-3.64,5.18-14.5,20.63c-0.18-0.1-0.36-0.2-0.54-0.31l13.77-19.59
						c1.42-2.01,0.1-5.72-1.6-7.84L181.25,228.57z"/>
					<path fill="#FF519F" d="M178.64,296.01c-0.02-1.22,0.31-1.5,0.31-1.64c0.51,0.09,1.02,0.35,1.47,0.69
						C179.82,295.37,179.23,295.69,178.64,296.01z"/>
					<path fill="#E8E6FF" d="M177.39,240.41L177.39,240.41c-0.13,2.92-0.6,4.51-2.52,14.19h0c-4.38-3.47-6.39-9.62-5.37-13.12
						C170.43,238.27,173.71,237.48,177.39,240.41z"/>
					<path fill="#FFFFFF" d="M178.64,296.01c-0.66,0.36-1.32,0.71-1.97,1.07c-0.09-1.63,0.72-2.94,2.28-2.71
						C178.95,294.51,178.62,294.79,178.64,296.01z"/>
					<path fill="#BCA4EA" d="M182.66,276.33c-3.53-1.44-6.08,0.71-5.87,4.94c-0.19-0.11-0.38-0.22-0.58-0.33
						c-0.23-2.82,0.55-5.85,3-7.22c0,0,0.01-0.01,0.01-0.01c0.81-0.46,1.81-0.61,2.75-0.52c6.05,0.56,12.84,10.77,11.3,17.61
						c-0.91-0.53-1.82-1.05-2.72-1.57C190.8,284.32,186.98,278.1,182.66,276.33z"/>
					<path fill="#D3C6F6" d="M186.64,265.45c0.28,8.76,9.49,17.43,14.97,13.78c0.64-0.37,1.28-0.74,1.91-1.1l0,0
						c1.59-0.84,2.33-2.61,2.51-4.41c0.9-8.62-8.65-19.29-14.2-16.13c-0.33,0.19-2.01,1.16-2.14,1.24
						C187.39,260.18,186.55,262.8,186.64,265.45z M176.21,280.94c-0.28-0.16-0.56-0.33-0.85-0.49c1.52-7.62,3.04-15.25,4.55-22.88h0
						c2.38,0.27,3.49-0.63,5.58-1.84l0,0c4.52-2.35,2.79-11.75-2.55-17.37c-0.09-3.31-0.67-6.63-1.68-9.8l31.26,38.89
						c1.69,2.1,3.02,5.83,1.6,7.84l-13.77,19.59c-1.91-1.11-3.83-2.21-5.75-3.32c0.72-1.11,0.99-2.48,1.02-3.82
						c0.16-6.96-6.17-15.31-11.52-15.79c-0.78-0.07-2.01,0.03-2.76,0.54c-0.7,0.41-1.41,0.82-2.12,1.22c0,0-0.01,0.01-0.01,0.01
						C176.76,275.09,175.97,278.12,176.21,280.94z"/>
					<path fill="#009BFF" d="M136.09,274.8c-0.01,0.01-0.03,0.01-0.04,0.02c-0.91,0.46-1.41,0.5-1.64,0.51
						c-0.55,0.02-0.88-0.17-1.14-0.85c-0.4-1.03-0.29-2.46-0.06-3.55c0.77-3.77,1.54-7.54,2.32-11.32l34.4,19.86
						c-3.03,15.24-2.69,13.34-2.69,13.52c-1.69,8.57,4.21,13.18,10.6,9.74h0c0.01-0.01,0.02-0.01,0.03-0.02
						c1.3,1.37,3.31,2.56,4.98,1.68l0.01,0.01c0.66-0.34,1.32-0.68,1.98-1.02c0.62-0.32,1.09-0.94,1.36-1.61
						c1.44-3.53-1.87-9.6-5.35-10.42c-0.7-0.17-1.47-0.15-2.09,0.17c-0.66,0.34-1.32,0.68-1.98,1.01l0,0
						c-0.94,0.48-1.58,1.57-1.67,3.14c-0.07,1.31,0.19,1.97,0.19,2.15c0,0,0,0-0.01,0c-1.05,0.53-1.62,0.59-1.97,0.46
						c-0.52-0.19-0.74-1.19-0.8-1.75c-0.17-1.59-0.03-1.56,2.47-14.16l29.71,17.16l-5.19,110.13l-87.08-50.27l5.19-110.13
						l12.86,7.43h0c-0.9,4.4-1.8,8.81-2.7,13.21c-1.73,8.51,4.19,13.2,10.7,9.89h0c0.06-0.03,0.07-0.04,0.15-0.07
						c1.78,1.93,3.72,2.47,5.07,1.79v0c0.18-0.09,1.8-0.94,1.98-1.02c0.83-0.42,1.59-1.46,1.67-3.21c0.2-4.14-3.2-8.58-6.14-8.91
						c-0.55-0.06-1.13,0.01-1.62,0.26c-2.24,1.15-1.96,1-1.98,1.02C135.9,270.5,135.69,272.88,136.09,274.8z M184.16,357.96
						c0.25-5.28,0.5-10.55,0.75-15.83c-6.07-3.51-12.15-7.01-18.22-10.52c0.34-7.21,0.68-14.42,1.02-21.63
						c-4.45-2.57-8.9-5.14-13.34-7.7c-0.34,7.21-0.68,14.42-1.02,21.63c-6.08-3.51-12.15-7.01-18.22-10.52
						c-0.25,5.28-0.5,10.55-0.75,15.83c6.07,3.51,12.15,7.01,18.22,10.52c-0.34,7.21-0.68,14.42-1.02,21.63
						c4.45,2.57,8.89,5.14,13.34,7.7c0.34-7.21,0.68-14.42,1.02-21.63C172.01,350.95,178.09,354.45,184.16,357.96z"/>
					<path fill="#BCA4EA" d="M177.32,236.86c-1.77-0.96-3.91-1.43-5.64-0.44c0.69-0.4,1.39-0.8,2.08-1.2
						c1.57-0.89,3.11-0.48,3.3-0.48C177.17,235.44,177.26,236.15,177.32,236.86L177.32,236.86z"/>
					<path fill="#D3C6F6" d="M150.71,266.22c-1.93-1.11-3.85-2.22-5.77-3.33c18.16-25.83,27.82-39.53,27.82-39.54
						c2.13,3.32,3.65,7.29,4.3,11.39h0c-2.22-0.42-3.16,0.4-5.38,1.68h0c-1.22,0.69-2.28,1.99-2.76,3.84
						c-1.29,4.92,1.76,11.48,5.84,14.88c-0.05,0.28-0.11,0.55-0.17,0.83c-1.86-2.87-5.19-6.11-8.5-6.42
						c-0.94-0.08-1.94,0.06-2.74,0.53c-0.01,0.01-2.15,1.24-2.28,1.32c-1.58,0.98-2.82,2.89-2.91,5.82
						c-0.13,3.93,1.81,8.2,4.47,11.2l-0.21,0.19c-1.71-1.93-4.29-3.94-6.82-4.16c-1.17-0.1-2.24,0.2-2.77,0.56
						C151.31,265.88,150.74,266.21,150.71,266.22z"/>
					<path fill="#E8E6FF" d="M172.55,266.24c-0.2,1.01-0.4,2.02-0.6,3.04c-1.11,2.23-3.48,2.48-5.77,1.35
						c-6.62-3.27-10.15-14.98-4.85-16.93C165.81,252.03,172.46,259.66,172.55,266.24z"/>
					<path fill="#50C1FF" d="M170.3,277.54c-0.13,0.64-0.26,1.29-0.38,1.93l-34.4-19.86c0.13-0.64,0.26-1.29,0.39-1.93
						c0.6,0.35,1.2,0.7,1.81,1.04v0c1.58,0.91,3.16,1.82,4.74,2.73v0C144.24,262.49,170.24,277.5,170.3,277.54z"/>
					<path fill="#BCA4EA" d="M174.76,255.14c-4.08-3.41-7.13-9.96-5.84-14.88c0.48-1.85,1.54-3.15,2.76-3.84h0
						c2.57-1.48,5.46,0.44,5.64,0.44c0.1,1.18,0.13,2.37,0.07,3.55h0c-3.71-2.95-6.97-2.1-7.9,1.08c-1.03,3.54,1.05,9.69,5.37,13.12
						h0C174.83,254.78,174.8,254.96,174.76,255.14z"/>
					<path fill="#D3C6F6" d="M162.63,268.41c2.5,2.81,5.7,4.57,8.69,4c-0.34,1.71-0.68,3.42-1.02,5.13
						c-1.35-0.78-2.69-1.55-4.04-2.33c-0.79-2.29-2.07-4.56-3.85-6.6L162.63,268.41z"/>
					<path fill="#BCA4EA" d="M166.09,249.55c3.33,0.3,6.66,3.58,8.5,6.42c-0.25,1.25-0.5,2.5-0.74,3.75
						c-0.69-1.48-1.56-2.88-2.56-4.11c-1.75-2.18-4.56-4.56-7.33-4.81c-0.94-0.09-1.95,0.06-2.75,0.52
						C163.31,250.1,164.13,249.38,166.09,249.55z"/>
					<path fill="#BCA4EA" d="M166.18,270.63c2.29,1.13,4.66,0.88,5.77-1.35c-0.21,1.04-0.42,2.09-0.62,3.13
						c-4.18,0.8-8.31-2.87-10.6-6.57l0.32-0.2C162.38,267.81,164.19,269.65,166.18,270.63z"/>
					<path fill="#BCA4EA" d="M161.05,265.65l-0.32,0.2c-1.64-2.66-2.66-5.76-2.56-8.63c0.12-3.6,2.21-6.75,5.8-6.42
						c2.77,0.26,5.58,2.63,7.33,4.81c0.99,1.23,1.86,2.63,2.56,4.11c-0.43,2.18-0.86,4.35-1.3,6.53
						c-0.08-5.52-4.71-11.76-8.97-12.64C158.53,252.56,157.07,259.21,161.05,265.65z"/>
					<path fill="#50C1FF" d="M140.27,236.41l16.56,9.56c-0.36,0.51-0.72,1.02-1.08,1.53c-4.75-2.74-9.5-5.49-14.26-8.23
						c-1.15,2.64-2.29,5.28-3.44,7.92C138.79,243.6,139.53,240,140.27,236.41L140.27,236.41z"/>
					<path fill="#0093E5" d="M141.5,239.27c4.75,2.74,9.5,5.49,14.26,8.23c-1.7,2.42-7.17,10.21-10.81,15.39
						c-0.83-0.48-1.66-0.95-2.48-1.43C142.46,258.46,142.83,270.76,141.5,239.27z"/>
					<path fill="#BCA4EA" d="M152.83,265c0.54-0.36,1.61-0.66,2.77-0.56c2.53,0.22,5.11,2.23,6.82,4.16c1.78,2.04,3.05,4.3,3.85,6.6
						c-1.22-0.71-2.45-1.42-3.68-2.12c-1.84-3.22-5.41-7.01-9-7.39c-0.97-0.11-2.01,0.03-2.84,0.51
						C151.44,265.8,152.14,265.4,152.83,265z"/>
					<path fill="#BCA4EA" d="M150.71,266.22c0.01-0.01,0.02-0.01,0.03-0.02c0.83-0.48,1.87-0.62,2.84-0.51
						c3.55,0.38,7.12,4.09,9,7.39C158.63,270.8,154.67,268.51,150.71,266.22z"/>
					<path fill="#FF519F" d="M143.78,277.07c0.01,0.53-0.06,1.11-0.31,1.59c-0.42-0.07-0.93-0.28-1.47-0.68
						C142.59,277.67,143.19,277.37,143.78,277.07z"/>
					<path fill="#FFFFFF" d="M142,277.98c0.54,0.4,1.04,0.61,1.47,0.68c-0.6,1.21-1.99,1.43-3.45,0.34
						C140.68,278.65,141.34,278.31,142,277.98z"/>
					<path fill="#0093E5" d="M141.5,239.27c0.28,6.62,0.61,14.17,0.96,22.19c-1.58-0.91-3.16-1.82-4.74-2.73
						c0-0.14,0,1.33,0.03-9.98C138.13,246.8,137.56,248.35,141.5,239.27z"/>
					<path fill="#FF519F" d="M141.25,272.15c-0.59,0.3-1.18,0.6-1.77,0.91c-0.01-0.66,0.12-1.19,0.3-1.58
						C140.32,271.55,140.82,271.82,141.25,272.15z"/>
					<path fill="#FFFFFF" d="M139.78,271.47c-0.19,0.39-0.32,0.92-0.3,1.58c-0.66,0.34-1.32,0.68-1.98,1.01
						C137.47,272.51,138.24,271.23,139.78,271.47z"/>
					<path fill="#FFFFFF" d="M143.68,281.5c0.95-0.48,1.6-1.57,1.67-3.21c0.22-4.76-4.42-10.16-7.65-8.71
						c0.62-0.32,1.24-0.64,1.87-0.96c3.05-1.56,8,3.61,7.76,8.66c-0.08,1.72-0.84,2.78-1.67,3.21
						C145.46,280.58,143.88,281.4,143.68,281.5L143.68,281.5z"/>
					<path fill="#0093E5" d="M135.91,257.68c0.61-2.98,1.22-5.96,1.83-8.94c-0.01,3.33-0.02,6.66-0.03,9.98
						C137.12,258.38,136.51,258.03,135.91,257.68z"/>
					<path fill="#FFFFFF" d="M137.5,274.07c-0.47,0.24-0.94,0.48-1.41,0.72c-0.41-1.96-0.17-4.39,1.62-5.22
						c3.23-1.45,7.87,3.96,7.65,8.71c-0.19,4.03-3.76,4.66-6.74,1.42c0.47-0.24,0.94-0.49,1.41-0.72c2.01,1.51,3.82,0.48,3.75-1.92
						c-0.05-3.06-3.02-6.41-5.08-5.48C138.05,271.88,137.48,272.67,137.5,274.07z"/>
					<path fill="#6C6C6C" d="M180.41,295.05c-6.08,3.29-3.82,2.07-5.14,2.78c0,0,0,0-0.01,0c-1.05,0.53-1.62,0.59-1.97,0.46
						c-0.52-0.19-0.74-1.19-0.8-1.75c-0.19-1.73-0.31-0.14,7.41-38.96c0.04-0.18,3.12-15.21,2.9-15.43
						c1.08-11.48-4.45-24.95-14.4-30.59h0c-1.99-1.13-0.53-0.29-5.42-3.2c-10.83-6.46-22.56-0.51-25.34,13.26
						c-0.97,4.72-8.42,41.18-9.88,48.29c-1.73,8.51,4.19,13.2,10.7,9.89h0c0.19-0.1,5.1-2.61,5.31-2.72
						c-0.03-1.95-1.22-3.91-2.52-4.92c-5.41,2.76-5.88,3.14-6.85,3.17c-0.55,0.02-0.88-0.17-1.14-0.85
						c-0.4-1.03-0.29-2.46-0.06-3.55c1.79-8.73,4.73-23.1,7.06-34.51h0c0.94-4.59,1.88-9.19,2.82-13.78h0
						c1.97-9.56,9.29-14.22,17.15-9.48c0.18,0.18,5.34,3.16,5.52,3.26h0c7.54,4.33,12.05,14.89,11.64,24
						c-0.1,2.32-0.09,2.01-2.64,14.74c-2.11,10.87-7.53,37.64-7.53,37.84c-1.69,8.57,4.21,13.18,10.6,9.74h0
						c0.21-0.14,4.92-2.66,5.1-2.76C182.9,298.18,181.9,296.16,180.41,295.05z"/>
					<path fill="#50C1FF" d="M132.43,247.12c-0.11,0.54-0.22,1.08-0.33,1.61c-3.11,0.45-6.23,0.9-9.34,1.35
						c2.7,1.56,5.41,3.12,8.11,4.68c-0.13,0.64-0.26,1.28-0.39,1.92h0l-12.86-7.43L132.43,247.12z"/>
					<path fill="#0093E5" d="M132.1,248.74c-0.41,2.01-0.82,4.02-1.23,6.03c-2.7-1.56-5.41-3.12-8.11-4.68
						C125.87,249.64,128.99,249.19,132.1,248.74z"/>
				</g>
			</g>
			<g>
				<path fill="#FAA679" d="M250.88,163.65c-6.55,1.17-13.19,2.47-19.25,4.87c-1.75,0.68-3.47,1.46-5.11,2.37
					c0.54,4,1.24,8.19-2.55,14.74c-1.19,2.06-2.64,4.03-4.15,5.74c-2.23,1.29-4.4,2.65-6.34,4.27c-5.1,4.25-9.64,10.83-14.22,16.37
					c-0.91,1.09-1.8,2.13-2.71,3.12c-4.53,4.92-9.2,8.23-14.58,6.82c-1.53-0.9-2.64-2.22-3.26-3.79l-0.08-0.23
					c-0.86-2.39-0.61-5.29,1.01-8.09c0.96-1.67,2.56-3.38,4.53-5.23c4.14-3.9,9.91-8.36,14.65-14.11c1.74-1.7,2.97-3.43,3.81-5.63
					c0.04-0.09,0.08-0.19,0.11-0.29c0.39-1.05,0.69-2.22,0.92-3.53c-9.29,1.24-28.95,9.52-33.38,17.18c-0.72,1.25-2.4,5.5-3.57,9.84
					c-0.81,2.74-1.48,5.52-1.98,8.39c3.08,11.5,6.95,11.86,4.53,16.07c-1.45,2.5-5.01,3.45-7.67,1.92
					c-2.42-1.4-6.18-9.02-7.45-11.56c-2.03-6.88-1.03-8.22,0.78-24.47c6.4-11.55,7.9-10.24,12.66-14.73
					c1.72-1.62,3.17-3.52,4.71-5.35c0.3-0.63,0.59-1.25,0.92-1.87c7.62-4.87,30.81-21.25,49.27-25.58c2.88-1.26,5.74-2.61,8.71-3.63
					c6.75-2.35,13.63-4.11,20.26-6.66c1.88,1.46,3.41,3.24,4.61,5.23c1.19,1.98,2.04,4.18,2.54,6.49
					C259.75,157.56,256.18,162.71,250.88,163.65z"/>
				<path fill="#E89060" d="M203.67,181.05c-0.73,4.22-2.2,6.87-4.84,9.46c0.33-0.4,0.65-0.8,0.97-1.22
					c-8.5-2.03-20.89,3.59-31.14,12.9c-0.72,1.96-1.37,3.92-1.95,5.89c1.18-4.34,2.86-8.6,3.58-9.85
					C174.72,190.57,194.39,182.29,203.67,181.05z"/>
				<path fill="#E89060" d="M165.29,235.13c2.66,5.79,3.22,10.44-2.74,13.07c-0.64-0.03-1.15-0.16-1.59-0.42
					c-1.27-0.73-1.94-2.45-3.15-5.31h0c0.38-4.05,0.36-8.17,0.31-12.25c1.27,2.06,2.49,3.65,3.49,4.23
					C162.74,235.12,164.05,235.32,165.29,235.13L165.29,235.13z"/>
			</g>
			<g>
				<path fill="#B4A8C3" d="M232.34,390.7l-23.16,5.6l-9.69,13.37c0.2-11.89,5-112.8,5.19-110.13c0,0,3.15-7.57,3.94-9.4
					c-2.16-0.15-3.49,2.12-3.49,2.12l-1.87,4.31c0,0-2.1-1.09-3.05-1.61c1.26-1.84,2.42-3.54,3.75-5.49
					c-5.47-1.68-8.28-5.86-10.51-10.86c1.53,0.27,2.92,0.52,4.62,0.82c-0.46-3.61-0.83-6.85-1.3-10.06
					c-0.52-3.55-1.79-6.78-0.57-9.17c0.79-1.55,0.61-2.79-0.32-4.15c-2.27-3.35-4.65-6.57-8.65-9.1c1.01,3.84,1.9,7.22,2.82,10.72
					c-3.8,1.88-4.27,5.15-4.01,8.67c-2.4-0.06-2.4-0.06-7.75-4.46c-0.65,1.82-0.97,3.51-0.31,5.39c0.62,1.74,1.9,3.99,2.38,5.91
					c-2.89,1.43-3.97,3.86-4.16,6.79c-2.21,4.16-1.36,4.53-2.54,8.95c-0.23,0.86-1.01,5.84-1.13,6.73
					c-0.24,1.73-0.49,2.87,0.91,3.96c2.02,1.55,3.68,1.6,5.58-0.08c0.68-0.61,1.49-1.07,2.23-1.58c1.06,1.09,1.08,2.2,0.74,3.16
					c-0.43,1.21,0.02,2.16,0.36,3.39c1.84-0.86,1.69-2.79,1.5-5.04c-0.08-0.95,1.16-1.74,2.3-1.89c0.85,2.64,0.79,5.74,1.18,8.51
					c0.1,0.73-0.23,1.72-0.71,2.3c-0.75,0.9-0.64,1.72-0.37,2.67c0.87,3.08,1.73,6.16,3.02,9.18c-0.6-9.99-1.19-19.98-1.8-30.18
					c1.25-0.16,2.38-0.3,3.74-0.47c0.25-1.27,0.68-2.64,0.77-4.04c0.09-1.36,1.26-2.26,2.8-2.67c0.94,3.15,1.31,6.52,2.34,9.98
					c-1.05-0.33-1.78-0.7-2.54-0.76c-0.79-0.06-1.59,0.2-2.5,0.33c0,9.15-0.28,1.29,0.87,19.08c0.18,2.78,1.13,17.99,1.19,20.8
					c0.03,1.51-0.31,2.24-1.3,3.47c-4.2-1.57-8.79-20.64-9.98-24.97c-0.23-0.86-0.5-1.63-1.27-2.28c-1.56-1.3-2.83-2.86-2.91-5.07
					c-0.01-0.33-0.59-0.21-0.82-0.72c-3.95,2.05-7.84,1.69-10.17-2.74c1.3-3.61,0.94-0.84,4.47-18.04
					c2.7-13.12,5.38-26.25,7.99-39.38c0.73-3.67,1.28-7.38,0.65-11.15c-0.07-0.41-0.01-0.85,0.15-1.38c0.02,1.7,1.28,2.25,2.41,2.98
					c9.81,6.27,16.49,20.83,20.28,31.83c0.12,0.35,0.18,0.71,0.34,1.34c-0.76,0.32-1.54,0.64-2.43,1.01
					c-0.89,1.92-0.52,3.87,0.55,5.89c0.19-0.91,0.5-1.81,0.55-2.73c0.07-1.34,0.69-2.05,2.19-2.35c1.35,4.69,3.1,9.26,3.58,14.49
					c1.48-0.79,1.94-2.2,2.77-3.24c0.89-1.11,1.66-2.31,2.57-3.6c0.62,0.5,1.22,0.99,1.83,1.47c2.64-2.69,2.92-6.06,0.85-9.2
					c-0.82-1.25-0.05,0.99-11.58-41.02c-0.43-1.55-0.55-3.03,0.07-4.6c0.43-1.08,0.48-2.32,0.73-3.71
					c3.08,3.73,3.7,6.12,14.51,46.01c1,3.71,0.38,7.37-1.3,10.61c-0.78,1.51-3.2,4.76-3.2,4.76l11.46,6.62L232.34,390.7z
					 M185.94,245.23c-1.02-1.68-2.11-3.13-3.74-4.16c-0.99,5.16-1.96,10.19-2.96,15.4c2.04-0.25,3.13-1.35,3.66-2.87
					C184.89,247.97,183.83,246.35,185.94,245.23z"/>
				<path fill="#B4A8C3" d="M137.38,245.52c0.91-2,3.03-3.85,4.12-6.26c6.38,13.57,5.51,13.23,7,16.33c0.43,0.9,0.55,1.62-0.1,2.47
					c-1.21,1.61-2.14,2.94-3.46,4.82c-3.03-1.72-6.98-4.01-10.16-5.81c-2.03,8.72-1.8,8.19-3.08,13.77
					c-0.68,2.99,0.76,4.86,3.06,6.33c1.14,0.73,2.32,0.34,3.43-0.17c1.22-0.56,2.42-1.18,3.69-1.81c1.48,1.88-0.82,4.2,1.01,6.05
					c1.99-1.56,1.83-4.65,1.69-6.81c0.47-0.23,1.23-0.97,1.88-1.28c1.68,2.72,1.15,7.04,1.03,10.01c-0.03,0.72-0.16,1.57-0.57,2.1
					c-0.7,0.9-0.64,1.74-0.38,2.71c2.17,7.95,1.84,7.88,2.74,8.44c-0.54-9.74-1.08-19.48-1.61-29.18c2.66-1.32,4.95-0.32,7.04,1.29
					c-1.36,0.31-1.28,0.63-2.7,0.94c0.84,17.89,1.65,30.53,2.1,39.15c0.07,1.35-0.16,2.64-1.02,3.86c-1.52-0.67-2.38-1.82-2.89-3.13
					c-5.84-14.97-5.24-14.95-7.24-22.13c-0.15-0.56-0.33-1.22-0.73-1.58c-1.93-1.75-3.57-3.64-3.45-6.82
					c-4.18,1.86-6.34,3.12-9.19,0.02c-0.64-0.69-1.31-2.75-0.92-3.63c2.13-4.8,0.88-3.66,10.43-50.24
					c0.95-4.62,1.39-12.69,9.48-15.16c2.22-0.68,5.08-1.1,5.08-1.1l0.14,1.45c0,0-7.34,0.71-9.91,5.77
					c-2.1,3.88-2.4,6.65-6.69,27.82c-0.11,0.55-0.1,1.12-0.15,1.69C137.17,245.46,137.27,245.49,137.38,245.52z"/>
				<polygon fill="#B4A8C3" points="122.76,250.09 132.1,248.74 130.87,254.77 				"/>
				<path fill="#B4A8C3" d="M170.97,217.04c3.62,2.38,6.42,8.9,3.9,10.26C173.85,223.35,171.61,219.27,170.97,217.04z"/>
				<path fill="#B4A8C3" d="M179.76,295.4c-1.25,0.45-2.28,0.82-3.33,1.2c-0.5-0.76-0.04-1.31,0.53-1.64
					C177.88,294.43,178.79,294.67,179.76,295.4z"/>
				<path fill="#B4A8C3" d="M136.44,273.37c0.97-2.25,1.34-2.36,3.39-1.25C138.75,272.52,137.77,272.88,136.44,273.37z"/>
			</g>
		</g>
		<path fill="#FAA679" d="M251.12,140.73c-6.52,2.47-13.28,4.22-19.92,6.52c-2.97,1.02-5.83,2.37-8.71,3.63
			c-18.46,4.33-41.65,20.71-49.27,25.58c-0.33,0.62-0.62,1.24-0.92,1.87c-1.54,1.83-2.99,3.74-4.71,5.35
			c-4.75,4.48-6.26,3.17-12.66,14.73c-1.82,16.26-2.81,17.59-0.78,24.47c1.25,2.52,2.64,5.17,3.96,7.33
			c0.09,6.02,0.09,12.27-1.19,18.19c-2.59,3.43-5.5,4.35-8.62,1.44l-0.01-0.01l-0.03-0.03c-0.58-2.84-1.64-7.95-3.52-16.98
			c0.66-6.31,1.62-12.52,2.56-18.77c-0.01-0.2-0.19-1.65-0.19-1.84c0.97-3.93,1.92-7.94,3.86-11.31c0.01-0.01,0.01-0.03,0.03-0.04
			c10.37-17.87,12.42-16.42,14.2-22.34c1.11-1.14,2.21-2.28,3.28-3.45c12.44-6.83,30.35-16.63,36.88-20.03
			c3.77-2.84,1.07-4.44,30.98-13.93c2.76-0.87,5.6-1.48,8.42-2.16C247.05,139.11,249.21,139.47,251.12,140.73z"/>
		<path fill="#FFBC97" d="M165.21,178.54c-1.8,5.97-3.78,4.38-14.2,22.35c-0.01,0.01-0.01,0.02-0.02,0.04
			c-1.95,3.37-2.89,7.38-3.86,11.3c-0.17-1.65-0.31-3.29-0.4-4.95c4.47-8.59,2.51-6.2,14.34-24.52
			C162.44,181.35,163.83,179.95,165.21,178.54z"/>
	</g>
	<g>
		<g>
			<path opacity="0.69" fill="#FBFBFB" d="M207.64,94.48l-18.62-10.75c-2.28-1.32-4.13-4.24-4.13-6.52l0,0
				c0-2.28,1.85-3.06,4.13-1.75l18.62,10.75c2.28,1.32,4.13,4.24,4.13,6.52l0,0C211.78,95.02,209.93,95.8,207.64,94.48z"/>
			<path opacity="0.69" fill="#FBFBFB" d="M207.64,106.09l-18.62-10.75c-2.28-1.32-4.13-4.24-4.13-6.52l0,0
				c0-2.28,1.85-3.06,4.13-1.75l18.62,10.75c2.28,1.32,4.13,4.24,4.13,6.52l0,0C211.78,106.63,209.93,107.41,207.64,106.09z"/>
		</g>
		<path opacity="0.69" fill="#FBFBFB" d="M283.55,119.53l-90.38-52.18c-4.7-2.71-8.51-8.72-8.51-13.42l0,0c0-4.7,3.81-6.31,8.51-3.6
			l90.38,52.18c4.7,2.71,8.51,8.72,8.51,13.42l0,0C292.06,120.63,288.25,122.24,283.55,119.53z"/>
	</g>
	<path fill="#B4A8C3" d="M203.67,181.06c-0.2,3.6-3.7,8.4-3.7,8.4c-1.64-1.08-7.02-0.82-11.39,0.53
		c-7.53,2.31-14.73,7.67-19.92,12.21c0,0-0.77,1.54-1.95,5.89c-0.81,2.74-1.48,5.52-1.98,8.39c3.08,11.5,6.95,11.86,4.53,16.07
		c-4.49-2.7-7.62-12.29-6.27-24.18c1.34-11.89,2.08-16.99,16.91-25.92C194.74,173.5,203.67,181.06,203.67,181.06z"/>
	<path fill="#B4A8C3" d="M202.75,184.59c0.39-1.05,0.69-2.22,0.92-3.53C203.52,182.32,203.21,183.49,202.75,184.59z"/>
	<path fill="#B4A8C3" d="M196.54,215.13c-4.53,4.92-9.2,8.23-14.58,6.82c-1.53-0.9-2.64-2.22-3.26-3.79l-0.08-0.23
		c0,0,6.56,7.58,14.22-3.42c2.27-3.25-8.42-9.52-8.67-9.88c0.35,0.23,5.12,2.51,8.15,5.55
		C195.17,213.03,196.54,215.13,196.54,215.13z"/>
	<path fill="#6C6C6C" d="M203.21,214.66h-3.83v4.13c-3.68-5.2-8.86-10.46-14.26-13.61c-0.25-0.15-1.92-1.14-2.1-1.24v-6.39
		c0.07,0.04,4.67,2.72,4.85,2.82c0,0.02,0,0.02,0,0.02C193.38,203.59,198.95,208.89,203.21,214.66z"/>
	<path fill="#B4A8C3" d="M156.93,248.41c-2.59,3.43-5.5,4.35-8.62,1.44c0.33,0.25,2.85,1.99,4.05-3.26
		c1.3-5.64-3.55-41.88,2.57-48.17c-1.82,16.26-2.81,17.59-0.78,24.47c1.25,2.52,2.64,5.17,3.96,7.33
		C158.2,236.25,158.2,242.5,156.93,248.41z"/>
</g>
</svg>
