<?xml version="1.0" encoding="utf-8"?>
<!-- Generator: Adobe Illustrator 23.0.3, SVG Export Plug-In . SVG Version: 6.00 Build 0)  -->
<svg version="1.1" id="Layer_1" xmlns="http://www.w3.org/2000/svg" xmlns:xlink="http://www.w3.org/1999/xlink" x="0px" y="0px"
	 viewBox="0 0 500 500" enable-background="new 0 0 500 500" xml:space="preserve">
<g>
	<g>
		<g>
			<path d="M453.43,234.38c-4.08-7.85-11.47-12.67-19.45-12.67H66.02c-7.98,0-15.37,4.81-19.45,12.67l-34.38,66.23
				C6.15,312.25,13.48,327,25.32,327h449.36c11.84,0,19.17-14.75,13.12-26.39L453.43,234.38z"/>
			<path fill="#D1D3D4" d="M19.87,301.36l35.7-71.19c1.94-3.87,10.98-6.95,20.23-6.95l348.4,0c9.25,0,18.29,3.08,20.23,6.95
				l35.7,71.19c2.78,5.54-4.15,10.14-15.54,10.14H35.41C24.01,311.5,17.08,306.91,19.87,301.36z"/>
			<path fill="#231F20" d="M20.96,299.18l35.39-70.57c1.93-3.84,10.93-6.9,20.14-6.9l347.03,0c9.21,0,18.21,3.06,20.14,6.9
				l35.39,70.57c2.75,5.49-4.15,10.04-15.49,10.04l-427.1,0C25.11,309.22,18.21,304.67,20.96,299.18z"/>
			<path fill="#666666" d="M446.48,273.29L446.48,273.29c-4.98,0-9.82-1.85-10.81-4.12l-7.02-16.14c-0.9-2.08,2.18-3.74,6.88-3.74h0
				c6.6,0,10.83-2.32,9.46-5.14l-7.9-16.28c-1.22-2.51-7.1-4.52-13.15-4.52l-347.83,0c-7.02,0-13.85,2.34-15.28,5.26l-34.6,70.62
				c-2.04,4.15,3.22,7.58,11.78,7.58l424.05,0c7.38,0,11.92-2.95,10.18-6.55l-10.21-21.03
				C460.42,275.92,453.47,273.29,446.48,273.29z"/>
			<path opacity="0.3" fill="#666666" d="M238.7,248.83c80.02,0,156.33,6.12,223.6,16.98l-18.66-37.2
				c-1.93-3.84-10.93-6.9-20.14-6.9l-347.03,0c-9.21,0-18.21,3.06-20.14,6.9L39.6,262.02C100.78,253.55,168.33,248.83,238.7,248.83z
				"/>
		</g>
	</g>
	<g>
		<defs>
			<filter id="Adobe_OpacityMaskFilter" filterUnits="userSpaceOnUse" x="73.09" y="253.41" width="306.68" height="37.48">
				<feFlood  style="flood-color:white;flood-opacity:1" result="back"/>
				<feBlend  in="SourceGraphic" in2="back" mode="normal"/>
			</filter>
		</defs>
		<mask maskUnits="userSpaceOnUse" x="73.09" y="253.41" width="306.68" height="37.48" id="SVGID_1_">
			<g filter="url(#Adobe_OpacityMaskFilter)">
				<defs>
					<filter id="Adobe_OpacityMaskFilter_1_" filterUnits="userSpaceOnUse" x="73.09" y="253.41" width="306.68" height="37.48">
						<feFlood  style="flood-color:white;flood-opacity:1" result="back"/>
						<feBlend  in="SourceGraphic" in2="back" mode="normal"/>
					</filter>
				</defs>
				<mask maskUnits="userSpaceOnUse" x="73.09" y="253.41" width="306.68" height="37.48" id="SVGID_1_">
				</mask>
				
					<linearGradient id="SVGID_2_" gradientUnits="userSpaceOnUse" x1="1974.619" y1="290.8901" x2="1974.619" y2="253.4065" gradientTransform="matrix(-1 0 0 1 2201.0471 0)">
					<stop  offset="0" style="stop-color:#000000"/>
					<stop  offset="7.339014e-03" style="stop-color:#090909"/>
					<stop  offset="0.0474" style="stop-color:#373737"/>
					<stop  offset="0.0926" style="stop-color:#626262"/>
					<stop  offset="0.1411" style="stop-color:#888888"/>
					<stop  offset="0.1939" style="stop-color:#A8A8A8"/>
					<stop  offset="0.2523" style="stop-color:#C4C4C4"/>
					<stop  offset="0.3182" style="stop-color:#DADADA"/>
					<stop  offset="0.3952" style="stop-color:#EBEBEB"/>
					<stop  offset="0.4904" style="stop-color:#F6F6F6"/>
					<stop  offset="0.6239" style="stop-color:#FDFDFD"/>
					<stop  offset="0.9944" style="stop-color:#FFFFFF"/>
				</linearGradient>
				<path mask="url(#SVGID_1_)" fill="url(#SVGID_2_)" d="M109.71,290.89h246.7c14.14,0,25.04-6.41,23.15-13.61l-3.55-13.49
					c-1.57-5.95-11.46-10.39-23.15-10.39H98.24c-11.57,0-21.4,4.35-23.1,10.23l-1.64,5.67C70.2,280.68,87.34,290.89,109.71,290.89z"
					/>
			</g>
		</mask>
		
			<linearGradient id="SVGID_3_" gradientUnits="userSpaceOnUse" x1="1974.619" y1="290.8901" x2="1974.619" y2="253.4065" gradientTransform="matrix(-1 0 0 1 2201.0471 0)">
			<stop  offset="0" style="stop-color:#000000"/>
			<stop  offset="0.1406" style="stop-color:#000000"/>
			<stop  offset="0.9944" style="stop-color:#000000"/>
		</linearGradient>
		<path fill="url(#SVGID_3_)" d="M109.71,290.89h246.7c14.14,0,25.04-6.41,23.15-13.61l-3.55-13.49
			c-1.57-5.95-11.46-10.39-23.15-10.39H98.24c-11.57,0-21.4,4.35-23.1,10.23l-1.64,5.67C70.2,280.68,87.34,290.89,109.71,290.89z"/>
		<defs>
			<filter id="Adobe_OpacityMaskFilter_2_" filterUnits="userSpaceOnUse" x="69.84" y="262.4" width="314.9" height="44.76">
				<feFlood  style="flood-color:white;flood-opacity:1" result="back"/>
				<feBlend  in="SourceGraphic" in2="back" mode="normal"/>
			</filter>
		</defs>
		<mask maskUnits="userSpaceOnUse" x="69.84" y="262.4" width="314.9" height="44.76" id="SVGID_4_">
			<g filter="url(#Adobe_OpacityMaskFilter_2_)">
				<defs>
					<filter id="Adobe_OpacityMaskFilter_3_" filterUnits="userSpaceOnUse" x="69.84" y="262.4" width="314.9" height="44.76">
						<feFlood  style="flood-color:white;flood-opacity:1" result="back"/>
						<feBlend  in="SourceGraphic" in2="back" mode="normal"/>
					</filter>
				</defs>
				<mask maskUnits="userSpaceOnUse" x="69.84" y="262.4" width="314.9" height="44.76" id="SVGID_4_">
				</mask>
				
					<linearGradient id="SVGID_5_" gradientUnits="userSpaceOnUse" x1="1973.7539" y1="307.1618" x2="1973.7539" y2="262.3995" gradientTransform="matrix(-1 0 0 1 2201.0471 0)">
					<stop  offset="0" style="stop-color:#000000"/>
					<stop  offset="0.086" style="stop-color:#080808"/>
					<stop  offset="0.2161" style="stop-color:#1C1C1C"/>
					<stop  offset="0.3744" style="stop-color:#3F3F3F"/>
					<stop  offset="0.5547" style="stop-color:#6E6E6E"/>
					<stop  offset="0.7535" style="stop-color:#ABABAB"/>
					<stop  offset="0.9651" style="stop-color:#F4F4F4"/>
					<stop  offset="0.9944" style="stop-color:#FFFFFF"/>
				</linearGradient>
				<path mask="url(#SVGID_4_)" fill="url(#SVGID_5_)" d="M107.45,307.16h253.31c14.52,0,25.71-7.65,23.77-16.25l-3.64-16.11
					c-1.61-7.11-11.76-12.41-23.77-12.41H95.67c-11.88,0-21.97,5.2-23.72,12.22l-1.69,6.77C66.88,294.97,84.48,307.16,107.45,307.16
					z"/>
			</g>
		</mask>
		
			<linearGradient id="SVGID_6_" gradientUnits="userSpaceOnUse" x1="1973.7539" y1="307.1618" x2="1973.7539" y2="262.3995" gradientTransform="matrix(-1 0 0 1 2201.0471 0)">
			<stop  offset="0" style="stop-color:#000000"/>
			<stop  offset="0.9944" style="stop-color:#000000"/>
		</linearGradient>
		<path fill="url(#SVGID_6_)" d="M107.45,307.16h253.31c14.52,0,25.71-7.65,23.77-16.25l-3.64-16.11
			c-1.61-7.11-11.76-12.41-23.77-12.41H95.67c-11.88,0-21.97,5.2-23.72,12.22l-1.69,6.77C66.88,294.97,84.48,307.16,107.45,307.16z"
			/>
	</g>
	
		<rect x="102.37" y="240.09" transform="matrix(-1 -1.224647e-16 1.224647e-16 -1 471.0006 515.0457)" width="266.27" height="34.86"/>
	<g>
		<circle fill="#414042" cx="334.29" cy="269.51" r="17.55"/>
		<g>
			<circle cx="334.29" cy="269.4" r="15.08"/>
			<path fill="#E6E7E8" d="M319.91,269.41c0,7.95,6.44,14.39,14.38,14.39c7.94,0,14.38-6.44,14.38-14.39
				c0-7.95-6.44-14.39-14.38-14.39C326.35,255.02,319.91,261.47,319.91,269.41z M324.51,278.46c-1.27-1.37-2.25-3-2.85-4.81
				l10.43-2.81L324.51,278.46z M331.95,268.21l-10.39-2.79c0.57-1.82,1.53-3.47,2.77-4.86L331.95,268.21z M334.29,256.06
				c0.91,0,1.79,0.09,2.65,0.27l-2.79,10.44l-2.77-10.38C332.32,256.18,333.29,256.06,334.29,256.06z M336.64,270.61l10.38,2.79
				c-0.57,1.82-1.53,3.47-2.77,4.86L336.64,270.61z M336.5,267.97l7.58-7.61c1.27,1.37,2.25,3,2.85,4.81L336.5,267.97z
				 M334.29,282.76c-0.91,0-1.79-0.09-2.65-0.27l2.79-10.44l2.77,10.38C336.26,282.64,335.29,282.76,334.29,282.76z"/>
			<g>
				<path fill="#D1D3D4" d="M334.29,268.88c-5.05,0-9.73,0.88-13.61,2.37c-0.09-0.63-0.15-1.26-0.15-1.91
					c0-7.58,6.16-13.72,13.76-13.72s13.76,6.15,13.76,13.72c0,0.65-0.06,1.28-0.15,1.91C344.02,269.76,339.34,268.88,334.29,268.88z
					"/>
				<path fill="#FFFFFF" d="M319.91,269.4c0,7.94,6.44,14.38,14.38,14.38c7.94,0,14.38-6.44,14.38-14.38s-6.44-14.38-14.38-14.38
					C326.35,255.02,319.91,261.46,319.91,269.4z M320.94,269.41c0-7.37,5.98-13.35,13.35-13.35c7.37,0,13.35,5.98,13.35,13.35
					c0,7.37-5.98,13.35-13.35,13.35C326.92,282.76,320.94,276.78,320.94,269.41z"/>
			</g>
		</g>
		<g>
			<g>
				<path fill="#939598" d="M334.29,265.74c-2.41,0-4.37,1.96-4.37,4.37c0,2.41,1.96,8.24,4.37,8.24s4.37-5.83,4.37-8.24
					C338.66,267.7,336.71,265.74,334.29,265.74z"/>
			</g>
			<circle fill="#FFFFFF" cx="334.29" cy="269.36" r="4.37"/>
			<circle cx="334.29" cy="270.59" r="4.37"/>
		</g>
		<path fill="#939598" d="M334.29,279.72c5.52,0,10.32-2.77,12.82-6.86c-1.49,5.7-6.66,9.9-12.82,9.9s-11.33-4.21-12.82-9.9
			C323.97,276.95,328.77,279.72,334.29,279.72z"/>
		<path fill="#808285" d="M334.29,262.14c-7.28,0-13.7,3.01-17.54,7.59c0-0.08-0.01-0.15-0.01-0.23c0-9.69,7.86-17.55,17.55-17.55
			s17.55,7.86,17.55,17.55c0,0.08,0,0.15-0.01,0.23C347.99,265.15,341.57,262.14,334.29,262.14z"/>
		<path fill="#6D6E71" d="M334.29,258.52c-6.93,0-12.62,5.22-13.28,11.89c-0.04-0.38-0.07-0.76-0.07-1.15
			c0-7.28,5.97-13.19,13.35-13.19c7.37,0,13.35,5.91,13.35,13.19c0,0.39-0.03,0.77-0.07,1.15
			C346.92,263.73,341.22,258.52,334.29,258.52z"/>
		<circle fill="#FFFFFF" cx="334.29" cy="270.59" r="3.38"/>
	</g>
	<g>
		<circle fill="#414042" cx="138.98" cy="269.51" r="17.55"/>
		<g>
			<circle cx="138.98" cy="269.4" r="15.08"/>
			<path fill="#E6E7E8" d="M124.6,269.41c0,7.95,6.44,14.39,14.38,14.39c7.94,0,14.38-6.44,14.38-14.39
				c0-7.95-6.44-14.39-14.38-14.39C131.04,255.02,124.6,261.47,124.6,269.41z M129.2,278.46c-1.27-1.37-2.25-3-2.85-4.81l10.43-2.81
				L129.2,278.46z M136.64,268.21l-10.39-2.79c0.57-1.82,1.53-3.47,2.77-4.86L136.64,268.21z M138.98,256.06
				c0.91,0,1.79,0.09,2.65,0.27l-2.79,10.44l-2.77-10.38C137.01,256.18,137.98,256.06,138.98,256.06z M141.33,270.61l10.38,2.79
				c-0.57,1.82-1.53,3.47-2.77,4.86L141.33,270.61z M141.19,267.97l7.58-7.61c1.27,1.37,2.25,3,2.85,4.81L141.19,267.97z
				 M138.98,282.76c-0.91,0-1.79-0.09-2.65-0.27l2.79-10.44l2.77,10.38C140.95,282.64,139.98,282.76,138.98,282.76z"/>
			<g>
				<path fill="#D1D3D4" d="M138.98,268.88c-5.05,0-9.73,0.88-13.61,2.37c-0.09-0.63-0.15-1.26-0.15-1.91
					c0-7.58,6.16-13.72,13.76-13.72c7.6,0,13.76,6.15,13.76,13.72c0,0.65-0.06,1.28-0.15,1.91
					C148.71,269.76,144.03,268.88,138.98,268.88z"/>
				<path fill="#FFFFFF" d="M124.6,269.4c0,7.94,6.44,14.38,14.38,14.38c7.94,0,14.38-6.44,14.38-14.38s-6.44-14.38-14.38-14.38
					C131.04,255.02,124.6,261.46,124.6,269.4z M125.64,269.41c0-7.37,5.98-13.35,13.35-13.35c7.37,0,13.35,5.98,13.35,13.35
					c0,7.37-5.98,13.35-13.35,13.35C131.61,282.76,125.64,276.78,125.64,269.41z"/>
			</g>
		</g>
		<g>
			<g>
				<path fill="#939598" d="M138.98,265.74c-2.41,0-4.37,1.96-4.37,4.37c0,2.41,1.96,8.24,4.37,8.24s4.37-5.83,4.37-8.24
					C143.35,267.7,141.4,265.74,138.98,265.74z"/>
			</g>
			<circle fill="#FFFFFF" cx="138.98" cy="269.36" r="4.37"/>
			<circle cx="138.98" cy="270.59" r="4.37"/>
		</g>
		<path fill="#939598" d="M138.98,279.72c5.52,0,10.32-2.77,12.82-6.86c-1.49,5.7-6.66,9.9-12.82,9.9c-6.16,0-11.33-4.21-12.82-9.9
			C128.66,276.95,133.46,279.72,138.98,279.72z"/>
		<path fill="#808285" d="M138.98,262.14c-7.28,0-13.7,3.01-17.54,7.59c0-0.08-0.01-0.15-0.01-0.23c0-9.69,7.86-17.55,17.55-17.55
			s17.55,7.86,17.55,17.55c0,0.08,0,0.15-0.01,0.23C152.68,265.15,146.26,262.14,138.98,262.14z"/>
		<path fill="#6D6E71" d="M138.98,258.52c-6.93,0-12.62,5.22-13.28,11.89c-0.04-0.38-0.07-0.76-0.07-1.15
			c0-7.28,5.97-13.19,13.35-13.19c7.37,0,13.35,5.91,13.35,13.19c0,0.39-0.03,0.77-0.07,1.15
			C151.61,263.73,145.91,258.52,138.98,258.52z"/>
		<circle fill="#FFFFFF" cx="138.98" cy="270.59" r="3.38"/>
	</g>
	<path fill="#1FA4FE" d="M72.57,256.81c-0.01-0.08-0.01-0.16-0.02-0.25c-0.86-2.69-1.3-6.45-1.14-11.34
		c0.26-7.8,2.04-13.35,4.49-16.14c1.81-16.52,40.75-13.14,45.54-17.07c8.7-7.13,29.5-21.87,36.25-23.58
		c26.7-6.77,79.36-4.37,93.72-1.06c13.02,3,44.58,28.73,46.12,28.73c24.17,0,84.65,7.67,84.65,30.03v5.01l0.47,0.37
		c1.02,0.79,1.96,1.76,1.96,3.32c0,0,1.42,14.85-5.09,21.36c-2.46,2.46-5.88,4.59-10.89,4.59h-12.68c-1.43,0-2.59-1.17-2.59-2.59
		v-8.27c0-9.8-7.96-18.79-17.74-19.5c-11.22-0.81-20.57,8.06-20.57,19.11v8.63l0,0.09c0,1.4-1.13,2.53-2.53,2.53H160.64
		c-1.43,0-2.59-1.17-2.59-2.59v-8.27c0-9.8-7.96-18.79-17.74-19.5c-11.22-0.81-20.57,8.06-20.57,19.11v8.63l0,0.03
		c0.01,1.43-1.16,2.59-2.58,2.59H85.59c-2.84,0-5.67-0.47-8.36-1.39l-0.65-0.22c-2.11-0.72-3.82-2.31-4.68-4.37
		C69.85,269.9,68.28,261.3,72.57,256.81z"/>
	<path fill="#E6E7E8" d="M73.39,246.88c-1.23-15.54,40.1-12.65,45.26-16.82c8.79-7.13,29.81-20.87,36.63-22.58
		c26.99-6.77,80.13-4.37,94.65-1.06c13.17,3,45.06,28.73,46.62,28.73c24.43,0,85.61,5.6,85.61,30.03l0.02,7.13
		c-0.69,1.45-1.55,2.78-2.64,3.87c-2.46,2.46-5.88,4.59-10.89,4.59h-12.68c-1.43,0-2.59-1.17-2.59-2.59v-8.27
		c0-9.8-7.96-18.79-17.74-19.5c-11.22-0.81-20.57,8.06-20.57,19.11v8.63l0,0.09c0,1.4-1.13,2.53-2.53,2.53H160.64
		c-1.43,0-2.59-1.17-2.59-2.59v-8.27c0-9.8-7.96-18.79-17.74-19.5c-11.22-0.81-20.57,8.06-20.57,19.11v8.63l0,0.03
		c0.01,1.43-1.15,2.59-2.57,2.59H85.6c-2.84,0-5.67-0.47-8.36-1.39l0,0c-2.65-0.9-6.83-10.41-3.44-19.06
		C72.9,257.85,73.39,246.88,73.39,246.88z"/>
	<path d="M76.01,232.44c-0.15-0.9,0.11,6.25,10.94,12.11c2.68,1.45-4,5.62-6.94,7.31c-0.85,0.49-1.81,0.74-2.79,0.69
		c-2.89-0.14-5.13-0.77-5.21-2.74C71.35,232.94,76.01,232.44,76.01,232.44z"/>
	<linearGradient id="SVGID_7_" gradientUnits="userSpaceOnUse" x1="360.797" y1="259.3236" x2="384.5091" y2="259.3236">
		<stop  offset="0" style="stop-color:#FFFFFF"/>
		<stop  offset="1" style="stop-color:#FFFFFF"/>
	</linearGradient>
	<path opacity="0.8" fill="url(#SVGID_7_)" d="M376.8,263.17c2.86-4.5,5.38-12.03,5.38-12.03v0v0l0.47,0.37
		c0.71,0.55,1.37,1.19,1.72,2.05c0.37,4.65,0.41,12.64-5.1,13.43c-11.14,1.6-18.47-0.96-18.47-0.96S374.64,266.57,376.8,263.17z"/>
	<path fill="#8F1622" d="M72.01,249.81c-0.41-10.5,1.23-14.66,2.54-16.3c0.41,1.57,2.52,6.67,11.59,11.02
		c2.86,1.37-4.26,5.31-7.39,6.9c-0.9,0.46-1.93,0.65-2.97,0.65c-1.68,0-2.89-0.9-3.75-2.08C72.03,249.94,72.02,249.88,72.01,249.81z
		"/>
	<path fill="#ED1C24" d="M74.38,250.01c-0.2-5.18,0.61-7.23,1.26-8.05c0.2,0.78,1.25,3.29,5.74,5.44c1.42,0.68-2.11,2.62-3.66,3.41
		c-0.45,0.23-0.95,0.32-1.47,0.32c-0.83,0-1.43-0.44-1.85-1.03C74.38,250.07,74.38,250.04,74.38,250.01z"/>
	<path fill="#ED1C24" d="M86.35,245.44c-8.08-3.16-11.67-6.71-13.22-9.02c0.44-1.4,0.95-2.32,1.42-2.91
		c0.41,1.57,2.52,6.67,11.59,11.02c0.58,0.28,0.75,0.67,0.62,1.12C86.65,245.58,86.52,245.5,86.35,245.44z"/>
	<linearGradient id="SVGID_8_" gradientUnits="userSpaceOnUse" x1="80.9584" y1="241.8418" x2="369.675" y2="241.8418">
		<stop  offset="0" style="stop-color:#FFFFFF"/>
		<stop  offset="1" style="stop-color:#FFFFFF"/>
	</linearGradient>
	<path opacity="0.8" fill="url(#SVGID_8_)" d="M80.96,239.46c17.59-5.13,38.21-5.98,51.2-5.74l167.77,5.45
		c30.89,1.05,53.4,4.87,69.75,10.82c-15.05-3.71-34.03-6.11-57.92-6.92l-171.16-5.57c-12.58-0.24-32.18,0.5-49.49,4.96
		c-3.38,0.87-7.01,0.03-9.53-2.38C81.36,239.87,81.16,239.67,80.96,239.46z"/>
	<defs>
		<filter id="Adobe_OpacityMaskFilter_4_" filterUnits="userSpaceOnUse" x="72.52" y="241.12" width="301.01" height="39.65">
			<feFlood  style="flood-color:white;flood-opacity:1" result="back"/>
			<feBlend  in="SourceGraphic" in2="back" mode="normal"/>
		</filter>
	</defs>
	<mask maskUnits="userSpaceOnUse" x="72.52" y="241.12" width="301.01" height="39.65" id="SVGID_9_">
		<g filter="url(#Adobe_OpacityMaskFilter_4_)">
			<defs>
				<filter id="Adobe_OpacityMaskFilter_5_" filterUnits="userSpaceOnUse" x="72.52" y="241.12" width="301.01" height="39.65">
					<feFlood  style="flood-color:white;flood-opacity:1" result="back"/>
					<feBlend  in="SourceGraphic" in2="back" mode="normal"/>
				</filter>
			</defs>
			<mask maskUnits="userSpaceOnUse" x="72.52" y="241.12" width="301.01" height="39.65" id="SVGID_9_">
			</mask>
			
				<linearGradient id="SVGID_10_" gradientUnits="userSpaceOnUse" x1="1978.0166" y1="280.7701" x2="1978.0166" y2="241.1175" gradientTransform="matrix(-1 0 0 1 2201.0471 0)">
				<stop  offset="0" style="stop-color:#000000"/>
				<stop  offset="0.2153" style="stop-color:#030303"/>
				<stop  offset="0.3508" style="stop-color:#0B0B0B"/>
				<stop  offset="0.4643" style="stop-color:#1A1A1A"/>
				<stop  offset="0.5657" style="stop-color:#2F2F2F"/>
				<stop  offset="0.659" style="stop-color:#494949"/>
				<stop  offset="0.7464" style="stop-color:#6B6B6B"/>
				<stop  offset="0.8292" style="stop-color:#929292"/>
				<stop  offset="0.9083" style="stop-color:#BFBFBF"/>
				<stop  offset="0.982" style="stop-color:#F2F2F2"/>
				<stop  offset="1" style="stop-color:#FFFFFF"/>
			</linearGradient>
			<path mask="url(#SVGID_9_)" fill="url(#SVGID_10_)" d="M373.54,280c-1.44,0.49-3.07,0.77-4.9,0.77h-12.68
				c-1.43,0-2.59-1.17-2.59-2.59v-8.27c0-9.8-7.96-18.79-17.74-19.5c-11.22-0.81-20.57,8.06-20.57,19.11v8.63l0,0.09
				c0,1.4-1.13,2.53-2.53,2.53H160.64c-1.43,0-2.59-1.17-2.59-2.59v-8.27c0-9.8-7.96-18.79-17.74-19.5
				c-11.22-0.81-20.57,8.06-20.57,19.11v8.63l0,0.03c0.01,1.43-1.15,2.59-2.57,2.59H85.6c-2.84,0-5.67-0.47-8.36-1.39
				c-2.65-0.9-6.83-10.41-3.44-19.07c-0.53-1.45-0.58-5.83-0.53-9.2c19.35-7.16,43.1-10.29,58.14-9.98l143.69,4.89
				C348.71,246.03,368.32,249.16,373.54,280z"/>
		</g>
	</mask>
	
		<linearGradient id="SVGID_11_" gradientUnits="userSpaceOnUse" x1="1978.0166" y1="280.7701" x2="1978.0166" y2="241.1175" gradientTransform="matrix(-1 0 0 1 2201.0471 0)">
		<stop  offset="0" style="stop-color:#F1F2F2"/>
		<stop  offset="0.3645" style="stop-color:#EEEFF0"/>
		<stop  offset="0.5938" style="stop-color:#E6E7E7"/>
		<stop  offset="0.7858" style="stop-color:#D7D9DA"/>
		<stop  offset="0.9563" style="stop-color:#C3C4C6"/>
		<stop  offset="1" style="stop-color:#BCBEC0"/>
	</linearGradient>
	<path fill="url(#SVGID_11_)" d="M373.54,280c-1.44,0.49-3.07,0.77-4.9,0.77h-12.68c-1.43,0-2.59-1.17-2.59-2.59v-8.27
		c0-9.8-7.96-18.79-17.74-19.5c-11.22-0.81-20.57,8.06-20.57,19.11v8.63l0,0.09c0,1.4-1.13,2.53-2.53,2.53H160.64
		c-1.43,0-2.59-1.17-2.59-2.59v-8.27c0-9.8-7.96-18.79-17.74-19.5c-11.22-0.81-20.57,8.06-20.57,19.11v8.63l0,0.03
		c0.01,1.43-1.15,2.59-2.57,2.59H85.6c-2.84,0-5.67-0.47-8.36-1.39c-2.65-0.9-6.83-10.41-3.44-19.07c-0.53-1.45-0.58-5.83-0.53-9.2
		c19.35-7.16,43.1-10.29,58.14-9.98l143.69,4.89C348.71,246.03,368.32,249.16,373.54,280z"/>
	<path fill="#1FA4FE" d="M86.81,267.17c0,0-14.29,0-16.14-7.25c0.43-1.15,1.05-2.21,1.9-3.1C72.57,256.82,73.55,263.82,86.81,267.17
		z"/>
	<path fill="#E6E7E8" d="M72.61,269.15c0.48,5.34,2.88,9.64,4.62,10.23c2.69,0.92,5.52,1.39,8.36,1.39h27.65v0
		c-0.11-0.48-0.21-0.97-0.3-1.46c-0.3-1.69-0.47-3.43-0.47-5.22c0-0.22,0.01-0.44,0.02-0.67c0-0.21,0.01-0.42,0.02-0.63H87.17
		C82.07,272.8,77.18,271.46,72.61,269.15z M360.8,274.09c0,2.3-0.27,4.54-0.77,6.68v0h8.6c3.54,0,6.29-1.07,8.46-2.56
		c-3.78-3.3-8.01-5.41-12.69-5.41h-3.64C360.78,273.23,360.8,273.66,360.8,274.09z M165.49,274.09c0,2.3-0.27,4.54-0.77,6.68v0
		h143.83v0c-0.5-2.14-0.77-4.37-0.77-6.68c0-0.43,0.01-0.87,0.03-1.3H165.46c0.01,0.22,0.01,0.44,0.02,0.67
		C165.48,273.67,165.49,273.88,165.49,274.09z"/>
	<defs>
		<filter id="Adobe_OpacityMaskFilter_6_" filterUnits="userSpaceOnUse" x="273.89" y="199.5" width="110.85" height="62.12">
			<feFlood  style="flood-color:white;flood-opacity:1" result="back"/>
			<feBlend  in="SourceGraphic" in2="back" mode="normal"/>
		</filter>
	</defs>
	<mask maskUnits="userSpaceOnUse" x="273.89" y="199.5" width="110.85" height="62.12" id="SVGID_12_">
		<g filter="url(#Adobe_OpacityMaskFilter_6_)">
			<defs>
				<filter id="Adobe_OpacityMaskFilter_7_" filterUnits="userSpaceOnUse" x="273.89" y="199.5" width="110.85" height="62.12">
					<feFlood  style="flood-color:white;flood-opacity:1" result="back"/>
					<feBlend  in="SourceGraphic" in2="back" mode="normal"/>
				</filter>
			</defs>
			<mask maskUnits="userSpaceOnUse" x="273.89" y="199.5" width="110.85" height="62.12" id="SVGID_12_">
			</mask>
			
				<linearGradient id="SVGID_13_" gradientUnits="userSpaceOnUse" x1="1816.3033" y1="230.559" x2="1927.1541" y2="230.559" gradientTransform="matrix(-1 0 0 1 2201.0471 0)">
				<stop  offset="0" style="stop-color:#FFFFFF"/>
				<stop  offset="0.0853" style="stop-color:#F7F7F7"/>
				<stop  offset="0.2197" style="stop-color:#E0E0E0"/>
				<stop  offset="0.3864" style="stop-color:#BBBBBB"/>
				<stop  offset="0.5788" style="stop-color:#888888"/>
				<stop  offset="0.7901" style="stop-color:#474747"/>
				<stop  offset="1" style="stop-color:#000000"/>
			</linearGradient>
			<path mask="url(#SVGID_12_)" fill="url(#SVGID_13_)" d="M297.53,216.1c24.17,0,84.65,7.67,84.65,30.03v5.01l0.47,0.37
				c1.02,0.79,1.96,1.76,1.96,3.32c0,0,0.28,2.95,0.02,6.8c-0.01-0.13-0.02-0.22-0.02-0.22c0-1.56-0.94-2.53-1.96-3.32l-0.47-0.37
				v-5.01c0-22.36-60.48-30.03-84.65-30.03c-0.9,0-11.97-8.72-23.64-16.6v-6.59C285.56,207.38,296.63,216.1,297.53,216.1z"/>
		</g>
	</mask>
	
		<linearGradient id="SVGID_14_" gradientUnits="userSpaceOnUse" x1="1816.3033" y1="230.559" x2="1927.1541" y2="230.559" gradientTransform="matrix(-1 0 0 1 2201.0471 0)">
		<stop  offset="0" style="stop-color:#FFFFFF"/>
		<stop  offset="1" style="stop-color:#FFFFFF"/>
	</linearGradient>
	<path opacity="0.8" fill="url(#SVGID_14_)" d="M297.53,216.1c24.17,0,84.65,7.67,84.65,30.03v5.01l0.47,0.37
		c1.02,0.79,1.96,1.76,1.96,3.32c0,0,0.28,2.95,0.02,6.8c-0.01-0.13-0.02-0.22-0.02-0.22c0-1.56-0.94-2.53-1.96-3.32l-0.47-0.37
		v-5.01c0-22.36-60.48-30.03-84.65-30.03c-0.9,0-11.97-8.72-23.64-16.6v-6.59C285.56,207.38,296.63,216.1,297.53,216.1z"/>
	<defs>
		<filter id="Adobe_OpacityMaskFilter_8_" filterUnits="userSpaceOnUse" x="121.59" y="184.11" width="152.3" height="34.36">
			<feFlood  style="flood-color:white;flood-opacity:1" result="back"/>
			<feBlend  in="SourceGraphic" in2="back" mode="normal"/>
		</filter>
	</defs>
	<mask maskUnits="userSpaceOnUse" x="121.59" y="184.11" width="152.3" height="34.36" id="SVGID_15_">
		<g filter="url(#Adobe_OpacityMaskFilter_8_)">
			<defs>
				<filter id="Adobe_OpacityMaskFilter_9_" filterUnits="userSpaceOnUse" x="121.59" y="184.11" width="152.3" height="34.36">
					<feFlood  style="flood-color:white;flood-opacity:1" result="back"/>
					<feBlend  in="SourceGraphic" in2="back" mode="normal"/>
				</filter>
			</defs>
			<mask maskUnits="userSpaceOnUse" x="121.59" y="184.11" width="152.3" height="34.36" id="SVGID_15_">
			</mask>
			
				<linearGradient id="SVGID_16_" gradientUnits="userSpaceOnUse" x1="1927.1541" y1="201.2899" x2="2079.4585" y2="201.2899" gradientTransform="matrix(-1 0 0 1 2201.0471 0)">
				<stop  offset="0" style="stop-color:#FFFFFF"/>
				<stop  offset="0.1035" style="stop-color:#FAFAFA"/>
				<stop  offset="0.2271" style="stop-color:#EBEBEB"/>
				<stop  offset="0.3611" style="stop-color:#D3D3D3"/>
				<stop  offset="0.5025" style="stop-color:#B2B2B2"/>
				<stop  offset="0.6496" style="stop-color:#868686"/>
				<stop  offset="0.8016" style="stop-color:#515151"/>
				<stop  offset="0.9547" style="stop-color:#141414"/>
				<stop  offset="1" style="stop-color:#000000"/>
			</linearGradient>
			<path mask="url(#SVGID_15_)" fill="url(#SVGID_16_)" d="M157.69,188.43c26.7-6.77,79.36-4.37,93.72-1.06
				c5.44,1.25,14.12,6.47,22.49,12.13v6.59c-8.37-5.65-17.04-10.88-22.49-12.13c-14.36-3.3-67.02-5.7-93.72,1.06
				c-6.71,1.7-27.31,16.28-36.1,23.45v-6.58C130.37,204.72,150.98,190.13,157.69,188.43z"/>
		</g>
	</mask>
	
		<linearGradient id="SVGID_17_" gradientUnits="userSpaceOnUse" x1="1927.1541" y1="201.2899" x2="2079.4585" y2="201.2899" gradientTransform="matrix(-1 0 0 1 2201.0471 0)">
		<stop  offset="0" style="stop-color:#FFFFFF"/>
		<stop  offset="1" style="stop-color:#FFFFFF"/>
	</linearGradient>
	<path opacity="0.8" fill="url(#SVGID_17_)" d="M157.69,188.43c26.7-6.77,79.36-4.37,93.72-1.06c5.44,1.25,14.12,6.47,22.49,12.13
		v6.59c-8.37-5.65-17.04-10.88-22.49-12.13c-14.36-3.3-67.02-5.7-93.72,1.06c-6.71,1.7-27.31,16.28-36.1,23.45v-6.58
		C130.37,204.72,150.98,190.13,157.69,188.43z"/>
	<defs>
		<filter id="Adobe_OpacityMaskFilter_10_" filterUnits="userSpaceOnUse" x="75.82" y="211.89" width="45.76" height="21.33">
			<feFlood  style="flood-color:white;flood-opacity:1" result="back"/>
			<feBlend  in="SourceGraphic" in2="back" mode="normal"/>
		</filter>
	</defs>
	<mask maskUnits="userSpaceOnUse" x="75.82" y="211.89" width="45.76" height="21.33" id="SVGID_18_">
		<g filter="url(#Adobe_OpacityMaskFilter_10_)">
			<defs>
				<filter id="Adobe_OpacityMaskFilter_11_" filterUnits="userSpaceOnUse" x="75.82" y="211.89" width="45.76" height="21.33">
					<feFlood  style="flood-color:white;flood-opacity:1" result="back"/>
					<feBlend  in="SourceGraphic" in2="back" mode="normal"/>
				</filter>
			</defs>
			<mask maskUnits="userSpaceOnUse" x="75.82" y="211.89" width="45.76" height="21.33" id="SVGID_18_">
			</mask>
			
				<linearGradient id="SVGID_19_" gradientUnits="userSpaceOnUse" x1="2079.4585" y1="222.5514" x2="2125.2231" y2="222.5514" gradientTransform="matrix(-1 0 0 1 2201.0471 0)">
				<stop  offset="0" style="stop-color:#FFFFFF"/>
				<stop  offset="0.09" style="stop-color:#E6E6E6"/>
				<stop  offset="0.5452" style="stop-color:#6C6C6C"/>
				<stop  offset="0.8573" style="stop-color:#1E1E1E"/>
				<stop  offset="1" style="stop-color:#000000"/>
			</linearGradient>
			<path mask="url(#SVGID_18_)" fill="url(#SVGID_19_)" d="M121.44,212.01c0.05-0.04,0.1-0.08,0.15-0.12v6.58
				c-0.05,0.04-0.1,0.08-0.15,0.12c-4.54,3.72-39.73,0.88-44.96,14.62c-0.16-0.21-0.3-0.43-0.42-0.67c-0.03-0.07-0.05-0.1-0.05-0.1
				C72.67,212.1,116.34,216.19,121.44,212.01z"/>
		</g>
	</mask>
	
		<linearGradient id="SVGID_20_" gradientUnits="userSpaceOnUse" x1="2079.4585" y1="222.5514" x2="2125.2231" y2="222.5514" gradientTransform="matrix(-1 0 0 1 2201.0471 0)">
		<stop  offset="0" style="stop-color:#FFFFFF"/>
		<stop  offset="1" style="stop-color:#FFFFFF"/>
	</linearGradient>
	<path opacity="0.8" fill="url(#SVGID_20_)" d="M121.44,212.01c0.05-0.04,0.1-0.08,0.15-0.12v6.58c-0.05,0.04-0.1,0.08-0.15,0.12
		c-4.54,3.72-39.73,0.88-44.96,14.62c-0.16-0.21-0.3-0.43-0.42-0.67c-0.03-0.07-0.05-0.1-0.05-0.1
		C72.67,212.1,116.34,216.19,121.44,212.01z"/>
	<g>
		<path d="M297.53,216.1c0,0,24.5,5.76,2.22,14.32c-0.72,0.28-1.45,0.56-2.22,0.52h0c0,0-2.79-2.17-7.06-5.32v-14.84
			C294.74,213.93,297.53,216.1,297.53,216.1z"/>
		<path fill="#709AA3" d="M297.57,216.12c0.72,0.4,10.98,6.36,0.4,14.49c-0.25,0.19-0.61,0.2-0.86,0
			c-5.23-4-25.92-19.54-39.18-25.92c1.33-3.75,3.07-7.85,0.29-14.72c14.81,7.17,38.21,25.26,39.28,26.1
			C297.52,216.09,297.54,216.11,297.57,216.12z"/>
		<path opacity="0.5" fill="#FFFFFF" d="M289.56,210.11c-7.1-2.04-14.92-3.17-23.13-3.17c-1.35,0-2.68,0.04-4.01,0.1
			c-1.56-0.87-3.07-1.66-4.5-2.35c1.32-3.75,3.07-7.85,0.29-14.72C267.87,194.65,281.17,203.97,289.56,210.11z"/>
		<path d="M297.53,230.96c0.2,0,0.39-0.06,0.56-0.19c3.4-2.61,5.02-5.27,4.82-7.92c-0.3-4.04-5.51-6.99-5.58-6.9
			c-0.07,0.09,4.9,3.11,5.18,6.93c0.18,2.5-1.39,5.05-4.67,7.57c-0.18,0.14-0.44,0.14-0.62,0c-5.85-4.47-25.89-19.49-39.06-25.86
			l0.14-0.41c1.29-3.61,2.75-7.69,0.08-14.29c-0.04-0.1-0.16-0.15-0.26-0.11c-0.1,0.04-0.15,0.16-0.11,0.26
			c2.61,6.45,1.18,10.46-0.09,14l-0.21,0.58c-0.03,0.1,0.01,0.2,0.1,0.25c13.13,6.31,33.28,21.42,39.15,25.9
			C297.15,230.9,297.34,230.96,297.53,230.96z"/>
	</g>
	<defs>
		<filter id="Adobe_OpacityMaskFilter_12_" filterUnits="userSpaceOnUse" x="112.48" y="246.13" width="53.01" height="34.64">
			<feFlood  style="flood-color:white;flood-opacity:1" result="back"/>
			<feBlend  in="SourceGraphic" in2="back" mode="normal"/>
		</filter>
	</defs>
	<mask maskUnits="userSpaceOnUse" x="112.48" y="246.13" width="53.01" height="34.64" id="SVGID_21_">
		<g filter="url(#Adobe_OpacityMaskFilter_12_)">
			<defs>
				<filter id="Adobe_OpacityMaskFilter_13_" filterUnits="userSpaceOnUse" x="112.48" y="246.13" width="53.01" height="34.64">
					<feFlood  style="flood-color:white;flood-opacity:1" result="back"/>
					<feBlend  in="SourceGraphic" in2="back" mode="normal"/>
				</filter>
			</defs>
			<mask maskUnits="userSpaceOnUse" x="112.48" y="246.13" width="53.01" height="34.64" id="SVGID_21_">
			</mask>
			
				<linearGradient id="SVGID_22_" gradientUnits="userSpaceOnUse" x1="2062.0635" y1="280.7699" x2="2062.0635" y2="246.1274" gradientTransform="matrix(-1 0 0 1 2201.0471 0)">
				<stop  offset="0.3814" style="stop-color:#000000"/>
				<stop  offset="1" style="stop-color:#FFFFFF"/>
			</linearGradient>
			<path mask="url(#SVGID_21_)" fill="url(#SVGID_22_)" d="M138.98,246.13c14.64,0,26.5,12.52,26.5,27.97c0,2.3-0.27,4.54-0.77,6.68
				h-2.39c0.31-1.76,0.49-3.58,0.49-5.45c0-15.02-10.62-27.2-23.71-27.2c-13.1,0-23.71,12.18-23.71,27.2c0,1.87,0.18,3.69,0.49,5.45
				h-2.65c-0.5-2.14-0.77-4.37-0.77-6.68C112.48,258.65,124.35,246.13,138.98,246.13z"/>
		</g>
	</mask>
	
		<linearGradient id="SVGID_23_" gradientUnits="userSpaceOnUse" x1="2062.0635" y1="280.7699" x2="2062.0635" y2="246.1274" gradientTransform="matrix(-1 0 0 1 2201.0471 0)">
		<stop  offset="0.3814" style="stop-color:#FFFFFF"/>
		<stop  offset="1" style="stop-color:#FFFFFF"/>
	</linearGradient>
	<path fill="url(#SVGID_23_)" d="M138.98,246.13c14.64,0,26.5,12.52,26.5,27.97c0,2.3-0.27,4.54-0.77,6.68h-2.39
		c0.31-1.76,0.49-3.58,0.49-5.45c0-15.02-10.62-27.2-23.71-27.2c-13.1,0-23.71,12.18-23.71,27.2c0,1.87,0.18,3.69,0.49,5.45h-2.65
		c-0.5-2.14-0.77-4.37-0.77-6.68C112.48,258.65,124.35,246.13,138.98,246.13z"/>
	<path fill="#384D52" d="M146.98,231.75l66.57,1.97c-2.01-13.44-4.17-21.56-5.27-25.16c-12.72-0.21-25.02,0.47-34.06,2.5
		c-2.44,0.55-24.26,9.65-26.61,17.61C147.31,229.71,147.11,230.73,146.98,231.75z M246.56,211.63c-9.2-1.37-20.35-2.43-31.56-2.88
		c1.27,4.56,3.24,12.78,5.04,25.16l65.64,1.94c-1.56-2.22-3.5-4.21-5.79-5.85C269.53,222.56,254.41,212.8,246.56,211.63z"/>
	<g>
		<g>
			<path fill="#BCBEC0" d="M221.21,244.4c-0.07,1.58,2.83,3.4,7.52,3.6c4.68,0.2,9.37-1.3,9.44-2.88c0.07-1.58-3.67-3.02-8.36-3.22
				C225.12,241.7,221.28,242.82,221.21,244.4z"/>
			
				<ellipse transform="matrix(0.0422 -0.9991 0.9991 0.0422 -24.0165 463.8036)" fill="#BCBEC0" cx="229.91" cy="244.43" rx="2.71" ry="8.37"/>
			<path opacity="0.5" fill="#FFFFFF" d="M229.89,244.91c-3.27-0.14-6.2-0.6-8.23-1.22c0.64-1.29,4.16-2.15,8.37-1.97
				c4.21,0.18,7.64,1.33,8.17,2.67C236.11,244.83,233.16,245.05,229.89,244.91z"/>
			<path opacity="0.8" fill="#FFFFFF" d="M230,242.32c-3.87-0.16-7.19,0.47-8.4,1.49c0.47-1.35,4.08-2.28,8.43-2.09
				c4.34,0.18,7.87,1.41,8.22,2.8C237.12,243.39,233.87,242.48,230,242.32z"/>
		</g>
		<path fill="#414042" d="M230.01,241.95c2.38,0.1,4.27,1.28,4.23,2.64l-8.67-0.37C225.65,242.87,227.63,241.85,230.01,241.95z"/>
		<path fill="#FFFFFF" d="M234.25,244.59c0,0.01,0,0.01,0,0.02c-0.06,1.37-2.05,2.39-4.45,2.29c-2.4-0.1-4.29-1.29-4.24-2.66
			c0-0.01,0-0.01,0-0.02L234.25,244.59z"/>
		<path fill="#939598" d="M228.38,243.78c3.01,0.22,5.85,0.26,8.34,0.15c0.49-0.02,0.87,0.44,0.83,1l0,0
			c-0.03,0.48-0.37,0.87-0.8,0.89c-2.54,0.11-5.68,0.7-9.48,0.29c-1.77-0.19-2.51-0.74-4.12-0.96c-0.43-0.06-0.74-0.5-0.7-1l0,0
			c0.04-0.54,0.46-0.94,0.93-0.88C224.96,243.48,226.64,243.65,228.38,243.78z"/>
		<g>
			<path fill="#BCBEC0" d="M228.44,243.86c2.99,0.21,5.81,0.27,8.28,0.19c0.48-0.02,0.87,0.4,0.83,0.91l0,0
				c-0.03,0.43-0.37,0.78-0.78,0.79c-2.52,0.08-5.39,0.03-8.45-0.19c-1.76-0.13-3.45-0.3-5.05-0.51c-0.43-0.06-0.73-0.45-0.7-0.9
				l0,0c0.03-0.49,0.45-0.84,0.91-0.78C225.05,243.57,226.71,243.73,228.44,243.86z"/>
			<path fill="#939598" d="M223.09,244.58c1.64,0.21,3.39,0.39,5.21,0.52c3.16,0.23,6.12,0.28,8.72,0.21
				c0.19-0.01,0.37-0.09,0.5-0.2c-0.09,0.36-0.38,0.63-0.75,0.65c-2.52,0.08-5.39,0.03-8.45-0.19c-1.76-0.13-3.45-0.3-5.05-0.51
				c-0.38-0.05-0.64-0.37-0.68-0.75C222.71,244.45,222.88,244.56,223.09,244.58z"/>
			<path fill="#FFFFFF" d="M237.5,244.6c-2.78,0.06-5.94-0.03-9.3-0.27c-1.93-0.14-3.78-0.32-5.54-0.53
				c0.15-0.3,0.47-0.49,0.82-0.44c1.57,0.2,3.23,0.37,4.96,0.49c2.99,0.21,5.81,0.27,8.28,0.19
				C237.09,244.04,237.39,244.27,237.5,244.6C237.5,244.61,237.5,244.6,237.5,244.6z"/>
		</g>
	</g>
	<g>
		<g>
			<path fill="#BCBEC0" d="M160.9,242.65c-0.07,1.58,2.83,3.4,7.52,3.6c4.68,0.2,9.37-1.3,9.44-2.88c0.07-1.58-3.67-3.02-8.36-3.22
				C164.82,239.95,160.97,241.07,160.9,242.65z"/>
			
				<ellipse transform="matrix(0.0422 -0.9991 0.9991 0.0422 -80.0224 401.8759)" fill="#BCBEC0" cx="169.6" cy="242.68" rx="2.71" ry="8.37"/>
			<path opacity="0.5" fill="#FFFFFF" d="M169.58,243.16c-3.27-0.14-6.2-0.6-8.23-1.22c0.64-1.29,4.16-2.15,8.37-1.97
				c4.21,0.18,7.64,1.33,8.17,2.67C175.81,243.08,172.85,243.3,169.58,243.16z"/>
			<path opacity="0.8" fill="#FFFFFF" d="M169.69,240.56c-3.87-0.16-7.19,0.47-8.4,1.49c0.47-1.35,4.08-2.28,8.43-2.09
				c4.34,0.18,7.87,1.41,8.22,2.8C176.81,241.64,173.57,240.73,169.69,240.56z"/>
		</g>
		<path fill="#414042" d="M169.71,240.2c2.38,0.1,4.27,1.28,4.23,2.64l-8.67-0.37C165.34,241.12,167.32,240.1,169.71,240.2z"/>
		<path fill="#FFFFFF" d="M173.94,242.84c0,0.01,0,0.01,0,0.02c-0.06,1.37-2.05,2.39-4.45,2.29c-2.4-0.1-4.29-1.29-4.24-2.66
			c0-0.01,0-0.01,0-0.02L173.94,242.84z"/>
		<path fill="#939598" d="M168.07,242.03c3.01,0.22,5.85,0.26,8.34,0.15c0.49-0.02,0.87,0.44,0.83,1l0,0
			c-0.03,0.48-0.37,0.87-0.8,0.89c-2.54,0.11-5.68,0.7-9.48,0.29c-1.77-0.19-2.51-0.74-4.12-0.96c-0.43-0.06-0.74-0.5-0.7-1l0,0
			c0.04-0.54,0.46-0.94,0.93-0.88C164.66,241.73,166.34,241.9,168.07,242.03z"/>
		<g>
			<path fill="#BCBEC0" d="M168.13,242.1c2.99,0.21,5.81,0.27,8.28,0.19c0.48-0.02,0.87,0.4,0.83,0.91v0
				c-0.03,0.43-0.37,0.78-0.78,0.79c-2.52,0.08-5.39,0.03-8.45-0.19c-1.76-0.13-3.45-0.3-5.05-0.51c-0.43-0.06-0.73-0.45-0.7-0.9
				l0,0c0.03-0.49,0.45-0.84,0.91-0.78C164.74,241.81,166.41,241.98,168.13,242.1z"/>
			<path fill="#939598" d="M162.79,242.83c1.64,0.21,3.39,0.39,5.21,0.52c3.16,0.23,6.12,0.28,8.72,0.21
				c0.19-0.01,0.37-0.09,0.5-0.2c-0.09,0.36-0.38,0.63-0.75,0.65c-2.52,0.08-5.39,0.03-8.45-0.19c-1.76-0.13-3.45-0.3-5.05-0.51
				c-0.38-0.05-0.64-0.37-0.68-0.75C162.41,242.7,162.58,242.8,162.79,242.83z"/>
			<path fill="#FFFFFF" d="M177.19,242.85c-2.78,0.06-5.94-0.03-9.3-0.27c-1.93-0.14-3.78-0.32-5.54-0.53
				c0.15-0.3,0.47-0.49,0.82-0.44c1.57,0.2,3.23,0.37,4.96,0.49c2.99,0.21,5.81,0.27,8.28,0.19
				C176.78,242.29,177.09,242.52,177.19,242.85C177.2,242.85,177.2,242.85,177.19,242.85z"/>
		</g>
	</g>
	<g>
		<path fill="#A7A9AC" d="M171.47,265.25h131.69c0.59,0,4.62,0.31,4.62,0.69c0,0.38-4.03,1.23-4.62,1.23H170.14
			c-0.59,0-3.29-0.85-3.29-1.23C166.85,265.55,170.89,265.25,171.47,265.25z"/>
		<g>
			<path fill="#FFFFFF" d="M171.47,265.25h131.69c0.59,0,4.62,0.31,4.62,0.69c0,0.38-4.03,0.69-4.62,0.69H171.47
				c-0.59,0-4.62-0.31-4.62-0.69C166.85,265.55,170.89,265.25,171.47,265.25z"/>
			<path fill="#939598" d="M169.2,266.04h136.25c0.29,0,1.27-0.05,2.34-0.13c0,0.01,0.01,0.01,0.01,0.02c0,0.38-4.03,0.69-4.62,0.69
				H171.47c-0.59,0-4.62-0.31-4.62-0.69c0-0.01,0-0.01,0.01-0.02C167.93,266,168.9,266.04,169.2,266.04z"/>
		</g>
	</g>
	<g>
		<path fill="#A7A9AC" d="M93.12,265.25h11.14c1.05,0,8.22,0.31,8.22,0.69c0,0.38-7.17,1.23-8.22,1.23h-13.5
			c-1.05,0-5.86-0.85-5.86-1.23C84.9,265.55,92.08,265.25,93.12,265.25z"/>
		<g>
			<path fill="#FFFFFF" d="M93.12,265.25h11.14c1.05,0,8.22,0.31,8.22,0.69c0,0.38-7.17,0.69-8.22,0.69H93.12
				c-1.05,0-8.22-0.31-8.22-0.69C84.9,265.55,92.08,265.25,93.12,265.25z"/>
			<path fill="#939598" d="M89.07,266.04h19.24c0.52,0,2.26-0.05,4.16-0.13c0,0.01,0.01,0.01,0.01,0.02c0,0.38-7.17,0.69-8.22,0.69
				H93.12c-1.05,0-8.22-0.31-8.22-0.69c0-0.01,0.01-0.01,0.01-0.02C86.81,266,88.55,266.04,89.07,266.04z"/>
		</g>
	</g>
	<g>
		<g>
			<path fill="#384D52" d="M146.53,194.15c-2.69,5.85-2.39,10.71-1.79,13.55c-8.55,5.1-19.92,13.29-26.28,18.39
				c-1.54-3.89-1.81-10.47,3.27-14.32C127.26,206.73,137.56,199.3,146.53,194.15z"/>
		</g>
		<g opacity="0.5">
			<path fill="#FFFFFF" d="M146.53,194.15c-2.69,5.85-2.39,10.71-1.79,13.55c-1.16,0.69-2.38,1.45-3.63,2.24
				c-4.47-1.57-9.16-2.48-13.88-2.76C132.81,202.83,140.02,197.89,146.53,194.15z"/>
		</g>
		<path d="M118.47,226.29c0.04,0,0.09-0.02,0.12-0.04c6.39-5.13,17.76-13.31,26.26-18.37c0.07-0.04,0.11-0.13,0.09-0.21
			c-0.64-2.98-0.83-7.93,1.79-13.62c0.05-0.1-0.05-0.09-0.16-0.09c-0.17,0-0.18,0.02-0.22,0.12c-2.62,5.71-2.46,10.49-1.83,13.53
			c-8.4,5.02-19.56,13.04-25.96,18.16c-3.43-10.05,3.41-14.03,3.34-14.12c-0.07-0.09-0.48,0.18-0.57,0.24
			c-5.52,4.18-4.4,10.84-3.05,14.28c0.02,0.06,0.07,0.1,0.13,0.12C118.43,226.29,118.45,226.29,118.47,226.29z"/>
	</g>
	<g>
		<path d="M382.16,245.46c0,0,0.15,4.71-2.64,7.2c-3.08,2.75-6.66,1.39-6.66,1.39l3.99,8.89l-0.27,1.35
			C381.2,264.98,385.65,253.8,382.16,245.46z"/>
		<path d="M376.8,264.26c7.5-1.62,0.31-12.92-8.72-13.72C351.77,249.11,373.06,265.07,376.8,264.26z"/>
		<path fill="#BCBEC0" d="M374.97,262.61c6.25-1.2,0.33-10.79-7.21-10.94C356.48,251.45,371.85,263.21,374.97,262.61z"/>
		<path fill="#BCBEC0" d="M374.31,261.89c-0.59,0.11-1.7-0.29-2.96-0.99v-7.64C376.05,255.32,378.73,261.05,374.31,261.89z"/>
		<ellipse fill="#F1F2F2" cx="371.38" cy="257.09" rx="1.66" ry="3.99"/>
	</g>
	<defs>
		<filter id="Adobe_OpacityMaskFilter_14_" filterUnits="userSpaceOnUse" x="307.79" y="246.13" width="53.01" height="34.64">
			<feFlood  style="flood-color:white;flood-opacity:1" result="back"/>
			<feBlend  in="SourceGraphic" in2="back" mode="normal"/>
		</filter>
	</defs>
	<mask maskUnits="userSpaceOnUse" x="307.79" y="246.13" width="53.01" height="34.64" id="SVGID_24_">
		<g filter="url(#Adobe_OpacityMaskFilter_14_)">
			<defs>
				<filter id="Adobe_OpacityMaskFilter_15_" filterUnits="userSpaceOnUse" x="307.79" y="246.13" width="53.01" height="34.64">
					<feFlood  style="flood-color:white;flood-opacity:1" result="back"/>
					<feBlend  in="SourceGraphic" in2="back" mode="normal"/>
				</filter>
			</defs>
			<mask maskUnits="userSpaceOnUse" x="307.79" y="246.13" width="53.01" height="34.64" id="SVGID_24_">
			</mask>
			
				<linearGradient id="SVGID_25_" gradientUnits="userSpaceOnUse" x1="1866.755" y1="280.7699" x2="1866.755" y2="246.1274" gradientTransform="matrix(-1 0 0 1 2201.0471 0)">
				<stop  offset="0.3814" style="stop-color:#000000"/>
				<stop  offset="1" style="stop-color:#FFFFFF"/>
			</linearGradient>
			<path mask="url(#SVGID_24_)" fill="url(#SVGID_25_)" d="M334.29,246.13c14.64,0,26.5,12.52,26.5,27.97c0,2.3-0.27,4.54-0.77,6.68
				h-2.52c0.31-1.76,0.49-3.58,0.49-5.45c0-15.02-10.62-27.2-23.71-27.2c-13.1,0-23.71,12.18-23.71,27.2c0,1.87,0.18,3.69,0.49,5.45
				h-2.52c-0.5-2.14-0.77-4.37-0.77-6.68C307.79,258.65,319.65,246.13,334.29,246.13z"/>
		</g>
	</mask>
	
		<linearGradient id="SVGID_26_" gradientUnits="userSpaceOnUse" x1="1866.755" y1="280.7699" x2="1866.755" y2="246.1274" gradientTransform="matrix(-1 0 0 1 2201.0471 0)">
		<stop  offset="0.3814" style="stop-color:#FFFFFF"/>
		<stop  offset="1" style="stop-color:#FFFFFF"/>
	</linearGradient>
	<path fill="url(#SVGID_26_)" d="M334.29,246.13c14.64,0,26.5,12.52,26.5,27.97c0,2.3-0.27,4.54-0.77,6.68h-2.52
		c0.31-1.76,0.49-3.58,0.49-5.45c0-15.02-10.62-27.2-23.71-27.2c-13.1,0-23.71,12.18-23.71,27.2c0,1.87,0.18,3.69,0.49,5.45h-2.52
		c-0.5-2.14-0.77-4.37-0.77-6.68C307.79,258.65,319.65,246.13,334.29,246.13z"/>
	<g>
		<path d="M166.68,272.09c-1.81-19.32-13.15-23.55-20.66-26.35c-1.38-0.51-2.29-1.8-2.33-3.29c-0.03-1.04-0.06-2.03-0.1-2.99
			c-0.16-4.12-0.29-7.69,0.75-11.31c2.49-8.63,25.58-18.39,27.85-18.91c18.76-4.31,52.14-2.96,75.41,0.6
			c9.26,1.42,27.42,14.19,34.79,19.62c7.3,5.37,11.37,14.32,10.62,23.36c-0.95,11.56-2.91,25.34-6.83,25.34H173.33
			C169.86,278.16,167,275.55,166.68,272.09z M172.29,209.63c-2.25,0.52-25.11,10.15-27.56,18.63c-1.03,3.56-0.89,7.09-0.74,11.18
			c0.04,0.96,0.07,1.95,0.1,3c0.03,1.32,0.84,2.47,2.07,2.92c7.6,2.83,19.09,7.11,20.92,26.68c0.3,3.26,2.99,5.71,6.25,5.71H286.2
			c2.82,0,5.1-8.87,6.43-24.97c0.73-8.9-3.27-17.72-10.46-23.01c-7.35-5.41-25.44-18.15-34.62-19.55
			c-13.02-1.99-29.21-3.29-44.22-3.29C191.56,206.95,180.51,207.74,172.29,209.63z"/>
		<path d="M220.5,277.97l0.4-0.02c-1.75-43.48-7.79-65.44-9.6-71.13l-0.38,0.12C212.72,212.63,218.75,234.54,220.5,277.97z"/>
	</g>
	<path opacity="0.5" fill="#FFFFFF" d="M154.39,221.14c10.04-0.81,20.77-1.24,31.93-1.24c8.6,0,16.95,0.26,24.93,0.75
		c-1.21-5.88-2.3-9.84-2.98-12.07c-12.72-0.21-25.02,0.47-34.06,2.5C172.55,211.44,161.77,215.84,154.39,221.14z M246.56,211.63
		c-9.2-1.37-20.35-2.43-31.56-2.88c0.77,2.75,1.78,6.83,2.87,12.35c29.11,2.31,52.41,7.72,63.26,14.62l4.55,0.13
		c-1.56-2.22-3.5-4.21-5.79-5.85C269.53,222.56,254.41,212.8,246.56,211.63z"/>
	<g>
		<path d="M146.59,231.71c-0.01,0.11,0.02,0.22,0.09,0.31c0.07,0.09,0.18,0.14,0.29,0.14l66.06,1.96c0,0,0,0,0,0l7.35,0.22h0.01
			l65.28,1.93h0.01c0.15,0,0.28-0.08,0.35-0.21c0.07-0.13,0.06-0.3-0.03-0.42c-1.62-2.31-3.6-4.31-5.88-5.95
			c-7.1-5.1-24.56-17.11-33.5-18.45c-9.59-1.43-20.81-2.45-31.61-2.88c-0.13-0.01-0.25,0.05-0.33,0.15
			c-0.08,0.1-0.11,0.23-0.07,0.36c1.29,4.63,3.19,12.65,4.96,24.64l-5.68-0.17c-2-13.28-4.14-21.31-5.24-24.91
			c-0.05-0.16-0.19-0.26-0.35-0.26c-14.01-0.23-25.83,0.64-34.17,2.51c-2.48,0.56-24.46,9.6-26.9,17.89
			C146.93,229.57,146.72,230.59,146.59,231.71z M215.53,209.18c10.6,0.44,21.57,1.45,30.97,2.85c5.88,0.88,15.6,6.52,23.5,11.68
			c3.34,2.18,5.47,5.79,5.78,9.76c0.07,0.93-0.69,1.68-1.62,1.65l-53.75-1.59h0l-0.01,0C218.67,221.86,216.83,213.92,215.53,209.18z
			 M165.03,231.89l-1.25-15.88c5.07-2.57,9.6-4.34,10.53-4.55c8.22-1.84,19.85-2.71,33.68-2.5c1.11,3.7,3.17,11.55,5.1,24.35
			L165.03,231.89z M154.52,221.51c2.58-1.86,5.59-3.61,8.49-5.11l1.22,15.46l-12.2-0.36c-0.77-0.02-1.39-0.62-1.45-1.38
			C150.32,226.76,151.79,223.48,154.52,221.51z"/>
		<g>
			<defs>
				<filter id="Adobe_OpacityMaskFilter_16_" filterUnits="userSpaceOnUse" x="256.44" y="227.57" width="18.18" height="10.36">
					<feFlood  style="flood-color:white;flood-opacity:1" result="back"/>
					<feBlend  in="SourceGraphic" in2="back" mode="normal"/>
				</filter>
			</defs>
			<mask maskUnits="userSpaceOnUse" x="256.44" y="227.57" width="18.18" height="10.36" id="SVGID_27_">
				<g filter="url(#Adobe_OpacityMaskFilter_16_)">
					<defs>
						<filter id="Adobe_OpacityMaskFilter_17_" filterUnits="userSpaceOnUse" x="256.44" y="227.57" width="18.18" height="10.36">
							<feFlood  style="flood-color:white;flood-opacity:1" result="back"/>
							<feBlend  in="SourceGraphic" in2="back" mode="normal"/>
						</filter>
					</defs>
					<mask maskUnits="userSpaceOnUse" x="256.44" y="227.57" width="18.18" height="10.36" id="SVGID_27_">
					</mask>
					
						<linearGradient id="SVGID_28_" gradientUnits="userSpaceOnUse" x1="1951.4156" y1="89.9788" x2="1951.4156" y2="79.9231" gradientTransform="matrix(-1.0093 -0.0121 0.0121 1.0407 2234.0632 167.9504)">
						<stop  offset="0" style="stop-color:#000000"/>
						<stop  offset="0.371" style="stop-color:#5C5C5C"/>
						<stop  offset="1" style="stop-color:#FFFFFF"/>
					</linearGradient>
					<path mask="url(#SVGID_27_)" fill="url(#SVGID_28_)" d="M256.55,235.81c0.79,2.31,5.44,2.81,10.4,1.12
						c4.96-1.69,8.34-4.93,7.55-7.24c-0.79-2.31-5.44-2.81-10.4-1.12C259.15,230.25,255.76,233.5,256.55,235.81z"/>
				</g>
			</mask>
			
				<linearGradient id="SVGID_29_" gradientUnits="userSpaceOnUse" x1="1951.4156" y1="89.9788" x2="1951.4156" y2="79.9231" gradientTransform="matrix(-1.0093 -0.0121 0.0121 1.0407 2234.0632 167.9504)">
				<stop  offset="0" style="stop-color:#FFFFFF"/>
				<stop  offset="1" style="stop-color:#FFFFFF"/>
			</linearGradient>
			<path opacity="0.8" fill="url(#SVGID_29_)" d="M256.55,235.81c0.79,2.31,5.44,2.81,10.4,1.12c4.96-1.69,8.34-4.93,7.55-7.24
				c-0.79-2.31-5.44-2.81-10.4-1.12C259.15,230.25,255.76,233.5,256.55,235.81z"/>
			<g>
				<path fill="#939598" d="M275.82,228.46l-8.86,12.61c-0.87,1.23-1.37,2.73-1.35,4.04l0,0c0.03,2.19,1.77,2.93,3.56,1.51
					C273.87,242.89,281.06,235.54,275.82,228.46z"/>
				<g>
					<path fill="#75C5BC" d="M275.74,228.46l-9.81,7.41c-0.96,0.73-1.53,1.86-1.53,3.06l0,0c0,2.02,1.88,3.5,3.84,3.04
						C273.41,240.76,281.32,237.38,275.74,228.46z"/>
					<path fill="#1FA4FE" d="M275.74,228.46l-9.81,7.41c-0.96,0.73-1.53,1.86-1.53,3.06l0,0c0,2.02,1.88,3.5,3.84,3.04
						C273.41,240.76,281.32,237.38,275.74,228.46z"/>
					<path fill="#BCBEC0" d="M267.39,240.02c4.31-0.98,10.45-3.36,9.7-8.88c2.56,6.93-4.23,9.74-8.84,10.83
						c-1.86,0.44-3.63-0.87-3.82-2.72C265.18,239.94,266.27,240.27,267.39,240.02z"/>
					<defs>
						<filter id="Adobe_OpacityMaskFilter_18_" filterUnits="userSpaceOnUse" x="264.41" y="228.46" width="11.65" height="10.49">
							<feFlood  style="flood-color:white;flood-opacity:1" result="back"/>
							<feBlend  in="SourceGraphic" in2="back" mode="normal"/>
						</filter>
					</defs>
					<mask maskUnits="userSpaceOnUse" x="264.41" y="228.46" width="11.65" height="10.49" id="SVGID_30_">
						<g filter="url(#Adobe_OpacityMaskFilter_18_)">
							<defs>
								
									<filter id="Adobe_OpacityMaskFilter_19_" filterUnits="userSpaceOnUse" x="264.41" y="228.46" width="11.65" height="10.49">
									<feFlood  style="flood-color:white;flood-opacity:1" result="back"/>
									<feBlend  in="SourceGraphic" in2="back" mode="normal"/>
								</filter>
							</defs>
							<mask maskUnits="userSpaceOnUse" x="264.41" y="228.46" width="11.65" height="10.49" id="SVGID_30_">
							</mask>
							
								<linearGradient id="SVGID_31_" gradientUnits="userSpaceOnUse" x1="1929.4509" y1="235.7298" x2="1931.4098" y2="233.118" gradientTransform="matrix(-1 0 0 1 2201.0471 0)">
								<stop  offset="0" style="stop-color:#000000"/>
								<stop  offset="0.1247" style="stop-color:#040404"/>
								<stop  offset="0.2501" style="stop-color:#101010"/>
								<stop  offset="0.3759" style="stop-color:#242424"/>
								<stop  offset="0.5022" style="stop-color:#414141"/>
								<stop  offset="0.6287" style="stop-color:#656565"/>
								<stop  offset="0.7555" style="stop-color:#929292"/>
								<stop  offset="0.8801" style="stop-color:#C6C6C6"/>
								<stop  offset="1" style="stop-color:#FFFFFF"/>
							</linearGradient>
							<path mask="url(#SVGID_30_)" fill="url(#SVGID_31_)" d="M275.74,228.46l-9.81,7.41c-0.96,0.73-1.53,1.86-1.53,3.06l0,0
								C267.96,239.25,277.94,232.66,275.74,228.46z"/>
						</g>
					</mask>
					
						<linearGradient id="SVGID_32_" gradientUnits="userSpaceOnUse" x1="1929.4509" y1="235.7298" x2="1931.4098" y2="233.118" gradientTransform="matrix(-1 0 0 1 2201.0471 0)">
						<stop  offset="0" style="stop-color:#FFFFFF"/>
						<stop  offset="1" style="stop-color:#FFFFFF"/>
					</linearGradient>
					<path opacity="0.8" fill="url(#SVGID_32_)" d="M275.74,228.46l-9.81,7.41c-0.96,0.73-1.53,1.86-1.53,3.06l0,0
						C267.96,239.25,277.94,232.66,275.74,228.46z"/>
				</g>
				<path fill="#939598" d="M273.95,237.4c2.08-1.41,3.52-3.42,3.13-6.26c1.81,4.89-1.05,7.73-4.5,9.36
					c0.01-0.14,0.01-0.27,0.01-0.41C272.58,239.02,273.06,238.01,273.95,237.4z"/>
			</g>
		</g>
	</g>
	<path d="M144.73,228.26c2.45-8.48,25.3-18.11,27.56-18.63c8.22-1.89,19.27-2.69,31.04-2.69c2.52,0,5.07,0.04,7.63,0.11
		c1.84,5.83,7.78,27.68,9.54,70.71h-47.16c-3.26,0-5.95-2.46-6.25-5.71c-1.83-19.57-13.32-23.85-20.92-26.68
		c-1.22-0.46-2.03-1.6-2.07-2.92c-0.03-1.04-0.06-2.04-0.1-3C143.84,235.35,143.71,231.82,144.73,228.26z"/>
	<g>
		<path fill="#3C2415" d="M220.49,277.76h-47.16c-3.26,0-5.95-2.46-6.25-5.71c-1.15-12.27-6.09-18.53-11.49-22.19h62.98
			C219.38,257.94,220.06,267.21,220.49,277.76z"/>
		<path d="M195.41,254.49c0.64,8.09-0.98,16.13-4.46,23.27h-17.62c-3.26,0-5.95-2.46-6.25-5.71c-1.15-12.27-6.09-18.53-11.49-22.19
			h34.74C192.96,249.86,195.2,251.86,195.41,254.49z"/>
	</g>
	<path fill="#384D52" d="M165.97,212.21c3.2-1.47,5.65-2.42,6.32-2.57c8.22-1.89,19.27-2.69,31.04-2.69c1.38,0,3.23,4.42,4.5,9.06
		l-41.34-0.41L165.97,212.21z"/>
	<g>
		<g>
			<path fill="#1E120B" d="M208.37,224.82v5.27c0,1.94-1.99,10.42-15.48,10.42l-21.49-3.19l-0.51-6.77l13.55,0.28l14.41-1.45
				L208.37,224.82z"/>
			<path fill="#603913" d="M170.89,230.54c4.46-0.16,8.56-0.46,12.26-0.84c0.22,0.42,0.53,0.81,0.89,0.81
				c0.8,0,13.61-1.43,14.18-1.75c0.34-0.19,0.42-0.87,0.42-1.4c6.15-1.27,9.72-2.54,9.72-2.54c-0.82,4.21-14.22,5.53-17.37,6
				c-3.15,0.47-18.42,0.75-19.38,0.6C170.92,231.3,170.76,230.55,170.89,230.54z"/>
		</g>
	</g>
	<path fill="#754C29" d="M208.42,220.14l-41.88-1.83c0,0,2.34,2.4,21.11,4.06C202.09,223.66,210.58,224.52,208.42,220.14z"/>
	<g>
		<path fill="#C2B59B" d="M159.96,215.14c-0.48,11.73,8.01,11.28,12.16,23.52c0,0,0,0,0,0c3.94-1.02,8.59-1.83,13.47-1.83
			c8.09,0.01,6.65,21.27,6.65,21.27c-0.9,10.46-8.24,12.22-12.41,12.22H173c-11.69-24.69-21.46-20.66-22.05-34.41
			C150.33,221.51,159.96,215.14,159.96,215.14z"/>
		<g>
			<path fill="#D1D3D4" d="M159.93,215.16c-0.41,3.6-0.31,8.78,2.9,11.51c3.53,3,9.19,12.44,9.19,12.44s11.36-2.97,14.18-1.78
				c5.49,2.31,3.47,19.77,0.95,23.53c-2.52,3.76-14.21,1.95-14.21,1.95s3.04-5.08-11.2-14.45c-7.25-7.44-5.95-13.98-10.73-16.22
				C151.99,220.82,159.39,215.53,159.93,215.16z"/>
			<path fill="#939598" d="M159.96,215.14c-0.03,0.68-0.02,1.31,0.01,1.91c-4.11,3.32-7.27,8.07-7.27,13.97
				c0,6.06,2.16,9.27,7.84,16.77c0.88,1.17,1.9,2.23,3.01,3.18c5.76,4.91,9.59,9.18,8.89,11.97c1.25,0.45,2.84,1.43,3.97,2.62
				c2.27,2.38-0.75,3.12,1.13,4.76H173c-11.68-24.69-21.46-20.66-22.05-34.41C150.33,221.51,159.96,215.14,159.96,215.14z"/>
			<path fill="#939598" d="M159.96,215.14c-0.18,4.48,0.94,7.18,2.63,9.49c-1.29,2.8-8.03,0.89-11.64,11.28
				C150.33,221.51,159.96,215.14,159.96,215.14z"/>
			<path fill="#BCBEC0" d="M172.02,239.11c0,0,11.36-2.97,14.18-1.78c2.43,1.02,3.39,5.02,3.48,9.49
				c-6.89-2.17-15.46-1.87-22.03,1.42C168.18,241.4,172.02,239.11,172.02,239.11z"/>
			<path fill="#BCBEC0" d="M167.31,252.49c0.16,0.14,0.32,0.28,0.48,0.42c-1.33-10.52,4.23-13.8,4.23-13.8s6.9-1.8,11.28-2.04
				c-6.85,3.69-11.28,8.24-11.87,19.8C170.54,255.61,169.23,254.15,167.31,252.49z"/>
			<path opacity="0.5" fill="#FFFFFF" d="M189.25,259.24c0,0-1.49,3.25-2.52,4c-2.45,1.8-9.36,1.04-9.55,1.27
				c-0.19,0.24,0.64,3.38,4.63,3.57C185.8,268.28,190.68,264.66,189.25,259.24z"/>
			<path fill="#A7A9AC" d="M156.3,218.69c4.11,13.42,6.29,7.77,13.96,22.11c-1.5,1.91-3.29,5.64-2.47,12.11
				c-1.55-1.38-3.52-2.9-6.04-4.56c-7.25-7.44-5.95-13.98-10.73-16.22C151.56,225.86,154.07,221.44,156.3,218.69z"/>
			<path fill="#BCBEC0" d="M171.23,237.83c0.49,0.79,0.79,1.28,0.79,1.28s-5.56,3.28-4.23,13.8c-1.55-1.38-3.52-2.9-6.04-4.56
				c-7.25-7.44-5.95-13.98-10.73-16.22C155.18,230.3,160.82,241.41,171.23,237.83z"/>
		</g>
	</g>
	<linearGradient id="SVGID_33_" gradientUnits="userSpaceOnUse" x1="143.8878" y1="242.3537" x2="220.4883" y2="242.3537">
		<stop  offset="0" style="stop-color:#FFFFFF"/>
		<stop  offset="1" style="stop-color:#FFFFFF"/>
	</linearGradient>
	<path opacity="0.8" fill="url(#SVGID_33_)" d="M143.99,239.44c0.04,0.96,0.07,1.95,0.1,3c0.03,1.32,0.84,2.47,2.07,2.92
		c7.6,2.83,19.09,7.11,20.92,26.68c0.3,3.26,2.99,5.71,6.25,5.71h47.16c-1.75-43.03-7.7-64.88-9.54-70.71
		c-2.56-0.07-5.11-0.11-7.63-0.11c-11.77,0-22.81,0.8-31.04,2.69c-2.25,0.52-25.11,10.15-27.56,18.63
		C143.71,231.82,143.84,235.35,143.99,239.44z M149.01,228.69c0-8.27,22.89-16.93,24.93-17.42c7.44-1.77,17.43-2.51,28.08-2.51
		c0.82,0,1.65,0,2.48,0.01c2.67,0.03,4.97,1.87,5.62,4.46c2.26,8.99,6.12,28.68,7.42,61.73h-34.55c-3.94,0-7.54-2.3-9.43-5.96
		C161.25,245.12,149.01,234.55,149.01,228.69z"/>
	<path fill="#6D6E71" d="M144.73,228.26c-1.03,3.56-0.89,7.09-0.74,11.18c0.04,0.96,0.07,1.95,0.1,3c0.03,1.32,0.84,2.47,2.07,2.92
		c7.6,2.83,19.09,7.11,20.92,26.68c0.3,3.26,2.99,5.71,6.25,5.71h47.16c-1.75-43.03-7.7-64.88-9.54-70.71
		c-2.56-0.07-5.11-0.11-7.63-0.11c-11.77,0-22.81,0.8-31.04,2.69C170.04,210.15,147.18,219.78,144.73,228.26z M145.5,228.48
		c2.31-8.02,24.85-17.59,26.97-18.07c7.6-1.74,18.27-2.67,30.86-2.67c2.22,0,4.59,0.03,7.03,0.09c1.95,6.38,7.55,27.9,9.3,69.12
		h-46.32c-2.85,0-5.19-2.14-5.46-4.99c-1.88-20.07-13.65-24.46-21.44-27.36c-0.92-0.34-1.52-1.2-1.55-2.19
		c-0.03-1.04-0.06-2.04-0.1-3.01c0,0,0,0,0,0C144.64,235.39,144.51,231.92,145.5,228.48z"/>
	<path fill="#FFE6C8" d="M148.44,229.21c0-8.42,22.71-17.23,24.74-17.72c0.04-0.01,0.09-0.02,0.13-0.03
		c-4.23,1.4-24.29,9.48-24.29,17.23c0,5.86,12.24,16.43,24.56,40.31c1.89,3.66,5.49,5.96,9.43,5.96h33.39
		c0.02,0.45,0.04,0.89,0.06,1.34h-34.28c-3.91,0-7.48-2.34-9.35-6.07C160.59,245.93,148.44,235.18,148.44,229.21z"/>
	<path fill="#D1D3D4" d="M210.12,213.23c-0.65-2.59-2.95-4.43-5.62-4.46c-0.83-0.01-1.66-0.01-2.48-0.01
		c-10.65,0-20.64,0.75-28.08,2.51c-2.04,0.48-24.93,9.15-24.93,17.42c0,2.11,1.59,4.83,4.19,8.56c-3.1,1.71-6.13,3.52-9.08,5.45
		c-0.01-0.09-0.02-0.17-0.03-0.26c-0.03-1.04-0.06-2.04-0.1-3c-0.15-4.09-0.29-7.62,0.74-11.18c2.45-8.48,25.3-18.11,27.56-18.63
		c8.22-1.89,19.27-2.69,31.04-2.69c2.52,0,5.07,0.04,7.63,0.11c0.63,2,1.75,5.9,3.01,11.89c-0.83,0.07-1.66,0.14-2.49,0.22
		C210.99,216.84,210.53,214.86,210.12,213.23z"/>
	<g>
		<g>
			<path fill="#754C29" d="M201.23,248.79c0,0-6.99,9.43-6.2,15.65c0.92,7.21,5.91,20.8,7.98,21.43c2.08,0.64,3.92,0.44,3.92,0.44
				s5.23-17.1,5.12-21.29S201.23,248.79,201.23,248.79z"/>
			<path fill="#939598" d="M212.05,265.02c0.11,4.18-5.12,21.29-5.12,21.29s-1.26,0.13-2.86-0.18c-2.26-4.24-5.8-17.45-6.55-24.98
				c-0.26-2.61,0.35-5.68,1.26-8.59c1.3-2.23,2.44-3.77,2.44-3.77S211.94,260.83,212.05,265.02z"/>
		</g>
		<g>
			<path fill="#BFA17A" d="M206.58,242.15c0,0-9.99,8.12-7.87,18.13c2.09,9.85,4.64,27.16,6.72,28.24c2.08,1.08,4.94,1.18,4.94,1.18
				s5.23-28.96,5.12-36.04C215.39,246.57,206.58,242.15,206.58,242.15z"/>
			<path fill="#939598" d="M206.58,242.15c0,0,8.8,4.42,8.91,11.5c0.1,6.58-4.4,32.03-5.04,35.61l-0.25,0.42
				c-0.3-0.02-0.97-0.07-1.79-0.22c0.16-6.45-0.43-20.03-7.59-25.28c-1.29-0.94-2-4.02-2.33-8.04
				C199.24,248.13,206.58,242.15,206.58,242.15z"/>
		</g>
		<path d="M209.27,213.05c0.41-0.49,1.54-0.88,1.76-0.31c2,5.26,8.77,24.98,8.77,35.34c0,16.91-2.33,30.45-2.33,30.45l-7.2,12.61
			c-0.33,0.54-1.18-0.83-1.15-1.44c0.23-6-0.01-20.29-7.74-25.79c-4.43-3.15-2.33-30.63-0.68-36.88
			C201.98,222.16,207.09,215.66,209.27,213.05z"/>
		<path fill="#1FA4FE" d="M211.15,211.89c0,0,10.75,24.12,10.75,36.2c0,16.91-3.75,30.45-3.75,30.45l-7.83,13.03
			c-0.1,0.17-0.4,0.1-0.39-0.08c0.28-4.06,0.96-21.77-7.47-27.95c-4.31-3.15-2.23-30.24-0.62-36.49
			C203.45,220.8,211.15,211.89,211.15,211.89z"/>
		<path fill="#709AA3" d="M211.65,215.23c1.68,4.02,4.93,12.15,7.19,20.06l-16.94,22.09c-1.04-9.77,0-23.78,1.35-28.67
			C204.33,224.81,208.74,218.89,211.65,215.23z"/>
		<path opacity="0.5" fill="#FFFFFF" d="M201.62,242.53c0.27-5.87,0.91-11.18,1.64-13.82c1.08-3.9,5.49-9.82,8.4-13.48
			c1.08,2.58,2.82,6.88,4.51,11.71C209.25,230.3,204.82,236,201.62,242.53z"/>
		<path fill="#D1D3D4" d="M210.08,287.19l8.98-12.48c-0.52,2.44-0.91,3.83-0.91,3.83l-7.83,13.03c-0.1,0.17-0.4,0.1-0.38-0.08
			C210,290.6,210.07,289.08,210.08,287.19z"/>
		<g>
			<path d="M206.52,251.24l0.44-0.04c-1.51-10.44-4.51-16.03-4.54-16.08l-0.41,0.12C202.05,235.3,205.02,240.85,206.52,251.24z"/>
			<polygon points="201.83,248.67 203.39,255.45 201.9,257.38 201.49,249.76 			"/>
			<path d="M201.79,257.77c-0.15-0.04-0.26-0.18-0.28-0.34c-1.01-9.55-0.08-23.58,1.36-28.82c0.83-3.02,3.68-7.6,8.47-13.63
				c0.09-0.11,0.22-0.16,0.35-0.14c0.13,0.02,0.25,0.11,0.3,0.24c1.72,4.09,4.93,12.14,7.21,20.11c0.04,0.12,0.01,0.26-0.07,0.36
				l-16.94,22.09c-0.07,0.1-0.19,0.15-0.3,0.15C201.86,257.78,201.83,257.78,201.79,257.77z M211.55,215.99
				c-4.42,5.61-7.15,10.04-7.92,12.83c-1.23,4.45-2.32,17.7-1.43,27.54l16.23-21.16C216.2,227.51,213.04,219.6,211.55,215.99z"/>
		</g>
		<linearGradient id="SVGID_34_" gradientUnits="userSpaceOnUse" x1="201.3885" y1="251.0291" x2="221.1767" y2="251.0291">
			<stop  offset="0" style="stop-color:#FFFFFF"/>
			<stop  offset="1" style="stop-color:#FFFFFF"/>
		</linearGradient>
		<path opacity="0.8" fill="url(#SVGID_34_)" d="M220.26,237.48c0.35,1.4,0.67,2.78,0.92,4.11l-17.49,22.98
			c-0.39-0.37-0.79-0.73-1.22-1.05c-0.42-0.31-0.77-0.84-1.08-1.55L220.26,237.48z"/>
		<g>
			<path fill="#FFFFFF" d="M220.72,265.1c1.04,0.46,0.89,1.45,0.19,2.71l-9.67,12.95c-0.37,0.49-1.2,0.11-1.2,0.11
				c-0.05-0.46,0.59-2.1,0.86-2.46L220.72,265.1z"/>
			<path fill="#939598" d="M210.97,280.35l10.48-14.03c-0.04,0.43-0.23,0.94-0.54,1.5l-9.67,12.95c-0.37,0.49-1.2,0.11-1.2,0.11
				c-0.01-0.06,0-0.14,0.01-0.23C210.37,280.69,210.74,280.65,210.97,280.35z"/>
		</g>
		<g>
			<path fill="#BCBEC0" d="M208.8,264.17c0.35,2.19,1.85,3.13,3.44,1.38c1.74-1.91,3.04-5.23,3.1-8.29
				c0.05-2.21-2.27-2.42-3.98-0.49C209.65,258.69,208.45,261.97,208.8,264.17z"/>
			<path d="M208.98,263.76c0.33,2.08,2.1,2.25,3.85,0.41c1.76-1.86,2.61-5.21,2.28-7.29c-0.33-2.08-1.97-2.22-3.66-0.32
				C209.75,258.45,208.65,261.68,208.98,263.76z"/>
			
				<ellipse transform="matrix(0.3876 -0.9218 0.9218 0.3876 -109.872 354.9851)" fill="#BCBEC0" cx="212.24" cy="260.19" rx="5.43" ry="2.5"/>
			<path fill="#E6E7E8" d="M212.35,260.85c-1.2,1.35-2.35,2.09-3.22,2.19c-0.07-2.06,0.98-4.89,2.52-6.62
				c1.54-1.73,3.04-1.76,3.54-0.18C214.55,257.83,213.55,259.51,212.35,260.85z"/>
			
				<linearGradient id="SVGID_35_" gradientUnits="userSpaceOnUse" x1="1986.5397" y1="259.6544" x2="1989.902" y2="259.6544" gradientTransform="matrix(-1 0 0 1 2201.0471 0)">
				<stop  offset="0" style="stop-color:#F1F2F2"/>
				<stop  offset="0.1228" style="stop-color:#E3E4E4"/>
				<stop  offset="0.355" style="stop-color:#BFBFC0"/>
				<stop  offset="0.672" style="stop-color:#848385"/>
				<stop  offset="0.9944" style="stop-color:#414042"/>
			</linearGradient>
			<path fill="url(#SVGID_35_)" d="M212.28,256.22c0.87-0.98,1.82-0.25,2.13,1.62c0,0.01,0,0.02,0.01,0.03
				c0.3,1.9-0.17,4.24-1.05,5.22s-1.83,0.25-2.14-1.65c0-0.01,0-0.02,0-0.03C210.94,259.52,211.41,257.2,212.28,256.22z"/>
			<path fill="#6D6E71" d="M211.15,260.51c0.2-0.24,2.16-0.6,3.06-3.51c0.07-0.23,0.88,1.99,0.74,2.22
				c-0.88,1.35-0.89,2.79-3.31,4.84c-0.67,0.57-1.07,0.17-1.69,0.62c-0.17,0.12-0.38-0.34-0.48-1.04l0-0.01
				c-0.11-0.76-0.06-1.5,0.12-1.64C210.19,261.55,210.57,261.21,211.15,260.51z"/>
			<path fill="#D1D3D4" d="M211.15,260.51c1.09,0.12,3.44-1.19,3.06-3.51c0.13-0.18,0.25-0.35,0.37-0.53
				c0.32-0.03,0.7,0.14,0.7,0.14c0.33,4.86-4.35,7.26-5.26,7.55c-0.21,0.07-0.37-0.28-0.46-0.91l0-0.01
				c-0.1-0.68-0.03-1.36,0.14-1.5C210.1,261.41,210.51,261.15,211.15,260.51z"/>
			<path fill="#FFFFFF" d="M211.15,260.51c1.09,0.12,3.44-1.19,3.06-3.51c0.13-0.18,0.25-0.35,0.37-0.53
				c0.32-0.03,0.7,0.14,0.7,0.14c-0.33,4.8-5.75,5.28-5.58,5.13C210.1,261.41,210.51,261.15,211.15,260.51z"/>
			<path fill="#808285" d="M209.65,263.68c0.09,0.35,0.22,0.53,0.38,0.48c0.83-0.26,4.8-2.3,5.23-6.36
				C214.48,261.45,210.68,263.33,209.65,263.68z"/>
		</g>
	</g>
	<g>
		<g>
			<g>
				<path fill="#BE1E2D" d="M405.03,173h6.63c12.21,0,22.11,11.43,22.11,25.53c0,14.1-9.9,60.49-22.11,60.49h-6.63
					c-12.21,0-22.11-46.39-22.11-60.49C382.92,184.43,392.82,173,405.03,173z"/>
				<g>
					<path fill="#ED1C24" d="M405.03,173c-12.21,0-22.11,11.43-22.11,25.53c0,14.1,9.9,60.49,22.11,60.49s22.11-46.39,22.11-60.49
						C427.14,184.43,417.24,173,405.03,173z"/>
				</g>
			</g>
			<g>
				<path fill="#D1D3D4" d="M405.33,177.97c-9.76,0-17.68,9.14-17.68,20.42c0,11.27,7.92,34.67,17.68,34.67
					c9.76,0,17.68-23.4,17.68-34.67C423.01,187.11,415.09,177.97,405.33,177.97z"/>
			</g>
			<g>
				<path fill="#D1D3D4" d="M401.62,177.97h3.71c9.76,0,17.68,9.14,17.68,20.42c0,11.27-7.92,20.42-17.68,20.42h-3.71
					c-9.76,0-17.68-9.14-17.68-20.42C383.94,187.11,391.85,177.97,401.62,177.97z"/>
				<g>
					<ellipse fill="#F1F2F2" cx="401.62" cy="198.39" rx="17.68" ry="20.42"/>
				</g>
			</g>
		</g>
	</g>
</g>
</svg>
