<svg xmlns="http://www.w3.org/2000/svg" width="385.634" height="61.557" viewBox="0 0 385.634 61.557">
  <g id="Group_9386" data-name="Group 9386" transform="translate(-57.183 -226.691)">
    <g id="Group_9347" data-name="Group 9347">
      <path id="Path_13142" data-name="Path 13142" d="M403.385,272.177l-5.278.279-.737.039-.921,11.473.369-.017,7.17-.381Zm-2.175,3.9a1.288,1.288,0,1,1,1.22-1.357A1.286,1.286,0,0,1,401.21,276.073Z"/>
      <path id="Path_13143" data-name="Path 13143" d="M404.677,273.338l4.105-1.443s4.347-1.314,6.862.252c0,0,9.334,3.324,10.409,4.551,0,0,5.119,4.256-5.271,3.188a4.113,4.113,0,0,1-.518-.088c-1.067-.255-5.128-1.237-5.962-1.631,0,0,5.436,2.765,9.093,3.073a4.131,4.131,0,0,0,1.036-.044c1.321-.225,4.654-1.326,3.473-4.269,0,0,10.033-4.621,14.258-5.2,0,0,4.665.561-10.9,9.683a22.144,22.144,0,0,0-2.214,1.478c-2.094,1.594-7.8,5.255-13.1,2.547,0,0-6.281-3.63-10.8-3.1Z"/>
      <path id="Path_13144" data-name="Path 13144" d="M427.273,276.582s10.6-4.489,11.238-4.685c0,0-.956-2.582-4.233-.6l-7.416,4.5Z"/>
      <path id="Path_13145" data-name="Path 13145" d="M424.377,274.429l.751.463s4.441-3.669,5.084-3.784c0,0,.018-.5-1.235-.165Z"/>
      <path id="Path_13146" data-name="Path 13146" d="M425.794,275.046l.465.6s6.461-4.668,7.872-4.58c0,0-.311-1.278-2.182-.343Z"/>
    </g>
    <path id="Path_13147" data-name="Path 13147" d="M434.6,233.247s-13.248-14.6-28.826-.228a12.064,12.064,0,0,0-2.417,3.091c-2.76,5.064-8.628,19.694,8.711,29.732a6.244,6.244,0,0,0,.715.353c2.529,1.058,15.662,5.714,24.832-7.2,0,0,7.181-8.3,1.956-17.507a17.657,17.657,0,0,0-1.3-1.969s-4.156-4.889-11.246,1.549c0,0-6.763,6.845-7.66,8.474,0,0-7.986-5.948-11.327-5.541,0,0,11.246,12.259,11.164,14.6,0,0,11.164-22.1,17.032-17.7,0,0,6.193,5.052-.245,15.645,0,0-6.519,11.083-20.372,7.09s-14.668-21.6-8.8-27.38C406.814,236.262,417.154,222.653,434.6,233.247Z"/>
    <g id="Group_9385" data-name="Group 9385">
      <g id="Group_9348" data-name="Group 9348">
        <path id="Path_13148" data-name="Path 13148" d="M67.023,273.758l-4.3,7.6-4.28-7.6h-.98l4.83,8.38v5.65h.88v-5.65l4.83-8.38Z"/>
        <path id="Path_13149" data-name="Path 13149" d="M66.923,273.6l-4.2,7.43-4.18-7.43h-1.36l4.95,8.59v5.76h1.2v-5.76l4.95-8.59ZM63,282.1v5.52h-.54V282.1l-4.71-8.17h.59l4.38,7.77,4.4-7.77h.59l-4.68,8.13Z"/>
      </g>
      <g id="Group_9349" data-name="Group 9349">
        <path id="Path_13150" data-name="Path 13150" d="M78.943,277.938a7.3,7.3,0,0,0-1.12-2.31,5.5,5.5,0,0,0-1.76-1.57,5.071,5.071,0,0,0-4.71,0,5.637,5.637,0,0,0-1.77,1.57,7.506,7.506,0,0,0-1.11,2.31,10.572,10.572,0,0,0,0,5.69,7.4,7.4,0,0,0,1.11,2.31,5.484,5.484,0,0,0,1.77,1.56,5.15,5.15,0,0,0,4.71,0,5.35,5.35,0,0,0,1.76-1.56,7.2,7.2,0,0,0,1.12-2.31,10.572,10.572,0,0,0,0-5.69Zm-5.23,9.39a3.831,3.831,0,0,1-1.97-.51,4.69,4.69,0,0,1-1.48-1.4,7.206,7.206,0,0,1-.94-2.08,10.36,10.36,0,0,1,0-5.11,7.206,7.206,0,0,1,.94-2.08,4.839,4.839,0,0,1,1.48-1.41,4.01,4.01,0,0,1,3.95,0,4.657,4.657,0,0,1,1.49,1.41,6.948,6.948,0,0,1,.94,2.08,10.056,10.056,0,0,1,0,5.11,6.949,6.949,0,0,1-.94,2.08,4.52,4.52,0,0,1-1.49,1.4A3.842,3.842,0,0,1,73.713,287.328Z"/>
        <path id="Path_13151" data-name="Path 13151" d="M78.283,278.188a7.164,7.164,0,0,0-.96-2.13,4.973,4.973,0,0,0-1.54-1.46,4.021,4.021,0,0,0-2.07-.54,3.923,3.923,0,0,0-2.05.54,4.942,4.942,0,0,0-1.53,1.46,6.921,6.921,0,0,0-.96,2.13,10.073,10.073,0,0,0,0,5.19,6.921,6.921,0,0,0,.96,2.13,4.8,4.8,0,0,0,1.53,1.45,3.923,3.923,0,0,0,2.05.54,4.021,4.021,0,0,0,2.07-.54,4.827,4.827,0,0,0,1.54-1.45,7.051,7.051,0,0,0,.96-2.13,10.073,10.073,0,0,0,0-5.19Zm-4.57,8.98a3.684,3.684,0,0,1-1.88-.49,4.48,4.48,0,0,1-1.43-1.35,7.2,7.2,0,0,1-.92-2.04,9.965,9.965,0,0,1,0-5.01,7.009,7.009,0,0,1,.92-2.03,4.547,4.547,0,0,1,1.43-1.37,3.588,3.588,0,0,1,1.88-.49,3.685,3.685,0,0,1,1.9.49,4.578,4.578,0,0,1,1.44,1.37,6.742,6.742,0,0,1,.91,2.03,9.672,9.672,0,0,1,0,5.01,6.8,6.8,0,0,1-.91,2.04,4.511,4.511,0,0,1-1.44,1.35A3.785,3.785,0,0,1,73.713,287.168Zm4.57-8.98a7.164,7.164,0,0,0-.96-2.13,4.973,4.973,0,0,0-1.54-1.46,4.021,4.021,0,0,0-2.07-.54,3.923,3.923,0,0,0-2.05.54,4.942,4.942,0,0,0-1.53,1.46,6.921,6.921,0,0,0-.96,2.13,10.073,10.073,0,0,0,0,5.19,6.921,6.921,0,0,0,.96,2.13,4.8,4.8,0,0,0,1.53,1.45,3.923,3.923,0,0,0,2.05.54,4.021,4.021,0,0,0,2.07-.54,4.827,4.827,0,0,0,1.54-1.45,7.051,7.051,0,0,0,.96-2.13,10.073,10.073,0,0,0,0-5.19Zm-4.57,8.98a3.684,3.684,0,0,1-1.88-.49,4.48,4.48,0,0,1-1.43-1.35,7.2,7.2,0,0,1-.92-2.04,9.965,9.965,0,0,1,0-5.01,7.009,7.009,0,0,1,.92-2.03,4.547,4.547,0,0,1,1.43-1.37,3.588,3.588,0,0,1,1.88-.49,3.685,3.685,0,0,1,1.9.49,4.578,4.578,0,0,1,1.44,1.37,6.742,6.742,0,0,1,.91,2.03,9.672,9.672,0,0,1,0,5.01,6.8,6.8,0,0,1-.91,2.04,4.511,4.511,0,0,1-1.44,1.35A3.785,3.785,0,0,1,73.713,287.168Zm5.39-9.27a7.56,7.56,0,0,0-1.14-2.37,5.589,5.589,0,0,0-1.82-1.61,5.241,5.241,0,0,0-4.87,0,5.707,5.707,0,0,0-1.82,1.61,7.56,7.56,0,0,0-1.14,2.37,10.3,10.3,0,0,0-.4,2.89,10.4,10.4,0,0,0,.4,2.89,7.613,7.613,0,0,0,1.14,2.36,5.675,5.675,0,0,0,1.82,1.6,5.32,5.32,0,0,0,4.87,0,5.558,5.558,0,0,0,1.82-1.6,7.613,7.613,0,0,0,1.14-2.36,10.64,10.64,0,0,0,0-5.78Zm-5.4,10a4.7,4.7,0,0,1-2.27-.54,5.258,5.258,0,0,1-1.71-1.51,7.265,7.265,0,0,1-1.1-2.27,10.469,10.469,0,0,1,0-5.59,7.209,7.209,0,0,1,1.1-2.26,5.176,5.176,0,0,1,1.71-1.52,4.9,4.9,0,0,1,4.55,0,5.276,5.276,0,0,1,1.71,1.52,7.193,7.193,0,0,1,1.09,2.26,9.767,9.767,0,0,1,.39,2.8,9.648,9.648,0,0,1-.39,2.79,7.249,7.249,0,0,1-1.09,2.27,5.362,5.362,0,0,1-1.71,1.51A4.741,4.741,0,0,1,73.7,287.9Zm4.58-4.52a10.073,10.073,0,0,0,0-5.19,7.164,7.164,0,0,0-.96-2.13,4.973,4.973,0,0,0-1.54-1.46,4.021,4.021,0,0,0-2.07-.54,3.923,3.923,0,0,0-2.05.54,4.942,4.942,0,0,0-1.53,1.46,6.921,6.921,0,0,0-.96,2.13,10.073,10.073,0,0,0,0,5.19,6.921,6.921,0,0,0,.96,2.13,4.8,4.8,0,0,0,1.53,1.45,3.923,3.923,0,0,0,2.05.54,4.021,4.021,0,0,0,2.07-.54,4.827,4.827,0,0,0,1.54-1.45A7.051,7.051,0,0,0,78.283,283.378Zm-4.57,3.79a3.684,3.684,0,0,1-1.88-.49,4.48,4.48,0,0,1-1.43-1.35,7.2,7.2,0,0,1-.92-2.04,9.965,9.965,0,0,1,0-5.01,7.009,7.009,0,0,1,.92-2.03,4.547,4.547,0,0,1,1.43-1.37,3.588,3.588,0,0,1,1.88-.49,3.685,3.685,0,0,1,1.9.49,4.578,4.578,0,0,1,1.44,1.37,6.742,6.742,0,0,1,.91,2.03,9.672,9.672,0,0,1,0,5.01,6.8,6.8,0,0,1-.91,2.04,4.511,4.511,0,0,1-1.44,1.35A3.785,3.785,0,0,1,73.713,287.168Zm4.57-8.98a7.164,7.164,0,0,0-.96-2.13,4.973,4.973,0,0,0-1.54-1.46,4.021,4.021,0,0,0-2.07-.54,3.923,3.923,0,0,0-2.05.54,4.942,4.942,0,0,0-1.53,1.46,6.921,6.921,0,0,0-.96,2.13,10.073,10.073,0,0,0,0,5.19,6.921,6.921,0,0,0,.96,2.13,4.8,4.8,0,0,0,1.53,1.45,3.923,3.923,0,0,0,2.05.54,4.021,4.021,0,0,0,2.07-.54,4.827,4.827,0,0,0,1.54-1.45,7.051,7.051,0,0,0,.96-2.13,10.073,10.073,0,0,0,0-5.19Zm-4.57,8.98a3.684,3.684,0,0,1-1.88-.49,4.48,4.48,0,0,1-1.43-1.35,7.2,7.2,0,0,1-.92-2.04,9.965,9.965,0,0,1,0-5.01,7.009,7.009,0,0,1,.92-2.03,4.547,4.547,0,0,1,1.43-1.37,3.588,3.588,0,0,1,1.88-.49,3.685,3.685,0,0,1,1.9.49,4.578,4.578,0,0,1,1.44,1.37,6.742,6.742,0,0,1,.91,2.03,9.672,9.672,0,0,1,0,5.01,6.8,6.8,0,0,1-.91,2.04,4.511,4.511,0,0,1-1.44,1.35A3.785,3.785,0,0,1,73.713,287.168Zm4.57-8.98a7.164,7.164,0,0,0-.96-2.13,4.973,4.973,0,0,0-1.54-1.46,4.021,4.021,0,0,0-2.07-.54,3.923,3.923,0,0,0-2.05.54,4.942,4.942,0,0,0-1.53,1.46,6.921,6.921,0,0,0-.96,2.13,10.073,10.073,0,0,0,0,5.19,6.921,6.921,0,0,0,.96,2.13,4.8,4.8,0,0,0,1.53,1.45,3.923,3.923,0,0,0,2.05.54,4.021,4.021,0,0,0,2.07-.54,4.827,4.827,0,0,0,1.54-1.45,7.051,7.051,0,0,0,.96-2.13,10.073,10.073,0,0,0,0-5.19Zm-4.57,8.98a3.684,3.684,0,0,1-1.88-.49,4.48,4.48,0,0,1-1.43-1.35,7.2,7.2,0,0,1-.92-2.04,9.965,9.965,0,0,1,0-5.01,7.009,7.009,0,0,1,.92-2.03,4.547,4.547,0,0,1,1.43-1.37,3.588,3.588,0,0,1,1.88-.49,3.685,3.685,0,0,1,1.9.49,4.578,4.578,0,0,1,1.44,1.37,6.742,6.742,0,0,1,.91,2.03,9.672,9.672,0,0,1,0,5.01,6.8,6.8,0,0,1-.91,2.04,4.511,4.511,0,0,1-1.44,1.35A3.785,3.785,0,0,1,73.713,287.168Z"/>
      </g>
      <g id="Group_9350" data-name="Group 9350">
        <path id="Path_13152" data-name="Path 13152" d="M90.423,273.758v8.39a10.61,10.61,0,0,1-.2,2.23,4.385,4.385,0,0,1-.65,1.63,2.826,2.826,0,0,1-1.24.99,4.917,4.917,0,0,1-1.93.33,4.865,4.865,0,0,1-1.92-.33,2.77,2.77,0,0,1-1.22-.99,4.23,4.23,0,0,1-.66-1.63,11.323,11.323,0,0,1-.2-2.23v-8.39h-.88v8.28a12.5,12.5,0,0,0,.25,2.59,4.952,4.952,0,0,0,.82,1.89,3.542,3.542,0,0,0,1.5,1.16,7.066,7.066,0,0,0,4.63,0,3.512,3.512,0,0,0,1.51-1.16,4.8,4.8,0,0,0,.82-1.89,11.852,11.852,0,0,0,.25-2.59v-8.28Z"/>
        <path id="Path_13153" data-name="Path 13153" d="M90.263,273.6v8.55a11.006,11.006,0,0,1-.2,2.2,4.139,4.139,0,0,1-.63,1.57,2.673,2.673,0,0,1-1.16.93,4.794,4.794,0,0,1-1.87.32,4.688,4.688,0,0,1-1.85-.32,2.732,2.732,0,0,1-1.16-.93,4.307,4.307,0,0,1-.63-1.57,11.06,11.06,0,0,1-.19-2.2V273.6h-1.21v8.44a12.806,12.806,0,0,0,.25,2.62,5.162,5.162,0,0,0,.85,1.96,3.7,3.7,0,0,0,1.57,1.21,6.148,6.148,0,0,0,2.37.4,6.255,6.255,0,0,0,2.39-.4,3.584,3.584,0,0,0,1.57-1.21,5.011,5.011,0,0,0,.85-1.96,12.1,12.1,0,0,0,.26-2.62V273.6Zm.88,8.44a12.033,12.033,0,0,1-.25,2.55,4.79,4.79,0,0,1-.79,1.83,3.4,3.4,0,0,1-1.44,1.11,5.972,5.972,0,0,1-2.26.37,5.863,5.863,0,0,1-2.24-.37,3.365,3.365,0,0,1-1.43-1.11,4.642,4.642,0,0,1-.79-1.83,11.412,11.412,0,0,1-.25-2.55v-8.11h.55v8.22a11.829,11.829,0,0,0,.2,2.27,4.792,4.792,0,0,0,.68,1.69,3.031,3.031,0,0,0,1.3,1.04,4.945,4.945,0,0,0,1.98.35,5.118,5.118,0,0,0,2-.35,2.973,2.973,0,0,0,1.3-1.04,4.62,4.62,0,0,0,.69-1.69,11.829,11.829,0,0,0,.2-2.27v-8.22h.55Z"/>
      </g>
      <g id="Group_9351" data-name="Group 9351">
        <path id="Path_13154" data-name="Path 13154" d="M99.583,281.5h.1a3.753,3.753,0,0,0,2.74-1.14,3.793,3.793,0,0,0,.76-1.23,4.119,4.119,0,0,0,.27-1.5,4.061,4.061,0,0,0-.26-1.49,3.643,3.643,0,0,0-.74-1.23,3.727,3.727,0,0,0-1.18-.84,3.8,3.8,0,0,0-1.53-.31h-5.86v14.03h.83V281.5h3.88l3.95,6.29h.97Zm-4.87-6.96h4.98a2.773,2.773,0,0,1,1.2.25,2.838,2.838,0,0,1,.92.67,2.952,2.952,0,0,1,.56.98,3.505,3.505,0,0,1,0,2.39,3.056,3.056,0,0,1-.56.98,2.837,2.837,0,0,1-.92.67,2.926,2.926,0,0,1-1.2.25h-4.98Z"/>
        <path id="Path_13155" data-name="Path 13155" d="M102.533,276.378a3.1,3.1,0,0,0-.6-1.03,2.928,2.928,0,0,0-2.24-.97h-5.14v6.51h5.14a2.928,2.928,0,0,0,2.24-.97,3.206,3.206,0,0,0,.6-1.03,3.855,3.855,0,0,0,0-2.51Zm-2.84,4.18h-4.81v-5.85h4.81a2.642,2.642,0,0,1,1.14.23,2.693,2.693,0,0,1,.85.63,2.9,2.9,0,0,1,.54.92,3.288,3.288,0,0,1,.19,1.14,3.345,3.345,0,0,1-.19,1.15,2.9,2.9,0,0,1-.54.92,2.693,2.693,0,0,1-.85.63A2.8,2.8,0,0,1,99.693,280.558Zm2.84-4.18a3.1,3.1,0,0,0-.6-1.03,2.928,2.928,0,0,0-2.24-.97h-5.14v6.51h5.14a2.928,2.928,0,0,0,2.24-.97,3.206,3.206,0,0,0,.6-1.03,3.855,3.855,0,0,0,0-2.51Zm-2.84,4.18h-4.81v-5.85h4.81a2.642,2.642,0,0,1,1.14.23,2.693,2.693,0,0,1,.85.63,2.9,2.9,0,0,1,.54.92,3.288,3.288,0,0,1,.19,1.14,3.345,3.345,0,0,1-.19,1.15,2.9,2.9,0,0,1-.54.92,2.693,2.693,0,0,1-.85.63A2.8,2.8,0,0,1,99.693,280.558Zm.19,1.1a3.916,3.916,0,0,0,1.41-.31,3.835,3.835,0,0,0,2.05-2.16,4.452,4.452,0,0,0,.28-1.56,4.392,4.392,0,0,0-.27-1.55,3.9,3.9,0,0,0-.78-1.28,3.744,3.744,0,0,0-1.23-.88,3.975,3.975,0,0,0-1.6-.32h-6.03v14.35h1.17v-6.28H98.5l3.94,6.28h1.37Zm-5.33,5.96h-.51v-13.69h5.7a3.624,3.624,0,0,1,1.46.29,3.515,3.515,0,0,1,1.12.8,3.635,3.635,0,0,1,.72,1.18,4.17,4.17,0,0,1,.25,1.43,4,4,0,0,1-.26,1.44,3.511,3.511,0,0,1-.73,1.17,3.351,3.351,0,0,1-1.15.8,3.545,3.545,0,0,1-1.47.3h-.4l3.94,6.28h-.59l-3.94-6.28h-4.14Zm6.41-6.99a3.046,3.046,0,0,0,.97-.71,3.206,3.206,0,0,0,.6-1.03,3.855,3.855,0,0,0,0-2.51,3.1,3.1,0,0,0-.6-1.03,2.928,2.928,0,0,0-2.24-.97h-5.14v6.51h5.14A3.066,3.066,0,0,0,100.963,280.628Zm-6.08-5.92h4.81a2.642,2.642,0,0,1,1.14.23,2.693,2.693,0,0,1,.85.63,2.9,2.9,0,0,1,.54.92,3.288,3.288,0,0,1,.19,1.14,3.345,3.345,0,0,1-.19,1.15,2.9,2.9,0,0,1-.54.92,2.693,2.693,0,0,1-.85.63,2.8,2.8,0,0,1-1.14.23h-4.81Zm7.65,1.67a3.1,3.1,0,0,0-.6-1.03,2.928,2.928,0,0,0-2.24-.97h-5.14v6.51h5.14a2.928,2.928,0,0,0,2.24-.97,3.206,3.206,0,0,0,.6-1.03,3.855,3.855,0,0,0,0-2.51Zm-2.84,4.18h-4.81v-5.85h4.81a2.642,2.642,0,0,1,1.14.23,2.693,2.693,0,0,1,.85.63,2.9,2.9,0,0,1,.54.92,3.288,3.288,0,0,1,.19,1.14,3.345,3.345,0,0,1-.19,1.15,2.9,2.9,0,0,1-.54.92,2.693,2.693,0,0,1-.85.63A2.8,2.8,0,0,1,99.693,280.558Zm2.84-4.18a3.1,3.1,0,0,0-.6-1.03,2.928,2.928,0,0,0-2.24-.97h-5.14v6.51h5.14a2.928,2.928,0,0,0,2.24-.97,3.206,3.206,0,0,0,.6-1.03,3.855,3.855,0,0,0,0-2.51Zm-2.84,4.18h-4.81v-5.85h4.81a2.642,2.642,0,0,1,1.14.23,2.693,2.693,0,0,1,.85.63,2.9,2.9,0,0,1,.54.92,3.288,3.288,0,0,1,.19,1.14,3.345,3.345,0,0,1-.19,1.15,2.9,2.9,0,0,1-.54.92,2.693,2.693,0,0,1-.85.63A2.8,2.8,0,0,1,99.693,280.558Z"/>
      </g>
      <g id="Group_9352" data-name="Group 9352">
        <path id="Path_13156" data-name="Path 13156" d="M120.753,276.188a3.6,3.6,0,0,0-.75-1.25,3.487,3.487,0,0,0-1.17-.86,3.643,3.643,0,0,0-1.53-.32h-5.87v14.03h.84v-6.17h5.03a3.5,3.5,0,0,0,1.53-.32,3.461,3.461,0,0,0,1.17-.85,3.691,3.691,0,0,0,.75-1.25,4.486,4.486,0,0,0,0-3.01Zm-8.48-1.65h4.98a2.773,2.773,0,0,1,1.2.25,2.617,2.617,0,0,1,.91.69,3.042,3.042,0,0,1,.57,1.01,3.437,3.437,0,0,1,.2,1.2h-.02a3.454,3.454,0,0,1-.2,1.21,3.041,3.041,0,0,1-.57,1.01,2.579,2.579,0,0,1-.9.69,2.845,2.845,0,0,1-1.19.25h-4.98Z"/>
        <path id="Path_13157" data-name="Path 13157" d="M120.093,276.428a3.465,3.465,0,0,0-.6-1.06,2.823,2.823,0,0,0-.97-.73,2.946,2.946,0,0,0-1.27-.26h-5.14v6.63h5.14a2.986,2.986,0,0,0,1.26-.26,2.812,2.812,0,0,0,.96-.74,3.3,3.3,0,0,0,.6-1.05,4.044,4.044,0,0,0,.21-1.1h.02v-.17A3.786,3.786,0,0,0,120.093,276.428Zm-.14,1.26a3.555,3.555,0,0,1-.19,1.15,3.1,3.1,0,0,1-.54.96,2.475,2.475,0,0,1-.85.65,2.668,2.668,0,0,1-1.12.23h-4.81v-5.97h4.81a2.567,2.567,0,0,1,1.13.23,2.4,2.4,0,0,1,.86.64,3.184,3.184,0,0,1,.72,1.95Zm.14-1.26a3.465,3.465,0,0,0-.6-1.06,2.823,2.823,0,0,0-.97-.73,2.946,2.946,0,0,0-1.27-.26h-5.14v6.63h5.14a2.986,2.986,0,0,0,1.26-.26,2.812,2.812,0,0,0,.96-.74,3.3,3.3,0,0,0,.6-1.05,4.044,4.044,0,0,0,.21-1.1h.02v-.17A3.786,3.786,0,0,0,120.093,276.428Zm-.14,1.26a3.555,3.555,0,0,1-.19,1.15,3.1,3.1,0,0,1-.54.96,2.475,2.475,0,0,1-.85.65,2.668,2.668,0,0,1-1.12.23h-4.81v-5.97h4.81a2.567,2.567,0,0,1,1.13.23,2.4,2.4,0,0,1,.86.64,3.184,3.184,0,0,1,.72,1.95Zm.96-1.56a4.06,4.06,0,0,0-.78-1.3,3.715,3.715,0,0,0-2.83-1.23h-6.03v14.35h1.17v-6.16h4.86a3.673,3.673,0,0,0,1.6-.34,3.923,3.923,0,0,0,1.23-.89,4.171,4.171,0,0,0,.78-1.3,4.544,4.544,0,0,0,.27-1.57A4.488,4.488,0,0,0,120.913,276.128Zm-3.61,5.33h-5.19v6.16h-.51v-13.69h5.7a3.378,3.378,0,0,1,2.58,1.12,3.681,3.681,0,0,1,.72,1.19,4.373,4.373,0,0,1,.25,1.45,4.329,4.329,0,0,1-.25,1.45,3.838,3.838,0,0,1-.72,1.2,3.5,3.5,0,0,1-1.12.81A3.354,3.354,0,0,1,117.3,281.458Zm2.98-3.6h.02v-.17a3.786,3.786,0,0,0-.21-1.26,3.465,3.465,0,0,0-.6-1.06,2.823,2.823,0,0,0-.97-.73,2.946,2.946,0,0,0-1.27-.26h-5.14v6.63h5.14a2.986,2.986,0,0,0,1.26-.26,2.812,2.812,0,0,0,.96-.74,3.3,3.3,0,0,0,.6-1.05A4.044,4.044,0,0,0,120.283,277.858Zm-3.03,2.82h-4.81v-5.97h4.81a2.567,2.567,0,0,1,1.13.23,2.4,2.4,0,0,1,.86.64,3.184,3.184,0,0,1,.72,1.95l-.01.16a3.555,3.555,0,0,1-.19,1.15,3.1,3.1,0,0,1-.54.96,2.475,2.475,0,0,1-.85.65A2.668,2.668,0,0,1,117.253,280.678Zm2.84-4.25a3.465,3.465,0,0,0-.6-1.06,2.823,2.823,0,0,0-.97-.73,2.946,2.946,0,0,0-1.27-.26h-5.14v6.63h5.14a2.986,2.986,0,0,0,1.26-.26,2.812,2.812,0,0,0,.96-.74,3.3,3.3,0,0,0,.6-1.05,4.044,4.044,0,0,0,.21-1.1h.02v-.17A3.786,3.786,0,0,0,120.093,276.428Zm-.14,1.26a3.555,3.555,0,0,1-.19,1.15,3.1,3.1,0,0,1-.54.96,2.475,2.475,0,0,1-.85.65,2.668,2.668,0,0,1-1.12.23h-4.81v-5.97h4.81a2.567,2.567,0,0,1,1.13.23,2.4,2.4,0,0,1,.86.64,3.184,3.184,0,0,1,.72,1.95Zm.14-1.26a3.465,3.465,0,0,0-.6-1.06,2.823,2.823,0,0,0-.97-.73,2.946,2.946,0,0,0-1.27-.26h-5.14v6.63h5.14a2.986,2.986,0,0,0,1.26-.26,2.812,2.812,0,0,0,.96-.74,3.3,3.3,0,0,0,.6-1.05,4.044,4.044,0,0,0,.21-1.1h.02v-.17A3.786,3.786,0,0,0,120.093,276.428Zm-.14,1.26a3.555,3.555,0,0,1-.19,1.15,3.1,3.1,0,0,1-.54.96,2.475,2.475,0,0,1-.85.65,2.668,2.668,0,0,1-1.12.23h-4.81v-5.97h4.81a2.567,2.567,0,0,1,1.13.23,2.4,2.4,0,0,1,.86.64,3.184,3.184,0,0,1,.72,1.95Z"/>
      </g>
      <g id="Group_9353" data-name="Group 9353">
        <path id="Path_13158" data-name="Path 13158" d="M123.783,287.048v-6.22h5.75v-.78h-5.75V274.5h7.57v-.74h-8.44v14.03h8.84v-.74Z"/>
        <path id="Path_13159" data-name="Path 13159" d="M123.953,286.888v-5.9h5.75v-1.11h-5.75v-5.21h7.56V273.6h-8.77v14.35h9.17v-1.06Zm7.63.73h-8.51v-13.69h8.11v.41h-7.56v5.87h5.75v.45h-5.75v6.56h7.96Z"/>
      </g>
      <g id="Group_9354" data-name="Group 9354">
        <path id="Path_13160" data-name="Path 13160" d="M139.533,281.5h.1a3.639,3.639,0,0,0,1.53-.31,3.533,3.533,0,0,0,1.2-.83,3.819,3.819,0,0,0,.77-1.23,4.119,4.119,0,0,0,.27-1.5,4.28,4.28,0,0,0-.26-1.49,3.512,3.512,0,0,0-.75-1.23,3.619,3.619,0,0,0-2.7-1.15h-5.87v14.03h.84V281.5h3.88l3.94,6.29h.98Zm-4.87-6.96h4.98a2.765,2.765,0,0,1,2.11.92,2.81,2.81,0,0,1,.57.98,3.67,3.67,0,0,1,0,2.39,2.9,2.9,0,0,1-.57.98,2.8,2.8,0,0,1-.91.67,2.926,2.926,0,0,1-1.2.25h-4.98Z"/>
        <path id="Path_13161" data-name="Path 13161" d="M142.473,276.378a2.942,2.942,0,0,0-.6-1.03,2.862,2.862,0,0,0-.96-.71,2.946,2.946,0,0,0-1.27-.26h-5.15v6.51h5.15a3.1,3.1,0,0,0,1.27-.26,3,3,0,0,0,.96-.71,3.034,3.034,0,0,0,.6-1.03,3.855,3.855,0,0,0,0-2.51Zm-2.83,4.18h-4.82v-5.85h4.82a2.592,2.592,0,0,1,1.99.86,2.7,2.7,0,0,1,.53.92,3.287,3.287,0,0,1,.19,1.14,3.344,3.344,0,0,1-.19,1.15,2.705,2.705,0,0,1-.53.92,2.736,2.736,0,0,1-.86.63A2.783,2.783,0,0,1,139.643,280.558Zm2.83-4.18a2.942,2.942,0,0,0-.6-1.03,2.862,2.862,0,0,0-.96-.71,2.946,2.946,0,0,0-1.27-.26h-5.15v6.51h5.15a3.1,3.1,0,0,0,1.27-.26,3,3,0,0,0,.96-.71,3.034,3.034,0,0,0,.6-1.03,3.855,3.855,0,0,0,0-2.51Zm-2.83,4.18h-4.82v-5.85h4.82a2.592,2.592,0,0,1,1.99.86,2.7,2.7,0,0,1,.53.92,3.287,3.287,0,0,1,.19,1.14,3.344,3.344,0,0,1-.19,1.15,2.705,2.705,0,0,1-.53.92,2.736,2.736,0,0,1-.86.63A2.783,2.783,0,0,1,139.643,280.558Zm.18,1.1a3.824,3.824,0,0,0,1.41-.31,3.765,3.765,0,0,0,1.25-.88,4.016,4.016,0,0,0,.8-1.28,4.236,4.236,0,0,0,.28-1.56,4.392,4.392,0,0,0-.27-1.55,3.9,3.9,0,0,0-.78-1.28,3.643,3.643,0,0,0-1.23-.88,3.927,3.927,0,0,0-1.59-.32h-6.03v14.35h1.16v-6.28h3.63l3.94,6.28h1.37Zm-5.33,5.96h-.51v-13.69h5.71a3.445,3.445,0,0,1,2.58,1.09,3.447,3.447,0,0,1,.71,1.18,3.945,3.945,0,0,1,.25,1.43,3.8,3.8,0,0,1-.26,1.44,3.358,3.358,0,0,1-.73,1.17,3.311,3.311,0,0,1-1.14.8,3.578,3.578,0,0,1-1.47.3h-.4l3.93,6.28h-.59l-3.94-6.28h-4.14Zm6.42-6.99a3,3,0,0,0,.96-.71,3.034,3.034,0,0,0,.6-1.03,3.855,3.855,0,0,0,0-2.51,2.942,2.942,0,0,0-.6-1.03,2.862,2.862,0,0,0-.96-.71,2.946,2.946,0,0,0-1.27-.26h-5.15v6.51h5.15A3.1,3.1,0,0,0,140.913,280.628Zm-6.09-5.92h4.82a2.592,2.592,0,0,1,1.99.86,2.7,2.7,0,0,1,.53.92,3.287,3.287,0,0,1,.19,1.14,3.344,3.344,0,0,1-.19,1.15,2.705,2.705,0,0,1-.53.92,2.736,2.736,0,0,1-.86.63,2.783,2.783,0,0,1-1.13.23h-4.82Zm7.65,1.67a2.942,2.942,0,0,0-.6-1.03,2.862,2.862,0,0,0-.96-.71,2.946,2.946,0,0,0-1.27-.26h-5.15v6.51h5.15a3.1,3.1,0,0,0,1.27-.26,3,3,0,0,0,.96-.71,3.034,3.034,0,0,0,.6-1.03,3.855,3.855,0,0,0,0-2.51Zm-2.83,4.18h-4.82v-5.85h4.82a2.592,2.592,0,0,1,1.99.86,2.7,2.7,0,0,1,.53.92,3.287,3.287,0,0,1,.19,1.14,3.344,3.344,0,0,1-.19,1.15,2.705,2.705,0,0,1-.53.92,2.736,2.736,0,0,1-.86.63A2.783,2.783,0,0,1,139.643,280.558Zm2.83-4.18a2.942,2.942,0,0,0-.6-1.03,2.862,2.862,0,0,0-.96-.71,2.946,2.946,0,0,0-1.27-.26h-5.15v6.51h5.15a3.1,3.1,0,0,0,1.27-.26,3,3,0,0,0,.96-.71,3.034,3.034,0,0,0,.6-1.03,3.855,3.855,0,0,0,0-2.51Zm-2.83,4.18h-4.82v-5.85h4.82a2.592,2.592,0,0,1,1.99.86,2.7,2.7,0,0,1,.53.92,3.287,3.287,0,0,1,.19,1.14,3.344,3.344,0,0,1-.19,1.15,2.705,2.705,0,0,1-.53.92,2.736,2.736,0,0,1-.86.63A2.783,2.783,0,0,1,139.643,280.558Z"/>
      </g>
      <g id="Group_9355" data-name="Group 9355">
        <path id="Path_13162" data-name="Path 13162" d="M153.843,283.048a2.7,2.7,0,0,0-.69-1.04,6.054,6.054,0,0,0-1.36-.98,17.718,17.718,0,0,0-2.25-1.03c-.62-.26-1.15-.49-1.58-.71a4.459,4.459,0,0,1-1.04-.69,2.14,2.14,0,0,1-.56-.78,2.68,2.68,0,0,1-.17-.98,2.448,2.448,0,0,1,.27-1.18,2.376,2.376,0,0,1,.72-.82,3.146,3.146,0,0,1,1.05-.47,5.1,5.1,0,0,1,1.25-.15,4.359,4.359,0,0,1,2.23.54,4.613,4.613,0,0,1,1.58,1.56l.66-.5a4.651,4.651,0,0,0-1.86-1.78,5.629,5.629,0,0,0-2.55-.56,6.323,6.323,0,0,0-1.65.21,4.168,4.168,0,0,0-1.36.64,3.2,3.2,0,0,0-.92,1.08,3.321,3.321,0,0,0-.34,1.53,2.956,2.956,0,0,0,.85,2.1,7.952,7.952,0,0,0,2.91,1.65,15.38,15.38,0,0,1,1.99.85,6.232,6.232,0,0,1,1.26.85,2.61,2.61,0,0,1,.67.88,2.164,2.164,0,0,1,.2.93,3.116,3.116,0,0,1-.24,1.24,2.753,2.753,0,0,1-.7.99,3.052,3.052,0,0,1-1.13.65,4.7,4.7,0,0,1-1.51.23,3.8,3.8,0,0,1-3.82-2.73l-.7.49a4.969,4.969,0,0,0,1.86,2.3,4.832,4.832,0,0,0,2.61.72,5.982,5.982,0,0,0,1.78-.26,4.358,4.358,0,0,0,1.43-.76,3.624,3.624,0,0,0,.95-1.21,3.553,3.553,0,0,0,.35-1.63A3.477,3.477,0,0,0,153.843,283.048Z"/>
        <path id="Path_13163" data-name="Path 13163" d="M154,283a2.978,2.978,0,0,0-.73-1.1,6.424,6.424,0,0,0-1.4-1.02,17.812,17.812,0,0,0-2.26-1.04c-.61-.24-1.14-.48-1.58-.7a4.677,4.677,0,0,1-1-.66,2.262,2.262,0,0,1-.52-.72,2.572,2.572,0,0,1-.15-.92,2.209,2.209,0,0,1,.25-1.1,2.239,2.239,0,0,1,.66-.77,3.135,3.135,0,0,1,1-.44,4.776,4.776,0,0,1,1.21-.14,4.3,4.3,0,0,1,2.15.51,4.681,4.681,0,0,1,1.53,1.51l.09.14.92-.69-.08-.13a4.981,4.981,0,0,0-1.93-1.84,5.8,5.8,0,0,0-2.62-.57,6.71,6.71,0,0,0-1.7.21,4.28,4.28,0,0,0-1.41.67,3.275,3.275,0,0,0-.96,1.13,3.442,3.442,0,0,0-.36,1.61,3.107,3.107,0,0,0,.89,2.21,7.97,7.97,0,0,0,2.98,1.69,16.452,16.452,0,0,1,1.97.85,6.124,6.124,0,0,1,1.22.82,2.438,2.438,0,0,1,.63.83,1.963,1.963,0,0,1,.19.86,3.028,3.028,0,0,1-.23,1.18,2.638,2.638,0,0,1-.66.93,3.027,3.027,0,0,1-1.07.61,4.434,4.434,0,0,1-1.46.22,3.605,3.605,0,0,1-3.66-2.62l-.08-.2-.98.7.05.12a5.159,5.159,0,0,0,1.92,2.37,5.094,5.094,0,0,0,2.7.74,6.273,6.273,0,0,0,1.83-.26,4.567,4.567,0,0,0,1.48-.79,3.739,3.739,0,0,0,1.37-2.97A3.733,3.733,0,0,0,154,283Zm-4.48,4.92a4.434,4.434,0,0,1-4.26-2.79l.42-.3a3.907,3.907,0,0,0,3.89,2.64,5.082,5.082,0,0,0,1.57-.23,3.418,3.418,0,0,0,1.19-.69,2.955,2.955,0,0,0,.74-1.04,3.512,3.512,0,0,0,.25-1.31,2.493,2.493,0,0,0-.21-1,3.117,3.117,0,0,0-.71-.93,6.5,6.5,0,0,0-1.3-.87,16.383,16.383,0,0,0-2.01-.87,7.575,7.575,0,0,1-2.85-1.61,2.733,2.733,0,0,1-.8-1.98,3.1,3.1,0,0,1,.32-1.45,2.978,2.978,0,0,1,.87-1.03,3.9,3.9,0,0,1,1.3-.61,6.4,6.4,0,0,1,1.61-.2,5.411,5.411,0,0,1,2.47.54,4.482,4.482,0,0,1,1.72,1.59l-.4.3a4.739,4.739,0,0,0-1.54-1.46,4.468,4.468,0,0,0-2.31-.56,5.426,5.426,0,0,0-1.29.15,3.124,3.124,0,0,0-1.11.5,2.514,2.514,0,0,0-1.05,2.13,2.8,2.8,0,0,0,.18,1.04,2.339,2.339,0,0,0,.6.84,4.617,4.617,0,0,0,1.07.71c.45.23.98.47,1.6.72a17.408,17.408,0,0,1,2.23,1.02,6.362,6.362,0,0,1,1.33.96,2.661,2.661,0,0,1,.65.98,3.372,3.372,0,0,1,.18,1.12,3.51,3.51,0,0,1-.33,1.56,3.419,3.419,0,0,1-.92,1.15,4.186,4.186,0,0,1-1.37.73A5.652,5.652,0,0,1,149.523,287.918Z"/>
      </g>
      <g id="Group_9356" data-name="Group 9356">
        <path id="Path_13164" data-name="Path 13164" d="M166.393,277.938a7.507,7.507,0,0,0-1.11-2.31,5.637,5.637,0,0,0-1.77-1.57,5.071,5.071,0,0,0-4.71,0,5.5,5.5,0,0,0-1.76,1.57,7.3,7.3,0,0,0-1.12,2.31,10.572,10.572,0,0,0,0,5.69,7.2,7.2,0,0,0,1.12,2.31,5.35,5.35,0,0,0,1.76,1.56,5.15,5.15,0,0,0,4.71,0,5.484,5.484,0,0,0,1.77-1.56,7.4,7.4,0,0,0,1.11-2.31,10.572,10.572,0,0,0,0-5.69Zm-5.22,9.39a3.805,3.805,0,0,1-1.97-.51,4.587,4.587,0,0,1-1.48-1.4,6.949,6.949,0,0,1-.94-2.08,10.056,10.056,0,0,1,0-5.11,6.948,6.948,0,0,1,.94-2.08,4.73,4.73,0,0,1,1.48-1.41,3.718,3.718,0,0,1,1.97-.52,3.8,3.8,0,0,1,1.98.52,4.73,4.73,0,0,1,1.48,1.41,6.948,6.948,0,0,1,.94,2.08,10.056,10.056,0,0,1,0,5.11,6.949,6.949,0,0,1-.94,2.08,4.587,4.587,0,0,1-1.48,1.4A3.893,3.893,0,0,1,161.173,287.328Z"/>
        <path id="Path_13165" data-name="Path 13165" d="M165.733,278.188a6.921,6.921,0,0,0-.96-2.13,4.974,4.974,0,0,0-1.54-1.46,4.2,4.2,0,0,0-4.12,0,4.942,4.942,0,0,0-1.53,1.46,6.921,6.921,0,0,0-.96,2.13,10.073,10.073,0,0,0,0,5.19,6.921,6.921,0,0,0,.96,2.13,4.8,4.8,0,0,0,1.53,1.45,4.2,4.2,0,0,0,4.12,0,4.827,4.827,0,0,0,1.54-1.45,6.816,6.816,0,0,0,.96-2.13,10.073,10.073,0,0,0,0-5.19Zm-4.56,8.98a3.721,3.721,0,0,1-1.89-.49,4.48,4.48,0,0,1-1.43-1.35,6.917,6.917,0,0,1-.91-2.04,9.673,9.673,0,0,1,0-5.01,6.742,6.742,0,0,1,.91-2.03,4.547,4.547,0,0,1,1.43-1.37,3.624,3.624,0,0,1,1.89-.49,3.675,3.675,0,0,1,1.89.49,4.578,4.578,0,0,1,1.44,1.37,7.009,7.009,0,0,1,.92,2.03,9.965,9.965,0,0,1,0,5.01,7.073,7.073,0,0,1-.92,2.04,4.411,4.411,0,0,1-1.44,1.35A3.748,3.748,0,0,1,161.173,287.168Zm4.56-8.98a6.921,6.921,0,0,0-.96-2.13,4.974,4.974,0,0,0-1.54-1.46,4.2,4.2,0,0,0-4.12,0,4.942,4.942,0,0,0-1.53,1.46,6.921,6.921,0,0,0-.96,2.13,10.073,10.073,0,0,0,0,5.19,6.921,6.921,0,0,0,.96,2.13,4.8,4.8,0,0,0,1.53,1.45,4.2,4.2,0,0,0,4.12,0,4.827,4.827,0,0,0,1.54-1.45,6.816,6.816,0,0,0,.96-2.13,10.073,10.073,0,0,0,0-5.19Zm-4.56,8.98a3.721,3.721,0,0,1-1.89-.49,4.48,4.48,0,0,1-1.43-1.35,6.917,6.917,0,0,1-.91-2.04,9.673,9.673,0,0,1,0-5.01,6.742,6.742,0,0,1,.91-2.03,4.547,4.547,0,0,1,1.43-1.37,3.624,3.624,0,0,1,1.89-.49,3.675,3.675,0,0,1,1.89.49,4.578,4.578,0,0,1,1.44,1.37,7.009,7.009,0,0,1,.92,2.03,9.965,9.965,0,0,1,0,5.01,7.073,7.073,0,0,1-.92,2.04,4.411,4.411,0,0,1-1.44,1.35A3.748,3.748,0,0,1,161.173,287.168Zm5.38-9.27a7.56,7.56,0,0,0-1.14-2.37,5.589,5.589,0,0,0-1.82-1.61,5.241,5.241,0,0,0-4.87,0,5.707,5.707,0,0,0-1.82,1.61,7.56,7.56,0,0,0-1.14,2.37,10.3,10.3,0,0,0-.4,2.89,10.4,10.4,0,0,0,.4,2.89,7.613,7.613,0,0,0,1.14,2.36,5.675,5.675,0,0,0,1.82,1.6,5.32,5.32,0,0,0,4.87,0,5.558,5.558,0,0,0,1.82-1.6,7.613,7.613,0,0,0,1.14-2.36,10.64,10.64,0,0,0,0-5.78Zm-5.39,10a4.713,4.713,0,0,1-2.28-.54,5.362,5.362,0,0,1-1.71-1.51,7.249,7.249,0,0,1-1.09-2.27,10.21,10.21,0,0,1,0-5.59,7.193,7.193,0,0,1,1.09-2.26,5.276,5.276,0,0,1,1.71-1.52,4.9,4.9,0,0,1,4.55,0,5.276,5.276,0,0,1,1.71,1.52,6.983,6.983,0,0,1,1.09,2.26,9.767,9.767,0,0,1,.39,2.8,9.648,9.648,0,0,1-.39,2.79,7.037,7.037,0,0,1-1.09,2.27,5.362,5.362,0,0,1-1.71,1.51A4.7,4.7,0,0,1,161.163,287.9Zm4.57-4.52a10.073,10.073,0,0,0,0-5.19,6.921,6.921,0,0,0-.96-2.13,4.974,4.974,0,0,0-1.54-1.46,4.2,4.2,0,0,0-4.12,0,4.942,4.942,0,0,0-1.53,1.46,6.921,6.921,0,0,0-.96,2.13,10.073,10.073,0,0,0,0,5.19,6.921,6.921,0,0,0,.96,2.13,4.8,4.8,0,0,0,1.53,1.45,4.2,4.2,0,0,0,4.12,0,4.827,4.827,0,0,0,1.54-1.45A6.816,6.816,0,0,0,165.733,283.378Zm-4.56,3.79a3.721,3.721,0,0,1-1.89-.49,4.48,4.48,0,0,1-1.43-1.35,6.917,6.917,0,0,1-.91-2.04,9.673,9.673,0,0,1,0-5.01,6.742,6.742,0,0,1,.91-2.03,4.547,4.547,0,0,1,1.43-1.37,3.624,3.624,0,0,1,1.89-.49,3.675,3.675,0,0,1,1.89.49,4.578,4.578,0,0,1,1.44,1.37,7.009,7.009,0,0,1,.92,2.03,9.965,9.965,0,0,1,0,5.01,7.073,7.073,0,0,1-.92,2.04,4.411,4.411,0,0,1-1.44,1.35A3.748,3.748,0,0,1,161.173,287.168Zm4.56-8.98a6.921,6.921,0,0,0-.96-2.13,4.974,4.974,0,0,0-1.54-1.46,4.2,4.2,0,0,0-4.12,0,4.942,4.942,0,0,0-1.53,1.46,6.921,6.921,0,0,0-.96,2.13,10.073,10.073,0,0,0,0,5.19,6.921,6.921,0,0,0,.96,2.13,4.8,4.8,0,0,0,1.53,1.45,4.2,4.2,0,0,0,4.12,0,4.827,4.827,0,0,0,1.54-1.45,6.816,6.816,0,0,0,.96-2.13,10.073,10.073,0,0,0,0-5.19Zm-4.56,8.98a3.721,3.721,0,0,1-1.89-.49,4.48,4.48,0,0,1-1.43-1.35,6.917,6.917,0,0,1-.91-2.04,9.673,9.673,0,0,1,0-5.01,6.742,6.742,0,0,1,.91-2.03,4.547,4.547,0,0,1,1.43-1.37,3.624,3.624,0,0,1,1.89-.49,3.675,3.675,0,0,1,1.89.49,4.578,4.578,0,0,1,1.44,1.37,7.009,7.009,0,0,1,.92,2.03,9.965,9.965,0,0,1,0,5.01,7.073,7.073,0,0,1-.92,2.04,4.411,4.411,0,0,1-1.44,1.35A3.748,3.748,0,0,1,161.173,287.168Zm4.56-8.98a6.921,6.921,0,0,0-.96-2.13,4.974,4.974,0,0,0-1.54-1.46,4.2,4.2,0,0,0-4.12,0,4.942,4.942,0,0,0-1.53,1.46,6.921,6.921,0,0,0-.96,2.13,10.073,10.073,0,0,0,0,5.19,6.921,6.921,0,0,0,.96,2.13,4.8,4.8,0,0,0,1.53,1.45,4.2,4.2,0,0,0,4.12,0,4.827,4.827,0,0,0,1.54-1.45,6.816,6.816,0,0,0,.96-2.13,10.073,10.073,0,0,0,0-5.19Zm-4.56,8.98a3.721,3.721,0,0,1-1.89-.49,4.48,4.48,0,0,1-1.43-1.35,6.917,6.917,0,0,1-.91-2.04,9.673,9.673,0,0,1,0-5.01,6.742,6.742,0,0,1,.91-2.03,4.547,4.547,0,0,1,1.43-1.37,3.624,3.624,0,0,1,1.89-.49,3.675,3.675,0,0,1,1.89.49,4.578,4.578,0,0,1,1.44,1.37,7.009,7.009,0,0,1,.92,2.03,9.965,9.965,0,0,1,0,5.01,7.073,7.073,0,0,1-.92,2.04,4.411,4.411,0,0,1-1.44,1.35A3.748,3.748,0,0,1,161.173,287.168Z"/>
      </g>
      <g id="Group_9357" data-name="Group 9357">
        <path id="Path_13166" data-name="Path 13166" d="M178.393,273.758l.02,12.55-8.2-12.55h-.93v14.03h.87V275.2l8.21,12.59h.89v-14.03Z"/>
        <path id="Path_13167" data-name="Path 13167" d="M178.233,273.6l.02,12.16-7.9-12.09-.05-.07h-1.19v14.35h1.21v-12.2l7.9,12.13.05.07h1.15V273.6Zm.86,14.02h-.64l-8.46-12.98v12.98h-.55v-13.69h.68l8.46,12.94-.02-12.94h.53Z"/>
      </g>
      <g id="Group_9358" data-name="Group 9358">
        <path id="Path_13168" data-name="Path 13168" d="M187.273,273.758h-.85l-5.07,14.03h.9l1.41-4.07h6.31l1.39,4.07h.92Zm-3.37,9.28,2.93-8.52,2.92,8.52Z"/>
        <path id="Path_13169" data-name="Path 13169" d="M186.843,274.008l-3.17,9.19h6.31Zm-.01,1.02,2.69,7.85h-5.39Zm.01-1.02-3.17,9.19h6.31Zm-.01,1.02,2.69,7.85h-5.39Zm.6-1.32-.04-.11H186.3l-5.19,14.35h1.25l1.42-4.07h6.07l1.4,4.07h1.27Zm-5.85,13.91,4.95-13.69h.63l4.89,13.69h-.57l-1.39-4.07h-6.54l-1.42,4.07Zm5.26-13.61-3.17,9.19h6.31Zm-.01,1.02,2.69,7.85h-5.39Zm.01-1.02-3.17,9.19h6.31Zm-.01,1.02,2.69,7.85h-5.39Zm.01-1.02-3.17,9.19h6.31Zm-.01,1.02,2.69,7.85h-5.39Z"/>
      </g>
      <g id="Group_9359" data-name="Group 9359">
        <path id="Path_13170" data-name="Path 13170" d="M195.213,287.048v-13.27h-.83v14.01h8.2v-.74Z"/>
        <path id="Path_13171" data-name="Path 13171" d="M195.383,286.888v-13.27h-1.17v14.33h8.53v-1.06Zm7.03.73h-7.87v-13.67h.51v13.27h7.36Z"/>
      </g>
      <g id="Group_9361" data-name="Group 9361">
        <g id="Group_9360" data-name="Group 9360">
          <path id="Path_13172" data-name="Path 13172" d="M220.033,278.028a7.023,7.023,0,0,0-1.12-2.22,5.537,5.537,0,0,0-1.77-1.5,5,5,0,0,0-2.35-.55H210.4v14.03h4.39a4.882,4.882,0,0,0,2.35-.55,5.445,5.445,0,0,0,1.77-1.51,7.078,7.078,0,0,0,1.12-2.23,10.033,10.033,0,0,0,0-5.47Zm-5.24,9.02h-3.55V274.5h3.55a3.881,3.881,0,0,1,1.96.49,4.6,4.6,0,0,1,1.48,1.34,6.425,6.425,0,0,1,.94,1.99,8.792,8.792,0,0,1,.33,2.45,8.9,8.9,0,0,1-.33,2.45,6.374,6.374,0,0,1-.94,2,4.6,4.6,0,0,1-1.48,1.34A3.881,3.881,0,0,1,214.793,287.048Z" fill="#fe0000"/>
          <path id="Path_13173" data-name="Path 13173" d="M219.333,278.278a6.647,6.647,0,0,0-.97-2.04,4.508,4.508,0,0,0-1.53-1.39,4.091,4.091,0,0,0-2.04-.51h-3.72v12.88h3.72a4.1,4.1,0,0,0,2.04-.52,4.507,4.507,0,0,0,1.53-1.39,6.705,6.705,0,0,0,.97-2.05,9.559,9.559,0,0,0,0-4.98Zm-4.54,8.61H211.4v-12.22h3.39a3.672,3.672,0,0,1,1.88.47,4.287,4.287,0,0,1,1.43,1.29,6.32,6.32,0,0,1,.91,1.94,9.16,9.16,0,0,1,0,4.8,6.27,6.27,0,0,1-.91,1.95,4.428,4.428,0,0,1-1.43,1.3A3.774,3.774,0,0,1,214.793,286.888Zm4.54-8.61a6.647,6.647,0,0,0-.97-2.04,4.508,4.508,0,0,0-1.53-1.39,4.091,4.091,0,0,0-2.04-.51h-3.72v12.88h3.72a4.1,4.1,0,0,0,2.04-.52,4.507,4.507,0,0,0,1.53-1.39,6.705,6.705,0,0,0,.97-2.05,9.559,9.559,0,0,0,0-4.98Zm-4.54,8.61H211.4v-12.22h3.39a3.672,3.672,0,0,1,1.88.47,4.287,4.287,0,0,1,1.43,1.29,6.32,6.32,0,0,1,.91,1.94,9.16,9.16,0,0,1,0,4.8,6.27,6.27,0,0,1-.91,1.95,4.428,4.428,0,0,1-1.43,1.3A3.774,3.774,0,0,1,214.793,286.888Zm5.39-8.91a7.12,7.12,0,0,0-1.14-2.27,5.488,5.488,0,0,0-1.82-1.54,5.1,5.1,0,0,0-2.43-.57h-4.56v14.35h4.56a5.212,5.212,0,0,0,2.43-.56,5.549,5.549,0,0,0,1.82-1.56,7.28,7.28,0,0,0,1.14-2.28,9.9,9.9,0,0,0,0-5.57Zm-5.39,9.64h-4.23v-13.69h4.23a4.7,4.7,0,0,1,2.27.53,5.21,5.21,0,0,1,1.72,1.45,6.7,6.7,0,0,1,1.09,2.17,9.676,9.676,0,0,1,0,5.37,6.861,6.861,0,0,1-1.09,2.18,5.123,5.123,0,0,1-1.72,1.46A4.7,4.7,0,0,1,214.793,287.618Zm4.54-4.36a9.559,9.559,0,0,0,0-4.98,6.647,6.647,0,0,0-.97-2.04,4.508,4.508,0,0,0-1.53-1.39,4.091,4.091,0,0,0-2.04-.51h-3.72v12.88h3.72a4.1,4.1,0,0,0,2.04-.52,4.507,4.507,0,0,0,1.53-1.39A6.705,6.705,0,0,0,219.333,283.258Zm-4.54,3.63H211.4v-12.22h3.39a3.672,3.672,0,0,1,1.88.47,4.287,4.287,0,0,1,1.43,1.29,6.32,6.32,0,0,1,.91,1.94,9.16,9.16,0,0,1,0,4.8,6.27,6.27,0,0,1-.91,1.95,4.428,4.428,0,0,1-1.43,1.3A3.774,3.774,0,0,1,214.793,286.888Zm4.54-8.61a6.647,6.647,0,0,0-.97-2.04,4.508,4.508,0,0,0-1.53-1.39,4.091,4.091,0,0,0-2.04-.51h-3.72v12.88h3.72a4.1,4.1,0,0,0,2.04-.52,4.507,4.507,0,0,0,1.53-1.39,6.705,6.705,0,0,0,.97-2.05,9.559,9.559,0,0,0,0-4.98Zm-4.54,8.61H211.4v-12.22h3.39a3.672,3.672,0,0,1,1.88.47,4.287,4.287,0,0,1,1.43,1.29,6.32,6.32,0,0,1,.91,1.94,9.16,9.16,0,0,1,0,4.8,6.27,6.27,0,0,1-.91,1.95,4.428,4.428,0,0,1-1.43,1.3A3.774,3.774,0,0,1,214.793,286.888Zm4.54-8.61a6.647,6.647,0,0,0-.97-2.04,4.508,4.508,0,0,0-1.53-1.39,4.091,4.091,0,0,0-2.04-.51h-3.72v12.88h3.72a4.1,4.1,0,0,0,2.04-.52,4.507,4.507,0,0,0,1.53-1.39,6.705,6.705,0,0,0,.97-2.05,9.559,9.559,0,0,0,0-4.98Zm-4.54,8.61H211.4v-12.22h3.39a3.672,3.672,0,0,1,1.88.47,4.287,4.287,0,0,1,1.43,1.29,6.32,6.32,0,0,1,.91,1.94,9.16,9.16,0,0,1,0,4.8,6.27,6.27,0,0,1-.91,1.95,4.428,4.428,0,0,1-1.43,1.3A3.774,3.774,0,0,1,214.793,286.888Z" fill="#fe0000"/>
        </g>
      </g>
      <g id="Group_9363" data-name="Group 9363">
        <g id="Group_9362" data-name="Group 9362">
          <path id="Path_13174" data-name="Path 13174" d="M223.793,287.048v-6.22h5.74v-.78h-5.74V274.5h7.56v-.74h-8.44v14.03h8.84v-.74Z" fill="#fe0000"/>
          <path id="Path_13175" data-name="Path 13175" d="M223.953,286.888v-5.9h5.75v-1.11h-5.75v-5.21h7.56V273.6h-8.77v14.35h9.17v-1.06Zm7.63.73h-8.51v-13.69h8.11v.41h-7.56v5.87h5.75v.45h-5.75v6.56h7.96Z" fill="#fe0000"/>
        </g>
      </g>
      <g id="Group_9365" data-name="Group 9365">
        <g id="Group_9364" data-name="Group 9364">
          <path id="Path_13176" data-name="Path 13176" d="M234.663,287.048v-13.27h-.84v14.01h8.2v-.74Z" fill="#fe0000"/>
          <path id="Path_13177" data-name="Path 13177" d="M234.833,286.888v-13.27h-1.17v14.33h8.53v-1.06Zm7.03.73h-7.87v-13.67h.51v13.27h7.36Z" fill="#fe0000"/>
        </g>
      </g>
      <g id="Group_9367" data-name="Group 9367">
        <g id="Group_9366" data-name="Group 9366">
          <path id="Path_13178" data-name="Path 13178" d="M243.923,273.758v14.03h.84v-14.03Z" fill="#fe0000"/>
          <path id="Path_13179" data-name="Path 13179" d="M243.753,273.6v14.35h1.17V273.6Zm.84,14.02h-.51v-13.69h.51Z" fill="#fe0000"/>
        </g>
      </g>
      <g id="Group_9369" data-name="Group 9369">
        <g id="Group_9368" data-name="Group 9368">
          <path id="Path_13180" data-name="Path 13180" d="M256.453,273.758l-4.39,13.19-4.29-13.19h-.92l4.75,14.03h.9l4.81-14.03Z" fill="#fe0000"/>
          <path id="Path_13181" data-name="Path 13181" d="M256.333,273.6l-4.27,12.82-4.13-12.71-.04-.11h-1.27l4.82,14.24.04.11h1.14l4.84-14.13.08-.22Zm-4.61,14.02-4.64-13.69h.57L251.9,287l.16.48,4.51-13.55h.51l-4.7,13.69Z" fill="#fe0000"/>
        </g>
      </g>
      <g id="Group_9371" data-name="Group 9371">
        <g id="Group_9370" data-name="Group 9370">
          <path id="Path_13182" data-name="Path 13182" d="M260.283,287.048v-6.22h5.75v-.78h-5.75V274.5h7.56v-.74H259.4v14.03h8.84v-.74Z" fill="#fe0000"/>
          <path id="Path_13183" data-name="Path 13183" d="M260.443,286.888v-5.9h5.75v-1.11h-5.75v-5.21h7.57V273.6h-8.77v14.35h9.17v-1.06Zm7.64.73h-8.51v-13.69h8.11v.41h-7.57v5.87h5.75v.45h-5.75v6.56h7.97Z" fill="#fe0000"/>
        </g>
      </g>
      <g id="Group_9373" data-name="Group 9373">
        <g id="Group_9372" data-name="Group 9372">
          <path id="Path_13184" data-name="Path 13184" d="M276.023,281.5h.1a3.753,3.753,0,0,0,2.74-1.14,3.793,3.793,0,0,0,.76-1.23,4.119,4.119,0,0,0,.27-1.5,4.061,4.061,0,0,0-.26-1.49,3.512,3.512,0,0,0-.75-1.23,3.576,3.576,0,0,0-1.17-.84,3.8,3.8,0,0,0-1.53-.31h-5.86v14.03h.83V281.5h3.88l3.95,6.29h.97Zm-4.87-6.96h4.98a2.773,2.773,0,0,1,1.2.25,2.694,2.694,0,0,1,.91.67,3,3,0,0,1,.58.98,3.67,3.67,0,0,1,0,2.39,3.1,3.1,0,0,1-.58.98,2.694,2.694,0,0,1-.91.67,2.926,2.926,0,0,1-1.2.25h-4.98Z" fill="#fe0000"/>
          <path id="Path_13185" data-name="Path 13185" d="M278.973,276.378a3.1,3.1,0,0,0-.6-1.03,2.928,2.928,0,0,0-2.24-.97h-5.14v6.51h5.14a2.928,2.928,0,0,0,2.24-.97,3.1,3.1,0,0,0,.6-1.03,3.855,3.855,0,0,0,0-2.51Zm-2.84,4.18h-4.81v-5.85h4.81a2.567,2.567,0,0,1,1.13.23,2.526,2.526,0,0,1,.86.63,2.9,2.9,0,0,1,.54.92,3.545,3.545,0,0,1,0,2.29,2.9,2.9,0,0,1-.54.92,2.626,2.626,0,0,1-.86.63A2.715,2.715,0,0,1,276.133,280.558Zm2.84-4.18a3.1,3.1,0,0,0-.6-1.03,2.928,2.928,0,0,0-2.24-.97h-5.14v6.51h5.14a2.928,2.928,0,0,0,2.24-.97,3.1,3.1,0,0,0,.6-1.03,3.855,3.855,0,0,0,0-2.51Zm-2.84,4.18h-4.81v-5.85h4.81a2.567,2.567,0,0,1,1.13.23,2.526,2.526,0,0,1,.86.63,2.9,2.9,0,0,1,.54.92,3.545,3.545,0,0,1,0,2.29,2.9,2.9,0,0,1-.54.92,2.626,2.626,0,0,1-.86.63A2.715,2.715,0,0,1,276.133,280.558Zm.19,1.1a3.772,3.772,0,0,0,1.4-.31,3.913,3.913,0,0,0,1.26-.88,4.129,4.129,0,0,0,.8-1.28,4.451,4.451,0,0,0,.28-1.56,4.392,4.392,0,0,0-.27-1.55,3.862,3.862,0,0,0-.78-1.28,3.744,3.744,0,0,0-1.23-.88,3.975,3.975,0,0,0-1.6-.32h-6.03v14.35h1.17v-6.28h3.62l3.9,6.21.04.07h1.37Zm-1.19-.32h-4.14v6.28h-.51v-13.69h5.7a3.624,3.624,0,0,1,1.46.29,3.515,3.515,0,0,1,1.12.8,3.635,3.635,0,0,1,.72,1.18,4.17,4.17,0,0,1,.25,1.43,4,4,0,0,1-.26,1.44,3.614,3.614,0,0,1-.73,1.17,3.351,3.351,0,0,1-1.15.8,3.512,3.512,0,0,1-1.47.3h-.4l3.93,6.28h-.58l-3.9-6.2Zm2.27-.71a3.046,3.046,0,0,0,.97-.71,3.1,3.1,0,0,0,.6-1.03,3.855,3.855,0,0,0,0-2.51,3.1,3.1,0,0,0-.6-1.03,2.928,2.928,0,0,0-2.24-.97h-5.14v6.51h5.14A3.033,3.033,0,0,0,277.4,280.628Zm-6.08-5.92h4.81a2.567,2.567,0,0,1,1.13.23,2.526,2.526,0,0,1,.86.63,2.9,2.9,0,0,1,.54.92,3.545,3.545,0,0,1,0,2.29,2.9,2.9,0,0,1-.54.92,2.626,2.626,0,0,1-.86.63,2.715,2.715,0,0,1-1.13.23h-4.81Zm7.65,1.67a3.1,3.1,0,0,0-.6-1.03,2.928,2.928,0,0,0-2.24-.97h-5.14v6.51h5.14a2.928,2.928,0,0,0,2.24-.97,3.1,3.1,0,0,0,.6-1.03,3.855,3.855,0,0,0,0-2.51Zm-2.84,4.18h-4.81v-5.85h4.81a2.567,2.567,0,0,1,1.13.23,2.526,2.526,0,0,1,.86.63,2.9,2.9,0,0,1,.54.92,3.545,3.545,0,0,1,0,2.29,2.9,2.9,0,0,1-.54.92,2.626,2.626,0,0,1-.86.63A2.715,2.715,0,0,1,276.133,280.558Zm2.84-4.18a3.1,3.1,0,0,0-.6-1.03,2.928,2.928,0,0,0-2.24-.97h-5.14v6.51h5.14a2.928,2.928,0,0,0,2.24-.97,3.1,3.1,0,0,0,.6-1.03,3.855,3.855,0,0,0,0-2.51Zm-2.84,4.18h-4.81v-5.85h4.81a2.567,2.567,0,0,1,1.13.23,2.526,2.526,0,0,1,.86.63,2.9,2.9,0,0,1,.54.92,3.545,3.545,0,0,1,0,2.29,2.9,2.9,0,0,1-.54.92,2.626,2.626,0,0,1-.86.63A2.715,2.715,0,0,1,276.133,280.558Z" fill="#fe0000"/>
        </g>
      </g>
      <g id="Group_9375" data-name="Group 9375">
        <g id="Group_9374" data-name="Group 9374">
          <path id="Path_13186" data-name="Path 13186" d="M289.513,273.758l-4.3,7.6-4.28-7.6h-.98l4.83,8.38v5.65h.88v-5.65l4.83-8.38Z" fill="#fe0000"/>
          <path id="Path_13187" data-name="Path 13187" d="M289.413,273.6l-4.2,7.43-4.14-7.35-.04-.08h-1.36l4.95,8.59v5.76h1.2v-5.76l4.81-8.35.14-.24Zm-3.92,8.5v5.52h-.54V282.1l-4.71-8.17h.59l4.23,7.52.15.25,4.4-7.77h.59l-4.68,8.13Z" fill="#fe0000"/>
        </g>
      </g>
      <g id="Group_9376" data-name="Group 9376">
        <path id="Path_13188" data-name="Path 13188" d="M303.323,273.758h-.86l-5.07,14.03h.9l1.42-4.07h6.3l1.4,4.07h.91Zm-3.38,9.28,2.94-8.52,2.91,8.52Z"/>
        <path id="Path_13189" data-name="Path 13189" d="M302.883,274.008l-3.09,8.98-.08.21h6.31Zm0,1.02,2.68,7.85h-5.38Zm0-1.02-3.09,8.98-.08.21h6.31Zm0,1.02,2.68,7.85h-5.38Zm.59-1.32-.04-.11h-1.09l-5.18,14.35h1.25l1.41-4.07h6.07l1.36,3.96.04.11h1.27Zm2.66,9.84h-6.54l-1.42,4.07h-.54l4.95-13.69h.62l4.89,13.69h-.57l-1.35-3.95Zm-6.34-.56-.08.21h6.31l-3.14-9.19Zm.39-.11,2.7-7.85,2.68,7.85Zm2.7-8.87-3.09,8.98-.08.21h6.31Zm0,1.02,2.68,7.85h-5.38Zm0-1.02-3.09,8.98-.08.21h6.31Zm0,1.02,2.68,7.85h-5.38Z"/>
      </g>
      <g id="Group_9377" data-name="Group 9377">
        <path id="Path_13190" data-name="Path 13190" d="M318.213,283.048a2.7,2.7,0,0,0-.69-1.04,6.054,6.054,0,0,0-1.36-.98,17.716,17.716,0,0,0-2.25-1.03c-.62-.26-1.15-.49-1.58-.71a4.46,4.46,0,0,1-1.04-.69,2.14,2.14,0,0,1-.56-.78,2.68,2.68,0,0,1-.17-.98,2.448,2.448,0,0,1,.27-1.18,2.375,2.375,0,0,1,.72-.82,3.146,3.146,0,0,1,1.05-.47,5.037,5.037,0,0,1,1.25-.15,4.359,4.359,0,0,1,2.23.54,4.7,4.7,0,0,1,1.58,1.56l.66-.5a4.715,4.715,0,0,0-1.86-1.78,5.629,5.629,0,0,0-2.55-.56,6.268,6.268,0,0,0-1.65.21,4.168,4.168,0,0,0-1.36.64,3.2,3.2,0,0,0-.92,1.08,3.321,3.321,0,0,0-.34,1.53,2.956,2.956,0,0,0,.85,2.1,7.952,7.952,0,0,0,2.91,1.65,15.382,15.382,0,0,1,1.99.85,6.232,6.232,0,0,1,1.26.85,2.61,2.61,0,0,1,.67.88,2.164,2.164,0,0,1,.2.93,3.116,3.116,0,0,1-.24,1.24,2.753,2.753,0,0,1-.7.99,3.052,3.052,0,0,1-1.13.65,4.7,4.7,0,0,1-1.51.23,3.8,3.8,0,0,1-3.82-2.73l-.7.49a4.969,4.969,0,0,0,1.86,2.3,4.832,4.832,0,0,0,2.61.72,5.983,5.983,0,0,0,1.78-.26,4.211,4.211,0,0,0,1.42-.76,3.53,3.53,0,0,0,.96-1.21,3.686,3.686,0,0,0,.35-1.63A3.478,3.478,0,0,0,318.213,283.048Z"/>
        <path id="Path_13191" data-name="Path 13191" d="M318.373,283a3.06,3.06,0,0,0-.73-1.1,6.424,6.424,0,0,0-1.4-1.02,18.028,18.028,0,0,0-2.27-1.04c-.6-.24-1.13-.48-1.57-.7a4.676,4.676,0,0,1-1-.66,2.158,2.158,0,0,1-.52-.72,2.572,2.572,0,0,1-.15-.92,2.209,2.209,0,0,1,.25-1.1,2.239,2.239,0,0,1,.66-.77,3.135,3.135,0,0,1,1-.44,4.776,4.776,0,0,1,1.21-.14,4.237,4.237,0,0,1,2.14.51,4.614,4.614,0,0,1,1.54,1.51l.09.14.92-.69-.08-.13a4.981,4.981,0,0,0-1.93-1.84,5.8,5.8,0,0,0-2.62-.57,6.653,6.653,0,0,0-1.7.21,4.28,4.28,0,0,0-1.41.67,3.275,3.275,0,0,0-.96,1.13,3.443,3.443,0,0,0-.36,1.61,3.107,3.107,0,0,0,.89,2.21,7.888,7.888,0,0,0,2.98,1.69,16.449,16.449,0,0,1,1.97.85,6.123,6.123,0,0,1,1.22.82,2.438,2.438,0,0,1,.63.83,1.963,1.963,0,0,1,.19.86,3.028,3.028,0,0,1-.23,1.18,2.638,2.638,0,0,1-.66.93,3.027,3.027,0,0,1-1.07.61,4.434,4.434,0,0,1-1.46.22,3.6,3.6,0,0,1-3.66-2.62l-.08-.2-.98.7.05.12a5.15,5.15,0,0,0,1.92,2.37,5.069,5.069,0,0,0,2.7.74,6.323,6.323,0,0,0,1.83-.26,4.567,4.567,0,0,0,1.48-.79,3.763,3.763,0,0,0,1-1.27,3.831,3.831,0,0,0,.37-1.7A3.732,3.732,0,0,0,318.373,283Zm-4.48,4.92a4.434,4.434,0,0,1-4.26-2.79l.42-.3a3.907,3.907,0,0,0,3.89,2.64,5.082,5.082,0,0,0,1.57-.23,3.286,3.286,0,0,0,1.18-.69,2.859,2.859,0,0,0,.75-1.04,3.512,3.512,0,0,0,.25-1.31,2.346,2.346,0,0,0-.22-1,2.816,2.816,0,0,0-.71-.93,6.126,6.126,0,0,0-1.29-.87,16.384,16.384,0,0,0-2.01-.87,7.493,7.493,0,0,1-2.85-1.61,2.732,2.732,0,0,1-.8-1.98,3.1,3.1,0,0,1,.32-1.45,2.89,2.89,0,0,1,.87-1.03,3.808,3.808,0,0,1,1.3-.61,6.4,6.4,0,0,1,1.61-.2,5.411,5.411,0,0,1,2.47.54,4.482,4.482,0,0,1,1.72,1.59l-.4.3a4.739,4.739,0,0,0-1.54-1.46,4.468,4.468,0,0,0-2.31-.56,5.366,5.366,0,0,0-1.29.15,3.124,3.124,0,0,0-1.11.5,2.459,2.459,0,0,0-.76.87,2.524,2.524,0,0,0-.29,1.26,2.8,2.8,0,0,0,.18,1.04,2.339,2.339,0,0,0,.6.84,4.411,4.411,0,0,0,1.07.71c.44.23.98.47,1.6.72a17.409,17.409,0,0,1,2.23,1.02,6.362,6.362,0,0,1,1.33.96,2.661,2.661,0,0,1,.65.98,3.372,3.372,0,0,1,.18,1.12,3.543,3.543,0,0,1-.34,1.56,3.3,3.3,0,0,1-.91,1.15,4.186,4.186,0,0,1-1.37.73A5.652,5.652,0,0,1,313.893,287.918Z"/>
      </g>
      <g id="Group_9378" data-name="Group 9378">
        <path id="Path_13192" data-name="Path 13192" d="M328.793,283.048a2.946,2.946,0,0,0-.69-1.04,6.139,6.139,0,0,0-1.37-.98,18.172,18.172,0,0,0-2.24-1.03c-.63-.26-1.16-.49-1.59-.71a4.683,4.683,0,0,1-1.04-.69,2.265,2.265,0,0,1-.56-.78,2.686,2.686,0,0,1-.16-.98,2.446,2.446,0,0,1,.26-1.18,2.375,2.375,0,0,1,.72-.82,3.146,3.146,0,0,1,1.05-.47,5.177,5.177,0,0,1,1.26-.15,4.347,4.347,0,0,1,2.22.54,4.728,4.728,0,0,1,1.59,1.56l.66-.5a4.737,4.737,0,0,0-1.87-1.78,5.616,5.616,0,0,0-2.54-.56,6.344,6.344,0,0,0-1.66.21,4.168,4.168,0,0,0-1.36.64,3.168,3.168,0,0,0-.91,1.08,3.2,3.2,0,0,0-.34,1.53,2.915,2.915,0,0,0,.85,2.1,7.782,7.782,0,0,0,2.91,1.65,16.012,16.012,0,0,1,1.99.85,6.859,6.859,0,0,1,1.26.85,2.9,2.9,0,0,1,.67.88,2.322,2.322,0,0,1,.2.93,3.116,3.116,0,0,1-.24,1.24,2.88,2.88,0,0,1-.7.99,3.222,3.222,0,0,1-1.13.65,4.74,4.74,0,0,1-1.51.23,3.789,3.789,0,0,1-3.82-2.73l-.7.49a4.609,4.609,0,0,0,4.47,3.02,5.916,5.916,0,0,0,1.77-.26,4.26,4.26,0,0,0,1.43-.76,3.528,3.528,0,0,0,1.31-2.84A3.741,3.741,0,0,0,328.793,283.048Z"/>
        <path id="Path_13193" data-name="Path 13193" d="M328.943,283a3.027,3.027,0,0,0-.72-1.1,6.769,6.769,0,0,0-1.41-1.02,17.812,17.812,0,0,0-2.26-1.04c-.61-.24-1.14-.48-1.57-.7a4.435,4.435,0,0,1-1-.66,2.026,2.026,0,0,1-.52-.72,2.364,2.364,0,0,1-.16-.92,2.209,2.209,0,0,1,.25-1.1,2.267,2.267,0,0,1,.67-.77,2.985,2.985,0,0,1,.99-.44,4.8,4.8,0,0,1,1.22-.14,4.237,4.237,0,0,1,2.14.51,4.588,4.588,0,0,1,1.53,1.51l.1.14.92-.69-.08-.13a4.938,4.938,0,0,0-1.94-1.84,5.73,5.73,0,0,0-2.61-.57,6.653,6.653,0,0,0-1.7.21,4.187,4.187,0,0,0-1.41.67,3.3,3.3,0,0,0-.97,1.13,3.443,3.443,0,0,0-.36,1.61,3.075,3.075,0,0,0,.9,2.21,7.915,7.915,0,0,0,2.97,1.69,15.77,15.77,0,0,1,1.97.85,6.227,6.227,0,0,1,1.23.82,2.726,2.726,0,0,1,.63.83,2.105,2.105,0,0,1,.18.86,3.024,3.024,0,0,1-.22,1.18,2.772,2.772,0,0,1-.66.93,2.987,2.987,0,0,1-1.08.61,4.332,4.332,0,0,1-1.45.22,3.609,3.609,0,0,1-3.67-2.62l-.07-.2-.99.7.06.12a4.776,4.776,0,0,0,4.62,3.11,6.254,6.254,0,0,0,1.82-.26,4.467,4.467,0,0,0,1.48-.79,3.791,3.791,0,0,0,1.01-1.27,3.829,3.829,0,0,0,.36-1.7A3.732,3.732,0,0,0,328.943,283Zm-4.47,4.92a4.709,4.709,0,0,1-2.53-.69,4.8,4.8,0,0,1-1.74-2.1l.42-.3a3.911,3.911,0,0,0,3.9,2.64,5.063,5.063,0,0,0,1.56-.23,3.246,3.246,0,0,0,1.19-.69,2.955,2.955,0,0,0,.74-1.04,3.324,3.324,0,0,0,.25-1.31,2.493,2.493,0,0,0-.21-1,2.816,2.816,0,0,0-.71-.93,6.4,6.4,0,0,0-1.29-.87,16.606,16.606,0,0,0-2.02-.87,7.438,7.438,0,0,1-2.84-1.61,2.7,2.7,0,0,1-.81-1.98,3.1,3.1,0,0,1,.32-1.45,3,3,0,0,1,.87-1.03,3.9,3.9,0,0,1,1.3-.61,6.536,6.536,0,0,1,1.62-.2,5.411,5.411,0,0,1,2.47.54,4.457,4.457,0,0,1,1.71,1.59l-.39.3a4.767,4.767,0,0,0-1.55-1.46,4.456,4.456,0,0,0-2.3-.56,5.511,5.511,0,0,0-1.3.15,3,3,0,0,0-1.1.5,2.486,2.486,0,0,0-.77.87,2.634,2.634,0,0,0-.29,1.26,2.8,2.8,0,0,0,.18,1.04,2.468,2.468,0,0,0,.6.84,4.489,4.489,0,0,0,1.08.71c.44.23.98.47,1.6.72a17.855,17.855,0,0,1,2.22,1.02,6.362,6.362,0,0,1,1.33.96,2.661,2.661,0,0,1,.65.98,3.373,3.373,0,0,1,.18,1.12,3.54,3.54,0,0,1-.33,1.56,3.415,3.415,0,0,1-.91,1.15,4.137,4.137,0,0,1-1.38.73A5.542,5.542,0,0,1,324.473,287.918Z"/>
      </g>
      <g id="Group_9379" data-name="Group 9379">
        <path id="Path_13194" data-name="Path 13194" d="M331.273,273.758v14.03h.84v-14.03Z"/>
        <path id="Path_13195" data-name="Path 13195" d="M331.113,273.6v14.35h1.16V273.6Zm.83,14.02h-.5v-13.69h.5Z"/>
      </g>
      <g id="Group_9380" data-name="Group 9380">
        <path id="Path_13196" data-name="Path 13196" d="M343.393,283.048a2.7,2.7,0,0,0-.69-1.04,6.054,6.054,0,0,0-1.36-.98,17.716,17.716,0,0,0-2.25-1.03c-.62-.26-1.15-.49-1.58-.71a4.46,4.46,0,0,1-1.04-.69,2.141,2.141,0,0,1-.56-.78,2.681,2.681,0,0,1-.17-.98,2.448,2.448,0,0,1,.27-1.18,2.376,2.376,0,0,1,.72-.82,3.146,3.146,0,0,1,1.05-.47,5.037,5.037,0,0,1,1.25-.15,4.359,4.359,0,0,1,2.23.54,4.7,4.7,0,0,1,1.58,1.56l.66-.5a4.715,4.715,0,0,0-1.86-1.78,5.629,5.629,0,0,0-2.55-.56,6.323,6.323,0,0,0-1.65.21,4.168,4.168,0,0,0-1.36.64,3.2,3.2,0,0,0-.92,1.08,3.321,3.321,0,0,0-.34,1.53,2.956,2.956,0,0,0,.85,2.1,7.953,7.953,0,0,0,2.91,1.65,15.38,15.38,0,0,1,1.99.85,6.232,6.232,0,0,1,1.26.85,2.609,2.609,0,0,1,.67.88,2.164,2.164,0,0,1,.2.93,3.117,3.117,0,0,1-.24,1.24,2.753,2.753,0,0,1-.7.99,3.052,3.052,0,0,1-1.13.65,4.7,4.7,0,0,1-1.51.23,3.8,3.8,0,0,1-3.82-2.73l-.7.49a4.969,4.969,0,0,0,1.86,2.3,4.832,4.832,0,0,0,2.61.72,5.982,5.982,0,0,0,1.78-.26,4.358,4.358,0,0,0,1.43-.76,3.624,3.624,0,0,0,.95-1.21,3.686,3.686,0,0,0,.35-1.63A3.477,3.477,0,0,0,343.393,283.048Z"/>
        <path id="Path_13197" data-name="Path 13197" d="M343.553,283a3.061,3.061,0,0,0-.73-1.1,6.424,6.424,0,0,0-1.4-1.02,17.812,17.812,0,0,0-2.26-1.04c-.61-.24-1.14-.48-1.58-.7a4.676,4.676,0,0,1-1-.66,2.158,2.158,0,0,1-.52-.72,2.572,2.572,0,0,1-.15-.92,2.209,2.209,0,0,1,.25-1.1,2.24,2.24,0,0,1,.66-.77,3.135,3.135,0,0,1,1-.44,4.776,4.776,0,0,1,1.21-.14,4.237,4.237,0,0,1,2.14.51,4.614,4.614,0,0,1,1.54,1.51l.09.14.92-.69-.08-.13a4.981,4.981,0,0,0-1.93-1.84,5.8,5.8,0,0,0-2.62-.57,6.709,6.709,0,0,0-1.7.21,4.28,4.28,0,0,0-1.41.67,3.275,3.275,0,0,0-.96,1.13,3.442,3.442,0,0,0-.36,1.61,3.107,3.107,0,0,0,.89,2.21,7.888,7.888,0,0,0,2.98,1.69,16.449,16.449,0,0,1,1.97.85,6.123,6.123,0,0,1,1.22.82,2.438,2.438,0,0,1,.63.83,1.963,1.963,0,0,1,.19.86,3.027,3.027,0,0,1-.23,1.18,2.639,2.639,0,0,1-.66.93,3.027,3.027,0,0,1-1.07.61,4.434,4.434,0,0,1-1.46.22,3.6,3.6,0,0,1-3.66-2.62l-.08-.2-.98.7.05.12a5.15,5.15,0,0,0,1.92,2.37,5.094,5.094,0,0,0,2.7.74,6.323,6.323,0,0,0,1.83-.26,4.567,4.567,0,0,0,1.48-.79,3.762,3.762,0,0,0,1-1.27,3.831,3.831,0,0,0,.37-1.7A3.732,3.732,0,0,0,343.553,283Zm-4.48,4.92a4.434,4.434,0,0,1-4.26-2.79l.42-.3a3.907,3.907,0,0,0,3.89,2.64,5.082,5.082,0,0,0,1.57-.23,3.285,3.285,0,0,0,1.18-.69,2.859,2.859,0,0,0,.75-1.04,3.512,3.512,0,0,0,.25-1.31,2.346,2.346,0,0,0-.22-1,2.917,2.917,0,0,0-.7-.93,6.5,6.5,0,0,0-1.3-.87,16.385,16.385,0,0,0-2.01-.87,7.575,7.575,0,0,1-2.85-1.61,2.732,2.732,0,0,1-.8-1.98,3.1,3.1,0,0,1,.32-1.45,2.89,2.89,0,0,1,.87-1.03,3.808,3.808,0,0,1,1.3-.61,6.4,6.4,0,0,1,1.61-.2,5.411,5.411,0,0,1,2.47.54,4.482,4.482,0,0,1,1.72,1.59l-.4.3a4.739,4.739,0,0,0-1.54-1.46,4.468,4.468,0,0,0-2.31-.56,5.366,5.366,0,0,0-1.29.15,3.124,3.124,0,0,0-1.11.5,2.459,2.459,0,0,0-.76.87,2.524,2.524,0,0,0-.29,1.26,2.8,2.8,0,0,0,.18,1.04,2.339,2.339,0,0,0,.6.84,4.617,4.617,0,0,0,1.07.71c.45.23.98.47,1.6.72a17.409,17.409,0,0,1,2.23,1.02,6.361,6.361,0,0,1,1.33.96,2.662,2.662,0,0,1,.65.98,3.373,3.373,0,0,1,.18,1.12,3.543,3.543,0,0,1-.34,1.56,3.3,3.3,0,0,1-.91,1.15,4.186,4.186,0,0,1-1.37.73A5.652,5.652,0,0,1,339.073,287.918Z"/>
      </g>
      <g id="Group_9381" data-name="Group 9381">
        <path id="Path_13198" data-name="Path 13198" d="M344.083,273.758v.76h4.27v13.27h.84V274.5h4.29v-.74Z"/>
        <path id="Path_13199" data-name="Path 13199" d="M343.923,273.6v1.09h4.27v13.26h1.16v-13.28h4.29V273.6Zm9.39.74h-4.29v13.28h-.5v-13.26h-4.27v-.43h9.06Z"/>
      </g>
      <g id="Group_9382" data-name="Group 9382">
        <path id="Path_13200" data-name="Path 13200" d="M358.713,273.758h-.86l-5.07,14.03h.9l1.41-4.07h6.31l1.4,4.07h.91Zm-3.38,9.28,2.94-8.52,2.91,8.52Z"/>
        <path id="Path_13201" data-name="Path 13201" d="M358.273,274.008l-3.09,8.98-.08.21h6.31Zm0,1.02,2.68,7.85h-5.39Zm0-1.02-3.09,8.98-.08.21h6.31Zm0,1.02,2.68,7.85h-5.39Zm.59-1.32-.04-.11h-1.09l-5.19,14.35h1.25l1.42-4.07h6.07l1.36,3.96.04.11h1.27Zm2.66,9.84h-6.54l-1.42,4.07h-.55l4.95-13.69h.63l4.89,13.69h-.57l-1.35-3.95Zm-6.34-.56-.08.21h6.31l-3.14-9.19Zm.38-.11,2.71-7.85,2.68,7.85Zm2.71-8.87-3.09,8.98-.08.21h6.31Zm0,1.02,2.68,7.85h-5.39Zm0-1.02-3.09,8.98-.08.21h6.31Zm0,1.02,2.68,7.85h-5.39Z"/>
      </g>
      <g id="Group_9383" data-name="Group 9383">
        <path id="Path_13202" data-name="Path 13202" d="M374.933,273.758l.02,12.55-8.2-12.55h-.94v14.03h.88V275.2l8.2,12.59h.9v-14.03Z"/>
        <path id="Path_13203" data-name="Path 13203" d="M374.763,273.6l.02,12.16-7.95-12.16h-1.19v14.35h1.21v-12.2l7.9,12.13.05.07h1.15V273.6Zm.86,14.02h-.64l-8.46-12.98v12.98h-.55v-13.69h.69l8.45,12.94-.02-12.94h.53Z"/>
      </g>
      <g id="Group_9384" data-name="Group 9384">
        <path id="Path_13204" data-name="Path 13204" d="M377.683,273.758v.76h4.27v13.27h.84V274.5h4.29v-.74Z"/>
        <path id="Path_13205" data-name="Path 13205" d="M377.523,273.6v1.09h4.27v13.26h1.16v-13.28h4.29V273.6Zm9.39.74h-4.29v13.28h-.5v-13.26h-4.27v-.43h9.06Z"/>
      </g>
      <path id="Path_13206" data-name="Path 13206" d="M76.753,233.308c-.18,0-.36.18-.63.27a10.793,10.793,0,0,1-1.99.18c-1.04.04-10.22,0-11.12,0l-1.86-.05c-.99-.04-2.21-.04-3.25-.04-.5,0-.72.09-.72.36,0,.18.18.27.36.27a8.648,8.648,0,0,1,1.54.14c1.49.31,1.85,1.04,1.94,2.57.09,1.45.09,2.72.09,9.77v7.96c0,4.34,0,7.91-.23,9.81-.18,1.31-.4,2.3-1.31,2.48a6.276,6.276,0,0,1-1.35.19c-.28,0-.37.13-.37.27,0,.27.23.36.73.36,1.35,0,4.2-.14,4.43-.14s3.07.14,5.56.14c.5,0,.72-.14.72-.36,0-.14-.09-.27-.36-.27a17.422,17.422,0,0,1-2.03-.19c-1.36-.18-1.63-1.17-1.77-2.48-.22-1.9-.22-5.47-.22-9.81v-3.85c0-.31.09-.4.31-.4.77,0,5.7,0,6.83.13a2.733,2.733,0,0,1,2.35,1.63,7.377,7.377,0,0,1,.27,1.63c0,.22.09.41.32.41.32,0,.32-.46.32-.86,0-.32.09-2.13.18-3.03.13-1.49.36-2.26.36-2.54,0-.22-.05-.36-.23-.36s-.31.23-.49.46c-.41.58-1,.72-2.08.81-.64.04-1.27.04-2.04.04l-5.79.05c-.27,0-.31-.14-.31-.41v-12.48c0-.36.13-.49.4-.49l6.97.13a3.445,3.445,0,0,1,3.07,1.45,4.946,4.946,0,0,1,.41,1.72c0,.31.09.54.31.54s.32-.27.37-.5c.09-.54.18-2.53.22-2.98.14-1.27.36-1.81.36-2.13C77.023,233.488,76.933,233.308,76.753,233.308Z" fill="#fe0000"/>
      <path id="Path_13207" data-name="Path 13207" d="M99.223,238.238a15.216,15.216,0,0,0-15.78,15.01c0,6.91,4.66,15.1,15.56,15.1,9.58,0,15.95-7.1,15.95-15.69C114.953,243.708,108.173,238.238,99.223,238.238Zm.91,28.52c-7.19,0-12.57-5.6-12.57-14.55,0-8.37,4.79-12.53,11.44-12.53,6.28,0,11.89,4.84,11.89,14.06C110.893,264.858,103.7,266.758,100.133,266.758Z" fill="#fe0000"/>
      <path id="Path_13208" data-name="Path 13208" d="M150.763,267.218a7.065,7.065,0,0,1-1.4-.14c-1-.14-2.31-.5-4.43-2.67-2.31-2.39-5.07-5.88-8.32-9.94,3.71-3.17,4.88-5.93,4.88-8.78a6.724,6.724,0,0,0-2.76-5.24c-2.08-1.45-4.88-1.67-7.41-1.67-1.22,0-4.57.09-4.97.09-.23,0-2.9-.09-4.71-.09-.45,0-.63.09-.63.31a.382.382,0,0,0,.32.32c.36,0,1.04.05,1.35.09,1.31.18,1.54.81,1.63,2.13.09,1.22.09,2.3.09,8.27v6.78a80.586,80.586,0,0,1-.22,8.32c-.19,1.13-.28,1.85-1.04,2.03a5.244,5.244,0,0,1-1.23.19.3.3,0,0,0-.31.31c0,.23.22.32.63.32,1.22,0,3.89-.14,3.93-.14.19,0,2.72.14,4.89.14.45,0,.63-.14.63-.32,0-.13-.04-.31-.32-.31a12.975,12.975,0,0,1-1.76-.19c-1.22-.18-1.45-.9-1.58-2.03-.18-1.58-.18-4.57-.18-8.27v-.91c0-.22.09-.31.27-.31l5.06.09a.6.6,0,0,1,.54.22c.86,1.04,2.63,3.53,4.3,5.61,2.26,2.89,3.71,4.75,5.43,5.65a8.007,8.007,0,0,0,4.25.77h2.48c.73,0,.95-.09.95-.32A.345.345,0,0,0,150.763,267.218Zm-15.28-13.66a5.211,5.211,0,0,1-2.99.68,13.356,13.356,0,0,1-4.38-.59.556.556,0,0,1-.27-.49v-12.35a.49.49,0,0,1,.31-.45,17.4,17.4,0,0,1,2.85-.23c4.25,0,6.87,2.76,6.87,7.55C137.873,250.618,136.833,252.658,135.483,253.558Z" fill="#fe0000"/>
      <path id="Path_13209" data-name="Path 13209" d="M179.783,238.778c-1.17,0-3.07.09-3.34.09-.23,0-2.53-.09-4.3-.09-.45,0-.63.09-.63.31a.344.344,0,0,0,.32.32c.36,0,1.04.05,1.35.09,1.31.18,1.54.91,1.59,2.13s.09,2.3.09,8.27v4.84c0,3.93-.41,7.1-2.27,9.31a8.126,8.126,0,0,1-6.14,2.71,7.749,7.749,0,0,1-5.93-2.08c-1.71-1.53-2.94-3.84-2.94-9.4V249.9c0-5.97,0-7.05.09-8.27.1-1.27.32-1.95,1.36-2.13a4.682,4.682,0,0,1,1-.09.386.386,0,0,0,.36-.32c0-.22-.23-.31-.68-.31-1.18,0-3.66.09-4.02.09s-2.76-.09-4.57-.09c-.45,0-.63.09-.63.31a.383.383,0,0,0,.31.32c.36,0,1.04.05,1.36.09,1.31.18,1.54.91,1.63,2.13s.09,2.3.09,8.27v5.65c0,5.61,1.53,8.28,3.48,10.08,2.8,2.63,6.96,2.72,8.27,2.72a12.031,12.031,0,0,0,8.32-2.81c3.17-2.71,3.71-7.37,3.71-11.53V249.9c0-5.97-.05-7.05.04-8.27.09-1.27.32-1.9,1.41-2.13a4.6,4.6,0,0,1,.99-.09.344.344,0,0,0,.32-.32C180.423,238.868,180.243,238.778,179.783,238.778Z" fill="#fe0000"/>
      <path id="Path_13210" data-name="Path 13210" d="M217.533,238.778c-1.63,0-2.94.09-3.39.09s-2.35-.09-4.16-.09c-.45,0-.77.04-.77.27a.319.319,0,0,0,.32.36,13.357,13.357,0,0,1,1.94.18c1.22.23,1.45,1.09,1.5,3.57l.4,19.26c-1.22-1.26-5.47-5.83-9.4-9.9-6.15-6.33-11.94-12.48-12.57-13.11-.41-.41-1.09-1.17-1.54-1.17-.31,0-.54.4-.54,1.94V262.2c0,3.48-.14,4.52-1.13,4.79a6.342,6.342,0,0,1-1.63.23.3.3,0,0,0-.31.31c0,.27.22.32.63.32,1.81,0,3.48-.14,3.84-.14s1.95.14,4.21.14c.45,0,.72-.09.72-.32a.308.308,0,0,0-.32-.31,9.632,9.632,0,0,1-1.99-.23c-1.08-.27-1.44-1.22-1.53-4.39l-.46-18.13c1.23,1.36,5.7,6.06,10.31,10.9,4.21,4.39,9.95,10.04,10.36,10.4,2.21,2.03,2.62,2.35,3.03,2.35.27,0,.31-.23.31-2.76l.09-22.51c0-2.31.09-3.08,1.4-3.35a4.572,4.572,0,0,1,.95-.09.464.464,0,0,0,.46-.36C218.263,238.818,217.943,238.778,217.533,238.778Z" fill="#fe0000"/>
      <path id="Path_13211" data-name="Path 13211" d="M252.7,251.618c-.95,0-1.22.04-1.22.4,0,.23.27.32.5.32a6.051,6.051,0,0,0,.95.05c6.42,0,11.12-4.34,11.12-10.76a7.847,7.847,0,0,0-2.26-5.38c-.72-.68-2.76-2.58-8.41-2.58-2.08,0-4.7.13-5.7.13-.36,0-3.07-.13-5.1-.13-.5,0-.73.09-.73.36,0,.18.18.27.36.27a8.48,8.48,0,0,1,1.54.14c1.49.31,1.86,1.04,1.94,2.57.1,1.45.1,2.72.1,9.77v7.96c0,4.34,0,7.91-.23,9.81-.18,1.31-.41,2.3-1.31,2.48a6.367,6.367,0,0,1-1.36.19c-.27,0-.36.13-.36.27,0,.27.23.36.72.36,1.36,0,4.21-.14,4.34-.14.23,0,3.08.14,5.56.14.5,0,.73-.14.73-.36,0-.14-.09-.27-.36-.27a17.571,17.571,0,0,1-2.04-.19c-1.35-.18-1.62-1.17-1.76-2.48-.23-1.9-.23-5.47-.23-9.81v-18.58c0-.46.09-.77.37-.86a5.494,5.494,0,0,1,1.94-.28,7.824,7.824,0,0,1,6.19,2.27,9.566,9.566,0,0,1,2.53,6.96A7.5,7.5,0,0,1,252.7,251.618Z"/>
      <path id="Path_13212" data-name="Path 13212" d="M286.163,238.238a15.216,15.216,0,0,0-15.78,15.01c0,6.91,4.65,15.1,15.55,15.1,9.59,0,15.96-7.1,15.96-15.69C301.893,243.708,295.113,238.238,286.163,238.238Zm.9,28.52c-7.19,0-12.57-5.6-12.57-14.55,0-8.37,4.79-12.53,11.44-12.53,6.29,0,11.89,4.84,11.89,14.06C297.823,264.858,290.633,266.758,287.063,266.758Z"/>
      <path id="Path_13213" data-name="Path 13213" d="M318.393,267.218a14.51,14.51,0,0,1-1.81-.19c-1.17-.18-1.31-.9-1.44-2.03-.19-1.58-.19-4.61-.19-8.32V249.9c0-5.97,0-7.05.05-8.27.09-1.36.32-1.9,1.4-2.13a4.452,4.452,0,0,1,1-.09.383.383,0,0,0,.31-.32c0-.22-.18-.31-.63-.31-1.22,0-3.8.09-3.98.09-.23,0-2.71-.09-4.02-.09-.46,0-.64.09-.64.31a.344.344,0,0,0,.32.32,7.211,7.211,0,0,1,1.22.14c.86.18,1.18.76,1.27,2.08.09,1.22.09,2.3.09,8.27v6.78c0,3.71-.05,6.74-.23,8.32-.13,1.13-.27,1.85-1.04,2.03a5.162,5.162,0,0,1-1.22.19.306.306,0,0,0-.32.31c0,.23.23.32.64.32,1.22,0,3.7-.14,3.93-.14.18,0,2.76.14,4.97.14.46,0,.64-.14.64-.32A.306.306,0,0,0,318.393,267.218Z"/>
      <path id="Path_13214" data-name="Path 13214" d="M356.553,238.778c-1.63,0-2.94.09-3.39.09s-2.35-.09-4.16-.09c-.45,0-.77.04-.77.27a.314.314,0,0,0,.32.36,13.474,13.474,0,0,1,1.94.18c1.22.23,1.45,1.09,1.49,3.57l.41,19.26c-1.22-1.26-5.47-5.83-9.41-9.9-6.14-6.33-11.93-12.48-12.56-13.11-.41-.41-1.09-1.17-1.54-1.17-.32,0-.54.4-.54,1.94V262.2c0,3.48-.14,4.52-1.13,4.79a6.342,6.342,0,0,1-1.63.23.308.308,0,0,0-.32.31c0,.27.23.32.64.32,1.8,0,3.48-.14,3.84-.14s1.94.14,4.2.14c.45,0,.73-.09.73-.32a.308.308,0,0,0-.32-.31,9.562,9.562,0,0,1-1.99-.23c-1.09-.27-1.45-1.22-1.54-4.39l-.45-18.13c1.22,1.36,5.7,6.06,10.31,10.9,4.2,4.39,9.95,10.04,10.35,10.4,2.22,2.03,2.62,2.35,3.03,2.35.27,0,.32-.23.32-2.76l.09-22.51c0-2.31.09-3.08,1.4-3.35a4.522,4.522,0,0,1,.95-.09.451.451,0,0,0,.45-.36C357.273,238.818,356.963,238.778,356.553,238.778Z"/>
      <path id="Path_13215" data-name="Path 13215" d="M387.063,238.508c-.18,0-.54.09-1.13.18a19.762,19.762,0,0,1-2.85.18h-15.01c-.45,0-1.99-.05-3.12-.18a15,15,0,0,1-1.76-.45c-.13,0-.36.49-.41.72-.09.31-.85,3.75-.85,4.16a.3.3,0,0,0,.27.31c.18,0,.31-.04.4-.36a6.3,6.3,0,0,1,.64-1.22c.58-.9,1.53-1.17,4.02-1.22l5.74-.09v16.14c0,3.71,0,6.74-.18,8.32-.13,1.13-.36,1.9-1.17,2.08a5.446,5.446,0,0,1-1.18.18c-.23,0-.32.14-.32.27,0,.23.18.32.64.32,1.17,0,3.93-.14,4.11-.14.23,0,2.76.14,4.93.14.45,0,.63-.14.63-.32a.276.276,0,0,0-.31-.31,13.458,13.458,0,0,1-1.81-.19c-1.22-.18-1.4-.9-1.54-2.03-.18-1.58-.18-4.61-.18-8.32v-16.14l4.97.09c3.8.09,4.66.95,4.79,2.13l.05.4c.05.55.13.68.32.68s.36-.18.36-.5c0-.45.13-3.21.13-4.38C387.243,238.728,387.243,238.508,387.063,238.508Z"/>
    </g>
    <line id="Line_16" data-name="Line 16" y2="8.244" transform="translate(435.543 235.36)" fill="none"/>
  </g>
</svg>
