<?xml version="1.0" encoding="UTF-8"?><svg xmlns="http://www.w3.org/2000/svg" xmlns:xlink="http://www.w3.org/1999/xlink" viewBox="0 0 512 512"><defs><style>.uuid-371e77b1-a12f-491d-8870-ad8ff4e5685c{fill:#23a6ff;}.uuid-5d8b89e9-4180-4c88-a486-679262279c8c{fill:#b3c267;}.uuid-497e5254-6b06-4e3f-92b0-0d201b2024b6{fill:#9ab446;}.uuid-dff9c011-8cc9-4d2d-b5d7-368af20b31df{isolation:isolate;}.uuid-f0d0e3b6-3d20-46b0-ae8f-9010c52c6f58{fill:gray;}.uuid-e1355866-be6e-446e-8cc8-f77c6e9995ee{fill:#f2f2f2;}.uuid-e1355866-be6e-446e-8cc8-f77c6e9995ee,.uuid-d580a61e-5ef1-41c3-8af8-d86e5033c035{mix-blend-mode:multiply;}.uuid-ffdda016-b92a-4730-93e0-abb9a52d0f62{mix-blend-mode:screen;}.uuid-0b256091-6e2f-4b00-bded-821b946eb9c6{fill:#5d5d5d;}.uuid-f57aab7f-22ad-4817-a1aa-62798428dd93{fill:none;}.uuid-cd89e1b0-96e7-44d4-95ff-42cf990c3713{clip-path:url(#uuid-7fb15eaf-9ee5-4a83-9ba4-3ff3780f53ab);}.uuid-25b47ac1-6ab1-4874-9590-6c345f8d7662{fill:#404040;}.uuid-743d8a1b-4199-4333-ad9c-29748a4a7ac2{fill:#c9da74;}.uuid-16d150fa-b634-4c7b-a698-9fd9536fe19c{fill:#6d8031;}.uuid-a0a2e5cd-1999-4024-9346-12d63c739add{fill:#ffdc48;}</style><clipPath id="uuid-7fb15eaf-9ee5-4a83-9ba4-3ff3780f53ab"><polygon class="uuid-f57aab7f-22ad-4817-a1aa-62798428dd93" points="158.94 294.73 342.62 294.73 438.93 294.73 449.29 194.25 372.02 124.04 280.19 100.06 158.94 80 123.4 146.99 62.71 185.54 85.67 229.29 123.4 288.13 131.18 302.02 158.94 294.73"/></clipPath></defs><g class="uuid-dff9c011-8cc9-4d2d-b5d7-368af20b31df"><g id="uuid-542dca63-8c2b-44b5-ad87-78b97e248455"><g><path class="uuid-e1355866-be6e-446e-8cc8-f77c6e9995ee" d="M359.68,427.32c0,8.41-49.84,15.22-111.33,15.22s-111.33-6.82-111.33-15.22,49.84-15.22,111.33-15.22,111.33,6.82,111.33,15.22Z"/><g><g><path class="uuid-371e77b1-a12f-491d-8870-ad8ff4e5685c" d="M125.43,125.52c.16,4.52-4.63,9.89-11.8,12.78-8.23,3.32-16.48,2.11-18.43-2.71-1.94-4.82,3.16-11.42,11.39-14.74,7.64-3.08,15.29-2.25,17.91,1.74,4.93-.92,10.6-1.3,16.78-.57-.99-.9-1.96-1.85-2.88-2.81-4.17,1.41-10.59-1.06-15.71-6.41-6.14-6.42-8.06-14.53-4.31-18.12,3.76-3.59,11.77-1.3,17.91,5.12,5.83,6.1,7.85,13.71,4.82,17.54,2.16,2.22,4.53,4.32,6.95,5.91,1.19,.29,2.39,.63,3.61,1.01,.02,0,.04,0,.06,0,.24,.03,.45,.12,.64,.24,7.12,2.36,14.67,6.36,22.38,12.75,.34,.28,.53,.66,.58,1.06,.05,.42-.07,.87-.36,1.22-.57,.69-1.59,.78-2.28,.21-7.4-6.14-14.59-9.99-21.34-12.27h0c-1.26-.16-2.54,.1-3.81,.65,2.76,3.98,.39,11.43-5.65,17.23-6.41,6.14-14.52,8.09-18.11,4.34-3.6-3.75-1.31-11.77,5.1-17.92,5.27-5.05,11.68-7.25,15.8-5.8,.13-.08,.27-.15,.4-.23-7.33-1.53-13.99-1.27-19.63-.25Z"/><path class="uuid-16d150fa-b634-4c7b-a698-9fd9536fe19c" d="M166.52,115.82c-3.08,3.31-10.27,3.72-17.38,.7-8.17-3.47-13.15-10.17-11.11-14.95,2.03-4.78,10.3-5.84,18.48-2.37,7.59,3.23,12.41,9.22,11.43,13.89,4.14,2.84,8.41,6.57,12.26,11.46-.06-1.34-.08-2.69-.05-4.02-3.95-1.95-6.74-8.24-6.57-15.64,.2-8.88,4.57-15.98,9.77-15.86,5.19,.12,9.24,7.41,9.04,16.28-.19,8.43-4.15,15.25-8.99,15.81-.04,3.1,.15,6.25,.73,9.09,.63,1.05,1.25,2.13,1.84,3.27,.01,.02,.03,.03,.04,.05,.15,.19,.23,.4,.28,.62,3.37,6.71,5.87,14.87,6.8,24.84,.04,.43-.09,.84-.35,1.16-.26,.33-.66,.56-1.12,.61-.89,.08-1.68-.57-1.76-1.46-.89-9.57-3.25-17.38-6.41-23.76h0c-.78-1-1.87-1.73-3.16-2.23-.86,4.76-7.81,8.36-16.18,8.19-8.88-.19-15.98-4.55-15.87-9.74s7.39-9.25,16.27-9.07c7.3,.15,13.39,3.13,15.27,7.07,.15,.04,.3,.08,.45,.12-4.11-6.27-8.99-10.79-13.7-14.05Z"/></g><g><path class="uuid-371e77b1-a12f-491d-8870-ad8ff4e5685c" d="M130.55,194.25c1.51,4.27-1.45,10.83-7.43,15.73-6.86,5.63-15.1,6.95-18.39,2.93-3.3-4.02-.4-11.84,6.46-17.47,6.37-5.23,13.92-6.73,17.61-3.7,4.43-2.36,9.72-4.41,15.84-5.56-1.22-.57-2.42-1.18-3.59-1.82-3.56,2.59-10.42,2.16-16.91-1.42-7.78-4.29-12.04-11.45-9.54-16s10.84-4.76,18.62-.47c7.39,4.07,11.6,10.74,9.85,15.29,2.73,1.47,5.61,2.76,8.4,3.56,1.22-.08,2.47-.12,3.75-.11,.02,0,.04-.01,.06-.01,.24-.04,.46-.02,.68,.04,7.5,.12,15.9,1.68,25.17,5.47,.4,.16,.7,.47,.87,.84,.17,.39,.19,.85,.02,1.27-.34,.83-1.29,1.23-2.11,.89-8.9-3.64-16.91-5.16-24.03-5.32h0c-1.25,.23-2.4,.86-3.44,1.77,3.82,2.97,3.8,10.79-.23,18.13-4.28,7.78-11.43,12.06-15.99,9.56-4.55-2.5-4.78-10.84-.5-18.62,3.52-6.4,8.97-10.42,13.34-10.26,.1-.11,.21-.23,.32-.34-7.45,.74-13.73,2.97-18.8,5.64Z"/><path class="uuid-371e77b1-a12f-491d-8870-ad8ff4e5685c" d="M166.85,172.69c-1.95,4.08-8.68,6.63-16.37,5.87-8.84-.87-15.59-5.76-15.08-10.93,.51-5.17,8.08-8.66,16.92-7.79,8.2,.81,14.6,5.08,15.07,9.83,4.8,1.47,10,3.75,15.13,7.26-.46-1.26-.88-2.54-1.25-3.82-4.35-.68-8.9-5.84-10.95-12.96-2.47-8.53-.42-16.61,4.57-18.06,4.99-1.44,11.04,4.3,13.5,12.83,2.34,8.1,.61,15.79-3.85,17.78,.89,2.97,2.01,5.92,3.42,8.46,.92,.81,1.83,1.66,2.73,2.57,.02,.01,.04,.02,.05,.03,.2,.14,.34,.31,.45,.51,5.22,5.39,10.06,12.43,13.93,21.66,.17,.4,.16,.83,.02,1.21-.15,.4-.46,.74-.89,.91-.83,.35-1.78-.04-2.12-.87-3.72-8.86-8.31-15.61-13.23-20.75h0c-1.05-.72-2.3-1.09-3.68-1.18,.61,4.8-4.95,10.32-12.98,12.65-8.53,2.48-16.61,.44-18.06-4.54-1.45-4.99,4.29-11.04,12.81-13.52,7.01-2.04,13.71-1.02,16.68,2.17,.15,0,.31-.01,.46-.02-5.79-4.75-11.81-7.6-17.28-9.31Z"/></g><g><path class="uuid-371e77b1-a12f-491d-8870-ad8ff4e5685c" d="M160.24,293.46h177.09c6.92,0,12.53,5.61,12.53,12.53h0c0,5.56-3.65,10.23-8.67,11.86,.18,2.29,.3,4.61,.3,6.95,0,36.03-20.82,67.19-51.07,82.15,4.21,1.27,7.29,5.13,7.29,9.75,0,5.65-4.58,10.23-10.23,10.23h-77.39c-5.65,0-10.23-4.58-10.23-10.23,0-5.17,3.86-9.41,8.84-10.09-29.89-15.08-50.41-46.04-50.41-81.81,0-2.17,.1-4.32,.26-6.45-6.11-.83-10.84-6.02-10.84-12.36h0c0-6.92,5.61-12.53,12.53-12.53Z"/><g class="uuid-ffdda016-b92a-4730-93e0-abb9a52d0f62"><path class="uuid-25b47ac1-6ab1-4874-9590-6c345f8d7662" d="M187.37,307.96h150.06c3.28,0,5.93-2.66,5.93-5.93h0c0-3.28-2.66-5.93-5.93-5.93H187.37c-3.28,0-5.93,2.66-5.93,5.93h0c0,3.28,2.66,5.93,5.93,5.93Z"/></g><g class="uuid-ffdda016-b92a-4730-93e0-abb9a52d0f62"><path class="uuid-25b47ac1-6ab1-4874-9590-6c345f8d7662" d="M216.57,424.14h71.6c3.28,0,5.93-2.66,5.93-5.93h0c0-3.28-2.66-5.93-5.93-5.93h-71.6c-3.28,0-5.93,2.66-5.93,5.93h0c0,3.28,2.66,5.93,5.93,5.93Z"/></g><g class="uuid-ffdda016-b92a-4730-93e0-abb9a52d0f62"><path class="uuid-25b47ac1-6ab1-4874-9590-6c345f8d7662" d="M333.29,319.35s-.56,84.9-75.63,85.61c18.8-7.21,54.77-15.48,75.63-85.61Z"/></g></g><g class="uuid-cd89e1b0-96e7-44d4-95ff-42cf990c3713"><g><g><g><path class="uuid-497e5254-6b06-4e3f-92b0-0d201b2024b6" d="M263.8,208.38s-32.15-47.09,4.36-94.91c21.1,43.33,1.17,92.92-4.36,94.91Z"/><g class="uuid-d580a61e-5ef1-41c3-8af8-d86e5033c035"><path class="uuid-497e5254-6b06-4e3f-92b0-0d201b2024b6" d="M268.34,113.86c20.23,42.05,2.03,89.84-4.05,94.24-2.01-17.44-2.88-38.33-.74-61.72,1.08-11.76,2.77-22.63,4.79-32.52Z"/></g></g><g><path class="uuid-497e5254-6b06-4e3f-92b0-0d201b2024b6" d="M290.97,188.67s5.16-34.97,46.04-41.56c-12.07,28.38-38.9,42.11-46.04,41.56Z"/><g class="uuid-d580a61e-5ef1-41c3-8af8-d86e5033c035"><path class="uuid-497e5254-6b06-4e3f-92b0-0d201b2024b6" d="M292.65,188.58c2.05-2.28,7.17-7.93,15.14-16.54,7.81-8.45,22.14-19.48,29.11-24.68-11.32,26.33-35.31,39.97-44.25,41.23Z"/></g></g><g><path class="uuid-497e5254-6b06-4e3f-92b0-0d201b2024b6" d="M296.74,283.31c9.38-2.78,23.43-5.77,40.61-5.17,19.06,.67,34.18,5.49,43.71,9.37-9.36,3.18-25.39,7.28-45.4,5.78-17.04-1.28-30.44-6.13-38.92-9.98Z"/><g class="uuid-d580a61e-5ef1-41c3-8af8-d86e5033c035"><path class="uuid-497e5254-6b06-4e3f-92b0-0d201b2024b6" d="M379.08,288.15c-9.56,3.06-24.76,6.53-43.42,5.13-16.32-1.22-29.28-5.72-37.79-9.48l81.22,4.35Z"/><path class="uuid-497e5254-6b06-4e3f-92b0-0d201b2024b6" d="M296.88,283.37s-.09-.04-.14-.06c.27-.08,.55-.16,.82-.24l-.68,.3Z"/></g></g><g><path class="uuid-743d8a1b-4199-4333-ad9c-29748a4a7ac2" d="M255.12,351.37s-1.32-51.16-.1-67.92c1.21-16.76,11.03-54.1,11.03-54.1,0,0-9.73-72.21,.3-104.64-1.91,31.49-1.22,88.02,3.21,97.49,1.52-9.26,8.25-15.41,8.25-15.41,0,0-1.31-19.3,2.71-26.54l1.82,.51s-3.58,13.43-1.46,22.18c3.7-6.14,18.14-28.59,49.35-50.59-32.14,31.92-35.21,33.67-44.51,49.25,20.51-9.53,24.2-9.39,24.2-9.39l.08,2.23s-23.19,3.57-35.11,25.42c-11.93,21.85-13.48,50.98-13.48,50.98l71.49-22.12-72.09,26.35-.74,4.47c15.13,1.32,36.54,3.12,62.49,5.09,16.43,1.24,25.9,1.89,25.89,2.07-.03,.55-89.31-4.15-89.31-4.15h0l.69,68.4s-1.11,3.99-4.72,.41Z"/><path class="uuid-5d8b89e9-4180-4c88-a486-679262279c8c" d="M254.15,350.45c-.41-20.23-.84-40.44-.34-60.7,.14-10.37,2.24-20.56,4.29-30.61,2.14-10.06,4.54-20.05,7.12-30.01l-.02,.33c-2.15-17.44-3.59-34.95-4.04-52.51-.24-8.78-.19-17.58,.39-26.36,.22-4.39,.74-8.77,1.31-13.14,.62-4.37,1.57-8.69,2.77-12.97,.11-.4,.53-.64,.93-.52,.35,.1,.57,.45,.55,.79-.95,16.25-1.14,32.55-.97,48.84,.11,8.14,.34,16.29,.8,24.41,.24,4.06,.51,8.12,.96,12.15,.46,3.99,.89,8.16,2.27,11.76l-1.27,.18c1.06-6.02,4.15-11.49,8.46-15.79l-.21,.53c-.25-4.52-.28-9.02,0-13.53,.37-4.48,.69-9.09,2.81-13.35,.13-.26,.45-.38,.72-.3l1.82,.51c.33,.09,.51,.44,.44,.77-1.66,7.13-2.94,14.73-1.48,21.88l-1.11-.17c12.64-20.28,30.23-36.97,49.55-50.72,.24-.17,.58-.12,.76,.13,.16,.22,.13,.52-.06,.7l-23.7,23.39c-3.91,3.93-7.82,7.86-11.37,12.09-3.56,4.22-6.56,8.87-9.4,13.63l-.62-.69c3.94-1.82,7.9-3.59,11.92-5.26,2.01-.83,4.03-1.63,6.08-2.37l3.11-1.04c1.08-.3,2.04-.63,3.32-.74,.22-.02,.42,.15,.44,.37v.07l.08,2.23c0,.23-.17,.43-.39,.47-7.88,1.56-15.41,5.14-21.83,10.02-6.45,4.93-11.43,11.51-14.88,18.87-6.86,14.7-10.25,30.93-11.59,47.08l-.48-.37,71.51-22.05c.16-.05,.33,.04,.38,.2,.05,.15-.04,.32-.19,.37l-72.11,26.28,.15-.18-.75,4.47-.2-.26,44.37,3.65,22.19,1.8,11.1,.84,5.55,.43,2.77,.23,1.39,.13,.7,.08c.04,.08,.36-.13,.38,.33l-.35,.02c-7.63,0-14.89-.51-22.35-.8l-22.23-1.09-44.46-2.31,.07-.07,.63,68.4h0c-.29,.94-1.03,1.96-2.12,1.89-1.04-.07-1.88-.8-2.6-1.48l-.97-.92Zm1.95,1.72c.48,.35,1.01,.63,1.62,.67,1.08,.06,1.82-.95,2.11-1.89h0l-.76-68.4,.07-.07h0l44.46,2.23,22.23,1.05c7.37,.32,14.93,.7,22.13,.84l.35-.02c-.05,.38-.06,.13-.22,.18l-.68-.08-1.38-.13-2.77-.22-5.55-.42-11.1-.82-22.19-1.76-44.38-3.57c-.13,0-.22-.12-.21-.25v-.02l.74-4.47c.01-.09,.07-.15,.15-.18l72.06-26.41,.19,.57-71.47,22.18c-.19,.06-.4-.04-.46-.23l-.02-.15c1.32-16.27,4.67-32.51,11.59-47.42,3.45-7.41,8.54-14.18,15.08-19.18,6.54-4.97,14.11-8.61,22.22-10.23l-.39,.47-.08-2.23,.44,.44c-1.91,.25-4.08,1.04-6.07,1.74-2.03,.73-4.04,1.54-6.04,2.36-3.99,1.66-7.94,3.44-11.87,5.26-.24,.11-.53,0-.64-.24-.07-.15-.05-.32,.02-.45,2.84-4.77,5.87-9.49,9.47-13.77,3.58-4.28,7.5-8.24,11.41-12.18l23.66-23.44,.7,.83c-19.19,13.71-36.67,30.38-49.14,50.46-.16,.29-.53,.4-.82,.24-.15-.08-.26-.25-.3-.41-1.54-7.59-.22-15.17,1.45-22.49l.44,.77-1.82-.51,.72-.3c-1.91,3.83-2.3,8.43-2.63,12.82-.26,4.44-.23,8.93,.03,13.36,.01,.2-.08,.4-.21,.53-4.04,4.04-7.06,9.38-8.03,15.04v.05c-.07,.36-.41,.6-.77,.54-.24-.04-.42-.2-.5-.41-1.55-4.04-1.91-8.1-2.41-12.17-.47-4.07-.75-8.15-.99-12.22-.48-8.15-.72-16.31-.85-24.47-.2-16.32-.03-32.64,.89-48.95l1.48,.27c-1.17,4.18-2.09,8.42-2.69,12.74-.55,4.32-1.06,8.66-1.27,13.02-.56,8.72-.59,17.47-.34,26.22,.48,17.49,1.95,34.98,4.12,52.33,.01,.11,0,.23-.02,.33-2.56,9.92-4.93,19.91-7.05,29.94-2.03,10.04-4.08,20.1-4.2,30.3-.47,20.48,0,41.03,.45,61.54l.02,.83Z"/></g><g><path class="uuid-a0a2e5cd-1999-4024-9346-12d63c739add" d="M277.37,161.1l-3.16-2.17c-6.86-4.71-10.07-13.19-8.05-21.26l.93-3.72c.23-.9,1.28-1.3,2.05-.78l2.4,1.64c7.35,5.01,10.79,14.08,8.6,22.71l-.72,2.82c-.23,.9-1.28,1.3-2.05,.77Z"/><path class="uuid-a0a2e5cd-1999-4024-9346-12d63c739add" d="M292.34,200.63l-3.16-2.17c-6.86-4.71-10.07-13.19-8.05-21.26l.93-3.72c.23-.9,1.28-1.3,2.05-.78l2.4,1.64c7.35,5.01,10.79,14.08,8.6,22.71l-.72,2.82c-.23,.9-1.28,1.3-2.05,.77Z"/><path class="uuid-a0a2e5cd-1999-4024-9346-12d63c739add" d="M274.77,170.19l-2.17,3.16c-4.71,6.86-13.19,10.07-21.26,8.05l-3.72-.93c-.9-.23-1.3-1.28-.78-2.05l1.64-2.4c5.01-7.35,14.08-10.79,22.71-8.6l2.82,.72c.9,.23,1.3,1.28,.77,2.05Z"/><path class="uuid-a0a2e5cd-1999-4024-9346-12d63c739add" d="M314.3,155.22l-2.17,3.16c-4.71,6.86-13.19,10.07-21.26,8.05l-3.72-.93c-.9-.23-1.3-1.28-.78-2.05l1.64-2.4c5.01-7.35,14.08-10.79,22.71-8.6l2.82,.71c.9,.23,1.3,1.28,.77,2.05Z"/><path class="uuid-a0a2e5cd-1999-4024-9346-12d63c739add" d="M274.19,165.11l-3.77,.7c-8.18,1.52-16.45-2.21-20.73-9.34l-1.97-3.29c-.48-.8-.02-1.83,.9-2l2.86-.54c8.74-1.65,17.58,2.33,22.14,9.98l1.49,2.5c.48,.8,.01,1.83-.9,2Z"/><path class="uuid-a0a2e5cd-1999-4024-9346-12d63c739add" d="M312.72,182.47l-3.77,.7c-8.18,1.52-16.45-2.21-20.73-9.34l-1.97-3.29c-.48-.8-.02-1.83,.9-2l2.86-.54c8.74-1.65,17.58,2.33,22.14,9.98l1.49,2.5c.48,.8,.01,1.83-.9,2Z"/><path class="uuid-a0a2e5cd-1999-4024-9346-12d63c739add" d="M278.78,173.37l.7,3.77c1.52,8.18-2.21,16.45-9.34,20.73l-3.29,1.97c-.8,.48-1.83,.02-2-.9l-.54-2.86c-1.65-8.74,2.33-17.58,9.98-22.14l2.5-1.49c.8-.48,1.83,0,2,.9Z"/><path class="uuid-a0a2e5cd-1999-4024-9346-12d63c739add" d="M296.14,134.84l.7,3.77c1.52,8.18-2.21,16.45-9.34,20.73l-3.29,1.97c-.8,.48-1.83,.02-2-.9l-.54-2.86c-1.65-8.74,2.33-17.58,9.98-22.14l2.5-1.49c.8-.48,1.83,0,2,.9Z"/><g class="uuid-ffdda016-b92a-4730-93e0-abb9a52d0f62"><path class="uuid-f0d0e3b6-3d20-46b0-ae8f-9010c52c6f58" d="M269.42,136.23s11.77,7.06,9.24,20.83l-3.14,1.19s-12.24-11.89-6.09-22.03Z"/></g><g class="uuid-ffdda016-b92a-4730-93e0-abb9a52d0f62"><path class="uuid-f0d0e3b6-3d20-46b0-ae8f-9010c52c6f58" d="M293.16,138.99s3.56,13.25-7.83,21.4l-3.09-1.32s-.55-17.06,10.92-20.08Z"/></g><g class="uuid-ffdda016-b92a-4730-93e0-abb9a52d0f62"><path class="uuid-f0d0e3b6-3d20-46b0-ae8f-9010c52c6f58" d="M308.37,155.55s-6.51,12.07-20.39,10.17l-1.34-3.09s11.32-12.77,21.73-7.09Z"/></g><g class="uuid-ffdda016-b92a-4730-93e0-abb9a52d0f62"><path class="uuid-f0d0e3b6-3d20-46b0-ae8f-9010c52c6f58" d="M309.35,179.31s-13.18,3.82-21.55-7.41l1.26-3.12s17.04-.88,20.29,10.53Z"/></g><g class="uuid-ffdda016-b92a-4730-93e0-abb9a52d0f62"><path class="uuid-f0d0e3b6-3d20-46b0-ae8f-9010c52c6f58" d="M291.05,195.23s-11.72-7.13-9.11-20.89l3.15-1.18s12.17,11.96,5.96,22.07Z"/></g><g class="uuid-ffdda016-b92a-4730-93e0-abb9a52d0f62"><path class="uuid-f0d0e3b6-3d20-46b0-ae8f-9010c52c6f58" d="M266.78,194.21s-2.71-13.45,9.17-20.86l3,1.52s-.53,17.06-12.17,19.35Z"/></g><g class="uuid-ffdda016-b92a-4730-93e0-abb9a52d0f62"><path class="uuid-f0d0e3b6-3d20-46b0-ae8f-9010c52c6f58" d="M252.51,176.04s7.68-11.37,21.3-8.1l1.02,3.2s-12.53,11.59-22.33,4.9Z"/></g><g class="uuid-ffdda016-b92a-4730-93e0-abb9a52d0f62"><path class="uuid-f0d0e3b6-3d20-46b0-ae8f-9010c52c6f58" d="M253.06,154.6s13.3-3.38,21.29,8.12l-1.37,3.07s-17.06,.32-19.93-11.19Z"/></g><path class="uuid-0b256091-6e2f-4b00-bded-821b946eb9c6" d="M284.14,176.24h0c-4.74,1.79-10.09-.61-11.88-5.35l-.57-1.5c-1.8-4.74,.61-10.09,5.35-11.88h0c4.74-1.79,10.09,.61,11.88,5.35l.57,1.5c1.79,4.74-.61,10.09-5.35,11.88Z"/></g><g><path class="uuid-371e77b1-a12f-491d-8870-ad8ff4e5685c" d="M285.68,228.11l-3.16-2.17c-6.86-4.71-10.07-13.19-8.05-21.26l.93-3.72c.23-.9,1.28-1.3,2.05-.78l2.4,1.64c7.35,5.01,10.79,14.08,8.6,22.71l-.71,2.82c-.23,.9-1.28,1.3-2.05,.77Z"/><path class="uuid-371e77b1-a12f-491d-8870-ad8ff4e5685c" d="M300.65,267.64l-3.16-2.17c-6.86-4.71-10.07-13.19-8.05-21.26l.93-3.72c.23-.9,1.28-1.3,2.05-.78l2.4,1.64c7.35,5.01,10.79,14.08,8.6,22.71l-.72,2.82c-.23,.9-1.28,1.3-2.05,.77Z"/><path class="uuid-371e77b1-a12f-491d-8870-ad8ff4e5685c" d="M283.08,237.2l-2.17,3.16c-4.71,6.86-13.19,10.07-21.26,8.05l-3.72-.93c-.9-.23-1.3-1.28-.78-2.05l1.64-2.4c5.01-7.35,14.08-10.79,22.71-8.6l2.82,.72c.9,.23,1.3,1.28,.77,2.05Z"/><path class="uuid-371e77b1-a12f-491d-8870-ad8ff4e5685c" d="M322.61,222.23l-2.17,3.16c-4.71,6.86-13.19,10.07-21.26,8.05l-3.72-.93c-.9-.23-1.3-1.28-.78-2.05l1.64-2.4c5.01-7.35,14.08-10.79,22.71-8.6l2.82,.71c.9,.23,1.3,1.28,.77,2.05Z"/><path class="uuid-371e77b1-a12f-491d-8870-ad8ff4e5685c" d="M282.5,232.12l-3.77,.7c-8.18,1.52-16.45-2.21-20.73-9.34l-1.97-3.29c-.48-.8-.02-1.83,.9-2l2.86-.54c8.74-1.65,17.58,2.33,22.14,9.98l1.49,2.5c.48,.8,0,1.83-.9,2Z"/><path class="uuid-371e77b1-a12f-491d-8870-ad8ff4e5685c" d="M321.04,249.48l-3.77,.7c-8.18,1.52-16.45-2.21-20.73-9.34l-1.97-3.29c-.48-.8-.02-1.83,.9-2l2.86-.54c8.74-1.65,17.58,2.33,22.14,9.98l1.49,2.5c.48,.8,0,1.83-.9,2Z"/><path class="uuid-371e77b1-a12f-491d-8870-ad8ff4e5685c" d="M287.09,240.38l.7,3.77c1.52,8.18-2.21,16.45-9.34,20.73l-3.29,1.97c-.8,.48-1.83,.02-2-.9l-.54-2.86c-1.65-8.74,2.33-17.58,9.98-22.14l2.5-1.49c.8-.48,1.83,0,2,.9Z"/><path class="uuid-371e77b1-a12f-491d-8870-ad8ff4e5685c" d="M304.46,201.84l.7,3.77c1.52,8.18-2.21,16.45-9.34,20.73l-3.29,1.97c-.8,.48-1.83,.02-2-.9l-.54-2.86c-1.65-8.74,2.33-17.58,9.98-22.14l2.5-1.49c.8-.48,1.83,0,2,.9Z"/><g class="uuid-ffdda016-b92a-4730-93e0-abb9a52d0f62"><path class="uuid-f0d0e3b6-3d20-46b0-ae8f-9010c52c6f58" d="M277.74,203.24s11.77,7.06,9.24,20.83l-3.14,1.19s-12.24-11.89-6.09-22.03Z"/></g><g class="uuid-ffdda016-b92a-4730-93e0-abb9a52d0f62"><path class="uuid-f0d0e3b6-3d20-46b0-ae8f-9010c52c6f58" d="M301.48,206s3.56,13.25-7.83,21.4l-3.09-1.32s-.55-17.06,10.92-20.08Z"/></g><g class="uuid-ffdda016-b92a-4730-93e0-abb9a52d0f62"><path class="uuid-f0d0e3b6-3d20-46b0-ae8f-9010c52c6f58" d="M316.69,222.55s-6.51,12.07-20.39,10.17l-1.34-3.09s11.32-12.77,21.73-7.09Z"/></g><g class="uuid-ffdda016-b92a-4730-93e0-abb9a52d0f62"><path class="uuid-f0d0e3b6-3d20-46b0-ae8f-9010c52c6f58" d="M317.66,246.32s-13.18,3.82-21.55-7.41l1.26-3.12s17.04-.88,20.29,10.53Z"/></g><g class="uuid-ffdda016-b92a-4730-93e0-abb9a52d0f62"><path class="uuid-f0d0e3b6-3d20-46b0-ae8f-9010c52c6f58" d="M299.37,262.24s-11.72-7.13-9.11-20.89l3.15-1.18s12.17,11.96,5.96,22.07Z"/></g><g class="uuid-ffdda016-b92a-4730-93e0-abb9a52d0f62"><path class="uuid-f0d0e3b6-3d20-46b0-ae8f-9010c52c6f58" d="M275.09,261.22s-2.71-13.45,9.17-20.86l3,1.52s-.53,17.06-12.17,19.35Z"/></g><g class="uuid-ffdda016-b92a-4730-93e0-abb9a52d0f62"><path class="uuid-f0d0e3b6-3d20-46b0-ae8f-9010c52c6f58" d="M260.82,243.05s7.68-11.37,21.3-8.1l1.02,3.2s-12.53,11.59-22.33,4.9Z"/></g><g class="uuid-ffdda016-b92a-4730-93e0-abb9a52d0f62"><path class="uuid-f0d0e3b6-3d20-46b0-ae8f-9010c52c6f58" d="M261.38,221.61s13.3-3.38,21.29,8.12l-1.37,3.07s-17.06,.32-19.93-11.19Z"/></g><path class="uuid-0b256091-6e2f-4b00-bded-821b946eb9c6" d="M292.45,243.25h0c-4.74,1.79-10.09-.61-11.88-5.35l-.57-1.5c-1.79-4.74,.61-10.09,5.35-11.88h0c4.74-1.79,10.09,.61,11.88,5.35l.57,1.5c1.79,4.74-.61,10.09-5.35,11.88Z"/></g><g><path class="uuid-371e77b1-a12f-491d-8870-ad8ff4e5685c" d="M323.13,110.42l-2.61-1.8c-5.67-3.89-8.32-10.89-6.65-17.56l.77-3.08c.19-.74,1.06-1.08,1.69-.64l1.98,1.35c6.07,4.14,8.91,11.63,7.1,18.76l-.59,2.33c-.19,.74-1.06,1.07-1.69,.64Z"/><path class="uuid-371e77b1-a12f-491d-8870-ad8ff4e5685c" d="M335.5,143.07l-2.61-1.79c-5.67-3.89-8.32-10.89-6.65-17.56l.77-3.08c.19-.74,1.06-1.08,1.69-.64l1.98,1.35c6.07,4.14,8.91,11.63,7.1,18.76l-.59,2.33c-.19,.74-1.06,1.07-1.69,.64Z"/><path class="uuid-371e77b1-a12f-491d-8870-ad8ff4e5685c" d="M320.99,117.93l-1.79,2.61c-3.89,5.67-10.89,8.32-17.56,6.65l-3.08-.77c-.74-.19-1.08-1.06-.64-1.69l1.35-1.98c4.14-6.07,11.63-8.91,18.76-7.1l2.33,.59c.74,.19,1.07,1.06,.64,1.69Z"/><path class="uuid-371e77b1-a12f-491d-8870-ad8ff4e5685c" d="M353.64,105.56l-1.79,2.61c-3.89,5.67-10.89,8.32-17.56,6.65l-3.08-.77c-.74-.19-1.08-1.06-.64-1.69l1.35-1.98c4.14-6.07,11.63-8.91,18.76-7.1l2.33,.59c.74,.19,1.07,1.06,.64,1.69Z"/><path class="uuid-371e77b1-a12f-491d-8870-ad8ff4e5685c" d="M320.51,113.73l-3.12,.58c-6.76,1.25-13.59-1.82-17.12-7.72l-1.63-2.72c-.39-.66-.01-1.51,.74-1.65l2.36-.45c7.22-1.37,14.53,1.93,18.29,8.24l1.23,2.06c.39,.66,0,1.51-.75,1.65Z"/><path class="uuid-371e77b1-a12f-491d-8870-ad8ff4e5685c" d="M352.34,128.08l-3.12,.58c-6.76,1.25-13.59-1.82-17.12-7.72l-1.63-2.72c-.39-.66-.01-1.51,.74-1.65l2.36-.45c7.22-1.37,14.53,1.93,18.29,8.24l1.23,2.06c.39,.66,0,1.51-.75,1.65Z"/><path class="uuid-371e77b1-a12f-491d-8870-ad8ff4e5685c" d="M324.3,120.56l.58,3.12c1.25,6.76-1.82,13.59-7.72,17.12l-2.72,1.63c-.66,.39-1.51,.01-1.65-.74l-.45-2.36c-1.37-7.22,1.93-14.53,8.24-18.29l2.06-1.23c.66-.39,1.51,0,1.65,.75Z"/><path class="uuid-371e77b1-a12f-491d-8870-ad8ff4e5685c" d="M338.65,88.72l.58,3.12c1.25,6.76-1.82,13.59-7.72,17.12l-2.72,1.63c-.66,.4-1.51,.01-1.65-.74l-.45-2.36c-1.37-7.22,1.93-14.53,8.24-18.29l2.06-1.23c.66-.39,1.51,0,1.65,.75Z"/><g class="uuid-ffdda016-b92a-4730-93e0-abb9a52d0f62"><path class="uuid-f0d0e3b6-3d20-46b0-ae8f-9010c52c6f58" d="M316.57,89.88s9.72,5.83,7.63,17.21l-2.6,.99s-10.12-9.82-5.03-18.2Z"/></g><g class="uuid-ffdda016-b92a-4730-93e0-abb9a52d0f62"><path class="uuid-f0d0e3b6-3d20-46b0-ae8f-9010c52c6f58" d="M336.18,92.16s2.94,10.94-6.47,17.68l-2.55-1.09s-.46-14.09,9.02-16.59Z"/></g><g class="uuid-ffdda016-b92a-4730-93e0-abb9a52d0f62"><path class="uuid-f0d0e3b6-3d20-46b0-ae8f-9010c52c6f58" d="M348.75,105.83s-5.38,9.97-16.85,8.4l-1.1-2.55s9.35-10.55,17.95-5.86Z"/></g><g class="uuid-ffdda016-b92a-4730-93e0-abb9a52d0f62"><path class="uuid-f0d0e3b6-3d20-46b0-ae8f-9010c52c6f58" d="M349.56,125.46s-10.88,3.16-17.8-6.12l1.04-2.57s14.08-.73,16.76,8.7Z"/></g><g class="uuid-ffdda016-b92a-4730-93e0-abb9a52d0f62"><path class="uuid-f0d0e3b6-3d20-46b0-ae8f-9010c52c6f58" d="M334.44,138.62s-9.68-5.89-7.53-17.26l2.6-.97s10.06,9.88,4.92,18.23Z"/></g><g class="uuid-ffdda016-b92a-4730-93e0-abb9a52d0f62"><path class="uuid-f0d0e3b6-3d20-46b0-ae8f-9010c52c6f58" d="M314.39,137.78s-2.24-11.11,7.58-17.24l2.48,1.25s-.44,14.09-10.06,15.98Z"/></g><g class="uuid-ffdda016-b92a-4730-93e0-abb9a52d0f62"><path class="uuid-f0d0e3b6-3d20-46b0-ae8f-9010c52c6f58" d="M302.6,122.76s6.34-9.39,17.6-6.69l.85,2.65s-10.35,9.57-18.44,4.05Z"/></g><g class="uuid-ffdda016-b92a-4730-93e0-abb9a52d0f62"><path class="uuid-f0d0e3b6-3d20-46b0-ae8f-9010c52c6f58" d="M303.06,105.05s10.98-2.79,17.59,6.71l-1.13,2.54s-14.09,.26-16.46-9.25Z"/></g><path class="uuid-0b256091-6e2f-4b00-bded-821b946eb9c6" d="M328.73,122.93h0c-3.92,1.48-8.33-.51-9.81-4.42l-.47-1.24c-1.48-3.92,.51-8.33,4.42-9.81h0c3.92-1.48,8.33,.51,9.81,4.42l.47,1.24c1.48,3.92-.51,8.33-4.42,9.81Z"/></g></g><g><g><path class="uuid-497e5254-6b06-4e3f-92b0-0d201b2024b6" d="M228.79,233.85c-7.91-5.74-20.16-13.24-36.54-18.38-18.17-5.7-34.01-6.17-44.27-5.67,7.77,6.12,21.51,15.32,40.85,20.55,16.47,4.46,30.7,4.32,39.96,3.5Z"/><g class="uuid-d580a61e-5ef1-41c3-8af8-d86e5033c035"><path class="uuid-497e5254-6b06-4e3f-92b0-0d201b2024b6" d="M148.03,209.8h-.05c7.77,6.12,21.51,15.32,40.85,20.55,15.58,4.21,29.08,4.31,38.34,3.62-14.78-5.52-30.67-10.87-47.62-15.81-10.82-3.15-21.34-5.92-31.52-8.36Z"/></g></g><g><path class="uuid-497e5254-6b06-4e3f-92b0-0d201b2024b6" d="M213.71,155.37s-5.75-34.88-46.74-40.77c12.56,28.17,39.62,41.44,46.74,40.77Z"/><g class="uuid-d580a61e-5ef1-41c3-8af8-d86e5033c035"><path class="uuid-497e5254-6b06-4e3f-92b0-0d201b2024b6" d="M212.03,155.31c-2.09-2.24-7.31-7.81-15.42-16.28-7.96-8.32-22.47-19.1-29.53-24.18,11.76,26.13,35.99,39.36,44.94,40.47Z"/></g></g><g><path class="uuid-497e5254-6b06-4e3f-92b0-0d201b2024b6" d="M209.55,250.09c-9.42-2.62-23.53-5.37-40.69-4.48-19.04,.99-34.08,6.07-43.54,10.11,9.42,3.02,25.51,6.85,45.49,5.01,17.02-1.57,30.33-6.65,38.74-10.64Z"/><g class="uuid-d580a61e-5ef1-41c3-8af8-d86e5033c035"><path class="uuid-497e5254-6b06-4e3f-92b0-0d201b2024b6" d="M127.31,256.35c9.61,2.89,24.86,6.11,43.5,4.39,16.29-1.5,29.18-6.22,37.63-10.13l-81.13,5.73Z"/><path class="uuid-497e5254-6b06-4e3f-92b0-0d201b2024b6" d="M209.41,250.16s.09-.04,.14-.06c-.27-.07-.55-.15-.82-.22l.68,.29Z"/></g></g><g><path class="uuid-743d8a1b-4199-4333-ad9c-29748a4a7ac2" d="M252.34,317.44s.44-51.17-1.05-67.91c-1.5-16.74-11.96-53.91-11.96-53.91,0,0,8.5-72.37-2.09-104.62,2.45,31.45,2.73,87.99-1.55,97.53-1.68-9.23-8.51-15.27-8.51-15.27,0,0,.98-19.32-3.16-26.49l-1.81,.54s3.81,13.37,1.84,22.16c-3.8-6.08-18.62-28.28-50.2-49.74,32.68,31.37,35.78,33.06,45.34,48.49-20.67-9.18-24.36-8.97-24.36-8.97l-.05,2.23s23.24,3.17,35.54,24.81c12.3,21.64,14.35,50.74,14.35,50.74l-71.86-20.89,72.53,25.12,.82,4.46c-15.11,1.58-36.48,3.75-62.39,6.15-16.4,1.52-25.87,2.33-25.85,2.51,.04,.55,89.22-5.67,89.22-5.67h0l.47,68.4s1.18,3.97,4.72,.33Z"/><path class="uuid-5d8b89e9-4180-4c88-a486-679262279c8c" d="M252.34,317.44c-.71,.7-1.53,1.44-2.57,1.53-1.09,.08-1.85-.92-2.15-1.85h0l-.53-68.4,.07,.07-44.41,3.07-22.21,1.47c-7.45,.42-14.7,1.05-22.33,1.18h-.35c0-.47,.34-.26,.37-.34l.7-.1,1.38-.15,2.77-.28,5.54-.52,11.08-1.03,22.15-2.18,44.3-4.41-.2,.27-.82-4.45,.15,.18-72.55-25.05c-.15-.05-.24-.22-.19-.37,.05-.16,.22-.25,.38-.21l71.88,20.83-.47,.38c-1.61-16.12-5.28-32.29-12.39-46.88-3.58-7.3-8.66-13.79-15.2-18.61-6.5-4.76-14.09-8.22-22-9.64-.22-.04-.4-.24-.4-.46l.04-2.23v-.07c.02-.22,.21-.39,.44-.38,1.28,.09,2.24,.4,3.33,.68l3.12,.99c2.06,.7,4.1,1.47,6.12,2.26,4.04,1.59,8.04,3.3,12.01,5.05l-.61,.7c-2.92-4.71-6-9.3-9.63-13.46-3.62-4.17-7.6-8.04-11.58-11.9l-24.09-22.99c-.19-.18-.23-.48-.07-.7,.17-.25,.51-.31,.76-.14,19.55,13.42,37.43,29.81,50.41,49.87l-1.11,.19c1.34-7.17-.07-14.75-1.85-21.85-.08-.32,.1-.68,.43-.78l1.81-.54c.27-.08,.59,.03,.73,.29,2.19,4.23,2.6,8.82,3.04,13.3,.35,4.51,.4,9.01,.23,13.53l-.22-.52c4.38,4.23,7.57,9.63,8.73,15.64l-1.27-.15c1.31-3.62,1.67-7.79,2.07-11.79,.39-4.04,.59-8.1,.76-12.17,.32-8.13,.41-16.28,.38-24.42-.11-16.28-.58-32.58-1.8-48.81-.03-.35,.19-.7,.53-.8,.4-.12,.82,.11,.94,.51,1.28,4.25,2.29,8.56,2.99,12.92,.64,4.36,1.24,8.73,1.53,13.12,.73,8.77,.93,17.56,.84,26.35-.15,17.57-1.29,35.1-3.15,52.57l-.03-.33c2.75,9.91,5.32,19.86,7.63,29.88,2.22,10.01,4.5,20.16,4.81,30.53,.85,20.25,.76,40.47,.7,60.7l-.95,.93Zm-.97,0c.11-20.52,.23-41.07-.6-61.54-.29-10.21-2.51-20.22-4.72-30.23-2.29-9.99-4.83-19.93-7.56-29.81-.03-.1-.04-.22-.03-.33,1.88-17.39,3.05-34.9,3.23-52.39,.11-8.75-.08-17.5-.78-26.21-.28-4.36-.87-8.69-1.49-13-.68-4.31-1.67-8.53-2.91-12.69l1.48-.3c1.2,16.29,1.64,32.61,1.72,48.93,0,8.16-.09,16.32-.43,24.48-.17,4.08-.39,8.16-.78,12.24-.43,4.08-.72,8.15-2.2,12.21-.08,.21-.26,.38-.49,.42-.36,.07-.7-.17-.77-.52v-.05c-1.08-5.65-4.18-10.93-8.29-14.9-.13-.13-.23-.33-.22-.52,.18-4.44,.14-8.93-.2-13.36-.41-4.38-.87-8.98-2.85-12.77l.72,.29-1.81,.54,.43-.77c1.79,7.29,3.24,14.85,1.83,22.46-.04,.15-.14,.33-.29,.41-.29,.16-.65,.07-.82-.22-12.81-19.87-30.57-36.24-49.99-49.62l.68-.84,24.06,23.03c3.98,3.87,7.96,7.76,11.62,11.98,3.67,4.22,6.78,8.88,9.7,13.61,.08,.13,.1,.3,.03,.45-.11,.24-.39,.36-.64,.25-3.96-1.76-7.94-3.47-11.96-5.06-2.01-.79-4.03-1.56-6.08-2.26-2-.66-4.18-1.41-6.1-1.63l.43-.45-.05,2.23-.4-.46c8.14,1.48,15.77,4.99,22.39,9.85,6.63,4.89,11.83,11.58,15.41,18.92,7.17,14.78,10.79,30.97,12.39,47.21l-.02,.15c-.06,.19-.27,.3-.46,.23l-71.84-20.96,.18-.57,72.5,25.18c.08,.03,.14,.09,.15,.18l.82,4.46v.02c.01,.13-.08,.24-.2,.25l-44.31,4.33-22.16,2.14-11.08,1.01-5.54,.51-2.77,.27-1.38,.15-.68,.09c-.16-.05-.17,.21-.23-.18h.35c7.2-.26,14.76-.77,22.12-1.21l22.21-1.43,44.42-2.99h0l.07,.07,.41,68.4h0c.3,.93,1.06,1.93,2.14,1.85,.61-.05,1.13-.35,1.61-.7v-.83Z"/></g><g><path class="uuid-371e77b1-a12f-491d-8870-ad8ff4e5685c" d="M226.84,127.57l3.13-2.23c6.78-4.83,9.84-13.36,7.69-21.39l-.99-3.71c-.24-.9-1.3-1.28-2.06-.74l-2.37,1.68c-7.26,5.14-10.54,14.26-8.21,22.85l.76,2.81c.24,.9,1.31,1.28,2.06,.74Z"/><path class="uuid-371e77b1-a12f-491d-8870-ad8ff4e5685c" d="M212.55,167.35l3.13-2.23c6.78-4.83,9.84-13.36,7.69-21.39l-.99-3.71c-.24-.9-1.3-1.28-2.06-.74l-2.37,1.68c-7.26,5.14-10.54,14.26-8.21,22.85l.76,2.81c.24,.9,1.31,1.28,2.06,.74Z"/><path class="uuid-371e77b1-a12f-491d-8870-ad8ff4e5685c" d="M229.59,136.62l2.23,3.13c4.83,6.78,13.36,9.84,21.4,7.69l3.71-.99c.9-.24,1.28-1.3,.74-2.06l-1.68-2.37c-5.14-7.26-14.26-10.54-22.85-8.21l-2.81,.76c-.9,.24-1.28,1.31-.74,2.06Z"/><path class="uuid-371e77b1-a12f-491d-8870-ad8ff4e5685c" d="M189.82,122.33l2.23,3.13c4.83,6.78,13.36,9.84,21.39,7.69l3.71-.99c.9-.24,1.28-1.3,.74-2.06l-1.68-2.37c-5.14-7.26-14.26-10.54-22.85-8.21l-2.81,.76c-.9,.24-1.28,1.31-.74,2.06Z"/><path class="uuid-371e77b1-a12f-491d-8870-ad8ff4e5685c" d="M230.09,131.53l3.78,.64c8.21,1.38,16.41-2.49,20.56-9.69l1.92-3.32c.46-.8-.01-1.83-.93-1.98l-2.87-.49c-8.77-1.5-17.54,2.63-21.96,10.35l-1.45,2.52c-.46,.81,.02,1.83,.94,1.98Z"/><path class="uuid-371e77b1-a12f-491d-8870-ad8ff4e5685c" d="M191.86,149.55l3.78,.64c8.21,1.38,16.41-2.49,20.56-9.69l1.92-3.32c.46-.8-.01-1.83-.93-1.98l-2.87-.49c-8.77-1.5-17.54,2.63-21.96,10.35l-1.44,2.52c-.46,.81,.02,1.83,.94,1.98Z"/><path class="uuid-371e77b1-a12f-491d-8870-ad8ff4e5685c" d="M225.64,139.87l-.64,3.78c-1.38,8.21,2.49,16.4,9.69,20.56l3.32,1.92c.8,.46,1.83-.01,1.98-.93l.49-2.87c1.5-8.77-2.63-17.54-10.35-21.96l-2.52-1.45c-.81-.46-1.83,.02-1.98,.94Z"/><path class="uuid-371e77b1-a12f-491d-8870-ad8ff4e5685c" d="M207.62,101.63l-.64,3.78c-1.38,8.21,2.49,16.41,9.69,20.56l3.32,1.92c.8,.46,1.83-.01,1.98-.93l.49-2.87c1.5-8.77-2.63-17.54-10.35-21.96l-2.52-1.45c-.81-.46-1.83,.02-1.98,.94Z"/><g class="uuid-ffdda016-b92a-4730-93e0-abb9a52d0f62"><path class="uuid-f0d0e3b6-3d20-46b0-ae8f-9010c52c6f58" d="M234.36,102.57s-11.64,7.26-8.88,20.99l3.16,1.14s12.04-12.09,5.72-22.13Z"/></g><g class="uuid-ffdda016-b92a-4730-93e0-abb9a52d0f62"><path class="uuid-f0d0e3b6-3d20-46b0-ae8f-9010c52c6f58" d="M210.67,105.74s-3.34,13.31,8.19,21.27l3.07-1.38s.26-17.06-11.26-19.89Z"/></g><g class="uuid-ffdda016-b92a-4730-93e0-abb9a52d0f62"><path class="uuid-f0d0e3b6-3d20-46b0-ae8f-9010c52c6f58" d="M195.75,122.55s6.72,11.96,20.56,9.82l1.28-3.11s-11.53-12.58-21.85-6.72Z"/></g><g class="uuid-ffdda016-b92a-4730-93e0-abb9a52d0f62"><path class="uuid-f0d0e3b6-3d20-46b0-ae8f-9010c52c6f58" d="M195.17,146.32s13.24,3.59,21.42-7.78l-1.32-3.09s-17.05-.59-20.11,10.87Z"/></g><g class="uuid-ffdda016-b92a-4730-93e0-abb9a52d0f62"><path class="uuid-f0d0e3b6-3d20-46b0-ae8f-9010c52c6f58" d="M213.74,161.94s11.6-7.32,8.75-21.04l-3.17-1.12s-11.97,12.16-5.58,22.16Z"/></g><g class="uuid-ffdda016-b92a-4730-93e0-abb9a52d0f62"><path class="uuid-f0d0e3b6-3d20-46b0-ae8f-9010c52c6f58" d="M237.99,160.5s2.48-13.49-9.53-20.7l-2.97,1.57s.82,17.04,12.5,19.14Z"/></g><g class="uuid-ffdda016-b92a-4730-93e0-abb9a52d0f62"><path class="uuid-f0d0e3b6-3d20-46b0-ae8f-9010c52c6f58" d="M251.95,142.08s-7.87-11.24-21.44-7.74l-.97,3.22s12.72,11.37,22.41,4.52Z"/></g><g class="uuid-ffdda016-b92a-4730-93e0-abb9a52d0f62"><path class="uuid-f0d0e3b6-3d20-46b0-ae8f-9010c52c6f58" d="M251.03,120.66s-13.35-3.15-21.15,8.48l1.42,3.05s17.06,.03,19.73-11.53Z"/></g><path class="uuid-0b256091-6e2f-4b00-bded-821b946eb9c6" d="M220.33,142.83h0c4.77,1.71,10.07-.79,11.79-5.56l.54-1.51c1.71-4.77-.79-10.07-5.56-11.79h0c-4.77-1.71-10.07,.79-11.79,5.56l-.54,1.51c-1.71,4.77,.79,10.07,5.56,11.79Z"/></g><g><path class="uuid-a0a2e5cd-1999-4024-9346-12d63c739add" d="M166.7,109.93l2.58-1.84c5.6-3.99,8.13-11.03,6.35-17.67l-.82-3.06c-.2-.74-1.07-1.06-1.7-.61l-1.96,1.39c-6,4.24-8.71,11.78-6.78,18.88l.63,2.32c.2,.74,1.08,1.05,1.7,.61Z"/><path class="uuid-a0a2e5cd-1999-4024-9346-12d63c739add" d="M154.9,142.79l2.58-1.84c5.6-3.99,8.13-11.03,6.35-17.67l-.82-3.06c-.2-.74-1.07-1.06-1.7-.61l-1.96,1.39c-6,4.24-8.71,11.78-6.78,18.88l.63,2.32c.2,.74,1.08,1.05,1.7,.61Z"/><path class="uuid-a0a2e5cd-1999-4024-9346-12d63c739add" d="M168.98,117.41l1.84,2.58c3.99,5.6,11.03,8.13,17.67,6.35l3.06-.82c.74-.2,1.06-1.07,.61-1.7l-1.39-1.96c-4.24-6-11.78-8.71-18.88-6.78l-2.32,.63c-.74,.2-1.05,1.08-.61,1.7Z"/><path class="uuid-a0a2e5cd-1999-4024-9346-12d63c739add" d="M136.12,105.6l1.84,2.58c3.99,5.6,11.03,8.13,17.67,6.35l3.06-.82c.74-.2,1.06-1.08,.61-1.7l-1.39-1.96c-4.24-6-11.78-8.71-18.88-6.78l-2.32,.63c-.74,.2-1.05,1.08-.61,1.7Z"/><path class="uuid-a0a2e5cd-1999-4024-9346-12d63c739add" d="M169.39,113.2l3.13,.53c6.78,1.14,13.55-2.05,16.99-8.01l1.58-2.75c.38-.66-.01-1.51-.77-1.64l-2.37-.41c-7.24-1.24-14.49,2.17-18.14,8.55l-1.19,2.08c-.38,.67,.02,1.51,.77,1.64Z"/><path class="uuid-a0a2e5cd-1999-4024-9346-12d63c739add" d="M137.8,128.09l3.13,.53c6.78,1.14,13.55-2.05,16.99-8.01l1.58-2.75c.38-.66-.01-1.51-.77-1.64l-2.37-.41c-7.24-1.24-14.49,2.17-18.14,8.55l-1.19,2.08c-.38,.67,.02,1.51,.77,1.64Z"/><path class="uuid-a0a2e5cd-1999-4024-9346-12d63c739add" d="M165.71,120.09l-.53,3.13c-1.14,6.78,2.05,13.55,8.01,16.99l2.75,1.58c.66,.38,1.51-.01,1.64-.77l.41-2.37c1.24-7.24-2.17-14.49-8.55-18.14l-2.08-1.19c-.67-.38-1.51,.02-1.64,.77Z"/><path class="uuid-a0a2e5cd-1999-4024-9346-12d63c739add" d="M150.83,88.51l-.53,3.13c-1.14,6.78,2.05,13.55,8.01,16.99l2.75,1.58c.66,.38,1.51-.01,1.64-.77l.41-2.37c1.24-7.24-2.17-14.49-8.55-18.14l-2.08-1.19c-.67-.38-1.51,.02-1.64,.77Z"/><g class="uuid-ffdda016-b92a-4730-93e0-abb9a52d0f62"><path class="uuid-f0d0e3b6-3d20-46b0-ae8f-9010c52c6f58" d="M172.91,89.28s-9.62,5.99-7.34,17.34l2.61,.94s9.95-9.99,4.72-18.28Z"/></g><g class="uuid-ffdda016-b92a-4730-93e0-abb9a52d0f62"><path class="uuid-f0d0e3b6-3d20-46b0-ae8f-9010c52c6f58" d="M153.35,91.9s-2.76,10.99,6.77,17.57l2.53-1.14s.22-14.1-9.3-16.43Z"/></g><g class="uuid-ffdda016-b92a-4730-93e0-abb9a52d0f62"><path class="uuid-f0d0e3b6-3d20-46b0-ae8f-9010c52c6f58" d="M141.02,105.78s5.55,9.88,16.99,8.12l1.06-2.57s-9.53-10.39-18.05-5.55Z"/></g><g class="uuid-ffdda016-b92a-4730-93e0-abb9a52d0f62"><path class="uuid-f0d0e3b6-3d20-46b0-ae8f-9010c52c6f58" d="M140.54,125.42s10.94,2.97,17.7-6.43l-1.09-2.56s-14.09-.49-16.61,8.98Z"/></g><g class="uuid-ffdda016-b92a-4730-93e0-abb9a52d0f62"><path class="uuid-f0d0e3b6-3d20-46b0-ae8f-9010c52c6f58" d="M155.88,138.32s9.58-6.05,7.23-17.38l-2.62-.93s-9.89,10.05-4.61,18.31Z"/></g><g class="uuid-ffdda016-b92a-4730-93e0-abb9a52d0f62"><path class="uuid-f0d0e3b6-3d20-46b0-ae8f-9010c52c6f58" d="M175.92,137.14s2.05-11.15-7.87-17.1l-2.46,1.3s.68,14.08,10.33,15.81Z"/></g><g class="uuid-ffdda016-b92a-4730-93e0-abb9a52d0f62"><path class="uuid-f0d0e3b6-3d20-46b0-ae8f-9010c52c6f58" d="M187.45,121.92s-6.5-9.28-17.71-6.39l-.8,2.66s10.51,9.39,18.51,3.73Z"/></g><g class="uuid-ffdda016-b92a-4730-93e0-abb9a52d0f62"><path class="uuid-f0d0e3b6-3d20-46b0-ae8f-9010c52c6f58" d="M186.69,104.22s-11.03-2.61-17.47,7.01l1.17,2.52s14.1,.02,16.3-9.53Z"/></g><path class="uuid-0b256091-6e2f-4b00-bded-821b946eb9c6" d="M161.33,122.54h0c3.94,1.42,8.32-.65,9.74-4.59l.45-1.25c1.42-3.94-.65-8.32-4.59-9.74h0c-3.94-1.42-8.32,.65-9.74,4.59l-.45,1.25c-1.42,3.94,.65,8.32,4.59,9.74Z"/></g></g><g><g><path class="uuid-497e5254-6b06-4e3f-92b0-0d201b2024b6" d="M323.24,224.68s-1.39-48.69,46.92-66.22c-4.82,40.89-42.03,67.35-46.92,66.22Z"/><g class="uuid-d580a61e-5ef1-41c3-8af8-d86e5033c035"><path class="uuid-497e5254-6b06-4e3f-92b0-0d201b2024b6" d="M370.11,158.81c-4.86,39.57-39.99,65.53-46.39,65.89,6.6-13.46,15.61-28.89,27.94-44.72,6.2-7.96,12.43-14.99,18.45-21.17Z"/></g></g><g><path class="uuid-497e5254-6b06-4e3f-92b0-0d201b2024b6" d="M305.66,273.31c8.33-.62,20.6-.57,34.81,3.05,15.77,4.02,27.49,10.79,34.72,15.76-8.39,.96-22.51,1.48-38.92-3.41-13.97-4.16-24.25-10.65-30.61-15.4Z"/><g class="uuid-d580a61e-5ef1-41c3-8af8-d86e5033c035"><path class="uuid-497e5254-6b06-4e3f-92b0-0d201b2024b6" d="M375.16,292.09l.04,.02c-8.39,.96-22.51,1.48-38.92-3.41-13.21-3.93-23.07-9.93-29.49-14.59,13.22,2.63,27.17,5.87,41.71,9.9,9.28,2.57,18.17,5.28,26.67,8.08Z"/></g></g><g><path class="uuid-497e5254-6b06-4e3f-92b0-0d201b2024b6" d="M351.87,223.04s19.85-22.76,52.28-8.64c-21.78,14.84-47.4,12.32-52.28,8.64Z"/><g class="uuid-d580a61e-5ef1-41c3-8af8-d86e5033c035"><path class="uuid-497e5254-6b06-4e3f-92b0-0d201b2024b6" d="M353.11,223.76c2.52-.69,8.82-2.39,18.52-4.91,9.52-2.47,24.91-3.79,32.32-4.32-20.29,13.71-43.83,12.44-50.83,9.23Z"/></g></g><g><path class="uuid-497e5254-6b06-4e3f-92b0-0d201b2024b6" d="M312.35,293.75c8.02,2.33,19.51,6.66,31.58,15.02,13.39,9.27,22.04,19.72,27.1,26.9-8.2-2.03-21.62-6.48-35.31-16.79-11.66-8.78-19.06-18.45-23.37-25.13Z"/><g class="uuid-d580a61e-5ef1-41c3-8af8-d86e5033c035"><path class="uuid-497e5254-6b06-4e3f-92b0-0d201b2024b6" d="M369.31,335.23c-8.28-2.21-20.81-6.72-33.59-16.34-11.17-8.41-18.41-17.62-22.8-24.26l56.39,40.6Z"/><path class="uuid-497e5254-6b06-4e3f-92b0-0d201b2024b6" d="M312.42,293.86s-.05-.07-.07-.11c.23,.07,.47,.14,.7,.21l-.63-.1Z"/></g></g><g><path class="uuid-743d8a1b-4199-4333-ad9c-29748a4a7ac2" d="M251.01,323.48s22.66-37.39,31.26-48.88c8.61-11.49,32.9-33.81,32.9-33.81,0,0,26.32-56.41,48.5-75.1-15.9,21.76-41.49,62.72-42.67,71.57,5.37-5.96,13.04-7.28,13.04-7.28,0,0,7.97-14.48,14.19-17.83l1.08,1.21s-8.77,8-11.29,15.28c5.5-2.71,26.23-12.19,58.82-13.61-37.84,8.12-40.85,7.96-54.73,14.88,19.14,2.61,21.73,4.42,21.73,4.42l-.97,1.64s-18.32-8.13-36.97,2.07c-18.66,10.2-33.21,30.43-33.21,30.43l61.61,17.09-63.99-14.32-2.6,2.87c10.27,7.93,24.83,19.11,42.58,32.49,11.24,8.47,17.75,13.31,17.66,13.43-.28,.38-62.3-44.19-62.3-44.19h0l-31.06,49.5s-2.64,2.35-3.58-1.88Z"/><path class="uuid-5d8b89e9-4180-4c88-a486-679262279c8c" d="M250.74,322.37c9.04-14.73,18.05-29.46,27.77-43.8,4.89-7.39,11.1-13.75,17.21-20.03,6.18-6.25,12.51-12.32,18.96-18.29l-.17,.23c6.5-13.53,13.54-26.78,21.32-39.62,3.88-6.42,7.97-12.73,12.44-18.77,2.18-3.06,4.58-5.97,7-8.85,2.46-2.86,5.14-5.53,7.97-8.04,.27-.24,.68-.21,.91,.06,.2,.23,.2,.58,.03,.82-8.18,11.25-15.84,22.88-23.23,34.66-3.68,5.91-7.27,11.87-10.69,17.92-1.7,3.03-3.38,6.07-4.91,9.18-1.51,3.08-3.12,6.28-3.79,9.5l-.99-.46c3.54-3.84,8.29-6.34,13.37-7.44l-.39,.28c1.9-3.36,3.96-6.61,6.24-9.73,2.33-3.05,4.69-6.22,8.18-8.3,.21-.13,.5-.06,.66,.12l1.07,1.21c.19,.22,.17,.56-.04,.75-4.48,4.36-8.91,9.23-11.16,15.05l-.72-.64c18.44-8.75,38.79-12.63,59.03-13.61,.26-.01,.47,.18,.49,.44,.01,.23-.15,.43-.37,.48l-27.83,5.89c-4.63,1.02-9.25,2.04-13.76,3.45-4.51,1.39-8.81,3.35-13.05,5.46l-.13-.78c3.67,.51,7.34,1.06,11,1.72,1.83,.33,3.65,.68,5.46,1.1l2.71,.69c.92,.28,1.76,.49,2.73,1,.17,.09,.23,.3,.14,.47h0l-.02,.05-.97,1.64c-.1,.17-.32,.23-.5,.16-6.39-2.52-13.45-3.42-20.32-2.87-6.91,.57-13.53,3-19.4,6.7-11.72,7.41-21.64,17.51-30.05,28.5l-.17-.49,61.59,17.14c.14,.04,.22,.18,.18,.32-.04,.13-.17,.21-.31,.18l-63.97-14.37,.19-.06-2.6,2.87-.03-.28,30.21,23.1,15.12,11.53,7.59,5.72,3.79,2.87,1.89,1.45,.94,.73,.46,.38c0,.07,.32,.07,.12,.41l-.26-.15c-5.49-3.52-10.47-7.23-15.7-10.89l-15.48-11.04-30.9-22.18,.08-.02-31.11,49.47h0c-.64,.54-1.64,.93-2.4,.38-.72-.53-.98-1.44-1.19-2.27l-.27-1.11Zm.61,2.14c.19,.47,.44,.92,.85,1.23,.75,.55,1.75,.16,2.39-.38h0l31.02-49.53,.08-.02h0l30.94,22.12,15.5,11.01c5.15,3.63,10.41,7.39,15.53,10.82l.26,.15c-.21,.25-.11,.07-.24,.03l-.45-.37-.94-.73-1.89-1.44-3.8-2.86-7.6-5.71-15.14-11.51-30.26-23.05c-.09-.07-.1-.19-.04-.27h.01l2.59-2.88c.05-.05,.12-.08,.19-.06l64,14.26-.12,.5-61.62-17.03c-.17-.04-.27-.21-.23-.38l.05-.11c8.46-11.09,18.36-21.22,30.21-28.75,5.9-3.73,12.68-6.25,19.69-6.83,7-.56,14.11,.32,20.7,2.9l-.5,.16,.97-1.64,.11,.52c-1.49-.7-3.41-1.13-5.17-1.55-1.8-.41-3.61-.76-5.43-1.09-3.64-.65-7.3-1.19-10.96-1.69-.23-.03-.38-.24-.35-.47,.02-.14,.11-.25,.23-.31,4.24-2.12,8.6-4.11,13.16-5.53,4.55-1.43,9.19-2.46,13.82-3.49l27.83-5.94,.12,.92c-20.13,1-40.38,4.92-58.61,13.61-.25,.13-.56,.04-.69-.21-.07-.13-.07-.3-.03-.43,2.39-6.17,6.84-11.01,11.42-15.5l-.04,.75-1.08-1.2,.66,.12c-3.14,1.87-5.54,5-7.81,8-2.24,3.07-4.28,6.31-6.15,9.62-.08,.15-.24,.25-.4,.28-4.77,1.04-9.4,3.48-12.71,7.11l-.03,.03c-.21,.23-.56,.25-.79,.04-.15-.14-.21-.34-.17-.53,.75-3.62,2.37-6.71,3.89-9.86,1.54-3.14,3.22-6.2,4.93-9.25,3.42-6.08,7.01-12.06,10.68-17.99,7.39-11.82,15.04-23.48,23.22-34.78l.94,.88c-2.77,2.46-5.38,5.09-7.82,7.92-2.39,2.85-4.76,5.73-6.92,8.77-4.42,6.01-8.49,12.29-12.34,18.69-7.73,12.79-14.73,26.05-21.18,39.52-.04,.09-.1,.17-.17,.23-6.42,5.96-12.73,12.04-18.88,18.27-6.09,6.28-12.21,12.56-17,19.85-9.79,14.51-18.93,29.5-28.07,44.45l-.37,.61Z"/></g><g><path class="uuid-a0a2e5cd-1999-4024-9346-12d63c739add" d="M354.8,196.95l-1.27-3.02c-2.76-6.55-1.15-14.13,4.02-19l2.39-2.25c.58-.54,1.52-.35,1.83,.38l.97,2.29c2.97,6.99,1.26,15.1-4.29,20.29l-1.81,1.7c-.58,.54-1.52,.34-1.83-.39Z"/><path class="uuid-a0a2e5cd-1999-4024-9346-12d63c739add" d="M347.33,232.27l-1.27-3.02c-2.76-6.55-1.15-14.13,4.02-19l2.39-2.25c.58-.54,1.52-.35,1.83,.38l.97,2.29c2.97,6.99,1.26,15.1-4.29,20.29l-1.81,1.7c-.58,.54-1.52,.34-1.83-.39Z"/><path class="uuid-a0a2e5cd-1999-4024-9346-12d63c739add" d="M348.74,202.28l-3.02,1.27c-6.55,2.76-14.13,1.15-19-4.02l-2.25-2.39c-.54-.58-.35-1.52,.38-1.83l2.29-.97c6.99-2.97,15.1-1.26,20.29,4.29l1.7,1.81c.54,.58,.34,1.52-.39,1.83Z"/><path class="uuid-a0a2e5cd-1999-4024-9346-12d63c739add" d="M384.07,209.76l-3.02,1.27c-6.55,2.76-14.13,1.15-19-4.02l-2.25-2.39c-.54-.58-.35-1.52,.38-1.83l2.29-.97c6.99-2.97,15.1-1.26,20.29,4.29l1.7,1.81c.54,.58,.34,1.52-.39,1.83Z"/><path class="uuid-a0a2e5cd-1999-4024-9346-12d63c739add" d="M350.67,198.36l-3.04-1.24c-6.58-2.68-10.81-9.17-10.59-16.28l.1-3.28c.02-.79,.83-1.32,1.57-1.02l2.3,.93c7.05,2.84,11.57,9.79,11.31,17.39l-.08,2.48c-.03,.79-.84,1.32-1.57,1.02Z"/><path class="uuid-a0a2e5cd-1999-4024-9346-12d63c739add" d="M370.36,228.63l-3.04-1.24c-6.58-2.68-10.81-9.17-10.59-16.28l.1-3.28c.02-.79,.83-1.32,1.57-1.02l2.3,.93c7.05,2.84,11.57,9.79,11.31,17.39l-.08,2.48c-.03,.79-.84,1.32-1.57,1.02Z"/><path class="uuid-a0a2e5cd-1999-4024-9346-12d63c739add" d="M350.16,206.42l-1.24,3.04c-2.68,6.58-9.17,10.81-16.28,10.59l-3.28-.1c-.79-.02-1.32-.83-1.02-1.57l.93-2.3c2.84-7.05,9.79-11.57,17.39-11.31l2.48,.08c.79,.03,1.32,.84,1.02,1.57Z"/><path class="uuid-a0a2e5cd-1999-4024-9346-12d63c739add" d="M380.42,186.73l-1.24,3.04c-2.68,6.58-9.17,10.81-16.28,10.59l-3.28-.1c-.79-.02-1.32-.83-1.02-1.57l.93-2.3c2.84-7.05,9.79-11.57,17.39-11.31l2.48,.08c.79,.03,1.32,.84,1.02,1.57Z"/><g class="uuid-ffdda016-b92a-4730-93e0-abb9a52d0f62"><path class="uuid-f0d0e3b6-3d20-46b0-ae8f-9010c52c6f58" d="M360.57,175.4s5.2,10.5-2.97,19.24l-2.81-.59s-3.32-14.2,5.78-18.65Z"/></g><g class="uuid-ffdda016-b92a-4730-93e0-abb9a52d0f62"><path class="uuid-f0d0e3b6-3d20-46b0-ae8f-9010c52c6f58" d="M376.36,188.34s-3.55,11.17-15.5,11.78l-1.61-2.38s7.47-12.52,17.11-9.4Z"/></g><g class="uuid-ffdda016-b92a-4730-93e0-abb9a52d0f62"><path class="uuid-f0d0e3b6-3d20-46b0-ae8f-9010c52c6f58" d="M379.66,207.26s-10.25,5.68-19.36-2.09l.46-2.83s14.03-3.96,18.89,4.93Z"/></g><g class="uuid-ffdda016-b92a-4730-93e0-abb9a52d0f62"><path class="uuid-f0d0e3b6-3d20-46b0-ae8f-9010c52c6f58" d="M369.4,224.79s-11.24-3.33-12.08-15.27l2.35-1.66s12.66,7.23,9.73,16.93Z"/></g><g class="uuid-ffdda016-b92a-4730-93e0-abb9a52d0f62"><path class="uuid-f0d0e3b6-3d20-46b0-ae8f-9010c52c6f58" d="M348.9,227.8s-5.14-10.53,3.09-19.22l2.81,.61s3.23,14.21-5.89,18.62Z"/></g><g class="uuid-ffdda016-b92a-4730-93e0-abb9a52d0f62"><path class="uuid-f0d0e3b6-3d20-46b0-ae8f-9010c52c6f58" d="M331.91,215.87s4.25-10.92,16.22-10.77l1.46,2.48s-8.25,12.02-17.68,8.29Z"/></g><g class="uuid-ffdda016-b92a-4730-93e0-abb9a52d0f62"><path class="uuid-f0d0e3b6-3d20-46b0-ae8f-9010c52c6f58" d="M330.04,196.22s10.77-4.63,19.05,4l-.74,2.78s-14.35,2.55-18.31-6.78Z"/></g><g class="uuid-ffdda016-b92a-4730-93e0-abb9a52d0f62"><path class="uuid-f0d0e3b6-3d20-46b0-ae8f-9010c52c6f58" d="M340.33,181.06s11.12,3.7,11.56,15.66l-2.4,1.58s-12.41-7.64-9.16-17.24Z"/></g><path class="uuid-0b256091-6e2f-4b00-bded-821b946eb9c6" d="M352.68,210.96h0c-4.24-.9-6.97-5.1-6.07-9.33l.28-1.34c.9-4.24,5.1-6.97,9.33-6.07h0c4.24,.9,6.97,5.1,6.07,9.33l-.28,1.34c-.9,4.24-5.1,6.97-9.33,6.07Z"/></g><g><path class="uuid-a0a2e5cd-1999-4024-9346-12d63c739add" d="M411.09,181.63l-1.05-2.5c-2.28-5.41-.95-11.67,3.32-15.7l1.97-1.86c.48-.45,1.26-.29,1.51,.32l.8,1.89c2.46,5.78,1.04,12.48-3.55,16.76l-1.5,1.4c-.48,.45-1.26,.28-1.51-.32Z"/><path class="uuid-a0a2e5cd-1999-4024-9346-12d63c739add" d="M404.92,210.81l-1.05-2.5c-2.28-5.41-.95-11.67,3.32-15.7l1.97-1.86c.48-.45,1.26-.29,1.51,.32l.8,1.89c2.46,5.78,1.04,12.48-3.55,16.76l-1.5,1.4c-.48,.45-1.26,.28-1.51-.32Z"/><path class="uuid-a0a2e5cd-1999-4024-9346-12d63c739add" d="M406.09,186.04l-2.5,1.05c-5.41,2.28-11.67,.95-15.7-3.32l-1.86-1.97c-.45-.48-.29-1.26,.32-1.51l1.89-.8c5.78-2.46,12.48-1.04,16.76,3.55l1.4,1.5c.45,.48,.28,1.26-.32,1.51Z"/><path class="uuid-a0a2e5cd-1999-4024-9346-12d63c739add" d="M435.27,192.21l-2.5,1.05c-5.41,2.28-11.67,.95-15.7-3.32l-1.86-1.97c-.45-.48-.29-1.26,.32-1.51l1.89-.8c5.78-2.46,12.48-1.04,16.76,3.55l1.4,1.5c.45,.48,.28,1.26-.32,1.51Z"/><path class="uuid-a0a2e5cd-1999-4024-9346-12d63c739add" d="M407.68,182.8l-2.51-1.02c-5.44-2.22-8.93-7.58-8.75-13.45l.08-2.71c.02-.66,.69-1.09,1.29-.85l1.9,.77c5.82,2.35,9.56,8.09,9.35,14.36l-.07,2.05c-.02,.66-.69,1.09-1.3,.84Z"/><path class="uuid-a0a2e5cd-1999-4024-9346-12d63c739add" d="M423.95,207.8l-2.51-1.02c-5.44-2.22-8.93-7.58-8.75-13.45l.08-2.71c.02-.66,.69-1.09,1.29-.85l1.9,.77c5.82,2.35,9.56,8.09,9.35,14.36l-.07,2.05c-.02,.66-.69,1.09-1.3,.84Z"/><path class="uuid-a0a2e5cd-1999-4024-9346-12d63c739add" d="M407.25,189.45l-1.02,2.51c-2.22,5.44-7.58,8.93-13.45,8.75l-2.71-.08c-.66-.02-1.09-.69-.85-1.29l.77-1.9c2.35-5.82,8.09-9.56,14.36-9.35l2.05,.07c.66,.02,1.09,.69,.84,1.3Z"/><path class="uuid-a0a2e5cd-1999-4024-9346-12d63c739add" d="M432.26,173.19l-1.02,2.51c-2.22,5.44-7.58,8.93-13.45,8.75l-2.71-.08c-.66-.02-1.09-.69-.85-1.29l.77-1.9c2.35-5.82,8.09-9.56,14.36-9.35l2.05,.07c.66,.02,1.09,.69,.84,1.3Z"/><g class="uuid-ffdda016-b92a-4730-93e0-abb9a52d0f62"><path class="uuid-f0d0e3b6-3d20-46b0-ae8f-9010c52c6f58" d="M415.85,163.83s4.3,8.68-2.46,15.9l-2.32-.49s-2.74-11.73,4.78-15.41Z"/></g><g class="uuid-ffdda016-b92a-4730-93e0-abb9a52d0f62"><path class="uuid-f0d0e3b6-3d20-46b0-ae8f-9010c52c6f58" d="M428.9,174.52s-2.93,9.23-12.81,9.73l-1.33-1.96s6.17-10.34,14.14-7.77Z"/></g><g class="uuid-ffdda016-b92a-4730-93e0-abb9a52d0f62"><path class="uuid-f0d0e3b6-3d20-46b0-ae8f-9010c52c6f58" d="M431.63,190.15s-8.47,4.69-15.99-1.73l.38-2.34s11.59-3.27,15.61,4.07Z"/></g><g class="uuid-ffdda016-b92a-4730-93e0-abb9a52d0f62"><path class="uuid-f0d0e3b6-3d20-46b0-ae8f-9010c52c6f58" d="M423.15,204.63s-9.28-2.75-9.98-12.62l1.94-1.37s10.46,5.97,8.04,13.99Z"/></g><g class="uuid-ffdda016-b92a-4730-93e0-abb9a52d0f62"><path class="uuid-f0d0e3b6-3d20-46b0-ae8f-9010c52c6f58" d="M406.21,207.12s-4.25-8.7,2.55-15.88l2.32,.5s2.67,11.74-4.87,15.38Z"/></g><g class="uuid-ffdda016-b92a-4730-93e0-abb9a52d0f62"><path class="uuid-f0d0e3b6-3d20-46b0-ae8f-9010c52c6f58" d="M392.18,197.26s3.51-9.02,13.4-8.9l1.2,2.05s-6.82,9.93-14.6,6.85Z"/></g><g class="uuid-ffdda016-b92a-4730-93e0-abb9a52d0f62"><path class="uuid-f0d0e3b6-3d20-46b0-ae8f-9010c52c6f58" d="M390.64,181.02s8.89-3.83,15.74,3.31l-.61,2.29s-11.86,2.11-15.13-5.6Z"/></g><g class="uuid-ffdda016-b92a-4730-93e0-abb9a52d0f62"><path class="uuid-f0d0e3b6-3d20-46b0-ae8f-9010c52c6f58" d="M399.14,168.5s9.19,3.06,9.55,12.94l-1.98,1.3s-10.25-6.31-7.57-14.24Z"/></g><path class="uuid-0b256091-6e2f-4b00-bded-821b946eb9c6" d="M409.34,193.2h0c-3.5-.74-5.76-4.21-5.02-7.71l.23-1.11c.74-3.5,4.21-5.76,7.71-5.02h0c3.5,.74,5.76,4.21,5.02,7.71l-.23,1.11c-.74,3.5-4.21,5.76-7.71,5.02Z"/></g></g><g><g><path class="uuid-497e5254-6b06-4e3f-92b0-0d201b2024b6" d="M231.67,238.55s1.02-35.58-34.29-48.39c3.52,29.88,30.72,49.22,34.29,48.39Z"/><g class="uuid-d580a61e-5ef1-41c3-8af8-d86e5033c035"><path class="uuid-497e5254-6b06-4e3f-92b0-0d201b2024b6" d="M197.41,190.42c3.55,28.92,29.22,47.89,33.9,48.15-4.83-9.84-11.41-21.11-20.42-32.68-4.53-5.81-9.09-10.95-13.48-15.47Z"/></g></g><g><path class="uuid-497e5254-6b06-4e3f-92b0-0d201b2024b6" d="M244.51,274.09c-6.09-.45-15.05-.42-25.44,2.23-11.52,2.93-20.09,7.88-25.37,11.51,6.13,.7,16.45,1.08,28.44-2.49,10.21-3.04,17.72-7.78,22.37-11.25Z"/><g class="uuid-d580a61e-5ef1-41c3-8af8-d86e5033c035"><path class="uuid-497e5254-6b06-4e3f-92b0-0d201b2024b6" d="M193.72,287.81l-.03,.02c6.13,.7,16.45,1.08,28.44-2.49,9.65-2.87,16.86-7.25,21.55-10.66-9.66,1.92-19.85,4.29-30.48,7.23-6.78,1.88-13.28,3.86-19.49,5.9Z"/></g></g><g><path class="uuid-497e5254-6b06-4e3f-92b0-0d201b2024b6" d="M210.75,237.36s-14.5-16.64-38.2-6.31c15.91,10.84,34.64,9.01,38.2,6.31Z"/><g class="uuid-d580a61e-5ef1-41c3-8af8-d86e5033c035"><path class="uuid-497e5254-6b06-4e3f-92b0-0d201b2024b6" d="M209.83,237.88c-1.84-.5-6.44-1.75-13.53-3.59-6.95-1.8-18.2-2.77-23.62-3.15,14.82,10.02,32.03,9.09,37.15,6.74Z"/></g></g><g><path class="uuid-497e5254-6b06-4e3f-92b0-0d201b2024b6" d="M239.62,289.03c-5.86,1.7-14.26,4.87-23.08,10.97-9.79,6.78-16.11,14.41-19.81,19.66,5.99-1.49,15.8-4.73,25.8-12.27,8.52-6.42,13.92-13.48,17.08-18.37Z"/><g class="uuid-d580a61e-5ef1-41c3-8af8-d86e5033c035"><path class="uuid-497e5254-6b06-4e3f-92b0-0d201b2024b6" d="M198,319.34c6.05-1.62,15.21-4.91,24.55-11.94,8.16-6.14,13.45-12.88,16.66-17.73l-41.21,29.67Z"/><path class="uuid-497e5254-6b06-4e3f-92b0-0d201b2024b6" d="M239.57,289.11s.04-.05,.05-.08c-.17,.05-.34,.1-.51,.15l.46-.07Z"/></g></g><g><path class="uuid-743d8a1b-4199-4333-ad9c-29748a4a7ac2" d="M284.44,310.75s-16.56-27.32-22.85-35.72c-6.29-8.4-24.04-24.7-24.04-24.7,0,0-19.24-41.22-35.44-54.88,11.62,15.9,30.32,45.83,31.18,52.3-3.92-4.35-9.53-5.32-9.53-5.32,0,0-5.82-10.58-10.37-13.03l-.79,.88s6.41,5.85,8.25,11.16c-4.02-1.98-19.17-8.91-42.99-9.94,27.65,5.93,29.85,5.82,39.99,10.87-13.99,1.91-15.88,3.23-15.88,3.23l.71,1.2s13.39-5.94,27.02,1.51c13.63,7.46,24.27,22.24,24.27,22.24l-45.02,12.48,46.76-10.46,1.9,2.1c-7.51,5.8-18.15,13.96-31.12,23.74-8.21,6.19-12.97,9.73-12.91,9.82,.2,.28,45.52-32.29,45.52-32.29h0l22.7,36.17s1.93,1.72,2.62-1.38Z"/><path class="uuid-5d8b89e9-4180-4c88-a486-679262279c8c" d="M284.44,310.75c-.15,.61-.34,1.27-.87,1.66-.55,.4-1.29,.12-1.75-.28h0l-22.73-36.15h.06l-22.58,16.22-11.31,8.07c-3.82,2.67-7.46,5.39-11.47,7.96l-.19,.11c-.15-.25,.1-.25,.09-.3l.34-.28,.68-.54,1.38-1.06,2.77-2.1,5.55-4.18,11.05-8.43,22.08-16.88-.02,.21-1.9-2.09,.14,.04-46.75,10.5c-.1,.02-.2-.04-.22-.13-.03-.1,.03-.2,.13-.23l45.01-12.52-.13,.36c-6.15-8.03-13.4-15.42-21.96-20.83-4.29-2.7-9.13-4.48-14.18-4.9-5.01-.4-10.18,.26-14.85,2.1-.13,.05-.29,0-.36-.12l-.71-1.2-.02-.03h0c-.07-.13-.02-.29,.11-.35,.71-.37,1.32-.52,1.99-.73l1.98-.5c1.33-.31,2.66-.56,3.99-.81,2.67-.48,5.35-.88,8.04-1.26l-.09,.57c-3.1-1.54-6.24-2.97-9.53-3.99-3.29-1.02-6.67-1.77-10.05-2.52l-20.34-4.3c-.16-.03-.28-.18-.27-.35,0-.19,.17-.33,.36-.32,14.79,.71,29.66,3.55,43.14,9.94l-.53,.46c-1.64-4.25-4.88-7.81-8.15-11-.15-.15-.17-.39-.03-.55l.79-.88c.12-.13,.32-.18,.48-.08,2.55,1.52,4.27,3.83,5.98,6.07,1.67,2.28,3.17,4.65,4.56,7.11l-.29-.21c3.71,.81,7.18,2.63,9.77,5.44l-.73,.34c-.49-2.35-1.67-4.69-2.77-6.94-1.12-2.27-2.35-4.5-3.59-6.71-2.5-4.42-5.12-8.78-7.81-13.09-5.4-8.61-11-17.11-16.98-25.33-.13-.18-.13-.43,.02-.6,.17-.2,.47-.21,.67-.04,2.07,1.84,4.03,3.79,5.83,5.88,1.77,2.1,3.52,4.23,5.12,6.46,3.26,4.42,6.26,9.02,9.09,13.72,5.69,9.38,10.83,19.06,15.58,28.95l-.12-.17c4.71,4.36,9.34,8.8,13.86,13.37,4.47,4.59,9.01,9.23,12.58,14.63,7.1,10.48,13.69,21.24,20.29,32.01l-.2,.81Zm-.52,.31c-6.68-10.93-13.36-21.88-20.51-32.48-3.5-5.32-7.97-9.92-12.42-14.51-4.49-4.55-9.11-9-13.8-13.35-.05-.05-.09-.1-.12-.17-4.71-9.85-9.83-19.53-15.48-28.88-2.81-4.68-5.78-9.27-9.02-13.66-1.58-2.22-3.31-4.33-5.06-6.41-1.78-2.07-3.69-3.98-5.71-5.78l.69-.64c5.98,8.26,11.57,16.78,16.97,25.42,2.68,4.33,5.31,8.7,7.81,13.14,1.25,2.22,2.47,4.46,3.6,6.76,1.11,2.31,2.29,4.56,2.84,7.21,.03,.14-.01,.29-.12,.39-.17,.15-.43,.14-.58-.03l-.02-.02c-2.42-2.65-5.8-4.43-9.29-5.19-.11-.03-.23-.1-.29-.21-1.36-2.42-2.86-4.79-4.49-7.03-1.65-2.19-3.41-4.48-5.71-5.85l.48-.08-.79,.88-.03-.55c3.34,3.28,6.6,6.82,8.34,11.33,.03,.09,.03,.22-.02,.31-.1,.18-.33,.25-.51,.15-13.32-6.35-28.12-9.21-42.83-9.94l.09-.67,20.33,4.34c3.38,.75,6.78,1.51,10.1,2.55,3.33,1.04,6.52,2.49,9.62,4.04,.09,.04,.15,.13,.16,.23,.02,.17-.09,.32-.26,.34-2.68,.37-5.35,.76-8.01,1.24-1.33,.24-2.66,.49-3.97,.79-1.28,.31-2.69,.62-3.78,1.13l.08-.38,.71,1.2-.36-.12c4.81-1.89,10.01-2.53,15.13-2.12,5.13,.42,10.08,2.27,14.39,4.99,8.66,5.5,15.89,12.9,22.07,21.01l.04,.08c.03,.12-.04,.24-.17,.27l-45.03,12.44-.09-.37,46.77-10.42s.1,0,.14,.04l1.9,2.1h0c.05,.07,.04,.16-.03,.21l-22.11,16.84-11.06,8.41-5.56,4.17-2.77,2.09-1.38,1.05-.68,.53-.33,.27c-.1,.03-.02,.16-.18-.02l.19-.11c3.74-2.51,7.58-5.25,11.35-7.9l11.33-8.05,22.61-16.16h.06l22.67,36.2h0c.46,.39,1.2,.68,1.74,.28,.3-.23,.49-.55,.62-.9l-.27-.44Z"/></g><g><path class="uuid-a0a2e5cd-1999-4024-9346-12d63c739add" d="M226.82,256.29l.93-2.21c2.02-4.79,.84-10.32-2.94-13.88l-1.74-1.64c-.42-.4-1.11-.25-1.34,.28l-.71,1.67c-2.17,5.11-.92,11.04,3.14,14.83l1.33,1.24c.42,.4,1.11,.25,1.34-.29Z"/><path class="uuid-a0a2e5cd-1999-4024-9346-12d63c739add" d="M232.29,282.11l.93-2.21c2.02-4.79,.84-10.32-2.94-13.88l-1.74-1.64c-.42-.4-1.11-.25-1.34,.28l-.71,1.67c-2.17,5.11-.92,11.04,3.14,14.83l1.33,1.24c.42,.4,1.11,.25,1.34-.29Z"/><path class="uuid-a0a2e5cd-1999-4024-9346-12d63c739add" d="M231.25,260.2l2.21,.93c4.79,2.02,10.32,.84,13.89-2.94l1.64-1.74c.4-.42,.25-1.11-.28-1.34l-1.67-.71c-5.11-2.17-11.04-.92-14.83,3.14l-1.24,1.33c-.4,.42-.25,1.11,.29,1.34Z"/><path class="uuid-a0a2e5cd-1999-4024-9346-12d63c739add" d="M205.44,265.66l2.21,.93c4.79,2.02,10.32,.84,13.88-2.94l1.64-1.74c.4-.42,.25-1.11-.28-1.34l-1.67-.71c-5.11-2.17-11.04-.92-14.83,3.14l-1.24,1.33c-.4,.42-.25,1.11,.29,1.34Z"/><path class="uuid-a0a2e5cd-1999-4024-9346-12d63c739add" d="M229.85,257.33l2.22-.9c4.81-1.96,7.9-6.7,7.74-11.9l-.07-2.39c-.02-.58-.61-.96-1.14-.75l-1.68,.68c-5.15,2.08-8.45,7.15-8.27,12.7l.06,1.81c.02,.58,.61,.96,1.15,.74Z"/><path class="uuid-a0a2e5cd-1999-4024-9346-12d63c739add" d="M215.46,279.44l2.22-.9c4.81-1.96,7.9-6.7,7.74-11.9l-.07-2.39c-.02-.58-.61-.96-1.14-.75l-1.68,.68c-5.15,2.08-8.45,7.15-8.27,12.7l.06,1.81c.02,.58,.61,.96,1.15,.74Z"/><path class="uuid-a0a2e5cd-1999-4024-9346-12d63c739add" d="M230.22,263.22l.9,2.22c1.96,4.81,6.7,7.9,11.9,7.74l2.39-.07c.58-.02,.96-.61,.75-1.15l-.68-1.68c-2.08-5.15-7.15-8.45-12.7-8.27l-1.81,.06c-.58,.02-.96,.61-.74,1.15Z"/><path class="uuid-a0a2e5cd-1999-4024-9346-12d63c739add" d="M208.1,248.83l.9,2.22c1.96,4.81,6.7,7.9,11.9,7.74l2.39-.07c.58-.02,.96-.61,.75-1.15l-.68-1.68c-2.08-5.15-7.15-8.45-12.7-8.27l-1.81,.06c-.58,.02-.96,.61-.74,1.15Z"/><g class="uuid-ffdda016-b92a-4730-93e0-abb9a52d0f62"><path class="uuid-f0d0e3b6-3d20-46b0-ae8f-9010c52c6f58" d="M222.61,240.55s-3.8,7.67,2.17,14.06l2.05-.43s2.43-10.37-4.23-13.63Z"/></g><g class="uuid-ffdda016-b92a-4730-93e0-abb9a52d0f62"><path class="uuid-f0d0e3b6-3d20-46b0-ae8f-9010c52c6f58" d="M211.07,250.01s2.59,8.16,11.33,8.61l1.18-1.74s-5.46-9.15-12.51-6.87Z"/></g><g class="uuid-ffdda016-b92a-4730-93e0-abb9a52d0f62"><path class="uuid-f0d0e3b6-3d20-46b0-ae8f-9010c52c6f58" d="M208.66,263.83s7.49,4.15,14.14-1.53l-.34-2.07s-10.25-2.89-13.81,3.6Z"/></g><g class="uuid-ffdda016-b92a-4730-93e0-abb9a52d0f62"><path class="uuid-f0d0e3b6-3d20-46b0-ae8f-9010c52c6f58" d="M216.16,276.64s8.21-2.44,8.82-11.16l-1.71-1.21s-9.25,5.28-7.11,12.37Z"/></g><g class="uuid-ffdda016-b92a-4730-93e0-abb9a52d0f62"><path class="uuid-f0d0e3b6-3d20-46b0-ae8f-9010c52c6f58" d="M231.14,278.84s3.76-7.7-2.26-14.05l-2.05,.44s-2.36,10.39,4.31,13.6Z"/></g><g class="uuid-ffdda016-b92a-4730-93e0-abb9a52d0f62"><path class="uuid-f0d0e3b6-3d20-46b0-ae8f-9010c52c6f58" d="M243.55,270.12s-3.11-7.98-11.85-7.87l-1.06,1.81s6.03,8.78,12.92,6.06Z"/></g><g class="uuid-ffdda016-b92a-4730-93e0-abb9a52d0f62"><path class="uuid-f0d0e3b6-3d20-46b0-ae8f-9010c52c6f58" d="M244.92,255.76s-7.87-3.38-13.92,2.93l.54,2.03s10.49,1.86,13.38-4.95Z"/></g><g class="uuid-ffdda016-b92a-4730-93e0-abb9a52d0f62"><path class="uuid-f0d0e3b6-3d20-46b0-ae8f-9010c52c6f58" d="M237.4,244.68s-8.13,2.71-8.45,11.45l1.75,1.15s9.07-5.59,6.7-12.6Z"/></g><path class="uuid-0b256091-6e2f-4b00-bded-821b946eb9c6" d="M228.37,266.53h0c3.1-.66,5.09-3.72,4.44-6.82l-.21-.98c-.66-3.1-3.72-5.09-6.82-4.44h0c-3.1,.66-5.09,3.72-4.44,6.82l.21,.98c.66,3.1,3.72,5.09,6.82,4.44Z"/></g><g><path class="uuid-a0a2e5cd-1999-4024-9346-12d63c739add" d="M167.46,207.09l.77-1.82c1.66-3.96,.7-8.53-2.43-11.47l-1.44-1.36c-.35-.33-.92-.21-1.11,.23l-.59,1.38c-1.79,4.22-.76,9.12,2.59,12.25l1.1,1.02c.35,.33,.92,.21,1.1-.24Z"/><path class="uuid-a0a2e5cd-1999-4024-9346-12d63c739add" d="M171.98,228.42l.77-1.82c1.66-3.96,.7-8.53-2.43-11.47l-1.44-1.36c-.35-.33-.92-.21-1.11,.23l-.59,1.38c-1.79,4.22-.76,9.12,2.59,12.25l1.1,1.02c.35,.33,.92,.21,1.1-.24Z"/><path class="uuid-a0a2e5cd-1999-4024-9346-12d63c739add" d="M171.12,210.31l1.82,.77c3.96,1.66,8.53,.7,11.47-2.43l1.36-1.44c.33-.35,.21-.92-.23-1.11l-1.38-.59c-4.22-1.79-9.12-.76-12.25,2.59l-1.02,1.1c-.33,.35-.21,.92,.24,1.1Z"/><path class="uuid-a0a2e5cd-1999-4024-9346-12d63c739add" d="M149.8,214.83l1.82,.77c3.96,1.66,8.53,.7,11.47-2.43l1.36-1.44c.33-.35,.21-.92-.23-1.11l-1.38-.59c-4.22-1.79-9.12-.76-12.25,2.59l-1.02,1.1c-.33,.35-.21,.92,.24,1.1Z"/><path class="uuid-a0a2e5cd-1999-4024-9346-12d63c739add" d="M169.96,207.94l1.83-.75c3.97-1.62,6.52-5.54,6.39-9.83l-.06-1.98c-.01-.48-.5-.8-.95-.62l-1.39,.56c-4.25,1.72-6.98,5.91-6.83,10.5l.05,1.5c.02,.48,.5,.8,.95,.61Z"/><path class="uuid-a0a2e5cd-1999-4024-9346-12d63c739add" d="M158.07,226.21l1.83-.75c3.97-1.62,6.52-5.54,6.39-9.83l-.06-1.98c-.01-.48-.5-.8-.95-.62l-1.39,.56c-4.25,1.72-6.98,5.91-6.83,10.5l.05,1.5c.02,.48,.5,.8,.95,.61Z"/><path class="uuid-a0a2e5cd-1999-4024-9346-12d63c739add" d="M170.27,212.81l.75,1.83c1.62,3.97,5.54,6.52,9.83,6.39l1.98-.06c.48-.01,.8-.5,.62-.95l-.56-1.39c-1.72-4.25-5.91-6.98-10.5-6.83l-1.5,.05c-.48,.02-.8,.5-.61,.95Z"/><path class="uuid-a0a2e5cd-1999-4024-9346-12d63c739add" d="M152,200.92l.75,1.83c1.62,3.97,5.54,6.52,9.83,6.39l1.98-.06c.48-.01,.8-.5,.62-.95l-.56-1.39c-1.72-4.25-5.91-6.98-10.5-6.83l-1.5,.05c-.48,.02-.8,.5-.61,.95Z"/><g class="uuid-ffdda016-b92a-4730-93e0-abb9a52d0f62"><path class="uuid-f0d0e3b6-3d20-46b0-ae8f-9010c52c6f58" d="M163.99,194.08s-3.14,6.34,1.79,11.62l1.7-.36s2-8.57-3.49-11.26Z"/></g><g class="uuid-ffdda016-b92a-4730-93e0-abb9a52d0f62"><path class="uuid-f0d0e3b6-3d20-46b0-ae8f-9010c52c6f58" d="M154.45,201.9s2.14,6.74,9.36,7.11l.97-1.44s-4.51-7.56-10.33-5.67Z"/></g><g class="uuid-ffdda016-b92a-4730-93e0-abb9a52d0f62"><path class="uuid-f0d0e3b6-3d20-46b0-ae8f-9010c52c6f58" d="M152.46,213.32s6.19,3.43,11.69-1.26l-.28-1.71s-8.47-2.39-11.41,2.98Z"/></g><g class="uuid-ffdda016-b92a-4730-93e0-abb9a52d0f62"><path class="uuid-f0d0e3b6-3d20-46b0-ae8f-9010c52c6f58" d="M158.65,223.9s6.78-2.01,7.29-9.22l-1.42-1s-7.64,4.36-5.87,10.22Z"/></g><g class="uuid-ffdda016-b92a-4730-93e0-abb9a52d0f62"><path class="uuid-f0d0e3b6-3d20-46b0-ae8f-9010c52c6f58" d="M171.03,225.72s3.1-6.36-1.86-11.6l-1.69,.37s-1.95,8.58,3.56,11.24Z"/></g><g class="uuid-ffdda016-b92a-4730-93e0-abb9a52d0f62"><path class="uuid-f0d0e3b6-3d20-46b0-ae8f-9010c52c6f58" d="M181.28,218.51s-2.57-6.59-9.79-6.5l-.88,1.49s4.98,7.25,10.67,5.01Z"/></g><g class="uuid-ffdda016-b92a-4730-93e0-abb9a52d0f62"><path class="uuid-f0d0e3b6-3d20-46b0-ae8f-9010c52c6f58" d="M182.41,206.65s-6.5-2.8-11.5,2.42l.45,1.68s8.66,1.54,11.05-4.09Z"/></g><g class="uuid-ffdda016-b92a-4730-93e0-abb9a52d0f62"><path class="uuid-f0d0e3b6-3d20-46b0-ae8f-9010c52c6f58" d="M176.2,197.5s-6.71,2.24-6.98,9.46l1.45,.95s7.49-4.61,5.53-10.41Z"/></g><path class="uuid-0b256091-6e2f-4b00-bded-821b946eb9c6" d="M168.74,215.55h0c2.56-.54,4.21-3.08,3.67-5.63l-.17-.81c-.54-2.56-3.08-4.21-5.63-3.67h0c-2.56,.54-4.21,3.08-3.67,5.63l.17,.81c.54,2.56,3.08,4.21,5.63,3.67Z"/></g></g><g><g><path class="uuid-497e5254-6b06-4e3f-92b0-0d201b2024b6" d="M185.94,224.68s1.39-48.69-46.92-66.22c4.82,40.89,42.03,67.35,46.92,66.22Z"/><g class="uuid-d580a61e-5ef1-41c3-8af8-d86e5033c035"><path class="uuid-497e5254-6b06-4e3f-92b0-0d201b2024b6" d="M139.07,158.81c4.86,39.57,39.99,65.53,46.39,65.89-6.6-13.46-15.61-28.89-27.94-44.72-6.2-7.96-12.43-14.99-18.45-21.17Z"/></g></g><g><path class="uuid-497e5254-6b06-4e3f-92b0-0d201b2024b6" d="M157.32,223.04s-19.85-22.76-52.28-8.64c21.78,14.84,47.4,12.32,52.28,8.64Z"/><g class="uuid-d580a61e-5ef1-41c3-8af8-d86e5033c035"><path class="uuid-497e5254-6b06-4e3f-92b0-0d201b2024b6" d="M156.07,223.76c-2.52-.69-8.82-2.39-18.52-4.91-9.52-2.47-24.91-3.79-32.32-4.32,20.29,13.71,43.83,12.44,50.83,9.23Z"/></g></g><g><path class="uuid-497e5254-6b06-4e3f-92b0-0d201b2024b6" d="M196.83,293.75c-8.02,2.33-19.51,6.66-31.58,15.02-13.39,9.27-22.04,19.72-27.1,26.9,8.2-2.03,21.62-6.48,35.31-16.79,11.66-8.78,19.06-18.45,23.37-25.13Z"/><g class="uuid-d580a61e-5ef1-41c3-8af8-d86e5033c035"><path class="uuid-497e5254-6b06-4e3f-92b0-0d201b2024b6" d="M139.87,335.23c8.28-2.21,20.81-6.72,33.59-16.34,11.17-8.41,18.41-17.62,22.8-24.26l-56.39,40.6Z"/><path class="uuid-497e5254-6b06-4e3f-92b0-0d201b2024b6" d="M196.76,293.86s.05-.07,.07-.11c-.23,.07-.47,.14-.7,.21l.62-.1Z"/></g></g><g><path class="uuid-743d8a1b-4199-4333-ad9c-29748a4a7ac2" d="M258.17,323.48s-22.66-37.39-31.26-48.88c-8.61-11.49-32.9-33.81-32.9-33.81,0,0-26.32-56.41-48.5-75.1,15.9,21.76,41.49,62.72,42.67,71.57-5.37-5.96-13.04-7.28-13.04-7.28,0,0-7.97-14.48-14.19-17.83l-1.08,1.21s8.77,8,11.29,15.28c-5.49-2.71-26.23-12.19-58.82-13.61,37.84,8.12,40.85,7.96,54.73,14.88-19.14,2.61-21.73,4.42-21.73,4.42l.97,1.64s18.32-8.13,36.97,2.07c18.66,10.2,33.21,30.43,33.21,30.43l-61.61,17.09,63.99-14.32,2.6,2.87c-10.27,7.93-24.83,19.11-42.58,32.49-11.24,8.47-17.75,13.31-17.66,13.43,.28,.38,62.3-44.19,62.3-44.19h0l31.06,49.5s2.64,2.35,3.58-1.88Z"/><path class="uuid-5d8b89e9-4180-4c88-a486-679262279c8c" d="M258.17,323.48c-.2,.83-.47,1.73-1.19,2.27-.75,.55-1.76,.16-2.4-.38h0l-31.11-49.47,.08,.02-30.9,22.18-15.48,11.04c-5.23,3.65-10.21,7.37-15.7,10.89l-.26,.15c-.2-.34,.13-.34,.12-.41l.46-.38,.94-.73,1.89-1.45,3.79-2.87,7.59-5.72,15.12-11.53,30.21-23.1-.02,.28-2.6-2.87,.19,.06-63.97,14.37c-.13,.03-.27-.05-.31-.18-.04-.14,.04-.28,.18-.32l61.59-17.14-.17,.49c-8.41-10.99-18.34-21.1-30.05-28.5-5.88-3.7-12.49-6.13-19.4-6.7-6.86-.54-13.93,.35-20.32,2.87-.18,.07-.4,0-.5-.16l-.97-1.64-.02-.04h0c-.09-.18-.03-.39,.14-.48,.97-.51,1.81-.72,2.73-1l2.71-.69c1.81-.42,3.64-.77,5.46-1.1,3.65-.66,7.32-1.21,11-1.72l-.13,.78c-4.24-2.11-8.54-4.07-13.05-5.46-4.5-1.4-9.13-2.43-13.76-3.45l-27.83-5.89c-.22-.05-.38-.25-.37-.48,.01-.26,.23-.45,.49-.44,20.24,.97,40.59,4.86,59.03,13.61l-.72,.64c-2.25-5.81-6.68-10.69-11.16-15.05-.2-.2-.23-.54-.04-.75l1.08-1.21c.16-.18,.44-.24,.66-.12,3.49,2.09,5.85,5.25,8.18,8.3,2.28,3.12,4.34,6.37,6.24,9.73l-.39-.28c5.08,1.1,9.82,3.6,13.37,7.44l-.99,.46c-.67-3.22-2.29-6.41-3.79-9.5-1.53-3.11-3.21-6.15-4.91-9.18-3.42-6.05-7.01-12.01-10.69-17.92-7.39-11.79-15.06-23.42-23.23-34.66-.17-.24-.18-.59,.03-.82,.24-.27,.65-.29,.91-.06,2.84,2.52,5.51,5.19,7.97,8.04,2.43,2.88,4.82,5.79,7,8.85,4.47,6.05,8.56,12.35,12.44,18.77,7.78,12.84,14.82,26.09,21.32,39.62l-.17-.23c6.45,5.97,12.78,12.04,18.96,18.29,6.11,6.28,12.32,12.63,17.21,20.03,9.71,14.34,18.73,29.07,27.77,43.8l-.27,1.11Zm-.71,.43c-9.14-14.96-18.28-29.95-28.07-44.45-4.79-7.29-10.91-13.57-17-19.85-6.15-6.23-12.46-12.32-18.88-18.27-.07-.06-.13-.14-.17-.23-6.44-13.48-13.45-26.73-21.18-39.52-3.85-6.4-7.92-12.68-12.34-18.69-2.16-3.04-4.53-5.92-6.92-8.77-2.43-2.83-5.05-5.45-7.82-7.92l.94-.88c8.19,11.3,15.83,22.96,23.22,34.78,3.67,5.93,7.26,11.9,10.68,17.99,1.71,3.04,3.38,6.1,4.93,9.25,1.52,3.16,3.13,6.24,3.89,9.86,.04,.19-.02,.39-.17,.53-.23,.21-.58,.19-.79-.04l-.03-.03c-3.31-3.62-7.94-6.07-12.71-7.11-.15-.03-.31-.14-.4-.28-1.86-3.31-3.91-6.55-6.15-9.62-2.26-3-4.67-6.13-7.81-8l.66-.12-1.08,1.2-.04-.75c4.58,4.49,9.03,9.33,11.42,15.5,.04,.13,.04,.3-.03,.43-.13,.25-.45,.34-.69,.21-18.23-8.69-38.49-12.61-58.61-13.61l.12-.92,27.83,5.94c4.63,1.03,9.27,2.07,13.82,3.49,4.56,1.42,8.92,3.41,13.16,5.53,.12,.06,.21,.17,.23,.31,.03,.23-.13,.44-.35,.47-3.67,.5-7.33,1.05-10.96,1.69-1.82,.33-3.63,.67-5.43,1.09-1.75,.42-3.68,.85-5.17,1.55l.11-.52,.97,1.64-.5-.16c6.58-2.58,13.7-3.46,20.7-2.9,7.01,.58,13.8,3.1,19.69,6.83,11.85,7.53,21.75,17.66,30.21,28.75l.05,.11c.04,.17-.06,.33-.23,.38l-61.62,17.03-.12-.5,64-14.26c.07-.01,.14,0,.19,.06l2.59,2.87h.01c.06,.1,.05,.22-.04,.29l-30.26,23.05-15.14,11.51-7.6,5.71-3.8,2.86-1.89,1.44-.94,.73-.45,.37c-.14,.04-.03,.22-.24-.03l.26-.15c5.11-3.43,10.38-7.19,15.53-10.82l15.5-11.01,30.94-22.12h0l.08,.02,31.02,49.53h0c.64,.54,1.64,.93,2.39,.38,.42-.31,.66-.76,.85-1.23l-.37-.61Z"/></g><g><path class="uuid-a0a2e5cd-1999-4024-9346-12d63c739add" d="M154.38,196.95l1.27-3.02c2.76-6.55,1.15-14.13-4.02-19l-2.39-2.25c-.58-.54-1.52-.35-1.83,.38l-.97,2.29c-2.97,6.99-1.26,15.1,4.29,20.29l1.81,1.7c.58,.54,1.52,.34,1.83-.39Z"/><path class="uuid-a0a2e5cd-1999-4024-9346-12d63c739add" d="M161.85,232.27l1.27-3.02c2.76-6.55,1.15-14.13-4.02-19l-2.39-2.25c-.58-.54-1.52-.35-1.83,.38l-.97,2.29c-2.97,6.99-1.26,15.1,4.29,20.29l1.81,1.7c.58,.54,1.52,.34,1.83-.39Z"/><path class="uuid-a0a2e5cd-1999-4024-9346-12d63c739add" d="M160.44,202.28l3.02,1.27c6.55,2.76,14.13,1.15,19-4.02l2.25-2.39c.54-.58,.35-1.52-.38-1.83l-2.29-.97c-6.99-2.97-15.1-1.26-20.29,4.29l-1.7,1.81c-.54,.58-.34,1.52,.39,1.83Z"/><path class="uuid-a0a2e5cd-1999-4024-9346-12d63c739add" d="M125.11,209.76l3.02,1.27c6.55,2.76,14.13,1.15,19-4.02l2.25-2.39c.54-.58,.35-1.52-.38-1.83l-2.29-.97c-6.99-2.97-15.1-1.26-20.29,4.29l-1.7,1.81c-.54,.58-.34,1.52,.39,1.83Z"/><path class="uuid-a0a2e5cd-1999-4024-9346-12d63c739add" d="M158.51,198.36l3.04-1.24c6.58-2.68,10.81-9.17,10.59-16.28l-.1-3.28c-.02-.79-.83-1.32-1.57-1.02l-2.3,.93c-7.05,2.84-11.57,9.79-11.31,17.39l.08,2.48c.03,.79,.84,1.32,1.57,1.02Z"/><path class="uuid-a0a2e5cd-1999-4024-9346-12d63c739add" d="M138.82,228.63l3.04-1.24c6.58-2.68,10.81-9.17,10.59-16.28l-.1-3.28c-.02-.79-.83-1.32-1.57-1.02l-2.3,.93c-7.05,2.84-11.57,9.79-11.31,17.39l.08,2.48c.03,.79,.84,1.32,1.57,1.02Z"/><path class="uuid-a0a2e5cd-1999-4024-9346-12d63c739add" d="M159.02,206.42l1.24,3.04c2.68,6.58,9.17,10.81,16.28,10.59l3.28-.1c.79-.02,1.32-.83,1.02-1.57l-.93-2.3c-2.84-7.05-9.79-11.57-17.39-11.31l-2.48,.08c-.79,.03-1.32,.84-1.02,1.57Z"/><path class="uuid-a0a2e5cd-1999-4024-9346-12d63c739add" d="M128.76,186.73l1.24,3.04c2.68,6.58,9.17,10.81,16.28,10.59l3.28-.1c.79-.02,1.32-.83,1.02-1.57l-.93-2.3c-2.84-7.05-9.79-11.57-17.39-11.31l-2.48,.08c-.79,.03-1.32,.84-1.02,1.57Z"/><g class="uuid-ffdda016-b92a-4730-93e0-abb9a52d0f62"><path class="uuid-f0d0e3b6-3d20-46b0-ae8f-9010c52c6f58" d="M148.61,175.4s-5.2,10.5,2.97,19.24l2.81-.59s3.32-14.2-5.78-18.65Z"/></g><g class="uuid-ffdda016-b92a-4730-93e0-abb9a52d0f62"><path class="uuid-f0d0e3b6-3d20-46b0-ae8f-9010c52c6f58" d="M132.82,188.34s3.55,11.17,15.5,11.78l1.61-2.38s-7.47-12.52-17.11-9.4Z"/></g><g class="uuid-ffdda016-b92a-4730-93e0-abb9a52d0f62"><path class="uuid-f0d0e3b6-3d20-46b0-ae8f-9010c52c6f58" d="M129.52,207.26s10.25,5.68,19.36-2.09l-.46-2.83s-14.03-3.96-18.89,4.93Z"/></g><g class="uuid-ffdda016-b92a-4730-93e0-abb9a52d0f62"><path class="uuid-f0d0e3b6-3d20-46b0-ae8f-9010c52c6f58" d="M139.78,224.79s11.24-3.33,12.08-15.27l-2.35-1.66s-12.66,7.23-9.73,16.93Z"/></g><g class="uuid-ffdda016-b92a-4730-93e0-abb9a52d0f62"><path class="uuid-f0d0e3b6-3d20-46b0-ae8f-9010c52c6f58" d="M160.29,227.8s5.14-10.53-3.09-19.22l-2.81,.61s-3.23,14.21,5.9,18.62Z"/></g><g class="uuid-ffdda016-b92a-4730-93e0-abb9a52d0f62"><path class="uuid-f0d0e3b6-3d20-46b0-ae8f-9010c52c6f58" d="M177.27,215.87s-4.25-10.92-16.22-10.77l-1.46,2.48s8.25,12.02,17.68,8.29Z"/></g><g class="uuid-ffdda016-b92a-4730-93e0-abb9a52d0f62"><path class="uuid-f0d0e3b6-3d20-46b0-ae8f-9010c52c6f58" d="M179.14,196.22s-10.77-4.63-19.05,4l.74,2.78s14.35,2.55,18.31-6.78Z"/></g><g class="uuid-ffdda016-b92a-4730-93e0-abb9a52d0f62"><path class="uuid-f0d0e3b6-3d20-46b0-ae8f-9010c52c6f58" d="M168.85,181.06s-11.12,3.7-11.56,15.66l2.4,1.58s12.41-7.64,9.16-17.24Z"/></g><path class="uuid-0b256091-6e2f-4b00-bded-821b946eb9c6" d="M156.5,210.96h0c4.24-.9,6.97-5.1,6.07-9.33l-.28-1.34c-.9-4.24-5.1-6.97-9.33-6.07h0c-4.24,.9-6.97,5.1-6.07,9.33l.28,1.34c.9,4.24,5.1,6.97,9.33,6.07Z"/></g><g><path class="uuid-a0a2e5cd-1999-4024-9346-12d63c739add" d="M179.32,248.96l1.27-3.02c2.76-6.55,1.15-14.13-4.02-19l-2.39-2.25c-.58-.54-1.52-.35-1.83,.38l-.97,2.29c-2.97,7-1.26,15.1,4.29,20.29l1.81,1.7c.58,.54,1.52,.34,1.83-.39Z"/><path class="uuid-a0a2e5cd-1999-4024-9346-12d63c739add" d="M186.79,284.29l1.27-3.02c2.76-6.55,1.15-14.13-4.02-19l-2.39-2.25c-.58-.54-1.52-.35-1.83,.38l-.97,2.29c-2.97,6.99-1.26,15.1,4.29,20.29l1.81,1.7c.58,.54,1.52,.34,1.83-.39Z"/><path class="uuid-a0a2e5cd-1999-4024-9346-12d63c739add" d="M185.38,254.3l3.02,1.27c6.55,2.76,14.13,1.15,19-4.02l2.25-2.39c.54-.58,.35-1.52-.38-1.83l-2.29-.97c-6.99-2.97-15.1-1.26-20.29,4.29l-1.7,1.81c-.54,.58-.34,1.52,.39,1.83Z"/><path class="uuid-a0a2e5cd-1999-4024-9346-12d63c739add" d="M150.05,261.78l3.02,1.27c6.55,2.76,14.13,1.15,19-4.02l2.25-2.39c.54-.58,.35-1.52-.38-1.83l-2.29-.97c-6.99-2.97-15.1-1.26-20.29,4.29l-1.7,1.81c-.54,.58-.34,1.52,.39,1.83Z"/><path class="uuid-a0a2e5cd-1999-4024-9346-12d63c739add" d="M183.45,250.38l3.04-1.24c6.58-2.68,10.81-9.17,10.59-16.28l-.1-3.28c-.02-.79-.83-1.32-1.57-1.02l-2.3,.93c-7.05,2.84-11.57,9.79-11.31,17.39l.08,2.48c.03,.79,.84,1.32,1.57,1.02Z"/><path class="uuid-a0a2e5cd-1999-4024-9346-12d63c739add" d="M163.76,280.64l3.04-1.24c6.58-2.68,10.81-9.17,10.59-16.28l-.1-3.28c-.02-.79-.83-1.32-1.57-1.02l-2.3,.93c-7.05,2.84-11.57,9.79-11.31,17.39l.08,2.48c.03,.79,.84,1.32,1.57,1.02Z"/><path class="uuid-a0a2e5cd-1999-4024-9346-12d63c739add" d="M183.97,258.44l1.24,3.04c2.68,6.58,9.17,10.81,16.28,10.59l3.28-.1c.79-.02,1.32-.83,1.02-1.57l-.93-2.3c-2.84-7.05-9.79-11.57-17.39-11.31l-2.48,.08c-.79,.03-1.32,.84-1.02,1.57Z"/><path class="uuid-a0a2e5cd-1999-4024-9346-12d63c739add" d="M153.7,238.74l1.24,3.04c2.68,6.58,9.17,10.81,16.28,10.59l3.28-.1c.79-.02,1.32-.83,1.02-1.57l-.93-2.3c-2.84-7.05-9.79-11.57-17.39-11.31l-2.48,.08c-.79,.03-1.32,.84-1.02,1.57Z"/><g class="uuid-ffdda016-b92a-4730-93e0-abb9a52d0f62"><path class="uuid-f0d0e3b6-3d20-46b0-ae8f-9010c52c6f58" d="M173.55,227.42s-5.2,10.5,2.97,19.24l2.81-.59s3.32-14.2-5.78-18.65Z"/></g><g class="uuid-ffdda016-b92a-4730-93e0-abb9a52d0f62"><path class="uuid-f0d0e3b6-3d20-46b0-ae8f-9010c52c6f58" d="M157.76,240.36s3.55,11.17,15.5,11.78l1.61-2.38s-7.47-12.52-17.11-9.4Z"/></g><g class="uuid-ffdda016-b92a-4730-93e0-abb9a52d0f62"><path class="uuid-f0d0e3b6-3d20-46b0-ae8f-9010c52c6f58" d="M154.46,259.27s10.25,5.68,19.36-2.09l-.46-2.83s-14.03-3.96-18.89,4.93Z"/></g><g class="uuid-ffdda016-b92a-4730-93e0-abb9a52d0f62"><path class="uuid-f0d0e3b6-3d20-46b0-ae8f-9010c52c6f58" d="M164.72,276.81s11.24-3.33,12.08-15.27l-2.35-1.66s-12.66,7.23-9.73,16.93Z"/></g><g class="uuid-ffdda016-b92a-4730-93e0-abb9a52d0f62"><path class="uuid-f0d0e3b6-3d20-46b0-ae8f-9010c52c6f58" d="M185.23,279.82s5.14-10.53-3.09-19.22l-2.81,.61s-3.23,14.21,5.9,18.62Z"/></g><g class="uuid-ffdda016-b92a-4730-93e0-abb9a52d0f62"><path class="uuid-f0d0e3b6-3d20-46b0-ae8f-9010c52c6f58" d="M202.21,267.88s-4.25-10.92-16.22-10.77l-1.46,2.48s8.25,12.02,17.68,8.29Z"/></g><g class="uuid-ffdda016-b92a-4730-93e0-abb9a52d0f62"><path class="uuid-f0d0e3b6-3d20-46b0-ae8f-9010c52c6f58" d="M204.08,248.23s-10.77-4.63-19.05,4l.74,2.77s14.35,2.55,18.31-6.78Z"/></g><g class="uuid-ffdda016-b92a-4730-93e0-abb9a52d0f62"><path class="uuid-f0d0e3b6-3d20-46b0-ae8f-9010c52c6f58" d="M193.79,233.07s-11.12,3.7-11.56,15.66l2.4,1.58s12.41-7.64,9.16-17.24Z"/></g><path class="uuid-0b256091-6e2f-4b00-bded-821b946eb9c6" d="M181.44,262.97h0c4.24-.9,6.97-5.1,6.07-9.33l-.28-1.34c-.9-4.24-5.1-6.97-9.33-6.07h0c-4.24,.9-6.97,5.1-6.07,9.33l.28,1.34c.9,4.24,5.1,6.97,9.33,6.07Z"/></g><g><path class="uuid-a0a2e5cd-1999-4024-9346-12d63c739add" d="M98.09,181.63l1.05-2.5c2.28-5.41,.95-11.67-3.32-15.7l-1.97-1.86c-.48-.45-1.26-.29-1.51,.32l-.8,1.89c-2.46,5.78-1.04,12.48,3.55,16.76l1.5,1.4c.48,.45,1.26,.28,1.51-.32Z"/><path class="uuid-a0a2e5cd-1999-4024-9346-12d63c739add" d="M104.26,210.81l1.05-2.5c2.28-5.41,.95-11.67-3.32-15.7l-1.97-1.86c-.48-.45-1.26-.29-1.51,.32l-.8,1.89c-2.46,5.78-1.04,12.48,3.55,16.76l1.5,1.4c.48,.45,1.26,.28,1.51-.32Z"/><path class="uuid-a0a2e5cd-1999-4024-9346-12d63c739add" d="M103.09,186.04l2.5,1.05c5.41,2.28,11.67,.95,15.7-3.32l1.86-1.97c.45-.48,.29-1.26-.32-1.51l-1.89-.8c-5.78-2.46-12.48-1.04-16.76,3.55l-1.4,1.5c-.45,.48-.28,1.26,.32,1.51Z"/><path class="uuid-a0a2e5cd-1999-4024-9346-12d63c739add" d="M73.91,192.21l2.5,1.05c5.41,2.28,11.67,.95,15.7-3.32l1.86-1.97c.45-.48,.29-1.26-.32-1.51l-1.89-.8c-5.78-2.46-12.48-1.04-16.76,3.55l-1.4,1.5c-.45,.48-.28,1.26,.32,1.51Z"/><path class="uuid-a0a2e5cd-1999-4024-9346-12d63c739add" d="M101.5,182.8l2.51-1.02c5.44-2.22,8.93-7.58,8.75-13.45l-.08-2.71c-.02-.66-.69-1.09-1.29-.85l-1.9,.77c-5.82,2.35-9.56,8.09-9.35,14.36l.07,2.05c.02,.66,.69,1.09,1.3,.84Z"/><path class="uuid-a0a2e5cd-1999-4024-9346-12d63c739add" d="M85.24,207.8l2.51-1.02c5.44-2.22,8.93-7.58,8.75-13.45l-.08-2.71c-.02-.66-.69-1.09-1.29-.85l-1.9,.77c-5.82,2.35-9.56,8.09-9.35,14.36l.07,2.05c.02,.66,.69,1.09,1.3,.84Z"/><path class="uuid-a0a2e5cd-1999-4024-9346-12d63c739add" d="M101.93,189.45l1.02,2.51c2.22,5.44,7.58,8.93,13.45,8.75l2.71-.08c.66-.02,1.09-.69,.85-1.29l-.77-1.9c-2.35-5.82-8.09-9.56-14.36-9.35l-2.05,.07c-.66,.02-1.09,.69-.84,1.3Z"/><path class="uuid-a0a2e5cd-1999-4024-9346-12d63c739add" d="M76.92,173.19l1.02,2.51c2.22,5.44,7.58,8.93,13.45,8.75l2.71-.08c.66-.02,1.09-.69,.85-1.29l-.77-1.9c-2.35-5.82-8.09-9.56-14.36-9.35l-2.05,.07c-.66,.02-1.09,.69-.84,1.3Z"/><g class="uuid-ffdda016-b92a-4730-93e0-abb9a52d0f62"><path class="uuid-f0d0e3b6-3d20-46b0-ae8f-9010c52c6f58" d="M93.33,163.83s-4.3,8.68,2.46,15.9l2.32-.49s2.74-11.73-4.78-15.41Z"/></g><g class="uuid-ffdda016-b92a-4730-93e0-abb9a52d0f62"><path class="uuid-f0d0e3b6-3d20-46b0-ae8f-9010c52c6f58" d="M80.28,174.52s2.93,9.23,12.81,9.73l1.33-1.96s-6.17-10.34-14.14-7.77Z"/></g><g class="uuid-ffdda016-b92a-4730-93e0-abb9a52d0f62"><path class="uuid-f0d0e3b6-3d20-46b0-ae8f-9010c52c6f58" d="M77.56,190.15s8.47,4.69,15.99-1.73l-.38-2.34s-11.59-3.27-15.61,4.07Z"/></g><g class="uuid-ffdda016-b92a-4730-93e0-abb9a52d0f62"><path class="uuid-f0d0e3b6-3d20-46b0-ae8f-9010c52c6f58" d="M86.03,204.63s9.28-2.75,9.98-12.62l-1.94-1.37s-10.46,5.97-8.04,13.99Z"/></g><g class="uuid-ffdda016-b92a-4730-93e0-abb9a52d0f62"><path class="uuid-f0d0e3b6-3d20-46b0-ae8f-9010c52c6f58" d="M102.97,207.12s4.25-8.7-2.55-15.88l-2.32,.5s-2.67,11.74,4.87,15.38Z"/></g><g class="uuid-ffdda016-b92a-4730-93e0-abb9a52d0f62"><path class="uuid-f0d0e3b6-3d20-46b0-ae8f-9010c52c6f58" d="M117,197.26s-3.51-9.02-13.4-8.9l-1.2,2.05s6.82,9.93,14.6,6.85Z"/></g><g class="uuid-ffdda016-b92a-4730-93e0-abb9a52d0f62"><path class="uuid-f0d0e3b6-3d20-46b0-ae8f-9010c52c6f58" d="M118.55,181.02s-8.89-3.83-15.74,3.31l.61,2.29s11.86,2.11,15.13-5.6Z"/></g><g class="uuid-ffdda016-b92a-4730-93e0-abb9a52d0f62"><path class="uuid-f0d0e3b6-3d20-46b0-ae8f-9010c52c6f58" d="M110.05,168.5s-9.19,3.06-9.55,12.94l1.98,1.3s10.25-6.31,7.57-14.24Z"/></g><path class="uuid-0b256091-6e2f-4b00-bded-821b946eb9c6" d="M99.84,193.2h0c3.5-.74,5.76-4.21,5.02-7.71l-.23-1.11c-.74-3.5-4.21-5.76-7.71-5.02h0c-3.5,.74-5.76,4.21-5.02,7.71l.23,1.11c.74,3.5,4.21,5.76,7.71,5.02Z"/></g></g></g></g><g><path class="uuid-371e77b1-a12f-491d-8870-ad8ff4e5685c" d="M339.95,279.39l-1.54-3.66c-3.34-7.93-1.4-17.09,4.86-22.99l2.89-2.72c.7-.66,1.84-.42,2.22,.46l1.18,2.77c3.6,8.46,1.52,18.27-5.2,24.55l-2.2,2.05c-.7,.66-1.84,.41-2.21-.47Z"/><path class="uuid-371e77b1-a12f-491d-8870-ad8ff4e5685c" d="M330.9,322.13l-1.54-3.65c-3.34-7.93-1.4-17.09,4.86-22.99l2.89-2.72c.7-.66,1.84-.42,2.22,.46l1.18,2.77c3.6,8.46,1.52,18.27-5.2,24.55l-2.2,2.05c-.7,.66-1.84,.41-2.21-.47Z"/><path class="uuid-371e77b1-a12f-491d-8870-ad8ff4e5685c" d="M332.61,285.85l-3.65,1.54c-7.93,3.34-17.09,1.4-22.99-4.86l-2.72-2.89c-.66-.7-.42-1.84,.46-2.22l2.77-1.18c8.46-3.6,18.27-1.52,24.55,5.2l2.05,2.2c.66,.7,.41,1.84-.47,2.21Z"/><path class="uuid-371e77b1-a12f-491d-8870-ad8ff4e5685c" d="M375.35,294.89l-3.66,1.54c-7.93,3.34-17.09,1.4-22.99-4.86l-2.72-2.89c-.66-.7-.42-1.84,.46-2.22l2.77-1.18c8.46-3.6,18.27-1.52,24.55,5.2l2.05,2.2c.66,.7,.41,1.84-.47,2.21Z"/><path class="uuid-371e77b1-a12f-491d-8870-ad8ff4e5685c" d="M334.94,281.1l-3.67-1.5c-7.96-3.25-13.07-11.1-12.81-19.69l.12-3.96c.03-.96,1-1.6,1.9-1.24l2.79,1.12c8.53,3.44,13.99,11.84,13.69,21.03l-.1,3c-.03,.96-1.01,1.59-1.9,1.23Z"/><path class="uuid-371e77b1-a12f-491d-8870-ad8ff4e5685c" d="M358.77,317.71l-3.67-1.5c-7.96-3.25-13.07-11.1-12.81-19.69l.12-3.96c.03-.96,1-1.6,1.9-1.24l2.79,1.12c8.53,3.44,13.99,11.84,13.69,21.03l-.1,3c-.03,.96-1.01,1.59-1.9,1.23Z"/><path class="uuid-371e77b1-a12f-491d-8870-ad8ff4e5685c" d="M334.32,290.85l-1.5,3.67c-3.25,7.96-11.1,13.07-19.69,12.81l-3.96-.12c-.96-.03-1.6-1.01-1.24-1.9l1.12-2.79c3.44-8.53,11.84-13.99,21.03-13.69l3,.1c.96,.03,1.59,1.01,1.23,1.9Z"/><path class="uuid-371e77b1-a12f-491d-8870-ad8ff4e5685c" d="M370.94,267.03l-1.5,3.67c-3.25,7.96-11.1,13.07-19.69,12.81l-3.96-.12c-.96-.03-1.6-1-1.24-1.9l1.12-2.79c3.44-8.53,11.84-13.99,21.03-13.69l3,.1c.96,.03,1.59,1.01,1.23,1.9Z"/><g class="uuid-ffdda016-b92a-4730-93e0-abb9a52d0f62"><path class="uuid-f0d0e3b6-3d20-46b0-ae8f-9010c52c6f58" d="M346.92,253.33s6.3,12.7-3.6,23.28l-3.4-.72s-4.02-17.17,7-22.56Z"/></g><g class="uuid-ffdda016-b92a-4730-93e0-abb9a52d0f62"><path class="uuid-f0d0e3b6-3d20-46b0-ae8f-9010c52c6f58" d="M366.03,268.98s-4.3,13.51-18.76,14.25l-1.95-2.88s9.04-15.14,20.71-11.37Z"/></g><g class="uuid-ffdda016-b92a-4730-93e0-abb9a52d0f62"><path class="uuid-f0d0e3b6-3d20-46b0-ae8f-9010c52c6f58" d="M370.01,291.86s-12.4,6.87-23.42-2.53l.56-3.43s16.97-4.79,22.86,5.96Z"/></g><g class="uuid-ffdda016-b92a-4730-93e0-abb9a52d0f62"><path class="uuid-f0d0e3b6-3d20-46b0-ae8f-9010c52c6f58" d="M357.6,313.08s-13.59-4.03-14.61-18.48l2.84-2s15.32,8.74,11.77,20.48Z"/></g><g class="uuid-ffdda016-b92a-4730-93e0-abb9a52d0f62"><path class="uuid-f0d0e3b6-3d20-46b0-ae8f-9010c52c6f58" d="M332.8,316.72s-6.22-12.74,3.74-23.26l3.4,.74s3.91,17.2-7.13,22.52Z"/></g><g class="uuid-ffdda016-b92a-4730-93e0-abb9a52d0f62"><path class="uuid-f0d0e3b6-3d20-46b0-ae8f-9010c52c6f58" d="M312.25,302.28s5.15-13.21,19.62-13.03l1.76,2.99s-9.98,14.54-21.39,10.03Z"/></g><g class="uuid-ffdda016-b92a-4730-93e0-abb9a52d0f62"><path class="uuid-f0d0e3b6-3d20-46b0-ae8f-9010c52c6f58" d="M309.98,278.51s13.02-5.6,23.05,4.84l-.9,3.36s-17.36,3.09-22.15-8.2Z"/></g><g class="uuid-ffdda016-b92a-4730-93e0-abb9a52d0f62"><path class="uuid-f0d0e3b6-3d20-46b0-ae8f-9010c52c6f58" d="M322.43,260.17s13.45,4.48,13.99,18.95l-2.9,1.91s-15.02-9.25-11.08-20.86Z"/></g><path class="uuid-0b256091-6e2f-4b00-bded-821b946eb9c6" d="M337.38,296.34h0c-5.12-1.08-8.43-6.16-7.35-11.29l.34-1.62c1.08-5.12,6.16-8.43,11.29-7.35h0c5.12,1.08,8.43,6.16,7.35,11.29l-.34,1.62c-1.08,5.12-6.16,8.43-11.29,7.35Z"/></g><g><path class="uuid-371e77b1-a12f-491d-8870-ad8ff4e5685c" d="M117.96,263.27l-1.54-3.66c-3.34-7.93-1.4-17.09,4.86-22.99l2.89-2.72c.7-.66,1.84-.42,2.22,.46l1.18,2.77c3.6,8.46,1.52,18.27-5.2,24.55l-2.2,2.05c-.7,.66-1.84,.41-2.21-.47Z"/><path class="uuid-371e77b1-a12f-491d-8870-ad8ff4e5685c" d="M108.92,306.01l-1.54-3.65c-3.34-7.93-1.4-17.09,4.86-22.99l2.89-2.72c.7-.66,1.84-.42,2.22,.46l1.18,2.77c3.6,8.46,1.52,18.27-5.2,24.55l-2.2,2.05c-.7,.66-1.84,.41-2.21-.47Z"/><path class="uuid-371e77b1-a12f-491d-8870-ad8ff4e5685c" d="M110.63,269.73l-3.66,1.54c-7.93,3.34-17.09,1.4-22.99-4.86l-2.72-2.89c-.66-.7-.42-1.84,.46-2.22l2.77-1.18c8.46-3.6,18.27-1.52,24.55,5.2l2.05,2.2c.66,.7,.41,1.84-.47,2.21Z"/><path class="uuid-371e77b1-a12f-491d-8870-ad8ff4e5685c" d="M153.37,278.77l-3.65,1.54c-7.93,3.34-17.09,1.4-22.99-4.86l-2.72-2.89c-.66-.7-.42-1.84,.46-2.22l2.77-1.18c8.46-3.6,18.27-1.52,24.55,5.2l2.05,2.2c.66,.7,.41,1.84-.47,2.21Z"/><path class="uuid-371e77b1-a12f-491d-8870-ad8ff4e5685c" d="M112.96,264.98l-3.67-1.5c-7.96-3.25-13.07-11.1-12.81-19.69l.12-3.96c.03-.96,1-1.6,1.9-1.24l2.79,1.12c8.53,3.44,13.99,11.84,13.69,21.03l-.1,3c-.03,.96-1.01,1.59-1.9,1.23Z"/><path class="uuid-371e77b1-a12f-491d-8870-ad8ff4e5685c" d="M136.78,301.59l-3.67-1.5c-7.96-3.25-13.07-11.1-12.81-19.69l.12-3.96c.03-.96,1.01-1.6,1.9-1.24l2.79,1.12c8.53,3.44,13.99,11.84,13.69,21.03l-.1,3c-.03,.96-1.01,1.59-1.9,1.23Z"/><path class="uuid-371e77b1-a12f-491d-8870-ad8ff4e5685c" d="M112.34,274.73l-1.5,3.67c-3.25,7.96-11.1,13.07-19.69,12.81l-3.96-.12c-.96-.03-1.6-1.01-1.24-1.9l1.12-2.79c3.44-8.53,11.84-13.99,21.03-13.69l3,.1c.96,.03,1.59,1.01,1.23,1.9Z"/><path class="uuid-371e77b1-a12f-491d-8870-ad8ff4e5685c" d="M148.95,250.91l-1.5,3.67c-3.25,7.96-11.1,13.07-19.69,12.81l-3.96-.12c-.96-.03-1.6-1-1.24-1.9l1.12-2.79c3.44-8.53,11.84-13.99,21.03-13.69l3,.1c.96,.03,1.59,1.01,1.23,1.9Z"/><g class="uuid-ffdda016-b92a-4730-93e0-abb9a52d0f62"><path class="uuid-f0d0e3b6-3d20-46b0-ae8f-9010c52c6f58" d="M124.93,237.21s6.3,12.7-3.6,23.28l-3.4-.72s-4.02-17.17,7-22.56Z"/></g><g class="uuid-ffdda016-b92a-4730-93e0-abb9a52d0f62"><path class="uuid-f0d0e3b6-3d20-46b0-ae8f-9010c52c6f58" d="M144.04,252.86s-4.3,13.51-18.76,14.25l-1.95-2.88s9.04-15.14,20.71-11.37Z"/></g><g class="uuid-ffdda016-b92a-4730-93e0-abb9a52d0f62"><path class="uuid-f0d0e3b6-3d20-46b0-ae8f-9010c52c6f58" d="M148.03,275.74s-12.4,6.87-23.42-2.53l.56-3.43s16.97-4.79,22.86,5.96Z"/></g><g class="uuid-ffdda016-b92a-4730-93e0-abb9a52d0f62"><path class="uuid-f0d0e3b6-3d20-46b0-ae8f-9010c52c6f58" d="M135.62,296.96s-13.59-4.03-14.61-18.48l2.84-2s15.32,8.74,11.77,20.48Z"/></g><g class="uuid-ffdda016-b92a-4730-93e0-abb9a52d0f62"><path class="uuid-f0d0e3b6-3d20-46b0-ae8f-9010c52c6f58" d="M110.81,300.6s-6.22-12.74,3.74-23.26l3.4,.74s3.91,17.2-7.13,22.52Z"/></g><g class="uuid-ffdda016-b92a-4730-93e0-abb9a52d0f62"><path class="uuid-f0d0e3b6-3d20-46b0-ae8f-9010c52c6f58" d="M90.27,286.16s5.15-13.21,19.62-13.03l1.76,2.99s-9.98,14.54-21.39,10.03Z"/></g><g class="uuid-ffdda016-b92a-4730-93e0-abb9a52d0f62"><path class="uuid-f0d0e3b6-3d20-46b0-ae8f-9010c52c6f58" d="M88,262.39s13.02-5.6,23.05,4.84l-.9,3.36s-17.36,3.09-22.15-8.2Z"/></g><g class="uuid-ffdda016-b92a-4730-93e0-abb9a52d0f62"><path class="uuid-f0d0e3b6-3d20-46b0-ae8f-9010c52c6f58" d="M100.45,244.05s13.45,4.48,13.99,18.95l-2.9,1.91s-15.02-9.25-11.08-20.86Z"/></g><path class="uuid-0b256091-6e2f-4b00-bded-821b946eb9c6" d="M115.4,280.22h0c-5.12-1.08-8.43-6.16-7.35-11.29l.34-1.62c1.08-5.12,6.16-8.43,11.29-7.35h0c5.12,1.08,8.43,6.16,7.34,11.29l-.34,1.62c-1.08,5.12-6.16,8.43-11.29,7.35Z"/></g><g><path class="uuid-371e77b1-a12f-491d-8870-ad8ff4e5685c" d="M376.47,242.75l1.2-2.08c2.59-4.5,2.12-10.14-1.19-14.14l-1.53-1.85c-.37-.45-1.07-.39-1.36,.11l-.91,1.57c-2.79,4.8-2.28,10.84,1.28,15.1l1.16,1.39c.37,.45,1.07,.38,1.36-.12Z"/><path class="uuid-371e77b1-a12f-491d-8870-ad8ff4e5685c" d="M378.69,269.04l1.2-2.08c2.59-4.5,2.12-10.14-1.19-14.14l-1.53-1.85c-.37-.45-1.07-.39-1.36,.11l-.91,1.57c-2.79,4.8-2.28,10.84,1.28,15.1l1.16,1.39c.37,.45,1.07,.39,1.36-.12Z"/><path class="uuid-371e77b1-a12f-491d-8870-ad8ff4e5685c" d="M380.38,247.17l2.08,1.2c4.5,2.59,10.14,2.12,14.14-1.19l1.85-1.53c.45-.37,.39-1.07-.11-1.36l-1.57-.91c-4.8-2.79-10.84-2.28-15.1,1.28l-1.39,1.16c-.45,.37-.38,1.07,.12,1.36Z"/><path class="uuid-371e77b1-a12f-491d-8870-ad8ff4e5685c" d="M354.09,249.39l2.08,1.2c4.5,2.59,10.14,2.12,14.14-1.19l1.85-1.53c.45-.37,.39-1.07-.11-1.36l-1.57-.91c-4.8-2.79-10.84-2.28-15.1,1.28l-1.39,1.16c-.45,.37-.38,1.07,.12,1.36Z"/><path class="uuid-371e77b1-a12f-491d-8870-ad8ff4e5685c" d="M379.34,244.15l2.31-.62c5.02-1.35,8.67-5.67,9.16-10.84l.23-2.38c.05-.58-.48-1.03-1.04-.88l-1.75,.47c-5.37,1.42-9.27,6.05-9.78,11.58l-.16,1.81c-.05,.58,.49,1.03,1.05,.88Z"/><path class="uuid-371e77b1-a12f-491d-8870-ad8ff4e5685c" d="M362.32,264.31l2.31-.62c5.02-1.35,8.67-5.67,9.16-10.84l.23-2.38c.05-.58-.48-1.03-1.04-.88l-1.75,.47c-5.37,1.42-9.27,6.05-9.78,11.58l-.16,1.81c-.05,.58,.49,1.03,1.05,.88Z"/><path class="uuid-371e77b1-a12f-491d-8870-ad8ff4e5685c" d="M378.98,250.04l.62,2.31c1.35,5.02,5.67,8.67,10.84,9.16l2.38,.23c.58,.05,1.03-.48,.88-1.04l-.47-1.75c-1.42-5.37-6.05-9.27-11.58-9.78l-1.81-.16c-.58-.05-1.03,.49-.88,1.05Z"/><path class="uuid-371e77b1-a12f-491d-8870-ad8ff4e5685c" d="M358.82,233.02l.62,2.31c1.35,5.02,5.67,8.67,10.84,9.16l2.38,.23c.58,.05,1.03-.48,.88-1.04l-.47-1.75c-1.42-5.37-6.05-9.27-11.58-9.78l-1.81-.16c-.58-.05-1.03,.49-.88,1.05Z"/><g class="uuid-ffdda016-b92a-4730-93e0-abb9a52d0f62"><path class="uuid-f0d0e3b6-3d20-46b0-ae8f-9010c52c6f58" d="M374.24,226.61s-4.72,7.14,.41,14.22l2.09-.17s3.69-9.99-2.5-14.05Z"/></g><g class="uuid-ffdda016-b92a-4730-93e0-abb9a52d0f62"><path class="uuid-f0d0e3b6-3d20-46b0-ae8f-9010c52c6f58" d="M361.61,234.56s1.56,8.42,10.18,9.94l1.38-1.58s-4.28-9.75-11.56-8.37Z"/></g><g class="uuid-ffdda016-b92a-4730-93e0-abb9a52d0f62"><path class="uuid-f0d0e3b6-3d20-46b0-ae8f-9010c52c6f58" d="M357.51,247.98s6.92,5.04,14.23,.23l-.08-2.1s-9.81-4.14-14.15,1.86Z"/></g><g class="uuid-ffdda016-b92a-4730-93e0-abb9a52d0f62"><path class="uuid-f0d0e3b6-3d20-46b0-ae8f-9010c52c6f58" d="M363.36,261.62s8.45-1.4,10.14-9.98l-1.55-1.41s-9.83,4.09-8.59,11.4Z"/></g><g class="uuid-ffdda016-b92a-4730-93e0-abb9a52d0f62"><path class="uuid-f0d0e3b6-3d20-46b0-ae8f-9010c52c6f58" d="M377.96,265.66s4.68-7.17-.5-14.22l-2.09,.19s-3.63,10.01,2.59,14.03Z"/></g><g class="uuid-ffdda016-b92a-4730-93e0-abb9a52d0f62"><path class="uuid-f0d0e3b6-3d20-46b0-ae8f-9010c52c6f58" d="M391.35,258.54s-2.1-8.3-10.79-9.28l-1.28,1.66s4.9,9.46,12.07,7.61Z"/></g><g class="uuid-ffdda016-b92a-4730-93e0-abb9a52d0f62"><path class="uuid-f0d0e3b6-3d20-46b0-ae8f-9010c52c6f58" d="M394.49,244.46s-7.39-4.33-14.18,1.18l.29,2.08s10.18,3.15,13.89-3.26Z"/></g><g class="uuid-ffdda016-b92a-4730-93e0-abb9a52d0f62"><path class="uuid-f0d0e3b6-3d20-46b0-ae8f-9010c52c6f58" d="M388.4,232.54s-8.4,1.68-9.8,10.31l1.6,1.36s9.69-4.42,8.21-11.67Z"/></g><path class="uuid-0b256091-6e2f-4b00-bded-821b946eb9c6" d="M376.74,253.1h0c3.15-.27,5.51-3.06,5.25-6.22l-.08-1c-.27-3.15-3.06-5.51-6.22-5.25h0c-3.15,.27-5.51,3.06-5.25,6.22l.08,1c.27,3.15,3.06,5.51,6.22,5.25Z"/></g><g><path class="uuid-371e77b1-a12f-491d-8870-ad8ff4e5685c" d="M219.66,194.72l3.13-2.23c6.78-4.83,9.84-13.36,7.69-21.39l-.99-3.71c-.24-.9-1.3-1.28-2.06-.74l-2.37,1.68c-7.26,5.14-10.54,14.26-8.21,22.85l.76,2.81c.24,.9,1.31,1.28,2.06,.74Z"/><path class="uuid-371e77b1-a12f-491d-8870-ad8ff4e5685c" d="M205.37,234.49l3.13-2.23c6.78-4.83,9.84-13.36,7.69-21.4l-.99-3.71c-.24-.9-1.3-1.28-2.06-.74l-2.37,1.68c-7.26,5.14-10.54,14.26-8.21,22.85l.76,2.81c.24,.9,1.31,1.28,2.06,.74Z"/><path class="uuid-371e77b1-a12f-491d-8870-ad8ff4e5685c" d="M222.41,203.76l2.23,3.13c4.83,6.78,13.36,9.84,21.4,7.69l3.71-.99c.9-.24,1.28-1.3,.74-2.06l-1.68-2.37c-5.14-7.26-14.26-10.54-22.85-8.21l-2.81,.76c-.9,.24-1.28,1.31-.74,2.06Z"/><path class="uuid-371e77b1-a12f-491d-8870-ad8ff4e5685c" d="M182.63,189.47l2.23,3.13c4.83,6.78,13.36,9.84,21.39,7.69l3.71-.99c.9-.24,1.28-1.3,.74-2.06l-1.68-2.37c-5.14-7.26-14.26-10.54-22.85-8.21l-2.81,.76c-.9,.24-1.28,1.31-.74,2.06Z"/><path class="uuid-371e77b1-a12f-491d-8870-ad8ff4e5685c" d="M222.91,198.67l3.78,.64c8.21,1.38,16.4-2.49,20.56-9.69l1.92-3.32c.46-.8-.01-1.83-.93-1.98l-2.87-.49c-8.77-1.5-17.54,2.63-21.96,10.35l-1.44,2.52c-.46,.81,.02,1.83,.94,1.98Z"/><path class="uuid-371e77b1-a12f-491d-8870-ad8ff4e5685c" d="M184.67,216.69l3.78,.64c8.21,1.38,16.41-2.49,20.56-9.69l1.92-3.32c.46-.8-.01-1.83-.93-1.98l-2.87-.49c-8.77-1.5-17.54,2.63-21.96,10.35l-1.45,2.52c-.46,.81,.02,1.83,.94,1.98Z"/><path class="uuid-371e77b1-a12f-491d-8870-ad8ff4e5685c" d="M218.46,207.01l-.64,3.78c-1.38,8.21,2.49,16.4,9.69,20.56l3.32,1.92c.8,.46,1.83-.01,1.98-.93l.49-2.87c1.5-8.77-2.63-17.54-10.35-21.96l-2.52-1.45c-.81-.46-1.83,.02-1.98,.94Z"/><path class="uuid-371e77b1-a12f-491d-8870-ad8ff4e5685c" d="M200.44,168.78l-.64,3.78c-1.38,8.21,2.49,16.4,9.69,20.56l3.32,1.92c.8,.46,1.83-.01,1.98-.93l.49-2.87c1.5-8.77-2.63-17.54-10.35-21.96l-2.52-1.45c-.81-.46-1.83,.02-1.98,.94Z"/><g class="uuid-ffdda016-b92a-4730-93e0-abb9a52d0f62"><path class="uuid-f0d0e3b6-3d20-46b0-ae8f-9010c52c6f58" d="M227.18,169.72s-11.64,7.26-8.88,20.99l3.16,1.14s12.04-12.09,5.72-22.13Z"/></g><g class="uuid-ffdda016-b92a-4730-93e0-abb9a52d0f62"><path class="uuid-f0d0e3b6-3d20-46b0-ae8f-9010c52c6f58" d="M203.49,172.88s-3.34,13.31,8.19,21.27l3.07-1.38s.26-17.06-11.26-19.89Z"/></g><g class="uuid-ffdda016-b92a-4730-93e0-abb9a52d0f62"><path class="uuid-f0d0e3b6-3d20-46b0-ae8f-9010c52c6f58" d="M188.56,189.69s6.72,11.96,20.56,9.82l1.28-3.11s-11.53-12.58-21.85-6.72Z"/></g><g class="uuid-ffdda016-b92a-4730-93e0-abb9a52d0f62"><path class="uuid-f0d0e3b6-3d20-46b0-ae8f-9010c52c6f58" d="M187.99,213.47s13.24,3.59,21.42-7.78l-1.32-3.09s-17.05-.59-20.11,10.87Z"/></g><g class="uuid-ffdda016-b92a-4730-93e0-abb9a52d0f62"><path class="uuid-f0d0e3b6-3d20-46b0-ae8f-9010c52c6f58" d="M206.56,229.08s11.6-7.32,8.75-21.04l-3.17-1.12s-11.97,12.16-5.58,22.16Z"/></g><g class="uuid-ffdda016-b92a-4730-93e0-abb9a52d0f62"><path class="uuid-f0d0e3b6-3d20-46b0-ae8f-9010c52c6f58" d="M230.81,227.64s2.48-13.49-9.53-20.7l-2.97,1.57s.82,17.04,12.5,19.14Z"/></g><g class="uuid-ffdda016-b92a-4730-93e0-abb9a52d0f62"><path class="uuid-f0d0e3b6-3d20-46b0-ae8f-9010c52c6f58" d="M244.77,209.23s-7.87-11.24-21.44-7.74l-.97,3.22s12.72,11.37,22.41,4.52Z"/></g><g class="uuid-ffdda016-b92a-4730-93e0-abb9a52d0f62"><path class="uuid-f0d0e3b6-3d20-46b0-ae8f-9010c52c6f58" d="M243.85,187.8s-13.35-3.15-21.15,8.48l1.42,3.05s17.06,.03,19.73-11.53Z"/></g><path class="uuid-0b256091-6e2f-4b00-bded-821b946eb9c6" d="M213.15,209.97h0c4.77,1.71,10.07-.79,11.79-5.56l.54-1.51c1.71-4.77-.79-10.07-5.56-11.79h0c-4.77-1.71-10.07,.79-11.79,5.56l-.54,1.51c-1.71,4.77,.79,10.07,5.56,11.79Z"/></g></g></g></g></g></svg>