<?xml version="1.0" encoding="UTF-8"?><svg id="uuid-7746b35a-1099-4180-ac8c-885faa76f96c" xmlns="http://www.w3.org/2000/svg" viewBox="0 0 512 512"><defs><style>.uuid-5e12472c-5e7e-4ef6-8355-a9c9c6cfe625{fill:#23a6ff;}.uuid-e2738afd-41be-4982-87a6-5c6837e0c7d0{fill:#1398e2;}.uuid-6c2d93cf-2e46-4d97-bc2c-00870b14f286{fill:#047cbf;}.uuid-4df299c5-c519-4003-905c-c75d623dbf16{fill:#a30000;}.uuid-68a10265-7c54-4864-a8a2-248946f9ce78{fill:#4b9ebf;}.uuid-360805dd-bcf3-4e11-8e47-55ca14b24f0c{fill:#ef1600;}.uuid-1c6fd2db-4d14-4bf5-ac0d-b1ae1cfd055c{fill:#5bbdef;}.uuid-57c59883-83be-4bb7-91cc-435f381c9897{fill:#fff;opacity:.36;}.uuid-bd4f18d0-12a7-4cdf-868b-7aa507a3ff42{fill:#e50000;}.uuid-612fb72f-aad5-44e5-bf27-2ea8d3ffe628{fill:#046da8;}.uuid-72c8cec2-3ed4-4d24-936b-5bea95c77e11{fill:#ff3a1a;}</style></defs><polygon class="uuid-5e12472c-5e7e-4ef6-8355-a9c9c6cfe625" points="90.31 178.99 90.31 374.54 254.33 432.48 254.33 227.27 90.31 178.99"/><polygon class="uuid-6c2d93cf-2e46-4d97-bc2c-00870b14f286" points="254.33 227.27 422.12 181.4 422.12 374.54 254.33 432.48 254.33 227.27"/><polygon class="uuid-e2738afd-41be-4982-87a6-5c6837e0c7d0" points="83.66 177.61 254.33 227.27 254.33 164.26 83.66 117.93 83.66 177.61"/><path class="uuid-6c2d93cf-2e46-4d97-bc2c-00870b14f286" d="M254.33,164.26c1.86-.54,174.01-43.25,174.01-43.25v60.39l-174.01,45.87v-63.01Z"/><polygon class="uuid-5e12472c-5e7e-4ef6-8355-a9c9c6cfe625" points="83.66 117.93 254.33 82.7 428.34 121.01 254.33 164.26 83.66 117.93"/><path class="uuid-612fb72f-aad5-44e5-bf27-2ea8d3ffe628" d="M422.12,183.04l-167.79,44.23v13.9s103.41-27.85,132.23-29.89c28.82-2.03,35.56,1.96,35.56,1.96v-30.2Z"/><polygon class="uuid-612fb72f-aad5-44e5-bf27-2ea8d3ffe628" points="90.31 178.99 254.33 227.27 254.33 241.18 90.31 183.04 90.31 178.99"/><polygon class="uuid-360805dd-bcf3-4e11-8e47-55ca14b24f0c" points="168.99 141.09 353.72 104.58 318.37 96.8 140.54 133.37 168.99 141.09"/><polygon class="uuid-360805dd-bcf3-4e11-8e47-55ca14b24f0c" points="331.61 145.05 172.32 99.63 201.44 93.62 362.04 136.61 331.61 145.05"/><polygon class="uuid-72c8cec2-3ed4-4d24-936b-5bea95c77e11" points="140.54 133.37 136.9 391 177.31 405.28 168.99 141.09 140.54 133.37"/><polygon class="uuid-72c8cec2-3ed4-4d24-936b-5bea95c77e11" points="331.61 145.05 333.11 405.28 371.74 391.94 362.04 136.61 331.61 145.05"/><path class="uuid-72c8cec2-3ed4-4d24-936b-5bea95c77e11" d="M210.81,147.52c3.74-3.11,7.53-6.26,11.92-8.33-.18,4.68,.07,9.38,.74,14.01,5.29-9.68,15.63-15.3,23.44-23.08,1.12-1.12,2.26-2.43,2.34-4.01,.08-1.55-.92-3.02-2.23-3.85-1.31-.83-2.89-1.14-4.44-1.29-6.13-.61-12.9,.93-17.96,4.54-1.81,1.29-2.9,3.19-4.36,4.83-2.08,2.33-3.98,4.75-5.53,7.47-1.74,3.04-3.07,6.31-3.92,9.71Z"/><path class="uuid-72c8cec2-3ed4-4d24-936b-5bea95c77e11" d="M260.3,139.86c-1.62,5.19-4.6,9.83-7.65,14.33,2.47-.7,4.83-1.72,7.18-2.75,3.96-1.73,7.92-3.45,11.89-5.18,.3,3.61-.02,7.27-.95,10.77,6.61-5.56,11.95-12.62,15.5-20.5,.6-1.34,1.16-2.73,1.19-4.2,.03-1.37-.42-2.71-1.03-3.94-1.81-3.65-5.07-6.48-8.81-8.07-3.74-1.59-7.94-1.99-11.97-1.46-1.71,.22-3.64,.72-4.91,1.96-1.78,1.74-1.12,3.1-.38,5.11,1.64,4.46,1.34,9.45-.06,13.93Z"/><path class="uuid-4df299c5-c519-4003-905c-c75d623dbf16" d="M190.95,134.71c2.36,.39,8.66,.48,10.98-.12,14.46-3.76,24.71-4.88,40.29-7.95,2.4-.47,4.88-.53,7.23-1.19,1-.28,2.16-.85,2.24-1.89,.04-.52-.22-1.02-.55-1.42-1.12-1.39-2.95-1.95-4.69-2.36-10.07-2.36-20.56-1.89-30.9-2.31-5.51-.22-11.06-.7-16.51,.15-5.14,.8-10.54,2.99-13.91,7.12-3.05,3.74,1.84,9.32,5.82,9.98Z"/><path class="uuid-bd4f18d0-12a7-4cdf-868b-7aa507a3ff42" d="M254.6,110.84c-3.23-5-8.39-8.37-13.52-11.39-8.45-4.98-17.23-9.41-26.26-13.26-5.24-2.23-10.8-4.3-16.47-3.8-3.96,.35-8.17,2.38-9.44,6.15-1.42,4.2,1.29,8.66,4.36,11.87,9.6,10.07,23.49,15.09,37.28,16.91,5.96,.79,11.99,1.04,17.99,.75,1.76-.08,5.13,.29,6.57-1.01,1.8-1.63,.55-4.59-.52-6.23Z"/><path class="uuid-72c8cec2-3ed4-4d24-936b-5bea95c77e11" d="M229.44,107.95c-17.42-4.6-43.61-14.11-38.32-22.67-8.82,6.73-14.66,18.18-13.71,29.23,.39,4.59,1.96,9.4,5.64,12.17,1.64,1.23,3.58,1.99,5.56,2.53,6.8,1.88,14,1.44,21.01,.69,15.37-1.64,30.55-4.66,45.7-7.68,.31-1.81,3.02-7.61,.98-7.6-2.73,0-5.35-.67-7.26-1.15-5.99-1.5-13.64-3.95-19.61-5.52Z"/><path class="uuid-4df299c5-c519-4003-905c-c75d623dbf16" d="M257.86,124.01c.83,.54,22.89,6.53,22.89,6.53,0,0,9.09,2.21,21.02,1.2,11.93-1.01,27.15-4,27.15-4,0,0-11.02-3.79-11.52-4.26-.5-.47-59.29-5.55-59.29-5.55l-.24,6.09Z"/><path class="uuid-bd4f18d0-12a7-4cdf-868b-7aa507a3ff42" d="M253.82,112.69c2.84-5.23,7.73-8.99,12.6-12.4,8.05-5.62,16.46-10.71,25.16-15.23,5.05-2.63,10.43-5.11,16.12-5.05,3.97,.04,8.32,1.74,9.89,5.4,1.74,4.08-.62,8.74-3.43,12.17-8.8,10.78-22.26,16.85-35.88,19.72-5.88,1.24-11.87,1.96-17.88,2.13-1.76,.05-5.09,.69-6.63-.5-1.92-1.48-.9-4.53,.04-6.25Z"/><path class="uuid-72c8cec2-3ed4-4d24-936b-5bea95c77e11" d="M279.23,107.87c17.01-5.92,41.59-17.61,35.66-25.73,9.31,6.03,16.82,17.18,16.73,28.27-.04,4.61-1.23,9.52-4.69,12.57-1.54,1.36-3.42,2.26-5.35,2.95-6.63,2.39-13.85,2.51-20.9,2.3-15.45-.45-30.82-2.3-46.16-4.15-.45-1.78-3.6-7.35-1.56-7.51,2.72-.2,5.28-1.08,7.15-1.7,5.86-1.95,13.3-4.98,19.12-7.01Z"/><path class="uuid-1c6fd2db-4d14-4bf5-ac0d-b1ae1cfd055c" d="M254.51,106.95c-1.4-.29-2.86,.04-4.22,.48-1.8,.59-3.65,1.48-4.62,3.11-.77,1.31-.86,2.89-.87,4.41-.01,1.34,.02,2.68,.09,4.02,.06,1.04,.15,2.12,.63,3.05,1.09,2.1,3.76,2.76,6.12,3.01,3.22,.35,6.48,.37,9.71,.06,1.37-.13,2.83-.36,3.86-1.27,1.24-1.1,1.54-2.91,1.61-4.57,.14-3.69-.52-7.42-1.93-10.84-.24-.59-.51-1.17-.93-1.65-.87-.99-2.26-1.35-3.57-1.49-3.14-.34-6.38,.28-9.17,1.76l3.28-.09Z"/><path class="uuid-68a10265-7c54-4864-a8a2-248946f9ce78" d="M265.23,108.57c-.24-.59-.51-1.17-.93-1.65-.65-.74-1.59-1.12-2.56-1.33,1.08,3.07,1.58,6.35,1.46,9.61-.06,1.66-.37,3.47-1.61,4.57-1.03,.92-2.49,1.14-3.86,1.27-3.23,.3-6.48,.28-9.71-.06-.88-.09-1.79-.24-2.66-.5,.09,.59,.23,1.17,.51,1.7,1.09,2.1,3.76,2.76,6.12,3.01,3.22,.35,6.48,.37,9.71,.06,1.37-.13,2.83-.36,3.86-1.27,1.24-1.1,1.54-2.91,1.61-4.57,.14-3.69-.52-7.42-1.93-10.84Z"/><path class="uuid-57c59883-83be-4bb7-91cc-435f381c9897" d="M247.49,112.51c-.32,1.52-.03,3.38,1.31,4.16,.48,.28,1.12,.38,1.59,.09,.81-.5,.66-1.69,.85-2.62,.23-1.13,1.13-2.1,2.24-2.4,.82-.22,1.69-.11,2.51-.28,1.34-.28,2.09-1.5,1.11-2.59-.66-.73-2.95-.87-3.92-.87-2.77,0-5.13,1.78-5.71,4.52Z"/><path class="uuid-57c59883-83be-4bb7-91cc-435f381c9897" d="M182.51,101.52c-2.04,5.22-4.12,10.82-2.91,16.29,.17,.75,.88,1.69,1.5,1.23,.16-.12,.25-.31,.33-.49,.46-1.15,.39-2.43,.56-3.66,.17-1.23,.7-2.55,1.84-3.03,1.38-.58,2.88,.3,4.25,.9,1.32,.58,2.75,.92,4.19,.99,1.34,.06,3.01-.37,3.3-1.68,.22-1-.51-1.96-1.33-2.56-.82-.6-1.8-1.02-2.46-1.8-.66-.78-.84-2.12-.02-2.73,.61-.45,1.46-.3,2.19-.11,4.7,1.25,9.13,3.53,13.94,4.24,.7,.1,1.43,.17,2.1-.07,.66-.24,1.24-.87,1.19-1.57-.04-.69-.63-1.22-1.21-1.6-1.92-1.28-4.19-1.91-6.36-2.69-4-1.43-7.8-3.4-11.27-5.83-1.38-.97-2.83-2.22-2.96-3.9-.08-1.04,.35-3.33-1.43-3.09-.97,.13-1.31,1.52-1.63,2.22-1.33,2.95-2.62,5.93-3.81,8.95Z"/><path class="uuid-57c59883-83be-4bb7-91cc-435f381c9897" d="M313.85,92.85c.78-.75,1.56-1.54,2.55-2.01,.98-.46,2.23-.53,3.1,.12,.88,.67,1.14,1.86,1.65,2.84,.64,1.21,1.72,2.13,2.67,3.13,2.24,2.38,3.78,5.4,4.39,8.61,.09,.49,.14,1.06-.2,1.43-.51,.53-1.44,.17-1.91-.39-.99-1.18-1.4-3.25-2.94-3.33-1.02-.05-1.77,.88-2.54,1.56-.77,.67-2.17,1.02-2.65,.12-.16-.29-.16-.64-.1-.96,.18-.99,.86-1.82,1.16-2.79,.29-.97-.08-2.31-1.09-2.4-.42-.04-.81,.16-1.18,.36-1.62,.89-3.1,2.01-4.63,3.05-7.62,5.15-16.63,8.2-25.81,8.74-.93,.06-2.2-.2-2.22-1.14-.02-.79,.94-1.21,1.73-1.29,4.99-.5,10.29-3.31,14.61-5.72,4.88-2.71,9.4-6.05,13.41-9.92Z"/></svg>