<?xml version="1.0" encoding="UTF-8"?><svg xmlns="http://www.w3.org/2000/svg" xmlns:xlink="http://www.w3.org/1999/xlink" viewBox="0 0 512 512"><defs><style>.uuid-de944532-76d2-46a0-9c2c-8859deb66c2b,.uuid-b630c755-5395-42c7-b14f-d58c925bf1b8{fill:#23a6ff;}.uuid-4db06c02-82ca-4b13-9f5d-aef88a1ad9ff{fill:#2360ff;}.uuid-2ba796d8-3b28-4e59-a5a5-a8af7307a5a3{fill:#40628f;}.uuid-27b8f622-8c6f-44da-8212-173381abd6f0{fill:#3c464f;}.uuid-626f4e07-2f1a-421a-9ee6-f08cd0e84c49,.uuid-335ceef0-f206-4c90-ae1a-5a4de430d079{fill:#fff;}.uuid-93721c08-2ed9-4161-8628-1c553a1c1b8f{fill:#ff7657;}.uuid-a301ef0a-6719-4d36-af37-083da5c7f5ba{fill:#005889;}.uuid-d506b446-c1d0-4c3a-a016-015edf8762f2{isolation:isolate;}.uuid-44026250-97a7-4dd1-90fb-8e183b7186b6{fill:#067bbc;}.uuid-f469f0a8-6a06-4817-a8b7-389d90ac398f{fill:#345480;}.uuid-b630c755-5395-42c7-b14f-d58c925bf1b8{stroke:#23a6ff;stroke-miterlimit:10;}.uuid-097d62f0-b566-4dc8-a831-8288569a3b32{fill:#2a3942;}.uuid-3a5615a1-2f86-4beb-adc8-3c0b63aaf3de{fill:#ffb980;}.uuid-280832fd-e2a1-47c0-b83b-7ac3e473407d{fill:#a8652d;}.uuid-c822e5c5-9cfc-43e8-a4a9-a40d390fc247{fill:#0e84c6;}.uuid-693f42fd-99ea-4df6-8e65-c8c38864bf2b{fill:#d49f55;}.uuid-4e690f62-1f61-4671-8576-0e68ee8f16b6{fill:#4a6570;}.uuid-869fa65f-4a10-4b82-9a76-9caa074fd937{fill:#0091e2;}.uuid-4bcbfe99-ba31-4a03-b51f-af1610d2d21a{fill:#729cad;}.uuid-c0d21008-4a1a-4535-b045-f089ffe3e4d3{fill:#232755;}.uuid-8557e3f3-f8e2-4df4-8ff6-74d0afda4357{fill:#fff200;}.uuid-8557e3f3-f8e2-4df4-8ff6-74d0afda4357,.uuid-335ceef0-f206-4c90-ae1a-5a4de430d079,.uuid-c57ed5d4-3e36-4640-b3e5-e3c1363cf699,.uuid-9fb2a814-4f1f-4c7f-888a-9ca6da8b0972{mix-blend-mode:overlay;opacity:.52;}.uuid-23418459-5156-410c-8ab9-650f33ee41b0{fill:#48b59d;}.uuid-00424937-5316-464e-a66a-28a63a6bd5b5{fill:#8ba7ba;}.uuid-4fb63fb6-8a3c-49b8-9fda-04195e914122{fill:#398f7c;}.uuid-f9736432-9ef6-4144-b7fe-52dc6cc7c522{fill:none;}.uuid-b1493223-bc8c-4603-80f0-d69e6e660d9a{fill:#294873;}.uuid-e868db71-a4ae-41a4-a8ea-30090eef0eb7{fill:#f0cd9c;}.uuid-2399bc4c-79d7-4594-8406-32c9d9b0a482{fill:#d1773b;}.uuid-2ec5d412-4b68-4ca4-99d3-2bcaacf43d06{fill:#d64238;}.uuid-742e2351-7953-4b1f-b67c-dba5a1e5bc5f{fill:#516a7d;}.uuid-35ac932d-9c00-452c-9c75-2d8f9b4c8f68{fill:#0f9cea;}.uuid-5d7a2ec0-8284-45ac-a755-e7a5c377a896{fill:#76b9cf;}.uuid-ab6c9757-0b5d-478e-b424-2b10e4e00673{clip-path:url(#uuid-435805e8-6be6-45c7-9b01-0117ec0405d5);}.uuid-3564e76d-6e9f-4efe-ae85-dc97cd2da2d3{fill:#96431f;}.uuid-415a5f45-6474-40a7-9d09-d14a418840ac{fill:#9dbdcf;}.uuid-ff1fede7-0472-484f-9073-e8a55e2b86c2{fill:#4d3426;}.uuid-a79cfe7e-37f2-49f7-a7c6-d247a3237ccf{fill:#8dd6ff;}.uuid-65e27476-a4fe-4ea1-8229-24f2de1e21b6{fill:#59889c;}.uuid-a7997ee1-c66d-4c5e-8290-dc43a78fde11{fill:#3d535c;}.uuid-9fb2a814-4f1f-4c7f-888a-9ca6da8b0972{fill:#fffffd;}.uuid-13ebd0a5-ed21-40cc-bc44-88db4a2d28bb{fill:#effffb;}</style><clipPath id="uuid-435805e8-6be6-45c7-9b01-0117ec0405d5"><path class="uuid-f9736432-9ef6-4144-b7fe-52dc6cc7c522" d="M227.07,411.82c-1.25,1.17-2.95,1.81-4.79,1.81l-78.17,2.77c-3.36,0-6.2-2.26-6.48-5.14l-4.36-45.12c18.71-26.63,58.22-81.79,80.32-112.6l15.18,154.02c.15,1.58-.45,3.09-1.7,4.25Z"/></clipPath></defs><g class="uuid-d506b446-c1d0-4c3a-a016-015edf8762f2"><g id="uuid-9bf1d6b0-fefb-4372-a1b1-a0bdf79fcd7b"><g><g><circle class="uuid-5d7a2ec0-8284-45ac-a755-e7a5c377a896" cx="374.59" cy="110.73" r="16.82" transform="translate(203.18 461.72) rotate(-80.44)"/><g><rect class="uuid-5d7a2ec0-8284-45ac-a755-e7a5c377a896" x="374.13" y="83.69" width=".91" height="27.04"/><path class="uuid-5d7a2ec0-8284-45ac-a755-e7a5c377a896" d="M378.28,83.69c0,2.04-1.65,3.69-3.69,3.69s-3.69-1.65-3.69-3.69,1.65-3.69,3.69-3.69,3.69,1.65,3.69,3.69Z"/></g><g><rect class="uuid-5d7a2ec0-8284-45ac-a755-e7a5c377a896" x="367.37" y="85.51" width=".91" height="27.04" transform="translate(-.23 197.18) rotate(-30)"/><path class="uuid-5d7a2ec0-8284-45ac-a755-e7a5c377a896" d="M364.27,85.47c1.02,1.77,.41,4.03-1.35,5.05-1.77,1.02-4.03,.41-5.05-1.35-1.02-1.77-.41-4.03,1.35-5.05,1.77-1.02,4.03-.41,5.05,1.35Z"/></g><g><rect class="uuid-5d7a2ec0-8284-45ac-a755-e7a5c377a896" x="362.42" y="90.45" width=".91" height="27.04" transform="translate(91.4 366.25) rotate(-60)"/><path class="uuid-5d7a2ec0-8284-45ac-a755-e7a5c377a896" d="M353.02,94.01c1.77,1.02,2.37,3.28,1.35,5.05-1.02,1.77-3.28,2.37-5.05,1.35-1.77-1.02-2.37-3.28-1.35-5.05,1.02-1.77,3.28-2.37,5.05-1.35Z"/></g><g><rect class="uuid-5d7a2ec0-8284-45ac-a755-e7a5c377a896" x="347.55" y="110.28" width="27.04" height=".91"/><circle class="uuid-5d7a2ec0-8284-45ac-a755-e7a5c377a896" cx="347.55" cy="110.73" r="3.69"/></g><g><rect class="uuid-5d7a2ec0-8284-45ac-a755-e7a5c377a896" x="349.36" y="117.04" width="27.04" height=".91" transform="translate(-10.14 197.14) rotate(-29.99)"/><path class="uuid-5d7a2ec0-8284-45ac-a755-e7a5c377a896" d="M349.32,121.05c1.77-1.02,4.03-.41,5.05,1.35,1.02,1.77,.41,4.03-1.35,5.05-1.77,1.02-4.03,.41-5.05-1.35-1.02-1.77-.41-4.03,1.35-5.05Z"/></g><g><rect class="uuid-5d7a2ec0-8284-45ac-a755-e7a5c377a896" x="354.31" y="121.99" width="27.04" height=".91" transform="translate(77.88 379.77) rotate(-60)"/><path class="uuid-5d7a2ec0-8284-45ac-a755-e7a5c377a896" d="M357.87,132.3c1.02-1.77,3.28-2.37,5.05-1.35,1.77,1.02,2.37,3.28,1.35,5.05-1.02,1.77-3.28,2.37-5.05,1.35-1.77-1.02-2.37-3.28-1.35-5.05Z"/></g><g><rect class="uuid-5d7a2ec0-8284-45ac-a755-e7a5c377a896" x="374.13" y="110.73" width=".91" height="27.04"/><circle class="uuid-5d7a2ec0-8284-45ac-a755-e7a5c377a896" cx="374.59" cy="137.77" r="3.69"/></g><g><rect class="uuid-5d7a2ec0-8284-45ac-a755-e7a5c377a896" x="380.89" y="108.92" width=".91" height="27.04" transform="translate(-10.13 207.08) rotate(-30)"/><path class="uuid-5d7a2ec0-8284-45ac-a755-e7a5c377a896" d="M384.9,135.99c-1.02-1.77-.41-4.03,1.35-5.05,1.77-1.02,4.03-.41,5.05,1.35,1.02,1.77,.41,4.03-1.35,5.05-1.77,1.02-4.03,.41-5.05-1.35Z"/></g><g><rect class="uuid-5d7a2ec0-8284-45ac-a755-e7a5c377a896" x="385.84" y="103.97" width=".91" height="27.04" transform="translate(91.39 393.28) rotate(-60)"/><path class="uuid-5d7a2ec0-8284-45ac-a755-e7a5c377a896" d="M396.15,127.45c-1.77-1.02-2.37-3.28-1.35-5.05,1.02-1.77,3.28-2.37,5.05-1.35,1.77,1.02,2.37,3.28,1.35,5.05-1.02,1.77-3.28,2.37-5.05,1.35Z"/></g><g><rect class="uuid-5d7a2ec0-8284-45ac-a755-e7a5c377a896" x="374.59" y="110.28" width="27.04" height=".91"/><path class="uuid-5d7a2ec0-8284-45ac-a755-e7a5c377a896" d="M401.62,114.43c-2.04,0-3.69-1.65-3.69-3.69s1.65-3.69,3.69-3.69,3.69,1.65,3.69,3.69-1.65,3.69-3.69,3.69Z"/></g><g><rect class="uuid-5d7a2ec0-8284-45ac-a755-e7a5c377a896" x="372.77" y="103.52" width="27.04" height=".91" transform="translate(-.23 207.07) rotate(-30)"/><path class="uuid-5d7a2ec0-8284-45ac-a755-e7a5c377a896" d="M399.85,100.41c-1.77,1.02-4.03,.41-5.05-1.35-1.02-1.77-.41-4.03,1.35-5.05,1.77-1.02,4.03-.41,5.05,1.35,1.02,1.77,.41,4.03-1.35,5.05Z"/></g><g><rect class="uuid-5d7a2ec0-8284-45ac-a755-e7a5c377a896" x="367.83" y="98.57" width="27.04" height=".91" transform="translate(104.94 379.79) rotate(-60.01)"/><path class="uuid-5d7a2ec0-8284-45ac-a755-e7a5c377a896" d="M391.3,89.16c-1.02,1.77-3.28,2.37-5.05,1.35-1.77-1.02-2.37-3.28-1.35-5.05,1.02-1.77,3.28-2.37,5.05-1.35,1.77,1.02,2.37,3.28,1.35,5.05Z"/></g></g><g><path class="uuid-5d7a2ec0-8284-45ac-a755-e7a5c377a896" d="M397.99,321.46c-1.97,5.24-7.82,7.89-13.06,5.92s-7.89-7.82-5.92-13.06c1.97-5.24,7.82-7.89,13.06-5.92,5.24,1.97,7.89,7.82,5.92,13.06Z"/><g><rect class="uuid-5d7a2ec0-8284-45ac-a755-e7a5c377a896" x="383.22" y="309.99" width="16.3" height=".55" transform="translate(-36.86 567.26) rotate(-69.38)"/><path class="uuid-5d7a2ec0-8284-45ac-a755-e7a5c377a896" d="M396.32,303.42c-.43,1.15-1.72,1.73-2.87,1.3-1.15-.43-1.73-1.72-1.3-2.87,.43-1.15,1.72-1.73,2.87-1.3,1.15,.43,1.73,1.72,1.3,2.87Z"/></g><g><rect class="uuid-5d7a2ec0-8284-45ac-a755-e7a5c377a896" x="386.9" y="301.7" width=".55" height="16.3" transform="translate(-45.33 67.26) rotate(-9.38)"/><path class="uuid-5d7a2ec0-8284-45ac-a755-e7a5c377a896" d="M388.04,301.44c.2,1.21-.62,2.36-1.83,2.56-1.21,.2-2.36-.62-2.56-1.83-.2-1.21,.62-2.36,1.83-2.56,1.21-.2,2.36,.62,2.56,1.83Z"/></g><g><rect class="uuid-5d7a2ec0-8284-45ac-a755-e7a5c377a896" x="383.05" y="303.44" width=".55" height="16.3" transform="translate(-110.66 313.97) rotate(-39.38)"/><path class="uuid-5d7a2ec0-8284-45ac-a755-e7a5c377a896" d="M379.88,303.88c.78,.95,.64,2.35-.31,3.13s-2.35,.64-3.13-.31c-.78-.95-.64-2.35,.31-3.13,.95-.78,2.35-.64,3.13,.31Z"/></g><g><rect class="uuid-5d7a2ec0-8284-45ac-a755-e7a5c377a896" x="380.6" y="306.87" width=".55" height="16.3" transform="translate(-48.09 560.56) rotate(-69.38)"/><path class="uuid-5d7a2ec0-8284-45ac-a755-e7a5c377a896" d="M374.03,310.06c1.15,.43,1.73,1.72,1.3,2.87s-1.72,1.73-2.87,1.3c-1.15-.43-1.73-1.72-1.3-2.87,.43-1.15,1.72-1.73,2.87-1.3Z"/></g><g><rect class="uuid-5d7a2ec0-8284-45ac-a755-e7a5c377a896" x="372.31" y="318.94" width="16.3" height=".55" transform="translate(-46.86 66.14) rotate(-9.36)"/><path class="uuid-5d7a2ec0-8284-45ac-a755-e7a5c377a896" d="M372.05,318.35c1.21-.2,2.36,.62,2.56,1.83,.2,1.21-.62,2.36-1.83,2.56-1.21,.2-2.36-.62-2.56-1.83-.2-1.21,.62-2.36,1.83-2.56Z"/></g><g><rect class="uuid-5d7a2ec0-8284-45ac-a755-e7a5c377a896" x="374.05" y="322.78" width="16.3" height=".55" transform="translate(-118.19 315.8) rotate(-39.38)"/><path class="uuid-5d7a2ec0-8284-45ac-a755-e7a5c377a896" d="M374.49,326.51c.95-.78,2.35-.64,3.13,.31,.78,.95,.64,2.35-.31,3.13s-2.35,.64-3.13-.31c-.78-.95-.64-2.35,.31-3.13Z"/></g><g><rect class="uuid-5d7a2ec0-8284-45ac-a755-e7a5c377a896" x="377.48" y="325.24" width="16.3" height=".55" transform="translate(-54.84 571.8) rotate(-69.38)"/><path class="uuid-5d7a2ec0-8284-45ac-a755-e7a5c377a896" d="M380.67,332.36c.43-1.15,1.72-1.73,2.87-1.3,1.15,.43,1.73,1.72,1.3,2.87-.43,1.15-1.72,1.73-2.87,1.3-1.15-.43-1.73-1.72-1.3-2.87Z"/></g><g><rect class="uuid-5d7a2ec0-8284-45ac-a755-e7a5c377a896" x="389.55" y="317.78" width=".55" height="16.3" transform="translate(-47.92 67.91) rotate(-9.38)"/><path class="uuid-5d7a2ec0-8284-45ac-a755-e7a5c377a896" d="M388.96,334.33c-.2-1.21,.62-2.36,1.83-2.56,1.21-.2,2.36,.62,2.56,1.83,.2,1.21-.62,2.36-1.83,2.56-1.21,.2-2.36-.62-2.56-1.83Z"/></g><g><rect class="uuid-5d7a2ec0-8284-45ac-a755-e7a5c377a896" x="393.39" y="316.04" width=".55" height="16.3" transform="translate(-116.3 323.39) rotate(-39.38)"/><path class="uuid-5d7a2ec0-8284-45ac-a755-e7a5c377a896" d="M397.12,331.9c-.78-.95-.64-2.35,.31-3.13,.95-.78,2.35-.64,3.13,.31,.78,.95,.64,2.35-.31,3.13-.95,.78-2.35,.64-3.13-.31Z"/></g><g><rect class="uuid-5d7a2ec0-8284-45ac-a755-e7a5c377a896" x="395.85" y="312.61" width=".55" height="16.3" transform="translate(-43.58 578.56) rotate(-69.38)"/><path class="uuid-5d7a2ec0-8284-45ac-a755-e7a5c377a896" d="M402.97,325.71c-1.15-.43-1.73-1.72-1.3-2.87,.43-1.15,1.72-1.73,2.87-1.3,1.15,.43,1.73,1.72,1.3,2.87-.43,1.15-1.72,1.73-2.87,1.3Z"/></g><g><rect class="uuid-5d7a2ec0-8284-45ac-a755-e7a5c377a896" x="388.39" y="316.28" width="16.3" height=".55" transform="translate(-46.31 68.9) rotate(-9.39)"/><path class="uuid-5d7a2ec0-8284-45ac-a755-e7a5c377a896" d="M404.94,317.43c-1.21,.2-2.36-.62-2.56-1.83-.2-1.21,.62-2.36,1.83-2.56,1.21-.2,2.36,.62,2.56,1.83,.2,1.21-.62,2.36-1.83,2.56Z"/></g><g><rect class="uuid-5d7a2ec0-8284-45ac-a755-e7a5c377a896" x="386.65" y="312.44" width="16.3" height=".55" transform="translate(-108.77 321.59) rotate(-39.39)"/><path class="uuid-5d7a2ec0-8284-45ac-a755-e7a5c377a896" d="M402.51,309.27c-.95,.78-2.35,.64-3.13-.31-.78-.95-.64-2.35,.31-3.13,.95-.78,2.35-.64,3.13,.31,.78,.95,.64,2.35-.31,3.13Z"/></g></g><g><path class="uuid-5d7a2ec0-8284-45ac-a755-e7a5c377a896" d="M307.81,108.08c-1.97,5.24-7.82,7.89-13.06,5.92-5.24-1.97-7.89-7.82-5.92-13.06,1.97-5.24,7.82-7.89,13.06-5.92,5.24,1.97,7.89,7.82,5.92,13.06Z"/><g><rect class="uuid-5d7a2ec0-8284-45ac-a755-e7a5c377a896" x="293.05" y="96.61" width="16.3" height=".55" transform="translate(104.43 344.65) rotate(-69.38)"/><path class="uuid-5d7a2ec0-8284-45ac-a755-e7a5c377a896" d="M306.15,90.04c-.43,1.15-1.72,1.73-2.87,1.3-1.15-.43-1.73-1.72-1.3-2.87,.43-1.15,1.72-1.73,2.87-1.3,1.15,.43,1.73,1.72,1.3,2.87Z"/></g><g><rect class="uuid-5d7a2ec0-8284-45ac-a755-e7a5c377a896" x="296.72" y="88.32" width=".55" height="16.3" transform="translate(-11.75 49.7) rotate(-9.38)"/><path class="uuid-5d7a2ec0-8284-45ac-a755-e7a5c377a896" d="M297.87,88.07c.2,1.21-.62,2.36-1.83,2.56-1.21,.2-2.36-.62-2.56-1.83-.2-1.21,.62-2.36,1.83-2.56,1.21-.2,2.36,.62,2.56,1.83Z"/></g><g><rect class="uuid-5d7a2ec0-8284-45ac-a755-e7a5c377a896" x="292.88" y="90.06" width=".55" height="16.3" transform="translate(4.25 208.3) rotate(-39.38)"/><path class="uuid-5d7a2ec0-8284-45ac-a755-e7a5c377a896" d="M289.71,90.5c.78,.95,.64,2.35-.31,3.13-.95,.78-2.35,.64-3.13-.31-.78-.95-.64-2.35,.31-3.13,.95-.78,2.35-.64,3.13,.31Z"/></g><g><rect class="uuid-5d7a2ec0-8284-45ac-a755-e7a5c377a896" x="290.42" y="93.49" width=".55" height="16.3" transform="translate(93.2 337.93) rotate(-69.38)"/><path class="uuid-5d7a2ec0-8284-45ac-a755-e7a5c377a896" d="M283.85,96.69c1.15,.43,1.73,1.72,1.3,2.87-.43,1.15-1.72,1.73-2.87,1.3-1.15-.43-1.73-1.72-1.3-2.87,.43-1.15,1.72-1.73,2.87-1.3Z"/></g><g><rect class="uuid-5d7a2ec0-8284-45ac-a755-e7a5c377a896" x="282.14" y="105.57" width="16.3" height=".55" transform="translate(-13.36 48.67) rotate(-9.37)"/><path class="uuid-5d7a2ec0-8284-45ac-a755-e7a5c377a896" d="M281.88,104.97c1.21-.2,2.36,.62,2.56,1.83,.2,1.21-.62,2.36-1.83,2.56-1.21,.2-2.36-.62-2.56-1.83-.2-1.21,.62-2.36,1.83-2.56Z"/></g><g><rect class="uuid-5d7a2ec0-8284-45ac-a755-e7a5c377a896" x="283.88" y="109.41" width="16.3" height=".55" transform="translate(-3.28 210.2) rotate(-39.38)"/><path class="uuid-5d7a2ec0-8284-45ac-a755-e7a5c377a896" d="M284.31,113.13c.95-.78,2.35-.64,3.13,.31,.78,.95,.64,2.35-.31,3.13-.95,.78-2.35,.64-3.13-.31-.78-.95-.64-2.35,.31-3.13Z"/></g><g><rect class="uuid-5d7a2ec0-8284-45ac-a755-e7a5c377a896" x="287.31" y="111.86" width="16.3" height=".55" transform="translate(86.45 349.17) rotate(-69.38)"/><path class="uuid-5d7a2ec0-8284-45ac-a755-e7a5c377a896" d="M290.5,118.98c.43-1.15,1.72-1.73,2.87-1.3s1.73,1.72,1.3,2.87c-.43,1.15-1.72,1.73-2.87,1.3-1.15-.43-1.73-1.72-1.3-2.87Z"/></g><g><rect class="uuid-5d7a2ec0-8284-45ac-a755-e7a5c377a896" x="299.38" y="104.4" width=".55" height="16.3" transform="translate(-14.34 50.36) rotate(-9.38)"/><path class="uuid-5d7a2ec0-8284-45ac-a755-e7a5c377a896" d="M298.78,120.95c-.2-1.21,.62-2.36,1.83-2.56,1.21-.2,2.36,.62,2.56,1.83,.2,1.21-.62,2.36-1.83,2.56-1.21,.2-2.36-.62-2.56-1.83Z"/></g><g><rect class="uuid-5d7a2ec0-8284-45ac-a755-e7a5c377a896" x="303.22" y="102.66" width=".55" height="16.3" transform="translate(-1.39 217.72) rotate(-39.38)"/><path class="uuid-5d7a2ec0-8284-45ac-a755-e7a5c377a896" d="M306.94,118.52c-.78-.95-.64-2.35,.31-3.13,.95-.78,2.35-.64,3.13,.31s.64,2.35-.31,3.13c-.95,.78-2.35,.64-3.13-.31Z"/></g><g><rect class="uuid-5d7a2ec0-8284-45ac-a755-e7a5c377a896" x="305.68" y="99.23" width=".55" height="16.3" transform="translate(97.71 355.92) rotate(-69.38)"/><path class="uuid-5d7a2ec0-8284-45ac-a755-e7a5c377a896" d="M312.8,112.33c-1.15-.43-1.73-1.72-1.3-2.87,.43-1.15,1.72-1.73,2.87-1.3,1.15,.43,1.73,1.72,1.3,2.87-.43,1.15-1.72,1.73-2.87,1.3Z"/></g><g><rect class="uuid-5d7a2ec0-8284-45ac-a755-e7a5c377a896" x="298.22" y="102.91" width="16.3" height=".55" transform="translate(-12.72 51.33) rotate(-9.38)"/><path class="uuid-5d7a2ec0-8284-45ac-a755-e7a5c377a896" d="M314.77,104.05c-1.21,.2-2.36-.62-2.56-1.83s.62-2.36,1.83-2.56c1.21-.2,2.36,.62,2.56,1.83,.2,1.21-.62,2.36-1.83,2.56Z"/></g><g><rect class="uuid-5d7a2ec0-8284-45ac-a755-e7a5c377a896" x="296.47" y="99.07" width="16.3" height=".55" transform="translate(6.14 215.85) rotate(-39.38)"/><path class="uuid-5d7a2ec0-8284-45ac-a755-e7a5c377a896" d="M312.34,95.89c-.95,.78-2.35,.64-3.13-.31-.78-.95-.64-2.35,.31-3.13,.95-.78,2.35-.64,3.13,.31s.64,2.35-.31,3.13Z"/></g></g><ellipse class="uuid-415a5f45-6474-40a7-9d09-d14a418840ac" cx="314.24" cy="419.56" rx="109.71" ry="7.74"/><g><g><path class="uuid-742e2351-7953-4b1f-b67c-dba5a1e5bc5f" d="M209.22,419.18l-78.17,2.77c-6.73,0-12.34-4.45-12.9-10.22L88.09,101.17c-.63-6.5,5.33-12.08,12.9-12.08l78.17,2.77c6.73,0,12.34,4.45,12.9,10.22l30.05,305.02c.63,6.5-5.33,12.08-12.9,12.08Z"/><path class="uuid-00424937-5316-464e-a66a-28a63a6bd5b5" d="M220.13,419.18l-78.17,2.77c-6.73,0-12.34-4.45-12.9-10.22L99.01,101.17c-.63-6.5,5.33-12.08,12.9-12.08l78.17,2.77c6.73,0,12.34,4.45,12.9,10.22l30.05,305.02c.63,6.5-5.33,12.08-12.9,12.08Z"/><path class="uuid-097d62f0-b566-4dc8-a831-8288569a3b32" d="M222.28,419.18l-78.17,2.77c-6.73,0-12.34-4.45-12.9-10.22L101.16,101.17c-.63-6.5,5.33-12.08,12.9-12.08l78.17,2.77c6.73,0,12.34,4.45,12.9,10.22l30.05,305.02c.63,6.5-5.33,12.08-12.9,12.08Z"/><path class="uuid-de944532-76d2-46a0-9c2c-8859deb66c2b" d="M227.07,411.82c-1.25,1.17-2.95,1.81-4.79,1.81l-78.17,2.77c-3.36,0-6.2-2.26-6.48-5.14l-4.36-45.12L107.58,100.71c-.16-1.58,.44-3.09,1.69-4.25,1.25-1.17,2.95-1.81,4.79-1.81l78.17,2.77c3.36,0,6.2,2.26,6.48,5.14l14.88,150.99,15.18,154.02c.15,1.58-.45,3.09-1.7,4.25Z"/><polygon class="uuid-869fa65f-4a10-4b82-9a76-9caa074fd937" points="212.05 235.85 129.04 322.49 124.32 273.7 210.2 219.23 212.05 235.85"/><path class="uuid-a79cfe7e-37f2-49f7-a7c6-d247a3237ccf" d="M227.07,411.82c-1.25,1.17-2.95,1.81-4.79,1.81l-78.17,2.77c-3.36,0-6.2-2.26-6.48-5.14l-4.36-45.12c18.71-26.63,58.22-81.79,80.32-112.6l15.18,154.02c.15,1.58-.45,3.09-1.7,4.25Z"/><path class="uuid-097d62f0-b566-4dc8-a831-8288569a3b32" d="M134.62,94.64l4.05,6.25c.81,.88,1.94,1.38,3.14,1.4l32.83,.41c1.33,.02,2.59-.58,3.43-1.61l3.71-6.45h-47.16Z"/></g><g><ellipse class="uuid-13ebd0a5-ed21-40cc-bc44-88db4a2d28bb" cx="165.84" cy="207.49" rx="32.58" ry="54.02" transform="translate(-15.82 13.7) rotate(-4.51)"/><path class="uuid-b630c755-5395-42c7-b14f-d58c925bf1b8" d="M164.8,200.86v-16.1h10.73v16.1h16.06v10.73h-16.06v16.06h-10.73v-16.06h-16.06v-10.73h16.06Z"/></g><path class="uuid-13ebd0a5-ed21-40cc-bc44-88db4a2d28bb" d="M141.54,296.21c-1.22,0-2.24-.95-2.31-2.18-.07-1.27,.91-2.37,2.18-2.44l66.57-3.7c1.27-.08,2.37,.9,2.44,2.18,.07,1.27-.91,2.37-2.18,2.44l-66.57,3.7s-.09,0-.13,0Z"/><path class="uuid-13ebd0a5-ed21-40cc-bc44-88db4a2d28bb" d="M191.49,129.84h-.07l-66.57-1.85c-1.28-.04-2.28-1.1-2.25-2.37s1.11-2.27,2.37-2.25l66.57,1.85c1.28,.04,2.28,1.1,2.25,2.37-.03,1.25-1.06,2.25-2.31,2.25Z"/><path class="uuid-13ebd0a5-ed21-40cc-bc44-88db4a2d28bb" d="M141.54,314.01c-1.2,0-2.22-.93-2.3-2.15-.09-1.27,.87-2.38,2.15-2.47l66.57-4.62c1.28-.08,2.38,.87,2.47,2.15,.09,1.27-.87,2.38-2.15,2.47l-66.57,4.62c-.05,0-.11,0-.16,0Z"/></g><g><path class="uuid-4fb63fb6-8a3c-49b8-9fda-04195e914122" d="M345.37,224.68c-1.49,3.07-2.99,6.2-3.44,9.58-.45,3.38,.33,7.11,2.84,9.42,4.13,3.81,11.24,2.11,15.02-2.06,3.78-4.17,5.08-9.95,6.25-15.45,1.84-8.64,3.67-17.27,5.51-25.91,.99-4.67,5.43-13.67-1.85-13.54-6,.1-9.56,7.49-11.68,11.84-4.24,8.7-8.44,17.41-12.65,26.12Z"/><g id="uuid-5af21ded-d2d7-46f7-a4b5-313a2db38b6f"><path class="uuid-280832fd-e2a1-47c0-b83b-7ac3e473407d" d="M347.36,228.56c-1.07-.49-2.14-.98-3.18-1.52-4.97-2.54-9.49-5.81-14.37-8.5-3.12-1.63-6.18-3.37-9.28-5.04-2.31-1.24-5.11-3.81-7.67-4.33-.54,1.96,.35,3.91,1.5,5.45-4.6,.62-9.2,1.51-13.89,2.01-.7,1.93,.04,4.19,1.51,5.63s3.53,2.14,5.57,2.32c5.32,.48,10.94-1.94,16.15-.11,3.48,1.23,6.31,5.09,8.99,7.58,3.88,3.61,7.75,7.13,11.87,10.46,2.95-.82,4.17-2.58,4.83-5.57,.65-3,.77-7.11-2.02-8.39Z"/></g><g id="uuid-fdb32013-0a4d-42f1-86ad-461973c68df8"><path class="uuid-a7997ee1-c66d-4c5e-8290-dc43a78fde11" d="M391.86,394.28c1.69,3.37,7.73,15.22,3.64,18.25-.58,.43-1.27,.68-1.94,.92-1.5,.54-3,1.08-4.5,1.62-9.07,3.28-17.1,4.54-26.69,5.3-.92,.07-1.94,.12-2.66-.46-3.29-2.65,3.35-3.32,4.41-3.83,2.95-1.43,5.8-5.01,7.98-7.41,2.89-3.18,5.52-6.23,7.56-10.02,1.3-2.41,.45-2.34,2.62-3.84,.57-.4,8.55-2.52,8.59-2.45,.32,.61,.65,1.26,.98,1.92Z"/></g><g id="uuid-5d26ff93-89c1-47f8-a363-9a2d55fe6ad4"><path class="uuid-65e27476-a4fe-4ea1-8229-24f2de1e21b6" d="M354.54,285.34c.02-.88,.03-1.76,.05-2.64l28.57-25.01c.67,1.03,1.29,2.1,1.86,3.19,2.35,4.5,3.64,9.45,3.79,14.52,.14,4.61-.65,9.17-1.8,13.62-1.31,5.12-2.78,10.19-3.85,15.37-1.16,5.62-2.13,11.35-3.79,16.85-1.31,4.35-3.24,8.46-3.01,13.1,.09,1.95,.28,4.01,.98,5.84,.7,1.84,1.96,3.41,3.14,4.96,2.86,3.79,5.54,7.61,7.49,11.96,2.04,4.54,2.91,9.22,3.32,14.15,.43,5.24,.58,10.63,1.79,15.77,.42,1.75,1.29,3.33,1.75,5.06,.37,1.42,.31,2.93,.13,4.37l-12.41,2.89c-.56-1.31-.99-2.68-1.21-4.08-.27-1.73-.15-3.5-.38-5.24-.52-3.97-2.03-7.53-3.86-11.05-2.14-4.13-4.26-8.26-6.12-12.52-1.7-3.89-3.15-7.96-5.36-11.59-2.11-3.49-5.18-6.11-7.82-9.17-1.59-1.85-2.74-3.83-3-6.28-.22-2.05,.02-4.12,.11-6.18,.08-1.75,.06-3.5,0-5.25-.17-5.03-.34-10.05-.42-15.08-.17-9.59,1.31-20.29-.23-29.63-1.47-8.9-3.1-16.53,3.96-23.94,6.46-6.79,17.59-8.58,25.85-4.16,.62,1.61-.04,3.6-1.49,4.52"/></g><g id="uuid-00af42b1-bab7-4b34-ac37-a9b3eee03d2d"><path class="uuid-4e690f62-1f61-4671-8576-0e68ee8f16b6" d="M377.62,400.49c.91,3.66,4.2,16.54-.44,18.61-.66,.29-1.38,.38-2.1,.47l-4.74,.59c-8.51,1.06-16.75,1.34-25.31,1.43-3.97,.04-9.4-2.03-2.76-4.46,4.54-1.67,8.98-4.15,12.92-6.93,3.51-2.47,6.75-4.87,9.58-8.12,1.79-2.07,.95-2.18,3.4-3.17,.65-.26,8.9-.59,8.92-.51,.18,.67,.36,1.37,.54,2.09Z"/></g><g id="uuid-d4ef81c4-31a6-40da-a328-e2709b1a4b10"><path class="uuid-4bcbfe99-ba31-4a03-b51f-af1610d2d21a" d="M371.9,258.19c5.61-3.75,16.74-5.61,22.49-.87,5.95,4.9,2.07,12.46,.58,19.92-4.02,20.08-13.62,35.55-20.5,54.09-3.65,9.83,2.4,17.28,4.45,26.5,2.83,12.7-.94,25.28-.48,37.92,.05,1.46-.34,2.93-.84,4.29l-12.74,.1c-.25-1.4-.38-2.83-.29-4.25,.12-1.75,.63-3.45,.78-5.2,.36-3.99-.33-7.79-1.34-11.63-2.06-7.85-3.8-17.13-6.48-25.3-2.95-8.98-5.97-13.8-4.95-23.44,1.61-15.21,7.11-29.54,9.52-44.56,1.62-10.13,.05-21.07,9.78-27.56Z"/></g><path class="uuid-65e27476-a4fe-4ea1-8229-24f2de1e21b6" d="M358.25,270.44c3.92,4.44,9.13,7.82,14.9,9.16,5.77,1.34,12.09,.55,17.15-2.52,1.89-1.15,3.65-2.67,4.48-4.72,.83-2.04,.5-4.67-1.22-6.05-1.33-1.07-3.16-1.21-4.86-1.31-11.55-.66-23.11-1.32-34.66-1.98,.44,5.81,5.21,11.01,10.96,11.95"/><path class="uuid-ff1fede7-0472-484f-9073-e8a55e2b86c2" d="M363.6,176.09c4.78,2.7,10.65,.56,16,.11,.98-.12-.13-5.09-.29-5.6-1.44-4.38-2.93-8.85-5.7-12.53-2.21-2.93-4.02-6.05-6.9-8.45-.75-.63-10.11-5.66-10.15-5-.29,5.47,.5,10.68,1.17,16.13,.54,4.37,.23,10.16,3.64,13.62,.71,.72,1.46,1.29,2.23,1.72Z"/><path class="uuid-ff1fede7-0472-484f-9073-e8a55e2b86c2" d="M365.71,132.44c5.4-2.4,12.16-2.69,16.77-.54,8.9,4.15,9.76,12.74,11.08,21.3,.62,4.04,4.96,16.69,1.82,19.96-.79,.82-1.95,1.13-3.06,1.41-3.14,.79-6.28,1.58-9.42,2.37-2.24,.56-4.55,1.13-6.83,.76-5.39-.87-5.72-5.09-7.58-9.04-2.18-4.63-5.78-8.7-8.02-13.4-2.35-4.94-5.05-11.84-1.85-17.02,1.56-2.53,4.12-4.48,7.08-5.79Z"/><g id="uuid-7ce1882f-be04-4c1a-b66d-5d5c6e93aaf3"><path class="uuid-23418459-5156-410c-8ab9-650f33ee41b0" d="M394.48,245.99c0,1.16,.03,2.32,.09,3.47,.38,7.32,6.51,13.08-.91,19.55-3.62,3.16-8.64,4.2-13.44,4.4-13.92,.6-35.48-3.61-29.4-20.95,2.88-8.21,4.06-19.2,3.37-27.87-.36-4.55-1.31-9.05-1.47-13.61-.31-8.69,4.08-12.44,8.04-19.32,3.37-5.86,7.23-10.48,14.08-12.13,3.65-.88,7.79-.75,11.52-.84,3.65-.09,6.32,1.05,8.7,3.83,3.51,4.1,1.68,8.38,1.21,13.59-1.05,11.65-1.1,23.36-1.33,35.05-.1,4.89-.49,9.9-.47,14.83Z"/></g><path class="uuid-4fb63fb6-8a3c-49b8-9fda-04195e914122" d="M380.76,216.39c.59,2.36,1.93,4.45,3.25,6.49,4.57,7.05,9.14,14.09,13.71,21.14,.36-11.14-.27-22.32-1.89-33.34-.4-2.7-.89-5.49-2.45-7.74-7.38-10.64-14.16,7.26-12.62,13.45Z"/><g id="uuid-79fbbf09-8b6d-4393-912d-b3b4e6bcd127"><path class="uuid-280832fd-e2a1-47c0-b83b-7ac3e473407d" d="M387.88,247.12c-.5,1.07-1,2.13-1.55,3.16-2.24,4.3-5.06,8.32-8.12,12.06-5.66,6.9-11.67,13.65-15.12,21.77-.31,.72,3.49-.63,3.69-.75,1.36-.82,2.37-3.04,3.26-4.29-.78,5.24-2.84,9.92-4.64,14.89-.48,1.33,8.44-2.19,9.49-3.52,2.8-3.53,4.39-8.95,5.56-13.23,.43-1.61,.74-3.22,1.57-4.69,2.27-4.04,6.06-7.38,9.21-10.71,3.65-3.85,7.21-7.68,10.58-11.77-.79-2.96-2.54-4.2-5.53-4.88-2.99-.68-7.1-.84-8.4,1.94Z"/></g><g id="uuid-25bd1da1-666e-415e-8112-81252fee37be"><path class="uuid-23418459-5156-410c-8ab9-650f33ee41b0" d="M391.09,224.2c.52,2.29,1.18,4.54,1.81,6.79,.36,1.29,.84,2.65,.89,4,.05,1.52-1.14,3.2-1.85,4.47-.97,1.73-2.12,3.3-3.25,4.94-.47,.67-1.85,2.36-.53,2.83,1.3,.47,3.17-.03,4.47-.14,2.26-.19,4.88-.4,6.86,.95,.33,.23,.65,.49,.95,.77,.4,.37,1.12,1.39,1.76,1.39,.51,0,.81-.58,1.05-.95,.59-.92,1.12-1.86,1.7-2.79,1.53-2.45,3.2-4.99,3.64-7.9,.54-3.6-.18-7.53-.54-11.13-.45-4.46-.86-8.93-1.68-13.33-.37-1.97-.84-3.93-.91-5.94-.06-2.04,.12-4.09,.03-6.13-.14-3.38-1.09-6.54-2.65-9.53-1.67-3.19-3.9-6.4-6.92-8.43-1.31-.87-2.76-1.58-4.26-2.1-.81-.28-1.81-.6-2.67-.39-1.4,.34-1.37,2.26-1.56,3.4-.46,2.8-2.13,4.84-2.82,7.46-1.28,4.88-1.08,9.66,1.12,14.1,2.9,5.86,3.91,11.32,5.35,17.64Z"/></g><g id="uuid-67cc0c65-8c66-4005-babb-47f185c79efd"><path class="uuid-280832fd-e2a1-47c0-b83b-7ac3e473407d" d="M359.6,166.93c.39,1.79,1.13,2.87,2.08,3.55,3.05,2.23,8.12,.28,9.55,4.8,.31,.99,.93,2.34,1.23,3.68,.24,1.07,.27,2.14-.25,2.97-.24,.38-.7,.77-.59,1.27,.11,.49,.7,.77,1.12,.93,.87,.32,1.86,.29,2.77,.21,5.45-.44,9.59-3.27,14.36-5.29-1.39-2.05-4.21-3.02-5.61-5.23-2.33-3.65-2.47-9.03-1.97-13.21,.41-3.38,3.26-6.24,2.05-9.59-.86-2.37-3.21-1.74-4.35,.02-.67,1.03-1.05,2.21-1.56,3.31-.33,.71-.72,1.61-1.63,1.24-3.2-1.27-1.67-7.42-3.11-10.15-1.35-2.58-3.8-4.03-6.44-5.03-1.59-.6-4.35-1.59-5.97-.55-1.03,.67-1.38,2.13-1.79,3.2-.47,1.23-1.1,2.4-1.46,3.66-1.49,5.4,.38,14.84,1.56,20.2Z"/></g><path class="uuid-ff1fede7-0472-484f-9073-e8a55e2b86c2" d="M374.51,131.56c5.35,1.92,9.65,6.91,11.28,12.65,1.46,5.14,.81,8.89-.32,13.99-1.01-2.99-2.01-5.98-3.02-8.97-1.3,.29-3.08,.22-3.48,1.63-.34,1.16,.22,2.37-.3,3.65-1.83-1.17-4.32-2.85-5.01-5.03-.62-1.98-.69-4.49-.99-6.55,.23,1.59-.77,3.45-.79,5.08-1.23-.16-2.46,.08-3.7,.17-5.47,.37-3.83-3.63-4.83-7.07-.07,.53-.49,6.31-.59,6.31-2.11,.07-4.22,.13-6.34,.2-.94-2.5-.87-4.28,.17-6.8,1.61-3.92,2.35-6.21,6.08-8.23,4.1-2.22,8.22-2.33,11.84-1.03Z"/><path class="uuid-3564e76d-6e9f-4efe-ae85-dc97cd2da2d3" d="M362.77,170.7c-.07,0-.14,0-.2,0,1.51,1.04,3.34,.98,5.07,1.44,1.73,.46,3.03,1.37,3.59,3.14,.38,1.22,.85,2.52,1.28,3.66,1.03-.88,1.11-2.64,1.36-3.88,.24-1.16,.36-2.33,.39-3.51,.07-3.42-2.88-2.05-5.09-1.68-2.09,.35-4.27,.76-6.39,.82Z"/><path class="uuid-626f4e07-2f1a-421a-9ee6-f08cd0e84c49" d="M360.42,157.02c3.01-.42,9.58,.5,12.14,.89-.04-.11-.02-.24,.08-.34,1.83-1.67,3.71-3.28,5.63-4.85,.48-.39,1.16,.28,.68,.68-1.87,1.58-3.79,3.12-5.74,4.61,.26,.04,.4,.06,.4,.06,1.63,3.38,.74,7.66,.11,9.83,1.83-1.02,3.55-1.76,5.02-3.4,1.69-1.89,2.15-3.93,3-6.2,.12-.33,.61-.29,.62,.08,.15,4.24-4.65,9.74-8.85,10.17-.15,.46-.26,.74-.26,.74,0,0-4.65,5.45-10.68,1.41-6.03-4.05-5.09-11.62-5.09-11.62,0,0-.84-1.54,2.93-2.07Z"/><path class="uuid-3564e76d-6e9f-4efe-ae85-dc97cd2da2d3" d="M313.82,221.64c-.41-.96-1.29-1.77-1.96-2.57-.75-.9-1.5-1.8-2.26-2.7-.36-.43-.97,.19-.62,.62,.07,.09,.14,.18,.22,.26-2.97,.06-6.08,.73-8.95,1.33-.38,.08-.3,.71,.09,.68,3.07-.23,6.43-.48,9.41-1.35,.49,.6,.98,1.2,1.47,1.8,.66,.81,1.28,1.79,2.15,2.38,.31,.21,.57-.18,.45-.45Z"/><path class="uuid-3564e76d-6e9f-4efe-ae85-dc97cd2da2d3" d="M310.97,219.76c-2.97,.03-6.04,.84-8.96,1.34-.54,.09-.31,.9,.23,.82,2.9-.44,6.03-.62,8.82-1.52,.34-.11,.29-.65-.09-.64Z"/><path class="uuid-3564e76d-6e9f-4efe-ae85-dc97cd2da2d3" d="M312.52,221.52c-1.04,.03-2.06,.47-3.04,.79-1.12,.36-2.24,.72-3.36,1.08-.52,.17-.3,.98,.23,.82,1.13-.34,2.25-.67,3.38-1.01,.99-.29,2.09-.51,2.96-1.07,.27-.17,.18-.64-.17-.63Z"/><path class="uuid-3564e76d-6e9f-4efe-ae85-dc97cd2da2d3" d="M372.43,283.93c-.97,.1-2.18,3.23-4.48,9.52-.14,.37,.44,.6,.63,.27,1.64-2.94,3.51-6.28,4.45-9.53,.11-.37-.24-.29-.6-.25Z"/><path class="uuid-3564e76d-6e9f-4efe-ae85-dc97cd2da2d3" d="M375.04,284.69c-.92,3.04-1.65,5.67-3.89,8.07-.35,.37,.2,.93,.57,.57,2.17-2.15,4.16-5.38,3.92-8.55-.02-.34-.5-.42-.6-.08Z"/></g><g><g><g><path class="uuid-ff1fede7-0472-484f-9073-e8a55e2b86c2" d="M230.03,156.21s-4.36-14.98-4.61-17.4-1.61-10.28,2.3-12.59c3.92-2.31,1.61-9.25,5.77-10.63,4.56-1.52,10.24-1.25,14.97-1.1,5.85,.2,13.42,2.88,15.9,8.84,1.84,4.41-.42,12.4-1.42,16.96l-32.91,15.92Z"/><path class="uuid-8557e3f3-f8e2-4df4-8ff6-74d0afda4357" d="M229.29,138.81c-.25-2.42-1.61-10.28,2.3-12.59,3.92-2.31,1.61-9.25,5.77-10.63,2.45-.82,5.23-1.11,8-1.19-3.97-.09-8.26,0-11.86,1.19-4.16,1.39-1.85,8.32-5.77,10.63-3.92,2.31-2.56,10.17-2.3,12.59,.25,2.42,4.61,17.4,4.61,17.4l3.39-1.64c-1.13-3.95-3.93-13.83-4.13-15.76Z"/><g id="uuid-8937cf9a-e528-4b20-b7a0-56f372c81cd5"><path class="uuid-3a5615a1-2f86-4beb-adc8-3c0b63aaf3de" d="M260.53,155.98c-.46,2.11-1.33,3.38-2.44,4.18-3.59,2.62-9.55,.32-11.24,5.65-.36,1.16-1.1,2.76-1.45,4.33-.29,1.26-.31,2.52,.3,3.49,.29,.45,.82,.91,.7,1.5-.12,.57-.82,.91-1.32,1.1-1.02,.37-2.2,.34-3.27,.25-4.65-.36-13.71-2.5-14.98-8.02-.34-1.48,.1-3.01,.54-4.46,1.65-5.5,5.29-12.98,4.41-18.79,0,.04-1.91-1.13-2.11-1.39-.62-.79-.91-1.77-.86-2.76,.09-2.09,1.95-4.24,3.81-5.11,3.35-1.57,4.66,2.88,5.76,5.26,.39,.84,.85,1.9,1.92,1.46,1.22-.49,2.23-1.46,2.18-2.81-.04-1.06-.32-2.1,.06-3.13,.92-2.4,3.84-3.52,5.4-5.43,1.16-1.42,1.1-2.69,1.15-4.38,.04-1.26,1.42-1.73,2.43-2.12,1.87-.71,5.11-1.87,7.02-.65,1.21,.79,1.62,2.51,2.11,3.77,.55,1.45,1.3,2.82,1.72,4.3,1.76,6.35-.45,17.46-1.83,23.76Z"/></g><g id="uuid-ff4b0d50-c235-4a9c-9221-38ebacb2b0dc"><path class="uuid-335ceef0-f206-4c90-ae1a-5a4de430d079" d="M234.76,148.62c.36-4.85,.77-8.7,.86-9.74,.11-1.27,.18-2.71-.67-3.66-2.2-2.45-6.07,4.13-6.14,5.83-.04,.99,.24,1.98,.86,2.76,.21,.26,2.12,1.43,2.11,1.39,.88,5.81-2.76,13.29-4.41,18.79-.44,1.45-.87,2.98-.54,4.46,.87,3.83,5.49,6.03,9.8,7.14-3.28-.85-2.67-16.31-1.87-26.97Z"/><path class="uuid-3a5615a1-2f86-4beb-adc8-3c0b63aaf3de" d="M262.36,132.22c-.42-1.48-1.17-2.86-1.72-4.3-.49-1.26-.9-2.98-2.11-3.77-1.79-1.15-4.76-.2-6.66,.51,.24,8.24,1.39,16.47-4.5,22.36-1.85,2.77-8.32-.92-9.25,1.85-3.24,8.33-3.93,18.05-1.5,26.72,1.91,.49,3.75,.77,5.18,.88,1.07,.09,2.25,.12,3.27-.25,.5-.19,1.2-.52,1.32-1.1,.12-.59-.41-1.05-.7-1.5-.61-.97-.59-2.23-.3-3.49,.35-1.57,1.09-3.17,1.45-4.33,1.68-5.33,7.65-3.03,11.24-5.65,1.11-.8,1.98-2.07,2.44-4.18,1.38-6.3,3.59-17.41,1.83-23.76Z"/></g><path class="uuid-93721c08-2ed9-4161-8628-1c553a1c1b8f" d="M256.79,160.41c.08,0,.16,0,.24,0-1.77,1.22-3.93,1.16-5.96,1.7-2.03,.54-3.57,1.61-4.22,3.69-.45,1.43-1,2.96-1.5,4.31-1.21-1.03-1.31-3.11-1.61-4.56-.28-1.36-.43-2.74-.45-4.13-.09-4.03,3.39-2.42,5.99-1.98,2.45,.41,5.02,.9,7.51,.96Z"/><path class="uuid-de944532-76d2-46a0-9c2c-8859deb66c2b" d="M259.56,144.32c-3.54-.49-11.28,.58-14.28,1.04,.04-.13,.03-.29-.09-.4-1.22-1.11-2.44-2.34-3.75-3.34-1.37-1.03-2.95-1.87-4.4-2.78,.67,1.59,1.64,2,2.89,3.01,1.51,1.23,3.04,2.45,4.6,3.63-.3,.05-.47,.08-.47,.08-.92,1.92-1.17,4.09-1.07,6.2,.05,.99,.17,1.98,.36,2.95,.14,.73,.71,1.69,.38,2.42-1.18-.43-2.42-1.68-3.41-2.48-3.54-2.87-6.69-6.23-9.31-9.95,.52,.74,.61,1.7,1.03,2.48,.5,.93,1.31,1.75,2,2.55,1.09,1.26,2.28,2.41,3.4,3.64,.78,.86,1.57,1.68,2.52,2.34,.69,.48,1.42,.92,2.17,1.3,.31,.16,1.95,.6,2.05,.89,.18,.54,.31,.87,.31,.87,0,0,5.47,6.42,12.56,1.66,7.1-4.76,5.98-13.67,5.98-13.67,0,0,.99-1.82-3.45-2.43Z"/><path class="uuid-8557e3f3-f8e2-4df4-8ff6-74d0afda4357" d="M247.03,145.11c-.68,.09-1.28,.18-1.75,.26,.04-.13,.03-.29-.09-.4-1.22-1.11-2.44-2.34-3.75-3.34-1.37-1.03-2.95-1.87-4.4-2.78,.67,1.59,1.64,2,2.89,3.01,1.51,1.23,3.04,2.45,4.6,3.63-.3,.05-.47,.08-.47,.08-.92,1.92-1.17,4.09-1.07,6.2,.05,.99,.17,1.98,.36,2.95,.14,.73,.71,1.69,.38,2.42-1.18-.43-2.42-1.68-3.41-2.48-3.54-2.87-6.69-6.23-9.31-9.95,.52,.74,.61,1.7,1.03,2.48,.5,.93,1.31,1.75,2,2.55,1.09,1.26,2.28,2.41,3.4,3.64,.78,.86,1.57,1.68,2.52,2.34,.69,.48,1.42,.92,2.17,1.3,.31,.16,1.95,.6,2.05,.89,.18,.54,.31,.87,.31,.87,0,0,2.54,2.98,6.41,3.37-3.1-4.82-4.53-10.78-3.84-17.02Z"/></g><g id="uuid-db455a66-8aab-49d0-a08b-5e96b29712ab"><path class="uuid-44026250-97a7-4dd1-90fb-8e183b7186b6" d="M249.49,174.04c-1.01,1.57-3.2,2.93-5.09,2.35-.84-.26-1.57-.81-2.28-1.29-1.28-.86-2.56-1.71-3.88-2.5-2.44-1.47-4.99-2.91-7.71-3.81-1.18-.4-2.41-.56-3.62-.85-.86-.2-1.51-.52-1.49-1.5,.02-1.1,.43-2.27,.7-3.31,.2-.78,.45-1.69,1.13-2.19,1.32-.98,3.51,.14,4.75,.72,2.81,1.33,5.38,3.11,8.03,4.71,2.26,1.36,4.54,2.26,7.03,3.08,1.41,.47,3.1,1.12,3,2.9-.02,.6-.25,1.18-.57,1.69Z"/></g><g class="uuid-ab6c9757-0b5d-478e-b424-2b10e4e00673"><g id="uuid-b8a5c70b-aeca-4737-9dd4-f9ede5a9f778"><path class="uuid-27b8f622-8c6f-44da-8212-173381abd6f0" d="M199.34,410.35c-3.43-2.26-3.09-6.95-4.58-10.28-1.82-4.06-5.49-7.87-9.31-10.09-4.37-2.54-11.14-3.72-15.63-.74-3.58,2.38-7.99,8.74-4,12.48,8.28,7.84,20.2,15.37,31.13,18.73,2.36,.72,6.91,3.07,8.59,.14,1.03-1.81,1.9-4.61,.65-6.67-1.47-2.41-4.67-2.13-6.86-3.57Z"/></g><path class="uuid-8557e3f3-f8e2-4df4-8ff6-74d0afda4357" d="M171.75,404.1c-4-3.75,.42-10.11,4-12.48,2.87-1.9,6.66-2.11,10.17-1.35-.16-.1-.31-.21-.47-.3-4.37-2.54-11.14-3.72-15.63-.74-3.58,2.38-7.99,8.74-4,12.48,7.84,7.42,18.95,14.56,29.39,18.15-8.57-3.91-17.1-9.75-23.46-15.78Z"/></g><g id="uuid-eb923ec2-299d-4bfc-85b3-29dd7be95c20"><path class="uuid-f469f0a8-6a06-4817-a8b7-389d90ac398f" d="M246.57,324.69c-1.33,5.55-1.29,11.3-5.46,15.84-1.02,1.12-2.21,2.06-3.43,2.96-.86,.64-1.74,1.25-2.58,1.89-1.99,1.5-3.91,3.11-5.72,4.84-3.51,3.32-6.52,7.07-9.39,10.96-3.36,4.54-6.57,9.29-10.43,13.45-1.78,1.92-3.78,3.62-5.79,5.31-1.29,1.09-2.67,2.19-3.59,3.62-.74,1.15-1.02,2.51-1.71,3.67-.87,1.44-2.55,2.06-3.6,3.34-.99,1.19-1.51,2.71-1.28,4.24,.22,1.41,1.23,3.18-.33,4.14-1.41,.86-3.31,.98-4.87,1.33-2.69,.61-5.03,1.2-7.61-.06-2.98-1.46-4.62-3.9-6.42-6.57-.73-1.11-1.69-1.75-2.7-2.6-1.01-.85-1.42-1.98-1.49-3.26-.1-2.05,.62-4.04,1.86-5.66,1.5-1.98,3.54-3.54,5.4-5.18,1.93-1.69,3.86-3.42,5.7-5.22,3.75-3.7,7.08-7.72,10.08-12.07,3.06-4.43,5.84-9.05,8.92-13.47,2.97-4.24,6.29-8.06,10.24-11.45,3.58-3.06,8.05-5.95,10.23-10.28,.96-1.9,1.43-4.04,2.12-6.05,2.55-7.44,.52-15.93-.1-23.71-.52-6.45-.82-13.64,3.3-18.64,1.48,.36,2.97,.71,4.45,1.07,1.33-.28,2.77-.15,4.08,.3,.92,.31,1.78,.77,2.58,1.31,1.55,.38,3.1,.75,4.65,1.13l-1.07,2.04c3.89,4.17,6.74,9.35,8.27,14.87,.57,2.03,.96,4.11,1.15,6.2,.72,7.93-3.62,14.11-5.44,21.71Z"/></g><path class="uuid-9fb2a814-4f1f-4c7f-888a-9ca6da8b0972" d="M179.92,399.19c-.73-1.11-1.69-1.75-2.7-2.6-1.01-.85-1.42-1.98-1.49-3.26-.1-2.05,.62-4.04,1.86-5.66,1.5-1.98,3.54-3.54,5.4-5.18,1.93-1.69,3.86-3.42,5.7-5.22,3.75-3.7,7.08-7.72,10.08-12.07,3.06-4.43,5.84-9.05,8.92-13.47,2.97-4.24,6.29-8.06,10.24-11.45,3.58-3.06,8.05-5.95,10.23-10.28,.96-1.9,1.43-4.04,2.12-6.05,2.55-7.44,.52-15.93-.1-23.71-.52-6.45-.82-13.64,3.3-18.64,1.48,.36,2.97,.71,4.45,1.07,1.33-.28,2.77-.15,4.08,.3,.92,.31,1.78,.77,2.58,1.31h.04c-.64-.81-1.3-1.62-2.01-2.38l1.07-2.04c-1.55-.38-3.1-.75-4.65-1.13-.8-.55-1.66-1-2.58-1.31-1.3-.44-2.75-.57-4.08-.3-1.48-.36-2.97-.71-4.45-1.07-4.12,5-3.82,12.19-3.3,18.64,.62,7.78,2.65,16.26,.1,23.71-.68,2.01-1.16,4.15-2.12,6.05-2.17,4.34-6.65,7.22-10.23,10.28-3.95,3.38-7.27,7.2-10.24,11.45-3.08,4.42-5.86,9.04-8.92,13.47-3,4.35-6.32,8.37-10.08,12.07-1.84,1.8-3.76,3.53-5.7,5.22-1.86,1.64-3.9,3.2-5.4,5.18-1.24,1.62-1.96,3.61-1.86,5.66,.06,1.29,.48,2.41,1.49,3.26,1.01,.85,1.97,1.49,2.7,2.6,1.73,2.58,3.34,4.94,6.14,6.42-.19-.29-.39-.57-.58-.87Z"/><path class="uuid-b1493223-bc8c-4603-80f0-d69e6e660d9a" d="M246.57,324.69c-1.33,5.55-1.29,11.3-5.46,15.84-1.02,1.12-2.21,2.06-3.43,2.96-1.22-8.33,2.47-13.63,2.39-21.8-.07-8.29-7.31-12.06-8.26-19.22-.31-2.3-.58-4.6-.86-6.91-.67-5.76-1.55-12.64,5.87-9.99,1.04,.37,2.08,.85,3.1,1.42,4.14,2.29,7.98,6.02,10.94,9.77,.57,2.03,.96,4.11,1.15,6.2,.72,7.93-3.62,14.11-5.44,21.71Z"/><g id="uuid-ef894d47-bf8a-4c26-89c8-9d68a86bf130"><path class="uuid-2ba796d8-3b28-4e59-a5a5-a8af7307a5a3" d="M227.19,277.93c.25,2.6,.78,5.17,2.02,7.49,1.01,1.89,2.45,3.51,3.95,5.02,2.07,2.05,4.37,3.86,6.4,5.95,1.95,2.01,3.45,4.36,4.82,6.79,3.11,5.51,6,11.18,9.64,16.38,1.63,2.32,3.73,4.25,5.38,6.55,.94,1.32,1.11,2.93,1.9,4.31,.96,1.63,2.44,2.77,2.94,4.67,.34,1.32,.32,2.72-.11,4.02-.39,1.17-.98,2.27-1.39,3.44-.45,1.26-.77,2.56-1.02,3.87-.45,2.38-.71,4.8-.96,7.21-.75,7.2-1.51,14.39-2.23,21.6-.31,3.06-.58,6.13-.72,9.21-.11,2.31-.26,4.77,.26,7.03,.4,1.78,1.34,3.02,.68,4.89-.56,1.56-1.71,2.76-2.43,4.23-.93,1.94-1.11,4.23-1.37,6.34-.17,1.32-.66,3.4,.13,4.67,.84,1.34,3.07,.92,4.35,.72,2.77-.43,5.55-1.06,8.19-2.02,2.35-.85,4.57-2.02,6.68-3.36,1.92-1.23,4.36-2.7,5.51-4.75,.95-1.69,.78-3.82,.86-5.68,.1-2.62,.97-5.03,1.34-7.6,.86-5.81-.11-11.76,.69-17.59,.42-3.06,1.23-6.04,1.75-9.07,.49-2.88,.4-5.75,.46-8.67,.04-2.14,.32-4.17,1.1-6.16,.81-2.08,2.08-4.06,2.32-6.33,.26-2.58-.19-5.33-.48-7.88-.33-2.87-.74-5.79-1.64-8.54-.93-2.85-2.6-5.38-3.69-8.16-1.26-3.17-2.22-6.45-3.29-9.7-1.95-5.97-4.41-11.75-6.7-17.59-1.1-2.8-2.04-5.67-3.2-8.46-.63-1.54-1.32-2.93-2.53-4.08-1.04-.99-1.7-1.95-2.24-3.29"/></g><path class="uuid-335ceef0-f206-4c90-ae1a-5a4de430d079" d="M264.96,406.89c.27-2.1,.44-4.39,1.37-6.34,.72-1.47,1.87-2.67,2.43-4.23,.67-1.87-.28-3.1-.68-4.89-.52-2.27-.37-4.73-.26-7.03,.14-3.08,.41-6.15,.72-9.21,.72-7.21,1.48-14.4,2.23-21.6,.25-2.41,.5-4.82,.96-7.21,.25-1.31,.57-2.61,1.02-3.87,.41-1.17,1-2.27,1.39-3.44,.43-1.3,.45-2.7,.11-4.02-.5-1.9-1.99-3.04-2.94-4.67-.79-1.37-.96-2.99-1.9-4.31-1.65-2.3-3.75-4.23-5.38-6.55-3.64-5.2-6.53-10.87-9.64-16.38-1.37-2.43-2.87-4.78-4.82-6.79-2.03-2.09-4.33-3.9-6.4-5.95-1.5-1.5-2.94-3.13-3.95-5.02-1.23-2.32-1.77-4.89-2.02-7.49l27.93-3.42c-.2-.36-.39-.74-.57-1.16l-37.36,4.57c.25,2.6,.78,5.17,2.02,7.49,1.01,1.89,2.45,3.51,3.95,5.02,2.07,2.05,4.37,3.86,6.4,5.95,1.95,2.01,3.45,4.36,4.82,6.79,3.11,5.51,6,11.18,9.64,16.38,1.63,2.32,3.73,4.25,5.38,6.55,.95,1.32,1.11,2.93,1.9,4.31,.96,1.63,2.44,2.77,2.94,4.67,.34,1.32,.32,2.72-.11,4.02-.39,1.17-.98,2.27-1.39,3.44-.45,1.26-.77,2.56-1.02,3.87-.45,2.38-.71,4.8-.96,7.21-.75,7.2-1.51,14.39-2.23,21.6-.31,3.06-.58,6.13-.72,9.21-.11,2.31-.26,4.77,.26,7.03,.4,1.78,1.34,3.02,.68,4.89-.56,1.56-1.71,2.76-2.43,4.23-.93,1.94-1.11,4.23-1.37,6.34-.17,1.32-.66,3.4,.13,4.67,.84,1.34,3.07,.92,4.35,.72,1.83-.28,3.65-.67,5.44-1.16-.47-1.27-.08-3.05,.08-4.23Z"/><g id="uuid-2b67ad20-5c22-47e2-9742-68c1181af197"><path class="uuid-de944532-76d2-46a0-9c2c-8859deb66c2b" d="M225.43,166.68c-1.02,1.03-2.02,2.07-2.97,3.16-4.05,4.63-6.72,10.05-7.76,16.13-1.04,6.02-.27,12.03,.9,17.98,1.26,6.39,2.66,12.76,3.89,19.16,1.15,6.02,1.99,12.09,2.6,18.2,.63,6.28-.69,11.92-.65,18.19,.03,4.35-1.86,8.37-1.57,12.68,.2,3.04,.61,7.55,3.52,9.18,1.56,.87,3.38,1.11,5.16,1.33,9.56,1.17,14.66,2.58,23.9-.7,4.34-1.53,9.36-1.78,13.45-3.96,1.52-.81,2.47-1.22,2.87-2.96,.17-.72-.23-4.21-1.38-4.18,1.73-.04,2.69-2.28,2.13-3.92-.82-2.4-2.67-3.2-3.33-5.72-.85-3.22-.71-6.98-1.02-10.29l-1.48-15.8c-1.06-8.27-2.07-16.56-3.31-24.81-1.26-8.38-2.27-16.98-4.77-25.1-1.3-4.22-3.35-7.79-6.11-11.21l-24.06-7.37Z"/></g><path class="uuid-8557e3f3-f8e2-4df4-8ff6-74d0afda4357" d="M236.76,282.68c-1.77-.22-3.6-.45-5.16-1.33-2.91-1.63-3.32-6.15-3.52-9.18-.29-4.31,1.59-8.33,1.57-12.68-.04-6.27,1.28-11.91,.65-18.19-.61-6.11-1.45-12.18-2.6-18.2-1.22-6.4-2.63-12.77-3.89-19.16-1.17-5.95-1.94-11.95-.9-17.98,1.04-6.08,3.72-11.5,7.76-16.13,.36-.41,.74-.81,1.11-1.21l-6.35-1.95c-1.02,1.03-2.02,2.07-2.97,3.16-4.05,4.63-6.72,10.05-7.76,16.13-1.04,6.02-.27,12.03,.9,17.98,1.26,6.39,2.66,12.76,3.89,19.16,1.15,6.02,1.99,12.09,2.6,18.2,.63,6.28-.69,11.92-.65,18.19,.03,4.35-1.86,8.37-1.57,12.68,.2,3.04,.61,7.55,3.52,9.18,1.56,.87,3.38,1.11,5.16,1.33,6.81,.83,11.36,1.78,16.74,1.08-2.55-.26-5.28-.68-8.52-1.08Z"/><path class="uuid-a301ef0a-6719-4d36-af37-083da5c7f5ba" d="M224.13,230.5c1.05,4.91,2.25,10.1,5.78,13.67,2.63,2.66,6.22,4.07,9.71,5.41,8.03,3.09,16.05,6.19,24.08,9.28-.24-5.21-.47-10.42-.71-15.64-9.9-3.73-18.98-9.58-26.55-16.97-3.81-3.72-7.24-7.83-10.2-12.26-1.51-2.25-5.18-10.44-5.92-3.52-.66,6.18,2.52,13.98,3.82,20.02Z"/><path class="uuid-4db06c02-82ca-4b13-9f5d-aef88a1ad9ff" d="M247.81,205.22c1.32,9.19-1.33,18.74,.93,27.74-.38-1.5-3.28-3.84-4.24-5.21-1.32-1.9-2.5-3.89-3.53-5.96-2.1-4.21-3.58-8.73-4.41-13.37-.83-4.63-1-9.38-.48-14.06,.31-2.76,1.68-11.72,5.34-6.46,3.32,4.78,5.58,11.61,6.4,17.32Z"/><g id="uuid-7325d3a9-986e-4a8e-b816-ad9c4c1f3297"><path class="uuid-27b8f622-8c6f-44da-8212-173381abd6f0" d="M256.11,412.34c-.69,2.67-.81,6.04-.03,8.71,.75,2.59,3.46,2.57,5.7,2.66,8.1,.37,16.24,.19,24.35,.14,4.41-.03,8.84,.02,13.25-.21,2.01-.11,5.59,.09,6.91-1.91,1.11-1.7,.55-4.53-.04-6.28-.41-1.21-1.03-1.98-2.3-2.3-1.68-.43-3.49-.44-5.2-.62-2.89-.31-5.64-.95-8.05-2.62-2.85-1.99-5.03-4.68-8.13-6.33-.9-.47-1.81-.91-2.73-1.36"/></g><g><g id="uuid-5841ad51-ae50-4b22-900a-30c43d7ae0c3"><path class="uuid-693f42fd-99ea-4df6-8e65-c8c38864bf2b" d="M329.83,201.18c.04,.21-.02,.5,0,.83,.04,.63,.07,1.26,.11,1.89l1.2,19.96c.23,3.9,.47,7.8,.7,11.7,.38,6.26,.74,12.52,1.12,18.78,.09,1.43,.17,2.88,.25,4.31-9.29,.55-18.59,1.11-27.88,1.66-1.29,.08-2.59,.15-3.88,.23l-16.32,.98c-6.45,.38-12.89,.77-19.34,1.15l-.58,.03c-.95,.06-1.9,.12-2.85,.17-.38-6.5-.78-13.01-1.16-19.52-.62-10.38-1.24-20.74-1.86-31.12-.15-2.39-.28-4.77-.43-7.16,.06,.12,1.89-.11,2.05-.12,1.87-.11,3.74-.23,5.61-.33,6.02-.36,12.04-.71,18.05-1.07,7.13-.43,14.26-.85,21.4-1.28,5.79-.34,11.58-.69,17.37-1.03,1.66-.1,3.32-.2,4.97-.3,.31-.02,.87-.16,1.17-.07,.17,.05,.25,.16,.28,.3Z"/></g><g><rect class="uuid-693f42fd-99ea-4df6-8e65-c8c38864bf2b" x="260.97" y="203.07" width="71.52" height="56.93" transform="translate(-11.14 15.04) rotate(-2.85)"/><rect class="uuid-e868db71-a4ae-41a4-a8ea-30090eef0eb7" x="291.12" y="203.08" width="10.14" height="35.18" transform="translate(-10.6 14.99) rotate(-2.85)"/></g><path class="uuid-2399bc4c-79d7-4594-8406-32c9d9b0a482" d="M330.89,201.51c.04,.21-.02,.5,0,.83,.04,.63,.07,1.26,.11,1.89l1.2,19.96c.23,3.9,.47,7.8,.7,11.7,.38,6.26,.74,12.52,1.12,18.78,.09,1.43,.17,2.88,.25,4.31-9.29,.55-18.59,1.11-27.88,1.66-1.29,.08-2.58,.15-3.88,.23l-16.32,.98c-6.45,.38-12.89,.77-19.34,1.15l-4.49-.13,62.88-10.03,4.18-51.56,1.45,.23Z"/><rect class="uuid-4e690f62-1f61-4671-8576-0e68ee8f16b6" x="318.23" y="242.75" width="10.88" height="10.88" transform="translate(-11.94 16.4) rotate(-2.85)"/><rect class="uuid-4e690f62-1f61-4671-8576-0e68ee8f16b6" x="303.73" y="245.68" width="10.88" height="1.69" transform="translate(-11.87 15.67) rotate(-2.85)"/><rect class="uuid-4e690f62-1f61-4671-8576-0e68ee8f16b6" x="303.93" y="249.62" width="10.88" height="1.69" transform="translate(-12.07 15.69) rotate(-2.85)"/></g><g id="uuid-f4288635-4b7d-4c29-991b-51fbd5054806"><path class="uuid-3a5615a1-2f86-4beb-adc8-3c0b63aaf3de" d="M296.57,246.87c-1.53,.03-3.04,.51-4.61,.55-3.58,.09-6.73-1.89-9.84-3.4-10.63-5.15-21.9-10.02-31.78-16.52-2.48-1.63-10.39-19.62-9.06-19.87-5.96,1.1-11.92,2.21-17.88,3.31,2.47,8.33,3.35,24.09,12.76,28.01,7.39,3.08,14.69,6.55,22.19,9.35,7.94,2.95,16.43,4.02,24.39,6.89,6.23,2.25,11.02,8.82,17.94,8.89,1.36,.01,2.71-.18,4.06-.37,1.42-.2,2.84-.4,4.26-.6,.74-.1,1.49-.22,2.14-.59,.64-.37,1.15-1.08,1.07-1.82-.69,.11-2.64-2.04-3.56-2.36-2.05-.7-3.78-1.39-4.54-3.47,1.05,3.15,5.35,2.12,7.53,1.16-3.52-2.98-8.82-7.72-13.34-8.96-.58-.16-1.16-.21-1.73-.2Z"/></g><g class="uuid-c57ed5d4-3e36-4640-b3e5-e3c1363cf699"><path class="uuid-626f4e07-2f1a-421a-9ee6-f08cd0e84c49" d="M309.75,255.49c.2,.38,.45,.7,.73,.98,.05-.02,.11-.03,.16-.05-.35-.23-.65-.53-.89-.93Z"/><path class="uuid-626f4e07-2f1a-421a-9ee6-f08cd0e84c49" d="M297.32,247.42c.53-.01,1.05-.08,1.57-.16-.2-.07-.4-.14-.59-.19-.58-.16-1.16-.21-1.73-.2-.67,.01-1.33,.12-2,.23,.89,.22,1.81,.35,2.75,.32Z"/><path class="uuid-626f4e07-2f1a-421a-9ee6-f08cd0e84c49" d="M288.09,255.18c-7.96-2.87-16.45-3.94-24.39-6.89-7.5-2.79-14.79-6.27-22.19-9.35-9.41-3.92-10.29-19.68-12.76-28.01,4.15-.77,8.3-1.54,12.45-2.3-.12-.6-.12-.97,.06-1-5.96,1.1-11.92,2.21-17.88,3.31,2.47,8.33,3.35,24.09,12.76,28.01,7.39,3.08,14.69,6.55,22.19,9.35,7.94,2.95,16.43,4.02,24.39,6.89,6.23,2.25,11.02,8.82,17.94,8.89,1.07,.01,2.14-.11,3.2-.25-5.8-1.2-10.22-6.64-15.78-8.64Z"/></g><g id="uuid-b323f6bc-2dee-4b9e-bac4-908402bab752"><path class="uuid-c822e5c5-9cfc-43e8-a4a9-a40d390fc247" d="M243.17,187.67c.16,.75,.31,1.49,.46,2.24,1.04,5.37-.05,10.81-.02,16.22,.01,1.47,.16,2.93,.3,4.39,.06,.7,.17,1.44,.06,2.14-.28,1.8-2.47,1.22-3.74,1.01-4.78-.81-9.7-.72-14.16,1.39-.91,.43-1.87,1.14-2.88,1.33-.89,.18-1.16-.48-1.34-1.25-.55-2.34-.75-4.74-1.39-7.08-.78-2.93-1.74-5.81-2.55-8.73-.73-2.65-1.06-5.31-1.33-8.04-.66-6.72-.83-15.1,7.31-17.38,6.86-1.92,17.84,7.13,19.26,13.76Z"/></g><path class="uuid-a301ef0a-6719-4d36-af37-083da5c7f5ba" d="M225.77,215.14c-.55-2.34-.75-4.74-1.39-7.08-.78-2.93-1.74-5.81-2.55-8.73-.73-2.65-1.06-5.3-1.33-8.04-.66-6.72-.83-15.1,7.32-17.38,.05-.01,.11-.02,.16-.04-1.44-.3-2.83-.31-4.08,.04-8.14,2.28-7.98,10.67-7.31,17.38,.27,2.73,.6,5.38,1.33,8.04,.81,2.92,1.76,5.8,2.55,8.73,.63,2.34,.84,4.74,1.39,7.08,.18,.76,.45,1.43,1.34,1.25,.9-.17,1.76-.75,2.59-1.18,0-.02-.01-.04-.02-.06Z"/></g><path class="uuid-de944532-76d2-46a0-9c2c-8859deb66c2b" d="M225.98,135.09c2.54-1.06,8.79-2.3,9.6-2.15,1.81,.33,3.62,1.06,5.43,.74,1.6-.29,3.1-1.52,4.62-2.14,2.42-.99,4.89-1.32,7.46-1.72,3.47-.54,6.58-.73,9.95,.59,.49,.19,1.03,.42,1.54,.28,1.68-.46,1.18-5,.81-6.15-.78-2.43-3.05-5.02-4.73-6.87-3.64-4.01-8.54-6.92-14.08-6.92-5.63,0-11.92,1.55-16.15,5.69-4.43,4.32-8.09,13.56-5.5,19.51-.1-.24,.32-.53,1.05-.83Z"/><g><path class="uuid-2ec5d412-4b68-4ca4-99d3-2bcaacf43d06" d="M242.76,132.94c-.41-.08-2.24,.21-4.27,.65,.84,.16,1.68,.24,2.52,.09,.64-.12,1.27-.39,1.89-.71-.05,0-.09-.02-.14-.03Z"/><path class="uuid-8557e3f3-f8e2-4df4-8ff6-74d0afda4357" d="M237.6,116.42c3.21-3.14,7.6-4.78,11.99-5.4-.98-.19-1.98-.29-3.01-.29-5.63,0-11.92,1.55-16.15,5.69-4.43,4.32-8.09,13.56-5.5,19.51-.1-.24,.32-.53,1.05-.83,1.27-.53,3.46-1.1,5.44-1.53-.98-5.82,2.31-13.36,6.18-17.15Z"/><path class="uuid-2ec5d412-4b68-4ca4-99d3-2bcaacf43d06" d="M260.79,129.73c.74,.16,1.49,.37,2.25,.67,.49,.19,1.03,.42,1.54,.28,.49-.13,.79-.62,.96-1.25-1.55-.07-3.12,.07-4.76,.31Z"/></g><path class="uuid-626f4e07-2f1a-421a-9ee6-f08cd0e84c49" d="M252.05,115.03c3.41-.75,6.89,1.61,8.58,4.66,1.68,3.06,1.98,6.66,2.24,10.14-.06-.81-15.85,1.37-16.89,1.45-2.01-5.1-.29-14.85,6.07-16.26Z"/><path class="uuid-35ac932d-9c00-452c-9c75-2d8f9b4c8f68" d="M242.19,133.76c-.37,0-.74-.04-1.09-.1-1.12-.19-2.22-1.05-2.29-2.18-.23-3.79,10.26-5.4,12.68-5.7,5.97-.75,11.93-.02,17.73,1.45,1.27,.32,2.61,.79,3.36,1.87,2.75,4-4.8,3.4-6.56,3.34-5.04-.16-10.06-.18-15.1,.1-2.68,.15-5.95,1.31-8.73,1.24Z"/><path class="uuid-de944532-76d2-46a0-9c2c-8859deb66c2b" d="M266.01,130.28c-5.04-.16-10.06-.18-15.1,.1-4.49,.26-8.84,1.85-13.11,3.1,4.52,.02,8.67-.76,13.11-.96,5.03-.29,10.06-.27,15.1-.1,1.72,.06,8.92,.63,6.75-3.04-1.32,1.26-5.49,.94-6.75,.9Z"/><path class="uuid-c0d21008-4a1a-4535-b045-f089ffe3e4d3" d="M229.97,277.67c9.93,2.97,20.81,2.7,30.57-.78,3.32-1.22,4.87-3.08,7.26-5.68-4.81,1.53-9.85,3.32-14.8,4.29-6.25,1.23-16.79,4.03-23.03,2.16Z"/><path class="uuid-93721c08-2ed9-4161-8628-1c553a1c1b8f" d="M309.31,261.63c-2.02-.69-4.1-1.37-6.18-1.83-.52-.12-.94,.69-.39,.92,2.01,.85,4.14,1.52,6.23,2.14,.8,.23,1.11-.97,.34-1.23Z"/><path class="uuid-93721c08-2ed9-4161-8628-1c553a1c1b8f" d="M304.63,263.54c-1.88-.8-4-1.24-5.99-1.69-.46-.1-.62,.53-.19,.69,1.87,.7,3.85,1.51,5.81,1.87,.49,.09,.9-.65,.37-.87Z"/></g></g></g></g></svg>