<?xml version="1.0" encoding="UTF-8"?><svg id="uuid-3cf9c05e-dbcb-4230-b72c-4cbe4773cdf4" xmlns="http://www.w3.org/2000/svg" viewBox="0 0 512 512"><defs><style>.uuid-47804c20-d636-4704-8c32-81c75a03bac3{fill:#23a6ff;}.uuid-a98294f2-bb9c-4a99-ac39-631bc8b0db2a{fill:#277680;}.uuid-100201fb-1234-4b0f-b782-c195693ae47d{fill:#ff7474;}.uuid-b799826a-bf7b-4bf9-b840-2cf4b805d2d9{fill:#1398e2;}.uuid-189ad566-3b91-4b17-bea5-5a5c41913de0{fill:#164151;}.uuid-316ae1d8-b74f-422f-8759-0fcd0d19e82e{fill:#e1e0f0;}.uuid-a96a632b-b521-47d3-a126-0ee4fc30dc11{fill:#ffb93e;}.uuid-0cb5c8b2-279a-427b-b82b-a2169ffd3cd7{fill:#0c4e5e;}.uuid-d4432138-fe5b-4932-b3b0-a7420fd96d1a{fill:#ffa412;}.uuid-2ff1d527-9607-4764-997a-482ac2b457b0{fill:#0c5c6c;}.uuid-5b9c7bab-7f3a-460e-a8a4-a2149e33446c{fill:#b7b7e3;}.uuid-78327c2a-7f42-4bdf-9041-5c154a36648e{fill:#161616;}.uuid-c70629b0-6c57-4e0d-9c3f-ab7c05f2e714{fill:#515151;}.uuid-585f74a7-4afa-4f9f-9d7a-55c487b8dc19{fill:#2d2d2d;}.uuid-54152a04-2736-4e15-b2fa-b0273abc0f90{fill:#f9877c;}.uuid-53bcbc99-2636-451d-9ed9-6ad49c54fcdb{fill:#ffad96;}.uuid-bd0673ea-a6a7-44ee-8700-f5bd875991e3{fill:#21636e;}.uuid-95fa1509-ef99-432d-8917-eb01fb5c5466{fill:#1c5c6e;}.uuid-393e7ebf-d976-4c7d-b58e-52bc042a4bb9{fill:#002d3d;}.uuid-79df724d-05e1-429f-8cc0-c648682bb0d5{fill:#046da8;}</style></defs><g><g><g><rect class="uuid-53bcbc99-2636-451d-9ed9-6ad49c54fcdb" x="371.98" y="131.38" width="15.36" height="18.8"/><path class="uuid-100201fb-1234-4b0f-b782-c195693ae47d" d="M387.34,133.31l-15.36-1.26v9.29s10.03,.43,15.36-8.03Z"/></g><g><g><g><g><g><path class="uuid-53bcbc99-2636-451d-9ed9-6ad49c54fcdb" d="M396.75,113.17c.06-.18,2.08-3.41,4.21-1.12s2.88,13.3-5.79,12.36c0,0-.83-3.93,1.57-11.24Z"/><path class="uuid-53bcbc99-2636-451d-9ed9-6ad49c54fcdb" d="M363.54,113.11c-.06-.18-2.08-3.41-4.21-1.12-2.13,2.29-2.88,13.3,5.79,12.36,0,0,.83-3.93-1.57-11.24Z"/><path class="uuid-53bcbc99-2636-451d-9ed9-6ad49c54fcdb" d="M380.03,85.62c-11.36,.48-18.72,11.36-18.72,17.82s.88,8.34,2.16,12.67c1.28,4.32,.56,4.64,1.28,7.76,.72,3.12,2,5.36,6.16,8.32,1.97,1.4,4.13,2.26,5.85,2.77,2.14,.64,4.41,.64,6.55,0,1.72-.51,3.87-1.37,5.85-2.77,4.16-2.96,5.44-5.2,6.16-8.32,.72-3.12,0-3.44,1.28-7.76,1.28-4.32,2.16-6.21,2.16-12.67s-7.36-17.34-18.72-17.82Z"/></g><g><path class="uuid-100201fb-1234-4b0f-b782-c195693ae47d" d="M397.15,117.03s.82-2.81,2.02-2.2,.44,4.7-1.11,5.1c-1.54,.4-.43-.42-.4-1.71s-.51-1.19-.51-1.19Z"/><path class="uuid-100201fb-1234-4b0f-b782-c195693ae47d" d="M362.9,116.52s-.82-2.81-2.02-2.2c-1.2,.62-.44,4.7,1.11,5.1s.43-.42,.4-1.71,.51-1.19,.51-1.19Z"/></g></g><g><g><path class="uuid-393e7ebf-d976-4c7d-b58e-52bc042a4bb9" d="M373.57,109.57s-2.04-.04-3.91,.56-2.46-.4-2.02-1.61c.44-1.21,3.72-1.68,5.62-1.07,1.9,.6,2.09,2.02,.31,2.13Z"/><g><path class="uuid-393e7ebf-d976-4c7d-b58e-52bc042a4bb9" d="M376.35,114.2s-1.74-2.14-4.4-2.29c-2.65-.15-3.96,.63-4.61,.39s-.52,1.04,1.08,1.23,4.39-.81,7.92,.66Z"/><ellipse class="uuid-393e7ebf-d976-4c7d-b58e-52bc042a4bb9" cx="371.77" cy="113.95" rx="1.41" ry="1.62"/></g></g><g><path class="uuid-393e7ebf-d976-4c7d-b58e-52bc042a4bb9" d="M386.23,109.42s2.04-.04,3.91,.56,2.46-.4,2.02-1.61c-.44-1.21-3.72-1.68-5.62-1.07s-2.09,2.02-.31,2.13Z"/><g><path class="uuid-393e7ebf-d976-4c7d-b58e-52bc042a4bb9" d="M383.45,114.05s1.74-2.14,4.4-2.29c2.65-.15,3.96,.63,4.61,.39s.52,1.04-1.08,1.23-4.39-.81-7.92,.66Z"/><ellipse class="uuid-393e7ebf-d976-4c7d-b58e-52bc042a4bb9" cx="388.03" cy="113.8" rx="1.41" ry="1.62"/></g></g></g></g><g><path class="uuid-393e7ebf-d976-4c7d-b58e-52bc042a4bb9" d="M362.67,124.22c.72,1.75,1.86,3.24,4.12,4.6,.13,.08,.26,.09,.4,.07-1.22-1.45-1.87-2.87-2.31-4.53-.83,.07-1.55,0-2.21-.14Z"/><path class="uuid-393e7ebf-d976-4c7d-b58e-52bc042a4bb9" d="M399.03,102.16c-.16-4.28-.85-11.02-3.68-12.19-2.91-1.2-10.44-4.67-14.26-5.49-.09-.06-.17-.1-.25-.13-.2-.06-.48-.06-.8-.03-.32-.02-.6-.02-.8,.03-.08,.02-.16,.07-.25,.13-3.82,.82-11.35,4.29-14.26,5.49-2.95,1.21-3.49,9.96-3.72,13.94l-.57,.13s.07,3.4,.25,7.16c.51-.08,.99,.08,1.41,.34,.42,1.65,1.46,5.39,2.45,5.79,1.27,.52,1.18-3.1,.73-6.36s-.84-9.42,2.3-10.23c2.77-.72,7.31,2.01,12.47,1.61,5.17,.4,9.71-2.33,12.47-1.61,3.14,.82,2.75,6.97,2.3,10.23-.45,3.26-.54,6.87,.73,6.36,.94-.38,1.93-3.77,2.39-5.53,.33-.26,.72-.47,1.14-.55,.41-4.66,.68-9.07,.68-9.07l-.72-.04Z"/><path class="uuid-393e7ebf-d976-4c7d-b58e-52bc042a4bb9" d="M395.18,124.4v-.02c-.52,1.97-1.35,3.62-3.1,5.37,3.07-1.57,4.13-3.25,4.82-5.34-.53,.05-1.09,.06-1.71-.01Z"/></g></g><g><g><path class="uuid-189ad566-3b91-4b17-bea5-5a5c41913de0" d="M360.24,103.87c.08-.79-1.39-18.51,16.44-23.39,2.37-.65,4.87-.64,7.23,.05,6.05,1.77,17.39,7.08,15.92,21.77l-39.59,1.57Z"/><path class="uuid-95fa1509-ef99-432d-8917-eb01fb5c5466" d="M362.59,100.38c-.06,0-.11,0-.17-.01-.56-.1-.93-.62-.83-1.18,.05-.32,1.37-7.8,6.42-12.59,5.07-4.81,11.39-5.25,11.66-5.27,.55-.04,1.04,.39,1.08,.95s-.39,1.05-.95,1.08c-.06,0-5.86,.43-10.38,4.71-4.55,4.31-5.8,11.38-5.81,11.45-.09,.5-.52,.85-1,.85Z"/></g><g><g><path class="uuid-189ad566-3b91-4b17-bea5-5a5c41913de0" d="M360.24,103.97s5.18,3.69,18.11,3.66c12.93-.03,21.48-5.33,21.48-5.33l.05-.59c-2.57-.94-11.17-2.72-17.86-3.11-7.74-.46-18.34,1.93-21.78,4.7v.67Z"/><path class="uuid-0cb5c8b2-279a-427b-b82b-a2169ffd3cd7" d="M360.24,103.3s5.27,3.18,18.2,3.15c12.93-.03,21.44-4.74,21.44-4.74,0,0-9.59-3.81-17.77-4.29-8.18-.48-19.07,3.01-21.87,5.88Z"/></g><path class="uuid-2ff1d527-9607-4764-997a-482ac2b457b0" d="M363.92,104.1c-.4,0-.78-.24-.94-.63-.22-.52,.03-1.12,.55-1.34,.39-.16,9.53-3.93,16.53-3.8,6.91,.15,15.36,2.72,15.71,2.83,.54,.16,.84,.74,.68,1.27-.16,.54-.73,.84-1.27,.68-.09-.03-8.54-2.6-15.16-2.74-.13,0-.25,0-.38,0-6.52,0-15.23,3.61-15.31,3.65-.13,.05-.26,.08-.39,.08Z"/></g></g><g><g><path class="uuid-316ae1d8-b74f-422f-8759-0fcd0d19e82e" d="M366.45,121.01s-.76,5.91,1.82,9.04c1.76,2.13,6.33,5.07,11.76,5.38,5.43,.32,12.18-4.6,13.29-6.77s1.07-8.07,.19-8.63-11.2-5.24-13.49-5.29-11.5,4.36-13.58,6.26Z"/><path class="uuid-5b9c7bab-7f3a-460e-a8a4-a2149e33446c" d="M393.93,120.91c-.05,1.7-.32,3.51-.83,4.51-1.12,2.17-7.86,7.08-13.29,6.77-5.43-.32-10.01-3.26-11.76-5.38-.95-1.15-1.45-2.68-1.7-4.16-.04,1.98,.2,5.31,1.92,7.4,1.76,2.13,6.33,5.07,11.76,5.38,5.43,.32,12.18-4.6,13.29-6.77,.9-1.74,1.04-5.9,.61-7.75Z"/></g><path class="uuid-316ae1d8-b74f-422f-8759-0fcd0d19e82e" d="M396.94,115.01s-2.31,4.57-3.28,5.86c-.56,.74,0-.29,0-.29l-2.06-1.26s3.09-2.84,5.34-4.31Z"/><path class="uuid-316ae1d8-b74f-422f-8759-0fcd0d19e82e" d="M363.47,116.1c.74,1.11,3.01,5.22,3.13,5.59,.29,.88-.04-.29-.04-.29l1.87-1.52s-1.49-1.3-3.21-2.49l-1.76-1.29Z"/></g></g></g><g><g><g><path class="uuid-585f74a7-4afa-4f9f-9d7a-55c487b8dc19" d="M414.33,365.42c-1.74-17.71-4-47.85-3.44-65.07,.68-20.85-8.08-60.75-10.16-69.88-26.81,6.98-48.47,.97-53.43-.64-.47,4.32-.74,8.38-.89,11.81h0s-3.62,40.75,.55,64.16c2.82,15.84,4.83,43.01,5.76,61.03,0,.09-.02,.17-.02,.26,.14,4.7-1.4,22.51-.02,23.5,1.39,1,5.1-.09,8.68-.68,1.24-.2,2.55-3.88,3.73-8.59,4.03-12.2,8.28-40.88,7.14-44.84-1.44-5.02-3.15-23.1-3.07-25.19,.03-.87,.9-11.2,1.97-23.68h0l5.6-24.81,10.36,33.42c1.44,6.57,2.44,11.19,2.55,11.76,.38,2.07,1.28,20.19,.58,25.31-.36,2.62,3.02,15.32,7.01,27.13h0s7.74,28.56,11.37,28.69c3.62,.13,7.44,.75,8.69-.41,1.25-1.16-2.49-18.55-2.95-23.28Z"/><path class="uuid-95fa1509-ef99-432d-8917-eb01fb5c5466" d="M346.61,256.93c-.49,0-.92-.35-1.01-.85-.09-.56,.28-1.08,.84-1.17,2.19-.36,8.25-1.71,9.91-3.53,1.49-1.64,2.96-10.28,3.54-15.34,.06-.56,.55-.96,1.13-.9,.56,.06,.96,.57,.9,1.13-.16,1.41-1.64,13.82-4.06,16.48-2.43,2.68-10.21,4.03-11.09,4.17-.06,0-.11,.01-.17,.01Z"/><path class="uuid-95fa1509-ef99-432d-8917-eb01fb5c5466" d="M404.71,256.93c-.09,0-.17-.01-.26-.03-.33-.09-8.08-2.08-10.3-3.26-2.27-1.21-3.67-11.41-4.3-17.39-.06-.56,.35-1.06,.91-1.12,.56-.05,1.06,.35,1.12,.91,.73,6.92,2.18,14.94,3.26,15.82,1.63,.86,7.64,2.51,9.82,3.07,.55,.14,.87,.7,.73,1.24-.12,.46-.53,.77-.99,.77Z"/></g><g><g><path class="uuid-393e7ebf-d976-4c7d-b58e-52bc042a4bb9" d="M352.1,388.14s-5.71,8.89-8.84,10.27-7.79,1.8-9.73,2.82-2.76,5.65-2.76,5.65c0,0,31.46-.77,33.21-1.3,1.75-.52-1.06-17.88-1.15-17.68s-8.11,1.51-10.74,.25Z"/><path class="uuid-189ad566-3b91-4b17-bea5-5a5c41913de0" d="M334.92,403.52c-.5,0-.93-.36-1.01-.87-.09-.56,.3-1.08,.85-1.16,5.04-.77,10.81-2.04,11.74-2.83,1.14-.97,4.12-5.77,5.73-8.58,.28-.49,.9-.66,1.39-.38,.49,.28,.66,.9,.38,1.39-.44,.77-4.39,7.6-6.18,9.11-1.83,1.55-10.94,3.02-12.75,3.29-.05,0-.1,.01-.16,.01Z"/></g><g><path class="uuid-393e7ebf-d976-4c7d-b58e-52bc042a4bb9" d="M417.59,388.25s5.91,8.76,9.07,10.06c3.08,1.27,7.83,1.63,9.79,2.59s2.89,5.58,2.89,5.58c0,0-31.47-.05-33.23-.53-1.77-.48,.65-17.9,.74-17.7s8.14,1.32,10.74,0Z"/><path class="uuid-189ad566-3b91-4b17-bea5-5a5c41913de0" d="M435.39,403.52c-.05,0-.1,0-.16-.01-1.81-.28-10.92-1.74-12.75-3.29-1.78-1.52-5.73-8.34-6.18-9.11-.28-.49-.11-1.11,.38-1.39,.49-.28,1.11-.11,1.39,.38,1.67,2.91,4.58,7.6,5.73,8.58,.93,.79,6.7,2.06,11.74,2.83,.56,.09,.94,.61,.85,1.16-.08,.5-.51,.87-1.01,.87Z"/></g></g></g><g><g><g><path class="uuid-b799826a-bf7b-4bf9-b840-2cf4b805d2d9" d="M387.1,141.83s.01-.05,.01-.05v.05Z"/><path class="uuid-b799826a-bf7b-4bf9-b840-2cf4b805d2d9" d="M413.64,146.85c-1.99-.89-5.36-2.12-10.32-3-8.67-1.54-15.35-4.63-15.35-4.63,0,0-.1,2.15-1.13,3.49,0,0-.78,1.47-7.42,1.4-8.31-.08-8.37-6.35-8.37-6.35,0,0-6.58,1.71-15.34,2.63-8.76,.92-12.79,3.24-12.79,3.24l-.03,.77s6.25,50.15,3.32,85.06c0,0,24.59,9.24,55.84,.66,0,0,.74-42.87,4.2-57.16,2.58-10.65,5.6-19.97,6.97-24.04,0,0,.63-2.13,.41-2.07Z"/></g><path class="uuid-b799826a-bf7b-4bf9-b840-2cf4b805d2d9" d="M378.88,145.49c-8.86,0-9.36-6.96-9.36-7.03-.04-.75,.53-1.39,1.28-1.44,.74-.04,1.39,.52,1.44,1.27,.04,.49,.53,4.68,7.14,4.47,6.92-.23,7.93-3.86,7.97-4.01,.18-.72,.91-1.17,1.64-1,.72,.17,1.18,.88,1.02,1.6-.05,.24-1.38,5.83-10.53,6.13-.2,0-.39,.01-.58,.01Z"/></g><g><g><g><rect class="uuid-bd0673ea-a6a7-44ee-8700-f5bd875991e3" x="350.3" y="158.91" width="51.92" height="46.41" transform="translate(6.78 -13.38) rotate(2.06)"/><polygon class="uuid-a98294f2-bb9c-4a99-ac39-631bc8b0db2a" points="403.03 159.86 392.81 155.72 359.17 154.46 351.15 157.99 403.03 159.86"/></g><g><rect class="uuid-a98294f2-bb9c-4a99-ac39-631bc8b0db2a" x="381.23" y="164.72" width="13.47" height="35.64" transform="translate(6.8 -13.8) rotate(2.06)"/><path class="uuid-a98294f2-bb9c-4a99-ac39-631bc8b0db2a" d="M353.37,172.14c-.56,0-1.02-.46-1.02-1.02v-9.69c0-.28,.11-.54,.31-.73,.2-.19,.46-.28,.74-.29l44.77,1.02c.56,.01,1.01,.48,1,1.04-.01,.56-.54,.99-1.04,1l-43.73-1v8.65c0,.56-.46,1.02-1.02,1.02Z"/><path class="uuid-a98294f2-bb9c-4a99-ac39-631bc8b0db2a" d="M398.03,204.03h-.03l-45.83-1.53c-.56-.02-1-.49-.99-1.06,.02-.56,.43-1,1.06-.99l45.83,1.53c.56,.02,1,.49,.99,1.06-.02,.55-.47,.99-1.02,.99Z"/></g></g><g><g><path class="uuid-585f74a7-4afa-4f9f-9d7a-55c487b8dc19" d="M413.55,146.82s5.15,3.73,7.54,13.45c2.39,9.73,8.2,33.32,7.44,40.01-.76,6.69-6.92,6.1-11.42,4.29s-9.11-22.59-10.51-28.69,2.39-27.31,6.95-29.05Z"/><path class="uuid-78327c2a-7f42-4bdf-9041-5c154a36648e" d="M406.82,179.96s18.47,7.12,21.5,14.94c1.37,3.53,1.31,17.77-4.88,17.04-6.2-.73-16.62-15.97-19.92-20.11-3.3-4.14-.51-12.23,3.3-11.87Z"/><g><path class="uuid-54152a04-2736-4e15-b2fa-b0273abc0f90" d="M399.6,177.33l-.34-.08s.37,.97,2.6,1.6,4.92,2.64,4.92,2.64l-8.64-1.31s.3,1.16,1.13,1.39,6.69,2.65,6.69,2.65l1.04,1.92-8.86-2.74s.55,1.34,1.93,1.89,4.96,2.38,5.54,2.49-7.21-.59-7.21-.59c0,0,.22,.91,1.42,1.34s2.73,1.53,3.18,2.14,4.25-2.76,4.25-2.76l.16-1.48,.03-3.72-.62-2.75s-4.01-2.62-7.22-2.63Z"/><path class="uuid-53bcbc99-2636-451d-9ed9-6ad49c54fcdb" d="M407.71,181.94s-.54-3.58-.88-4.13-3.38-1.49-4.06-1.77-3.6-.32-3.6,.45,.06,1.22,1.13,1.36,3.86,1.19,4.22,1.48,2.1,1.84,2.1,1.84c0,0-1.58-1.17-1.74-1.38s-2.79-.79-3.61-1.14-2.01-.75-2.48-.46-1.11,1.69-.44,2.29,4.42,1.73,5.36,1.97,3,1.38,3.18,1.86,.32,1.49,.32,1.49c0,0-.32-1.28-.59-1.62s-2.93-1.26-3.52-1.61c-.33-.2-3-.72-4.17-1.11-1-.34-1.41,1.31-.5,2.36,.55,.64,2.16,1.03,4.04,1.48s2.91,2.1,2.91,2.1c0,0-.82-.35-1.25-.48s-1.6-1.12-2.45-1.29-1.73-.41-2.33-.41c-1.19-.01-1.44,1.71-.66,2.37,.55,.47,3.19,1.04,3.83,2.1,.64,1.06,.78,2.19,1,2.16s2.09-.45,2.4-.85,.32-1.78,.62-1.95,1.63-1.16,1.57-1.66-.33-2.29-.29-2.7,.84-1.66-.11-2.73Z"/></g></g><path class="uuid-c70629b0-6c57-4e0d-9c3f-ab7c05f2e714" d="M427.12,193.78c-.33,0-.66-.16-.85-.46-5.56-8.37-16.44-11.02-16.55-11.05-.55-.13-.89-.68-.76-1.23,.13-.55,.69-.89,1.23-.76,.48,.11,11.77,2.88,17.78,11.91,.31,.47,.18,1.1-.29,1.42-.17,.11-.37,.17-.56,.17Z"/></g><g><g><path class="uuid-585f74a7-4afa-4f9f-9d7a-55c487b8dc19" d="M342.83,143.72s-5.15,3.73-7.54,13.45-8.2,33.32-7.44,40.01c.76,6.69,6.92,6.1,11.42,4.29,4.5-1.81,9.11-22.59,10.51-28.69,1.4-6.11-2.39-27.31-6.95-29.05Z"/><path class="uuid-78327c2a-7f42-4bdf-9041-5c154a36648e" d="M349.56,176.86s-18.47,7.12-21.5,14.94c-1.37,3.53-1.31,17.77,4.88,17.04,6.2-.73,16.62-15.97,19.92-20.11,3.3-4.14,.51-12.23-3.3-11.87Z"/><g><path class="uuid-54152a04-2736-4e15-b2fa-b0273abc0f90" d="M356.78,174.23l.34-.08s-.37,.97-2.6,1.6c-2.23,.64-4.92,2.64-4.92,2.64l8.64-1.31s-.3,1.16-1.13,1.39-6.69,2.65-6.69,2.65l-1.04,1.92,8.86-2.74s-.55,1.34-1.93,1.89-4.96,2.38-5.54,2.49,7.21-.59,7.21-.59c0,0-.22,.91-1.42,1.34s-2.73,1.53-3.18,2.14-4.25-2.76-4.25-2.76l-.16-1.48-.03-3.72,.62-2.75s4.01-2.62,7.22-2.63Z"/><path class="uuid-53bcbc99-2636-451d-9ed9-6ad49c54fcdb" d="M348.67,178.85s.54-3.58,.88-4.13,3.38-1.49,4.06-1.77,3.6-.32,3.6,.45-.06,1.22-1.13,1.36-3.86,1.19-4.22,1.48-2.1,1.84-2.1,1.84c0,0,1.58-1.17,1.74-1.38s2.79-.79,3.61-1.14,2.01-.75,2.48-.46,1.11,1.69,.44,2.29-4.42,1.73-5.36,1.97c-.94,.25-3,1.38-3.18,1.86s-.32,1.49-.32,1.49c0,0,.32-1.28,.59-1.62s2.93-1.26,3.52-1.61c.33-.2,3-.72,4.17-1.11,1-.34,1.41,1.31,.5,2.36-.55,.64-2.16,1.03-4.04,1.48-1.88,.45-2.91,2.1-2.91,2.1,0,0,.82-.35,1.25-.48s1.6-1.12,2.45-1.29,1.73-.41,2.33-.41c1.19-.01,1.44,1.71,.66,2.37-.55,.47-3.19,1.04-3.83,2.1-.64,1.06-.78,2.19-1,2.16s-2.09-.45-2.4-.85-.32-1.78-.62-1.95-1.63-1.16-1.57-1.66c.06-.49,.33-2.29,.29-2.7s-.84-1.66,.11-2.73Z"/></g></g><path class="uuid-c70629b0-6c57-4e0d-9c3f-ab7c05f2e714" d="M329.26,190.68c.33,0,.66-.16,.85-.46,5.56-8.37,16.44-11.02,16.55-11.05,.55-.13,.89-.68,.76-1.23-.13-.55-.69-.89-1.23-.76-.48,.11-11.77,2.88-17.78,11.91-.31,.47-.18,1.1,.29,1.42,.17,.11,.37,.17,.56,.17Z"/></g></g></g></g></g><g><polygon class="uuid-79df724d-05e1-429f-8cc0-c648682bb0d5" points="322.21 375.72 199.75 432.48 200.52 293.59 322.54 254.55 322.21 375.72"/><polygon class="uuid-79df724d-05e1-429f-8cc0-c648682bb0d5" points="108.64 260.12 200.52 293.59 322.21 254.55 209.6 232.29 108.64 260.12"/><polygon class="uuid-47804c20-d636-4704-8c32-81c75a03bac3" points="209.6 232.29 253.01 210.66 352.95 232.29 322.54 254.55 209.6 232.29"/><polygon class="uuid-b799826a-bf7b-4bf9-b840-2cf4b805d2d9" points="209.6 232.29 209.6 291.54 233.87 282.89 322.54 254.55 209.6 232.29"/><polygon class="uuid-b799826a-bf7b-4bf9-b840-2cf4b805d2d9" points="200.52 293.59 199.75 432.48 108.64 394.84 108.64 260.12 200.52 293.59"/><polygon class="uuid-47804c20-d636-4704-8c32-81c75a03bac3" points="200.52 293.59 228.66 343.52 352.95 294.12 322.54 254.55 200.52 293.59"/><polygon class="uuid-47804c20-d636-4704-8c32-81c75a03bac3" points="200.52 293.59 171.9 339.99 72.66 296.86 108.64 260.12 200.52 293.59"/><polygon class="uuid-47804c20-d636-4704-8c32-81c75a03bac3" points="108.64 260.12 81.57 215.95 185.24 196.12 209.6 232.29 108.64 260.12"/></g><g><polygon class="uuid-79df724d-05e1-429f-8cc0-c648682bb0d5" points="354.5 409.46 316.02 427.3 316.26 383.65 354.6 371.39 354.5 409.46"/><polygon class="uuid-79df724d-05e1-429f-8cc0-c648682bb0d5" points="287.39 373.14 316.26 383.65 354.5 371.39 319.11 364.39 287.39 373.14"/><polygon class="uuid-47804c20-d636-4704-8c32-81c75a03bac3" points="319.11 364.39 332.75 357.59 364.16 364.39 354.6 371.39 319.11 364.39"/><polygon class="uuid-b799826a-bf7b-4bf9-b840-2cf4b805d2d9" points="319.11 364.39 319.11 383.01 326.74 380.29 354.6 371.39 319.11 364.39"/><polygon class="uuid-b799826a-bf7b-4bf9-b840-2cf4b805d2d9" points="316.26 383.65 316.02 427.3 287.39 415.47 287.39 373.14 316.26 383.65"/><polygon class="uuid-47804c20-d636-4704-8c32-81c75a03bac3" points="316.26 383.65 325.1 399.34 364.16 383.82 354.6 371.39 316.26 383.65"/><polygon class="uuid-47804c20-d636-4704-8c32-81c75a03bac3" points="316.26 383.65 307.27 398.23 276.08 384.68 287.39 373.14 316.26 383.65"/><polygon class="uuid-47804c20-d636-4704-8c32-81c75a03bac3" points="287.39 373.14 278.88 359.25 311.46 353.02 319.11 364.39 287.39 373.14"/></g><g><polygon class="uuid-79df724d-05e1-429f-8cc0-c648682bb0d5" points="254.48 202.37 225.11 215.98 225.3 182.68 254.56 173.31 254.48 202.37"/><polygon class="uuid-79df724d-05e1-429f-8cc0-c648682bb0d5" points="203.26 174.65 225.3 182.68 254.48 173.31 227.47 167.98 203.26 174.65"/><polygon class="uuid-47804c20-d636-4704-8c32-81c75a03bac3" points="227.47 167.98 237.88 162.79 261.85 167.98 254.56 173.31 227.47 167.98"/><polygon class="uuid-b799826a-bf7b-4bf9-b840-2cf4b805d2d9" points="227.47 167.98 227.47 182.18 233.29 180.11 254.56 173.31 227.47 167.98"/><polygon class="uuid-b799826a-bf7b-4bf9-b840-2cf4b805d2d9" points="225.3 182.68 225.11 215.98 203.26 206.95 203.26 174.65 225.3 182.68"/><polygon class="uuid-47804c20-d636-4704-8c32-81c75a03bac3" points="225.3 182.68 232.04 194.65 261.85 182.8 254.56 173.31 225.3 182.68"/><polygon class="uuid-47804c20-d636-4704-8c32-81c75a03bac3" points="225.3 182.68 218.43 193.8 194.64 183.46 203.26 174.65 225.3 182.68"/><polygon class="uuid-47804c20-d636-4704-8c32-81c75a03bac3" points="203.26 174.65 196.77 164.06 221.63 159.3 227.47 167.98 203.26 174.65"/></g><g><path class="uuid-a96a632b-b521-47d3-a126-0ee4fc30dc11" d="M215.37,283.57c-.19,.12-.39,.23-.59,.34-.07,.04-.13,.07-.2,.11-.15,.08-.31,.16-.46,.24-7.44,3.66-16.52,.85-20.57-6.49-3.86-7-1.78-15.67,4.55-20.23,.51-.36,1.04-.7,1.59-1.01,.2-.11,.4-.22,.61-.32,.2-.1,.4-.19,.6-.28,.61-.27,1.23-.5,1.86-.69,.93-.28,1.88-.47,2.83-.57,2.94-.31,5.91,.23,8.53,1.51,2.79,1.36,5.2,3.57,6.81,6.49,4.06,7.36,1.56,16.57-5.56,20.89Z"/><path class="uuid-d4432138-fe5b-4932-b3b0-a7420fd96d1a" d="M207.34,284.63c-5.19,0-9.98-2.82-12.48-7.37-1.84-3.33-2.27-7.18-1.21-10.83,1.06-3.65,3.47-6.68,6.8-8.51,2.1-1.16,4.48-1.77,6.86-1.77,5.19,0,9.98,2.82,12.48,7.37,1.84,3.33,2.27,7.18,1.21,10.83-1.06,3.65-3.47,6.68-6.8,8.51-2.1,1.16-4.48,1.77-6.86,1.77Zm-.02-27.64c-2.24,0-4.47,.58-6.45,1.67-3.13,1.73-5.4,4.57-6.4,8.01-.99,3.44-.59,7.05,1.14,10.19,2.36,4.27,6.85,6.93,11.74,6.93,2.24,0,4.47-.58,6.45-1.67,3.13-1.73,5.4-4.57,6.4-8.01,.99-3.44,.59-7.05-1.14-10.19-2.36-4.27-6.85-6.93-11.74-6.93Z"/><polygon class="uuid-d4432138-fe5b-4932-b3b0-a7420fd96d1a" points="207.33 259.9 210.47 266.26 217.49 267.28 212.41 272.24 213.61 279.23 207.33 275.93 201.05 279.23 202.25 272.24 197.17 267.28 204.19 266.26 207.33 259.9"/></g><g><path class="uuid-a96a632b-b521-47d3-a126-0ee4fc30dc11" d="M224.74,250.65c-.11,.07-.22,.13-.33,.19-.04,.02-.08,.04-.11,.06-.09,.05-.17,.09-.26,.13-4.2,2.06-9.32,.48-11.61-3.66-2.18-3.95-1.01-8.85,2.57-11.42,.29-.2,.58-.4,.9-.57,.11-.06,.23-.12,.34-.18,.11-.06,.22-.11,.34-.16,.35-.15,.7-.28,1.05-.39,.53-.16,1.06-.27,1.6-.32,1.66-.18,3.33,.13,4.82,.85,1.57,.77,2.93,2.01,3.84,3.66,2.29,4.15,.88,9.35-3.14,11.79Z"/><path class="uuid-d4432138-fe5b-4932-b3b0-a7420fd96d1a" d="M220.21,251.24c-2.93,0-5.63-1.59-7.05-4.16-1.04-1.88-1.28-4.05-.68-6.11,.6-2.06,1.96-3.77,3.84-4.81,1.19-.65,2.53-1,3.87-1,2.93,0,5.63,1.59,7.05,4.16,1.04,1.88,1.28,4.05,.68,6.11-.6,2.06-1.96,3.77-3.84,4.81-1.19,.65-2.53,1-3.87,1Zm-.01-15.6c-1.27,0-2.53,.33-3.64,.94-1.77,.97-3.05,2.58-3.61,4.52-.56,1.94-.33,3.98,.64,5.75,1.33,2.41,3.87,3.91,6.63,3.91,1.27,0,2.53-.33,3.64-.94,1.77-.97,3.05-2.58,3.61-4.52,.56-1.94,.33-3.98-.64-5.75-1.33-2.41-3.87-3.91-6.63-3.91Z"/><polygon class="uuid-d4432138-fe5b-4932-b3b0-a7420fd96d1a" points="220.2 237.29 221.97 240.88 225.94 241.46 223.07 244.25 223.75 248.2 220.2 246.34 216.66 248.2 217.33 244.25 214.46 241.46 218.43 240.88 220.2 237.29"/></g></svg>