<?xml version="1.0" encoding="UTF-8"?><svg xmlns="http://www.w3.org/2000/svg" xmlns:xlink="http://www.w3.org/1999/xlink" viewBox="0 0 512 512"><defs><style>.uuid-5979b587-5b4e-4eee-99ce-5e6d1fd7bb9e{fill:#a7a7a7;}.uuid-2e5137e5-2cc6-4d14-99b3-3cd3b8f8db57{fill:url(#uuid-1842dc3f-e48b-4fba-bdf6-ad1fe6acebb0);}.uuid-2e5137e5-2cc6-4d14-99b3-3cd3b8f8db57,.uuid-94cde886-f6e1-4804-a901-78506671b178,.uuid-b3c00aa6-d59d-45e3-947d-489b4c272dcd,.uuid-973e61cb-057c-417c-9096-634136572c2d,.uuid-bef0f28d-495a-49d8-ab8f-3a31c1f755f2,.uuid-fd2d450f-22e9-4650-9ca8-355e01dc8cd5,.uuid-dad2dd5b-fd8f-43e8-a226-4675daf8d387,.uuid-2d453e0b-122c-41a2-9ca5-83a54589c186,.uuid-ebde37ec-454c-45a5-845a-78475b5c7e8b,.uuid-c17d9f61-964e-4e73-9497-9c8bd9ca9f5b{mix-blend-mode:screen;}.uuid-2e5137e5-2cc6-4d14-99b3-3cd3b8f8db57,.uuid-fd2d450f-22e9-4650-9ca8-355e01dc8cd5{opacity:.6;}.uuid-28f8db6c-22b1-4175-84b1-b9e3b396a025{fill:url(#uuid-0dd50b5c-7cdd-4533-a315-092769d04160);}.uuid-8a2f9dd7-4835-4cb3-b5b2-919cb1f01669{fill:url(#uuid-4521f90a-2919-4f5f-a73e-937722693c08);}.uuid-8169a2cf-9b7b-47ac-9795-355ff21afda4,.uuid-b3c00aa6-d59d-45e3-947d-489b4c272dcd,.uuid-2d453e0b-122c-41a2-9ca5-83a54589c186{fill:#fff;}.uuid-f33f424f-6db9-4c47-b354-062454ef69e7{fill:url(#uuid-c356ed2d-1f05-4f60-a76e-478b139969d6);}.uuid-69009467-0214-4030-85a5-60196a73c0be{fill:url(#uuid-00da8afa-3885-4983-8049-03416ccc0d7c);}.uuid-45c24e2a-efed-454c-b4dd-6273c56714e4{fill:url(#uuid-f713984a-d85b-4972-b9e0-e3d6752ab370);}.uuid-25ecf865-1d38-4304-8cc1-d85009dffda8{fill:#26231f;}.uuid-d8b7758d-0088-4569-93d0-a47d6bcaf362{fill:url(#uuid-388590b9-cb72-4dde-a391-b2c24a2da51d);}.uuid-9a1a6b4a-92c9-42c0-9397-ac96faf9d9b3{fill:url(#uuid-c54ea9af-0c1d-47fb-b188-6838b290b933);}.uuid-6e731d80-51a8-4616-830d-3212fa8cbfc5{fill:url(#uuid-f777b0c8-80f5-4976-982e-665cb866abb6);}.uuid-94cde886-f6e1-4804-a901-78506671b178{fill:url(#uuid-06f0a160-5cde-4fe8-9bfa-eed76c1ed91e);}.uuid-94cde886-f6e1-4804-a901-78506671b178,.uuid-b3c00aa6-d59d-45e3-947d-489b4c272dcd,.uuid-dad2dd5b-fd8f-43e8-a226-4675daf8d387,.uuid-c17d9f61-964e-4e73-9497-9c8bd9ca9f5b{opacity:.3;}.uuid-17b90887-dc69-49d1-b2b1-58506f4486b8{fill:url(#uuid-ab9fc5c0-ddb1-413d-9b19-e96160b1681e);}.uuid-bb2fdc71-99cd-461b-b221-531599adfc21{fill:url(#uuid-3051479d-72e8-4e16-8555-47960167e76e);}.uuid-4ee64f4a-77c2-4ffb-acff-316845d24271{fill:url(#uuid-da4314a7-0480-4cf4-8bbc-59998a65b1ea);}.uuid-61a2f6b3-aae5-4df7-bd11-356d04b2170e{fill:url(#uuid-5397aa50-7e35-4c0f-84b0-71b87768390f);}.uuid-461c7ec5-bebf-4568-9521-e4b595b3d997{fill:url(#uuid-826be025-7faf-48c8-b231-ac68dcb39193);}.uuid-ec1afb34-89d7-4a9a-92cc-94117625e000{fill:url(#uuid-b04018a7-81d3-41d2-9741-8a64d87505bc);}.uuid-e5f9bf09-d5ee-4622-b871-024d22fc37e9{fill:url(#uuid-6b004edc-9575-48e0-92ec-9483e12141b2);}.uuid-1640081a-6ec8-4869-937a-c4d9895eeee3{fill:url(#uuid-97ecb302-2b3a-43e0-9a71-37b9ce0ab5cc);}.uuid-8a64bc91-83dc-4c22-9c26-b1f4c05b048f{fill:url(#uuid-75b1ec72-8bc4-49e1-8f2b-17de374df93f);}.uuid-fc59b150-db14-477d-8d3b-5eca7f7407bb{fill:#bb962a;}.uuid-fc59b150-db14-477d-8d3b-5eca7f7407bb,.uuid-973e61cb-057c-417c-9096-634136572c2d,.uuid-968ed5f6-5e0d-44fe-ac7c-6eaba5f2a6d0,.uuid-096cfd02-bbb7-47c5-932e-36c5732fcf2f,.uuid-ebde37ec-454c-45a5-845a-78475b5c7e8b,.uuid-bf3f8969-c9ac-4c53-8af5-0f2fb0ce13fc{opacity:.2;}.uuid-fc59b150-db14-477d-8d3b-5eca7f7407bb,.uuid-968ed5f6-5e0d-44fe-ac7c-6eaba5f2a6d0,.uuid-096cfd02-bbb7-47c5-932e-36c5732fcf2f,.uuid-bf3f8969-c9ac-4c53-8af5-0f2fb0ce13fc{mix-blend-mode:multiply;}.uuid-6e85971e-e9bf-4daa-a6e6-b3d27b3aef11{isolation:isolate;}.uuid-355618d8-958c-45bf-beb7-e5266fd71595{fill:url(#uuid-58e0711e-3a5f-4ed5-b75d-ba3b749351df);}.uuid-4da01abe-a040-4909-b470-bb67952af05c{fill:url(#uuid-41f1d99e-28ff-4005-b0ce-6bcb83ee4d02);}.uuid-973e61cb-057c-417c-9096-634136572c2d{fill:url(#uuid-3c9ed479-6130-4777-b503-1def0ada2a2c);}.uuid-e3dd6a35-6690-4b01-ac67-a1907311d2f9{fill:#981111;}.uuid-7786fc93-c2ba-4ead-9351-7a876868d2b6{fill:url(#uuid-4881468b-8e41-4f6f-bdf1-5c99fdc14cf7);}.uuid-2e1598d0-0dd6-4347-9e59-7c572f649cb2{fill:url(#uuid-aa0f7c1a-54d4-47d1-a881-aa4f45894afc);}.uuid-0f6c6ee8-c715-4015-aec8-d0411b001b58{fill:url(#uuid-8dff387c-63c0-4b8d-8e5c-0012305aee0c);}.uuid-09899a41-41df-4d53-b0cc-ba3bcf49d5fd{fill:url(#uuid-108bb8ed-1998-4d97-bb68-24c729f9291b);}.uuid-359763f5-e612-46ec-ae5b-2ca4f1558e26{fill:url(#uuid-9637b06e-96b0-4096-bdda-f7b1ecfae824);}.uuid-bef0f28d-495a-49d8-ab8f-3a31c1f755f2{fill:url(#uuid-42080a74-f143-471a-9d34-08085bab693a);opacity:.1;}.uuid-2e2794cf-24f7-4327-afc4-1bbb1985cb02{fill:#d7d7d7;}.uuid-d60b487a-241a-41fa-85cd-57f657f53cac{fill:url(#uuid-327e6d35-b000-48a9-8e47-fbe2de769481);}.uuid-0b634c30-1f77-4ae2-a5be-c101d8135f15{fill:#bdbdbd;}.uuid-ffbb2c09-0a00-42b0-8573-c2fc033fbfc2{fill:url(#uuid-3b000c4d-7fa0-4131-a515-5d7a021df3e1);}.uuid-963a5718-e24f-47e6-9320-c14ab5d97d1c{fill:#877c6e;}.uuid-b8ffbcfd-d600-4fe2-827f-10ccc3e0aa4a{fill:url(#uuid-8e733335-b7a9-4e7a-9f2f-d33c153cfeb6);}.uuid-f4b9094d-52b0-4c9f-b948-dadeb752ccec{fill:url(#uuid-9754fda4-62f1-4811-9aad-7b46db86a2ea);}.uuid-530c9f37-5089-404b-b5a8-b40d5574a0ac{fill:url(#uuid-5308a8d6-fdc4-4ce8-a898-874a758d1e84);}.uuid-da956387-eaf5-4f6f-8ba8-7239cbd59686{fill:url(#uuid-d20505fb-adc5-4f10-9a5b-a81a004101d1);}.uuid-41eeda05-340f-434a-8ec2-686ef2be71f1{fill:url(#uuid-fadd07d9-55b8-409d-a10c-e5724c101c66);}.uuid-8e79eafc-dacb-4f82-b4fd-f45c9237084f{fill:url(#uuid-96d795cf-b814-4479-a965-88d34a0c8e3e);}.uuid-849834ba-9e18-4921-8d4f-bc56c7ae9aab{fill:url(#uuid-e99a74d1-d069-4292-987c-9ae5605f7777);}.uuid-926f90f5-b8a3-4228-aab5-6d1a6a6bd469{fill:url(#uuid-25d467ba-b523-4443-a571-cf997524f5d7);}.uuid-dad2dd5b-fd8f-43e8-a226-4675daf8d387{fill:url(#uuid-87514d36-0437-4355-9ef4-6efe68f5ae3f);}.uuid-cf7c0944-7964-4d24-913f-90a8e5316713{fill:url(#uuid-ed0659c2-e57d-4f3a-a09a-f3ba17a53aba);}.uuid-968ed5f6-5e0d-44fe-ac7c-6eaba5f2a6d0{fill:url(#uuid-65ec8eb8-c247-4c6c-9931-1d7f0cf8b80c);}.uuid-8c4d1dd7-ad18-48ff-8315-1160c7fb7a1b{fill:url(#uuid-8e080bf6-c5e5-4cd8-a954-2c99967cc092);}.uuid-c91ff3bc-2b2b-4de8-bcc5-84e163abc22b{fill:url(#uuid-a80169c6-1477-4107-b363-f9a1bfd33317);}.uuid-99cb4ad2-3583-4fc6-95ce-2818e8cd8e1e{fill:url(#uuid-9782f422-1d03-4a3a-a19e-a5b2a1bbfde5);}.uuid-3a5f27de-1fef-4ac3-8ed7-ae53b2224a6e{fill:url(#uuid-8c92f000-5564-4650-8809-05b93df28727);}.uuid-a7b0405b-4b3a-4960-8680-97365bf34a0b{fill:url(#uuid-90fced66-080f-4b20-a205-4055bb4fa892);}.uuid-e1c90fae-0108-4a99-917d-675e4be686eb{fill:url(#uuid-9864f183-9604-4577-93f4-7b16674430db);}.uuid-096cfd02-bbb7-47c5-932e-36c5732fcf2f{fill:url(#uuid-5c358e9f-6025-4bba-a6b0-10ae0fed6b80);}.uuid-f2e1a971-4272-498a-81ca-afbf7aa44ba3{fill:url(#uuid-2a40ce73-5500-435e-a1bc-81981574e094);}.uuid-cdce5d5d-2679-4fd8-9d30-6ba9768b9039{fill:url(#uuid-963d7bb3-f243-41f3-9c9d-7a7e240532af);}.uuid-89d05e71-c06f-4c0d-a21f-fca4af5c9b86{fill:url(#uuid-909c0583-c954-4a19-a583-04e56add423b);}.uuid-f58f4ade-3a1e-4de9-b5e3-320dc788bb90{fill:url(#uuid-0d48c945-e569-4045-86ff-ae7bfefee17d);}.uuid-b8bf233e-ec70-4351-94a4-db3ef3c35de8{fill:url(#uuid-45dff6d3-e820-45e4-8932-851889177eee);}.uuid-e60ca4b0-784d-4f55-9a01-824f148734d3{fill:url(#uuid-4efe6825-c463-47b2-8b12-9e5558a170f1);}.uuid-5dd9dd31-cae7-4fbc-bf26-a2afc41e28f4{fill:url(#uuid-ab96595b-7297-44d0-85f2-0fb7f26a9cf4);}.uuid-a40e5e77-4e75-4e43-9b4b-35de5abff5d6{fill:url(#uuid-cb00265d-e87a-4fef-be86-f8009b249366);}.uuid-d9f86685-ca5e-4e11-8a8c-4e113e8db1bf{fill:url(#uuid-63de5802-788d-4785-9cc1-8036b21f09cb);}.uuid-65d39009-79a8-430b-b006-a0e3f2f0e626{fill:url(#uuid-db58865c-cc9d-4773-90db-e510287baf3b);}.uuid-7fdd59ba-e549-41a2-86de-1a08cae054a6{fill:url(#uuid-1607817f-40c6-4511-908a-82bc5ccf1fcf);}.uuid-2d453e0b-122c-41a2-9ca5-83a54589c186{opacity:.4;}.uuid-e377cbe2-145b-46bd-885b-ebf56db26ffa{fill:url(#uuid-0e2d8ff7-af54-45d4-add8-bca654371ac7);}.uuid-ebde37ec-454c-45a5-845a-78475b5c7e8b{fill:url(#uuid-da816b72-59a5-4aea-ae2b-745bdc7b9410);}.uuid-57fb0acf-9b0e-4f5a-9f0c-429260e02900{fill:url(#uuid-9e2799c2-9ef9-48d1-8114-98f94da9cd93);}.uuid-c17d9f61-964e-4e73-9497-9c8bd9ca9f5b{fill:url(#uuid-daa1ae95-6e46-4cfe-96d4-1d490ad4c0df);}.uuid-914c38aa-ef0b-434c-b2dd-7cffbb9d1c69{fill:url(#uuid-ca95ce1f-40b4-4f3a-8830-4e71f14ac734);}.uuid-267461e2-ae2d-4129-88ce-a3920f9a9c5e{fill:url(#uuid-9e35f54d-4189-4f16-9f5e-9a8cf135ae5a);}.uuid-856723ab-a437-44fd-8fb0-e989738aafde{fill:url(#uuid-2c93847b-7bf1-4ccf-8359-0fc95a1403b2);}.uuid-322e41fe-ddad-416f-a003-01de540fa7ef{fill:url(#uuid-39a337db-b3bb-4601-934d-302105408d5e);}.uuid-12bca1ac-0f94-495b-8a59-2ad18b6fc9fd{fill:url(#uuid-c17d1a94-f284-4821-ba54-09606c6c3e10);}.uuid-ae3f43d2-4894-4073-a6db-d4b3e83ab0c2{fill:url(#uuid-814b600f-4ebb-4558-88c7-4c82e69cca79);}.uuid-ea3b1643-8dc5-4d28-a8e6-c2cc11da0b0c{fill:url(#uuid-9692978e-490b-4441-a36d-317fe51ec79c);}.uuid-47564d00-d8d2-455e-93ff-47ff2fc50005{fill:#282523;}.uuid-bf3f8969-c9ac-4c53-8af5-0f2fb0ce13fc{fill:url(#uuid-cfde277c-cc53-4b80-ab49-733a5e409a3b);}.uuid-f5be8f2a-ccf8-4473-9ff4-806d3ca3f5a7{fill:url(#uuid-37a38004-f321-4e86-92bf-4d0cc0d7d0c4);}.uuid-0c7e2fe3-1c38-447c-bc77-bd994ed67f3c{fill:url(#uuid-0e658785-94ef-4fe6-ac80-4d6bae7af856);}.uuid-ab73043c-a684-4873-82ec-ff5ef76108d4{fill:url(#uuid-021fa1c9-169a-425a-a022-1de4cba6873e);}.uuid-fa7c5490-273f-42ed-b1c0-ec7a183597de{fill:#3f3932;}.uuid-668c35c2-a6fa-423f-8767-001505b6a323{fill:url(#uuid-f14a13f0-28e5-40b1-8697-ddb10263462f);}.uuid-899de045-798c-454b-8ae3-e9e6f614fdad{fill:url(#uuid-80f9e24b-a978-45c4-b929-e8ab6496f40f);}.uuid-4e642fb0-743b-4653-8f0d-acfad1d71ba4{fill:url(#uuid-94a126fb-5306-45ef-8431-a62e58de37fc);}.uuid-028b1495-1382-4014-95b5-90fada911647{fill:url(#uuid-c784a923-f25b-456f-9db0-3d0d95d29a29);}.uuid-aef83668-3294-4ddc-9428-9c87996ed727{fill:url(#uuid-4f45d667-1c7f-41df-802c-ad9294a04d61);}.uuid-8f1f831c-ae55-4e28-8f3a-6e68a140944c{fill:url(#uuid-8717308f-08c1-47bf-9c03-c6efe92a42f2);}.uuid-519d2e3e-47ff-4f51-8188-95a49f1d7b87{fill:#35312d;}.uuid-61bb7e40-e0bc-4576-876a-40e7e922786f{fill:url(#uuid-b072d4bd-97ac-4df9-a491-53b228dee13b);}.uuid-111eb3b2-dd7f-4846-824d-f0a25892eb34{fill:url(#uuid-869bc2ba-4e98-4aef-a35e-071f9bdcf4d5);}.uuid-a9a9eb4d-a1cc-4006-aa62-4d3e7236df76{fill:url(#uuid-317ea135-da72-452c-87c4-46d0e47e058a);}.uuid-15589e5d-a8d5-407f-84d5-84f06154cf1b{fill:url(#uuid-ca684be1-00fa-404e-b68a-0b66003deb25);}.uuid-d4b9ebc6-a5de-4007-a5da-56c7d864e7c7{fill:url(#uuid-8665a86a-cde7-443d-ae13-996fe4efae0e);}.uuid-dfba225c-47be-49fc-84f6-c1e0ccdd075c{fill:url(#uuid-24eaa797-e9ac-47c3-82d9-01e1ea6baab3);}.uuid-97699fec-acc2-4e53-ab65-1ff709f35392{fill:url(#uuid-8dbe7170-73bd-4e45-ab1e-f374fa0e8b09);}.uuid-dd788e21-cca7-4b43-a352-8d5898a269f8{fill:url(#uuid-351fc428-a096-49c0-86aa-448de14c643a);}.uuid-57bcaa6a-0f44-41e1-b9eb-51c42f3e7e08{fill:url(#uuid-c393bb71-73be-4ca5-ab83-bf40d1526c15);}.uuid-9325c033-aee2-4842-9e76-20eaaea709d0{fill:url(#uuid-b110645f-8344-4309-8a41-a8d1688a247c);}.uuid-e24a9111-4787-40ac-8634-6dac70d6d10a{fill:url(#uuid-7372172c-9469-4480-a4c4-e717bc8a67c8);}</style><linearGradient id="uuid-db58865c-cc9d-4773-90db-e510287baf3b" x1="368.25" y1="185.03" x2="381.35" y2="184.31" gradientTransform="translate(-6.15 6.29) rotate(-1.39)" gradientUnits="userSpaceOnUse"><stop offset="0" stop-color="#000"/><stop offset=".09" stop-color="#060606"/><stop offset=".22" stop-color="#191919"/><stop offset=".37" stop-color="#373737"/><stop offset=".53" stop-color="#616161"/><stop offset=".71" stop-color="#989898"/><stop offset=".9" stop-color="#d9d9d9"/><stop offset="1" stop-color="#fff"/></linearGradient><linearGradient id="uuid-869bc2ba-4e98-4aef-a35e-071f9bdcf4d5" x1="-108.47" y1="280.52" x2="264.07" y2="260.07" gradientTransform="translate(-6.15 6.29) rotate(-1.39)" gradientUnits="userSpaceOnUse"><stop offset=".16" stop-color="#23a6ff"/><stop offset=".22" stop-color="#5abafb"/><stop offset=".29" stop-color="#90cef8"/><stop offset=".35" stop-color="#baddf5"/><stop offset=".41" stop-color="#d8e8f3"/><stop offset=".46" stop-color="#ebeff2"/><stop offset=".49" stop-color="#f2f2f2"/><stop offset="1" stop-color="#23a6ff"/></linearGradient><linearGradient id="uuid-3c9ed479-6130-4777-b503-1def0ada2a2c" x1="197.99" y1="323.11" x2="189.32" y2="338.12" gradientTransform="translate(-6.15 6.29) rotate(-1.39)" gradientUnits="userSpaceOnUse"><stop offset="0" stop-color="#ffc729"/><stop offset=".24" stop-color="#c99a1b"/><stop offset=".49" stop-color="#9c730f"/><stop offset=".7" stop-color="#7c5707"/><stop offset=".88" stop-color="#684701"/><stop offset="1" stop-color="#614100"/></linearGradient><linearGradient id="uuid-ed0659c2-e57d-4f3a-a09a-f3ba17a53aba" x1="59.44" y1="102.6" x2="85.23" y2="141.72" gradientTransform="matrix(1, 0, 0, 1, 0, 0)" gradientUnits="userSpaceOnUse"><stop offset=".25" stop-color="#23a6ff"/><stop offset=".31" stop-color="#5abafb"/><stop offset=".38" stop-color="#90cef8"/><stop offset=".44" stop-color="#baddf5"/><stop offset=".5" stop-color="#d8e8f3"/><stop offset=".54" stop-color="#ebeff2"/><stop offset=".58" stop-color="#f2f2f2"/><stop offset=".91" stop-color="#23a6ff"/></linearGradient><linearGradient id="uuid-4f45d667-1c7f-41df-802c-ad9294a04d61" x1="101.28" y1="252.2" x2="494.84" y2="230.59" gradientTransform="translate(-6.15 6.29) rotate(-1.39)" gradientUnits="userSpaceOnUse"><stop offset="0" stop-color="#23a6ff"/><stop offset=".09" stop-color="#5abafb"/><stop offset=".19" stop-color="#90cef8"/><stop offset=".29" stop-color="#baddf5"/><stop offset=".37" stop-color="#d8e8f3"/><stop offset=".44" stop-color="#ebeff2"/><stop offset=".49" stop-color="#f2f2f2"/><stop offset="1" stop-color="#23a6ff"/></linearGradient><linearGradient id="uuid-108bb8ed-1998-4d97-bb68-24c729f9291b" x1="95.39" y1="144.96" x2="311.48" y2="133.1" gradientTransform="translate(-6.15 6.29) rotate(-1.39)" gradientUnits="userSpaceOnUse"><stop offset="0" stop-color="#a3d5f7"/><stop offset=".11" stop-color="#baddf5"/><stop offset=".27" stop-color="#d8e8f3"/><stop offset=".4" stop-color="#ebeff2"/><stop offset=".5" stop-color="#f2f2f2"/><stop offset="1" stop-color="#66bffb"/></linearGradient><linearGradient id="uuid-41f1d99e-28ff-4005-b0ce-6bcb83ee4d02" x1="508.79" y1="278.3" x2="241.16" y2="294.31" gradientTransform="matrix(1, 0, 0, 1, 0, 0)" gradientUnits="userSpaceOnUse"><stop offset="0" stop-color="#23a6ff"/><stop offset=".11" stop-color="#5abafb"/><stop offset=".23" stop-color="#90cef8"/><stop offset=".34" stop-color="#baddf5"/><stop offset=".43" stop-color="#d8e8f3"/><stop offset=".52" stop-color="#ebeff2"/><stop offset=".58" stop-color="#f2f2f2"/><stop offset="1" stop-color="#23a6ff"/></linearGradient><linearGradient id="uuid-0e2d8ff7-af54-45d4-add8-bca654371ac7" x1="213.37" y1="268.71" x2="244.28" y2="268.71" xlink:href="#uuid-db58865c-cc9d-4773-90db-e510287baf3b"/><linearGradient id="uuid-1842dc3f-e48b-4fba-bdf6-ad1fe6acebb0" x1="213.46" y1="263.07" x2="241.67" y2="263.07" gradientTransform="translate(-6.15 6.29) rotate(-1.39)" gradientUnits="userSpaceOnUse"><stop offset="0" stop-color="#836918"/><stop offset=".18" stop-color="#614d11"/><stop offset=".43" stop-color="#372c0a"/><stop offset=".66" stop-color="#191404"/><stop offset=".86" stop-color="#060501"/><stop offset="1" stop-color="#000"/></linearGradient><linearGradient id="uuid-9782f422-1d03-4a3a-a19e-a5b2a1bbfde5" x1="370.23" y1="93.04" x2="370.23" y2="179.14" gradientTransform="matrix(1, 0, 0, 1, 0, 0)" gradientUnits="userSpaceOnUse"><stop offset="0" stop-color="#f22934"/><stop offset="1" stop-color="#b80007"/></linearGradient><linearGradient id="uuid-06f0a160-5cde-4fe8-9bfa-eed76c1ed91e" x1="370.23" y1="84.32" x2="370.23" y2="110.77" gradientTransform="matrix(1, 0, 0, 1, 0, 0)" gradientUnits="userSpaceOnUse"><stop offset="0" stop-color="#fff"/><stop offset="1" stop-color="#000"/></linearGradient><linearGradient id="uuid-7372172c-9469-4480-a4c4-e717bc8a67c8" x1="370.23" y1="91.18" x2="370.23" y2="133.38" gradientTransform="matrix(1, 0, 0, 1, 0, 0)" gradientUnits="userSpaceOnUse"><stop offset="0" stop-color="#a12025"/><stop offset="1" stop-color="#c1272d"/></linearGradient><linearGradient id="uuid-5c358e9f-6025-4bba-a6b0-10ae0fed6b80" x1="370.81" y1="144.35" x2="370.81" y2="181.77" gradientTransform="matrix(1, 0, 0, 1, 0, 0)" gradientUnits="userSpaceOnUse"><stop offset="0" stop-color="#e33940"/><stop offset="1" stop-color="#b80007"/></linearGradient><linearGradient id="uuid-daa1ae95-6e46-4cfe-96d4-1d490ad4c0df" x1="370.23" y1="182.26" x2="370.23" y2="151.82" xlink:href="#uuid-06f0a160-5cde-4fe8-9bfa-eed76c1ed91e"/><linearGradient id="uuid-65ec8eb8-c247-4c6c-9931-1d7f0cf8b80c" x1="378.54" y1="99.07" x2="379.99" y2="95.59" xlink:href="#uuid-7372172c-9469-4480-a4c4-e717bc8a67c8"/><linearGradient id="uuid-cfde277c-cc53-4b80-ab49-733a5e409a3b" x1="355.19" y1="103.32" x2="353.35" y2="101.75" xlink:href="#uuid-7372172c-9469-4480-a4c4-e717bc8a67c8"/><linearGradient id="uuid-87514d36-0437-4355-9ef4-6efe68f5ae3f" x1="378.54" y1="210.61" x2="379.99" y2="207.13" gradientTransform="translate(0 346.67) scale(1 -1)" xlink:href="#uuid-7372172c-9469-4480-a4c4-e717bc8a67c8"/><linearGradient id="uuid-da816b72-59a5-4aea-ae2b-745bdc7b9410" x1="355.19" y1="215.26" x2="353.35" y2="213.68" gradientTransform="translate(0 346.67) scale(1 -1)" xlink:href="#uuid-7372172c-9469-4480-a4c4-e717bc8a67c8"/><linearGradient id="uuid-42080a74-f143-471a-9d34-08085bab693a" x1="370.23" y1="81.31" x2="370.23" y2="89.96" xlink:href="#uuid-06f0a160-5cde-4fe8-9bfa-eed76c1ed91e"/><linearGradient id="uuid-c784a923-f25b-456f-9db0-3d0d95d29a29" x1="381.02" y1="96.68" x2="381.02" y2="141.22" gradientTransform="matrix(1, 0, 0, 1, 0, 0)" gradientUnits="userSpaceOnUse"><stop offset="0" stop-color="#e8e8e8"/><stop offset=".44" stop-color="#b8b7b7"/><stop offset="1" stop-color="#999696"/></linearGradient><linearGradient id="uuid-8e733335-b7a9-4e7a-9f2f-d33c153cfeb6" x1="382.68" y1="94.22" x2="382.68" y2="145.62" xlink:href="#uuid-c784a923-f25b-456f-9db0-3d0d95d29a29"/><linearGradient id="uuid-b072d4bd-97ac-4df9-a491-53b228dee13b" x1="366.07" y1="95.19" x2="366.07" y2="139.22" xlink:href="#uuid-c784a923-f25b-456f-9db0-3d0d95d29a29"/><linearGradient id="uuid-4881468b-8e41-4f6f-bdf1-5c99fdc14cf7" x1="360.67" y1="96.6" x2="360.67" y2="141.31" xlink:href="#uuid-c784a923-f25b-456f-9db0-3d0d95d29a29"/><linearGradient id="uuid-0d48c945-e569-4045-86ff-ae7bfefee17d" x1="356.84" y1="96.46" x2="356.84" y2="140.84" xlink:href="#uuid-c784a923-f25b-456f-9db0-3d0d95d29a29"/><linearGradient id="uuid-3051479d-72e8-4e16-8555-47960167e76e" x1="363.6" y1="96.53" x2="363.6" y2="135.97" xlink:href="#uuid-c784a923-f25b-456f-9db0-3d0d95d29a29"/><linearGradient id="uuid-97ecb302-2b3a-43e0-9a71-37b9ce0ab5cc" x1="362.79" y1="98.75" x2="362.79" y2="127.72" xlink:href="#uuid-c784a923-f25b-456f-9db0-3d0d95d29a29"/><linearGradient id="uuid-c54ea9af-0c1d-47fb-b188-6838b290b933" x1="361.19" y1="86.65" x2="361.19" y2="204.56" xlink:href="#uuid-c784a923-f25b-456f-9db0-3d0d95d29a29"/><linearGradient id="uuid-9e2799c2-9ef9-48d1-8114-98f94da9cd93" x1="360.83" y1="79.61" x2="360.83" y2="228.47" xlink:href="#uuid-c784a923-f25b-456f-9db0-3d0d95d29a29"/><linearGradient id="uuid-814b600f-4ebb-4558-88c7-4c82e69cca79" x1="360.39" y1="89.77" x2="360.39" y2="187.74" xlink:href="#uuid-c784a923-f25b-456f-9db0-3d0d95d29a29"/><linearGradient id="uuid-5397aa50-7e35-4c0f-84b0-71b87768390f" x1="355.51" y1="95.95" x2="355.51" y2="141.69" xlink:href="#uuid-c784a923-f25b-456f-9db0-3d0d95d29a29"/><linearGradient id="uuid-58e0711e-3a5f-4ed5-b75d-ba3b749351df" x1="359.24" y1="113.19" x2="359.24" y2="129.47" xlink:href="#uuid-c784a923-f25b-456f-9db0-3d0d95d29a29"/><linearGradient id="uuid-9637b06e-96b0-4096-bdda-f7b1ecfae824" x1="362.38" y1="105.62" x2="362.38" y2="139.02" xlink:href="#uuid-c784a923-f25b-456f-9db0-3d0d95d29a29"/><linearGradient id="uuid-45dff6d3-e820-45e4-8932-851889177eee" x1="362.41" y1="108.72" x2="362.41" y2="138.2" xlink:href="#uuid-c784a923-f25b-456f-9db0-3d0d95d29a29"/><linearGradient id="uuid-8dbe7170-73bd-4e45-ab1e-f374fa0e8b09" x1="363.8" y1="102.33" x2="363.8" y2="140.27" xlink:href="#uuid-c784a923-f25b-456f-9db0-3d0d95d29a29"/><linearGradient id="uuid-00da8afa-3885-4983-8049-03416ccc0d7c" x1="363.43" y1="103.56" x2="363.43" y2="139.97" xlink:href="#uuid-c784a923-f25b-456f-9db0-3d0d95d29a29"/><linearGradient id="uuid-4efe6825-c463-47b2-8b12-9e5558a170f1" x1="364.87" y1="96.58" x2="364.87" y2="142.54" xlink:href="#uuid-c784a923-f25b-456f-9db0-3d0d95d29a29"/><linearGradient id="uuid-a80169c6-1477-4107-b363-f9a1bfd33317" x1="356.46" y1="96.88" x2="356.46" y2="154.59" xlink:href="#uuid-c784a923-f25b-456f-9db0-3d0d95d29a29"/><linearGradient id="uuid-90fced66-080f-4b20-a205-4055bb4fa892" x1="356.87" y1="99.38" x2="356.87" y2="137.76" xlink:href="#uuid-c784a923-f25b-456f-9db0-3d0d95d29a29"/><linearGradient id="uuid-75b1ec72-8bc4-49e1-8f2b-17de374df93f" x1="356.78" y1="92.94" x2="356.78" y2="173.64" xlink:href="#uuid-c784a923-f25b-456f-9db0-3d0d95d29a29"/><linearGradient id="uuid-8e080bf6-c5e5-4cd8-a954-2c99967cc092" x1="359.16" y1="94.93" x2="359.16" y2="142.75" xlink:href="#uuid-c784a923-f25b-456f-9db0-3d0d95d29a29"/><linearGradient id="uuid-1607817f-40c6-4511-908a-82bc5ccf1fcf" x1="385.82" y1="98.44" x2="385.82" y2="138.76" xlink:href="#uuid-c784a923-f25b-456f-9db0-3d0d95d29a29"/><linearGradient id="uuid-b04018a7-81d3-41d2-9741-8a64d87505bc" x1="375.01" y1="95.08" x2="375.01" y2="140.46" xlink:href="#uuid-c784a923-f25b-456f-9db0-3d0d95d29a29"/><linearGradient id="uuid-5308a8d6-fdc4-4ce8-a898-874a758d1e84" x1="358.3" y1="95.68" x2="358.3" y2="161.14" xlink:href="#uuid-c784a923-f25b-456f-9db0-3d0d95d29a29"/><linearGradient id="uuid-8c92f000-5564-4650-8809-05b93df28727" x1="360.82" y1="94.25" x2="360.82" y2="143.58" xlink:href="#uuid-c784a923-f25b-456f-9db0-3d0d95d29a29"/><linearGradient id="uuid-6b004edc-9575-48e0-92ec-9483e12141b2" x1="384.66" y1="101.49" x2="384.66" y2="132" xlink:href="#uuid-c784a923-f25b-456f-9db0-3d0d95d29a29"/><linearGradient id="uuid-ab96595b-7297-44d0-85f2-0fb7f26a9cf4" x1="357.09" y1="96.64" x2="357.09" y2="166.68" xlink:href="#uuid-c784a923-f25b-456f-9db0-3d0d95d29a29"/><linearGradient id="uuid-d20505fb-adc5-4f10-9a5b-a81a004101d1" x1="359.22" y1="98.3" x2="359.22" y2="140.18" xlink:href="#uuid-c784a923-f25b-456f-9db0-3d0d95d29a29"/><linearGradient id="uuid-c17d1a94-f284-4821-ba54-09606c6c3e10" x1="382.7" y1="94.27" x2="382.7" y2="192.27" xlink:href="#uuid-c784a923-f25b-456f-9db0-3d0d95d29a29"/><linearGradient id="uuid-cb00265d-e87a-4fef-be86-f8009b249366" x1="383.56" y1="98.67" x2="383.56" y2="158.72" xlink:href="#uuid-c784a923-f25b-456f-9db0-3d0d95d29a29"/><linearGradient id="uuid-317ea135-da72-452c-87c4-46d0e47e058a" x1="365.1" y1="97.93" x2="365.1" y2="141.69" xlink:href="#uuid-c784a923-f25b-456f-9db0-3d0d95d29a29"/><linearGradient id="uuid-63de5802-788d-4785-9cc1-8036b21f09cb" x1="359.49" y1="95.83" x2="359.49" y2="141.34" xlink:href="#uuid-c784a923-f25b-456f-9db0-3d0d95d29a29"/><linearGradient id="uuid-9e35f54d-4189-4f16-9f5e-9a8cf135ae5a" x1="358.15" y1="97.99" x2="358.15" y2="141.93" xlink:href="#uuid-c784a923-f25b-456f-9db0-3d0d95d29a29"/><linearGradient id="uuid-94a126fb-5306-45ef-8431-a62e58de37fc" x1="384.23" y1="98.52" x2="384.23" y2="143.6" xlink:href="#uuid-c784a923-f25b-456f-9db0-3d0d95d29a29"/><linearGradient id="uuid-909c0583-c954-4a19-a583-04e56add423b" x1="360.03" y1="94.75" x2="360.03" y2="147.91" xlink:href="#uuid-c784a923-f25b-456f-9db0-3d0d95d29a29"/><linearGradient id="uuid-9754fda4-62f1-4811-9aad-7b46db86a2ea" x1="359.55" y1="94.57" x2="359.55" y2="143.22" xlink:href="#uuid-c784a923-f25b-456f-9db0-3d0d95d29a29"/><linearGradient id="uuid-24eaa797-e9ac-47c3-82d9-01e1ea6baab3" x1="363.19" y1="97.61" x2="363.19" y2="134.58" xlink:href="#uuid-c784a923-f25b-456f-9db0-3d0d95d29a29"/><linearGradient id="uuid-9692978e-490b-4441-a36d-317fe51ec79c" x1="369.07" y1="99.07" x2="369.07" y2="142.16" xlink:href="#uuid-c784a923-f25b-456f-9db0-3d0d95d29a29"/><linearGradient id="uuid-ca95ce1f-40b4-4f3a-8830-4e71f14ac734" x1="378.6" y1="95.06" x2="378.6" y2="154.63" xlink:href="#uuid-c784a923-f25b-456f-9db0-3d0d95d29a29"/><linearGradient id="uuid-351fc428-a096-49c0-86aa-448de14c643a" x1="359.94" y1="96.28" x2="359.94" y2="151.81" xlink:href="#uuid-c784a923-f25b-456f-9db0-3d0d95d29a29"/><linearGradient id="uuid-8717308f-08c1-47bf-9c03-c6efe92a42f2" x1="357.85" y1="100.76" x2="357.85" y2="127.88" xlink:href="#uuid-c784a923-f25b-456f-9db0-3d0d95d29a29"/><linearGradient id="uuid-0e658785-94ef-4fe6-ac80-4d6bae7af856" x1="361.89" y1="93.59" x2="361.89" y2="144.38" xlink:href="#uuid-c784a923-f25b-456f-9db0-3d0d95d29a29"/><linearGradient id="uuid-826be025-7faf-48c8-b231-ac68dcb39193" x1="375.11" y1="95.61" x2="375.11" y2="138.68" xlink:href="#uuid-c784a923-f25b-456f-9db0-3d0d95d29a29"/><linearGradient id="uuid-021fa1c9-169a-425a-a022-1de4cba6873e" x1="376.09" y1="95.29" x2="376.09" y2="140.2" xlink:href="#uuid-c784a923-f25b-456f-9db0-3d0d95d29a29"/><linearGradient id="uuid-3b000c4d-7fa0-4131-a515-5d7a021df3e1" x1="356.79" y1="93.91" x2="356.79" y2="182.16" xlink:href="#uuid-c784a923-f25b-456f-9db0-3d0d95d29a29"/><linearGradient id="uuid-fadd07d9-55b8-409d-a10c-e5724c101c66" x1="358.91" y1="97.55" x2="358.91" y2="151.01" xlink:href="#uuid-c784a923-f25b-456f-9db0-3d0d95d29a29"/><linearGradient id="uuid-f713984a-d85b-4972-b9e0-e3d6752ab370" x1="360.55" y1="96.52" x2="360.55" y2="139.73" xlink:href="#uuid-c784a923-f25b-456f-9db0-3d0d95d29a29"/><linearGradient id="uuid-c393bb71-73be-4ca5-ab83-bf40d1526c15" x1="374.05" y1="93.47" x2="374.05" y2="144.23" xlink:href="#uuid-c784a923-f25b-456f-9db0-3d0d95d29a29"/><linearGradient id="uuid-327e6d35-b000-48a9-8e47-fbe2de769481" x1="357.71" y1="97.51" x2="357.71" y2="150.39" xlink:href="#uuid-c784a923-f25b-456f-9db0-3d0d95d29a29"/><linearGradient id="uuid-e99a74d1-d069-4292-987c-9ae5605f7777" x1="360.73" y1="94.38" x2="360.73" y2="143.4" xlink:href="#uuid-c784a923-f25b-456f-9db0-3d0d95d29a29"/><linearGradient id="uuid-2c93847b-7bf1-4ccf-8359-0fc95a1403b2" x1="356.68" y1="98.12" x2="356.68" y2="157.27" xlink:href="#uuid-c784a923-f25b-456f-9db0-3d0d95d29a29"/><linearGradient id="uuid-25d467ba-b523-4443-a571-cf997524f5d7" x1="363.27" y1="95.96" x2="363.27" y2="138.77" xlink:href="#uuid-c784a923-f25b-456f-9db0-3d0d95d29a29"/><linearGradient id="uuid-4521f90a-2919-4f5f-a73e-937722693c08" x1="388.29" y1="98.41" x2="388.29" y2="138.84" xlink:href="#uuid-c784a923-f25b-456f-9db0-3d0d95d29a29"/><linearGradient id="uuid-da4314a7-0480-4cf4-8bbc-59998a65b1ea" x1="360.27" y1="94.34" x2="360.27" y2="143.48" xlink:href="#uuid-c784a923-f25b-456f-9db0-3d0d95d29a29"/><linearGradient id="uuid-37a38004-f321-4e86-92bf-4d0cc0d7d0c4" x1="371.31" y1="95.04" x2="371.31" y2="141.08" xlink:href="#uuid-c784a923-f25b-456f-9db0-3d0d95d29a29"/><linearGradient id="uuid-c356ed2d-1f05-4f60-a76e-478b139969d6" x1="372.5" y1="95.62" x2="372.5" y2="135.88" xlink:href="#uuid-c784a923-f25b-456f-9db0-3d0d95d29a29"/><linearGradient id="uuid-f777b0c8-80f5-4976-982e-665cb866abb6" x1="362.62" y1="95.4" x2="362.62" y2="141.52" xlink:href="#uuid-c784a923-f25b-456f-9db0-3d0d95d29a29"/><linearGradient id="uuid-388590b9-cb72-4dde-a391-b2c24a2da51d" x1="372.52" y1="94.8" x2="372.52" y2="140.6" xlink:href="#uuid-c784a923-f25b-456f-9db0-3d0d95d29a29"/><linearGradient id="uuid-ab9fc5c0-ddb1-413d-9b19-e96160b1681e" x1="358.62" y1="98.17" x2="358.62" y2="140.75" xlink:href="#uuid-c784a923-f25b-456f-9db0-3d0d95d29a29"/><linearGradient id="uuid-8665a86a-cde7-443d-ae13-996fe4efae0e" x1="358.36" y1="97.19" x2="358.36" y2="155.02" xlink:href="#uuid-c784a923-f25b-456f-9db0-3d0d95d29a29"/><linearGradient id="uuid-96d795cf-b814-4479-a965-88d34a0c8e3e" x1="378.42" y1="97.29" x2="378.42" y2="134.42" xlink:href="#uuid-c784a923-f25b-456f-9db0-3d0d95d29a29"/><linearGradient id="uuid-0dd50b5c-7cdd-4533-a315-092769d04160" x1="381.28" y1="98.52" x2="381.28" y2="134.57" xlink:href="#uuid-c784a923-f25b-456f-9db0-3d0d95d29a29"/><linearGradient id="uuid-aa0f7c1a-54d4-47d1-a881-aa4f45894afc" x1="386.22" y1="97.23" x2="386.22" y2="141.54" xlink:href="#uuid-c784a923-f25b-456f-9db0-3d0d95d29a29"/><linearGradient id="uuid-39a337db-b3bb-4601-934d-302105408d5e" x1="382.59" y1="97.28" x2="382.59" y2="138.85" xlink:href="#uuid-c784a923-f25b-456f-9db0-3d0d95d29a29"/><linearGradient id="uuid-b110645f-8344-4309-8a41-a8d1688a247c" x1="359.38" y1="95.4" x2="359.38" y2="142.45" xlink:href="#uuid-c784a923-f25b-456f-9db0-3d0d95d29a29"/><linearGradient id="uuid-963d7bb3-f243-41f3-9c9d-7a7e240532af" x1="378.88" y1="95.26" x2="378.88" y2="141.63" xlink:href="#uuid-c784a923-f25b-456f-9db0-3d0d95d29a29"/><linearGradient id="uuid-f14a13f0-28e5-40b1-8697-ddb10263462f" x1="382.3" y1="93.59" x2="382.3" y2="145.81" xlink:href="#uuid-c784a923-f25b-456f-9db0-3d0d95d29a29"/><linearGradient id="uuid-2a40ce73-5500-435e-a1bc-81981574e094" x1="383.95" y1="99.34" x2="383.95" y2="135.67" xlink:href="#uuid-c784a923-f25b-456f-9db0-3d0d95d29a29"/><linearGradient id="uuid-ca684be1-00fa-404e-b68a-0b66003deb25" x1="383.99" y1="109.55" x2="383.99" y2="113.94" xlink:href="#uuid-c784a923-f25b-456f-9db0-3d0d95d29a29"/><linearGradient id="uuid-80f9e24b-a978-45c4-b929-e8ab6496f40f" x1="377.62" y1="94.45" x2="377.62" y2="142.95" xlink:href="#uuid-c784a923-f25b-456f-9db0-3d0d95d29a29"/><linearGradient id="uuid-9864f183-9604-4577-93f4-7b16674430db" x1="384.13" y1="96.88" x2="384.13" y2="140.35" xlink:href="#uuid-c784a923-f25b-456f-9db0-3d0d95d29a29"/><linearGradient id="uuid-8dff387c-63c0-4b8d-8e5c-0012305aee0c" x1="386.58" y1="97.62" x2="386.58" y2="140.7" xlink:href="#uuid-c784a923-f25b-456f-9db0-3d0d95d29a29"/></defs><g class="uuid-6e85971e-e9bf-4daa-a6e6-b3d27b3aef11"><g id="uuid-63e7b09e-dfee-46d8-8365-5ef63ab9290c"><g><g><g><path class="uuid-65d39009-79a8-430b-b006-a0e3f2f0e626" d="M371.97,170.97c.97-1.39,2.41-2.85,4.07-2.51,.62,.13,1.11,.47,1.49,.94,.73,.9,1.83,8.78,1.88,9.98,.26,6.14-.6,10.74-1.17,12.14-.57,1.41-1.63,2.68-3.07,3.18-2.77,.95-5.71-1.33-6.92-3.99-1.33-2.95-2.17-6.62-1.13-9.69,1.22-3.58,2.68-6.94,4.85-10.05Z"/><path class="uuid-fd2d450f-22e9-4650-9ca8-355e01dc8cd5" d="M377.29,169.18c-.34-.34-.74-.61-1.25-.71-1.66-.34-3.1,1.12-4.07,2.51-2.17,3.11-3.63,6.48-4.85,10.05-1.04,3.07-.2,6.74,1.13,9.69,.21,.45,8.27-11.69,9.03-21.54Z"/></g><polygon class="uuid-25ecf865-1d38-4304-8cc1-d85009dffda8" points="345.97 334.27 269.33 381.04 250.74 354.42 259.38 334.49 286.08 315.42 345.97 334.27"/><path class="uuid-25ecf865-1d38-4304-8cc1-d85009dffda8" d="M59.99,192.11l-26.7,19.07-.78,1.8c-4.9,11.3-3.73,24.32,3.1,34.57l7.01,10.52,77.27-47.12-59.89-18.85Z"/><g><g id="uuid-82f808db-cc3a-49cd-b221-94abd8358a02"><path class="uuid-25ecf865-1d38-4304-8cc1-d85009dffda8" d="M321.16,346c-7.73-4.22-14.63-4.42-19.5-1.33l-16.84,10.27,40.54,65.65,16.84-10.27c4.76-3.01,7.59-9.15,7.38-17.74-.42-17.39-13.15-38.24-28.42-46.57Z"/><path id="uuid-d3ffeaae-dcb8-4963-904e-733cbc55dcf5" class="uuid-fa7c5490-273f-42ed-b1c0-ec7a183597de" d="M332.74,402.84c.42,17.39-11.62,24.74-26.89,16.41-15.27-8.33-28-29.18-28.42-46.57-.42-17.39,11.62-24.74,26.89-16.41,15.27,8.33,28,29.18,28.42,46.57Z"/></g><g class="uuid-6e85971e-e9bf-4daa-a6e6-b3d27b3aef11"><path class="uuid-2e2794cf-24f7-4327-afc4-1bbb1985cb02" d="M305.59,410.23c-10.52-5.49-19.43-19.77-19.9-31.89-.48-12.12,7.66-17.5,18.18-12.01,10.52,5.49,19.43,19.77,19.9,31.89,.48,12.12-7.66,17.5-18.18,12.01Z"/><path class="uuid-5979b587-5b4e-4eee-99ce-5e6d1fd7bb9e" d="M305.47,407.16c-9.04-4.72-16.7-16.99-17.11-27.42-.41-10.42,6.59-15.04,15.63-10.32,9.04,4.72,16.7,16.99,17.11,27.42,.41,10.42-6.59,15.04-15.63,10.32Z"/><g><path class="uuid-2e2794cf-24f7-4327-afc4-1bbb1985cb02" d="M306.05,398.39c-5.11-2.67-9.44-9.6-9.67-15.49-.23-5.89,3.72-8.5,8.83-5.83,5.11,2.67,9.44,9.6,9.67,15.49,.23,5.89-3.72,8.5-8.83,5.83Z"/><path class="uuid-0b634c30-1f77-4ae2-a5be-c101d8135f15" d="M315.56,382.18c-2.31-3.94-5.56-7.34-9.08-9.18-6.66-3.48-11.81-.07-11.51,7.6,.3,7.67,5.94,16.71,12.6,20.18,6.39,3.33,11.39,.34,11.52-6.68,0-.3,0-.6-.01-.92-.14-3.61-1.46-7.51-3.51-11Zm-.67,11.09c-.1,5.39-3.94,7.69-8.84,5.13-5.11-2.67-9.44-9.6-9.67-15.49-.23-5.89,3.72-8.5,8.83-5.83,2.71,1.41,5.2,4.03,6.97,7.05,.79,1.34,1.43,2.76,1.9,4.19,.46,1.43,.74,2.87,.8,4.26,0,.24,.01,.47,0,.7Z"/></g></g></g><g><g id="uuid-93804c14-8235-47f0-bd82-77e432dd9e03"><path class="uuid-25ecf865-1d38-4304-8cc1-d85009dffda8" d="M96.76,223.61c-7.73-4.22-14.63-4.42-19.5-1.33l-16.84,10.27,40.54,65.65,16.84-10.27c4.76-3.01,7.59-9.15,7.39-17.74-.42-17.39-13.15-38.24-28.42-46.57Z"/><path id="uuid-71ae7ac0-ee7c-40bd-98ac-fb35bec85d11" class="uuid-fa7c5490-273f-42ed-b1c0-ec7a183597de" d="M108.35,280.45c.42,17.39-11.62,24.74-26.89,16.41-15.27-8.33-28-29.18-28.42-46.57-.42-17.39,11.62-24.74,26.89-16.41,15.27,8.33,28,29.18,28.42,46.57Z"/></g><g class="uuid-6e85971e-e9bf-4daa-a6e6-b3d27b3aef11"><path class="uuid-2e2794cf-24f7-4327-afc4-1bbb1985cb02" d="M81.19,287.84c-10.52-5.49-19.43-19.77-19.9-31.89-.48-12.12,7.66-17.5,18.18-12.01,10.52,5.49,19.43,19.77,19.9,31.89,.48,12.12-7.66,17.5-18.18,12.01Z"/><path class="uuid-5979b587-5b4e-4eee-99ce-5e6d1fd7bb9e" d="M81.07,284.76c-9.04-4.72-16.7-16.99-17.11-27.42-.41-10.42,6.59-15.04,15.63-10.32,9.04,4.72,16.7,16.99,17.11,27.42,.41,10.42-6.59,15.04-15.63,10.32Z"/><g><ellipse class="uuid-2e2794cf-24f7-4327-afc4-1bbb1985cb02" cx="81.23" cy="265.34" rx="7.48" ry="12.92" transform="translate(-125.79 80.56) rotate(-31.23)"/><path class="uuid-0b634c30-1f77-4ae2-a5be-c101d8135f15" d="M91.16,259.78c-2.31-3.94-5.56-7.34-9.08-9.18-6.66-3.48-11.81-.07-11.51,7.6,.3,7.67,5.94,16.71,12.6,20.18,6.38,3.33,11.39,.34,11.52-6.68,0-.3,0-.6-.01-.92-.14-3.6-1.46-7.51-3.51-11Zm-.67,11.09c-.1,5.39-3.94,7.69-8.84,5.13-5.11-2.67-9.44-9.6-9.67-15.49-.23-5.89,3.72-8.5,8.83-5.83,2.71,1.41,5.2,4.03,6.97,7.05,.79,1.34,1.43,2.76,1.9,4.19,.46,1.43,.74,2.87,.8,4.26,0,.24,.01,.47,0,.7Z"/></g></g></g><path class="uuid-963a5718-e24f-47e6-9320-c14ab5d97d1c" d="M489.31,278.45c-9-13.18-25.64-27.59-39.13-36.12-38.16-24.15-54.19-37.66-88.94-65.86-12.08-9.8-34.02-29.78-46.73-38.74-5.39-3.8-109.01-50.31-124.33-48.94-6.68,1.53-28.31,4.71-48.12,8.27,0,0-16.45-.83-16.84-.8-19.97,1.42-106.78,56.66-107.91,57.59-4.1,3.37-6.71,7.38-7.27,10.83-.62,3.84-.89,7.75-.79,11.68l1.14,46.77c.09,3.7,1.11,7.3,3.02,10.46,3.16,5.25,24.33,21.76,31.3,26.69-.55-27.56,7.94-44.95,34.88-30.26,25.51,13.91,36.65,42.29,37.33,70.17l154.48,83.03c-.4-27.15,8.17-44.13,34.88-29.56,24.9,13.58,36.07,40.93,37.23,68.15,9.51,5.03,4.75,2.25,7.98,3.8,11.04,5.25,23.19,7.05,35.17,6.19,30.67-2.2,55.03-16.08,77.67-31.64,17.72-12.18,31.38-24.48,37.95-35.41,2.87-4.77,3.99-10.37,3.75-15.93-.65-14.76-1.58-48.24-16.69-70.37Z"/><path class="uuid-111eb3b2-dd7f-4846-824d-f0a25892eb34" d="M487.26,276.27c-9-13.18-25.64-27.59-39.13-36.12-38.16-24.15-54.19-37.66-88.94-65.86-12.08-9.8-34.02-29.78-46.73-38.74-5.39-3.8-109.01-50.31-124.33-48.94-6.68,1.53-28.31,4.71-48.12,8.27,0,0-16.45-.83-16.84-.8-19.97,1.42-106.78,56.66-107.91,57.59-4.1,3.37-6.71,7.38-7.27,10.83-.62,3.84-.89,7.75-.79,11.68l1.14,46.77c.09,3.7,1.11,7.3,3.02,10.46,3.16,5.25,24.33,21.76,31.3,26.69-.55-27.56,7.94-44.95,34.88-30.26,25.51,13.91,36.65,42.29,37.33,70.17l154.48,83.03c-.4-27.15,8.17-44.13,34.88-29.56,24.9,13.58,36.07,40.93,37.23,68.15,9.51,5.03,4.75,2.25,7.98,3.8,11.04,5.25,23.19,7.05,35.17,6.19,30.67-2.2,55.03-16.08,77.67-31.64,17.72-12.18,31.38-24.48,37.95-35.41,2.87-4.77,3.99-10.37,3.75-15.93-.65-14.76-1.58-48.24-16.69-70.37Z"/><path class="uuid-973e61cb-057c-417c-9096-634136572c2d" d="M44.07,239.65c-1.14,5.28-1.57,11.54-1.43,18.44-6.98-4.94-28.14-21.45-31.3-26.69-1.91-3.17-2.93-6.77-3.02-10.46l-.02-.79,35.77,19.51Zm294.78,160.78c1.45,6.28,2.31,12.73,2.58,19.19,9.51,5.03,4.75,2.25,7.98,3.8,11.04,5.24,23.19,7.05,35.17,6.19,2.17-.16,4.25-.5,6.36-.77l-52.09-28.41Zm-226.64-123.62c1.6,6.93,2.46,14.07,2.64,21.18l154.48,83.03c-.1-6.62,.35-12.63,1.46-17.73l-158.57-86.49Z"/><path class="uuid-cf7c0944-7964-4d24-913f-90a8e5316713" d="M33.27,158.99c40.42-25.3,87.63-55.83,106.73-64.12,0,0-16.45-.83-16.84-.8-19.96,1.42-106.78,56.66-107.91,57.59-1.55,1.27-2.88,2.64-3.97,4.04-1.35,1.74-.48,4.3,1.66,4.83,3.16,.78,6.34,1.38,8.95,1.82,3.84,.64,8.06-1.32,11.39-3.35Z"/><path class="uuid-47564d00-d8d2-455e-93ff-47ff2fc50005" d="M88.51,143.01l-35.98,7.73c-.53,.11-.81-.6-.35-.88l75.55-46.38c4.91-2.75,9.24-4.65,14.78-5.66l38.18-6.98-85.18,49.57c-2.19,1.2-4.55,2.08-7,2.6Z"/><path class="uuid-519d2e3e-47ff-4f51-8188-95a49f1d7b87" d="M130.93,104.11c4.54-2.54,8.74-4.46,14.3-5.48l30.35-5.55-78.3,45.57c-2.05,1.12-4.27,1.95-6.59,2.44l-29.51,6.34c-.24,.05-.37-.28-.16-.41l69.9-42.92Z"/><path class="uuid-aef83668-3294-4ddc-9428-9c87996ed727" d="M460.73,367.14c38.01-24.86,41-48.47,40.7-50.42-2.1-13.68-6.12-28.67-14.17-40.46-9-13.18-25.64-27.59-39.13-36.12-38.16-24.15-54.19-37.66-88.94-65.86-12.08-9.8-34.02-29.78-46.73-38.74-5.39-3.8-105.19-52.39-122.82-49.51-12.98,4.43-62.71,31.98-97.43,56.2,26.8,8.44,108.48,46.47,120.58,60.45,13.93,16.1,61.58,87.53,61.58,87.53,16.21,15.73,53.28,46.41,70.05,61.51,18.81,17.92,17.86,24.84,19.84,39.07,.33,2.36,2.17,4.31,4.53,4.64,26.63,3.72,56.25-3.57,91.94-28.28Z"/><path class="uuid-09899a41-41df-4d53-b0cc-ba3bcf49d5fd" d="M189.64,86.03c-12.98,4.43-62.71,31.98-97.43,56.2,22.87,7.21,85.73,35.97,111.18,52.93,2.32,1.55,36.97-13.13,64.36-29.77,24.23-14.72,41.78-31.52,40.82-32.03-19.58-10.32-102.96-49.93-118.92-47.33Z"/><path class="uuid-4da01abe-a040-4909-b470-bb67952af05c" d="M366.83,359.66c69.06,3.59,131.12-56.29,123.18-78.96-.86-1.52-1.78-3-2.76-4.43-9-13.18-25.64-27.59-39.13-36.12-17.69-11.19-30.61-20.1-42.85-29.25-46.07,64.85-130.9,79.31-130.9,79.31,12.27,11.9,50.45,44.55,68.32,59.74,6.79,5.77,15.25,9.26,24.15,9.72Z"/><path class="uuid-fc59b150-db14-477d-8d3b-5eca7f7407bb" d="M84.88,170.19c-.31-.09-.57,.12-.7,.41-5.06,11.21-2.83,44.82-3.73,58.93,.38,.21,.73,.45,1.11,.67,.88-13.77-.65-48.88,3.74-59.31,.12-.29-.11-.62-.41-.7Z"/><path class="uuid-fc59b150-db14-477d-8d3b-5eca7f7407bb" d="M287.07,316.61l-28.24-40.57c-.31,.23-.64,.42-.99,.59l28.19,40.49,.71,29.07c.38-.01,.76-.03,1.15-.02l-.71-29.25c0-.11-.04-.22-.1-.31Z"/><path class="uuid-fc59b150-db14-477d-8d3b-5eca7f7407bb" d="M171.64,231.75c-.37-.2-.74-.39-1.11-.59-1.63,22.99-2.87,53.24-2.08,87.64l-54.2-29.56c.05,.46,.09,.92,.13,1.38l54.39,29.66,100.63,54.89c.02-.43,.05-.85,.07-1.27l-99.86-54.47c-.82-34.38,.4-64.65,2.02-87.69Z"/><path class="uuid-47564d00-d8d2-455e-93ff-47ff2fc50005" d="M304.32,283.51c34.17-10.23,67.01-32.32,94.74-59.89,3.15-3.13,2.85-8.33-.59-11.16l-89-73.26c-19.53,18.7-51.79,37.6-92.83,56.64,21.55,34.81,46.71,67.83,65.85,83.79,7.25,6.04,13.45,6.38,21.83,3.87Z"/><path class="uuid-519d2e3e-47ff-4f51-8188-95a49f1d7b87" d="M287.42,270.31c-.95,.02-1.9,0-2.84-.09-6.64-.59-12.05-5.29-16.34-10.4-10.96-13.07-34.31-41.47-44.27-57.31-1.05-1.67-.35-3.86,1.43-4.7,38.28-18.11,65.83-34.8,83.88-50.82,1.43-1.27,3.53-1.32,5.02-.12l69.39,57.44c1.17,.96,1.88,2.38,1.95,3.9,.07,1.5-.47,2.91-1.52,3.95-29.57,29.4-58.22,47.55-90.16,57.11-2.12,.64-4.32,.99-6.54,1.04h0Z"/><path class="uuid-47564d00-d8d2-455e-93ff-47ff2fc50005" d="M213.71,211.02c-4.76-6.85-11-12.5-18.31-16.51-29.59-16.23-74.79-38.52-93.86-44.37-4.27-1.31-55.15,22.96-46.53,27.66,23.57,12.86,180.43,93.14,204,105.25,1.45,.74,3.27-.85,2.41-2.22-6.91-10.99-34.44-50.73-47.71-69.81Z"/><g><path class="uuid-519d2e3e-47ff-4f51-8188-95a49f1d7b87" d="M104.19,153.7c-2.26-.96-4.77-.9-6.99,.15-2.66,1.26-6.63,3.17-11.03,5.36-.83,7.77-1.78,17.93-2.62,30.12,27.23,14.24,69.67,36.37,85.61,44.52,1.64-24.26,3.74-40.78,4.53-46.53-23.15-11.88-56.3-28.03-69.51-33.62Z"/><path class="uuid-519d2e3e-47ff-4f51-8188-95a49f1d7b87" d="M82.51,161.05c-12.41,6.3-26.13,13.95-23.13,15.59,.89,.48,9.16,4.82,20.88,10.96,.72-10.42,1.51-19.31,2.24-26.55Z"/></g><path class="uuid-519d2e3e-47ff-4f51-8188-95a49f1d7b87" d="M228.01,263.85c11.38,5.8,20.29,10.33,25.27,12.88-8.14-12.59-33.33-48.93-44.18-64.53-4.33-6.23-10.09-11.43-16.67-15.04-4.28-2.35-9.6-5.15-15.46-8.17-.86,6.52-2.86,23.07-4.41,46.58,20.8,10.63,40.59,20.71,55.45,28.28Z"/><path d="M193.68,264.41l-14.94-8.15c-.84-.46-1.55-1.51-1.57-2.34l-.05-2.09c-.02-.83,.65-1.14,1.49-.67l14.94,8.15c.84,.46,1.55,1.51,1.57,2.34l.05,2.09c.02,.83-.65,1.13-1.49,.67Z"/><path d="M104.34,215.68l-14.94-8.15c-.84-.46-1.55-1.51-1.57-2.34l-.05-2.09c-.02-.83,.65-1.14,1.49-.67l14.94,8.15c.84,.46,1.55,1.51,1.57,2.34l.05,2.09c.02,.83-.65,1.13-1.49,.67Z"/><g><path class="uuid-e377cbe2-145b-46bd-885b-ebf56db26ffa" d="M214.57,266.42c-2.31,2.82,.15,11.3,4.07,12.99,.75,.32,1.59,.4,2.41,.47,8.04,.68,19.01,.54,22.79-4.01,1.14-1.37,.99-2.21,.44-3.82-.83-2.39-3.81-12.54-5.93-13.61-1.85-.93-22.4,6.3-23.78,7.98Z"/><path class="uuid-2e5137e5-2cc6-4d14-99b3-3cd3b8f8db57" d="M241.87,264.95c-1.13-3.04-2.43-5.96-3.52-6.51-1.85-.93-22.4,6.3-23.77,7.98-.46,.56-.72,1.36-.83,2.27,10.64,1.29,22.76-.91,28.12-3.74Z"/><path class="uuid-47564d00-d8d2-455e-93ff-47ff2fc50005" d="M252.69,272.32c-.71-.07-7.66-1.55-8.87-1.68-4.09-.46-9.6,6.94-7.86,8.91,.46,.52,18.11,1.22,18.67,1.25,2.84,.14,1.88-8.12-1.93-8.48Z"/></g><path class="uuid-e3dd6a35-6690-4b01-ac67-a1907311d2f9" d="M7.31,168.32s-3.37,12.6,.53,29.28c3.98,.8,5.01-16.16,5.26-22.88,.06-1.66-.77-3.22-2.17-4.11l-3.61-2.29Z"/><g><path class="uuid-8169a2cf-9b7b-47ac-9795-355ff21afda4" d="M409.03,363.64c6.26-.93,14.05,16.36,7.3,20.4-6.6,3.95-23.93,8.78-47.65,6.71-10.22-3.05-13.03-23.4-2.35-24.65,7.49,.23,18.93,1.06,42.71-2.47Z"/><path class="uuid-8169a2cf-9b7b-47ac-9795-355ff21afda4" d="M366.32,366.1c-16.33-.5-8.91,23.66,2.35,24.65-3.72-4.44-7.16-19.96-2.35-24.65Z"/><path class="uuid-8169a2cf-9b7b-47ac-9795-355ff21afda4" d="M486.84,309.09c-.7,4.65,3.38,19.22,5.16,19.92,2.19,.87,8.61-11.86,8.39-18.28-.19-5.54-3.39-18.46-6.83-22.91-2.05,10.23-6.3,18.45-6.72,21.26Z"/></g></g><g><g><path class="uuid-99cb4ad2-3583-4fc6-95ce-2818e8cd8e1e" d="M407.55,115.83c-.8-19.88-17.13-35.76-37.19-35.83-20.55-.07-37.41,16.65-37.49,37.21-.02,5.22,1.03,10.19,2.94,14.71,8.2,22.2,30.98,48.74,34.07,51.73,.2,.19,.5,.19,.71,0,3.38-3.11,29.77-32.03,35.77-56.76,.06-.23,.12-.47,.17-.71,.05-.24,.11-.47,.16-.71,.38-1.71,.64-3.47,.77-5.27,0-.07,.01-.14,.02-.21,.06-.87,.1-1.75,.1-2.64,0-.55-.02-1.05-.04-1.53Zm-37.32,20.91c-10.7,0-19.37-8.67-19.37-19.37s8.67-19.37,19.37-19.37,19.37,8.67,19.37,19.37-8.67,19.37-19.37,19.37Z"/><path class="uuid-94cde886-f6e1-4804-a901-78506671b178" d="M338.88,117.19c-.22-4.11,.49-8.28,1.93-12.19,1.48-3.9,3.77-7.52,6.69-10.54,2.91-3.04,6.48-5.46,10.36-7.12,3.9-1.65,8.13-2.49,12.37-2.52,4.23,.03,8.47,.86,12.37,2.52,3.89,1.67,7.45,4.08,10.36,7.12,2.93,3.03,5.21,6.64,6.69,10.54,1.44,3.91,2.15,8.08,1.93,12.19,0,.16-.15,.29-.31,.28-.15,0-.28-.13-.28-.28-.38-8.07-3.91-15.74-9.57-21.18-5.65-5.46-13.38-8.59-21.18-8.55-7.8-.04-15.53,3.09-21.18,8.55-5.66,5.44-9.19,13.12-9.57,21.18,0,.16-.15,.29-.31,.28-.15,0-.28-.13-.28-.28Z"/><path class="uuid-e24a9111-4787-40ac-8634-6dac70d6d10a" d="M370.23,92.42c-13.78,0-24.95,11.17-24.95,24.95s11.17,24.95,24.95,24.95,24.95-11.17,24.95-24.95-11.17-24.95-24.95-24.95Zm0,44.32c-10.7,0-19.37-8.67-19.37-19.37s8.67-19.37,19.37-19.37,19.37,8.67,19.37,19.37-8.67,19.37-19.37,19.37Z"/><path class="uuid-096cfd02-bbb7-47c5-932e-36c5732fcf2f" d="M370.1,153.39c-12.04,0-22.89-5.05-30.57-13.14,9.9,19.21,27.65,40.78,30.35,43.39,.2,.19,.5,.19,.7,0,2.84-2.61,21.91-24.63,31.5-44.97-7.73,9-19.19,14.71-31.99,14.71Z"/><path class="uuid-c17d9f61-964e-4e73-9497-9c8bd9ca9f5b" d="M391.99,147.48c-.15-.06-.32,0-.39,.15h0c-1.24,2.69-2.93,5.17-4.67,7.58-1.76,2.41-3.59,4.76-5.48,7.07-3.61,4.41-7.37,8.7-11.21,12.9-3.84-4.2-7.6-8.5-11.21-12.9-1.89-2.31-3.73-4.67-5.48-7.07-1.74-2.41-3.44-4.89-4.67-7.56h0c-.07-.16-.24-.23-.39-.16-.15,.07-.22,.24-.16,.39,1.21,2.8,2.86,5.33,4.56,7.8,1.71,2.47,3.5,4.88,5.34,7.25,3.68,4.73,7.5,9.33,11.45,13.84,.02,.03,.03,.06,.06,.08,.06,.06,.13,.09,.2,.12h.01c.06,.03,.13,.04,.2,.05,.03,0,.07,.01,.1,.02,.03,0,.07-.01,.1-.02,.07,0,.13-.02,.19-.05h.01c.07-.04,.14-.07,.2-.13,.03-.02,.04-.05,.06-.08,3.95-4.51,7.77-9.11,11.45-13.84,1.84-2.37,3.63-4.78,5.34-7.25,1.7-2.47,3.34-5.01,4.55-7.8,.07-.15,0-.33-.16-.39Z"/><path class="uuid-968ed5f6-5e0d-44fe-ac7c-6eaba5f2a6d0" d="M378.08,94.44s2.43,.66,4,1.84c-2.03,2.56-2.92,3.71-2.92,3.71l-2.05-.93,.97-4.61Z"/><path class="uuid-bf3f8969-c9ac-4c53-8af5-0f2fb0ce13fc" d="M352.63,108.35c1.77-3.02,4.07-6.56,7.02-7.8-1.25-2.36-2.3-4.2-2.3-4.2,0,0-5.57,2.82-8.99,9.97,2.03,.92,4.26,2.03,4.26,2.03Z"/><path class="uuid-dad2dd5b-fd8f-43e8-a226-4675daf8d387" d="M378.08,140.68s2.43-.66,4-1.84c-2.03-2.56-2.92-3.71-2.92-3.71l-2.05,.93,.97,4.61Z"/><path class="uuid-ebde37ec-454c-45a5-845a-78475b5c7e8b" d="M352.63,126.39c1.77,3.02,4.07,6.56,7.02,7.8-1.25,2.36-2.3,4.2-2.3,4.2,0,0-5.57-2.82-8.99-9.97,2.03-.92,4.26-2.03,4.26-2.03Z"/><path class="uuid-bef0f28d-495a-49d8-ab8f-3a31c1f755f2" d="M370.23,82.18c9.55,0,18.44,3.03,25.87,8.24-6.71-6.45-15.83-10.42-25.87-10.42s-19.17,3.97-25.89,10.42c7.44-5.21,16.33-8.25,25.89-8.25Z"/><path class="uuid-2d453e0b-122c-41a2-9ca5-83a54589c186" d="M394.8,121.77c-.44,2.83-1.41,5.57-2.8,8.09-1.41,2.51-3.26,4.77-5.43,6.66-2.17,1.9-4.69,3.4-7.39,4.44-2.7,1.04-5.58,1.59-8.47,1.64-2.89,.05-5.79-.39-8.53-1.32-2.73-.94-5.31-2.34-7.55-4.16-2.25-1.81-4.18-4-5.68-6.45-1.49-2.46-2.56-5.17-3.1-7.98,.67,2.78,1.79,5.44,3.35,7.82,1.53,2.39,3.48,4.52,5.72,6.25,2.24,1.73,4.76,3.1,7.45,3.98,2.68,.9,5.51,1.32,8.34,1.26,2.82-.04,5.64-.58,8.29-1.57,2.65-.99,5.12-2.45,7.29-4.26,2.17-1.82,4.03-4.01,5.48-6.46,1.46-2.44,2.48-5.14,3.05-7.95Z"/><path class="uuid-b3c00aa6-d59d-45e3-947d-489b4c272dcd" d="M345.36,115.37c.16-3.1,.95-6.18,2.27-9.02,1.33-2.83,3.2-5.42,5.5-7.57,2.29-2.16,5-3.86,7.93-5.02,2.93-1.16,6.09-1.74,9.24-1.74,3.15,.01,6.31,.61,9.23,1.78,2.92,1.18,5.63,2.9,7.91,5.07,2.29,2.16,4.15,4.76,5.46,7.6,1.3,2.85,2.08,5.93,2.22,9.03l-.14-1.16-.2-1.15c-.08-.38-.16-.76-.24-1.14-.09-.38-.2-.75-.29-1.12-.43-1.49-.99-2.93-1.69-4.3-1.38-2.76-3.27-5.25-5.53-7.32-2.27-2.06-4.91-3.72-7.76-4.82-2.85-1.11-5.9-1.69-8.96-1.69-3.06-.01-6.12,.55-8.97,1.64-2.86,1.09-5.51,2.73-7.79,4.78-4.57,4.1-7.56,9.95-8.18,16.14Z"/></g><g><path class="uuid-028b1495-1382-4014-95b5-90fada911647" d="M388.63,114.85s-.04-.09-.05-.14c-.01-.05,0-.11-.05-.18-.03,.04-.06,.08-.1,.1-.03,0-.04,.02-.03,.05h0s-.06,.03-.06,.08l-.02,.02h0c-.22,.03-.42-.1-.56-.14-.02-.3-.2-.2-.33-.38-.29-.38-.41-.41-.33-.55,.05-.08,.12-.12,.21-.13h.02l.02,.05s.03,.08,.07,.09l.07,.11s.02,.05,.04,.06l.02,.05s.01,.08,.06,.1c.01,.04,.04,.05,.06,.06,.06,0,.11,.04,.16,.08,0,.04,.03,.05,.06,.06,0,0,.01,0,.02,.01,.03,.04,.06,.06,.1,.07,0,.02,.02,.03,.03,.03,.05,.02,.09,.01,.14,.04,.27,.16,.3-.06,.39-.05-.54-3.54-1.27-5.2-3.27-7.98-.06-.04-.14-.1-.3-.2-.16-.1-.19-.12-.18-.09-.07-.04-.14-.06-.22-.11-.03-.02-.06-.03-.08-.03-.05,0-.12-.03-.19-.05-.02,0-.02,0-.02,.01-.01,0-.1-.05-.1-.05,0,.08-.07,.04-.16,0-.07-.04-.15-.12-.24-.2,.04-.01,.09,0,.14,.03,.03,.01,.02-.01-.02-.06-.11-.13-.18-.16-.47-.31,.1,.09,.14,.15,.14,.2,0,.08,.16,.14,.15,.23,0,.04-.02,.03-.1-.03-.08-.06-.17-.13-.21-.12-.07,.01-.18-.03-.25,0-.03,.01-.03,.02,.03,.1,.06,.08,.07,.1,0,.08-.11-.04-.22-.08-.36-.2-.07-.06-.16-.09-.15-.05,0,.03,.04,.05,.06,.07,.08,.08,.15,.06,.18,.14,.03,.06-.04,.05-.1,.01-.07-.04-.13-.09-.2-.14-.04-.03-.07-.06-.1-.08-.04-.02-.08-.02-.12-.11-.02-.05-.08-.1-.1-.16-.03-.09-.04-.11-.13-.17-.06-.04-.11-.07-.13-.11-.02-.07,.21,.09,.3,.14,.21,.12,.42,.24,.61,.32,.14,.06,.39,.09,.12-.18-.03-.03-.06-.05-.09-.07-.34-.22-.78-.6-1.1-.74-.23-.1-.31-.28-.44-.29-.04,0-.1-.04-.16-.06-.03-.01-.07-.03-.1-.09h.07l-.02-.04c-.18-.15-.33-.19-.45-.29-.07-.06-.15-.1-.18-.04,0,.02-.03,0-.06-.02-.03-.03-.05-.03-.07-.03-.19-.23-.29-.08-.59-.23-.01,0-.03,0-.04-.01-.08-.02,.04,.1-.11,.05-.12-.04-.24-.09-.36-.13-.03-.01-.08-.04-.09-.02-.04,.06-.14,.03-.2,.07-.02,.01-.06,0-.07,.03-.02,.05-.06,.04-.12-.01-.06-.05-.09-.04-.14-.02-.07,.02-.15,.03-.2,.08,0,0-.03,0-.04,0-.03,0-.09,0-.07,.05,.03,.07,.2,0,.26,.12,.02,.05,0,.07-.02,.07-.1,.01-.16,.08-.25,.12-.06,.03-.12,.06-.1,.17,.02,.14-.14,.05-.14,.11,0,.09-.08,.09-.12,.14-.04,.06-.09,.07-.17,.04-.22-.07-.13,.1-.33,.12-.13,0-.11,.09-.24,.08-.07,0-.12,.12-.12,.21,.01,.13,.08,.26,.12,.38,.04,.1,.08,.19,.15,.27,0,.07,.04,.1,.09,.1,.18,.17,.43,.21,.55,.11,.08-.07,.16-.13,.29-.09,.09,.03,.11,.03,.15,.15,.04,.1,.09,.19,.16,.27,.06,.07,.11,.15,.18,.22,.05,.05,.05,.1,0,.11-.04,0-.07,.03-.11,.04-.04,0-.08-.01-.11,.01-.03,.03,.02,.1,0,.13-.08-.09-.06-.16-.07-.24h0c0-.05-.04-.08-.07-.1-.1-.09,.02-.13-.07-.22-.04-.04-.08-.04-.11,0-.04,.06-.1,.06-.16,.06-.21,0-.11,.29-.06,.36,.08,.12,.05,.23,.09,.35,.02,.05-.03,.07-.07,.06-.16-.02-.3,.04-.47,.02-.09,0-.17,.03-.16,.18,0,.04,0,.07-.03,.09-.12,.1-.24,.22-.4,.23-.2,.02-.02,.24-.24,.26-.23,.02-.07,.15-.27,.11-.04-.01-.09-.02-.13-.06-.03-.03-.07-.07-.11-.04-.06,.06,.1,.21-.04,.23-.04,0-.09,.03-.13,0-.12-.1-.23-.03-.34-.05-.04,0-.09,0-.08,.06,0,.06,.03,.12,.08,.16,.06,.03,.35,.04,.5,.33,.01,.03,.04,.06,.06,.07,.09,.06,.21,.32,.15,.64-.03,.16-.06,.2-.19,.19-.16,0-.33-.11-.48-.05h-.01c-.18-.09-.36-.06-.54-.11-.15-.04-.27,.01-.39,.07-.06,.03-.06,.07-.03,.15,.23,.55,0,.88-.02,.96-.01,.06-.01,.13,.04,.16,.19,.1,.06,.37,.16,.41,.08,.03,.17,.08,.24,.02l.09-.02h.02c.19,.09,.15,.22,.25,.29l.02,.14c-.04,.1-.08,.49-.46,.6,0,0-.02,0-.03,.01-.11,.09-.23,.17-.23,.38-.19,.21-.08,.32-.05,.55-.06,.1-.1,.23-.2,.28-.1,.06-.17,.14-.25,.23-.11,.03-.35,.02-.4,.36-.01,.06-.06,.1-.1,.12-.08,.04-.11,.11-.15,.2-.05,.1-.03,.23-.08,.32-.03,0-.05,.02-.05,.06,0,0,0,.01-.02,.02-.02,0-.04,.02-.04,.05-.04,.11-.12,.06-.1,.18,0,0,0,.01,0,.02-.04,.03-.06,.06-.05,.12l-.02,.06s-.02,.02-.01,.03c0,.03,0,.06-.03,.09-.03,0-.05,.03-.06,.07l-.03,.04h0s0,.01,0,.01h0l-.02,.06v0s-.04,.03-.02,.06v.16s-.05,.03-.03,.05c.14,.16-.02,.28,.09,.44,.05,.06,.08,.14,.13,.19l.02,.07c-.05,.23,.03,.33-.04,.48v0c-.06,.06-.06,.18-.09,.43h0s-.04,.04-.04,.07c0,0,0,.02,0,.02-.13,.09-.13,.11-.03,.23,0,0,.02,.01,.03,.02l.02,.07c0,.2,.01,.39-.02,.58,0,.05,0,.09,.02,.12,.08,.09,.12,.24,.25,.24,.01,0,.03,0,.04,.02,.07,.13,.2,.17,.3,.25,.15,.13,.18,.33,.25,.5,.03,.07-.09,.14,.03,.19,.05,.02,.1,.07,.16,.1,.32,.13,.43,.38,.91,.75,.09,.07,.19,.07,.3,0,.35-.19,.71-.28,1.07-.11,.05,.02,.09,.02,.14-.01,.16-.11,.33-.1,.4-.24l.06-.02s.02,0,.03,0c.01,0,.05,0,.07-.02,.14-.12,.29-.13,.44-.15,.06,.02,.12,0,.18,0,.28-.08,.32,.29,.41,.44,.11,.19,.13,.15,.33,.08,.13,.04,.33-.14,.44,.07,.05,.1,.13-.02,.16,.22,.02,.14,.02,.29-.04,.43-.11,.25-.04,.45-.14,.6-.1,.14-.1,.14-.03,.29,.02,.04,.03,.08,.06,.11,.01,.1,.06,.18,.12,.23,.1,.11,.16,.27,.26,.38,.07,.08,.11,.18,.12,.31,0,.07,.02,.11,.16,.64,.07,.24-.12,.21-.06,.36,.03,.09,.04,.2,.07,.29,.03,.08,.03,.18,0,.28-.02,.08-.07,.16-.1,.24-.21,.12-.28,.53-.35,.7-.03,.02-.03,.07-.04,.11l-.03,.05s0,.03-.09,.47c-.01,.08,0,.15,.03,.2,.07,.1,.1,.24,.14,.37,.02,.09,.04,.17,.06,.25,.01,.05,.02,.1,.07,.11,0,.03,0,.06,.02,.09,.04,.07,.05,.16,.02,.27-.04,.13-.06,.27-.03,.38,0,.03,0,.06,0,.1-.03,.2-.03,.37,0,.53,0,.08,.02,.13,.06,.16,.06,.05,.09,.14,.12,.21,0,.03,0,.04,.02,.04,0,.06,0,.1,0,.15,0,.11,.04,.19,.07,.27,.02,.04,.02,.08,.02,.13-.06,.12-.09,.29-.09,.39,0,0,0,.02,0,.03,0,.02,0,.03,.02,.03,.06,0,.1,.05,.15,.07,.03,.01,.06,.02,.09-.02,.1-.09,.18-.12,.27-.14,.03,0,.05-.02,.08-.04,.14-.14,.26-.14,.38-.17,.07-.02,.13-.02,.22-.07,.11-.07,.22-.12,.33-.19,.03-.02,.07-.06,.11-.08,.17-.14,.32-.32,.48-.48,.33-.34,.41-.56,.59-.71,.17-.14,.27-.39,.35-.56,.03-.06,.05-.11,.04-.16,0-.04,.03-.09,.07-.13,.08-.07,.18-.12,.38-.26,.07-.05,.13-.12,.16-.2,.05-.15,.1-.29,.13-.43,0-.04,0-.07-.02-.08,.01-.04,.02-.08,0-.1,.02-.08-.02-.11,0-.19,.1-.13,.21-.25,.33-.34,.03-.02,.05-.05,.08-.08,.13-.19,.28-.32,.45-.4,.04-.02,.08-.05,.11-.1,0,0,.01,0,.02,0,.04-.02,.08-.06,.11-.11,.03-.03,.06-.06,.07-.1,.08-.08,.16-.15,.19-.26v-.03s.02-.02,.02-.03l.02-.06s0-.02,0-.02c-.01-.09,.02-.2,.04-.31-.03,0-.03,0,0,0l.02-.09s-.03,0,0,0l.03-.14s-.1,.02-.1,.02c0,0,.06,0,.1-.02,.02-.07,.04-.15,.06-.22,.05-.25-.11-.11-.09-.28,.01-.13-.05-.24,.06-.39-.02-.11,.03-.25-.04-.33-.1-.1,.11-.35,.25-.72,.03-.02,.05-.04,.06-.07,.01-.02,.03-.07,.04-.09,.3-.19,.25-.34,.86-1,.06-.07,.14-.11,.19-.2,.12-.05,.23-.15,.32-.28h0c.54-.62,.47-.79,.73-1.23,.05-.09,.1-.18,.14-.27,.03-.07,.01-.17,.06-.22,.07-.09,0-.15,.03-.28,0-.03,.01-.06-.01-.07-.03-.02-.06-.03-.09,0-.05,.08-.12,.08-.18,.1-.08,.04-.17,0-.24,.05-.06,.04-.12,0-.17,.02-.06,.02-.1,.08-.16,.09-.07,.02-.08-.06-.25,.05-.15,.1-.2,.02-.32-.14,0-.07-.05-.09-.09-.12,.1-.1,.11-.16,.03-.26h0c-.13-.13-.23-.28-.35-.42-.02-.01-.04-.03-.05-.04-.05-.08-.15-.06-.19-.16,.02-.05,.07-.02,.08-.09-.01-.02-.02-.04-.04-.06-.02-.02-.02-.06-.05-.06-.03,0-.03,.04-.03,.07,0,.06-.02,.09-.06,.09-.03-.08-.02-.06-.04-.11-.05-.1-.04-.44-.2-.56-.17-.13-.26-.32-.24-.58,.01-.14-.08-.25-.1-.39,0-.02-.04-.06-.07-.05-.04-.04-.06-.1-.11-.12-.06-.03-.11-.11-.11-.2,0-.05,.04-.1-.01-.16-.11-.13-.16-.3-.25-.45,0-.04-.02-.06-.05-.07,0,0-.01-.02-.01-.03,0-.04,0-.08-.04-.1l-.02-.07h0c.03-.05-.04-.15,.03-.18h0s-.05-.04-.05-.04c0,0,.03,.02,.05,.03h0c.05-.02,.11-.03,.18-.02,.03,.03,.07,.06,.09,.11,.01,.06,.04,.11,.08,.14l.02,.03s0,.02,.01,.02c0,0,0,0,.01,.01,0,.01,0,.02,.02,.01v.02s.03,.06,.05,.08v0l.04,.06c.02,.07,.02,.15,.09,.18h.01c.04,.07,.02,.16,.08,.2,.03,.08,.09,.1,.14,.14,.13,.1,.18,.26,.23,.42-.03,.1,.02,.19,.04,.28,.02,.1,.08,.22,.15,.24,.26,.1,.23,.46,.47,.69,0,.13-.13,.06-.12,.17,0,.04,.03,.05,.06,.07,.08,.06,.17,.11,.14,.26,0,.02,.01,.03,.03,.04,.04,.13,.02,.21,.08,.28,.07,.11,0,.22,.07,.3,0,.02,0,.03,.02,.03l.05,.02s.06,.03,.1,0c.08-.03,.17-.04,.22-.13,.05-.04,.11-.04,.17-.05,.14,0,.27-.16,.43-.17,.02,0,.04-.04,.05-.06,.09-.11-.06,.01,.52-.23,.15-.06,.02-.19,.17-.25,.11-.05,.22-.1,.34-.09,.08,0,.1-.02,.1-.13,0-.02,.01-.05,.03-.06,.12,0,.18,0,.19-.06-.03-.58-.05-.87-.13-1.44Zm-6.07-9.02c0-.06,.05-.01,.07,.03,0,.02,0,.03,.02,.05,.02,.05,.04,.06,.06,.04,.08-.05,.04,.01,.21,.2,.12,.13,0,.13-.07,.06-.05-.06-.11-.1-.16-.13-.09-.05-.11-.18-.13-.25Zm-.51,0c.09,.06,.2,.14,.31,.24,.04,.03,.05,.07,.05,.1,0,.13-.11-.03-.18,.02-.02,.01-.05-.01-.08-.04-.06-.07-.13-.14-.19-.21-.12-.14-.01-.15,.09-.11Zm-3.01,.55s.01-.07,.06-.03c.06,.04,.11,.04,.16,.05,.2,.05,.01-.18,.28-.1,.09,.03,.14-.02,.22-.02,.05,0,.05-.08,0-.15-.09-.11,.02-.07-.03-.26-.02-.08,.01-.11,.07-.1,.07,0,.13-.02,.19-.04,.03-.01,.05-.04,.07-.07,.01-.02,.01-.05-.01-.08-.06-.07-.11-.16-.19-.18-.26-.07-.42-.58,.14-.61,.06,0,.13,0,.16-.06,.01-.03,.03-.05,0-.11-.03-.06-.01-.09,.01-.1,.06-.03,.11-.07,.21-.03,.09,.03,.24,.06,.36,.16,.05,.04,.06,.08,.03,.1-.1,.05-.18,.14-.31,.16-.06,0-.11,.06-.17,.09-.05,.02-.05,.07,0,.16,.2,.34,0,.3,.16,.43,.35,.29,.56,.23,1.05,.31,.18,.03,.32,.19,.24,.2-.09,.01-.19,0-.31-.04-.1-.04-.19-.06-.28-.09-.1-.03-.19-.04-.26,0-.02,0-.04,.02-.06,.01-.11-.06-.12,.05-.18,.07-.03,0,0,.08,.05,.1,.2,.07,.15-.09,.32,.06,.15,.13,.13,.36-.04,.2-.09-.08-.17-.15-.26-.17-.12-.03-.13,.06-.13,.17,.04,.02,.05-.03,.05-.03,0,0-.01,.05-.05,.03,0,.01,0,.02,0,.03h0s-.02,.07,.03,.12l.03,.12s.03,.06,.03,.06c0,0-.02-.04-.03-.06-.02,.03-.04,.06-.08,.07-.06,0-.07,.09-.07,.09,0,0,0-.02,0-.03-.03-.01-.05,0-.07,.03-.11,.1-.14-.09-.29-.11,.03,.04,.04,.04,0,0h-.07s-.09,.03-.09,.03c0,0,.07,0,.09-.05-.07-.01-.16-.08-.16,.04h-.06s-.01,.02-.01,.02c0,0,.01-.02,.01-.03-.01,0-.03-.03-.04-.02-.09,.04-.21,.01-.3,.05-.05,.02-.09,0-.14-.06-.03-.03-.06-.06-.08-.11-.02-.05-.05-.07-.08-.05-.03,.01-.06,.02-.08,.06h-.05s-.08,.05-.08,.05c0,0,.07-.01,.08-.06-.05,0-.1,0-.12,.05h-.04s-.06-.03-.07-.08c.02-.06,.2,.01,.19-.17Zm3.55,4.02s-.02,0-.02,0c0,0,.02,0,.02,0,.03-.03,.03-.03,0,0Zm-.03,0h0Zm-.04,0h0Zm-2.04-3.57s-.07,.07-.07,.07c0,0,.06-.03,.07-.07Zm4,5.35c-.06,.03-.06,.11-.06,.19-.05,.14-.08,.34-.08,.47,0,0,0,0-.01,0h0s-.02,0-.02,.02l-.03,.02c-.15,0-.29-.02-.45-.09-.18-.09-.33-.06-.45,.08-.03,.01-.07,.03-.11,.01-.12-.06-.24-.08-.36-.14-.12-.06-.25-.12-.37-.09-.1,.03-.06-.15-.2-.14-.08,0-.16-.06-.23-.07-.02,0-.04-.03-.06-.05-.11-.2-.44-.15-.58-.06-.22,.15,.08,.26-.07,.44-.07,.08-.14,.11-.26,0-.33-.3-.63-.13-.71-.46,0-.04-.02-.08-.06-.09-.1-.02-.34-.19-.42-.16-.14,.05-.26-.08-.39-.13-.06-.03-.04-.17-.19-.15-.06,0-.1-.06-.1-.14,.07-.03,.13-.08,.17-.17,.06-.13-.01-.18-.07-.24h0s-.02-.03-.03-.04l-.02-.03c0-.07,.05-.09,.07-.14,.01-.02,.04-.05,.02-.08-.02-.04-.05-.03-.07-.01-.04,.03-.07,0-.1-.04-.07-.1-.15-.1-.21-.05-.18,.14-.5-.07-.75,.05-.04,.02-.08,.02-.13,0-.27-.16-.5,.01-.69,0-.14-.01-.26,.02-.36,.11-.06,.05-.23,.04-.31,.16-.09,.14-.22-.03-.71,.02-.03-.03-.05-.05-.08-.08-.25-.29,.19-.38,.4-.31,.06,.02,.11,0,.16,0h0s.07,0,.09-.06h0c.02-.05,.01-.03,.07-.1h0s.05-.01,.06-.03c-.01,0-.03,0-.03,0,0,0,.02,0,.03,0l.08-.02h0s.05-.02,.03-.06c.03-.1,.1-.15,.16-.21,0-.05-.03-.06-.04-.09-.04-.06-.06-.13-.02-.19,.1-.16,.17-.36,.37-.38,.04,0,.08-.03,.1-.08,.04,0,.08,0,.12-.02,.07-.04,.08-.07,.06-.18-.04-.2,.03-.29,.2-.25,.1,.03,.2,.05,.3,.1,.2,.1,.2-.09,.39-.11,.13-.01,.13-.22,.34-.1,.03,.02,.06,.04,.09,.06,.06,.03,.1,.07,.13,.16,.07,.23,.2,.26,.46,.53,.06,.06,.12,.12,.19,.13,.15,.04,.28,.17,.41,.29,.03,.03,.06,.07,.1,.08,.15,.05,.28,.41,.08,.46-.1,.02-.2,.01-.3,.04h-.05c-.07-.04-.1-.07-.21-.05-.04,0-.04,.07,0,.1,.02,.02,.05,.03,.08,.05,.11,.08,.23,.11,.33,.2,.1,.09,.12,.08,.16-.02,.03-.03,0-.08,0-.12-.01-.1,0-.13,.08-.11,.15,.03,.15-.16,.24-.21,.04-.02,.03-.09-.02-.15-.05-.05-.08-.1-.1-.17h0c.03-.08,.07-.1,.15-.04,.05,.04,.1,.05,.14,.11,.04,.06,.11,0,.05-.08-.04-.05-.08-.1-.13-.12-.1-.06-.2-.15-.31-.19-.13-.05-.04-.15-.19-.18-.04,0-.09-.02-.13-.04-.02-.04-.05-.05-.08-.08-.07-.06-.13-.12-.17-.22-.04-.13-.1-.15-.26-.27-.09-.07-.15-.26-.11-.34,.02-.05,.07-.04,.14-.05t0,0l.02,.02c.05,.05,.05,.14,.11,.18,.06,.03,.09-.04,.15-.02,.12,.29,.32,.44,.54,.55,.09,.04,.17,.11,.25,.16,.08,.06,.35,.16,.32,.51,0,.03,.01,.08,.04,.11,.08,.08,.13,.19,.21,.27,.09,.1,.21,.21,.22,.37,0,.03,.02,.05,.04,.07,.05,.04,.07,.09,.08,.16,0,.03,.02,.08,.05,.07,.08-.01,.17,.09,.26,.07,0-.07-.03-.15,.04-.18,.02,0-.02-.06-.02-.1,.09,.04,.17,.04,.21-.05-.04-.08-.09-.16-.17-.18-.05-.01-.07-.06-.21-.29-.02-.03-.04-.06-.03-.09,.02-.04,.06,0,.1,.03,.05,.02,.09,.01,.1-.05,0-.04,0-.1,.04-.08,.11,.05,.19-.01,.29,.03,.04,.02,.08,.04,.11,.05h0c.06,.12,.03,.21,.01,.3-.01,.07,.01,.08,.05,.1,.05,.03,.07,.02,.06-.05,0-.02-.01-.04,.01-.04,.08,.19,.08,.2-.07,.19-.03,0-.04,0-.04,.03,0,.02,0,.04,.02,.06,.03,.02,.05,.02,.08,.03,.09,.02,.07,.04,.14,.14,.06,.08,.07,.14,.06,.22,.15,0,.29,.03,.43,.17,.08,.08,.21,.08,.25,0,.02-.03,.03-.05,.07-.05,.08,.01,.16,.04,.24,.11,.15,.13,.32,.16,.42,.06,.07-.07,.12-.02,.22,0,.09,.02,.12,.06,.11,.15,0,.08,.01,.16,.05,.24,.01,.04,.02,.08,.01,.12Zm.7-1.38h-.04c-.1,.04-.23-.02-.35-.03-.11,0-.22-.04-.35-.12-.05-.03-.1-.04-.14-.04-.09-.07-.17-.13-.26-.16,0,0-.02-.01-.02-.02-.02-.04-.05-.06-.07-.06-.12,.02-.4-.11-.55,.03-.08,.07-.19,.04-.61-.08-.11-.12-.19-.26-.19-.41h0s0-.07,0-.08h0c.08,0,.12,.01,.1-.04-.01-.09-.02-.19,.02-.25,.07,.02,.12,0,.13-.09,0-.13,.07-.08,.14-.21,.03-.05,.1-.06,.16,0,.14,.15,.25,.13,.34,.18,0,.07-.08,.04-.09,.09,.05,.09,.17,.07,.2,.21,.01,.06,.06,.09,.11,.07,.08-.04,.24-.08,.35-.04,.01,0,.03,0,.04,0,.02-.01,0-.06-.02-.07-.08-.04-.24-.03-.29-.18-.02-.08,.02-.08,.36-.11,.04,0,.07,.02,.11,.08,.13,.19,.13,.24-.02,.26-.01,0-.03,0-.03,.02,0,.03,.02,.04,.04,.06,.13,.14,.24,.11,.24,.11,0,0-.04,0-.06,0,.07,.08,.24,.17,.28,.22,.1,.12,.21,.2,.32,.27,.18,.12,.25,.27,.19,.41,.02,.02,.05,.05,.05,.05,0,0-.03-.03-.05-.05Zm.07,.16s.04-.01,.05-.07h0c-.02,.05-.05,.07-.05,.07Zm1-.24h-.04c.04,.13,0-.04-.04-.17h0c.06-.03,0-.11-.02-.17-.09-.19-.08-.19,.11-.23,.02,0,.04,0,.05,.03,.06,.09,.16,.14,.21,.25,0,.01,.03,.02,.04,.04,.02,.04,.03,.08,.07,.09,.02,.01,.05,.05,.07,.04,.1,.12,.14,.24,.34,.34,.08,.04,.08,.05,.07,.13h0s-.02,0,0,.03l.03,.08s.01,.04,.03,.06c.06,.06,.07,.11,.08,.17l.03,.1h0c.01,.06,.09,.1,.08,.16,0,.06,.02,.12,.08,.18,.04,.04,.04,.09,.06,.13,.07,.21,.07,.2-.08,.23-.12,.02-.24-.06-.35-.16-.07-.06-.12-.11-.19-.13-.04-.01-.07-.03-.1-.08-.16-.3,.07-.17-.06-.42,0-.04,.01-.08,0-.04,.03,0,.07,0,.1,0,.05,0,.02-.06-.02-.08-.04-.02-.08-.03-.12-.05l-.04-.04s-.04-.05-.05-.08l-.04-.06h-.01c-.02-.07-.07-.1-.11-.14-.06-.07-.13-.14-.19-.22Z"/><path class="uuid-b8ffbcfd-d600-4fe2-827f-10ccc3e0aa4a" d="M382.66,110.27s.03,.03,.04,.04h0s-.04-.04-.04-.04Z"/><path class="uuid-61bb7e40-e0bc-4576-876a-40e7e922786f" d="M371.18,101.74s.01-.08,.02-.12c.02-.09,.04-.1,.11-.08,.14,.05,.09,.18,.33,.2,.09,0,.14,0,.26,0,.03,.02,.04,0,.03-.03-.03-.14-.05-.28-.2-.32,.09-.08,.13-.18,.06-.32,.07-.02,.13-.06,.2-.04,.07,.03,.11,0,.13-.07,.04-.18,.19,0,.33-.2,.05-.08,.08-.04,.16-.02,.03,0,.04-.05,.01-.07-.08-.07-.17-.08-.25-.06-.03,0-.03,.03-.02,.07,0,.03,.05,.03,.03,.08-.04,.01-.09,0-.14,0-.02,0-.04-.02-.05-.05,0-.02,.01-.03,.02-.04,.05-.06,.05-.06,0-.14l-.04-.03s-.04,0,0,0l.04,.03c-.02-.06-.04-.12-.09-.15-.04-.02-.02-.09,.01-.07,.05,.02,.1-.02,.15,.02,.01,.1,.06,.13,.14,.14-.11-.13,.05-.14,0-.28h0s-.11-.03-.12-.03c0-.28,.1-.24,.21-.33,.02-.02,.01-.07-.03-.09-.07-.02-.08,.04-.12,.08-.04,.04-.11,.01-.09-.09,0-.03,0-.08,.05-.06,.13,.05,.12-.16,.23-.13h.05c.1,.01,.04-.1,.19-.08,.11,.02,.19-.05,.3-.05,0,0,.02-.01,.02-.02,.13-.02,.16,.01,.22-.03-.16-.1-.19-.08-.31-.1-.04-.04-.08-.05-.12-.05-.13-.02-.48-.09-.54,0,0,0-.01,0-.02,0-.06,0-.12,.05-.19-.04,0-.01-.04-.01-.05,0-.05,.03-.11,0-.16,.03-.03,.01-.06,0-.09-.05,.02-.03,.07,0,.09-.03-.08-.06-.11-.08-.16-.08-.06,0,.02,.08-.02,.09,0,0,0,0-.1,.06-.03-.02-.05-.04-.05,.03l-.03,.02h-.03s0-.04-.02-.05c.01-.04,0-.08,0-.11,0,0-.02-.02-.02-.02,.01-.07,.07-.05,.1-.08,.01,0,.04-.03,0-.04-.48-.14-.6-.04-.71-.16-.07-.02-.12-.08-.2-.06-.04,0-.08,0-.12-.01-.08-.05-.25-.05-.34,0-.09,0-.18-.02-.27-.02-.16,0-1.18,.01-1.68,.16-.07,.02-.15,.04-.22,.05-.46,.04-.26,0-.93,.17-.04,0-.08,0-.08,.08l-.06,.02c-.05-.07-.11-.09-.16-.03-.05,.06-.1,.07-.16,.12h-.12s.02-.04,0-.04c-.02,0-.03,.03-.03,.06l-.13,.03s-.06,.06,0,.04c0,0,0,0,0,.01-.01,.04-.04,.05-.07,.07h-.07s-.02-.02-.04-.01h0s-.18-.05-.31,.07c0,0-.01,0-.02,0-.06-.09-.22,.02-.75,.19-.05,0-.06,.01-.16,.07h0c-.18,.05-.2,.07-.21,.03,.03-.02,.03-.04,.02-.05-.06-.04-.27,.11-.37,.03,0,0-.02,0-.04,0-.18,.04-.36,.11-.54,.16-.82,.2-2.24,.97-2.31,1.05-.21,.25-.38,.14-.68,.43-.04,.04-.08,.06-.11,.08-.16,.06-.22,.13-.4,.24-.04,.03-.09,.06-.14,.1-.04,.03-.08,.05-.14,.11,.02,0,.05,0,.09-.04,.11-.1,.05,.03,.1,.01,.06-.03,.09,0,.16-.05-.01,.06-.03,.08-.11,.13,.03-.06,0-.05-.04-.02-.01,0-.03,0-.06,.04-.07,.03-.13,.06-.17,.04-.04-.01-.11,.03-.17,.05-.1,.04-.25,.2-.35,.26h-.01c-.09,.11-.17,.18-.28,.29,.09-.05,.12-.03,.15,0h0c.08-.04,.13-.06,.17-.03,.08,.06,.49-.19,.55-.23,.1-.05,.2-.09,.33-.22-.01,.09-.01,.09-.1,.15-.01,0-.03,.02-.04,.04-.03,.06,.05,0,0,.07-.05,.05-.08,.04-.13,.1h0c-.09,.05-.19,.14-.27,.16-.03,0-.09,.08-.13,.09-.19,.07-.28,.18-.35,.17-.02,0-.05,0-.11,.05-.02,0-.04,0-.07,.03,0,0,0,0-.01,0-.09,.03-.18,.08-.32,.2,0,.04,.08,0,.1,0,0,.01,0,.01,.03,0h.02s.07-.02,.03,.07c-.06,.03-.12,.09-.17,.1-.02-.02-.06,0-.11,.05-.02,.02-.05,.06-.04,.05,.05-.03,0,.07,.04,.06,.03,0,.05,0,.06,.01,.01,.02,.05,0,.09-.07,.05-.02,.09-.03,.15-.07,.01,0,.04-.01,.06-.03,.03-.02,.07-.04,.09-.09,.06-.1,0-.1-.06-.06v-.02h0c.04-.09,.04-.08,.11-.14,.07-.05,.11-.06,.15-.08,0,0,.02,0,.03,0,.04-.01,.04,0-.02,.08-.02,.02-.04,.05-.03,.06,.02,.02,0,.07,.07,.05,.13-.05,.26-.1,.42-.21,.02-.01,.05-.04,.06-.03,.03,.04,.11-.02,.39-.15,.11-.05,.21-.09,.33-.15,.04-.02,.1-.07,.13-.07,.11,0,.24-.08,.37-.13,.05-.02,.1-.03,.15-.13,.01-.02,.03-.03,.04-.03,.03,0,.05-.03,.06-.06,.02-.04,0-.04-.01-.04-.46,.05-.44,.15-.53,.17-.13,.04-.29,.15-.43,.23-.15,.08-.26,.1-.4,.17,0,0-.01,0-.02,0,0,0,0,0-.02,0-.02,.01-.03,.03-.05,.05h-.02s0-.05-.02-.04h-.02c.22-.24,.24-.16,.34-.23,.21-.14,.34-.1,.52-.26,.03-.02,.05-.02,.07-.03,.1-.05,.18-.07,.29-.13,.07-.04,.16-.1,.16-.01l.06-.03c.06-.01,.14-.08,.21-.09-.01,.04-.06,.06-.07,.1,.06-.03,.06-.03,.08-.11,0-.02,.03-.04,.05-.06,.06-.03,.1-.02,.17-.09,.02-.02,.04-.03,.04-.06,.02-.07-.11,.02-.15,.04,0-.06,.05-.08,.09-.11,.03-.01,.07-.03,.1-.07,.09-.14,.14-.09,.25-.17,.04-.01,.08-.01,.13-.06,.1-.09,.19-.19,.3-.24,0-.03,0-.04,0-.06,0-.04,.03-.08,.07-.1,.09-.03,.2-.12,.3-.15,.16-.05,.18-.08,.37-.26l.05-.02s.02,0,.03-.02c.05-.04,.09-.08,.14-.1,.2-.1,.41-.24,.61-.32,.05,0,.1-.04,.14-.12l.05-.03s.05,0,.08-.03l.07-.03c.06,0,.14-.07,.21-.09,.03-.03,.06-.05,.06-.02,0,.02-.03,.03-.04,.04,0,0-.01,.02-.01,.03-.02,.2-.01,.07-.36,.21-.14,.06-.28,.17-.41,.23-.05,.02-.1,.03-.16,.1-.02,.02-.04,.03-.04,.06,0,.07,.08,.02,.31-.05,.03,0,.08-.04,.08,0,0,.06-.06,.06-.08,.11-.13,.07-.56,.18-.68,.29-.02,.02-.05,.03-.08,.04-.14,.06-.29,.15-.44,.23-.02,.01-.06,.04-.07,.07-.02,.04,.02,.03,.04,.03,.02,0,.04,.01,.06,0l.09-.03s.09,0,.13,.01c-.06,.03-.09,.08-.12,.14,0,.01,0,.02,.02,0,.25,.07,.27,.09,.34,.06,.13,0,.27-.02,.42-.12,.02-.01,.04-.03,.05-.02,.06,.05,.15-.02,.23-.06,.02-.01,.04-.03,.06-.02,.09,.05,.12-.1,.22-.08,.06,0,.3-.05,.39-.03,.09,.06,.23,.01,.3,.12,0,0,.02,0,.03,0,.1,.03,.2,.06,.23,.19,.02,.05,.14,.17,.13,.4,0,.04-.02,.09,.03,.09,.1,.03,.2,.04,.32-.06,.12-.1,.07,.15,.2,.07,.02-.04,.07-.04,.07-.04,0,0-.05,0-.07,.04,.02,0,.03,.01,.04,.03,.04,.04,.02,.07-.03,.1-.15-.02-.1-.03-.23,0-.05,.01-.13-.03-.12,.11,0,.02-.03,.02-.04,.03-.06,.02-.06,.07-.07,.12,0,.06,.02,.07,.05,.08,.12,.06,.25,.02,.38-.04,.03-.01,.06-.02,.08-.05,.03-.04,0-.06,0-.09,0,0,.02-.02,.03-.03l.11-.02s0,.08,.01,.13c.02,.1-.04,.19-.13,.21-.12,.02-.24-.02-.36,.19-.15,.27-.04,.26-.06,.34-.07,.31,.23,.23,.22,.43,0,.14,.12,.17,.12,.3,0,0,.01,0,.02,.01,.08,.04,.13,.11,.18,.18,0,.06,.04,.06,.09,.05,.05,.22,.18,.21,.26,.32,.09,.11,.12,0,.48,.05,.04,0,.08,0,.1,.05,.08,.13,.21,.11,.32,.11,.04,0,.1-.01,.13-.08,.02-.04,0-.08,.01-.12,0,0,.01,0,.02-.01,.02,0,.04,0,.05-.01,.07-.22,.18-.25,.17-.42-.02-.17,.16-.15,.25-.31,.02,0,.04,0,.05-.03,.03,0,.06-.03,.06-.05-.02-.1,.09-.16,.07-.26,0-.03,.03-.04,.04-.05,.16-.11,.25-.2,.47-.19,.18,0,.39-.14,.56-.18,.08-.02,.16-.06,.21-.16,0,0,.01,0,.02-.02,.01,0,.02,0,.03-.02,.03-.02,.06-.02,.08-.06,.03-.03,.05-.08,.09-.1,.05-.02,.12-.04,.17-.08,.04-.03,.07-.04,.1-.03,.19,.05,.61-.09,.82-.11,.15-.01,.29-.04,.42-.11,.17-.09,.35-.17,.54-.21-.2-.02-.39-.1-.59-.1Zm.96-2.01s0-.06,0-.06c0,0,0,.04,0,.06-.01,.02-.03,.04-.03,.04,0,0,.02-.02,.03-.04Zm.04,.26h0s-.03,0,0,0Zm-.07,.64s.02,0,.02,.02c0,0-.01,.01-.02,.01,0,0-.01,0-.02-.01,0,0,0-.02,.01-.02Zm-.13-.84l-.1,.11,.1-.11Zm-.11,.98h0s-.01-.04-.01-.04c0,0,.01,.02,.01,.04Zm-.15-.46h0Zm-.04-.05l.04,.05-.04-.05Zm-.18,.58h0Zm-.07,.09h0Zm-11.64,1.51h0s.02-.02,0,0Zm.26-.09s-.06,.03-.06,.03c0,0,.04-.02,.06-.03l.02-.03-.02,.03Zm.04-.11q-.06,.03,0,0s.05-.02,.05-.02c0,0-.03,.02-.05,.02Zm-.63,.71h0s.02-.03,.02-.03c0,0-.01,.02-.02,.03Zm1.01-.61s.08-.05,.11-.08h0s-.11,.08-.11,.08Zm.18-.2l-.07,.02s0-.05,.04-.07c.04-.02,.06-.01,.11-.04,0-.02,.03-.06,.03-.06,0,0-.02,.04-.03,.06v.02h.01v.06c-.06,.04-.05-.02-.1,0Zm.18-.42s.05-.02,.07-.03c0,.01-.01,.04-.01,.04,0,0,0-.03,.01-.04-.02,0-.07,.03-.07,.03Zm0-.03s-.03,.04-.02,.05c-.04,.06-.09,.09-.09,.08-.01-.05-.09,.01-.14,.02-.01,0-.04,.02-.04,.02,0,0,.03-.02,.04-.02,.01-.02,.02-.04,.02-.05,.03-.04,.05-.04,.08-.08h0l.03-.03c.06-.04,.09-.02,.12,0q.12-.06,0,0Zm.12,.37h0s.03-.02,0,0Zm.3-.42s.09-.1,.09-.1c0,0-.06,.06-.09,.1-.06,.03-.07,.03,0,0Zm-.18,.24h0s.05-.01,.05-.01c0,0-.03,.01-.05,.01Zm.1-.13s-.04,.07-.04,.07c0,0,.03-.04,.04-.07,.02-.01,.04-.02,.04-.02,0,0-.02,0-.04,.02Zm.1-.1s-.02,0-.02,0c0,0,.01,0,.02,0,0,0,.02,0,.02,0,0,0-.02,0-.02,0Zm-.05,.2h0Zm.77-.87s-.07,.03-.07,.03c0,0,.04-.03,.07-.03,.06-.06,.17-.12,.17-.12,0,0-.11,.06-.17,.12Zm1.07,.29l.44-.16-.44,.16Zm.75-.36h0Zm1.65,.39s-.03-.08-.03-.08c0,0,.02,.05,.03,.08h0Zm.12,.16s0,0,0,0h0Zm.08,.05h0Zm.36-1.99l-.07,.04v-.02s0-.04,0-.06c.05-.03,.07-.02,.06,.04h0Zm-.14,2.6s.07-.03,.05,.04c-.02,0-.05,0-.05-.04Zm.66-2.78h0Zm-.61,3.62h0c.07,0,.07,0,0,0Zm.38-.57h0Zm.09,.47h0s-.02-.03,0,0Zm-.04-.54h0Zm.03-.15h0q-.02-.05,0,0Zm-.01,.06s.03,.01,.03,.01c0,0-.02,0-.03-.01h0Zm-.11,.99l.11,.12-.11-.12Zm1.27,1.15s-.01-.07-.01-.07c0,0,0,.04,.01,.07h0Zm3.01-3.01s.02-.01,.02-.03h0s-.02,.03-.02,.03Zm.16,.13s-.05-.03-.05-.03c0,0,.03,.01,.05,.03h0Zm.59-.23h0c-.17,.13-.18,.13,0,0Zm-.45-.29h0s-.01-.03-.01-.03c0,0,.01,.02,.01,.03Zm-.02,.66s.04-.02,.05-.05h0s-.05,.05-.05,.05Zm-.05-.13h0l.11-.02h0l.15,.02s-.12-.03-.26,0Zm.3-.3s.02-.01,.04-.02h0s-.04,.02-.04,.02Zm-.22-2.04s.15-.02,.22-.04c.01,0,.04,0,.04,0,0,0-.03,0-.04,0-.07,.02-.22,.04-.22,.04Zm.43,2.29s.09-.06,.09-.06c0,0-.06,.02-.09,.06-.04,.04-.12,0-.12,0,0,0,.08,.04,.12,0Z"/><path class="uuid-7786fc93-c2ba-4ead-9351-7a876868d2b6" d="M369.1,122.93c-.08-.34-.24-.13-.4-.24-.39-.28-.18-.23-.67-.58-.05-.04-.11-.06-.17-.04-.1,.02-.21,0-.31,0-.06-.04-.12-.04-.18-.05-.04-.07-.1-.09-.17-.09,0,0-.02,0-.03,0-.31,0-.18-.26-.36-.31-.05-.01-.1-.05-.15-.08-.35-.19-.47-.12-.61-.28-.05-.15-.13-.29-.19-.44-.05-.12-.13-.21-.25-.24,0-.02-.02-.04-.04-.05-.05-.01-.07-.08-.1-.12-.03-.06-.07-.11-.06-.18,.02-.19-.09-.29-.19-.38-.49-.41-.68-.51-.91-.41-.33,.14-.6-.39-.74-.58-.05-.06-.09-.1-.16-.1-.13-.15-.24-.32-.41-.41v-.06h.03c.11-.03,.09-.18,.03-.18-.07,0-.06,.07-.07,.13-.05,.04-.09,.09-.16,.07l-.03-.03c0-.08-.02-.14-.09-.15-.07-.06-.15,0-.22-.05-.08-.05-.08-.04-.09,.09-.03,.02-.06,.05-.1,.07-.25,.17-.23-.19-.59-.08-.08,.03-.17,.02-.23-.07-.03-.15-.06-.18-.2-.2-.03,0-.05,0-.08,0h0s-.04-.09-.05-.14c-.01-.06-.08-.07-.1,.01,0,.05,.01,.11-.02,.15h0l-.09,.03c-.03-.09,0-.21-.08-.28-.06-.1-.13-.06-.18,0-.39,.49-.74,.16-.78,.61,0,.05,0,.11-.03,.13-.1,.04-.14,.17-.21,.25-.08,.08-.1,0-.25-.14-.38-.37-.61,.28-.85-.01-.11-.13-.44-.35-.35-.74,.04-.18,0-.3,.02-.5,.03-.04,.06-.08,.09-.12,.13-.13,.03-.33-.19-.32-.02-.08-.01-.09-.08-.11-.01-.04-.03-.05-.06-.05-.09,0-.19-.02-.28,.01-.15,.07-.3,0-.45,.04-.07,.01-.09-.06-.05-.13,.03-.05,.05-.09,.06-.15,.02-.16,.08-.31,.11-.47,.01-.07,.06-.13,.06-.21,0-.37,.23-.29,.15-.52-.02-.07-.08-.05-.12-.05-.16-.02-.31,.05-.47,.1-.42,.13-.15,.51-.48,.62-.21,.07-.43,.23-.53,.17-.15-.09-.33-.15-.38-.39-.01-.06-.14-.14-.13-.34,0-.03-.02-.04-.03-.06-.1-.17,.01-.39,0-.5,.02-.11,.02-.22,.08-.32,.1-.15,.1-.3,.06-.46,0-.06,0-.12,.03-.17,.34-.37,.33-.2,.6-.52l.06-.04c.21-.04,.2-.03,.27-.03,.02,.03,.04,.02,.1,.02h0s.06,.02,.09,0h.03s.02,.06,.04,.06c.07,.15,.27-.08,.39,0,.04,.03,.07-.02,.08-.08,0-.02,0-.04,0-.06,0-.1,.02-.13,.1-.15,.2-.06,.22-.05,.27-.06,.05,.03,.09-.01,.13-.04,.09,0,.19,0,.25,.09,.12,.17,.21-.08,.32-.04,.12,.04,.22,.27,.18,.44-.04,.16,0,.2,.19,.57-.03,.13-.04,.32-.22,.35-.01,0-.02,.02-.02,.05,.11,.02,.22,.01,.33-.02,.05-.01,.09-.05,.11-.12l.04-.02s.01,0,.01-.02c0,0,0-.01,.01-.02,.03,0,.04-.03,.04-.07,.06-.2,.08-.39,.03-.57-.05-.16-.06-.34-.13-.48-.02-.05-.03-.12-.04-.18-.02-.1,0-.2,.05-.3,.07-.12,.13-.24,.25-.31,.14-.08,.25-.24,.36-.38,.08,0,.16,.01,.23-.12,.02-.04,.07-.09,.1-.09,.12-.01,.21-.14,.31-.21,.07-.05,.07-.1,.07-.17,0-.09-.13-.18-.01-.35,.15-.22,.23-.49,.4-.71,.02-.03,.03-.07,.04-.11,.01-.06,.04-.08,.09-.1,.12-.08,.26-.02,.35-.22,0-.01,.03-.01,.05-.02,.26-.1,.36,.02,.39-.11,.01-.05-.02-.06-.05-.06-.18-.03-.05-.39,.11-.48,.51-.28,.52-.24,.66-.37,.07-.07,.28-.14,.37-.13-.04,.06-.09,.09-.14,.13-.06,.05-.09,.14-.07,.21,.01,.07,.07,.06,.11,.06,.19,0,.26-.28,.42-.28,.03,0,.06-.02,.09-.03,.22-.07,.41-.22,.62-.34,.14-.08,.09-.08,.04-.24-.05-.14-.05-.11-.31,.19-.04,.05-.12,.02-.09-.04,.05-.11,0-.11-.06-.09-.11,.04-.2,.01-.28-.05-.1-.09-.09,.09-.15,.11-.07-.1-.05-.22,.05-.35-.11-.01-.22,.06-.3,0,.1,.01,.19-.03,.28-.11,.04-.03,.09-.05,.09-.12,0-.07-.04-.1-.09-.11-.02,0-.04,0-.06,0-.26,0-.52,.14-.78,.32-.04,.02-.07,.07-.11,.04,.21-.34,.39-.22,.48-.38,.06-.11,.14-.16,.22-.18,.76-.21,1.1,.02,1.46-.32,.16-.15,.32-.22,.5-.23,0,.03-.02,.07-.04,.09-.11,.12-.19,.26-.28,.4-.27,.39-.36,.45-.32,.55,.02,.05,.06,.04,.1,.02,.06-.03,.13-.03,.19-.04,.12-.02,.23,.03,.36-.01,.15-.04-.03,.22,.16,.16,.07-.02,.18-.17,.23-.08,.04,.07,.11,.05,.15,.1,.08,.08,.13-.01,.22-.17,.02-.04,.03-.09,.01-.11-.05-.06-.03-.17-.07-.21-.06-.07-.08-.14-.1-.23-.06-.2-.33,.12-.46-.14,0,0-.02,0-.02-.01-.06-.05-.06-.09,0-.15,.05-.05,.07-.11,.1-.17,.02-.03,.02-.06,0-.07-.07-.02-.03-.08-.01-.14,.08-.24,.03-.38-.15-.41-.06-.01-.1-.05-.11-.11-.05-.2-.21-.07-.27-.12-.1-.09-.25-.08-.34-.18-.04-.04-.08-.07-.08-.14,0-.05,0-.12-.05-.13l-.02-.03c0-.06-.01-.12-.07-.11,0-.09-.09-.07-.11-.14-.04-.16-.24-.28-.25-.42,0-.05-.05-.05-.09,0-.05,.08-.13,.14-.16,.23-.03,.09-.09,.14-.15,.18-.34,.27-.4,.1-.48,.07-.14-.06-.16-.17-.07-.38,.03-.06,.01-.07-.03-.06-.19,.03-.29,.05-.32-.02-.05-.1-.16-.12-.25-.15-.04-.02-.09,0-.15,.02-.17,.09-.32,.1-.46,.1-.15,0-.36,.08-.31,.23,.01,.03,.05,.06,0,.1-.14,.17,.06,.2-.04,.33-.24,.31-.29,.3-.16,.36,.02,0,.04,.02,.06,.01,.12,0,.15,.19,.12,.34-.04,.11-.27,.37-.6,.51-.17,.07-.03,.18-.04,.26,0,.09-.01,.18,0,.26,.01,.05-.01,.11-.08,.13-.05,.02-.09,.07-.12,.11-.07,.08-.14,.1-.17,.04-.03-.04-.05-.09-.11-.09-.02,0-.03-.02-.02-.05,.02-.05,.05-.06,.09-.06,.07,0,.11-.09,.06-.14-.07-.07-.28,.03-.2-.25,.05-.16,.03-.2-.09-.18-.09,.01-.18,.03-.27,.08-.18,.09-.2-.07-.4-.02-.02,0-.03,0-.05-.01-.12-.08-.23-.17-.42-.1-.05,.02-.08-.07-.29,.04-.18,.09-.16-.11-.16-.16-.01-.1-.09-.05-.19-.02-.15,.04,0-.26,.11-.38,.06-.07,.13-.13,.18-.22h0c.08-.07,.16-.15,.23-.21,.1-.08,.2-.19,.3-.22,.11-.03,.17-.27,.37-.34,.13-.04,.26-.14,.39-.27,.05-.05,.09-.08,.11-.15,0-.03,.03-.05,.06-.07,.04-.03,.09-.07,.13-.09,0,.04-.03,.09-.05,.14-.05,.11-.1,.23-.22,.3h-.01c-.06,.08-.06,.12-.01,.11,.04-.02,.09-.03,.14-.06,.05-.03,.07-.02,.08,.02h0c-.01,.06,.03,.03,.1,0,.03,0,.06-.02,.09-.07h0c.2-.09,.23-.26,.37-.21,.06,.02,.14,0,.21,0,.03,0,.07,0,.11-.03,.04-.02,.07-.03,.08-.09,0-.08-.08-.02-.17-.01,.01-.07,0-.11-.05-.1-.11,.02-.17-.04-.28-.02-.05,0-.08,0-.07-.08,.05-.03,.05,0,.07,.01,.03,0,.06,0,.1-.03,.05-.05,.02-.07,.03-.11h0s.01-.02,.01-.01c.08-.05,.15-.13,.23-.19,.47-.31-.02-.21,.2-.38,.12-.09,.14-.15,.1-.22-.03,.05-.1,.1-.1,.1,0,0,.07-.05,.1-.1h0s0-.02-.02,0c-.04,.02-.07,.03-.09,.03,.17-.28,.28-.02,.56-.25,.01-.01,.03-.01,.03,0,0,.04-.07,.11-.13,.15-.1,.06-.14,.07-.16,.12,0,.02,0,.03,.01,.03,.14,.03,.09,.09,.21,.03,.16-.07,0-.18,.21-.34,.01-.01,.03-.01,.05-.02,.04-.06,.07-.02,0,0-.04,.14,.12,.1-.04,.24-.07,.06-.07,.1-.07,.15,0,.04,.02,.07,.05,.07,.04,0,.08,0,.13-.02,.08,0,.16-.04,.25-.1,.08-.05,.35-.19,.34-.1,0,.03-.02,.05-.04,.07-.06,.05-.11,.1-.17,.14-.11,.07-.22,.21-.34,.24-.07,.12-.15,.13-.22,.15-.09,.02-.17,.11-.24,.19-.05,.05-.06,.11-.02,.11,.08,.01,.17,.03,.28-.03,.33-.19,.57-.15,.78,0,.05,.04,.12,.05,.16,.1,.01,.02,.05,.01,.08,0,.07-.04,.14-.06,.19-.02,.03,.02,.06,0,.1,0,0,0,.01,0,.02,0,0,.02,.02,.03,.04,.03,.16,0,.33-.01,.5,.02,0-.09,0-.16-.09-.12-.06-.09-.16-.1-.25-.12,.02-.08,.07-.08,.12-.1,.28,.09,.24-.01,.34,.09,.03,.03,.06,.06,.16,0-.09,.02-.08-.02-.06-.09,.02-.06,.04-.09,.08-.11,.02,0,.04-.02,.05-.05,.01-.05-.04-.04-.07-.04l-.02-.03c.02-.08,0-.12-.07-.1l-.03-.02s0-.02-.01-.02h0v-.02h-.02l-.12,.05c0-.12-.19-.11-.11-.32,.31-.14,.28,.18,.6,.14v0c.05,0,.08-.03,.09-.09,.04-.04,.08-.06,.12-.07,.12-.03,.19-.19,.28-.28,0,0,0-.02,0-.03,0-.04-.04-.04-.06-.04-.01-.03-.03-.01-.07,0-.1-.03-.2-.06-.3-.05-.06-.05-.13-.09-.22-.06-.13,.04-.21-.03-.32-.05-.02,0-.03-.03-.02-.06,.02-.09,.1-.05,.13-.13-.01-.03-.06-.02-.05-.08,.01-.09-.04-.1-.09-.11-.02,0-.06,.02-.06-.02,0-.07-.05-.04-.1-.01l-.02-.02h0s-.1,.03-.14,.03c-.02,0-.07,.04-.08,.01-.04-.05-.12-.04-.16-.07-.05,0-.1-.02-.17,.01-.11,.05-.2,.05-.27,0-.09,.03-.12-.05-.2-.03-.01-.01-.03,0-.06,.02h-.02c.05-.08,.06-.09,.01-.1-.04,0-.08,0-.1,0-.09-.05-.21,.03-.41,.08-.04,0-.08-.02-.15,.04h0l-.03,.03c-.1,.07-.18,0-.35,.13-.09,.05-.18,.1-.27,.14-.04-.08-.15-.03-.28,.06-.13,.06-.16,.04-.25,.15-.13,.09-.26,.21-.38,.37-.05,.05-.06,.09-.09,.14-.07,.13,0,.13,.02,.18,.03,.06,.12,.02,.2,0,.05,.04,.11,.05,.23-.06,.03,0,.06,0,.11-.03-.03,.09-.06,.17-.09,.26-.06,.07-.09,.16-.16,.21h-.03s0-.04-.03-.02c-.03,.02-.04,.05-.05,.08,0,.03,.03,.03,0,.08-.03,.04-.06,.05-.09,.06-.05,.02-.07-.01-.1-.02-.04-.01-.04-.03,.02-.1,.13-.17,.04-.16-.08-.17-.02,0-.05,.01-.08,.05-.14,.06,.01-.06-.17-.02-.05,.01-.11,.03-.07-.07h-.03c.03-.06-.02-.04-.11-.02,.08-.17-.09-.08-.08-.14,.04-.06,.09-.08,.13-.14,.03-.06,.07-.07,.11-.1,.06,0,.14-.06,.22-.14,.02,0,.03-.02,.05-.04l.08-.08s.03-.02,.05-.04c.04-.03,.08-.07,.1-.1-.08,.01-.19,.08-.31,.12-.11,.04-.24,.11-.38,.2-.06,.04-.13,.1-.18,.19-.03,.05-.11,.13-.05,.1,.02,0,.01,.02,.02,.03q-.03,.1-.14,.2s-.08,.06-.11,.11c-.02,0-.04,.02-.06,.04h0s-.03,.06-.04,.09c-.03,.07-.09,.16-.06,.19-.06,.04-.1,.06-.12,.04-.03-.03-.11,.03-.19,.1-.07,.06-.13,.14-.2,.18-.01,0-.03,.03-.04,.05-.02,.04,.01,.02,.15,0-.06,.05-.11,.09-.14,.16-.03,.07-.19,.08-.4,.21-.25,.16-.19,.06-.39,.16-.03,.01-.06,.02-.07,.02-.04,0-.1,.02-.14,0,.02-.08-.24,.15-.39,.23,0,0-.01,.01-.02,.02-.05,.05-.07,.07-.05,.09,.01,0,.04,0,0,.05-.03,.04-.05,.05-.1,.08l-.03,.02c.02-.06,.02-.06-.05,.01-.02,.01-.04,.02-.04,.01,0-.04-.04-.01-.1,.04l-.04,.03s-.03,.02-.04,.04c-.23,.15-.43,.28-.61,.35,.09-.09,.14-.1,.23-.2-.09-.02-.23,.1-.37,.19-1.75,2.42-2.4,3.83-3.06,6.85,0,.02,0,.04,.01,.06,.15,.44,.09,.47,.17,.52,.05,.03,.1,.06,.14,.12,.02,.04,.06,.06,.03,.13-.03,.08-.08,.08-.13,.1,0,0-.01,.01-.02,.02,.04,.09,.1,.16,.19,.18,.08,.01,.13,.06,.18,.1,.17,.13-.05,.24,.07,.34,.08,.07,.25,.15,.3,.31,.01,.03,.02,.07,.07,.04,.04-.03,.09-.07,.07-.13-.02-.06-.04-.16-.1-.16-.09-.01-.12-.06-.1-.16,0,0,0-.02,0-.02-.06-.07-.07-.16-.09-.26-.02-.14-.2-.23-.2-.43,0-.02-.02-.03-.03-.04,.03-.15,0-.19-.11-.17-.13-.1-.11-.14-.08-.42,.06,0,.11,.03,.18,0,.1,.08,.05,.04,.1,.14h0c-.01,.13,.1,.2,.04,.35,0,.01,0,.02,.02,.02,.07-.02,.08,.1,.17,.14,0,.06,.08,.04,.09,.09,.02,.12,.1,.16,.17,.21,.11,.08-.07,.18,.07,.25,.04,.02,.08,.03,.11,.05,0,0,0,.01,.01,.01l.02,.03c.02,.06,.05,.11,.1,.14,.01-.02,.03-.06,.03-.06,0,0-.01,.04-.03,.06,.07,.11,.16,.21,.23,.34,.28,.49-.06,.55,.13,.77,.14,.16,.18,.09,.28,.23,.02,.03,.05,.05,.08,.06,.18,.05,.33,.17,.49,.26,.2,.11,.42,.2,.63,.29,.5,.22,.34-.51,1.01,.33,.2,.25,.26,.1,.58,.29,.13,.08,.19,.06,.33,.05,.04,.04,.04,.13,.11,.14,.06,.11,.13,.21,.22,.29,.22,.22,.01,.36,.2,.48,.09,.06,.3,.06,.33,.22,.07,.3,.4,.17,.47,.32,.04,.08,.11,.09,.16,.15,.04,.05,.09,.01,.13-.02,.04-.03,.02-.08,0-.12-.04-.09-.01-.11,.15-.27,.02-.02,.05-.02,.08,0,.05,.04,.11,.07,.13,.15,.06,.27,.22,.36,.26,.57,.02,.11-.03,.21,0,.32,.03,.12-.05,.25,.03,.37,0,0,0,.02,0,.03-.05,.08-.06,.19-.16,.21-.15,.03-.06,.41-.29,.43-.04,0-.09,.02-.09,.09,0,.16-.07,.27-.1,.4-.03,.11,0,.24,0,.36,0,0,0,.01,0,.01,.08,.04,.12,.16,.21,.17l-.04,.07c-.09,.05-.17,.1-.18,.24h0c-.07,.03-.04,.07,.01,.14,.01,.09,.08,.17,.08,.26-.11,.08,.23,.19,.32,.46,.01,.04,.03,.07,.06,.1,.13,.16,.2,.35,.29,.53,.38,.82,.54,.85,.53,1.09,0,.01,.02,.04,.03,.06,0,0,0,.01,0,.02,0,.02,.01,.03,.03,.04,.06,.12,.17,.18,.24,.29,.11,.11,.24,.2,.37,.26,.03,.04,.07,.08,.12,.09,.34,.22,.33,.31,.51,.47,.02,.04,.05,.06,.08,.09h0s0,.02,0,.03c.02,.14,.02,.18,.06,.26,.08,.57,.12,.71,.05,.87-.01,.03,.01,.06,.02,.09,.03,.13,.13,.52,.08,1.04,0,.08,.02,.18-.02,.25-.01,.02,0,.05,.02,.08,.03,.04,.04,.08,.06,.12,.02,.02,.07,.04,.07,.04,0,0-.04-.02-.07-.04,0,.02,0,.05,0,.06-.06,.1-.02,.22,.04,.36,.09,.28,.05,.51,.05,.74,0,.02,0,.05-.01,.06-.04,.02-.02,.09-.03,.13-.02,.1,.01,.24-.08,.28-.03,.01-.01,.07,.01,.13,.09,.2,.19,.41,.14,.58,0,.02,0,.04,0,.07,.02,.18,.07,.38,.04,.53-.01,.07,.15,.14,.16,.08,0-.06,.04-.12,0-.21-.01-.03-.02-.05,0-.05,.02,0,.04,.02,.05,.05,.03,.05,.02,.09,.03,.13,0,.05,0,.1,.06,.16v.03s-.02,.01-.02,.04c0,.15-.27-.18-.17,.14,.05,.16,.01,.24-.04,.3-.02,.02,0,.05,.03,.09,.08,.09,.08-.06,.17,.12,0,.01,.02,.02,.03,.04v.05s0,.02,.01,.05h0c-.16-.06-.17-.06-.11,.1-.01,.02,0,.06,.02,.09,.05,.1,.1,.2,.12,.3,.01,.09,.14,.12,.11,.21,0,.02,0,.04,.02,.08q.18,.28,.39,.5s.04,.03,.05,.05c.09,.13,.17,.18,.25,.21,.07,.09,.15,.16,.21,.19,.09,.04,.18,.12,.27,.17,.06,.1,.07,.04,.1,.04l.04,.02c.07,.13,.15-.01,.44,.07,.02,0,.04,0,.04-.03,0-.04-.04-.06-.06-.08-.24-.2-.38-.3-.41-.46-.03-.14-.11-.16-.24-.38-.15-.26,.12-.09,.1-.34-.02-.2,.13-.12,.21-.2,.05-.05,.01-.28-.14-.32-.06-.02-.12-.03-.19-.05-.05-.05-.12-.07-.13-.2,.05,0,.05-.06,.05-.12h0c.11,0,.16,.03,.19-.02,.03,0,.06,0,.05-.05,.04-.05,.01-.15,0-.23,0,0,0,0,0-.01,0-.03,.02-.05,.04-.06,.07,.02,.12-.03,.19-.02,.08,0-.02-.29-.11-.24-.05,.03-.11,0-.17-.01l-.04-.18c.02-.1,.02-.1,.1-.05,.04,.02,.08,.07,.11,.05,.16,.04,.39,.14,.36-.18,0-.12,.03-.16,.12-.16,.04,0,.08,0,.12,0,.03,0,.05,0,.05-.05,.18,0,.26,.05,.3-.06h.05c.1-.05,.15-.17,.18-.3,0-.03,0-.07-.01-.1-.06-.12-.04-.22-.01-.32,.07-.02,.12-.07,.21-.03,.18,.09,.39-.23,.49-.39,.04-.07,.07-.16,.1-.26,.05-.03,.1-.05,.13-.12,.06,0,.1-.03,.1-.11h0c.08-.04,.08-.15,.08-.25,.06-.09,.12-.18,.19-.26,.24-.25-.08-.63,.13-.87,.07-.09,.16-.16,.25-.23,.3-.24,.24-.02,.37-.19,.06-.07,.13-.14,.22-.16,.12,.03,.24,.01,.35,.02,.04,0,.08,0,.1-.06,.04-.16,.23-.06,.2-.25-.01-.08,.02-.14,.04-.21,.07-.03,.07-.1,.08-.17,.06-.03,.09-.09,.1-.16h0c.11-.04-.03-.31,.14-.4,.05-.03,.06-.08,.03-.15-.1-.25,.07-.39,0-.6-.06-.17-.01-.35-.02-.52,0-.15,.17-.08,.17-.25h0c.07-.07,.15-.14,.14-.28h0s.05-.03,.05-.07c.03-.02,.06-.06,.06-.11,.03,0,.05-.03,.06-.07,.1-.03,.06,.02,.23-.29h0s.07-.05,.1-.1c.18-.33,.16-.67,.01-1.02Zm-4.5-16.13s.05-.03,.05,0c0,.02-.02,.03-.04,.04-.02,0-.03,0-.05,0,.01-.02,.02-.04,.04-.05Zm-4.92,2.65c.08-.06,.17-.11,.25-.13,.11-.02,.21-.03,.32-.08,.06-.03,.09,0,.08,.08l-.07,.1c-.08,.06-.17,.07-.24,.06-.21-.02-.39,.12-.38,.03,0-.02,.02-.04,.04-.05Zm.04,.23v0c-.11,.11-.24,.14-.35,.24-.02,.02-.05,.03-.05,.03,0,0,.03-.02,.05-.03-.03,0-.07,.02-.1,.05h0c-.1,.03-.17,.13-.31,.1-.04,0-.05-.06,0-.11,.03-.03,.06-.06,.1-.07,.15-.07,.13-.13,.22-.14,.24,0,.42-.21,.44-.07Zm-.57-.75s.07-.01,.05,.07c-.02,.07,.07,.08,.12,.02,.03-.03,.05-.09,.1-.1,.05,0,.08,.03,.11,.07,.06,.06,.1,.13,.04,.27-.06,.01-.09-.02-.14-.03l-.11,.08c-.04,.05-.08,.11-.1,.17-.04,.14-.1,.19-.15,.19-.08,0,.05-.22-.12-.19-.04,0-.05-.01-.04-.07,.06-.27,.03-.2-.13-.28,.09-.13,.25-.17,.36-.19Zm-.56,.34h0c-.06,.02-.12,.02-.17,.12-.09,.13-.14,.26-.11,.39,.02,.1-.08,.29-.18,.36-.09,.06-.16,.01-.15-.11,.01-.24,.06-.29,.15-.53,.01-.03,0-.04-.02-.04,.02-.11,.1-.21,.17-.25,.1-.06,.2-.11,.3-.13,.08-.02,.08-.02,.08,.1l-.07,.1Zm-1.08-.18c.1-.19,.24-.19,.45-.36,.18-.15,.37-.24,.54-.25,.09,0,.02,.18,.18,.16,.03,0,.08-.03,.09,.02,0,.07,.05,.12,.01,.21-.01,.03-.04,.07-.06,.05-.07-.07-.17,0-.25,.05-.16,.11-.23,.02-.33-.02-.03-.01,.02-.06,.01-.1-.06,.02-.12,.07-.18,.11-.07,.05-.13,.08-.2,.12-.04,.02-.08,.04-.1,.02-.04-.03-.11-.01-.16,0-.01,.02-.03,.03-.04,.03h0l.04-.03Zm5.42-4.61h0c-.05,0-.15,0-.15,0,0,0,.1,0,.15,0Zm-.26-.31c.05,0,.17,0,.17,0,0,0-.12,0-.17,0l-.05,.05h0l.05-.05s-.08-.07-.08-.07c0,0,.07,.02,.08,.07Zm-.36-.5c.08-.15,.09-.16,.15-.09,.04,.05,.12,0,.18,.03-.06,.08-.12,.09-.16,.09-.05,0-.11,.04-.16,.05v-.08h0Zm.05,.34s-.02,.03-.03,.05l-.07,.02h0c-.06,.01-.1,.03-.08-.02,.03-.11,.16-.13,.18-.04Zm-1.05-.82s.09-.03,.08,.06c-.04,0-.07,0-.11,.03-.06,.03-.03-.1,.03-.09Zm-1.53,1.25s.1,0,.08,.04c-.02,.06-.15,.1-.16,.05,0,0,0-.02,0-.03,.03-.04,.06-.05,.08-.05Zm5.03,26.74l.02-.07-.02,.07Z"/><path class="uuid-f58f4ade-3a1e-4de9-b5e3-320dc788bb90" d="M356.83,113.12s.02-.01,.02-.03c0-.02-.01-.05-.01-.05,0,0,.02,.02,.01,.05,0,.01-.02,.03-.02,.03Z"/><path class="uuid-bb2fdc71-99cd-461b-b221-531599adfc21" d="M363.6,103.61v0Z"/><path class="uuid-1640081a-6ec8-4869-937a-c4d9895eeee3" d="M362.82,104.36s-.03-.02-.05-.03h0s.05,.03,.05,.03Z"/><path class="uuid-9a1a6b4a-92c9-42c0-9397-ac96faf9d9b3" d="M361.22,102.66l-.06,.02,.06-.02Z"/><path class="uuid-57fb0acf-9b0e-4f5a-9f0c-429260e02900" d="M360.85,102.73s-.02,.01-.04,.02h0s.04-.02,.04-.02Z"/><path class="uuid-ae3f43d2-4894-4073-a6db-d4b3e83ab0c2" d="M360.37,102.96h0c.06-.04,.07-.04,0,0Z"/><polygon class="uuid-61a2f6b3-aae5-4df7-bd11-356d04b2170e" points="355.51 116.4 355.51 116.4 355.52 116.39 355.51 116.4"/><path class="uuid-355618d8-958c-45bf-beb7-e5266fd71595" d="M359.19,122.61h0Z"/><path class="uuid-359763f5-e612-46ec-ae5b-2ca4f1558e26" d="M362.38,131.87s0-.02,0-.02c0,0,0,.02,0,.02h0Z"/><path class="uuid-b8bf233e-ec70-4351-94a4-db3ef3c35de8" d="M362.41,131.96h0Z"/><path class="uuid-97699fec-acc2-4e53-ab65-1ff709f35392" d="M363.8,134.51s.02,.04,.02,.04c0,0,0-.02-.02-.04,0-.03-.01-.03,0,0Z"/><path class="uuid-69009467-0214-4030-85a5-60196a73c0be" d="M363.43,132.46h0s0-.08,0-.08c0,0-.02,.04,0,.08Z"/><path class="uuid-e60ca4b0-784d-4f55-9a01-824f148734d3" d="M364.88,130.61s0-.02,0-.03c-.03-.04-.04-.04,0,0,0,0,0,.03,0,.03Z"/><path class="uuid-c91ff3bc-2b2b-4de8-bcc5-84e163abc22b" d="M357.45,104.82c-.08-.01-.17,.09-.19,.03,.02-.03,.06-.08,.04-.08-.03,0-.01-.06-.04-.08,.04-.07,.11-.13,.16-.19,.02,0,.04-.03,.06-.06h0s0-.02,0-.01c-.08,.03-.18,.08-.32,.2-.09,.1-.15,.15-.15,.12,0-.02-.01,0-.04,.03-.09,.09-.08,.1-.1,.19-.02,.03-.05,.08-.07,.07,0-.01-.05,0,0-.07,0-.01,0-.02,0-.02-.03,.02-.22,.07-.26,.15-.03,.06-.07,.07-.1,.1h0s-.03,0-.09,.02c-.07,.03-.16,.09-.28,.21,.07-.1,.06-.11-.04-.03-.03,.02-.07,.07-.06,.04-.02,0-.07,.03-.11,.04-.01,0-.03,.01-.04,.02-.15,.19-.22,.28-.37,.47h0c-.04,.05-.06,.08-.1,.13,.04-.02,.1-.07,.2-.14,.02-.01,.04-.03,.07-.06l.03-.02c.08-.04,.19-.13,.27-.17l.08-.05s-.07,.06-.1,.08c-.12,.08-.48,.31-.61,.43l-.05,.07h0c.07-.01,.07-.03,.41-.24-.04,.07-.04,.1,.03,.06,.16-.1,.33-.2,.52-.33l.03-.02s.12-.1,.17-.12c.05-.03,.12-.08,.19-.14,.21-.19,.28-.13,.32-.15,.44-.22,.44-.22,.47-.28,.03-.05-.01-.03-.03-.04v-.03c.07-.03,.12-.06,.16-.06,.02,0,.05-.02,.08-.06,.1-.13-.12-.01-.18-.02Z"/><path class="uuid-a7b0405b-4b3a-4960-8680-97365bf34a0b" d="M356.86,105.14s.03-.05,0,0h0Z"/><path class="uuid-8a64bc91-83dc-4c22-9c26-b1f4c05b048f" d="M356.79,105.22s.02-.02,0,0c-.02,.01-.04,.03-.04,.03,0,0,.02-.02,.04-.03Z"/><path class="uuid-8c4d1dd7-ad18-48ff-8315-1160c7fb7a1b" d="M360.1,115.54s.11,.01,.12-.04c0-.03-.02-.04-.03-.06-.06-.1-.15-.1-.24-.09,0-.21-.28,.02-.42-.39,.15,0,.28,0,.41,.01q-.06-.16,.05-.28h0s.06,.03,.07,0c.01-.05,0-.12-.05-.11-.09,.03-.13-.06-.18-.09,0-.08-.07-.13-.07-.2,.02-.04,.04-.03,.06-.03,.13,0,.01-.28-.13-.14-.03,.03-.09,.03-.11,.08-.02,.06,.03,.1,.04,.15,0,.02,0,.03,.01,.05,0,.06,.04,.08,.08,.08,.03,0,.05,0,.08,.01l-.02,.1c-.17,.09-.17,.1-.18-.05,0-.06-.02-.1-.06-.13h0c0-.08,.01-.18-.07-.23v-.06s.09-.01,.09-.08c0-.07-.05-.05-.09-.05-.11,.01-.2-.14-.22,.02l.19,.11s-.05,.08-.05,.08c0,0,.04-.05,.05-.08l-.19-.11s-.04,.05-.02,.09h0l.03,.04s-.04,.1,0,.14v.1c-.05,.16,0,.33,.13,.41,.03,.02,.07,.01,.07,.07-.02,0-.03,.02-.03,.01-.14-.06-.31-.01-.44-.13-.03-.03-.08-.02-.12-.02-.08,0-.15,0-.23,.01-.13,.01-.47,.09-.52,.24-.02,.06,0,.12,.04,.1,.09-.04,.13,.02,.19,.07,.09,.09,.32,.08,.4-.03,.05-.08,.1-.08,.17-.09,.04,.06,.09,.11,.16,.09h.03c-.02,.26,.27,.22,.38,.46,.02,.05,.06,.05,.09,.01h.08c.07,0,.15,0,.22-.02,.08,.01,.16,.02,.24-.03Zm-.58-1.09l.02,.13-.02-.13Z"/><path class="uuid-7fdd59ba-e549-41a2-86de-1a08cae054a6" d="M386.71,123.57c0-.07,.02-.17,.02-.25,.04-.12,.03-.2,0-.28-.03-.05-.08-.03-.12,.05-.03,.05-.04,.1-.05,.15-.03,.03-.07,.06-.1,.08-.09,.05-.13,.12-.14,.21-.23,.31-.5,.43-.68,.55-.03,.02-.05,.02-.08,.06-.16,.26-.2,.4-.18,.62,0,.05,0,.1-.05,.16-.07,.1-.12,.2-.2,.29-.09,.1-.16,.21-.15,.3,.02,.17-.17,.49,0,.49,.12,.05,.25-.08,.3-.11l.03-.03h.03s.08-.05,.12-.1c.08-.1,.15-.21,.21-.32,.12-.23,.27-.45,.39-.68,.12-.23,.28-.46,.38-.69,0-.02,.02-.04,.03-.05,.08-.07,.07-.13,.08-.2,0-.03,0-.05,.03-.09,.04-.01,.03,.05,.08,0,.04-.04,.05-.09,.06-.13,0-.01,0-.03,0-.04Zm-.41,.38l-.03-.03,.03,.03s-.01,.04,0,0Z"/><path class="uuid-ec1afb34-89d7-4a9a-92cc-94117625e000" d="M374.59,106.66c.06,.04,.12,.04,.19,.05,.24,.03,.29-.14,.43-.1,.12,.03,.16-.04,.2-.15,.02-.07,0-.13-.02-.19-.08-.26,.23-.12,.03-.36-.12-.14-.25-.12-.38-.14-.1-.01-.19,0-.19,.16,0,.12-.24-.03-.27,.09-.01,.07-.01,.14,.03,.21,.03,.04,.08,.05,.08,.12,0,.06-.05,.08-.07,.12-.01,.01-.03,.02-.04,.04-.05,.06-.04,.11,.03,.16Z"/><path class="uuid-530c9f37-5089-404b-b5a8-b40d5574a0ac" d="M358.58,103.42s-.11,.06-.16,.08c-.06,.03-.17,.13-.24,.18,0,0-.02,.02-.03,.03-.04,.06-.06,.07-.07,.06-.03-.01-.1,.02-.15,.04-.02,0-.05,.02-.09,.07-.03,.06-.01,.07,.03,.05,.08-.04,.13-.04,.23-.1,.04-.03,.09-.05,.13-.08,.03-.02,.06-.03,.04,0-.03,.07,.03,.02,.34-.17,.03-.02,.05-.04,.07-.08,.02,0,.04-.02,.06-.05,.03-.06,.03-.09,.06-.14,.02-.03,0-.04-.02-.03-.04,.02-.07,.02-.14,.08-.01,.01-.04,.03-.04,.03Zm-.28,.19s.04-.03,.06-.04c-.02,.02-.05,.04-.06,.04Zm.06-.03s0,0,0,0h0Z"/><path class="uuid-3a5f27de-1fef-4ac3-8ed7-ae53b2224a6e" d="M360.3,116.07c.09-.06,.18,0,.27-.04,.22-.08,.19,.29,.29,.08,.02-.05,.04-.13,.1-.12,.14,.03,.27-.08,.41,0,.1,.06,.19-.14,.04-.18-.16-.04-.34-.33-.59-.25-.24,.08-.2-.05-.33-.02-.03,0-.06,.01-.07,.05,0,.03,.02,.05,.04,.06,.07,.08,.07,.08,0,.2,.04,.01,.09-.02,.09,.04,0,.07-.04,.06-.08,.06-.06,0-.13-.03-.24-.04-.03,0-.07,.03-.05,.07,.03,.05,.09,.12,.13,.09Z"/><path class="uuid-e5f9bf09-d5ee-4622-b871-024d22fc37e9" d="M385.01,106c-.16-.14-.31-.29-.27-.3,.01,0,.02,0,.03-.01-.11-.14-.16-.2-.27-.34-.06-.04,.04,.06-.06,.02l-.05-.03s0,0,0,0h-.01q-.06-.04,0,.04h-.02s-.02-.02,0,0h0s-.07-.05-.04,0c.1,.14-.11-.06-.05,.04,.02,.04,.06,.08,.09,.1,.07,.06,.18,.17,.24,.19,0,0,.03,.02,.04,.04,.04,.05,.07,.06,.11,.09,.11,.09,.27,.21,.38,.28-.03-.05-.05-.07-.09-.11Zm-.55-.54s-.05-.06-.05-.06c0,0,.04,.05,.05,.06h0Z"/><path class="uuid-5dd9dd31-cae7-4fbc-bf26-a2afc41e28f4" d="M356.79,104.57c.08-.05,.22-.17,.35-.27,.02-.01,.04-.03,.05-.05,.03-.03,.04-.05,.07-.07,.04-.04,.11-.11,.14-.14,.04-.05-.03,0-.04,.01,0,0-.02,.02-.03,.02-.03,.02-.06,.05-.1,.08-.34,.29-.28,.23-.4,.37q-.07,.08-.03,.06Z"/><path class="uuid-da956387-eaf5-4f6f-8ba8-7239cbd59686" d="M359.41,102.83s.06-.03,.11-.07c.01-.01,.03-.03,.04-.05,.01-.02,0-.02-.02-.01-.18,.1-.22,.14-.19,.08,.03-.07,.06-.04,.1-.09-.08,0-.21,.07-.33,.13-.04,.01-.09,.04-.15,.08-.05,.03-.07,.07-.09,.11h-.01v.02c.26-.01,.38-.16,.53-.2Z"/><path class="uuid-12bca1ac-0f94-495b-8a59-2ad18b6fc9fd" d="M382.52,103.49c.11,.11,.19,.17,.26,.22,.03,.02,.05,.03,.04,.01,.04,.04,.07,.06,.14,.13,.01,.01,.03,.03,.02,.01-.06-.08,0-.02,.1,.06h.02s0,.01-.01,0c-.05-.04-.08-.07-.14-.14,0,0-.03-.02-.03-.02,0,0-.08-.06-.1-.07-.07-.03-.14-.11-.17-.14-.12-.1-.23-.17-.33-.24v.02s.03,.02,.05,.03c.06,.05,.1,.08,.16,.13Z"/><path class="uuid-a40e5e77-4e75-4e43-9b4b-35de5abff5d6" d="M383.77,104.52l-.03-.03,.03,.03c-.05-.05-.08-.08-.13-.13l-.04-.03s-.11-.1-.11-.09l-.03-.03c-.06-.05-.08-.07-.07-.04,0,0,0,0-.02,0-.04-.04-.07-.08-.07-.07h-.02v-.02s-.04-.03-.03,0c.03,.03,.08,.08,.11,.1,.1,.08,.14,.1,.25,.21,.01,0-.02-.02-.03-.03-.04-.04-.03-.03,0,0,.03,.03,.08,.08,.13,.12-.01-.01,0,0,0,0,0,0-.01,0,0,0,.07,.07,.1,.1,.14,.13-.04-.04-.05-.06-.09-.09Zm-.13-.12s.07,.06,.07,.06l-.07-.06Z"/><path class="uuid-a9a9eb4d-a1cc-4006-aa62-4d3e7236df76" d="M365.28,134.19c-.1-.06-.18-.03-.25-.08-.1-.04-.13,0-.17,.05-.01,.02-.05,.02-.02,.07,.08,.13,.09-.02,.23,.1,.06,.05,.2,0,.24-.03,.02-.01,.05,0,.04-.05-.02-.05-.05-.05-.08-.07Z"/><path class="uuid-d9f86685-ca5e-4e11-8a8c-4e113e8db1bf" d="M359.57,113.91c.05,.1,.18-.08,.11-.15-.12-.13-.44-.25-.41-.03,.02,.22,.2-.03,.3,.18Z"/><path class="uuid-267461e2-ae2d-4129-88ce-a3920f9a9c5e" d="M358.53,103.87v-.03s0,0,0,0c0,0,0,0,.01,0v.03s.05-.04,.08-.08c.02-.04,0-.04-.01-.04-.07,0-.18,.07-.31,.18-.03,.01-.05,.02-.08,.03-.07,.04-.15,.09-.25,.19-.02,.02-.04,.03-.05,.05-.02,.05,.14-.07,.09,.01-.04,.06-.12,.07-.16,.09-.02-.04-.18,.1-.16,.13,.08,.04,.22-.13,.33-.05,.04,.03,.11,0,.2-.06l.11-.08s.07-.05,.1-.07q.1-.06,.16-.18s.02-.06,.03-.09c.02-.06,.02-.06-.06,.02-.01,0-.02,.01-.03,.01-.03,0,0-.02,.03-.05Zm-.13,.1h0s.02-.02,.02-.02c0,0-.01,.01-.02,.02Z"/><path class="uuid-4e642fb0-743b-4653-8f0d-acfad1d71ba4" d="M384.08,105.58s.03,.08,.09,.13c.02,.01,.04,.02,.06,.03h0s.06,.04,.08,.04c.02,0,.09,.04,.06,0-.04-.06-.1-.09-.14-.13-.05-.04-.13-.09-.14-.06Z"/><path class="uuid-89d05e71-c06f-4c0d-a21f-fca4af5c9b86" d="M359.87,105.18s-.02,.05,0,.06c.09,.02,.24-.08,.34-.23-.08-.02-.17,.04-.27,.09-.02,.01-.05,.05-.08,.08Z"/><path class="uuid-f4b9094d-52b0-4c9f-b948-dadeb752ccec" d="M359.43,115.94s-.08,0-.09,.05c-.01,.06,.03,.09,.06,.11,.1,.07,.22,.05,.33,.02,.05-.01,.04-.09,.01-.1-.13-.05-.12-.1-.31-.08Z"/><path class="uuid-dfba225c-47be-49fc-84f6-c1e0ccdd075c" d="M363,107.41s-.03,.01-.05,.06c.07,.01,.12,.07,.18,.09,.07,.02,.28,.1,.31,0,.01-.03,0-.05-.02-.06-.12-.1-.27-.07-.41-.09Z"/><path class="uuid-ea3b1643-8dc5-4d28-a8e6-c2cc11da0b0c" d="M368.9,135.34c.05,.06,.12,.08,.17,.1,.06,.02,.09,.12,.17,.09-.09-.16-.19-.21-.34-.18Z"/><path class="uuid-914c38aa-ef0b-434c-b2dd-7cffbb9d1c69" d="M377.66,101.1l.04,.02s0,.01,.01,.01c.02,.04,.04,.06,.07,.07,.2,.1,.24,.31,.36,.34,.1,.05,.2,.12,.31,.21,.08,.06,.09,.06,.11,0,0-.02,0-.06,.03-.07,.05-.01,.11,0,.1-.08,.06,.01,.08-.04,.15-.02,.16,.07,.11,.06,.23,.19,.04,.04,.01,.06,.04,.11,.08,.05,.11,.04,.2,.07,.06,.06,.14,.16,.17,.1,.05,0,.12,.05,.13,0-.04-.04,0-.01-.12-.08-.05-.06-.09-.08-.14-.12-.04-.05-.07-.05-.1-.07t0,0s-.08-.11-.11-.11v.02c-.08-.04-.09-.04,0,0v-.02l-.08-.07s-.04-.06-.06-.09c.07,.03,.15,.06,.22,.1,.2,.14,.44,.22,.59,.2-.04-.03-.08-.08-.11-.09-.14-.07-.31-.19-.44-.23-.02,0-.04,0-.08-.04-.12-.14-.11-.02-.19-.07-.11-.07-.22-.13-.33-.19-.02-.03-.04-.03-.06-.04-.06-.02-.07,.04-.11,.04h0s-.02,0,0,.03c-.08-.06-.25-.21-.35-.19l-.02,.02c-.04,.09-.11-.06-.15-.05v0c-.1-.09-.05,.07-.18-.02-.28-.19-.31-.19-.43-.2-.03,0-.01,.04,.01,.07h0s.05,.05,.05,.08c0,.05-.06-.02-.06,.01,.06,.1,.2,.16,.28,.15Zm1.65,.74h0s-.01,0,0,0Zm-.75-.61c.07,.06,.07,.06,0,0h0Zm-.61,.03h0Zm-.29-.17h0Zm-.1-.15h0Zm-.07,.05h-.01s0-.01,.01,0Z"/><path class="uuid-dd788e21-cca7-4b43-a352-8d5898a269f8" d="M360.01,102.54s.08-.1,.04-.09c-.05,.01-.12,.05-.17,.08-.03,.02-.06,.06-.07,.09-.03,.06,.02,.03,.2-.09Z"/><path class="uuid-8f1f831c-ae55-4e28-8f3a-6e68a140944c" d="M357.74,103.87s.13-.05,.23-.12c-.05,0-.09,0-.16,.03-.01,0-.03,.01-.06,.05-.03,.03-.02,.03-.01,.04Z"/><path class="uuid-0c7e2fe3-1c38-447c-bc77-bd994ed67f3c" d="M361.71,116.01c0,.07,.06,.06,.15,.07,.07,0,.12,0,.17-.02,.04-.03,.05-.08,.02-.11-.06-.06-.36-.08-.34,.07Z"/><path class="uuid-461c7ec5-bebf-4568-9521-e4b595b3d997" d="M375.08,105.29c-.01-.19,.16-.09,.15-.25-.03-.18-.27,.08-.25,.22,.02,.11,.1,.11,.09,.03Z"/><path class="uuid-ab73043c-a684-4873-82ec-ff5ef76108d4" d="M375.21,105.32s.07,.07,.05,.13c-.02,.06,.02,.09,.07,.09h.05c-.02,.09-.14,.05-.12,.13,0,.02,.02,.05,.04,.05,.09,0,.17,.11,.24,.06,.05,.05-.02,.11,.04,.15h.05c.08,.16,.12-.03,.31,.2,.02,.07,.05,.13,.05,.2h0c-.24-.03-.31-.06-.3,.04,0,.06,.04,.09,.08,.08l.03,.04c0,.08-.06,.1-.08,.16-.02,0-.04,0-.06,0-.07,0-.04,.11,.03,.12,.05,0,.11-.03,.15,.05,.03,.07-.01,.08-.2,.27-.01,.01-.03,.02-.02,.05,0,.02,.03,.04,.05,.03,.08-.06,.18-.05,.28-.03,.02,0,.04-.01,.05-.03,.04-.06,.1-.05,.16-.04,.06,0,.12,0,.19,.02,.15,.03,.28,0,.43,.04,.09,.02,.15-.04,.22-.08,0,0,.02-.03,.01-.04-.05-.1,0-.15,.02-.21,.05-.13-.05-.22-.19-.25-.15-.03-.18-.35-.42-.46-.16-.07-.06-.22-.33-.38-.15-.09-.02-.13,.04-.31,.05-.14-.08-.1-.26-.14-.04,0-.11,.02-.13-.06-.03-.09,.05-.06,.1-.1,.06-.02,.05-.09,.05-.15,0-.07-.06-.11-.08-.06-.07,.21-.32-.02-.35,.13h0l-.04,.09h0s-.04,.02-.05,.05h0s-.09,.03-.13,.02c-.07,0-.07,.08-.02,.13Z"/><path class="uuid-ffbb2c09-0a00-42b0-8573-c2fc033fbfc2" d="M357.45,104.2c-.26,.22-.04-.1-.26,.12-.06,.06-.12,.11-.18,.16-.02,.03,.05-.03,.03,.01-.13,.14-.2,.18-.24,.18-.08,.04-.22,.14-.32,.2,.08-.09,.1-.08,.16-.15-.06,.06-.07,.04-.19,.17-.02,.02-.04,.03-.05,.05l-.07,.06-.05,.03c-.06,.06-.09,.08-.13,.12-.02,.03-.07,.07-.11,.11-.03,.04-.05,.06-.08,.09,.03-.02,.06-.05,.11-.09h.01s.08-.06,.17-.13c0,0,.05-.03,.05-.03l.03-.04s-.05,.03-.05,.03c0,0,.03-.03,.05-.03l.04-.03s0,.02-.04,.05c-.02,.02-.03,.03-.04,.03-.05,.07,0,.03,.05,0,.11-.08,.25-.18,.41-.31,.43-.36,.53-.33,.8-.61,.16-.17,.03-.11-.1,0Z"/><path class="uuid-41eeda05-340f-434a-8ec2-686ef2be71f1" d="M358.8,102.92c.05-.03,.1-.05,.16-.08,.03-.01,.07-.08,.04-.07-.04,.02-.1,.05-.16,.09-.01,0-.02,.02-.04,.04-.01,.02-.01,.03,0,.02Z"/><path class="uuid-45c24e2a-efed-454c-b4dd-6273c56714e4" d="M360.46,105.11s.02,.08,.06,.07c.06-.02,.2-.22,.07-.19-.05,.02-.11,.07-.13,.11Z"/><path class="uuid-57bcaa6a-0f44-41e1-b9eb-51c42f3e7e08" d="M374.09,112.78c-.07,.09-.14,.18-.15,.32,.17,0,.14-.2,.22-.28,0,0,0-.04-.02-.05-.02-.02-.04-.01-.05,0Z"/><path class="uuid-d60b487a-241a-41fa-85cd-57f657f53cac" d="M357.63,104.18s.1-.05,.17-.11c-.03-.03-.07,0-.17,.11Z"/><path class="uuid-849834ba-9e18-4921-8d4f-bc56c7ae9aab" d="M360.81,115.09c0-.08-.05-.07-.09-.08-.03,0-.07,0-.06,.05,0,.05,.04,.09,.08,.11,.04,0,.06-.03,.07-.07Z"/><path class="uuid-856723ab-a437-44fd-8fb0-e989738aafde" d="M356.72,104.61s.02-.02,.03-.03c.01-.02,0,0-.03,.02-.02,0-.06,.04-.12,.1,.01,0,.06-.04,.12-.09Z"/><path class="uuid-926f90f5-b8a3-4228-aab5-6d1a6a6bd469" d="M363.28,104.62c.09-.02,.08-.16,0-.15-.1,.02-.1,.17,0,.15Z"/><path class="uuid-8a2f9dd7-4835-4cb3-b5b2-919cb1f01669" d="M388.28,117.48s-.07,0-.08,.04c0,.03,.01,.04,.03,.05,.01,0,.02,0,.03,0,.04,0,.1,.02,.1-.05,0-.06-.06-.03-.09-.04Z"/><path class="uuid-4ee64f4a-77c2-4ffb-acff-316845d24271" d="M360.26,114.92s.07-.04,.07-.09c0-.1-.12-.11-.12,.01,0,.04,0,.08,.05,.08Z"/><path class="uuid-f5be8f2a-ccf8-4473-9ff4-806d3ca3f5a7" d="M371.13,98.84c.12,.01,.23,.03,.35,.05-.03-.07-.07-.06-.35-.05Z"/><path class="uuid-f33f424f-6db9-4c47-b354-062454ef69e7" d="M372.45,100.1s.03,.03,.05,.03c.03,0,.06-.01,.06-.06,0-.03-.02-.04-.05-.04-.02,.02-.07,0-.06,.07Z"/><path class="uuid-6e731d80-51a8-4616-830d-3212fa8cbfc5" d="M362.56,104.98s.01,.04,.03,.03c.03,0,.07-.02,.08-.07,.01-.04-.01-.04-.04-.04-.03,.01-.07,.03-.08,.08Z"/><path class="uuid-d8b7758d-0088-4569-93d0-a47d6bcaf362" d="M372.96,103.43c.07,.01,.09-.02,.14-.05,0,0,0-.02,0-.02,0,0,0,0,0,.02,.04,0,.07,.01,.08-.03h0s.03,0,.04-.02h0s.04,0,.06,0c.02,.02,.04,.04,.06,.03,.08-.03,.14-.09,.22-.13,.04-.02,.05-.09-.02-.15h0c-.08-.07-.17-.14-.25-.2-.01,0-.02,0-.04,0-.04,0-.07-.02-.11-.05-.14-.11-.17,.09-.39,.03-.07-.02-.12,0-.18,0h-.05c-.06-.04-.12,.03-.18,0-.05-.03-.09-.02-.13,.04-.05,.07-.1,.06-.16-.02-.03-.04-.06-.06-.1-.06-.14-.07-.06-.14-.41,.02-.02,0-.04,.04-.06,.06-.05,.07,.03,.09,.12,.08,.1,0,.2-.05,.21,.04,0,.08-.11,0-.26,.1,.12,.06,.22,0,.32,.09,.05,.05,.05,.09,0,.11-.01,0-.02,.01-.02,.03,.02,.03,.05,.02,.07,.02,.42,.01,.36,.16,.56,.12,0,0,.01,0,.02,.01,.14,.04,.28,.05,.37-.11h0c.09,.02,.07,.01,.11,.03Zm.16-.21h0q.1,.02,0,0Zm-.65-.05v-.02h0v.02Zm.17,.15s-.06-.03-.06-.03c0,0,.04,.03,.06,.03,0-.05,.06-.1,.06-.1,0,0-.05,.05-.06,.1Zm.07,.01h0s0-.03,0-.03c0,0,0,.02,0,.03Z"/><path class="uuid-17b90887-dc69-49d1-b2b1-58506f4486b8" d="M358.64,103.64s-.02,0-.04,.02c-.02,.03,.01,.01,.04-.02Z"/><path class="uuid-d4b9ebc6-a5de-4007-a5da-56c7d864e7c7" d="M358,103.56s-.05,.09-.01,.07c.09-.06,.17-.1,.28-.19,.03-.02,.05-.04,.07-.04,0,0,0,0-.01,.03-.02,.02-.05,.03-.08,.08,.05-.03,.11-.06,.18-.12,.02-.03-.04,.02-.01-.02,.04-.04,.06-.05,.08-.05,.04,.02,.14-.06,.23-.12,.02-.01,.06-.06,.05-.06-.03,0,0-.07-.06-.05-.04,.01-.1,.07-.13,.06-.05,0-.15,.11-.23,.13-.03,.02-.07,.04-.1,.06-.08,.06-.17,.12-.27,.21-.05,.06-.02,.03,.03,0Zm.41-.28h0Z"/><path class="uuid-8e79eafc-dacb-4f82-b4fd-f45c9237084f" d="M378.42,103.44h-.02s0,0,.02,0Z"/><path class="uuid-28f8db6c-22b1-4175-84b1-b9e3b396a025" d="M381.27,103.98l.02,.04s0-.02-.02-.04Z"/><path class="uuid-2e1598d0-0dd6-4347-9e59-7c572f649cb2" d="M386.19,110.65l.02,.06h.04s-.03-.04-.06-.06Z"/><path class="uuid-322e41fe-ddad-416f-a003-01de540fa7ef" d="M382.59,109.84s0,.02,0,.03c0,0,0-.02,0-.03Z"/><path class="uuid-9325c033-aee2-4842-9e76-20eaaea709d0" d="M359.38,109.17c-.05,.03-.04,.08-.05,.12l.11-.08s-.02-.06-.06-.04Z"/><path class="uuid-cdce5d5d-2679-4fd8-9d30-6ba9768b9039" d="M378.95,109.81c-.01-.08-.01-.16,0-.24,.01-.08-.03-.17-.08-.18-.05-.02-.19,.05-.1,.23,.03,.06,.07,.12,.09,.18-.03,.04-.06,.06-.11,.06-.03,0-.05,.03-.03,.06,.12,.24-.01,.46,.16,.46,.23,0,.15-.24,.17-.31,.02-.11-.02-.19-.09-.27Z"/><path class="uuid-668c35c2-a6fa-423f-8767-001505b6a323" d="M382.09,111.58s0,0,0,0c-.03,0-.06,0-.06,.04,0,.1,.13,.05,.19,.11,.12,.12,.21,.05,.32,.07,.02,0,.03-.01,.03-.04,0-.06-.35-.15-.47-.19Z"/><path class="uuid-f2e1a971-4272-498a-81ca-afbf7aa44ba3" d="M383.8,111.94s-.02,.06,.02,.1c.04,.03,.07,.04,.11,.03,.1-.02,.2-.04,.19-.2-.05,.02-.11,.04-.17,.02-.06-.02-.1,.03-.15,.05Z"/><polygon class="uuid-15589e5d-a8d5-407f-84d5-84f06154cf1b" points="383.99 111.75 383.99 111.75 383.99 111.75 383.99 111.75"/><path class="uuid-899de045-798c-454b-8ae3-e9e6f614fdad" d="M377.54,110.08c-.01,.06,.17,.14,.17,.02-.01-.09-.16-.11-.17-.02Z"/><path class="uuid-e1c90fae-0108-4a99-917d-675e4be686eb" d="M384.12,111.87h0s0,0,0,0h0s-.01-.02-.01,0Z"/><path class="uuid-0f6c6ee8-c715-4015-aec8-d0411b001b58" d="M386.56,111.08l.04,.06s-.02-.04-.04-.06Z"/></g></g></g></g></g></svg>